<?xml version="1.0" encoding="utf-8"?>
<!-- Generator: Adobe Illustrator 24.1.1, SVG Export Plug-In . SVG Version: 6.00 Build 0)  -->
<svg version="1.1" id="Capa_3" xmlns="http://www.w3.org/2000/svg" xmlns:xlink="http://www.w3.org/1999/xlink" x="0px" y="0px"
	 viewBox="0 0 102.653 105.505" enable-background="new 0 0 102.653 105.505" xml:space="preserve">
<path fill="#F50B16" d="M91.569,34.612c0,0,1.945-2.451,0.445-5.094c0,0-1.01-2.451-4.931-1.797c0,0-2.837,0.817-2.852,4.574
	c0,0,0.208,1.277,1.099,2.272c0,0-2.949,1.188-3.059,4.099v5.153l5.703,2.035l6.535-3.045v-4.946
	C94.51,37.865,94.644,35.459,91.569,34.612z M88.392,29.901c0.943,0,1.708,0.765,1.708,1.708c0,0.943-0.765,1.708-1.708,1.708
	c-0.943,0-1.708-0.765-1.708-1.708C86.684,30.666,87.448,29.901,88.392,29.901z M88.837,44.696l-3.579-0.817
	c0,0-0.015-4.827,0-5.421c0.015-0.594,0.817-0.98,0.817-0.98l4.441-0.089c1.114,0.03,1.099,1.025,1.099,1.025l0.011,5.41
	L88.837,44.696z"/>
<path fill="#303030" d="M49.934,64.083h-6.8c-0.505,0-0.914,0.409-0.914,0.914v6.801c0,0.505,0.409,0.914,0.914,0.914h6.8
	c0.505,0,0.914-0.409,0.914-0.914v-6.801C50.848,64.493,50.439,64.083,49.934,64.083z M48.578,70.441H44.49v-4.088h4.088V70.441z"/>
<path fill="#303030" d="M62.086,64.083h-6.8c-0.505,0-0.914,0.409-0.914,0.914v6.801c0,0.505,0.409,0.914,0.914,0.914h6.8
	c0.505,0,0.914-0.409,0.914-0.914v-6.801C63,64.493,62.591,64.083,62.086,64.083z M60.73,70.441h-4.088v-4.088h4.088V70.441z"/>
<path fill="#303030" d="M62.086,76.202h-6.8c-0.505,0-0.914,0.409-0.914,0.914v6.801c0,0.505,0.409,0.914,0.914,0.914h6.8
	c0.505,0,0.914-0.409,0.914-0.914v-6.801C63,76.612,62.591,76.202,62.086,76.202z M60.73,82.56h-4.088v-4.088h4.088V82.56z"/>
<path fill="#303030" d="M49.911,76.202h-6.8c-0.505,0-0.914,0.409-0.914,0.914v6.801c0,0.505,0.409,0.914,0.914,0.914h6.8
	c0.505,0,0.914-0.409,0.914-0.914v-6.801C50.825,76.612,50.415,76.202,49.911,76.202z M48.554,82.56h-4.088v-4.088h4.088V82.56z"/>
<path fill="#303030" d="M85.775,65.862H70.692c-0.359,0-0.68,0.145-0.922,0.373v-5.939h0.543c0.737,0,1.334-0.597,1.334-1.334v-7.64
	c0-0.737-0.597-1.334-1.334-1.334h-35.6c-0.737,0-1.334,0.597-1.334,1.334v7.64c0,0.737,0.597,1.334,1.334,1.334h0.576v5.806
	c-0.212-0.139-0.452-0.24-0.725-0.24H19.482c-0.746,0-1.35,0.604-1.35,1.35v7.64c0,0.746,0.605,1.35,1.35,1.35h0.428v22.559
	c0,0.855,0.693,1.548,1.548,1.548H35.29v0.395c0,0.764,0.619,1.383,1.383,1.383h31.714c0.764,0,1.383-0.619,1.383-1.383v-0.395
	h14.029c0.855,0,1.548-0.693,1.548-1.548V76.202h0.428c0.746,0,1.35-0.605,1.35-1.35v-7.64
	C87.125,66.466,86.521,65.862,85.775,65.862z M35.29,96.884H23.204V76.202h11.362h0.725V96.884z M35.29,72.712H21.458v-3.557H35.29
	V72.712z M83.799,69.155v3.557H69.77v-3.557H83.799z M36.805,53.084h31.417v3.952H36.805V53.084z M56.581,98.728h-8.003v-7.163
	h8.003V98.728z M66.082,98.728H59.49c0.001-0.017,0.005-0.033,0.005-0.05v-8.889c0-0.901-0.73-1.631-1.631-1.631H47.147
	c-0.901,0-1.631,0.73-1.631,1.631v8.889c0,0.017,0.005,0.033,0.005,0.05h-6.345c-0.291,0-0.527-0.236-0.527-0.527V74.26V60.823
	c0-0.291,0.236-0.527,0.527-0.527h26.906c0.291,0,0.527,0.236,0.527,0.527V74.26v23.942C66.608,98.492,66.373,98.728,66.082,98.728z
	 M82.054,96.884H69.77V76.202h0.922h11.362V96.884z"/>
<path fill="#F50B16" d="M66.693,28.434l-9.327,2.376c0,0-1.129,1.426-0.535,2.02l2.436,2.554l-5.525,5.762l-5.703-5.703
	c0,0-1.248-0.535-2.139,0.119l-8.614,8.792l2.198,2.139l7.647-7.782l5.393,5.584c0,0,0.471,0.772,1.676,0.297l7.145-6.951
	l2.614,2.555c0,0,1.604,0.772,2.079-0.594l2.436-9.505C68.475,30.097,68.713,28.493,66.693,28.434z M64.168,36.246L60.723,32.8
	l4.723-1.426L64.168,36.246z"/>
<path fill="#303030" d="M16.665,21.944c-6.865,0-12.431,5.565-12.431,12.431S9.8,46.805,16.665,46.805s12.431-5.565,12.431-12.431
	S23.531,21.944,16.665,21.944z M16.665,44.062c-5.35,0-9.687-4.337-9.687-9.687s4.337-9.687,9.687-9.687s9.687,4.337,9.687,9.687
	S22.015,44.062,16.665,44.062z"/>
<path fill="#303030" d="M52.639,4.989c-6.865,0-12.431,5.565-12.431,12.431S45.774,29.85,52.639,29.85S65.07,24.285,65.07,17.42
	S59.505,4.989,52.639,4.989z M52.639,27.107c-5.35,0-9.687-4.337-9.687-9.687s4.337-9.687,9.687-9.687s9.687,4.337,9.687,9.687
	S57.99,27.107,52.639,27.107z"/>
<path fill="#303030" d="M88.639,21.944c-6.865,0-12.431,5.565-12.431,12.431s5.565,12.431,12.431,12.431s12.431-5.565,12.431-12.431
	S95.505,21.944,88.639,21.944z M88.639,44.062c-5.35,0-9.687-4.337-9.687-9.687s4.337-9.687,9.687-9.687s9.687,4.337,9.687,9.687
	S93.99,44.062,88.639,44.062z"/>
<path fill="#F50B16" d="M53.973,23.286c0,0,3.653-0.414,3.149-4.178c0,0-0.714-2.673-2.897-2.898l-3.023-0.226
	c0,0-0.619-0.085-0.599-1.186c0,0,0.042-0.602,0.662-0.781l4.891-0.085c0,0,1.082-0.283,1.013-1.224c0,0,0.016-1.11-0.929-1.148
	l-2.352-0.037v-1.28c0,0-0.167-0.715-1.259-0.715c0,0-1.175,0.132-1.175,0.649v1.402c0,0-3.422,0.264-3.548,3.237
	c0,0-0.063,2.842,2.456,3.444c0,0,0.483,0.217,0.787,0.245h2.414c0,0,0.913,0.343,0.965,1.254c0,0-0.158,1.071-0.955,1.165
	l-4.629,0.056c0,0-1.071,0.306-1.039,1.35c0,0,0.016,0.795,0.85,0.955l2.409,0.075l0.026,1.158c0,0,0.438,0.809,1.348,0.791
	c0,0,1.034,0.079,1.329-0.988l-0.011-1.035L53.973,23.286L53.973,23.286z"/>
<path fill="#F50B16" d="M22.963,39.157h-3.082v-8.422c0-0.489,0.396-0.885,0.885-0.885h1.32c0.489,0,0.885,0.396,0.885,0.885v8.414
	C22.97,39.153,22.967,39.157,22.963,39.157z"/>
<path fill="#F50B16" d="M18.204,39.157h-3.083v-5.807c0-0.41,0.332-0.742,0.742-0.742h1.605c0.41,0,0.742,0.332,0.742,0.742v5.801
	C18.21,39.154,18.207,39.157,18.204,39.157z"/>
<path fill="#F50B16" d="M13.75,39.157h-3.085v-2.75c0-0.29,0.235-0.525,0.525-0.525h2.04c0.29,0,0.525,0.235,0.525,0.525v2.746
	C13.753,39.154,13.752,39.155,13.75,39.157z"/>
</svg>
