<?xml version="1.0" encoding="utf-8"?>
<!-- Generator: Adobe Illustrator 24.1.1, SVG Export Plug-In . SVG Version: 6.00 Build 0)  -->
<svg version="1.1" id="Capa_3" xmlns="http://www.w3.org/2000/svg" xmlns:xlink="http://www.w3.org/1999/xlink" x="0px" y="0px"
	 viewBox="0 0 102.653 105.505" enable-background="new 0 0 102.653 105.505" xml:space="preserve">
<path fill="#303030" d="M99.036,74.732c-2.932-4.73-8.23-4.068-8.23-4.068c-1.135,0.378-16.461,6.054-16.461,6.054
	c-3.595,2.554-10.217,1.419-10.217,1.419c6.811-7.284-2.081-13.055-2.081-13.055l-20.15-5.109l-14.381,0.431v-4.688
	c0-1.098-0.89-1.986-1.986-1.986H7.179c-1.098,0-1.986,0.89-1.986,1.986v35.664c0,1.098,0.89,1.986,1.986,1.986h18.352
	c1.098,0,1.986-0.89,1.986-1.986v-3.878h8.135l25.636,6.811c5.865,1.514,11.541,0,11.541,0l24.407-10.123
	C101.874,80.409,99.036,74.732,99.036,74.732z M23.923,88.548c0,0.468-0.379,0.847-0.847,0.847H9.918
	c-0.468,0-0.847-0.379-0.847-0.847V58.646c0-0.468,0.379-0.847,0.847-0.847h13.157c0.468,0,0.847,0.379,0.847,0.847v29.902H23.923z
	 M93.738,82.017l-18.352,7.379c-4.068,2.271-9.744,1.324-9.744,1.324L36.41,83.909h-8.893V64.011h14.253l18.541,4.982
	c3.059,1.229,2.018,5.14,2.018,5.14c-1.608,3.09-4.32,2.522-4.32,2.522L46.122,73.85c-1.924-0.599-2.838,0.883-2.838,0.883
	c-0.347,2.239,1.924,2.749,1.924,2.749l16.838,4.252c4.446,1.135,10.185,0.283,10.185,0.283l18.1-7.284
	c2.649-1.229,5.014,1.986,5.014,1.986C96.86,79.746,93.738,82.017,93.738,82.017z"/>
<path fill="#303030" d="M26.32,80.03h1.187c-0.407,0-0.804-0.041-1.187-0.118V80.03z"/>
<path fill="#F50B16" d="M63.723,33.255c0,0,8.243-9.089,0.585-17.435c-0.674-0.209-9.021-9.654-18.763-0.149
	c0,0-8.436,7.485-0.119,17.347c0,0-10.337,6.178-10.218,17.941l-0.001,2.391c0,0,0.431,3.193,2.733,3.193h32.911
	c0,0,2.495-0.475,3.208-2.851C74.059,53.691,75.723,39.315,63.723,33.255z M54.672,15.671c4.425,0,8.012,3.587,8.012,8.012
	s-3.587,8.012-8.012,8.012c-4.425,0-8.012-3.587-8.012-8.012S50.247,15.671,54.672,15.671z M69.068,51.189H40.08
	c0.529-14.825,15.236-14.957,15.236-14.957C69.232,38.614,69.068,51.189,69.068,51.189z"/>
<path fill="#F50B16" d="M78.351,32.374h-0.403c-0.83,0-1.504-0.673-1.504-1.504V19.94c0-0.83,0.673-1.504,1.504-1.504h0.403
	c0.83,0,1.504,0.673,1.504,1.504v10.93C79.855,31.701,79.182,32.374,78.351,32.374z"/>
<path fill="#F50B16" d="M71.181,25.82v-0.829c0-0.713,0.578-1.291,1.291-1.291h11.356c0.713,0,1.291,0.578,1.291,1.291v0.829
	c0,0.713-0.578,1.291-1.291,1.291H72.472C71.759,27.11,71.181,26.533,71.181,25.82z"/>
</svg>
