<?xml version="1.0" encoding="utf-8"?>
<!-- Generator: Adobe Illustrator 24.1.1, SVG Export Plug-In . SVG Version: 6.00 Build 0)  -->
<svg version="1.1" id="Capa_3" xmlns="http://www.w3.org/2000/svg" xmlns:xlink="http://www.w3.org/1999/xlink" x="0px" y="0px"
	 viewBox="0 0 102.653 105.505" enable-background="new 0 0 102.653 105.505" xml:space="preserve">
<path fill="#303030" d="M69.911,54.058H35.792c-0.651,0-1.178-0.527-1.178-1.178v-1.624c0-0.651,0.527-1.178,1.178-1.178h34.119
	c0.651,0,1.178,0.527,1.178,1.178v1.624C71.089,53.53,70.562,54.058,69.911,54.058z"/>
<path fill="#303030" d="M69.911,64.528H35.792c-0.651,0-1.178-0.527-1.178-1.178v-1.624c0-0.651,0.527-1.178,1.178-1.178h34.119
	c0.651,0,1.178,0.527,1.178,1.178v1.624C71.089,64.001,70.562,64.528,69.911,64.528z"/>
<path fill="#303030" d="M69.3,43.81H55.71c-0.988,0-1.79-0.801-1.79-1.79V41.62c0-0.988,0.801-1.79,1.79-1.79H69.3
	c0.988,0,1.79,0.801,1.79,1.79v0.401C71.089,43.009,70.288,43.81,69.3,43.81z"/>
<path fill="#F50B16" d="M69.3,33.563H55.71c-0.988,0-1.79-0.801-1.79-1.79v-0.401c0-0.988,0.801-1.79,1.79-1.79H69.3
	c0.988,0,1.79,0.801,1.79,1.79v0.401C71.089,32.762,70.288,33.563,69.3,33.563z"/>
<path fill="#F50B16" d="M69.3,23.315H55.71c-0.988,0-1.79-0.801-1.79-1.79v-0.401c0-0.988,0.801-1.79,1.79-1.79H69.3
	c0.988,0,1.79,0.801,1.79,1.79v0.401C71.089,22.514,70.288,23.315,69.3,23.315z"/>
<path fill="#303030" d="M96.337,84.711c-2.762-4.455-7.752-3.832-7.752-3.832c-1.069,0.356-15.505,5.703-15.505,5.703
	c-3.386,2.406-9.624,1.337-9.624,1.337c6.416-6.861-1.96-12.297-1.96-12.297l-18.98-4.812L28.97,71.216V66.8
	c0-1.034-0.838-1.871-1.871-1.871H9.812c-1.034,0-1.871,0.838-1.871,1.871v33.594c0,1.034,0.838,1.871,1.871,1.871h17.287
	c1.034,0,1.871-0.838,1.871-1.871v-3.653h7.663l24.148,6.416c5.525,1.426,10.871,0,10.871,0l22.99-9.535
	C99.01,90.058,96.337,84.711,96.337,84.711z M25.584,97.725c0,0.441-0.357,0.798-0.798,0.798H12.392
	c-0.441,0-0.798-0.357-0.798-0.798V69.559c0-0.441,0.357-0.798,0.798-0.798h12.393c0.441,0,0.798,0.357,0.798,0.798V97.725z
	 M91.347,91.573l-17.287,6.951c-3.832,2.139-9.178,1.247-9.178,1.247l-27.535-6.416H28.97V74.612h13.426l17.465,4.693
	c2.881,1.158,1.901,4.842,1.901,4.842c-1.515,2.911-4.069,2.376-4.069,2.376L46.495,83.88c-1.812-0.564-2.673,0.832-2.673,0.832
	c-0.327,2.109,1.812,2.589,1.812,2.589l15.861,4.005c4.188,1.069,9.594,0.267,9.594,0.267l17.049-6.861
	c2.495-1.158,4.723,1.871,4.723,1.871C94.287,89.434,91.347,91.573,91.347,91.573z"/>
<path fill="#303030" d="M27.842,89.701h1.118c-0.383,0-0.757-0.039-1.118-0.111V89.701z"/>
<path fill="#303030" d="M83.182,40.825c0.869,0.045,1.927-1.426,1.927-1.426V7.531c0-2.139-1.734-3.873-3.873-3.873H33.114
	L31.36,5.39l-8.093,7.989l-3.386,3.343v50.703h3.386V19.795H33.96c0,0,1.693-0.312,1.738-2.272V6.483h43.474
	c1.243,0,2.251,1.008,2.251,2.251v30.709C81.658,40.625,83.182,40.825,83.182,40.825z M32.067,16.209h-6.505l6.505-6.438V16.209z"/>
<path fill="#303030" d="M82.948,54.37c-0.661,0-1.224,0.622-1.525,1.031v28.608c0,0.479-0.065,0.941-0.177,1.385l3.863-1.746V56.931
	l-0.212-0.779C84.686,54.704,82.948,54.37,82.948,54.37z"/>
<circle fill="#303030" cx="83.207" cy="47.642" r="1.96"/>
<path fill="#F50B16" d="M43.168,41.107c0,0,5.168-0.653,4.455-6.594c0,0-1.01-4.218-4.099-4.574l-4.277-0.356
	c0,0-0.876-0.134-0.847-1.871c0,0,0.059-0.95,0.936-1.233l6.921-0.134c0,0,1.531-0.446,1.434-1.931c0,0,0.022-1.752-1.315-1.812
	l-3.328-0.059v-2.02c0,0-0.236-1.129-1.781-1.129c0,0-1.663,0.208-1.663,1.025v2.213c0,0-4.842,0.416-5.02,5.109
	c0,0-0.089,4.485,3.475,5.436c0,0,0.683,0.342,1.114,0.386h3.416c0,0,1.292,0.541,1.366,1.979c0,0-0.223,1.69-1.351,1.838
	l-6.55,0.089c0,0-1.515,0.483-1.47,2.131c0,0,0.022,1.255,1.203,1.507l3.408,0.119l0.037,1.827c0,0,0.62,1.277,1.907,1.248
	c0,0,1.463,0.125,1.88-1.559l-0.015-1.634H43.168z"/>
</svg>
