<?xml version="1.0" encoding="utf-8"?>
<!-- Generator: Adobe Illustrator 24.1.1, SVG Export Plug-In . SVG Version: 6.00 Build 0)  -->
<svg version="1.1" id="Capa_2_1_" xmlns="http://www.w3.org/2000/svg" xmlns:xlink="http://www.w3.org/1999/xlink" x="0px" y="0px"
	 viewBox="0 0 102.653 105.505" enable-background="new 0 0 102.653 105.505" xml:space="preserve">
<path fill="#303030" d="M72.538,53.813H62.401c-0.658,0-1.191-0.662-1.191-1.477v-0.429c0-0.817,0.534-1.477,1.191-1.477h10.137
	c0.658,0,1.191,0.662,1.191,1.477v0.429C73.729,53.151,73.197,53.813,72.538,53.813z"/>
<path fill="#303030" d="M83.593,45.311H63.564c-1.301,0-2.353-0.662-2.353-1.477v-0.429c0-0.817,1.055-1.477,2.353-1.477h20.029
	c1.301,0,2.353,0.662,2.353,1.477v0.429C85.946,44.649,84.893,45.311,83.593,45.311z"/>
<path fill="#303030" d="M83.593,36.809H63.564c-1.301,0-2.353-0.662-2.353-1.477v-0.429c0-0.817,1.055-1.477,2.353-1.477h20.029
	c1.301,0,2.353,0.662,2.353,1.477v0.429C85.946,36.147,84.893,36.809,83.593,36.809z"/>
<path fill="#F50B16" d="M78.021,64.709c-2.909,0-5.267,2.358-5.267,5.267c0,0.819,0.192,1.59,0.525,2.281l-0.01-0.008l-5.5,5.72
	c-0.714-0.361-1.518-0.57-2.374-0.57c-1.561,0-2.958,0.683-3.923,1.761l-5.184-2.65c-0.011-2.898-2.364-5.246-5.266-5.246
	c-2.909,0-5.267,2.358-5.267,5.267c0,0.925,0.241,1.794,0.659,2.549l-3.86,4.792c-0.635-0.271-1.333-0.422-2.066-0.422
	c-2.909,0-5.267,2.358-5.267,5.267s2.358,5.267,5.267,5.267c2.909,0,5.267-2.358,5.267-5.267c0-0.946-0.253-1.832-0.689-2.598
	l3.857-4.758c0.644,0.28,1.352,0.438,2.099,0.438c1.702,0,3.211-0.811,4.174-2.065l4.95,2.551c-0.009,0.126-0.019,0.253-0.019,0.382
	c0,2.909,2.358,5.267,5.267,5.267s5.267-2.358,5.267-5.267c0-0.728-0.148-1.422-0.415-2.052l5.662-5.815
	c0.647,0.284,1.36,0.443,2.112,0.443c2.909,0,5.267-2.358,5.267-5.267S80.93,64.709,78.021,64.709z M40.491,91.575
	c-1.578,0-2.858-1.279-2.858-2.858c0-1.578,1.279-2.858,2.858-2.858c1.578,0,2.858,1.279,2.858,2.858
	C43.348,90.296,42.069,91.575,40.491,91.575z M51.024,79.389c-1.578,0-2.858-1.279-2.858-2.858c0-1.578,1.279-2.858,2.858-2.858
	c1.578,0,2.858,1.279,2.858,2.858C53.882,78.109,52.602,79.389,51.024,79.389z M65.396,85.523c-1.578,0-2.858-1.279-2.858-2.858
	c0-1.578,1.279-2.858,2.858-2.858c1.578,0,2.858,1.279,2.858,2.858C68.253,84.244,66.974,85.523,65.396,85.523z M78.021,72.833
	c-1.578,0-2.858-1.279-2.858-2.858c0-1.578,1.279-2.858,2.858-2.858c1.578,0,2.858,1.279,2.858,2.858
	C80.878,71.554,79.599,72.833,78.021,72.833z"/>
<circle fill="#303030" cx="80.25" cy="52.121" r="1.692"/>
<path fill="#303030" d="M32.785,21.872c-0.583,0-1.158,0.029-1.73,0.07v2.94c0.004,0,0.008,0,0.012-0.001l0.296,18.756l-20.586,0.27
	c0,0-1.431,0.371-1.431,1.403c0,12.945,10.494,23.439,23.439,23.439c12.945,0,23.439-10.494,23.439-23.439
	C56.224,32.366,45.73,21.872,32.785,21.872z M45.875,29.526l-11.119,11.97l-0.145-16.607C38.874,25.266,42.763,26.942,45.875,29.526
	z M32.785,65.818c-10.648,0-19.399-8.116-20.408-18.499c0,0,18.911,0,20.225,0c1.314,0,2.153-1.019,2.153-1.019l14.008-13.84
	c2.832,3.516,4.53,7.984,4.53,12.85C53.292,56.637,44.111,65.818,32.785,65.818z"/>
<path fill="#303030" d="M76.515,8.657H22.987c-2.61,0-4.726,2.116-4.726,4.726v5.002l2.531-0.176l0.44-0.643v-3.938
	c0-0.965,0.782-1.747,1.747-1.747h51.452v11.996c0,0,1.032,4.292,4.292,4.292c2.677,0,9.552,0.167,11.928,0.227v65.932
	c0,0.965-0.782,1.747-1.747,1.747H22.979c-0.965,0-1.747-0.782-1.747-1.747V79.154c0-1.789-1.403-1.953-1.403-1.953
	c-1.568-0.028-1.568,1.678-1.568,1.678v15.772c0,2.61,2.116,4.726,4.726,4.726h66.475c2.61,0,4.726-2.116,4.726-4.726V25.968
	L76.515,8.657z M79.838,25.239c0,0-2.187-0.454-2.27-2.353v-8.876l10.95,11.228H79.838z"/>
<circle fill="#303030" cx="19.875" cy="72.557" r="1.837"/>
<path fill="#303030" d="M28.11,17.274c0,0-0.715-1.376-1.376-1.376c-0.66,0-11.935,0.165-17.719,8.034c0,0-5.785,5.338-5.785,15.738
	c0,0,0.199,1.101,1.107,1.101h22.617c0,0,1.156-0.055,1.376-1.761L28.11,17.274z M24.864,37.538H6.787
	c2.806-17.664,18.077-18.242,18.077-18.242V37.538z"/>
</svg>
