<?xml version="1.0" encoding="utf-8"?>
<!-- Generator: Adobe Illustrator 24.1.1, SVG Export Plug-In . SVG Version: 6.00 Build 0)  -->
<svg version="1.1" id="Capa_2_1_" xmlns="http://www.w3.org/2000/svg" xmlns:xlink="http://www.w3.org/1999/xlink" x="0px" y="0px"
	 viewBox="0 0 102.653 105.505" enable-background="new 0 0 102.653 105.505" xml:space="preserve">
<path fill="#303030" d="M31.819,39.736H17.116c-0.898,0-1.626,0.728-1.626,1.626v5.346c0,0.898,0.728,1.626,1.626,1.626h14.703
	c0.898,0,1.626-0.728,1.626-1.626v-5.346C33.446,40.464,32.718,39.736,31.819,39.736z M30.951,46.241h-13.01v-4.277h13.01V46.241z"
	/>
<path fill="#303030" d="M27.141,53.771H16.715c-0.677,0-1.225-0.549-1.225-1.225V52.19c0-0.677,0.549-1.225,1.225-1.225h10.426
	c0.677,0,1.225,0.549,1.225,1.225v0.356C28.366,53.222,27.818,53.771,27.141,53.771z"/>
<path fill="#303030" d="M86.933,60.899H70.448c-0.775,0-1.403-0.628-1.403-1.403l0,0c0-0.775,0.628-1.403,1.403-1.403h16.485
	c0.775,0,1.403,0.628,1.403,1.403l0,0C88.337,60.271,87.708,60.899,86.933,60.899z"/>
<path fill="#303030" d="M86.933,67.404h-27.98c-0.775,0-1.403-0.628-1.403-1.403l0,0c0-0.775,0.628-1.403,1.403-1.403h27.98
	c0.775,0,1.403,0.628,1.403,1.403l0,0C88.337,66.776,87.708,67.404,86.933,67.404z"/>
<path fill="#303030" d="M27.114,65.248c-5.635,0-10.203,4.568-10.203,10.203s4.568,10.203,10.203,10.203s10.203-4.568,10.203-10.203
	C37.317,69.816,32.749,65.248,27.114,65.248z M27.114,83.197c-4.278,0-7.747-3.468-7.747-7.747c0-4.278,3.468-7.747,7.747-7.747
	s7.747,3.468,7.747,7.747S31.392,83.197,27.114,83.197z"/>
<g>
	<path fill="#303030" d="M83.569,18.216l0.174-0.179h-43.54c0,0-1.817,0.149-1.817,1.397c0,1.248,1.817,1.067,1.817,1.067h43.366
		V18.216z"/>
	<path fill="#303030" d="M95.844,37.063c-0.547,0.019-0.888,0.413-1.107,0.852v32.339c0,2.478-2.009,4.487-4.487,4.487H35.892
		l-1.228,5.584l-1.837,0.699l0,0l-4.511,17.405c-0.533,2.057,0.702,4.158,2.76,4.691l0.255,0.066
		c2.057,0.533,4.158-0.702,4.691-2.76l5.613-21.659c0.234-0.603,0.325-1.118,0.313-1.563h4.815v22.214
		c0,2.125,1.723,3.848,3.848,3.848h0.264c2.125,0,3.848-1.723,3.848-3.848V77.205h4.761c-0.014,0.443,0.087,0.958,0.347,1.563
		l5.613,21.659c0.533,2.057,2.633,3.293,4.691,2.76l0.255-0.066c2.057-0.533,3.293-2.633,2.76-4.691l-5.501-21.224H90.69
		c3.704,0,6.706-3.002,6.706-6.706V38.211C96.965,37.092,95.844,37.063,95.844,37.063z M38.77,77.994l-5.628,21.717
		c-0.14,0.541-0.693,0.867-1.234,0.726l0,0c-0.541-0.14-0.867-0.693-0.726-1.234l5.628-21.717c0.027-0.105,0.081-0.194,0.137-0.281
		h1.698C38.786,77.433,38.842,77.713,38.77,77.994z M51.755,99.449c0,0.559-0.453,1.013-1.013,1.013l0,0
		c-0.559,0-1.013-0.453-1.013-1.013V77.205h2.025L51.755,99.449L51.755,99.449z M70.285,99.203c0.14,0.541-0.185,1.094-0.726,1.234
		l0,0c-0.541,0.14-1.094-0.185-1.234-0.726l-5.628-21.717c-0.073-0.281-0.016-0.561,0.126-0.789h1.698
		c0.055,0.087,0.109,0.176,0.137,0.281L70.285,99.203z"/>
	<path fill="#303030" d="M11.235,74.741c-2.478,0-4.487-2.009-4.487-4.487V27.81h9.361c0,0-0.059-0.141-0.059-1.24
		s-0.178-1.381-0.178-1.381l-9.123-0.112v-0.09c0-2.478,2.009-4.487,4.487-4.487h2.993c0,0,1.346-0.114,1.346-1.289
		c0-1.175-1.346-1.175-1.346-1.175h-3.433c-3.704,0-6.706,3.002-6.706,6.706v45.756c0,3.704,3.002,6.706,6.706,6.706h8.664
		l-0.341-2.464L11.235,74.741L11.235,74.741z"/>
	<path fill="#303030" d="M83.084,27.81l2.492-2.732H38.564c0,0-0.483,0-0.483,1.366c0,1.366,0.899,1.366,0.899,1.366H83.084z"/>
</g>
<path fill="#F50B16" d="M90.654,29.845c0,0,1.559,3.208,3.386,3.208s3.386,0.267,4.589-2.183c0,0,0.49-0.936,0.624-4.277v-8.064
	c0,0-0.624-2.54-3.52-2.985l-10.515,0.178c0,0-3.653,0.134-3.52,4.455c0,0-0.223,3.074,3.074,3.431l0.49,0.134l-17.91,17.732
	l-7.619-7.441c0,0-1.426-0.802-2.317-0.312l-5.837,5.525c0,0-0.627,1.114,0.199,1.827c0,0,0.796,0.55,1.687,0.045l4.871-4.752
	l7.634,7.723c0,0,1.723,0.98,3.074-0.327l20.317-20.376c0,0,0.579-1.871-0.847-2.183h-3.03c0,0-1.381-0.579-1.158-1.559
	c0,0,0.208-1.188,0.995-1.351l9.943-0.119c0,0,1.225,0.067,1.248,1.403l-0.067,9.824c0,0-0.201,1.069-1.426,1.092
	c0,0-1.426-0.2-1.493-1.092v-3.23c0,0,0.022-1.092-1.203-1.092c0,0-0.668,0.067-1.493,0.913L67.35,49.45l-7.218-7.129
	c0,0-1.27-1.403-2.941-0.379l-13.025,12.72c0,0-1.233,0.468-1.856-0.29c0,0-0.824-0.967-0.29-1.62l7.173-7.358
	c0,0,0.468-0.802-0.245-1.604c0,0-1.002-0.713-1.983-0.111l-7.262,7.507c0,0-1.426,2.25,0.624,5.302c0,0,1.782,1.827,4.812,0.757
	c0,0,0.845-0.603,1.002-0.757l12.074-11.851l7.53,7.218c0,0,1.738,1.248,3.297-0.089"/>
<path fill="#303030" d="M27.327,79.256h-0.178c-0.738,0-1.337-0.598-1.337-1.337v-4.218c0-0.738,0.598-1.337,1.337-1.337h0.178
	c0.738,0,1.337,0.598,1.337,1.337v4.218C28.663,78.657,28.065,79.256,27.327,79.256z"/>
<path fill="#303030" d="M27.114,6.715c-8.145,0-14.747,6.603-14.747,14.747S18.969,36.21,27.114,36.21s14.747-6.603,14.747-14.747
	S35.259,6.715,27.114,6.715z M27.114,32.955c-6.347,0-11.493-5.145-11.493-11.493S20.767,9.97,27.114,9.97
	s11.493,5.145,11.493,11.493S33.461,32.955,27.114,32.955z"/>
<path fill="#F50B16" d="M28.697,28.422c0,0,4.333-0.491,3.735-4.957c0,0-0.847-3.171-3.437-3.438l-3.586-0.268
	c0,0-0.735-0.101-0.71-1.406c0,0,0.049-0.714,0.785-0.927l5.803-0.101c0,0,1.284-0.335,1.202-1.452c0,0,0.018-1.317-1.103-1.362
	l-2.79-0.044v-1.518c0,0-0.198-0.849-1.493-0.849c0,0-1.394,0.156-1.394,0.771v1.664c0,0-4.06,0.313-4.209,3.841
	c0,0-0.075,3.371,2.914,4.086c0,0,0.573,0.257,0.934,0.29h2.864c0,0,1.083,0.407,1.145,1.488c0,0-0.187,1.27-1.133,1.382
	l-5.492,0.067c0,0-1.27,0.363-1.233,1.602c0,0,0.018,0.943,1.009,1.133l2.858,0.089l0.031,1.373c0,0,0.52,0.96,1.599,0.938
	c0,0,1.227,0.094,1.576-1.172l-0.013-1.228L28.697,28.422L28.697,28.422z"/>
</svg>
