<?xml version="1.0" encoding="utf-8"?>
<!-- Generator: Adobe Illustrator 24.1.1, SVG Export Plug-In . SVG Version: 6.00 Build 0)  -->
<svg version="1.1" id="Capa_3" xmlns="http://www.w3.org/2000/svg" xmlns:xlink="http://www.w3.org/1999/xlink" x="0px" y="0px"
	 viewBox="0 0 102.653 105.505" enable-background="new 0 0 102.653 105.505" xml:space="preserve">
<path fill="#303030" d="M36.545,82.82H18.604c-1.099,0-1.99-0.891-1.99-1.99l0,0c0-1.099,0.891-1.99,1.99-1.99h17.941
	c1.099,0,1.99,0.891,1.99,1.99l0,0C38.535,81.929,37.644,82.82,36.545,82.82z"/>
<path fill="#303030" d="M57.424,25.82H47.277c-0.854,0-1.547-0.692-1.547-1.547v-0.887c0-0.854,0.692-1.547,1.547-1.547h10.147
	c0.854,0,1.547,0.692,1.547,1.547v0.887C58.97,25.128,58.278,25.82,57.424,25.82z"/>
<path fill="#303030" d="M39.901,25.82h-7.597c-0.754,0-1.366-0.612-1.366-1.366v-1.248c0-0.754,0.612-1.366,1.366-1.366h7.597
	c0.754,0,1.366,0.612,1.366,1.366v1.248C41.267,25.209,40.656,25.82,39.901,25.82z"/>
<path fill="#303030" d="M41.713,75.038H18.604c-1.099,0-1.99-0.891-1.99-1.99l0,0c0-1.099,0.891-1.99,1.99-1.99h23.109
	c1.099,0,1.99,0.891,1.99,1.99l0,0C43.703,74.147,42.812,75.038,41.713,75.038z"/>
<path fill="#303030" d="M48.426,67.553H18.604c-1.099,0-1.99-0.891-1.99-1.99v0c0-1.099,0.891-1.99,1.99-1.99h29.822
	c1.099,0,1.99,0.891,1.99,1.99v0C50.416,66.662,49.525,67.553,48.426,67.553z"/>
<path fill="#303030" d="M50.624,59.843H18.901c-1.099,0-1.99-0.891-1.99-1.99v0c0-1.099,0.891-1.99,1.99-1.99h31.723
	c1.099,0,1.99,0.891,1.99,1.99v0C52.614,58.952,51.723,59.843,50.624,59.843z"/>
<path fill="#F50B16" d="M74.908,74.258c-5.5,0-9.958,4.458-9.958,9.958c0,5.5,4.458,9.958,9.958,9.958s9.958-4.458,9.958-9.958
	C84.866,78.717,80.407,74.258,74.908,74.258z M74.908,90.177c-3.292,0-5.961-2.669-5.961-5.961c0-3.292,2.669-5.961,5.961-5.961
	s5.961,2.669,5.961,5.961C80.869,87.508,78.2,90.177,74.908,90.177z"/>
<path fill="#F50B16" d="M97.317,79.167c-4.218-5.614-12.743-8.911-12.743-8.911c-5.614-2.554-15.505-1.069-15.505-1.069
	c-14.525,3.119-19.604,14.436-19.604,14.436c-0.148,0.49,0,0.847,0,0.847c3.52,8.109,11.718,11.985,11.718,11.985
	c7.262,4.099,17.51,3.119,17.51,3.119c12.609-1.203,19.871-12.163,19.871-12.163c1.604-2.139,1.852-3.401,1.852-3.401
	C99.891,82.434,97.317,79.167,97.317,79.167z M76.822,95.563c0,0-15.772,0.921-22.545-11.347c0,0,4.118-8.822,17.733-11.168
	c0,0,11.317-0.961,18.178,5.207c0,0,4.634,4.06,5.257,5.961C95.446,84.216,90.455,93.691,76.822,95.563z"/>
<path fill="#303030" d="M50.271,40.642H18.956c-1.294,0-2.342,1.049-2.342,2.342v7.426c0,1.294,1.049,2.342,2.342,2.342h31.315
	c1.294,0,2.342-1.049,2.342-2.342v-7.426C52.614,41.691,51.565,40.642,50.271,40.642z M48.307,48.372
	c0,0.029-0.023,0.052-0.052,0.052H21.062c-0.029,0-0.052-0.023-0.052-0.052v-3.401c0-0.029,0.023-0.052,0.052-0.052h27.193
	c0.029,0,0.052,0.023,0.052,0.052V48.372z"/>
<path fill="#303030" d="M49.402,90.286c0,0,0.175-1.674-1.919-2.12H11.228c-0.953,0-1.725-0.772-1.725-1.725V35.295h72.455V63.87
	c0,0,0.359,1.693,1.696,1.693c1.337,0,2.406-1.129,2.406-2.109V16.47c0-2.854-2.314-5.168-5.168-5.168H10.569
	c-2.854,0-5.168,2.314-5.168,5.168v70.322c0,2.854,2.314,5.168,5.168,5.168h37.159C47.728,91.96,49.402,91.292,49.402,90.286z
	 M9.503,17.654c0-0.953,0.772-1.725,1.725-1.725h69.005c0.953,0,1.725,0.772,1.725,1.725v14.077H9.503V17.654z"/>
<path fill="#F50B16" d="M74.802,64.226L74.802,64.226c-1.23,0-2.228-0.997-2.228-2.228v-4.634c0-1.23,0.997-2.228,2.228-2.228l0,0
	c1.23,0,2.228,0.997,2.228,2.228v4.634C77.03,63.229,76.032,64.226,74.802,64.226z"/>
<path fill="#F50B16" d="M67.643,65.187L67.643,65.187c-1.201,0.268-2.391-0.489-2.659-1.69l-1.008-4.523
	c-0.268-1.201,0.489-2.391,1.69-2.659h0c1.201-0.268,2.391,0.489,2.659,1.69l1.008,4.523C69.601,63.728,68.844,64.919,67.643,65.187
	z"/>
<path fill="#F50B16" d="M61.023,67.913L61.023,67.913c-1.066,0.615-2.428,0.25-3.043-0.815l-2.317-4.013
	c-0.615-1.066-0.25-2.428,0.815-3.043l0,0c1.066-0.615,2.428-0.25,3.043,0.815l2.317,4.013
	C62.454,65.935,62.089,67.298,61.023,67.913z"/>
<path fill="#303030" d="M22.822,18.216h-7.084c-1.23,0-2.228,0.997-2.228,2.228v6.772c0,1.23,0.997,2.228,2.228,2.228h7.084
	c1.23,0,2.228-0.997,2.228-2.228v-6.772C25.049,19.214,24.052,18.216,22.822,18.216z M22.168,26.622h-5.554v-5.554h5.554V26.622z"/>
</svg>
