<?xml version="1.0" encoding="utf-8"?>
<!-- Generator: Adobe Illustrator 24.1.1, SVG Export Plug-In . SVG Version: 6.00 Build 0)  -->
<svg version="1.1" id="Capa_1" xmlns="http://www.w3.org/2000/svg" xmlns:xlink="http://www.w3.org/1999/xlink" x="0px" y="0px"
	 viewBox="0 0 102.653 105.505" enable-background="new 0 0 102.653 105.505" xml:space="preserve">
<path fill="#F50B16" d="M61.456,44.692c-9.504,0-17.208,7.704-17.208,17.208c0,9.504,7.704,17.208,17.208,17.208
	S78.664,71.403,78.664,61.9C78.664,52.396,70.96,44.692,61.456,44.692z M61.456,75.801c-7.678,0-13.901-6.224-13.901-13.901
	s6.224-13.901,13.901-13.901S75.358,54.222,75.358,61.9S69.134,75.801,61.456,75.801z"/>
<path fill="#F50B16" d="M61.902,57.182c0,0,3.208,0.624,3.876,2.317c0.668,1.693,0.668,2.54,0.98,3.431c0,0,0.713,1.515,2.183,0.757
	c1.47-0.757,1.96-3.297-0.356-6.95c0,0-3.297-2.896-5.614-2.941C62.971,53.796,59.229,53.93,61.902,57.182z"/>
<circle fill="#F50B16" cx="86.407" cy="80.394" r="1.96"/>
<circle fill="#F50B16" cx="27.039" cy="15.368" r="1.96"/>
<path fill="#423E3E" d="M100.25,50.157c0.1-1.96,0-32.814,0-32.814s-0.519-3.992-4.25-3.887l-61.811-0.048
	c0,0-1.158,0.469-1.114,1.96c0,0-0.178,1.826,1.025,1.871l59.911,0.067c0,0,1.99,0.119,2.05,2.109l0.012,28.931
	c0,0-0.607,1.723-2.389,1.812H83.387c-4.143-7.659-12.165-12.713-21.485-12.713c-9.155,0-17.132,5.024-21.339,12.462l-31.28,0.102
	c0,0-2.005-0.145-2.139-2.01c-0.134-1.866,0-29.4,0-29.4s0.267-1.246,2.139-1.269c1.871-0.023,9.713,0,9.713,0
	s1.069-0.601,1.158-1.96c0,0,0-1.625-1.069-1.96H7.59c0,0-4.545,0-4.545,4.833l0,31.099c0,0,0.297,4.678,5.733,4.678
	c4.793,0,25.181,0,29.938,0c-0.851,2.488-1.319,5.154-1.319,7.931c0,13.534,10.971,24.505,24.505,24.505
	c4.43,0,8.582-1.182,12.168-3.238c3.213,3.38,12.938,13.589,13.941,14.332c1.203,0.891,2.896,2.317,2.896,2.317
	c3.965,1.693,7.663-2.005,7.663-2.005c2.896-3.609,0.535-7.886,0.535-7.886l-6.728-7.084c-0.936-1.025-3.03-0.178-3.03-0.178
	c-0.936,0.802-0.535,2.673-0.535,2.673l6.861,7.218c1.025,1.426-0.267,2.896-0.267,2.896c-0.936,1.381-3.609,0.579-3.609,0.579
	L77.647,80.722c5.354-4.495,8.76-11.235,8.76-18.773c0-2.859-0.418-5.379-1.318-7.931h10.93
	C96.019,54.019,99.773,53.944,100.25,50.157z M61.902,82.712c-11.467,0-20.762-9.296-20.762-20.762s9.296-20.762,20.762-20.762
	s20.762,9.296,20.762,20.762S73.369,82.712,61.902,82.712z"/>
<g>
	<path fill="#423E3E" d="M29.433,37.702l-2.99-8.386l-3.028,8.386c-0.236,0.636-0.423,1.093-0.562,1.369
		c-0.139,0.277-0.381,0.525-0.726,0.744c-0.345,0.22-0.803,0.33-1.375,0.33c-0.462,0-0.843-0.065-1.142-0.196
		c-0.299-0.13-0.541-0.315-0.726-0.553c-0.185-0.239-0.336-0.521-0.454-0.849c-0.118-0.328-0.223-0.631-0.315-0.912l-3.079-9.417
		c-0.185-0.547-0.278-0.963-0.278-1.25c0-0.363,0.168-0.668,0.505-0.916s0.753-0.372,1.249-0.372c0.682,0,1.14,0.166,1.375,0.496
		c0.235,0.331,0.441,0.811,0.618,1.44l2.422,8.167l2.713-7.643c0.202-0.585,0.382-1.03,0.542-1.335
		c0.16-0.306,0.42-0.569,0.782-0.792s0.854-0.334,1.476-0.334c0.631,0,1.121,0.116,1.47,0.348c0.349,0.232,0.591,0.485,0.725,0.758
		c0.135,0.274,0.315,0.725,0.543,1.355l2.738,7.643l2.422-8.167c0.118-0.426,0.229-0.76,0.334-1.001
		c0.105-0.242,0.286-0.458,0.542-0.649c0.256-0.191,0.629-0.286,1.117-0.286s0.902,0.123,1.243,0.367
		c0.341,0.245,0.511,0.552,0.511,0.921c0,0.261-0.093,0.677-0.278,1.25l-3.079,9.417c-0.21,0.636-0.385,1.102-0.523,1.398
		s-0.375,0.555-0.707,0.778c-0.333,0.222-0.801,0.334-1.407,0.334c-0.572,0-1.031-0.108-1.375-0.325s-0.584-0.459-0.719-0.73
		C29.866,38.821,29.677,38.358,29.433,37.702z"/>
	<path fill="#423E3E" d="M53.67,37.702l-2.99-8.386l-3.028,8.386c-0.236,0.636-0.423,1.093-0.562,1.369
		c-0.139,0.277-0.381,0.525-0.726,0.744c-0.345,0.22-0.803,0.33-1.375,0.33c-0.462,0-0.843-0.065-1.142-0.196
		c-0.299-0.13-0.541-0.315-0.726-0.553c-0.185-0.239-0.336-0.521-0.454-0.849c-0.118-0.328-0.223-0.631-0.315-0.912l-3.079-9.417
		c-0.185-0.547-0.278-0.963-0.278-1.25c0-0.363,0.168-0.668,0.505-0.916s0.753-0.372,1.249-0.372c0.682,0,1.14,0.166,1.375,0.496
		c0.235,0.331,0.441,0.811,0.618,1.44l2.422,8.167l2.713-7.643c0.202-0.585,0.382-1.03,0.542-1.335
		c0.16-0.306,0.42-0.569,0.782-0.792s0.854-0.334,1.476-0.334c0.631,0,1.121,0.116,1.47,0.348c0.349,0.232,0.591,0.485,0.725,0.758
		c0.135,0.274,0.315,0.725,0.543,1.355l2.738,7.643l2.422-8.167c0.118-0.426,0.229-0.76,0.334-1.001
		c0.105-0.242,0.286-0.458,0.542-0.649c0.256-0.191,0.629-0.286,1.117-0.286s0.902,0.123,1.243,0.367
		c0.341,0.245,0.511,0.552,0.511,0.921c0,0.261-0.093,0.677-0.278,1.25l-3.079,9.417c-0.21,0.636-0.385,1.102-0.523,1.398
		s-0.375,0.555-0.707,0.778c-0.333,0.222-0.801,0.334-1.407,0.334c-0.572,0-1.031-0.108-1.375-0.325s-0.584-0.459-0.719-0.73
		C54.104,38.821,53.915,38.358,53.67,37.702z"/>
	<path fill="#423E3E" d="M77.908,37.702l-2.99-8.386l-3.028,8.386c-0.236,0.636-0.423,1.093-0.562,1.369
		c-0.139,0.277-0.381,0.525-0.726,0.744c-0.345,0.22-0.803,0.33-1.375,0.33c-0.462,0-0.843-0.065-1.142-0.196
		c-0.299-0.13-0.541-0.315-0.726-0.553c-0.185-0.239-0.336-0.521-0.454-0.849c-0.118-0.328-0.223-0.631-0.315-0.912l-3.079-9.417
		c-0.185-0.547-0.278-0.963-0.278-1.25c0-0.363,0.168-0.668,0.505-0.916s0.753-0.372,1.249-0.372c0.682,0,1.14,0.166,1.375,0.496
		c0.235,0.331,0.441,0.811,0.618,1.44l2.422,8.167l2.713-7.643c0.202-0.585,0.382-1.03,0.542-1.335
		c0.16-0.306,0.42-0.569,0.782-0.792s0.854-0.334,1.476-0.334c0.631,0,1.121,0.116,1.47,0.348c0.349,0.232,0.591,0.485,0.725,0.758
		c0.135,0.274,0.315,0.725,0.543,1.355l2.738,7.643l2.422-8.167c0.118-0.426,0.229-0.76,0.334-1.001
		c0.105-0.242,0.286-0.458,0.542-0.649c0.256-0.191,0.629-0.286,1.117-0.286s0.902,0.123,1.243,0.367
		c0.341,0.245,0.511,0.552,0.511,0.921c0,0.261-0.093,0.677-0.278,1.25l-3.079,9.417c-0.21,0.636-0.385,1.102-0.523,1.398
		s-0.375,0.555-0.707,0.778c-0.333,0.222-0.801,0.334-1.407,0.334c-0.572,0-1.031-0.108-1.375-0.325s-0.584-0.459-0.719-0.73
		C78.341,38.821,78.152,38.358,77.908,37.702z"/>
</g>
</svg>
