<?xml version="1.0" encoding="utf-8"?>
<!-- Generator: Adobe Illustrator 24.1.1, SVG Export Plug-In . SVG Version: 6.00 Build 0)  -->
<svg version="1.1" id="Capa_2_1_" xmlns="http://www.w3.org/2000/svg" xmlns:xlink="http://www.w3.org/1999/xlink" x="0px" y="0px"
	 viewBox="0 0 102.653 105.505" enable-background="new 0 0 102.653 105.505" xml:space="preserve">
<path fill="#F50B16" d="M63.307,3.231H43.703c-0.853,0-1.545,0.691-1.545,1.545V10.3c0,0.853,0.692,1.545,1.545,1.545h1.132V4.954
	h17.521v6.891h0.951c0.853,0,1.545-0.692,1.545-1.545V4.776C64.852,3.923,64.16,3.231,63.307,3.231z"/>
<path fill="#303030" d="M76.592,51.276H50.498c-0.619,0-1.121-0.502-1.121-1.121v-0.876c0-0.619,0.502-1.121,1.121-1.121h26.094
	c0.619,0,1.121,0.502,1.121,1.121v0.876C77.713,50.774,77.211,51.276,76.592,51.276z"/>
<path fill="#303030" d="M76.592,66.87H50.498c-0.619,0-1.121-0.502-1.121-1.121v-0.876c0-0.619,0.502-1.121,1.121-1.121h26.094
	c0.619,0,1.121,0.502,1.121,1.121v0.876C77.713,66.368,77.211,66.87,76.592,66.87z"/>
<path fill="#303030" d="M76.592,82.464H50.498c-0.619,0-1.121-0.502-1.121-1.121v-0.876c0-0.619,0.502-1.121,1.121-1.121h26.094
	c0.619,0,1.121,0.502,1.121,1.121v0.876C77.713,81.962,77.211,82.464,76.592,82.464z"/>
<path fill="#303030" d="M38.98,42.543h-8.376c-1.263,0-2.287,1.024-2.287,2.287v8.851c0,1.263,1.024,2.287,2.287,2.287h8.376
	c1.263,0,2.287-1.024,2.287-2.287V44.83C41.267,43.567,40.243,42.543,38.98,42.543z M39.693,53.343c0,0.634-0.514,1.147-1.147,1.147
	h-7.404c-0.634,0-1.147-0.514-1.147-1.147v-8.175c0-0.634,0.514-1.147,1.147-1.147h7.404c0.634,0,1.147,0.514,1.147,1.147V53.343z"
	/>
<path fill="#303030" d="M38.98,60.157h-8.376c-1.263,0-2.287,1.024-2.287,2.287v8.851c0,1.263,1.024,2.287,2.287,2.287h8.376
	c1.263,0,2.287-1.024,2.287-2.287v-8.851C41.267,61.181,40.243,60.157,38.98,60.157z M39.693,70.957
	c0,0.634-0.514,1.147-1.147,1.147h-7.404c-0.634,0-1.147-0.514-1.147-1.147v-8.175c0-0.634,0.514-1.147,1.147-1.147h7.404
	c0.634,0,1.147,0.514,1.147,1.147V70.957z"/>
<path fill="#303030" d="M38.98,77.771h-8.376c-1.263,0-2.287,1.024-2.287,2.287v8.851c0,1.263,1.024,2.287,2.287,2.287h8.376
	c1.263,0,2.287-1.024,2.287-2.287v-8.851C41.267,78.795,40.243,77.771,38.98,77.771z M39.693,88.571
	c0,0.634-0.514,1.147-1.147,1.147h-7.404c-0.634,0-1.147-0.514-1.147-1.147v-8.175c0-0.634,0.514-1.147,1.147-1.147h7.404
	c0.634,0,1.147,0.514,1.147,1.147V88.571z"/>
<path fill="#F50B16" d="M31.822,50.058c0,0-1.04-1.366-0.238-2.436c0,0,1.396-0.802,2.614,0.327l1.545,1.604
	c0,0,0.535,0.297,1.396-0.564l5.465-6.446c0,0,0.921-0.475,1.901,0.297c0,0,0.743,1.01,0,1.931l-6.98,8.465
	c0,0-0.891,1.08-2.027,0.123L31.822,50.058z"/>
<path fill="#F50B16" d="M31.822,67.816c0,0-1.04-1.366-0.238-2.436c0,0,1.396-0.802,2.614,0.327l1.545,1.604
	c0,0,0.535,0.297,1.396-0.564l5.465-6.446c0,0,0.921-0.475,1.901,0.297c0,0,0.743,1.01,0,1.931l-6.98,8.465
	c0,0-0.891,1.08-2.027,0.123L31.822,67.816z"/>
<path fill="#F50B16" d="M31.822,84.034c0,0-1.04-1.366-0.238-2.436c0,0,1.396-0.802,2.614,0.327l1.545,1.604
	c0,0,0.535,0.297,1.396-0.564l5.465-6.446c0,0,0.921-0.475,1.901,0.297c0,0,0.743,1.01,0,1.931l-6.98,8.465
	c0,0-0.891,1.08-2.027,0.123L31.822,84.034z"/>
<path fill="#303030" d="M76.546,10.582H28.317c-5.974,0-8.198,3.08-8.198,9.053v73.082c0.42,4.019,1.782,8.875,8.796,8.875h48.229
	c5.974,0,8.386-4.774,9.034-8.875V19.636C86.178,13.663,82.52,10.582,76.546,10.582z M36.871,12.602h32.257v15.565H36.871V12.602z
	 M83.327,91.82c0,3.888-3.152,7.04-7.04,7.04H29.951c-3.888,0-7.04-0.951-7.04-7.04V20.533c0-3.888,0.356-7.04,7.04-7.04h4.01V26.83
	c0,3.002,0.831,4.545,5.703,4.366H67.11c4.336-0.059,5.108-0.891,5.168-4.366V13.493h4.01c6.237,0,7.04,3.152,7.04,7.04
	L83.327,91.82L83.327,91.82z"/>
</svg>
