<?xml version="1.0" encoding="utf-8"?>
<!-- Generator: Adobe Illustrator 24.1.1, SVG Export Plug-In . SVG Version: 6.00 Build 0)  -->
<svg version="1.1" id="Capa_1" xmlns="http://www.w3.org/2000/svg" xmlns:xlink="http://www.w3.org/1999/xlink" x="0px" y="0px"
	 viewBox="0 0 102.653 105.505" enable-background="new 0 0 102.653 105.505" xml:space="preserve">
<path fill="#423E3E" d="M87.467,4.048h-5.839c-0.409,0.257-0.767,0.67-0.826,1.352c0,0,0,0.363,0.302,0.787h5.371
	c4.265,0,7.723,3.458,7.723,7.723V47.83c0,4.265-3.458,7.723-7.723,7.723h-5.411c-0.123,0.062-0.228,0.123-0.292,0.178
	c-0.446,0.386-8.911,6.98-8.911,6.98l0.208-6.208c0,0-0.03-0.743-1.634-0.951H53.112c-1.506,0-2.906-0.436-4.092-1.183V37.817
	c0-2.722-1.454-5.102-3.63-6.436V13.909c0-4.265,3.458-7.723,7.723-7.723h21.179c0.151-0.199,0.266-0.418,0.288-0.668
	c0.063-0.718-0.459-1.199-0.883-1.47H52.12c-5.299,0-9.594,4.295-9.594,9.594V30.34c-0.375-0.056-0.756-0.094-1.146-0.094H13.234
	c-4.219,0-7.64,3.39-7.64,7.571v3.892c0.441,0.845,1.455,1.042,1.455,1.042c0.732,0.119,1.17-0.437,1.426-1.019v-3.644
	c0-2.361,1.938-5.837,5.334-5.837h26.567c3.396,0,6.364,2.411,6.364,5.777v26.768c0,0.109-0.015,0.214-0.021,0.321H42.55
	c-3.071,0-5.56,2.485-5.56,5.551v0.222h-0.709c-0.098,0.049-0.181,0.097-0.232,0.141c-0.355,0.305-5.879,4.569-5.879,4.569
	l-0.219-3.68c0,0,0.416-1.262-0.861-1.426l-15.072-0.03c-3.396,0-5.542-2.243-5.542-5.608v-14.68
	c-0.123-0.106-0.208-0.253-0.208-0.444c0-0.772-1.337-1.069-1.337-1.069c-0.674,0.032-1.091,0.574-1.337,1.067v15.278
	c0,4.181,3.42,7.571,7.64,7.571h14.073v5.965c0.248,1.828,2.614,0.891,2.614,0.891s5.077-4.768,7.069-6.429v17.598
	c0,3.066,2.489,5.551,5.56,5.551h9.822v4.279c0.181,1.34,1.084,0.98,1.084,0.98s5.774-4.525,6.771-5.259h2.806
	c3.071,0,5.56-2.485,5.56-5.551v-3.334l-0.148-0.142c0,0-0.163-1.054-1.277-1.099c0,0-0.817,0.178-0.817,1.144v3.378
	c0,2.468-2.02,3.572-3.892,3.587l-3.136-0.009c-0.071,0.036-4.935,4.142-4.935,4.142l0.045-3.776c0,0-0.574-0.43-1.504-0.55H42.89
	c-1.935,0.038-3.36-0.948-3.36-3.415V70.902c0-1.872,2.115-3.186,3.595-3.186h19.335c1.045,0,4.07,1.27,3.892,3.208v7.861
	c0.021,0.396,0.171,1.161,1.025,1.05c0,0,1.218-0.223,1.218-1.485v-7.682c0-3.066-2.489-5.551-5.56-5.551H49.012
	c0.001-0.037,0.008-0.073,0.008-0.11v-7.853c0.975,0.336,2.011,0.538,3.101,0.538h16.949v7.396c0.312,2.317,1.871,1.693,1.871,1.693
	s9.964-7.821,11.684-9.089h4.843c5.299,0,9.594-4.295,9.594-9.594V13.642C97.061,8.343,92.766,4.048,87.467,4.048z"/>
<path fill="#423E3E" d="M22.606,62.662L22.606,62.662c-0.697-0.111-1.172-0.765-1.061-1.462l3.048-19.201
	c0.111-0.697,0.765-1.172,1.462-1.061l0,0c0.697,0.111,1.172,0.765,1.061,1.462l-3.048,19.201
	C23.957,62.297,23.302,62.772,22.606,62.662z"/>
<path fill="#423E3E" d="M28.903,62.662L28.903,62.662c-0.697-0.111-1.172-0.765-1.061-1.462l3.048-19.201
	c0.111-0.697,0.765-1.172,1.462-1.061v0c0.697,0.111,1.172,0.765,1.061,1.462l-3.048,19.201
	C30.254,62.297,29.599,62.772,28.903,62.662z"/>
<path fill="#423E3E" d="M16.51,48.562L16.51,48.562c0-0.705,0.572-1.277,1.277-1.277l19.441,0c0.705,0,1.277,0.572,1.277,1.277v0
	c0,0.705-0.572,1.277-1.277,1.277l-19.441,0C17.082,49.839,16.51,49.268,16.51,48.562z"/>
<path fill="#423E3E" d="M16.332,54.948L16.332,54.948c0-0.705,0.572-1.277,1.277-1.277l19.441,0c0.705,0,1.277,0.572,1.277,1.277v0
	c0,0.705-0.572,1.277-1.277,1.277l-19.441,0C16.904,56.226,16.332,55.654,16.332,54.948z"/>
<path fill="#F50B16" d="M83.178,26.474h-7.842c0,0,3.208-8.317-1.396-11.614c0,0-2.881-1.277-4.218,1.842
	c0,0,0.765,3.592-2.822,7.158l-3.412,3.861c-0.278-0.578-0.864-0.98-1.548-0.98h-7.01c-0.951,0-1.723,0.771-1.723,1.723v16.812
	c0,0.951,0.771,1.723,1.723,1.723h7.01c0.768,0,1.411-0.506,1.633-1.2c0.819,0.552,2.255,1.389,3.654,1.527
	c2.109,0.208,15.802,0,15.802,0s2.97-0.535,3.03-3.624V29.533C86.059,29.533,85.762,26.741,83.178,26.474z M61.198,44.236h-5.376
	V29.592h5.376V44.236z M83.327,29.867V43.82c0,0.624-0.802,0.832-0.802,0.832h-14.97c-2.294-0.06-3.406-1.484-3.891-2.414V31.548
	l5.339-5.869c3.275-2.473,3.497-8.51,3.497-8.51c0.49-0.624,1.158,2.317,1.158,2.317c1.225,2.695-1.671,7.596-1.671,7.596
	c-0.535,1.604,0.824,2.161,0.824,2.161h9.49C83.416,29.266,83.327,29.867,83.327,29.867z"/>
<path fill="#F50B16" d="M57.069,74.459c0,0-2.733-0.743-4.337,0.951l-0.137,0.126c0,0-1.838-2.016-4.344-1.125
	c0,0-6.071,2.217-3.019,8.298c0.644,0.927,2.072,3.594,6.705,5.696l0.657,0.297l0.642-0.297c0,0,6.208-2.97,7.396-6.921
	C60.901,80.147,61.525,75.394,57.069,74.459z M57.708,81.632c-0.557,1.522-4.812,4.188-4.812,4.188l-0.238,0.152l-0.296-0.152
	c-0.713-0.356-3.891-3.178-3.891-3.178c-3.045-3.475,0.149-5.495,0.149-5.495c1.797-0.757,3.445,1.381,3.757,1.5
	c0.312,0.119,0.52-0.015,0.52-0.015c1.441-2.332,3.772-1.47,3.772-1.47C59.312,78.142,57.886,81.112,57.708,81.632z"/>
</svg>
