<?xml version="1.0" encoding="utf-8"?>
<!-- Generator: Adobe Illustrator 24.1.1, SVG Export Plug-In . SVG Version: 6.00 Build 0)  -->
<svg version="1.1" id="Capa_2" xmlns="http://www.w3.org/2000/svg" xmlns:xlink="http://www.w3.org/1999/xlink" x="0px" y="0px"
	 viewBox="0 0 102.653 105.505" enable-background="new 0 0 102.653 105.505" xml:space="preserve">
<path fill="#F50B16" d="M88.079,20.444H82.97v-0.193c0-2.559-2.075-4.634-4.634-4.634c-2.559,0-4.634,2.075-4.634,4.634v0.193
	H59.327c-0.689,0-1.247,0.559-1.247,1.248v0.594c0,0.689,0.559,1.247,1.247,1.247h14.376v0.193c0,2.559,2.075,4.634,4.634,4.634
	c2.559,0,4.634-2.075,4.634-4.634v-0.193h5.109c0.689,0,1.247-0.559,1.247-1.247v-0.594C89.327,21.002,88.768,20.444,88.079,20.444z
	 M80.497,23.518c0,1.032-0.836,1.868-1.868,1.868h-0.585c-1.032,0-1.868-0.836-1.868-1.868v-3.059c0-1.032,0.836-1.868,1.868-1.868
	h0.585c1.032,0,1.868,0.836,1.868,1.868V23.518z"/>
<path fill="#303030" d="M59.178,34.234h1.96v0.193c0,2.559,2.075,4.634,4.634,4.634c2.559,0,4.634-2.075,4.634-4.634v-0.193H87.96
	c0.689,0,1.247-0.559,1.247-1.248v-0.594c0-0.689-0.559-1.247-1.247-1.247H70.406v-0.193c0-2.559-2.075-4.634-4.634-4.634
	c-2.559,0-4.634,2.075-4.634,4.634v0.193h-1.96c-0.689,0-1.247,0.559-1.247,1.247v0.594C57.931,33.675,58.489,34.234,59.178,34.234z
	 M63.611,31.16c0-1.032,0.836-1.868,1.868-1.868h0.585c1.032,0,1.868,0.836,1.868,1.868v3.059c0,1.032-0.836,1.868-1.868,1.868
	H65.48c-1.032,0-1.868-0.836-1.868-1.868V31.16z"/>
<path fill="#303030" d="M95.897,3.089H13.182c-3.185,0-5.766,2.582-5.766,5.766v26.637c-2.456,1.041-6.197,4.155-5.713,13.466
	L1.66,60.365c0,0,2.805,7.307,3.696,10.96c0.891,3.654,1.299,8.673,1.229,9.772c0,0.004,0.008,0.008,0.008,0.012
	c-1.108,0.755-1.861,2.142-1.861,3.748v14.204c0,2.405,1.669,4.354,3.727,4.354h23.792c2.059,0,3.727-1.949,3.727-4.354V84.857
	c0-2.144-1.329-3.916-3.075-4.277c0.886-1.857,3.834-8.42,3.075-12.017h29.712l7.526,15.365c-1.613,0.41-2.811,1.86-2.811,3.6v12.16
	c0,2.059,1.669,3.727,3.727,3.727h23.792c2.059,0,3.727-1.669,3.727-3.727v-12.16c0-1.817-1.301-3.326-3.022-3.656l3.022-7.735
	V62.99c0.002-0.065,0.01-0.128,0.01-0.194V8.855C101.663,5.671,99.081,3.089,95.897,3.089z M10.629,9.113
	c0-2.094,1.698-3.792,3.792-3.792h80.238c2.094,0,3.792,1.698,3.792,3.792l0.433,46.081c-1.078-0.491-2.365-0.654-3.675,0.181
	V13.731c0-2.461-1.995-4.455-4.455-4.455H18.277c-2.461,0-4.455,1.995-4.455,4.455v27.564c0,0-1.931-0.713-3.193-0.356V9.113z
	 M87.842,42.543h-5.087l-0.052-1.96c0,0-0.579-2.718-4.322-2.941c0,0-3.386,0.178-4.589,2.762v2.139H59.297
	c-0.755,0-1.366,0.612-1.366,1.366v0.097c0,0.755,0.612,1.366,1.366,1.366h14.495v14.279v0.713l-3.252-4.945
	c0,0-2.094-2.094-5.658-1.025c0,0-3.388,1.629-3.198,5.257H21.258c-0.763-1.05-1.669-1.994-2.743-2.673c0,0,0.556-8.416-1.842-12.99
	v-29.75c0-1.1,0.892-1.992,1.992-1.992H90.19c1.1,0,1.992,0.892,1.992,1.992v39.451c-0.317-0.135-0.667-0.223-1.059-0.231
	c0,0-1.916,0.134-2.584,1.292c0,0-0.49-2.629-3.698-2.985c0,0-1.649,0.045-1.827,0.668l-0.186-7.062h5.013
	c0.755,0,1.366-0.612,1.366-1.366v-0.097C89.208,43.155,88.596,42.543,87.842,42.543z M32.802,84.533v14.852
	c0,0.939-0.652,1.7-1.455,1.7H9.366c-0.804,0-1.455-0.761-1.455-1.7V84.533c0-0.939,0.652-1.7,1.455-1.7h21.981
	C32.15,82.833,32.802,83.594,32.802,84.533z M32.997,71.622c-0.072,1.04-2.512,8.525-2.512,8.525H9.114c0,0-0.163-3.921-0.282-5.287
	c-0.119-1.366-1.116-4.693-1.116-4.693L4.394,59.058l0.042-10.871c-0.393-7.03,2.105-8.929,2.98-9.377V55.56
	c0.228,0.765,0.466,1.395,0.687,1.648c0,0,0.004,0.006,0.006,0.01c0.54,1.006,1.376,0.771,1.376,0.771
	c0.239,0.021,0.437-0.106,0.602-0.337c0.003-0.003,0.006-0.004,0.009-0.007c0,0,0.389-0.386,0.533-1.254v-0.449
	c0.462-2.998,0-8.231,0-8.231c0-4.337,0.698-3.754,0.698-3.754c2.911,0.286,4.158,3.991,4.158,3.991s-0.059,5.376,0.03,7.634
	s0.802,3.356,0.802,3.356s1.034,0.527,2.198,1.729c0.861,0.825,1.431,1.835,1.431,1.835c0.643,1.025,1.21,2.286,1.523,3.827H21.46
	c0.011,0.035,0.027,0.099,0.041,0.146c0.083,0.438,0.153,0.891,0.192,1.374c-0.119,1.782,0.505,2.109,0.505,2.109
	c2.079,1.634,2.673-1.04,2.673-1.04h8.126C32.997,68.919,33.069,70.583,32.997,71.622z M24.341,66.331
	c-0.292-1.017-0.756-2.401-1.426-3.827h39.809l1.875,3.827H24.341z M98.293,87.343v12.529c0,0.792-0.642,1.434-1.434,1.434H75.2
	c-0.792,0-1.434-0.642-1.434-1.434V87.343c0-0.792,0.642-1.434,1.434-1.434h21.66C97.651,85.909,98.293,86.551,98.293,87.343z
	 M96.248,83.106l-20.495,0.134L65.458,62.503h0.059l-1.192-2.85c-0.136-1.559,1.046-2.211,1.046-2.211
	c1.248-1.114,2.918-0.045,2.918-0.045l4.953,8.48c0.995,1.634,1.693,1.396,1.693,1.396c1.144-0.045,1.396-1.337,1.396-1.337
	l0.089-23.703c0.045-1.96,1.678-2.005,1.678-2.005c1.678,0,1.604,2.049,1.604,2.049l0.03,20.629
	c0.134,0.921,1.455,1.218,1.455,1.218c1.292,0.074,1.47-1.247,1.47-1.247v-6.717c0.033-1.27,1.693-1.515,1.693-1.515
	c1.426,0.011,1.682,1.359,1.682,1.359v7.051c0.122,0.824,1.47,1.069,1.47,1.069c1.337-0.067,1.415-1.069,1.415-1.069l0.056-5.547
	c0.145-1.114,1.671-1.247,1.671-1.247c1.359,0,1.704,1.247,1.704,1.247v5.213c0.167,1.437,1.582,1.437,1.582,1.437
	c1.08,0,1.203-1.181,1.203-1.181v-3.731c0.29-1.682,1.938-1.381,1.938-1.381c1.366,0.021,1.795,1.23,1.849,1.402l0.023,2.466
	l0.066,13.218L96.248,83.106z"/>
<path fill="#F50B16" d="M37.388,20.006c-20.555,1.188-17.406,24.059-17.406,24.059c0.312,1.285,2.079,1.307,2.079,1.307h30.772
	c1.545,0,1.517-1.307,1.517-1.307C56.64,19.709,37.388,20.006,37.388,20.006z M33.269,42.313c0-2.252,1.826-4.078,4.078-4.078
	c2.252,0,4.078,1.826,4.078,4.078H33.269z M50.211,42.313h-6.648c0-1.624-0.628-3.098-1.648-4.205
	c0.056-0.04,0.121-0.063,0.171-0.114l2.569-2.569c0.5-0.5,0.5-1.311,0-1.811c-0.5-0.5-1.311-0.5-1.811,0l-2.569,2.569
	c-0.146,0.146-0.236,0.321-0.297,0.504c-0.8-0.375-1.689-0.59-2.631-0.59c-3.433,0-6.215,2.783-6.215,6.215h-6.541
	c0,0-1.471-0.017-1.731-0.992c0,0-0.147-0.99-0.142-2.501h2.269c0.651,0,1.178-0.528,1.178-1.178s-0.528-1.178-1.178-1.178h-2.138
	c0.289-2.643,1.149-5.9,3.382-8.548l1.7,1.7c0.46,0.46,1.206,0.46,1.666,0c0.46-0.46,0.46-1.206,0-1.666l-1.684-1.684
	c1.939-1.559,4.591-2.712,8.19-3.093v1.968c0,0.651,0.528,1.178,1.178,1.178c0.651,0,1.178-0.528,1.178-1.178v-2.011
	c1.771,0.173,5.342,0.835,8.323,3.314l-1.507,1.507c-0.46,0.46-0.46,1.206,0,1.666c0.46,0.46,1.206,0.46,1.666,0l1.506-1.506
	c1.589,1.941,2.792,4.632,3.102,8.354h-1.842c-0.651,0-1.178,0.528-1.178,1.178s0.528,1.178,1.178,1.178h1.908
	c-0.013,0.797-0.051,1.621-0.142,2.501C51.474,41.321,51.497,42.313,50.211,42.313z"/>
</svg>
