<?xml version="1.0" encoding="utf-8"?>
<!-- Generator: Adobe Illustrator 24.1.1, SVG Export Plug-In . SVG Version: 6.00 Build 0)  -->
<svg version="1.1" id="Capa_1" xmlns="http://www.w3.org/2000/svg" xmlns:xlink="http://www.w3.org/1999/xlink" x="0px" y="0px"
	 viewBox="0 0 102.653 105.505" enable-background="new 0 0 102.653 105.505" xml:space="preserve">
<g>
	<path fill="#F50B16" d="M84.865,27.517h-4.613c0,0-2.344,1.478-2.373,3.247v2.138h-1.352c-0.774,0-1.402,0.628-1.402,1.402
		s0.628,1.402,1.402,1.402h1.352v4.508c0,0,0.551,1.044,1.304,1.015c0.754-0.029,1.073-0.493,1.391-1.217v-4.305h1.388
		c0.774,0,1.402-0.628,1.402-1.402s-0.628-1.402-1.402-1.402h-1.388v-1.848c0,0,0.493-0.957,1.073-0.957h3.073
		c0,0,1.391,0.029,1.391-1.044C86.112,29.054,86.025,27.604,84.865,27.517z"/>
	<path fill="#F50B16" d="M86.868,70.228c-0.522-0.319-8.581-4.406-8.581-4.406s-1.739-0.493-1.826,0.551s-0.116,9.131-0.116,9.131
		s0.29,1.275,1.681,0.957l9.092-4.522C87.119,71.938,87.389,70.547,86.868,70.228z M78.894,73.775v-5.334l4.899,2.607L78.894,73.775
		z"/>
	<path fill="#F50B16" d="M29.171,25.149H17.007c-1.624,0-2.941,1.317-2.941,2.941v12.163c0,1.624,1.317,2.941,2.941,2.941H29.17
		c1.624,0,2.941-1.317,2.941-2.941V28.09C32.111,26.466,30.795,25.149,29.171,25.149z M30.089,39.897
		c0,0.704-0.571,1.275-1.275,1.275h-11.45c-0.704,0-1.275-0.571-1.275-1.275v-11.45c0-0.704,0.571-1.275,1.275-1.275h11.45
		c0.704,0,1.275,0.571,1.275,1.275C30.089,28.447,30.089,39.897,30.089,39.897z"/>
	<path fill="#F50B16" d="M23.302,30.429c-2.067,0-3.743,1.676-3.743,3.743s1.676,3.743,3.743,3.743s3.743-1.676,3.743-3.743
		S25.369,30.429,23.302,30.429z M23.302,35.709c-0.849,0-1.537-0.688-1.537-1.537s0.688-1.537,1.537-1.537s1.537,0.688,1.537,1.537
		C24.84,35.021,24.151,35.709,23.302,35.709z"/>
	<path fill="#423E3E" d="M51.872,41.172c-6.566,0-11.889,5.323-11.889,11.889c0,1.505,0.291,2.938,0.801,4.263
		c-2.776,4.321-1.463,6.273-1.463,6.273c1.388,1.214,4.371-0.348,5.475-0.999c1.979,1.47,4.421,2.351,7.076,2.351
		c6.566,0,11.889-5.323,11.889-11.889C63.761,46.495,58.438,41.172,51.872,41.172z M51.872,62.909c-2.414,0-4.623-0.872-6.336-2.314
		c-0.659-0.234-1.384-0.381-1.863-0.129c0,0-1.832,0.887-2.12,0.749c0,0-0.323-0.058,0-0.472c0,0,1.136-2.572,1.313-3.708
		c-0.538-1.216-0.842-2.559-0.842-3.974c0-5.439,4.409-9.848,9.848-9.848s9.848,4.409,9.848,9.848
		C61.72,58.5,57.311,62.909,51.872,62.909z"/>
	<path fill="#F50B16" d="M31.532,63.751c0,0-0.691-1.559-3.252-0.423c0,0-0.111,0.24-0.958-0.415
		c-0.847-0.655-3.676-1.212-4.366-0.61c0,0-2.829,1.181-2.829,3.676c0,0-1.648,0.267-3.876-1.76c0,0-1.247-1.515-2.651-0.691
		c0,0-1.738,2.339-0.49,7.196c0,0,1.537,2.584,2.317,2.963c0,0-2.673,0.512-2.139,2.295c0,0-0.045,0.468,0.312,1.003
		c0,0,4.767,3.832,11.807-0.579c0,0,2.762-0.356,4.634-7.084C30.04,69.32,33.025,65.644,31.532,63.751z M27.834,68.34
		c0.022,1.047-0.735,2.874-0.735,2.874c-2.094,5.881-9.869,5.057-9.869,5.057s0,0-0.223-0.379s1.827-1.069,1.827-1.069
		c1.203-0.757-0.045-1.916-0.045-1.916c-3.475-1.426-3.809-3.498-3.809-3.498c-0.178-0.958,0.111-2.896,0.111-2.896
		c3.832,2.451,5.725,2.027,5.725,2.027c1.181,0.022,1.381-1.003,1.381-1.003c-0.245-2.295,1.693-3.163,1.693-3.163
		c1.648-0.245,2.918,1.27,2.918,1.27h2.762C29.46,66.446,27.834,68.34,27.834,68.34z"/>
	<path fill="#F50B16" d="M51.949,57.021c-0.564-0.242-4.912-2.961-4.824-5.131c0.045-1.113-0.004-3.099,1.383-3.38
		s2.185,0.757,2.114,1.465c-0.071,0.708-0.113,0.649-0.581,0.92c0,0-0.746,0.685-0.139,1.596c0,0,2.228,2.456,3.149,2.387
		c0.922-0.069,1.878-0.484,1.855-1.187s0.438-1.486,1.417-1.198c0,0,1.682,0.818,0.945,2.086c0,0-1.037,2.235-3.434,2.489
		C53.835,57.067,52.513,57.263,51.949,57.021z"/>
</g>
<path fill="#423E3E" d="M80.619,54.772c-0.128,0-0.254,0.008-0.381,0.011v-4.092c0.128,0.003,0.252,0.019,0.381,0.019
	c9.022,0,16.337-7.314,16.337-16.337s-7.314-16.337-16.337-16.337c-0.089,0-0.174,0.012-0.262,0.013v-2.041
	c0-4.593-3.723-8.316-8.316-8.316H31.405c-4.593,0-8.316,3.723-8.316,8.316v1.828c-3.733,0.002-7.293,1.294-10.136,3.544
	c-0.007,0.214,0.018,0.463,0.102,0.756c0.162,0.564,0.656,0.68,1.145,0.641c3.393-2.643,7.917-3.764,12.412-2.635
	c7.748,1.945,12.452,9.803,10.506,17.551S27.315,50.146,19.567,48.2S7.115,38.397,9.061,30.649c0.349-1.39,0.895-2.677,1.589-3.85
	c0.004-0.008-0.003-0.009,0.002-0.019c0.25-0.439,0.836-1.253-0.377-1.897c-0.164-0.087-0.328-0.14-0.49-0.174
	c-1.147,1.611-2.03,3.449-2.541,5.483c-2.197,8.751,3.116,17.626,11.867,19.823c1.332,0.334,2.664,0.475,3.978,0.476v3.241
	c-0.35-0.022-0.699-0.053-1.055-0.053c-9.022,0-16.337,7.314-16.337,16.337s7.314,16.337,16.337,16.337
	c0.356,0,0.704-0.031,1.055-0.053v3.41c0,4.593,3.723,8.316,8.316,8.316H72.04c4.593,0,8.316-3.723,8.316-8.316v-2.279
	c0.088,0.001,0.174,0.013,0.262,0.013c9.022,0,16.337-7.314,16.337-16.337S89.641,54.772,80.619,54.772z M80.619,19.91
	c7.989,0,14.464,6.475,14.464,14.464c0,7.988-6.476,14.464-14.464,14.464s-14.464-6.476-14.464-14.464S72.63,19.91,80.619,19.91z
	 M22.034,84.481c-7.988,0-14.464-6.476-14.464-14.464s6.476-14.464,14.464-14.464s14.464,6.476,14.464,14.464
	S30.022,84.481,22.034,84.481z M80.619,85.572c-7.988,0-14.464-6.476-14.464-14.464c0-1.433,0.216-2.814,0.604-4.121
	c0.002-0.009-0.006-0.008-0.003-0.019c0.136-0.486,0.505-1.419-0.828-1.748c-0.181-0.045-0.352-0.056-0.517-0.049
	c-0.72,1.842-1.129,3.839-1.129,5.936c0,7.541,5.117,13.871,12.063,15.752v4.367c0,1.343-1.711,1.81-3.054,1.81H30.987
	c-1.343,0-3.264-2.414-3.264-3.757v-3.965c6.214-2.312,10.648-8.279,10.648-15.298S33.936,57.03,27.723,54.718v-4.897
	c5.35-1.59,9.753-5.865,11.211-11.671c2.141-8.527-2.859-17.153-11.211-19.623v-2.36c0-1.343,1.921-3.802,3.264-3.802H41.98
	c0,0.881,0,2.045,0,2.443c0,0.668,0.475,1.299,2.079,1.418s17.344,0,17.344,0s2.825,0.164,2.954-1.351
	c0.046-0.535,0.107-1.482,0.114-2.51h8.82c1.343,0,3.054,1.711,3.054,3.054v3.202c-6.946,1.881-12.063,8.211-12.063,15.752
	s5.117,13.871,12.063,15.752v5.22c-3.495,0.95-6.523,3.03-8.672,5.825c0.045,0.209,0.13,0.445,0.283,0.709
	c0.295,0.508,0.802,0.5,1.267,0.343c2.647-3.39,6.762-5.578,11.396-5.578c7.988,0,14.464,6.476,14.464,14.464
	S88.607,85.572,80.619,85.572z"/>
</svg>
