<?xml version="1.0" encoding="utf-8"?>
<!-- Generator: Adobe Illustrator 24.1.1, SVG Export Plug-In . SVG Version: 6.00 Build 0)  -->
<svg version="1.1" id="Capa_1" xmlns="http://www.w3.org/2000/svg" xmlns:xlink="http://www.w3.org/1999/xlink" x="0px" y="0px"
	 viewBox="0 0 102.653 105.505" enable-background="new 0 0 102.653 105.505" xml:space="preserve">
<path fill="#423E3E" d="M28.178,13.182h-3.386V8.445c0-2.958-2.398-5.356-5.356-5.356H7.019c-2.958,0-5.356,2.398-5.356,5.356v13.05
	c0,2.958,2.398,5.356,5.356,5.356h12.416c2.958,0,5.356-2.398,5.356-5.356v-5.328h3.386c0.733,0,1.327-0.594,1.327-1.327v-0.331
	C29.505,13.776,28.911,13.182,28.178,13.182z M22.099,21.865c0,1.226-0.994,2.22-2.22,2.22H6.576c-1.226,0-2.22-0.994-2.22-2.22
	V8.076c0-1.226,0.994-2.22,2.22-2.22h13.303c1.226,0,2.22,0.994,2.22,2.22V21.865z"/>
<path fill="#423E3E" d="M95.634,22.226h-5.059c0.772-7.901-6.119-9.148-6.119-9.148H34.97c-1.069,0.238-1.158,1.396-1.158,1.396
	c-0.059,1.307,1.158,1.723,1.158,1.723l49.485,0.03c2.644,0.089,3.327,3.713,3.327,3.713l-0.052,2.287h-4.512
	c-2.958,0-5.356,2.398-5.356,5.356v5.931c-0.126-0.035-0.256-0.059-0.394-0.059h-13.5c-0.824,0-1.493,0.668-1.493,1.493
	c0,0.824,0.668,1.493,1.493,1.493h13.5c0.137,0,0.267-0.024,0.394-0.059v4.252c0,2.958,2.398,5.356,5.356,5.356h12.416
	c2.958,0,5.356-2.398,5.356-5.356v-13.05C100.99,24.624,98.592,22.226,95.634,22.226z M98.297,41.002c0,1.226-0.994,2.22-2.22,2.22
	H82.774c-1.226,0-2.22-0.994-2.22-2.22V27.213c0-1.226,0.994-2.22,2.22-2.22h13.303c1.226,0,2.22,0.994,2.22,2.22V41.002z"/>
<path fill="#F50B16" d="M69.782,57.959l-2.896-2.272c0,0,0.446-1.247,0.223-6.238l3.743-3.208c0,0,0.668-0.49,0-1.738L67.4,39.335
	c0,0-1.026-0.512-2.006,0l-3.386,1.27c0,0-3.408-2.495-5.592-3.141l-1.025-4.886c0,0-0.312-0.787-1.53-0.757l-5.658-0.001
	c0,0-1.099,0.268-1.158,0.922l-0.772,4.619c0,0-4.47,1.886-5.569,3.401l-4.381-1.626c0,0-0.891-0.156-1.426,0.267l-3.297,5.792
	c0,0-0.223,1.114,0.223,1.292l3.631,3.007c0,0-0.557,3.052,0.067,6.327l-3.765,3.364c0,0-0.423,0.446-0.045,1.426l3.342,5.503
	c0,0,0.468,0.557,1.671,0.111c1.203-0.446,3.965-1.626,3.965-1.626s1.671,2.361,5.458,3.319l1.025,4.745
	c0,0-0.134,0.936,1.136,0.936h5.703c0,0,1.47-0.223,1.738-1.782c0.267-1.559,0.713-3.832,0.713-3.832s3.876-1.247,5.614-3.342
	l3.965,1.693c0,0,0.846,0.49,1.827-0.891l2.985-4.856C70.852,60.587,71.743,59.295,69.782,57.959z M66.04,63.083l-4.678-1.648
	c-3.03,3.876-7.485,4.344-7.485,4.344l-0.936,5.042h-2.822h-0.097c0,0-0.78-3.193-0.958-4.062c-0.178-0.869-0.846-1.181-0.846-1.181
	c-2.941-0.312-6.951-4.21-6.951-4.21l-4.656,1.626l-1.493-2.807l2.695-2.228c0.78-0.401,0.913-1.203,0.913-1.203
	c-0.757-4.5-0.089-7.262-0.089-7.262c0.267-0.713-0.624-1.604-0.624-1.604l-2.896-2.896l1.693-2.807c0,0,0.446,0.356,2.317,1.035
	s2.54,0.346,2.54,0.346c1.203-1.648,4.5-2.985,5.926-3.431c1.426-0.445,1.292-0.936,1.292-0.936l0.936-4.322h3.074
	c0.223,3.06,1.337,4.99,1.337,4.99c3.431,0.223,7.307,3.832,7.307,3.832l4.366-1.649l1.96,2.896l-3.832,3.475
	c1.871,4.589-0.045,8.644-0.045,8.644l3.609,3.074L66.04,63.083z"/>
<path fill="#F50B16" d="M51.326,43.559c-5.078,0-9.194,4.116-9.194,9.194s4.116,9.194,9.194,9.194c5.078,0,9.194-4.116,9.194-9.194
	S56.404,43.559,51.326,43.559z M51.326,59.331c-3.633,0-6.578-2.945-6.578-6.578s2.945-6.578,6.578-6.578
	c3.633,0,6.578,2.945,6.578,6.578S54.96,59.331,51.326,59.331z"/>
<path fill="#423E3E" d="M21.218,36.484c4.545-0.535,18,0,18,0S41,36.216,40.955,34.88c0,0-0.089-1.292-2.049-1.292H21.218
	c0,0-7.619,1.381-9.178,7.797l-0.267,1.604v15.951H7.019c-2.958,0-5.356,2.398-5.356,5.356v13.05c0,2.958,2.398,5.356,5.356,5.356
	h12.416c2.958,0,5.356-2.398,5.356-5.356V72.61c0.085,0.02,0.166,0.052,0.258,0.052H38.46c0.64,0,1.158-0.519,1.158-1.158v-0.668
	c0-0.64-0.519-1.158-1.158-1.158H25.049c-0.091,0-0.173,0.032-0.258,0.052v-5.433c0-2.958-2.398-5.356-5.356-5.356h-4.633V41.385
	C14.802,41.385,16.673,37.018,21.218,36.484z M19.879,61.706c1.226,0,2.22,0.994,2.22,2.22v13.789c0,1.226-0.994,2.22-2.22,2.22
	H6.576c-1.226,0-2.22-0.994-2.22-2.22V63.926c0-1.226,0.994-2.22,2.22-2.22H19.879z"/>
<path fill="#423E3E" d="M95.634,79.018h-4.668c-0.119-2.532-0.867-4.455-0.867-4.455c-0.951-4.158-5.822-4.812-5.822-4.812H63.188
	c-1.218,0-1.114,1.352-1.114,1.352c-0.015,1.188,1.114,1.351,1.114,1.351l20.918,0.141c2.651-0.134,3.676,2.985,3.676,2.985
	l0.019,3.438h-4.583c-2.958,0-5.356,2.398-5.356,5.356v5.686h-3.364c-0.82,0-1.485,0.665-1.485,1.485
	c0,0.82,0.665,1.485,1.485,1.485h3.364v4.394c0,2.958,2.398,5.356,5.356,5.356h12.416c2.958,0,5.356-2.398,5.356-5.356v-13.05
	C100.99,81.416,98.592,79.018,95.634,79.018z M98.297,97.794c0,1.226-0.994,2.22-2.22,2.22H82.774c-1.226,0-2.22-0.994-2.22-2.22
	V84.005c0-1.226,0.994-2.22,2.22-2.22h13.303c1.226,0,2.22,0.994,2.22,2.22V97.794z"/>
<path fill="#423E3E" d="M68.134,89.904L49.51,90.083l4.946-3.817c0,0,0.891-1.084,0.312-1.886c0,0-1.292-0.802-2.139,0l-8.51,6.015
	c0,0-0.891,0.936-0.223,2.005l8.866,6.817c0,0,0.936,0.624,1.649-0.446c0,0,1.158-0.98,0.312-1.96l-5.035-3.876l18.446,0.223
	c0,0,1.248-0.49,1.025-1.871S68.134,89.904,68.134,89.904z"/>
<path fill="#F50B16" d="M88.733,92.028l3.446-5.614c0,0,0.594-0.743,1.634-0.446c0,0,1.366,0.535,0.713,1.901l-4.604,7.634
	c0,0-0.624,0.683-1.812-0.149l-3.713-2.584c0,0-0.624-0.935,0-1.938c0,0,0.802-0.557,1.96-0.171l2.287,1.574L88.733,92.028z"/>
<path fill="#F50B16" d="M88.733,35.302l3.446-5.614c0,0,0.594-0.743,1.634-0.446c0,0,1.366,0.535,0.713,1.901l-4.604,7.634
	c0,0-0.624,0.683-1.812-0.149l-3.713-2.584c0,0-0.624-0.935,0-1.938c0,0,0.802-0.557,1.96-0.171l2.287,1.574L88.733,35.302z"/>
<path fill="#F50B16" d="M12.55,72.491l3.446-5.614c0,0,0.594-0.743,1.634-0.446c0,0,1.366,0.535,0.713,1.901l-4.604,7.634
	c0,0-0.624,0.683-1.812-0.149l-3.713-2.584c0,0-0.624-0.935,0-1.938c0,0,0.802-0.557,1.96-0.171l2.287,1.574L12.55,72.491z"/>
<path fill="#F50B16" d="M12.55,16.165l3.446-5.614c0,0,0.594-0.743,1.634-0.446c0,0,1.366,0.535,0.713,1.901l-4.604,7.634
	c0,0-0.624,0.683-1.812-0.149l-3.713-2.584c0,0-0.624-0.935,0-1.938c0,0,0.802-0.557,1.96-0.171l2.287,1.574L12.55,16.165z"/>
</svg>
