<?xml version="1.0" encoding="utf-8"?>
<!-- Generator: Adobe Illustrator 24.1.1, SVG Export Plug-In . SVG Version: 6.00 Build 0)  -->
<svg version="1.1" xmlns="http://www.w3.org/2000/svg" xmlns:xlink="http://www.w3.org/1999/xlink" x="0px" y="0px"
	 viewBox="0 0 102.653 105.505" enable-background="new 0 0 102.653 105.505" xml:space="preserve">
<g id="Capa_2">
</g>
<g id="Capa_3">
	<path fill="#F50B16" d="M96.195,39.373c-1.326-1.871-4.901-1.247-4.901-1.247L65.66,60.492l-0.832,0.624
		c-2.673-0.356-6.772,2.584-6.772,2.584c-3.208,2.852-3.03,7.396-3.03,9.713s-2.852,4.99-2.852,4.99
		c-1.515,2.406,1.693,2.495,1.693,2.495c2.852,0.089,13.455-0.891,13.455-0.891c6.861-1.604,7.485-9.802,7.485-9.802L96.64,45.611
		C98.69,41.423,96.195,39.373,96.195,39.373z M66.923,77.156c0,0-1.381,1.114-10.158,0.713c0,0,1.337-2.673,0.891-5.569
		c0,0,0-5.257,3.386-7.084c0,0,3.03-1.47,3.832-1.158l6.46,6.46C71.333,70.517,71.601,75.596,66.923,77.156z M94.056,44.156
		l-20.594,24l-6.02-6.178l23.703-20.97c0,0,2.317-0.713,2.911,0.416C94.65,42.552,94.65,43.086,94.056,44.156z"/>
	<path fill="#303030" d="M92.63,13.443H59.571c-1.034,0-1.871,0.838-1.871,1.871V32.72c0,1.033,0.838,1.871,1.871,1.871H92.63
		c1.034,0,1.871-0.838,1.871-1.871V15.314C94.502,14.28,93.664,13.443,92.63,13.443z M92.096,31.71H60.462V16.205h31.634V31.71z"/>
	<path fill="#303030" d="M87.195,22.354H74.274c-0.689,0-1.248-0.559-1.248-1.248v0c0-0.689,0.559-1.248,1.248-1.248h12.921
		c0.689,0,1.248,0.559,1.248,1.248v0C88.442,21.795,87.884,22.354,87.195,22.354z"/>
	<path fill="#303030" d="M68.927,22.354h-3.921c-0.689,0-1.248-0.559-1.248-1.248v0c0-0.689,0.559-1.248,1.248-1.248h3.921
		c0.689,0,1.248,0.559,1.248,1.248v0C70.175,21.795,69.616,22.354,68.927,22.354z"/>
	<path fill="#303030" d="M87.195,28.413H65.363c-0.689,0-1.248-0.559-1.248-1.248v0c0-0.689,0.559-1.248,1.248-1.248h21.832
		c0.689,0,1.248,0.559,1.248,1.248v0C88.442,27.854,87.884,28.413,87.195,28.413z"/>
	<path fill="#303030" d="M34.799,85.586H23.616c-0.689,0-1.248-0.559-1.248-1.248l0,0c0-0.689,0.559-1.248,1.248-1.248h11.183
		c0.689,0,1.248,0.559,1.248,1.248l0,0C36.046,85.028,35.488,85.586,34.799,85.586z"/>
	<path fill="#303030" d="M18.046,85.586h-5.168c-0.689,0-1.248-0.559-1.248-1.248l0,0c0-0.689,0.559-1.248,1.248-1.248h5.168
		c0.689,0,1.248,0.559,1.248,1.248l0,0C19.294,85.028,18.735,85.586,18.046,85.586z"/>
	<circle fill="#303030" cx="51.492" cy="91.591" r="1.634"/>
	<path fill="#303030" d="M40.918,76.175H6.541c-0.738,0-1.337,0.598-1.337,1.337v12.743c0,0.738,0.598,1.337,1.337,1.337h34.376
		c0.738,0,1.337-0.598,1.337-1.337V77.512C42.254,76.774,41.656,76.175,40.918,76.175z M40.19,89.542H7.576V78.269H40.19V89.542z"/>
	<path fill="#F50B16" d="M22.65,13.086H6.571c-0.755,0-1.366,0.612-1.366,1.366v12.594c0,0.755,0.612,1.366,1.366,1.366H22.65
		c0.755,0,1.366-0.612,1.366-1.366V14.453C24.017,13.698,23.405,13.086,22.65,13.086z M21.64,26.274H7.561V15.403H21.64V26.274z"/>
	<path fill="#F50B16" d="M17.185,21.7h-4.99c-0.558,0-1.01-0.452-1.01-1.01v0c0-0.558,0.452-1.01,1.01-1.01h4.99
		c0.558,0,1.01,0.452,1.01,1.01v0C18.195,21.248,17.743,21.7,17.185,21.7z"/>
	<path fill="#303030" d="M56.898,45.7h-2.433c-0.605-9.894-8.476-17.804-18.354-18.467v-2.764c0-0.738-0.598-1.337-1.337-1.337
		s-1.337,0.598-1.337,1.337v2.764c-9.879,0.663-17.749,8.573-18.354,18.467h-3.007c-0.738,0-1.337,0.598-1.337,1.337
		c0,0.738,0.598,1.337,1.337,1.337h3.019c0.715,9.784,8.543,17.572,18.342,18.229v2.598c0,0.738,0.598,1.337,1.337,1.337
		s1.337-0.598,1.337-1.337v-2.598c9.8-0.658,17.627-8.446,18.342-18.229h2.445c0.738,0,1.337-0.598,1.337-1.337
		C58.234,46.299,57.636,45.7,56.898,45.7z M42.576,62.069c-1.965,1.014-4.149,1.659-6.465,1.842v-1.482
		c0-0.738-0.598-1.337-1.337-1.337s-1.337,0.598-1.337,1.337v1.483c-2.438-0.189-4.733-0.886-6.775-1.993
		c-0.001-10.856,8.047-10.635,8.047-10.635c0.091,0,0.18-0.01,0.271-0.014c0.03,0.005,0.055,0.009,0.086,0.014
		C42.155,52.418,42.664,59.3,42.576,62.069z M32.129,50.818c0.054,0.02,0.108,0.041,0.163,0.06
		C31.079,50.671,30.232,50.521,32.129,50.818z M29.779,43.799c0-2.723,2.208-4.931,4.931-4.931s4.931,2.208,4.931,4.931
		s-2.208,4.931-4.931,4.931S29.779,46.522,29.779,43.799z M45.298,60.317c0.303-7.989-5.658-10.459-5.658-10.459h-0.549
		c1.877-1.36,3.103-3.564,3.103-6.059c0-4.134-3.351-7.485-7.485-7.485c-4.134,0-7.485,3.351-7.485,7.485
		c0,2.495,1.226,4.699,3.103,6.059h-0.549c-5.048,2.432-5.733,7.9-5.784,10.267c-3.474-2.839-5.803-7.02-6.204-11.753h1.058
		c0.738,0,1.337-0.598,1.337-1.337c0-0.738-0.598-1.337-1.337-1.337h-1.065c0.595-8.404,7.266-15.114,15.654-15.767v1.307
		c0,0.738,0.598,1.337,1.337,1.337s1.337-0.598,1.337-1.337v-1.307c8.388,0.652,15.058,7.363,15.654,15.767h-1.639
		c-0.738,0-1.337,0.598-1.337,1.337c0,0.738,0.598,1.337,1.337,1.337h1.632C51.346,53.217,48.91,57.477,45.298,60.317z"/>
	<g>
		<path fill="#303030" d="M29.264,18.959c0.014,0,0.026,0.008,0.04,0.008H52.71c0.656,0,1.188-0.532,1.188-1.188
			s-0.532-1.188-1.188-1.188H29.304c-0.014,0-0.026,0.008-0.04,0.008v-1.057c0.099-4.616,1.258-6.51,6.27-6.27h31.658
			c2.204-0.102,3.64,0.338,4.581,1.119c0.297-0.151,0.539-0.369,0.66-0.691c0,0,0.852-1.644-0.252-2.869
			c-0.906-0.441-1.92-0.696-2.995-0.696H33.541c-3.789,0-6.861,3.072-6.861,6.861v17.564l2.584-1.196V18.959z"/>
		<path fill="#303030" d="M29.712,70.984C29.712,70.984,29.712,70.984,29.712,70.984l0.038-6.423l-3.07-1.155v7.814
			c0.058,0.668,0.316,1.804,1.436,1.836C28.116,73.057,29.392,73.056,29.712,70.984z"/>
		<path fill="#303030" d="M74.609,77.824c-0.983,0-1.13,1.113-1.147,1.62v0.251v4.652c-0.015-0.001-0.027-0.008-0.042-0.008H47.393
			c-0.656,0-1.188,0.532-1.188,1.188s0.532,1.188,1.188,1.188H73.42c0.015,0,0.027-0.008,0.042-0.008v3.257
			c0,3.463-1.549,6.217-6.27,6.27H35.534c-2.339,0.06-3.792-0.589-4.678-1.657h-0.007c0,0-1.409-1.267-2.51-0.312
			c0,0-1.157,0.589-0.237,2.413c1.254,1.634,3.221,2.691,5.44,2.691h34.718c3.789,0,7.787-3.072,7.787-6.861v-12.88
			C76.046,77.512,74.609,77.824,74.609,77.824z"/>
		<path fill="#303030" d="M74.928,38.026c0,0-0.948-0.16-1.466,1.065v8.703c0,1.604,1.147,2.005,1.147,2.005
			c1.267,0,1.424-1.187,1.438-1.665v-0.206v-8.776C75.927,38.622,75.633,38.092,74.928,38.026z"/>
	</g>
</g>
</svg>
