<?xml version="1.0" encoding="utf-8"?>
<!-- Generator: Adobe Illustrator 24.1.1, SVG Export Plug-In . SVG Version: 6.00 Build 0)  -->
<svg version="1.1" id="Capa_1" xmlns="http://www.w3.org/2000/svg" xmlns:xlink="http://www.w3.org/1999/xlink" x="0px" y="0px"
	 viewBox="0 0 102.653 105.505" enable-background="new 0 0 102.653 105.505" xml:space="preserve">
<path fill="#423E3E" d="M92.01,39.691h-8.535l-24.6-21.731c0.264-0.791,0.412-1.635,0.412-2.515c0-4.396-3.564-7.96-7.96-7.96
	s-7.96,3.564-7.96,7.96c0,0.955,0.177,1.867,0.485,2.716l-24.549,21.53h-8.659c-2.532,0-4.584,2.052-4.584,4.584V92.85
	c0,2.532,2.052,4.584,4.584,4.584H92.01c2.532,0,4.584-2.052,4.584-4.584V44.275C96.594,41.744,94.542,39.691,92.01,39.691z
	 M51.326,10.776c2.579,0,4.67,2.091,4.67,4.67s-2.091,4.67-4.67,4.67s-4.67-2.091-4.67-4.67S48.747,10.776,51.326,10.776z
	 M46.257,20.711c0,0.802,3.173,2.716,5.069,2.695s3.386-0.391,5.734-2.695l21.365,18.98H23.921L46.257,20.711z M92.238,93.691H9.901
	V43.078h82.337V93.691z"/>
<g>
	<path fill="#F50B16" d="M30.59,63.886L30.117,67.5h-2.119l2.176-13.511h2.944L35.377,67.5h-2.177l-0.531-3.614H30.59z
		 M32.422,61.97c-0.309-2.295-0.604-4.473-0.759-6h-0.076c-0.058,1.113-0.464,4.006-0.733,6H32.422z"/>
	<path fill="#F50B16" d="M36.373,53.99h2.773c2.339,0,3.238,1.095,3.238,3.076v0.496c0,1.917-0.663,2.471-1.254,2.715
		c0.602,0.241,1.504,0.745,1.504,2.711v1.024c0,2.284-0.952,3.488-3.304,3.488h-2.957V53.99z M38.912,59.491
		c1.165,0,1.514-0.36,1.514-1.699v-0.528c0-1.121-0.399-1.554-1.395-1.554h-0.645v3.781H38.912z M38.385,65.798h0.696
		c1.203,0,1.503-0.531,1.503-1.84v-0.9c0-1.317-0.334-1.883-1.662-1.883h-0.537V65.798z"/>
	<path fill="#F50B16" d="M46.059,53.99V67.5h-2.084V53.99H46.059z"/>
	<path fill="#F50B16" d="M52.933,61.329h-2.969v4.255h3.423L53.123,67.5h-5.243V53.99h5.217v1.935h-3.134v3.488h2.969V61.329z"/>
	<path fill="#F50B16" d="M56.471,61.459V67.5h-2.083V53.99h2.886c2.056,0,3.27,0.824,3.27,3.256v0.514
		c0,2.077-0.852,2.605-1.376,2.819c0.788,0.37,1.238,0.938,1.238,2.771c0,1.138-0.019,3.332,0.125,4.151h-2.013
		c-0.179-0.817-0.141-3.035-0.141-4.017c0-1.647-0.212-2.024-1.422-2.024H56.471z M56.471,59.738h0.478
		c1.103,0,1.508-0.415,1.508-1.885V57.39c0-1.044-0.216-1.68-1.398-1.68h-0.589V59.738z"/>
	<path fill="#F50B16" d="M63.47,55.924h-2.168V53.99h6.434v1.935h-2.182V67.5H63.47V55.924z"/>
	<path fill="#F50B16" d="M74.926,57.576v6.309c0,2.589-1.099,3.813-3.388,3.813c-2.196,0-3.184-1.256-3.184-3.777v-6.36
		c0-2.587,1.303-3.768,3.316-3.768C73.719,53.792,74.926,54.976,74.926,57.576z M70.475,57.372v6.795
		c0,1.123,0.406,1.651,1.157,1.651c0.81,0,1.172-0.492,1.172-1.68v-6.781c0-1.072-0.328-1.665-1.174-1.665
		C70.879,55.691,70.475,56.228,70.475,57.372z"/>
	<path fill="#F50B16" d="M40.852,87.34v-0.248c0.018-2.493,0.999-4.107,2.336-6c1.087-1.527,1.468-2.008,1.468-3.466
		c0-1.325-0.148-1.856-0.907-1.856c-0.669,0-0.931,0.501-0.931,1.542v0.685h-1.921v-0.745c0-1.515,0.491-3.221,2.947-3.221
		c2.255,0,2.901,1.4,2.901,3.467c0,2.093-0.676,2.979-1.774,4.458c-0.929,1.253-1.692,2.539-1.793,3.592h3.82l-0.281,1.792H40.852z"
		/>
	<path fill="#F50B16" d="M51.056,87.34v-3.275H47.35v-1.544l2.817-8.327h2.795v8.168h0.985l-0.154,1.703h-0.831v3.275H51.056z
		 M51.056,80.026c0-1.316,0.056-2.649,0.078-3.963h-0.02c-0.569,2.158-1.15,4.148-1.798,6.298h1.74V80.026z"/>
	<path fill="#F50B16" d="M54.39,87.947l3.156-14.118h1.566l-3.14,14.118H54.39z"/>
	<path fill="#F50B16" d="M65.391,74.194v1.579c-1.528,2.934-2.754,6.926-3.299,11.568H59.97c0.476-4.353,1.913-8.691,3.313-11.317
		H59.48v-1.83H65.391z"/>
</g>
</svg>
