<?xml version="1.0" encoding="utf-8"?>
<!-- Generator: Adobe Illustrator 24.1.1, SVG Export Plug-In . SVG Version: 6.00 Build 0)  -->
<svg version="1.1" id="Capa_3" xmlns="http://www.w3.org/2000/svg" xmlns:xlink="http://www.w3.org/1999/xlink" x="0px" y="0px"
	 viewBox="0 0 102.653 105.505" enable-background="new 0 0 102.653 105.505" xml:space="preserve">
<path fill="#303030" d="M91.465,18.899H11.861c-1.017,0-1.842,0.825-1.842,1.842v43.96c0,1.017,0.825,1.842,1.842,1.842h79.604
	c1.017,0,1.842-0.824,1.842-1.842v-43.96C93.307,19.724,92.482,18.899,91.465,18.899z M90.634,63.573h-77.97V21.781h77.97V63.573z"
	/>
<path fill="#303030" d="M68.334,101.696H34.993c-0.767,0-1.389-0.622-1.389-1.389v0c0-0.767,0.622-1.389,1.389-1.389h33.342
	c0.767,0,1.389,0.622,1.389,1.389v0C69.723,101.075,69.101,101.696,68.334,101.696z"/>
<path fill="#303030" d="M61.287,70.868v28.857c0,0.716-0.58,1.296-1.296,1.296h-0.186c-0.716,0-1.296-0.58-1.296-1.296V70.868
	c0-0.716,0.58-1.296,1.296-1.296h0.186C60.707,69.573,61.287,70.153,61.287,70.868z"/>
<path fill="#303030" d="M60.693,77.444h15.772c0,0,1.307-0.505,1.366-1.842c0.059-1.337,0-3.535,0-3.535h-2.347l0.03,3.535
	l-14.822-0.119V77.444z"/>
<path fill="#303030" d="M42.869,77.444H27.097c0,0-1.307-0.505-1.366-1.842c-0.059-1.337,0-3.535,0-3.535h2.347l-0.03,3.535
	l14.822-0.119V77.444z"/>
<path fill="#303030" d="M42.901,101.021L42.901,101.021c-0.64,0-1.158-0.519-1.158-1.158V88.493c0-0.64,0.519-1.158,1.158-1.158l0,0
	c0.64,0,1.158,0.519,1.158,1.158v11.369C44.059,100.502,43.541,101.021,42.901,101.021z"/>
<path fill="#303030" d="M42.901,84.287L42.901,84.287c-0.64,0-1.158-0.519-1.158-1.158V71.759c0-0.64,0.519-1.158,1.158-1.158l0,0
	c0.64,0,1.158,0.519,1.158,1.158v11.369C44.059,83.768,43.541,84.287,42.901,84.287z"/>
<path fill="#F50B16" d="M72.946,41.563h-5.525c-0.566,0-1.025-0.459-1.025-1.025v0c0-0.566,0.459-1.025,1.025-1.025h5.525
	c0.566,0,1.025,0.459,1.025,1.025v0C73.97,41.104,73.511,41.563,72.946,41.563z"/>
<path fill="#F50B16" d="M71.548,51.778l-3.907-3.907c-0.4-0.4-0.4-1.049,0-1.449l0,0c0.4-0.4,1.049-0.4,1.449,0l3.907,3.907
	c0.4,0.4,0.4,1.049,0,1.449l0,0C72.597,52.178,71.948,52.178,71.548,51.778z"/>
<path fill="#F50B16" d="M72.997,31.307l-3.907,3.907c-0.4,0.4-1.049,0.4-1.449,0l0,0c-0.4-0.4-0.4-1.049,0-1.449l3.907-3.907
	c0.4-0.4,1.049-0.4,1.449,0v0C73.397,30.258,73.397,30.907,72.997,31.307z"/>
<polygon fill="#F50B16" points="57.051,51.072 55.531,50.397 46.644,46.453 46.644,46.137 46.644,35.682 43.881,35.682 
	44.089,48.365 44.994,48.365 44.854,48.681 56.531,53.636 57.435,51.599 "/>
<path fill="#F50B16" d="M64.035,53.147V30.023c-0.089-3.921-3.52-4.723-3.52-4.723c-2.851-0.178-4.455,2.896-4.455,2.896
	l-7.53,3.832l-4.47,2.139C32.178,31.56,30.158,37.79,30.158,37.79c-2.057,9.074,5.228,10.545,5.228,10.545v9.267
	c0,0,1.01,3.832,4.04,3.535c0,0,3.698,0.282,4.441-3.832l-0.074-9l0.005-0.053l1.057,0.429l1.047,0.033h1.938l-1.448-2.406
	L44.03,45.81l-8.228-0.148c0,0-3.772,0-3.356-6.356c0,0,1.158-3.208,5.317-2.852l6.267-0.059l2.644,3.515v-4.02l9.238-4.842v19.931
	l-1.454-0.72l1.603,2.131c-0.579,4.767,4.322,4.277,4.322,4.277C64.391,56.399,64.035,53.147,64.035,53.147z M41.119,47.741v9.238
	c-0.208,2.139-1.634,1.812-1.634,1.812c-1.218,0.148-1.574-1.277-1.574-1.277l-0.208-9.921L41.119,47.741z M61.807,52.434
	c0,0.91-0.738,1.648-1.648,1.648h0c-0.91,0-1.648-0.738-1.648-1.648V29.221c0-0.91,0.738-1.648,1.648-1.648h0
	c0.91,0,1.648,0.738,1.648,1.648V52.434z"/>
<path opacity="0.96" fill="#303030" d="M91.808,13.146h-5.006v2.134h5.306c2.553,0,4.623,2.07,4.623,4.623v44.75
	c0,2.553-2.07,4.623-4.623,4.623h-81.03c-2.553,0-4.623-2.07-4.623-4.623v-44.75c0-2.424,1.873-4.391,4.247-4.585v-2.127
	c-3.531,0.387-6.279,3.377-6.279,7.011v44.691c0,3.897,3.159,7.056,7.056,7.056h80.329c3.897,0,7.056-3.159,7.056-7.056V20.202
	C98.864,16.306,95.705,13.146,91.808,13.146z"/>
<path fill="#303030" d="M33.132,11.444H17.323c-1.048,0-1.897,0.849-1.897,1.897v5.295c0,1.048,0.849,1.897,1.897,1.897h15.809
	c1.048,0,1.897-0.849,1.897-1.897v-5.295C35.03,12.293,34.18,11.444,33.132,11.444z M32.178,18.899H18.277v-4.693h13.901V18.899z"/>
<path fill="#303030" d="M58.563,11.444H42.753c-1.048,0-1.897,0.849-1.897,1.897v5.295c0,1.048,0.849,1.897,1.897,1.897h15.809
	c1.048,0,1.897-0.849,1.897-1.897v-5.295C60.46,12.293,59.61,11.444,58.563,11.444z M57.608,18.899H43.707v-4.693h13.901V18.899z"/>
<path fill="#303030" d="M84.103,11.444H68.293c-1.048,0-1.897,0.849-1.897,1.897v5.295c0,1.048,0.849,1.897,1.897,1.897h15.809
	c1.048,0,1.897-0.849,1.897-1.897v-5.295C86,12.293,85.151,11.444,84.103,11.444z M83.149,18.899H69.248v-4.693h13.901V18.899z"/>
<path fill="#303030" d="M25.562,7.256L25.562,7.256c-0.652,0-1.181,0.529-1.181,1.181v3.529c0,0.652,0.529,1.181,1.181,1.181h0
	c0.652,0,1.181-0.529,1.181-1.181V8.436C26.743,7.784,26.214,7.256,25.562,7.256z"/>
<path fill="#303030" d="M51.326,7.256L51.326,7.256c-0.652,0-1.181,0.529-1.181,1.181v3.529c0,0.652,0.529,1.181,1.181,1.181l0,0
	c0.652,0,1.181-0.529,1.181-1.181V8.436C52.507,7.784,51.979,7.256,51.326,7.256z"/>
<path fill="#303030" d="M76.858,7.256L76.858,7.256c-0.652,0-1.181,0.529-1.181,1.181v3.529c0,0.652,0.529,1.181,1.181,1.181l0,0
	c0.652,0,1.181-0.529,1.181-1.181V8.436C78.039,7.784,77.51,7.256,76.858,7.256z"/>
</svg>
