<?xml version="1.0" encoding="utf-8"?>
<!-- Generator: Adobe Illustrator 24.1.1, SVG Export Plug-In . SVG Version: 6.00 Build 0)  -->
<svg version="1.1" id="Capa_2" xmlns="http://www.w3.org/2000/svg" xmlns:xlink="http://www.w3.org/1999/xlink" x="0px" y="0px"
	 viewBox="0 0 102.653 105.505" enable-background="new 0 0 102.653 105.505" xml:space="preserve">
<path fill="#303030" d="M31.819,39.736H17.116c-0.898,0-1.626,0.728-1.626,1.626v5.346c0,0.898,0.728,1.626,1.626,1.626h14.703
	c0.898,0,1.626-0.728,1.626-1.626v-5.346C33.446,40.464,32.718,39.736,31.819,39.736z M30.951,46.241h-13.01v-4.277h13.01V46.241z"
	/>
<path fill="#303030" d="M27.141,53.771H16.715c-0.677,0-1.225-0.549-1.225-1.225v-0.356c0-0.677,0.549-1.225,1.225-1.225h10.426
	c0.677,0,1.225,0.549,1.225,1.225v0.356C28.366,53.222,27.818,53.771,27.141,53.771z"/>
<path fill="#303030" d="M86.933,60.899H70.448c-0.775,0-1.403-0.628-1.403-1.403l0,0c0-0.775,0.628-1.403,1.403-1.403h16.485
	c0.775,0,1.403,0.628,1.403,1.403l0,0C88.337,60.271,87.708,60.899,86.933,60.899z"/>
<path fill="#303030" d="M86.933,67.404h-27.98c-0.775,0-1.403-0.628-1.403-1.403l0,0c0-0.775,0.628-1.403,1.403-1.403h27.98
	c0.775,0,1.403,0.628,1.403,1.403l0,0C88.337,66.776,87.708,67.404,86.933,67.404z"/>
<path fill="#303030" d="M27.114,65.248c-5.635,0-10.203,4.568-10.203,10.203c0,5.635,4.568,10.203,10.203,10.203
	s10.203-4.568,10.203-10.203C37.317,69.816,32.749,65.248,27.114,65.248z M27.114,83.197c-4.278,0-7.747-3.468-7.747-7.747
	c0-4.278,3.468-7.747,7.747-7.747s7.747,3.468,7.747,7.747C34.861,79.729,31.392,83.197,27.114,83.197z"/>
<g>
	<polygon fill="#303030" points="83.569,18.216 83.743,18.037 40.203,18.037 40.203,20.501 83.569,20.501 	"/>
	<path fill="#303030" d="M95.844,37.063c-0.547,0.019-0.888,0.413-1.107,0.852v32.339c0,2.478-2.009,4.487-4.487,4.487H35.892
		l-1.228,5.584l-1.837,0.699l0,0l-4.511,17.405c-0.533,2.057,0.702,4.158,2.76,4.691l0.255,0.066
		c2.057,0.533,4.158-0.702,4.691-2.76l5.613-21.659c0.234-0.603,0.325-1.118,0.313-1.563h4.815v22.214
		c0,2.125,1.723,3.848,3.848,3.848h0.264c2.125,0,3.848-1.723,3.848-3.848V77.205h4.761c-0.014,0.443,0.087,0.958,0.347,1.563
		l5.613,21.659c0.533,2.057,2.633,3.293,4.691,2.76l0.255-0.066c2.057-0.533,3.293-2.633,2.76-4.691l-5.501-21.224H90.69
		c3.704,0,6.706-3.002,6.706-6.706V38.211C96.965,37.092,95.844,37.063,95.844,37.063z M38.77,77.994l-5.628,21.717
		c-0.14,0.541-0.693,0.867-1.234,0.726h0c-0.541-0.14-0.867-0.693-0.726-1.234l5.628-21.717c0.027-0.105,0.081-0.194,0.137-0.281
		h1.698C38.786,77.433,38.842,77.713,38.77,77.994z M51.755,99.449c0,0.559-0.453,1.013-1.013,1.013h0
		c-0.559,0-1.013-0.453-1.013-1.013V77.205h2.025V99.449z M70.285,99.203c0.14,0.541-0.185,1.094-0.726,1.234h0
		c-0.541,0.14-1.094-0.185-1.234-0.726l-5.628-21.717c-0.073-0.281-0.016-0.561,0.126-0.789h1.698
		c0.055,0.087,0.109,0.176,0.137,0.281L70.285,99.203z"/>
	<path fill="#303030" d="M11.235,74.741c-2.478,0-4.487-2.009-4.487-4.487V27.81h10.146l1.397-2.733H6.748v-0.09
		c0-2.478,2.009-4.487,4.487-4.487h2.993v-2.464h-3.433c-3.704,0-6.706,3.002-6.706,6.706v45.756c0,3.704,3.002,6.706,6.706,6.706
		h8.664l-0.341-2.464H11.235z"/>
	<polygon fill="#303030" points="83.084,27.81 85.576,25.078 35.748,25.078 37.23,27.81 	"/>
</g>
<path fill="#F50B16" d="M27.215,13.271c-3.215,0-5.822,2.607-5.822,5.822c0,3.215,2.607,5.822,5.822,5.822s5.822-2.607,5.822-5.822
	C33.037,15.877,30.431,13.271,27.215,13.271z M27.215,23.34c-2.346,0-4.247-1.902-4.247-4.248c0-2.346,1.902-4.247,4.247-4.247
	s4.247,1.902,4.247,4.247C31.463,21.438,29.561,23.34,27.215,23.34z"/>
<path fill="#F50B16" d="M42.802,16.493c0,0-0.119-1.069-1.069-1.188s-3.921-0.743-3.921-0.743l2.644-3.564
	c0,0,0.148-0.891-0.297-1.218c-0.445-0.327-3.832-3.802-3.832-3.802s-0.891-0.267-1.158-0.119c-0.267,0.149-3.535,2.436-3.535,2.436
	l-0.772-4.129c0,0-0.475-0.832-0.772-0.832c-0.297,0-5.673,0-5.673,0s-1.158,0.446-1.069,0.832s-0.683,4.069-0.683,4.069
	l-3.297-2.257c0,0-0.98-0.267-1.455,0.178l-3.951,4.069c0,0-0.208,1.01,0.178,1.426c0.386,0.416,2.049,2.941,2.049,2.941
	l-4.129,0.951c0,0-0.713,0.358-0.713,1.426c0,1.068,0,5.198,0,5.198s0.505,0.802,1.426,0.832c0.921,0.03,3.416,0.654,3.416,0.654
	l-2.049,4.158c0,0-0.297,0.178,0.446,1.158l3.178,3.208c0,0,0.683,0.654,1.842,0l3.059-2.198l0.713,4.158
	c0,0,0.089,0.594,0.861,0.713H30c0,0,0.743-0.267,0.951-1.129s0.653-3.743,0.653-3.743l3.149,2.109c0,0,1.04,0.386,1.782-0.089
	l3.624-3.594c0,0,0.475-1.04-0.356-1.99c-0.832-0.95-1.871-2.822-1.871-2.822l4.158-0.803c0,0,0.535-0.236,0.713-0.949
	C42.98,21.127,42.802,16.493,42.802,16.493z M40.203,20.429l-0.178,0.208c-3.936-0.015-4.381,1.767-4.381,1.767
	c-1.203,2.005,1.634,4.834,1.634,4.834v0.453l-1.53,1.648h-0.505c-2.287-2.257-4.649-1.856-4.649-1.856
	c-1.455,0.312-2.198,4.678-2.198,4.678h-2.569l-0.579-2.852c-0.356-1.648-1.916-2.005-1.916-2.005
	C21.46,26.8,19.01,29.31,19.01,29.31l-1.886-1.901c2.941-3.03,1.634-4.945,1.634-4.945c-0.253-1.634-4.53-1.963-4.53-1.963v-2.611
	c4.339-0.208,4.723-2.51,4.723-2.51c0.594-1.396-1.753-4.708-1.753-4.708l1.649-1.559c2.109,1.96,4.188,1.871,4.188,1.871
	c2.955-0.015,2.733-4.782,2.733-4.782h2.658l0.639,3.148c0.356,1.678,2.658,1.782,2.658,1.782c1.426-0.089,3.594-2.228,3.594-2.228
	l1.931,2.079c-2.139,2.51-2.079,3.653-2.079,3.653c0.416,3.015,4.693,3.134,4.693,3.134h0.342V20.429z"/>
<path fill="#F50B16" d="M90.654,29.845c0,0,1.559,3.208,3.386,3.208c1.827,0,3.386,0.267,4.589-2.183c0,0,0.49-0.936,0.624-4.277
	v-8.064c0,0-0.624-2.54-3.52-2.985l-10.515,0.178c0,0-3.653,0.134-3.52,4.455c0,0-0.223,3.074,3.074,3.431l0.49,0.134L67.352,41.474
	l-7.619-7.441c0,0-1.426-0.802-2.317-0.312l-5.837,5.525c0,0-0.627,1.114,0.199,1.827c0,0,0.796,0.55,1.687,0.045l4.871-4.752
	l7.634,7.723c0,0,1.723,0.98,3.074-0.327l20.317-20.376c0,0,0.579-1.871-0.847-2.183h-3.03c0,0-1.381-0.579-1.158-1.559
	c0,0,0.208-1.188,0.995-1.351l9.943-0.119c0,0,1.225,0.067,1.248,1.403l-0.067,9.824c0,0-0.201,1.069-1.426,1.092
	c0,0-1.426-0.2-1.493-1.092v-3.23c0,0,0.022-1.092-1.203-1.092c0,0-0.668,0.067-1.493,0.913l-23.48,23.458l-7.218-7.129
	c0,0-1.27-1.403-2.941-0.379l-13.025,12.72c0,0-1.233,0.468-1.856-0.29c0,0-0.824-0.967-0.29-1.62l7.173-7.358
	c0,0,0.468-0.802-0.245-1.604c0,0-1.002-0.713-1.983-0.111l-7.262,7.507c0,0-1.426,2.25,0.624,5.302c0,0,1.782,1.827,4.812,0.757
	c0,0,0.845-0.603,1.002-0.757l12.074-11.851l7.53,7.218c0,0,1.738,1.248,3.297-0.089"/>
<path fill="#303030" d="M27.327,79.256h-0.178c-0.738,0-1.337-0.598-1.337-1.337v-4.218c0-0.738,0.598-1.337,1.337-1.337h0.178
	c0.738,0,1.337,0.598,1.337,1.337v4.218C28.663,78.657,28.065,79.256,27.327,79.256z"/>
</svg>
