<?xml version="1.0" encoding="utf-8"?>
<!-- Generator: Adobe Illustrator 24.1.1, SVG Export Plug-In . SVG Version: 6.00 Build 0)  -->
<svg version="1.1" id="Capa_2_1_" xmlns="http://www.w3.org/2000/svg" xmlns:xlink="http://www.w3.org/1999/xlink" x="0px" y="0px"
	 viewBox="0 0 102.653 105.505" enable-background="new 0 0 102.653 105.505" xml:space="preserve">
<circle fill="#303030" cx="48.097" cy="78.206" r="1.904"/>
<circle fill="#303030" cx="56.296" cy="78.206" r="1.904"/>
<circle fill="#303030" cx="39.785" cy="78.206" r="1.904"/>
<path fill="#F50B16" d="M60.711,42.088H42.259c-0.581,0-1.051-0.471-1.051-1.051V41c0-0.581,0.471-1.051,1.051-1.051h18.452
	c0.581,0,1.051,0.471,1.051,1.051v0.036C61.762,41.617,61.292,42.088,60.711,42.088z"/>
<path fill="#F50B16" d="M66.797,35.494h-24.52c-0.591,0-1.069-0.479-1.069-1.069v0c0-0.591,0.479-1.069,1.069-1.069h24.52
	c0.591,0,1.069,0.479,1.069,1.069v0C67.866,35.015,67.388,35.494,66.797,35.494z"/>
<g>
	<path fill="#303030" d="M61.406,55.81H42.277c-0.591,0-1.069,0.479-1.069,1.069s0.479,1.069,1.069,1.069h19.129
		c0.591,0,1.069-0.479,1.069-1.069S61.997,55.81,61.406,55.81z"/>
	<path fill="#303030" d="M41.208,50.289v0.173c0,0.543,0.44,0.983,0.983,0.983h16.004c0.543,0,0.983-0.44,0.983-0.983v-0.173
		c0-0.543-0.44-0.983-0.983-0.983H42.191C41.648,49.306,41.208,49.746,41.208,50.289z"/>
	<path fill="#303030" d="M55.347,17.83c0-0.591-0.479-1.069-1.069-1.069H27.663c-0.591,0-1.069,0.479-1.069,1.069
		c0,0.591,0.479,1.069,1.069,1.069h26.614C54.868,18.9,55.347,18.421,55.347,17.83z"/>
	<path fill="#303030" d="M27.518,13.543h19.599c0.51,0,0.924-0.414,0.924-0.924v-0.292c0-0.51-0.413-0.923-0.924-0.923H27.518
		c-0.51,0-0.924,0.413-0.924,0.923v0.292C26.594,13.13,27.008,13.543,27.518,13.543z"/>
</g>
<path fill="#F50B16" d="M28.945,37.237l4.624-4.692c0,0,0.746-0.59,1.692-0.066c0,0,1.21,0.829,0.266,2.013l-6.208,6.398
	c0,0-0.762,0.525-1.732-0.554l-3.034-3.355c0,0-0.397-1.052,0.437-1.888c0,0,0.907-0.362,1.948,0.276l1.873,2.049L28.945,37.237z"/>
<path fill="#F50B16" d="M28.945,52.505l4.624-4.692c0,0,0.746-0.59,1.692-0.066c0,0,1.21,0.829,0.266,2.013l-6.208,6.398
	c0,0-0.762,0.525-1.732-0.554l-3.034-3.355c0,0-0.397-1.052,0.437-1.888c0,0,0.907-0.362,1.948,0.276l1.873,2.049L28.945,52.505z"/>
<path fill="#303030" d="M102.081,93.626c-0.407-1.086-3.508-9.368-3.508-9.368s-1.483-2.928-3.469-2.029
	c0,0,0.521-5.204-0.209-7.153c-0.356-0.952-1.35-3.757-2.272-6.377V29.726c-0.001-4.601-3.731-8.331-8.332-8.331h-6.756v-3.099
	L63.901,5H21.129c0,0-4.634,1.355-4.723,5.365l0.064,11.03h-5.676c-4.601,0-8.331,3.73-8.331,8.331V77.73
	c0,4.601,3.73,8.331,8.331,8.331H39.03c0.295,0.975,0.516,2.601-0.168,4.751c0,0-3.255,6.014-6.731,7.614h-3.437
	c-1.006,0-1.82,0.815-1.82,1.82c0,1.006,0.815,1.82,1.82,1.82h38.404c1.006,0,1.82-0.815,1.82-1.82c0-1.006-0.815-1.82-1.82-1.82
	h-3.201c-3.477-1.6-6.731-7.614-6.731-7.614c-0.685-2.15-0.464-3.776-0.169-4.751h15.984l3.453,3.255c0,0-1.191,1.781-0.314,4.123
	l3.038,8.267c0,0,1.771,2.483,4.342,1.52s17.48-6.546,17.48-6.546S102.488,94.712,102.081,93.626z M83.775,24.386
	c3.135,0,5.676,2.541,5.676,5.676v32.147c-0.877-0.657-2.048-1.251-3.067-0.787c0,0-1.604,1.297-1.494,2.417
	c0,0-1.533-2.648-3.426-1.915c0,0-1.392,0.623-1.689,1.276c0,0-1.098-0.607-2.24-0.739V24.386H83.775z M75.177,63.14l-3.053-7.659
	c0,0-1.462-2.51-4.284-1.569c0,0-2.677,1.583-2.413,3.942l5.281,14.103l-3.153-2.477c0,0-3.422-1.853-5.313,1.003
	c0,0-0.058,0.07-0.139,0.191H19.05l-0.011-46.287h45.824h1.085h4.019h1.518h3.596L75.177,63.14z M64.658,8.806l9.223,9.178
	l-6.772,0.223c0,0-2.406-0.98-2.451-2.54V8.806z M21.574,7.736l41.079-0.045v7.975c0.401,3.609,3.965,4.366,3.965,4.366h8.451
	l0.003,1.362h-3.59v-0.001h-6.622v0.001H19.037l-0.003-10.807C19.035,7.855,21.574,7.736,21.574,7.736z M5.633,30.062
	c0-3.135,2.541-5.676,5.676-5.676h5.178l0.269,46.287H5.633V30.062z M58.199,98.428H37.827c0,0,6.662-5.692,4.677-12.365h11.018
	C51.538,92.736,58.199,98.428,58.199,98.428z M11.31,83.071c-3.135,0-5.676-2.541-5.676-5.676v-3.52h55.965
	c0.244,1.033,0.882,2.253,2.274,3.601l5.935,5.595H11.31z M64.439,74.749c-1.42-1.519-0.469-2.804-0.469-2.804
	c1.88-1.284,2.219-0.482,2.219-0.482l5.932,4.783c2.057,1.358,2.372-0.695,2.372-0.695L68.264,58.92
	c-0.585-1.871,0.302-2.706,0.302-2.706c1.434-0.305,2.154,1.902,2.154,1.902l4.334,11.497c1.097,3.653,2.557,2.912,2.557,2.912
	c1.21-0.685-0.592-4.384-0.592-4.384c-0.987-2.533,0.014-3.372,0.014-3.372c1.565-0.47,2.959,4.078,2.959,4.078
	c0.852,2.274,1.967,2.05,1.967,2.05c1.222-0.458,0.23-2.795,0.23-2.795c-1.737-3.606-0.036-3.818-0.036-3.818
	c1.498-0.445,2.45,3.03,2.45,3.03c0.843,2.355,2.107,1.804,2.107,1.804c1.095-0.797,0.141-2.723,0.141-2.723
	c-0.97-2.075,0.234-2.681,0.234-2.681c1.523-0.067,1.938,1.867,1.938,1.867s3.588,9.121,3.837,10.721
	c0.249,1.6,0.104,6.418,0.104,6.418l-14.028,5.253L64.439,74.749z M97.943,94.94l-14.689,5.501c0,0-1.035,0.228-1.578-0.796
	l-2.908-7.766c0,0,0.006-0.696,0.474-0.871l15.485-5.799c0,0,0.631-0.29,1.405,1.554l2.488,6.643
	C98.619,93.407,99.171,94.373,97.943,94.94z"/>
</svg>
