<?xml version="1.0" encoding="utf-8"?>
<!-- Generator: Adobe Illustrator 24.1.1, SVG Export Plug-In . SVG Version: 6.00 Build 0)  -->
<svg version="1.1" id="Capa_1" xmlns="http://www.w3.org/2000/svg" xmlns:xlink="http://www.w3.org/1999/xlink" x="0px" y="0px"
	 viewBox="0 0 102.653 105.505" enable-background="new 0 0 102.653 105.505" xml:space="preserve">
<path fill="#F50B16" d="M61.693,14.247c-9.504,0-17.208,7.704-17.208,17.208s7.704,17.208,17.208,17.208s17.208-7.705,17.208-17.208
	C78.901,21.951,71.197,14.247,61.693,14.247z M61.693,45.356c-7.678,0-13.901-6.224-13.901-13.901s6.224-13.901,13.901-13.901
	s13.902,6.223,13.902,13.901S69.371,45.356,61.693,45.356z"/>
<circle fill="#F50B16" cx="86.644" cy="49.949" r="1.96"/>
<path fill="#423E3E" d="M92.614,52.447c-0.936-1.025-3.03-0.178-3.03-0.178c-0.936,0.802-0.535,2.673-0.535,2.673l6.861,7.218
	c1.025,1.426-0.267,2.896-0.267,2.896c-0.936,1.381-3.219,1.003-3.609,0.579c-0.39-0.424-14.15-15.358-14.15-15.358
	c5.354-4.495,8.76-11.235,8.76-18.773c0-2.859-0.418-5.379-1.318-7.931c-0.198-0.585-1.702-3.86-1.702-3.86
	C79.481,12.054,71.459,7,62.139,7C52.984,7,45.007,12.024,40.8,19.462c-0.929,1.511-1.847,4.113-1.847,4.113
	c-0.851,2.488-1.319,5.154-1.319,7.931c0,13.534,10.971,24.505,24.505,24.505c4.43,0,8.582-1.182,12.168-3.238
	c3.213,3.38,16.357,16.532,16.357,16.532c3.965,1.693,8.143-1.888,8.143-1.888c2.896-3.609,0.535-7.886,0.535-7.886L92.614,52.447z
	 M62.139,52.267c-11.467,0-20.762-9.296-20.762-20.762s9.296-20.762,20.762-20.762s20.762,9.296,20.762,20.762
	S73.606,52.267,62.139,52.267z"/>
<path fill="#423E3E" d="M27.634,69.394H16.05c-1.181,0-2.139,0.958-2.139,2.139v9.594c0,1.181,0.958,1.099,2.139,1.099h11.584
	c1.181,0,2.139,0.082,2.139-1.099v-9.594C29.772,70.352,28.815,69.394,27.634,69.394z M27.722,20.616H16.615
	c-1.132,0-2.051,0.918-2.051,2.051v9.199c0,1.132,0.918,1.054,2.051,1.054h11.107c1.132,0,2.051,0.079,2.051-1.054v-9.199
	C29.772,21.534,28.854,20.616,27.722,20.616z M48.749,69.394H37.165c-1.181,0-2.139,0.958-2.139,2.139v9.594
	c0,1.181,0.958,1.099,2.139,1.099h11.584c1.181,0,2.139,0.082,2.139-1.099v-9.594C50.888,70.352,49.93,69.394,48.749,69.394z
	 M69.693,69.394H58.109c-1.181,0-2.139,0.958-2.139,2.139v9.594c0,1.181,0.958,1.099,2.139,1.099h11.584
	c1.181,0,2.139,0.082,2.139-1.099v-9.594C71.832,70.352,70.874,69.394,69.693,69.394z M26.972,32.59h-9.606v-9.606h9.606V32.59z
	 M25.871,49.949h-9.545c-0.973,0-1.763,0.918-1.763,2.051v9.199c0,1.132,0.789,1.054,1.763,1.054h9.545
	c0.973,0,1.763,0.079,1.763-1.054V52C27.633,50.867,26.844,49.949,25.871,49.949z M25.837,60.788h-8.986v-9.29h8.986V60.788z
	 M33.96,40.352H22.853c-1.132,0-2.051,0.766-2.051,1.712v7.68c0,0.945,0.991,1.754,2.124,1.754h11.107
	c1.132,0,1.977-0.809,1.977-1.754v-7.68C36.01,41.118,35.092,40.352,33.96,40.352z M33.44,49.951H23.045v-7.23H33.44V49.951z
	 M39.149,49.949H28.883c-1.046,0-1.896,0.918-1.896,2.051v9.199c0,1.132,0.848,1.054,1.896,1.054h10.266
	c1.046,0,1.896,0.079,1.896-1.054V52C41.045,50.867,40.197,49.949,39.149,49.949z M38.861,60.788H28.658v-9.29h10.203V60.788z
	 M48.277,81.944H37.881V71.711h10.396V81.944z M69.099,81.944H58.703V71.711h10.396V81.944z M27.04,81.944H16.644V71.711H27.04
	V81.944z"/>
<path fill="#F50B16" d="M52.573,33.744c-1.025-1.945,0-3.18,0-3.18c1.619-0.863,2.859-0.216,2.859-0.216l3.777,3.396l8.147-8.467
	c1.565-0.809,3.237,0.432,3.237,0.432c1.079,0.917,0.54,2.805,0.54,2.805L60.774,38.873c-1.685,1.576-3.021,0.547-3.021,0.547
	L52.573,33.744z"/>
<path fill="#423E3E" d="M78.485,52.752c0,0-1.871,0.127-1.916,1.731l-0.004,6.148H9.392L9.363,34.969H38.46l-0.608-3.208H9.358
	L9.337,13.137c0,0-0.238-1.723-1.931-1.752c0,0-1.14,0.189-1.426,1.804v87.861c0,0-0.608,1.641,0.951,1.775h12.074
	c0,0,1.604,0.178,2.005-1.47V92.37l43.931,0.045v9.564c0,0,0.356,0.991,1.069,0.852s13.01,0.013,13.01,0.013s0.85,0.557,1.006-1.337
	V56.708v-1.515C80.026,55.193,80.268,52.759,78.485,52.752z M9.426,89.882L9.42,83.711h67.13l-0.003,6.104L9.426,89.882z
	 M76.563,100.167h-7.969v-7.901h7.969V100.167z M17.366,100.167H9.397v-7.901h7.969C17.366,92.266,17.366,100.167,17.366,100.167z
	 M76.553,81.127H9.416l0.08-17.733h67.166L76.553,81.127z"/>
</svg>
