<?xml version="1.0" encoding="utf-8"?>
<!-- Generator: Adobe Illustrator 24.1.1, SVG Export Plug-In . SVG Version: 6.00 Build 0)  -->
<svg version="1.1" id="Capa_2_1_" xmlns="http://www.w3.org/2000/svg" xmlns:xlink="http://www.w3.org/1999/xlink" x="0px" y="0px"
	 viewBox="0 0 102.653 105.505" enable-background="new 0 0 102.653 105.505" xml:space="preserve">
<g>
	<path opacity="0.95" fill="#F50B16" d="M18.358,45.257c0,5.163,2.965,9.611,7.294,11.697l-6.141-16.969
		C18.798,41.633,18.358,43.391,18.358,45.257z M40.16,44.598c0-1.591-0.604-2.747-1.099-3.569c-0.659-1.099-1.263-1.977-1.263-3.075
		c0-1.208,0.934-2.307,2.198-2.307h0.165c-2.308-2.142-5.383-3.406-8.787-3.406C27,32.28,22.929,34.48,20.5,38.117h0.824
		c1.374,0,3.46-0.165,3.46-0.165c0.714-0.055,0.769,0.988,0.11,1.099c0,0-0.714,0.11-1.483,0.11l4.723,14.058l2.855-8.513
		l-2.032-5.547l-1.374-0.108c-0.714-0.055-0.604-1.099,0.055-1.099c0,0,2.141,0.165,3.405,0.165c1.374,0,3.46-0.165,3.46-0.165
		c0.714-0.055,0.769,0.988,0.11,1.099c0,0-0.714,0.11-1.483,0.11l4.722,14.005l1.326-4.339c0.549-1.812,0.988-3.075,0.988-4.229
		L40.16,44.598z M31.594,46.41l-3.899,11.314c1.153,0.33,2.416,0.549,3.679,0.549c1.537,0,2.965-0.284,4.339-0.714
		c-0.055-0.055-0.055-0.11-0.11-0.165L31.594,46.41z M42.797,39.052l0.11,1.326c0,1.326-0.22,2.801-0.988,4.668l-3.954,11.478
		c3.844-2.252,6.48-6.426,6.48-11.258c-0.055-2.252-0.659-4.339-1.648-6.205L42.797,39.052z M31.374,30.1
		c-8.348,0-15.157,6.809-15.157,15.157s6.809,15.157,15.157,15.157s15.157-6.809,15.157-15.157S39.722,30.1,31.374,30.1z
		 M31.374,59.755c-7.963,0-14.443-6.48-14.443-14.498c0.013-7.971,6.471-14.43,14.443-14.443c7.971,0.013,14.43,6.471,14.443,14.443
		C45.817,53.275,39.337,59.755,31.374,59.755z"/>
	<g>
		<circle fill="#303030" cx="53.094" cy="70.894" r="1.924"/>
		<circle fill="#303030" cx="61.378" cy="70.894" r="1.924"/>
		<circle fill="#303030" cx="44.695" cy="70.894" r="1.924"/>
		<path fill="#303030" d="M83.193,57.299H64.216c-0.936,0-1.695-0.759-1.695-1.695v0c0-0.936,0.759-1.695,1.695-1.695h18.976
			c0.936,0,1.695,0.759,1.695,1.695v0C84.887,56.54,84.129,57.299,83.193,57.299z"/>
		<path fill="#303030" d="M83.193,51.656H64.216c-0.936,0-1.695-0.759-1.695-1.695v0c0-0.936,0.759-1.695,1.695-1.695h18.976
			c0.936,0,1.695,0.759,1.695,1.695v0C84.887,50.897,84.129,51.656,83.193,51.656z"/>
		<path fill="#303030" d="M83.193,45.329H71.979c-0.936,0-1.695-0.759-1.695-1.695v0c0-0.936,0.759-1.695,1.695-1.695h11.214
			c0.936,0,1.695,0.759,1.695,1.695v0C84.887,44.57,84.129,45.329,83.193,45.329z"/>
		<path fill="#303030" d="M82.862,28.343H67.89c-1.012,0-1.832,0.82-1.832,1.832v6.985c0,1.012,0.82,1.832,1.832,1.832h14.973
			c1.012,0,1.832-0.82,1.832-1.832v-6.985C84.694,29.163,83.874,28.343,82.862,28.343z M82.974,37.306H67.692v-7.381h15.282V37.306z
			"/>
		<circle fill="#303030" cx="20.912" cy="19.925" r="1.16"/>
		<circle fill="#303030" cx="24.681" cy="19.925" r="1.16"/>
		<circle fill="#303030" cx="28.596" cy="19.925" r="1.16"/>
		<path fill="#303030" d="M89.663,13.494h-12.94v-0.001h-6.69v0.001H15.405c-4.649,0-8.418,3.769-8.418,8.418v48.502
			c0,4.649,3.769,8.418,8.418,8.418h28.529c0.298,0.985,0.521,2.628-0.17,4.8c0,0-3.289,6.076-6.801,7.693H33.49
			c-1.016,0-1.839,0.824-1.839,1.839c0,1.016,0.824,1.839,1.839,1.839h38.802c1.016,0,1.839-0.824,1.839-1.839
			c0-1.016-0.824-1.839-1.839-1.839h-3.234c-3.513-1.617-6.801-7.693-6.801-7.693c-0.692-2.172-0.468-3.815-0.171-4.8h27.577
			c4.649,0,8.418-3.769,8.418-8.418V21.912C98.081,17.263,94.312,13.494,89.663,13.494z M15.925,16.517h54.109h1.096h4.061h1.533
			h12.418c3.167,0,5.735,2.568,5.735,5.735v0.27H10.19v-0.27C10.19,19.085,12.757,16.517,15.925,16.517z M10.19,24.486h84.687
			v38.799H10.19V24.486z M63.301,91.326H42.717c0,0,6.731-5.751,4.726-12.494h11.132C56.57,85.575,63.301,91.326,63.301,91.326z
			 M94.878,70.075c0,3.167-2.568,5.735-5.735,5.735H15.926c-3.167,0-5.735-2.568-5.735-5.735v-3.557h84.687V70.075z"/>
	</g>
</g>
</svg>
