<?xml version="1.0" encoding="utf-8"?>
<!-- Generator: Adobe Illustrator 24.1.1, SVG Export Plug-In . SVG Version: 6.00 Build 0)  -->
<svg version="1.1" id="Capa_2_1_" xmlns="http://www.w3.org/2000/svg" xmlns:xlink="http://www.w3.org/1999/xlink" x="0px" y="0px"
	 viewBox="0 0 102.653 105.505" enable-background="new 0 0 102.653 105.505" xml:space="preserve">
<path fill="#303030" d="M84.742,23.177H17.911c-4.577,0-8.287,3.71-8.287,8.287v46.04c0,0.902,0.731,1.634,1.634,1.634h80.02
	c0.968,0,1.753-0.785,1.753-1.752V31.464C93.029,26.887,89.319,23.177,84.742,23.177z M90.416,76.447
	c-0.001,0.001-0.001,0.001-0.002,0.002H13.052c-0.45,0-0.815-0.365-0.815-0.814V30.333c0-2.468,2-4.468,4.468-4.468h69.242
	c2.468,0,4.468,2,4.468,4.468V76.447z"/>
<path fill="#303030" d="M97.317,76.449H5.089c-1.247,0-1.324,1.381-1.324,1.381v3.386c0,5.347,6.314,7.129,6.314,7.129l83.406-0.356
	c5.257-1.158,5.403-8.376,5.403-8.376C98.888,77.474,97.317,76.449,97.317,76.449z M42.366,79.137h17.957
	c-0.095,0.662-0.346,1.706-1.011,1.857H43.718C43.718,80.994,42.42,80.76,42.366,79.137z M92.446,85.345
	c0,0-0.802,0.178-3.386,0.178H10.911c0,0-5.347-0.089-4.218-6.386h32.703v1.767c0,0,1.247,2.852,4.188,2.941h15.861
	c0,0,3.283,0.192,3.943-4.708h32.413C95.802,79.137,97.079,84.305,92.446,85.345z"/>
<path fill="#F50B16" d="M79.718,37.82h-33.03c-2.387,0-4.322,1.935-4.322,4.322v20.941c0,2.387,1.935,4.322,4.322,4.322h33.03
	c2.387,0,4.322-1.935,4.322-4.322V42.142C84.04,39.755,82.105,37.82,79.718,37.82z M79.287,40.493L63.203,53.889L47.215,40.493
	H79.287z M62.297,56.8c0,0,1.307,0.594,2.198-0.416l16.693-13.939v20.388l-8.166-6.624c-0.618-0.501-1.524-0.406-2.025,0.211
	c-0.501,0.618-0.406,1.524,0.211,2.025l7.747,6.285H47.461l7.747-6.285c0.618-0.501,0.712-1.408,0.211-2.025
	s-1.408-0.712-2.025-0.211l-8.206,6.656v-20.4L62.297,56.8z"/>
<g>
	<path fill="#F50B16" d="M64.543,43.811l0.1-0.441h1.05l-0.604,2.852c-0.037,0.18-0.056,0.299-0.056,0.358
		c0,0.061,0.015,0.108,0.046,0.143c0.03,0.034,0.066,0.052,0.109,0.052c0.143,0,0.327-0.094,0.555-0.281
		c0.227-0.187,0.424-0.441,0.592-0.763c0.169-0.322,0.253-0.674,0.253-1.056c0-0.318-0.061-0.618-0.181-0.898
		c-0.121-0.281-0.295-0.525-0.523-0.732c-0.228-0.207-0.51-0.368-0.845-0.485c-0.336-0.117-0.716-0.175-1.14-0.175
		c-0.432,0-0.828,0.057-1.189,0.169c-0.36,0.113-0.677,0.274-0.95,0.485c-0.272,0.211-0.501,0.471-0.684,0.781
		c-0.162,0.271-0.285,0.57-0.37,0.899s-0.127,0.664-0.127,1.006c0,0.456,0.091,0.873,0.272,1.25s0.445,0.694,0.791,0.95
		s0.765,0.438,1.255,0.545s1.044,0.129,1.662,0.066c0.49-0.059,0.906-0.17,1.247-0.334c0.341-0.165,0.629-0.396,0.864-0.692h0.848
		c-0.138,0.284-0.317,0.537-0.539,0.76s-0.48,0.41-0.777,0.563c-0.297,0.153-0.63,0.269-0.998,0.348
		c-0.369,0.08-0.771,0.119-1.205,0.119c-0.652,0-1.239-0.085-1.762-0.256s-0.962-0.417-1.318-0.74
		c-0.356-0.322-0.626-0.707-0.81-1.153c-0.183-0.447-0.274-0.94-0.274-1.481c0-0.565,0.095-1.092,0.282-1.583
		c0.188-0.49,0.46-0.917,0.813-1.278c0.354-0.362,0.786-0.645,1.297-0.849c0.51-0.204,1.073-0.306,1.688-0.306
		c0.504,0,0.966,0.073,1.387,0.221c0.42,0.147,0.779,0.358,1.079,0.634c0.3,0.275,0.528,0.603,0.687,0.98
		c0.157,0.378,0.236,0.795,0.236,1.251c0,0.355-0.063,0.703-0.191,1.044c-0.127,0.34-0.31,0.646-0.546,0.918
		c-0.237,0.272-0.517,0.486-0.838,0.644c-0.32,0.158-0.666,0.237-1.038,0.237c-0.214,0-0.381-0.037-0.501-0.109
		c-0.119-0.073-0.198-0.189-0.238-0.348c-0.23,0.228-0.496,0.372-0.795,0.432c-0.3,0.06-0.591,0.032-0.871-0.083
		c-0.281-0.115-0.509-0.31-0.683-0.583c-0.173-0.273-0.26-0.61-0.26-1.01c0-0.416,0.089-0.826,0.269-1.229
		c0.179-0.403,0.433-0.733,0.763-0.99c0.33-0.257,0.703-0.386,1.12-0.386C63.97,43.275,64.32,43.453,64.543,43.811z M62.367,45.871
		c0,0.318,0.066,0.562,0.199,0.731c0.133,0.17,0.306,0.255,0.521,0.255c0.25,0,0.469-0.1,0.658-0.298s0.334-0.45,0.432-0.754
		c0.099-0.303,0.147-0.597,0.147-0.881c0-0.14-0.017-0.267-0.05-0.379s-0.082-0.211-0.147-0.296
		c-0.064-0.085-0.143-0.149-0.234-0.193s-0.195-0.065-0.313-0.065c-0.233,0-0.443,0.091-0.63,0.272
		c-0.188,0.182-0.331,0.418-0.432,0.708C62.418,45.261,62.367,45.561,62.367,45.871z"/>
</g>
<path fill="#303030" d="M37.926,60.068h-17.97c-0.73,0-1.322-0.592-1.322-1.322v-0.089c0-0.73,0.592-1.322,1.322-1.322h17.97
	c0.73,0,1.322,0.592,1.322,1.322v0.089C39.248,59.476,38.656,60.068,37.926,60.068z"/>
<path fill="#303030" d="M38.027,54.119H22.884c-0.674,0-1.221-0.547-1.221-1.221v-0.291c0-0.674,0.547-1.221,1.221-1.221h15.143
	c0.674,0,1.221,0.547,1.221,1.221v0.291C39.248,53.572,38.701,54.119,38.027,54.119z"/>
<path fill="#303030" d="M37.881,48.068H26.653c-0.755,0-1.366-0.612-1.366-1.366v0c0-0.755,0.612-1.366,1.366-1.366h11.228
	c0.755,0,1.366,0.612,1.366,1.366v0C39.248,47.456,38.636,48.068,37.881,48.068z"/>
</svg>
