<?xml version="1.0" encoding="utf-8"?>
<!-- Generator: Adobe Illustrator 24.1.1, SVG Export Plug-In . SVG Version: 6.00 Build 0)  -->
<svg version="1.1" id="Capa_2_1_" xmlns="http://www.w3.org/2000/svg" xmlns:xlink="http://www.w3.org/1999/xlink" x="0px" y="0px"
	 viewBox="0 0 102.653 105.505" enable-background="new 0 0 102.653 105.505" xml:space="preserve">
<path fill="#303030" d="M61.295,19.018H45.656c-0.554,0-1.002-0.449-1.002-1.002v-1.203c0-0.554,0.449-1.002,1.002-1.002h15.639
	c0.554,0,1.002,0.449,1.002,1.002v1.203C62.297,18.569,61.848,19.018,61.295,19.018z"/>
<circle fill="#303030" cx="32.601" cy="17.481" r="1.671"/>
<circle fill="#303030" cx="24.638" cy="17.481" r="1.671"/>
<circle fill="#303030" cx="17.058" cy="17.481" r="1.671"/>
<path fill="#303030" d="M94.703,84.127h-3.564L91.02,69.484c-0.148-1.574-1.842-1.901-1.842-1.901c-1.188,0-1.574,1.574-1.574,1.574
	v14.97l-67.247-0.119V67.434l-3.386-0.683l0.059,17.436l-3.594,0.03c-1.426,0.148-1.277,1.277-1.277,1.277l0.119,6.624
	c0.98,5.525,7.337,6.825,7.337,6.825l69.119-0.26c6.356-0.713,7.294-7.693,7.294-7.693s0-4.515,0-5.347
	C96.027,84.81,94.703,84.127,94.703,84.127z M91.317,93.602c0,0-0.624,1.871-5.688,1.886H22.554c0,0-7.931,1.025-7.04-8.035h76.901
	h0.282C92.698,87.454,93.277,91.969,91.317,93.602z"/>
<circle fill="#303030" cx="89.134" cy="61.657" r="1.767"/>
<path fill="#303030" d="M86.936,35.659H72.129V14.431c0-3.215-2.607-5.822-5.822-5.822H11.059c-3.215,0-5.822,2.607-5.822,5.822
	v48.31c0,3.215,2.607,5.822,5.822,5.822h12.76l-2.51-3.422H11.104c-1.206,0-2.183-0.977-2.183-2.183V25.672h59.525v37.286
	c0,1.206-0.977,2.183-2.183,2.183h-7.644l-1.95,3.422h9.638c3.215,0,5.822-2.607,5.822-5.822V38.823l14.049-0.237
	c0,0,1.47,0.303,1.47,2.041v13.545c0,0,0.245,1.515,1.76,1.493c0,0,1.381-0.089,1.493-1.403V39.892
	C90.901,39.892,89.898,35.771,86.936,35.659z M68.446,22.939H8.921v-8.724c0-1.206,0.977-2.183,2.183-2.183h55.158
	c1.206,0,2.183,0.977,2.183,2.183V22.939z"/>
<path fill="#F50B16" d="M60.946,59.295l-3.262-2.559c0,0,0.502-1.404,0.251-7.025l4.216-3.613c0,0,0.752-0.552,0-1.957l-3.888-5.82
	c0,0-1.156-0.577-2.259,0l-3.813,1.43c0,0-3.838-2.81-6.298-3.538l-1.154-5.503c0,0-0.351-0.886-1.723-0.853l-6.372-0.001
	c0,0-1.238,0.302-1.304,1.038l-0.869,5.202c0,0-5.034,2.124-6.272,3.83l-4.934-1.831c0,0-1.003-0.176-1.606,0.301l-3.713,6.523
	c0,0-0.251,1.255,0.251,1.455l4.089,3.387c0,0-0.627,3.437,0.075,7.126l-4.24,3.789c0,0-0.476,0.502-0.051,1.606l3.764,6.198
	c0,0,0.527,0.627,1.882,0.125c1.355-0.502,4.466-1.831,4.466-1.831s1.882,2.659,6.147,3.738l1.154,5.344
	c0,0-0.151,1.054,1.279,1.054h6.423c0,0,1.656-0.251,1.957-2.007c0.301-1.756,0.803-4.316,0.803-4.316s4.365-1.404,6.323-3.764
	l4.466,1.907c0,0,0.953,0.552,2.058-1.003l3.362-5.469C62.151,62.254,63.154,60.799,60.946,59.295z M56.731,65.065l-5.269-1.856
	c-3.413,4.365-8.43,4.892-8.43,4.892l-1.054,5.678H38.8h-0.109c0,0-0.878-3.596-1.079-4.575c-0.2-0.979-0.953-1.33-0.953-1.33
	c-3.312-0.351-7.828-4.741-7.828-4.741l-5.244,1.831l-1.681-3.161l3.035-2.509c0.878-0.452,1.028-1.355,1.028-1.355
	c-0.853-5.068-0.1-8.179-0.1-8.179c0.301-0.803-0.703-1.806-0.703-1.806l-3.262-3.262l1.907-3.161c0,0,0.502,0.401,2.609,1.166
	s2.861,0.39,2.861,0.39c1.355-1.856,5.068-3.362,6.674-3.864c1.606-0.501,1.455-1.054,1.455-1.054l1.054-4.868h3.462
	c0.251,3.446,1.506,5.62,1.506,5.62c3.864,0.251,8.229,4.316,8.229,4.316l4.917-1.857l2.207,3.262l-4.316,3.914
	c2.107,5.168-0.051,9.735-0.051,9.735l4.065,3.462L56.731,65.065z"/>
<path fill="#F50B16" d="M40.16,42.015c-6.306,0-11.417,5.111-11.417,11.417s5.111,11.417,11.417,11.417s11.417-5.111,11.417-11.417
	S46.465,42.015,40.16,42.015z M40.16,61.6c-4.511,0-8.168-3.657-8.168-8.168s3.657-8.168,8.168-8.168s8.168,3.657,8.168,8.168
	S44.672,61.6,40.16,61.6z"/>
<path fill="#F50B16" d="M39.039,57.947l6.285-6.199c0,0,0.599-1.496,0-2.095c0,0-1.026-0.684-2.095,0
	c-1.069,0.684-4.831,4.746-4.831,4.746l-2.266-1.924c0,0-0.941-0.556-2.009,0.171c0,0-0.684,0.599-0.171,1.582l3.42,3.719
	C37.371,57.947,38.458,58.52,39.039,57.947z"/>
</svg>
