<?xml version="1.0" encoding="utf-8"?>
<!-- Generator: Adobe Illustrator 24.1.1, SVG Export Plug-In . SVG Version: 6.00 Build 0)  -->
<svg version="1.1" id="Capa_2_1_" xmlns="http://www.w3.org/2000/svg" xmlns:xlink="http://www.w3.org/1999/xlink" x="0px" y="0px"
	 viewBox="0 0 102.653 105.505" enable-background="new 0 0 102.653 105.505" xml:space="preserve">
<path fill="#303030" d="M76.703,93.901c0.347-2.474,1.291-12.588-5.04-19.735l0.258-5.602c0,0-0.535-4.099-4.723-4.812H16.139
	c0,0-4.901,1.247-4.812,5.346l0.339,5.328c-6.242,6.95-5.521,16.768-5.154,19.598c-0.633,0.652-1.026,1.539-1.026,2.519v1.156
	c0,2.001,1.622,3.624,3.624,3.624h65.129c2.001,0,3.624-1.622,3.624-3.624v-1.156C77.861,95.497,77.412,94.562,76.703,93.901z
	 M74.192,92.919h-3.394l0.661-14.344C72.624,80.555,74.622,85.163,74.192,92.919z M16.116,66.38l50.77-0.089
	c0,0,2.361,0.045,2.406,3.03l-1.251,23.599H15.426L14,68.741C14,68.741,14.423,66.625,16.116,66.38z M11.936,78.675l0.906,14.244
	H9.109c-0.024,0-0.046,0.007-0.07,0.007C8.674,85.051,10.82,80.477,11.936,78.675z M75.247,97.256c0,0.853-0.691,1.545-1.545,1.545
	H9.723c-0.853,0-1.545-0.692-1.545-1.545v-0.356c0-0.853,0.692-1.545,1.545-1.545h63.98c0.853,0,1.545,0.692,1.545,1.545V97.256z"/>
<path fill="#F50B16" d="M51.326,81.127c0,0-1.282-6.505-5.559-7.619c0,0-2.339,0.022-2.361,1.916v6.304c0,0-0.089,0.468-0.379,0.468
	l-2.807,0.022c0,0-0.223-0.423-0.223-0.646s0-6.327,0-6.327s-0.223-1.715-2.027-1.738c0,0-4.144,0.965-5.525,6.096
	c0,0-1.225,4.329,1.515,8.072c0,0,2.896,3.327,2.673,5.503l10.114,0.334c0,0,0-1.738,0.579-2.762
	C47.906,89.726,52.074,85.092,51.326,81.127z M45.812,87.922c-1.136,1.515-1.604,5.146-1.604,5.146l-4.926,0.199
	c-0.226-2.898-1.378-4.699-1.378-4.699c-2.094-2.049-2.896-4.545-2.896-4.545c-1.448-4.901,2.473-7.463,2.473-7.463v5.977
	c0.468,2.345,4.567,2.277,4.567,2.277c3.943-0.189,3.898-2.551,3.898-2.551l0.134-5.703c2.005,1.003,2.673,5.102,2.673,5.102
	C49.064,85.026,45.812,87.922,45.812,87.922z"/>
<path fill="#303030" d="M73.584,40.998c0,0,0.475-0.178,2.257-2.614l4.455-7.366h13.366c0,0,3.862-1.901,4.218-4.515v-3.03
	c0,0-0.208-1.582-1.411-1.626c0,0-1.337,0.535-1.27,1.515l0.067,2.918c0,0-0.356,2.072-2.696,1.983l-11.985,0.089
	c0,0-2.049,0.245-2.896,1.782l-4.374,7.567l-0.178-7.218c0,0-1.188-2.168-3.119-2.347c0,0-2.495,0.03-2.644-1.545l-0.208-1.515
	V13.82c0,0,0.089-2.109,2.049-2.198l23.941-0.149c0,0,1.871,0.267,1.96,2.109l0.059,3.624c0,0,0.149,0.95,1.277,0.891
	c0,0,1.426-0.03,1.426-1.634v-3.446c0,0-1.04-3.238-3.743-3.95H69.01c0,0-4.663,0.743-4.455,5.465l-0.007,12.059
	c0,0,0.957,3.208,3.512,3.921l2.198,0.327c0,0,0.713,0.059,0.624,1.812s0.059,6.95,0.059,6.95S71.327,41.622,73.584,40.998z"/>
<path fill="#F50B16" d="M90.426,24.766H71.861c-0.705,0-1.277-0.572-1.277-1.277v-0.252c0-0.705,0.572-1.277,1.277-1.277h18.564
	c0.705,0,1.277,0.572,1.277,1.277v0.252C91.703,24.194,91.131,24.766,90.426,24.766z"/>
<path fill="#F50B16" d="M90.721,18.409H78.469c-0.582,0-1.053-0.472-1.053-1.053v-0.701c0-0.582,0.472-1.053,1.053-1.053h12.252
	c0.582,0,1.053,0.472,1.053,1.053v0.701C91.774,17.938,91.302,18.409,90.721,18.409z"/>
<path fill="#F50B16" d="M73.629,18.246h-2.02c-0.566,0-1.025-0.459-1.025-1.025v-0.594c0-0.566,0.459-1.025,1.025-1.025h2.02
	c0.566,0,1.025,0.459,1.025,1.025v0.594C74.653,17.787,74.195,18.246,73.629,18.246z"/>
<path fill="#303030" d="M63.745,36.885c-0.033-2.363-1.761-3.253-2.572-3.913l0.114-7.879c0,0-0.535-3.461-3.653-4.619
	c0,0-1.634-0.446-2.376-0.267c0,0-0.267-5.02-4.307-5.911H33.485c0,0-4.634,0.208-7.663,3.713c0,0-3.594,3.653-3.683,8.168v6.797
	c-0.811,0.661-2.38,2.24-2.413,4.602c0,0-0.891,6.438,1.582,7.886c0,0,0.713,0.757,2.339,0.913c0.769,0.074,1.468,0.077,1.996,0.061
	l0.001,0.088c0,0,1.485,8.553,7.129,11.02c0,0,0.356,3.178,0.089,4.337c0,0-0.238,1.693-1.634,2.376s2.257,0.505,2.257,0.505
	s1.634-1.396,1.842-2.049l0.178-3.594c0,0,2.436,1.188,5.644,1.129c0,0,3.713,0.356,6.683-1.129l0.178,3.356
	c0,0,0.089,1.069,0.446,1.455c0.356,0.386,2.049,0.653,2.168,0.683c0.119,0.03,1.901-0.267,1.901-0.267s-1.99-1.396-2.02-2.109
	c-0.03-0.713,0.059-4.723,0.059-4.723s3.238-1.604,4.99-4.96c0.027-0.052,0.052-0.098,0.079-0.148h2.951
	c4.366-0.178,5.049-4.099,5.049-4.099l0.132-8.767l-0.002,0.005C63.82,38.057,63.745,36.885,63.745,36.885z M60.83,36.2l0.345,0.194
	v6.015c-0.03,1.158-1.485,1.314-1.485,1.314l-2.029,0.069c0.05-1.395,0.088-3.112,0.121-5.259
	C57.782,38.533,59.826,38.313,60.83,36.2z M23.624,43.724c0,0-1.455-0.156-1.485-1.314v-6.015l0.339-0.191
	c0.049,0.217,0.104,0.395,0.166,0.503c0.356,0.624,2.139,1.738,2.896,1.827l0.068,5.258L23.624,43.724z M52.072,51.966h-3.609
	c-0.541,0-0.98-0.439-0.98-0.98c0-0.541,0.439-0.98,0.98-0.98h3.609c0.541,0,0.98,0.439,0.98,0.98
	C53.052,51.527,52.613,51.966,52.072,51.966z M54.634,48.484c-6.059-2.881-9.089,0.163-9.089,0.163
	c-2.228,6.594,4.5,6.193,4.5,6.193c-2.584,3.163-8.866,2.941-8.866,2.941c-5.391,0.579-10.426-5.028-10.426-5.028
	c-3.253-3.246-2.495-13.214-2.495-13.214c0.579-0.019,2.005-0.649,2.005-0.649c1.693-1.381,1.025-5.658,1.025-5.658
	c-0.356-3.609,1.203-4.723,1.203-4.723c1.426-1.782,6.46,0,6.46,0c2.451,1.292,8.465-0.668,8.465-0.668
	c4.455-0.401,4.545,3.119,4.545,3.119v5.48c0,2.896,3.163,3.1,3.163,3.1C55.48,44.777,54.634,48.484,54.634,48.484z M54.723,36.929
	l-0.045-4.946c0.045-3.609-1.96-5.347-1.96-5.347c-1.604-1.827-5.235-1.381-5.235-1.381c-1.582,0.446-5.824,0.936-5.824,0.936
	c-1.881,0-7.208-1.099-7.208-1.099c-4.411,0.55-5.525,4.663-5.525,4.663l-0.356,7.173c-0.401,0.178-3.94-1.782-3.94-1.782
	l0.019-6.906c-0.178-2.317,0.96-5.391,0.96-5.391c1.628-4.723,7.417-6.148,7.417-6.148h16.886c2.673,0.401,2.785,4.433,2.785,4.433
	c0.379,1.604,3.408,1.537,3.408,1.537c1.47,0,2.584,2.421,2.584,2.421v9.653C58.421,36.35,54.723,36.929,54.723,36.929z
	 M60.693,48.632c-0.95,1.506-2.962,1.403-3.802,1.285c0.303-0.806,0.497-1.769,0.63-3.487c0.542,0.022,1.303,0.025,2.147-0.056
	c0.646-0.062,1.143-0.219,1.513-0.386C61.152,47.466,60.693,48.632,60.693,48.632z"/>
</svg>
