<?xml version="1.0" encoding="utf-8"?>
<!-- Generator: Adobe Illustrator 24.1.1, SVG Export Plug-In . SVG Version: 6.00 Build 0)  -->
<svg version="1.1" id="Capa_2_1_" xmlns="http://www.w3.org/2000/svg" xmlns:xlink="http://www.w3.org/1999/xlink" x="0px" y="0px"
	 viewBox="0 0 102.653 105.505" enable-background="new 0 0 102.653 105.505" xml:space="preserve">
<path fill="#303030" d="M82.104,61.781H61.56c-0.708,0-1.282-0.574-1.282-1.282v-0.021c0-0.708,0.574-1.282,1.282-1.282h20.544
	c0.708,0,1.282,0.574,1.282,1.282v0.021C83.386,61.207,82.812,61.781,82.104,61.781z"/>
<path fill="#303030" d="M82.292,55.927H67.664c-0.604,0-1.094-0.49-1.094-1.094v-0.398c0-0.604,0.49-1.094,1.094-1.094h14.629
	c0.604,0,1.094,0.49,1.094,1.094v0.398C83.386,55.437,82.896,55.927,82.292,55.927z"/>
<circle fill="#303030" cx="51.876" cy="73.898" r="1.888"/>
<circle fill="#303030" cx="60.006" cy="73.898" r="1.888"/>
<circle fill="#303030" cx="43.633" cy="73.898" r="1.888"/>
<path fill="#303030" d="M6.626,25.827v47.6c0,4.563,3.699,8.261,8.261,8.261h27.064c0.292,0.967,0.511,2.579-0.168,4.711
	c0,0-3.227,5.963-6.674,7.55h-3.174c-0.997,0-1.805,0.808-1.805,1.805c0,0.997,0.808,1.805,1.805,1.805h38.08
	c0.997,0,1.805-0.808,1.805-1.805c0-0.997-0.808-1.805-1.805-1.805h-3.408c-3.446-1.587-6.674-7.55-6.674-7.55
	c-0.678-2.132-0.46-3.744-0.167-4.711h27.998c4.563,0,8.261-3.699,8.261-8.261v-47.6c0-4.563-3.699-8.261-8.261-8.261h-6.471
	c0,0-1.183,0.389-1.196,1.51c-0.014,1.122,1.023,1.456,1.023,1.456h6.134c3.108,0,5.628,2.52,5.628,5.628V66.43H9.771V26.16
	c0-3.108,2.52-5.628,5.628-5.628h29.863c0,0,0.945-0.037,0.955-1.558c0.01-1.498-1.104-1.408-1.104-1.408H14.888
	C10.326,17.565,6.627,21.264,6.626,25.827z M45.398,81.688h10.925c-1.968,6.617,4.638,12.261,4.638,12.261H40.76
	C40.76,93.95,47.365,88.306,45.398,81.688z M9.77,69.603h83.112v3.491c0,3.108-2.52,5.628-5.628,5.628H15.399
	c-3.108,0-5.628-2.52-5.628-5.628C9.77,73.094,9.77,69.603,9.77,69.603z"/>
<path fill="#F50B16" d="M76.922,22.904v-5.543c0,0,0.235-2.199-1.592-2.61L64.007,9.96c0,0-0.416-0.342-1.119,0l-11.526,4.858
	c0,0-1.276,0.58-1.326,1.459c0,0-0.448,10.308,0.721,13.714c0,0,0.224,3.132,5.17,8.651c0,0,5.494,4.474,6.363,4.524
	s1.268,0.307,2.411-0.323c0,0,7.308-2.685,10.788-10.987C75.492,31.853,77.029,27.1,76.922,22.904z M71.987,31.606
	c-2.908,5.519-7.631,7.729-7.631,7.729c-0.815,0.492-1.099,0.291-1.719,0.252c-0.62-0.039-4.537-3.533-4.537-3.533
	c-3.688-3.95-4.11-6.685-4.11-6.685c-1.151-2.835-0.655-10.788-0.655-10.788c0.011-0.209-0.1-0.55-0.025-0.721
	c0.172-0.39,0.605-0.506,0.605-0.506l9.178-3.961c0.501-0.267,0.798,0,0.798,0l9.688,4.366v6.115
	C73.635,27.1,71.987,31.606,71.987,31.606z"/>
<path fill="#F50B16" d="M63.063,30.909l6.861-8.419c0,0,0.431-1.823-0.398-2.287c0,0-1.292-0.597-2.187,0.332l-5.436,6.762
	l-2.453-3.281c0,0-0.629-1.16-1.955-0.53c0,0-0.928,0.763-0.663,2.221l3.646,5.469C60.477,31.175,61.696,32.586,63.063,30.909z"/>
<path fill="#F50B16" d="M36.382,42.689v-4.558c0,0-0.535-6.197-7.145-6.4c0,0-6.47-0.186-7.68,5.958c0,0-0.163,1.047-0.186,1.373
	c-0.018,0.246-0.009,2.526-0.003,3.625h-0.103c-1.308,0-2.369,1.061-2.369,2.369v12.285c0,1.308,1.061,2.369,2.369,2.369h15.09
	c1.308,0,2.369-1.061,2.369-2.369V45.056C38.725,43.756,37.678,42.704,36.382,42.689z M23.71,38.304c0,0,1.205-3.965,4.885-4.03
	c0,0,4.337-0.153,5.169,4.052v4.332H23.71V38.304z M36.287,56.932c0,0.359-0.291,0.651-0.651,0.651H21.985
	c-0.359,0-0.651-0.291-0.651-0.651V45.465c0-0.359,0.291-0.651,0.651-0.651h13.651c0.359,0,0.651,0.291,0.651,0.651V56.932z"/>
<rect x="27.736" y="52.094" fill="#F50B16" width="2.129" height="3.363"/>
<path fill="#F50B16" d="M28.811,46.525c-1.851,0-3.351,1.5-3.351,3.351c0,1.851,1.5,3.351,3.351,3.351
	c1.851,0,3.351-1.5,3.351-3.351C32.162,48.025,30.661,46.525,28.811,46.525z M28.811,51.811c-1.069,0-1.936-0.867-1.936-1.936
	c0-1.069,0.867-1.936,1.936-1.936c1.069,0,1.936,0.867,1.936,1.936C30.746,50.945,29.88,51.811,28.811,51.811z"/>
</svg>
