<?xml version="1.0" encoding="utf-8"?>
<!-- Generator: Adobe Illustrator 24.1.1, SVG Export Plug-In . SVG Version: 6.00 Build 0)  -->
<svg version="1.1" id="Capa_2_1_" xmlns="http://www.w3.org/2000/svg" xmlns:xlink="http://www.w3.org/1999/xlink" x="0px" y="0px"
	 viewBox="0 0 102.653 105.505" enable-background="new 0 0 102.653 105.505" xml:space="preserve">
<g>
	<path fill="#303030" d="M90.372,18.615H31.918c-4.485,1.129-5.759,3.776-5.759,3.776s-4.022,11.3-4.601,13.673
		c-0.579,2.373,1.186,2.952,1.186,2.952c1.534,0.231,2.46-1.042,2.46-1.042l0.833-2.778h60.389L80.07,53.919l3.588,2.315
		l9.839-30.211C95.465,20.582,90.372,18.615,90.372,18.615z M90.141,24.258l-2.387,7.032H27.21l1.641-5.469
		c0.521-1.91,3.067-3.125,3.067-3.125l57.094-0.087C90.575,22.695,90.141,24.258,90.141,24.258z"/>
	<path fill="#303030" d="M48.123,43.096h-37.33c-1.151,0-2.084,0.933-2.084,2.084c0,1.151,0.933,2.084,2.084,2.084h7.196
		l-1.554,4.368c-0.283,0.796,0.133,1.671,0.929,1.954l0.647,0.23c0.796,0.283,1.671-0.133,1.954-0.929l1.958-5.504
		c0.014-0.04,0.019-0.08,0.029-0.12h26.17c1.151,0,2.084-0.933,2.084-2.084C50.206,44.029,49.274,43.096,48.123,43.096z"/>
	<path fill="#303030" d="M13.224,77.069c-0.984,0.174-0.695-1.505-0.695-1.505l4.46-13.543h13.456c1.037,0,1.877-0.841,1.877-1.877
		v-0.065c0-1.037-0.841-1.877-1.877-1.877H10.587c-1.037,0-1.877,0.841-1.877,1.877v0.065c0,1.037,0.841,1.877,1.877,1.877h2.563
		L8.71,74.638c-0.868,5.093,3.78,5.961,3.78,5.961h27.357v-3.518L13.224,77.069z"/>
	<path fill="#303030" d="M52.232,95.936H35.795c-1.055,0-1.91-0.855-1.91-1.91v0c0-1.055,0.855-1.91,1.91-1.91h16.437
		c1.055,0,1.91,0.855,1.91,1.91v0C54.142,95.081,53.287,95.936,52.232,95.936z"/>
	<path fill="#303030" d="M64.4,95.936h-5.296c-1.031,0-1.866-0.836-1.866-1.866v-0.087c0-1.031,0.836-1.866,1.866-1.866H64.4
		c1.031,0,1.866,0.836,1.866,1.866v0.087C66.267,95.101,65.431,95.936,64.4,95.936z"/>
	<path fill="#303030" d="M30.876,88.307H14.439c-1.055,0-1.91-0.855-1.91-1.91l0,0c0-1.055,0.855-1.91,1.91-1.91h16.437
		c1.055,0,1.91,0.855,1.91,1.91l0,0C32.786,87.452,31.931,88.307,30.876,88.307z"/>
	
		<ellipse transform="matrix(0.2246 -0.9744 0.9744 0.2246 28.8435 90.6239)" fill="#303030" cx="71.367" cy="27.188" rx="2.192" ry="1.758"/>
	
		<ellipse transform="matrix(0.2246 -0.9744 0.9744 0.2246 38.4356 102.6787)" fill="#303030" cx="83.738" cy="27.188" rx="2.192" ry="1.758"/>
	
		<ellipse transform="matrix(0.2246 -0.9744 0.9744 0.2246 33.6396 96.6513)" fill="#303030" cx="77.553" cy="27.188" rx="2.192" ry="1.758"/>
</g>
<g>
	<path opacity="0.95" fill="#F50B16" d="M66.132,48.501c-32.021,1.864-27.115,37.756-27.115,37.756
		c0.486,2.017,3.239,2.051,3.239,2.051h47.937c2.407,0,2.363-2.051,2.363-2.051C96.123,48.034,66.132,48.501,66.132,48.501z
		 M88.074,81.95c0.002,0,0.037,1.557-1.966,1.557H75.751c0-0.001,0-0.001,0-0.002h-3.331c0,0.001,0,0.001,0,0.002H59.715
		c0-0.001,0-0.001,0-0.002h-3.329h-3.576h-6.614c0,0-2.292-0.027-2.697-1.557c0,0-0.229-1.554-0.221-3.925h3.535
		c1.014,0,1.835-0.829,1.835-1.849s-0.823-1.849-1.835-1.849h-3.331c0.45-4.148,1.79-9.259,5.269-13.414L51.4,63.58
		c0.717,0.722,1.879,0.722,2.595,0c0.717-0.722,0.717-1.893,0-2.614l-2.623-2.643c3.021-2.447,7.152-4.256,12.758-4.854v3.088
		c0,1.022,0.823,1.849,1.835,1.849c1.014,0,1.835-0.829,1.835-1.849v-3.156c2.759,0.272,8.322,1.31,12.966,5.201l-2.348,2.365
		c-0.717,0.722-0.717,1.893,0,2.614c0.717,0.722,1.879,0.722,2.595,0l2.346-2.363c2.475,3.046,4.349,7.269,4.832,13.11h-2.869
		c-1.014,0-1.835,0.829-1.835,1.849c0,1.02,0.822,1.849,1.835,1.849h2.972C88.275,79.276,88.215,80.569,88.074,81.95z"/>
	<path fill="#F50B16" d="M81.148,67.647c-0.567-0.872-1.733-1.12-2.606-0.554l-9.129,5.929c-0.96-0.86-2.224-1.387-3.614-1.387
		c-2.997,0-5.426,2.429-5.426,5.426c0,2.997,2.429,5.426,5.426,5.426c2.997,0,5.426-2.429,5.426-5.426
		c0-0.235-0.02-0.465-0.049-0.692l9.418-6.117C81.466,69.686,81.714,68.519,81.148,67.647z M65.799,78.971
		c-1.055,0-1.91-0.855-1.91-1.91s0.855-1.91,1.91-1.91c1.055,0,1.91,0.855,1.91,1.91S66.853,78.971,65.799,78.971z"/>
</g>
</svg>
