<?xml version="1.0" encoding="utf-8"?>
<!-- Generator: Adobe Illustrator 24.1.1, SVG Export Plug-In . SVG Version: 6.00 Build 0)  -->
<svg version="1.1" id="Capa_5" xmlns="http://www.w3.org/2000/svg" xmlns:xlink="http://www.w3.org/1999/xlink" x="0px" y="0px"
	 viewBox="0 0 448.396 400.557" enable-background="new 0 0 448.396 400.557" xml:space="preserve">
<g>
	<g>
		
			<linearGradient id="SVGID_1_" gradientUnits="userSpaceOnUse" x1="1296.9359" y1="49.5376" x2="1147.5925" y2="267.1295" gradientTransform="matrix(-0.8531 0 0 1 1265.6873 0)">
			<stop  offset="0" style="stop-color:#5207A1"/>
			<stop  offset="0.5392" style="stop-color:#11002C"/>
			<stop  offset="1" style="stop-color:#5207A1"/>
		</linearGradient>
		<path opacity="0.3" fill="url(#SVGID_1_)" d="M284.995,261.181c2.263,0,4.706-2.001,4.706-5.235V145.204
			c0-1.861-0.899-3.594-2.347-4.523L167.697,63.826c-0.736-0.472-1.522-0.712-2.337-0.712c-2.264,0-4.706,2.001-4.706,5.235v110.743
			c0,1.86,0.9,3.594,2.349,4.524l119.655,76.854C283.393,260.943,284.179,261.181,284.995,261.181z"/>
		<g>
			<polygon fill="#FFFFFF" points="170.157,96.252 277.119,164.952 277.119,161.901 170.157,93.201 			"/>
			<polygon fill="#FFFFFF" points="217.652,155.355 277.119,193.55 277.119,190.499 217.652,152.304 			"/>
			<polygon fill="#FFFFFF" points="217.652,192.508 277.119,230.703 277.119,227.652 217.652,189.457 			"/>
			<polygon fill="#FFFFFF" points="194.108,140.233 212.208,151.858 212.208,148.808 194.108,137.182 			"/>
			<polygon fill="#FFFFFF" points="170.157,124.849 189.892,137.525 189.892,134.474 170.157,121.798 			"/>
			<polygon fill="#FFFFFF" points="209.828,128.881 277.119,172.102 277.119,169.051 209.828,125.831 			"/>
			<polygon fill="#FFFFFF" points="180.333,138.25 277.119,200.414 277.119,197.364 180.333,135.199 			"/>
			<polygon fill="#FFFFFF" points="192.199,184.577 277.119,239.12 277.119,236.069 192.199,181.526 			"/>
			<polygon fill="#FFFFFF" points="209.828,164.343 277.119,207.564 277.119,204.513 209.828,161.293 			"/>
			<polygon fill="#FFFFFF" points="251.682,162.913 277.119,179.251 277.119,176.2 251.682,159.863 			"/>
			<polygon fill="#FFFFFF" points="216.605,140.384 242.042,156.721 242.042,153.671 216.605,137.333 			"/>
			<polygon fill="#FFFFFF" points="251.682,205.24 277.119,221.578 277.119,218.527 251.682,202.189 			"/>
			<polygon fill="#FFFFFF" points="216.605,182.711 242.042,199.048 242.042,195.997 216.605,179.66 			"/>
		</g>
	</g>
	
		<linearGradient id="SVGID_2_" gradientUnits="userSpaceOnUse" x1="1083.704" y1="165.9561" x2="1093.9333" y2="291.4972" gradientTransform="matrix(-0.8531 0 0 1 1265.6873 0)">
		<stop  offset="6.674000e-04" style="stop-color:#FFFFFF"/>
		<stop  offset="1" style="stop-color:#FFFFFF;stop-opacity:0"/>
	</linearGradient>
	<path fill="url(#SVGID_2_)" d="M347.086,198.788l5.128,3.293v6.587l-5.128-3.293V198.788z M336.537,198.599l-5.128-3.294v-6.587
		l5.128,3.293V198.599z M331.409,226.374l5.128,3.293v6.587l-5.128-3.293V226.374z M332.4,255.037l5.128,3.293v6.587l-5.128-3.293
		V255.037z M331.503,235.719l5.128,3.293v6.587l-5.128-3.294V235.719z M331.409,263.685l5.128,3.294v6.587l-5.128-3.293V263.685z
		 M354.254,203.392l14.894,9.566v6.587l-14.894-9.566V203.392z M332.4,217.726l5.128,3.293v6.587l-5.128-3.293V217.726z
		 M347.753,180.647l21.395,13.742v6.587l-21.395-13.742V180.647z M339.36,184.541l29.789,19.133v6.587l-29.789-19.133V184.541z
		 M340.794,176.177l5.128,3.293v6.587l-5.128-3.293V176.177z M334.067,171.856l5.128,3.293v6.587l-5.128-3.293V171.856z
		 M344.375,203.633l-5.128-3.293v-6.587l5.128,3.294V203.633z M337.528,189.951l-5.128-3.293v-6.587l5.128,3.294V189.951z
		 M330.801,260.597l-5.128-3.293v-6.587l5.128,3.293V260.597z M348.624,215.647l-19.105-12.271v-6.587l19.105,12.271V215.647z
		 M334.067,246.823l5.128,3.294v6.587l-5.128-3.293V246.823z M325.673,175.75l5.128,3.293v6.587l-5.128-3.294V175.75z
		 M339.072,240.58l9.552,6.135v6.587l-9.552-6.135V240.58z M311.214,157.178l5.128,3.294v6.587l-5.128-3.293V157.178z
		 M325.673,213.405l5.128,3.293v6.587l-5.128-3.293V213.405z M345.875,232.967l-5.128-3.293v-6.587l5.128,3.294V232.967z
		 M340.794,257.73v-6.587l5.128,3.293v6.587L340.794,257.73z M347.824,224.935l-5.128-3.293v-6.587l5.128,3.294V224.935z
		 M344.375,241.289l-5.128-3.293v-6.587l5.128,3.293V241.289z M347.086,236.443l5.128,3.293v6.587l-5.128-3.294V236.443z
		 M349.423,219.375l5.128,3.293v6.587l-5.128-3.293V219.375z M347.086,280.341v-6.587l5.128,3.294v6.587L347.086,280.341z
		 M316.341,198.127v6.587l-5.128-3.293v-6.587L316.341,198.127z M319.381,225.235l-14.894-9.567v-6.587l14.894,9.566V225.235z
		 M309.614,237.704l-5.128-3.293v-6.587l5.128,3.294V237.704z M309.614,228.247l-5.128-3.294v-6.587l5.128,3.293V228.247z
		 M309.614,246.989l-5.128-3.293v-6.587l5.128,3.293V246.989z M316.341,235.438v6.587l-5.128-3.293v-6.587L316.341,235.438z
		 M319.381,262.546l-14.894-9.567v-6.587l14.894,9.566V262.546z M319.381,187.58l-14.894-9.567v-6.587l14.894,9.566V187.58z
		 M309.614,172.022l-5.128-3.294v-6.587l5.128,3.293V172.022z M309.614,156.151v6.587l-5.128-3.294v-6.587L309.614,156.151z
		 M309.614,190.591l-5.128-3.293v-6.587l5.128,3.293V190.591z M309.614,209.677l-5.128-3.293v-6.587l5.128,3.293V209.677z
		 M309.614,200.393l-5.128-3.294v-6.587l5.128,3.293V200.393z M353.83,231.49l15.319,9.839v6.587l-15.319-9.839V231.49z
		 M350.044,247.627l19.105,12.271v6.587l-19.105-12.271V247.627z M354.254,241.047l14.894,9.567v6.587l-14.894-9.566V241.047z
		 M347.753,255.614l21.395,13.742v6.587l-21.395-13.742V255.614z M309.614,265.558l-5.128-3.294v-6.587l5.128,3.293V265.558z
		 M360.076,226.217l9.073,5.828v6.587l-9.073-5.828V226.217z M339.36,259.507l29.789,19.133v6.587l-29.789-19.133V259.507z
		 M350.044,209.972l19.105,12.271v6.587l-19.105-12.271V209.972z M328.237,277.519l-5.128-3.294v-6.587l5.128,3.293V277.519z
		 M328.237,202.553l-5.128-3.293v-6.587l5.128,3.293V202.553z M344.375,278.6l-5.128-3.293v-6.587l5.128,3.293V278.6z
		 M348.624,290.613l-19.105-12.271v-6.587l19.105,12.271V290.613z M369.149,303.796l-19.105-12.271v-6.587l19.105,12.271V303.796z
		 M354.254,278.358l14.894,9.567v6.587l-14.894-9.567V278.358z"/>
</g>
</svg>
