<?xml version="1.0" encoding="utf-8"?>
<!-- Generator: Adobe Illustrator 24.1.1, SVG Export Plug-In . SVG Version: 6.00 Build 0)  -->
<svg version="1.1" id="Capa_2" xmlns="http://www.w3.org/2000/svg" xmlns:xlink="http://www.w3.org/1999/xlink" x="0px" y="0px"
	 viewBox="0 0 448.396 400.557" enable-background="new 0 0 448.396 400.557" xml:space="preserve">
<g>
	<g>
		<g opacity="0.05">
			<polygon fill="#25054D" points="392.59,302.722 360.136,284.666 373.865,318.992 378.394,311.476 394.505,329.749 
				400.679,324.385 384.568,306.112 			"/>
		</g>
		<g opacity="0.0909">
			<polygon fill="#25054D" points="378.261,310.961 373.892,318.21 360.749,285.348 391.816,302.634 384.081,305.902 
				399.804,323.736 393.983,328.794 			"/>
		</g>
		<g opacity="0.1318">
			<polygon fill="#25054D" points="378.128,310.445 373.919,317.428 361.362,286.031 391.042,302.545 383.594,305.693 
				398.929,323.087 393.462,327.838 			"/>
		</g>
		<g opacity="0.1727">
			<polygon fill="#25054D" points="377.994,309.93 373.946,316.647 361.974,286.714 390.269,302.457 383.107,305.483 
				398.055,322.438 392.94,326.882 			"/>
		</g>
		<g opacity="0.2136">
			<polygon fill="#25054D" points="377.861,309.414 373.974,315.865 362.587,287.397 389.495,302.368 382.619,305.273 
				397.18,321.789 392.419,325.926 			"/>
		</g>
		<g opacity="0.2545">
			<polygon fill="#25054D" points="377.728,308.899 374.001,315.083 363.2,288.08 388.721,302.279 382.132,305.064 396.306,321.14 
				391.897,324.971 			"/>
		</g>
		<g opacity="0.2955">
			<polygon fill="#25054D" points="377.594,308.383 374.028,314.302 363.813,288.763 387.947,302.191 381.645,304.854 
				395.431,320.491 391.376,324.015 			"/>
		</g>
		<g opacity="0.3364">
			<polygon fill="#25054D" points="377.461,307.868 374.055,313.52 364.426,289.446 387.174,302.102 381.158,304.644 
				394.556,319.842 390.854,323.059 			"/>
		</g>
		<g opacity="0.3773">
			<polygon fill="#25054D" points="377.328,307.353 374.082,312.738 365.039,290.129 386.4,302.013 380.67,304.435 393.682,319.193 
				390.332,322.103 			"/>
		</g>
		<g opacity="0.4182">
			<polygon fill="#25054D" points="377.194,306.837 374.109,311.956 365.652,290.812 385.626,301.925 380.183,304.225 
				392.807,318.544 389.811,321.148 			"/>
		</g>
		<g opacity="0.4591">
			<polygon fill="#25054D" points="377.061,306.322 374.136,311.175 366.265,291.495 384.853,301.836 379.696,304.016 
				391.933,317.895 389.289,320.192 			"/>
		</g>
		<g opacity="0.5">
			<polygon fill="#25054D" points="376.928,305.806 374.163,310.393 366.878,292.177 384.079,301.747 379.209,303.806 
				391.058,317.246 388.768,319.236 			"/>
		</g>
	</g>
	<g>
		<linearGradient id="SVGID_1_" gradientUnits="userSpaceOnUse" x1="391.0449" y1="336.3768" x2="361.1576" y2="291.6549">
			<stop  offset="0" style="stop-color:#D1B4E3"/>
			<stop  offset="0.2692" style="stop-color:#DBC4E9"/>
			<stop  offset="0.791" style="stop-color:#F4EDF8"/>
			<stop  offset="1" style="stop-color:#FFFFFF"/>
		</linearGradient>
		<path fill="url(#SVGID_1_)" d="M372.187,314.007l-5,5.481c-0.258,0.283-0.729,0.149-0.799-0.228l-5.992-32.328l25.138,21.385
			c0.294,0.25,0.171,0.73-0.207,0.807l-7.175,1.474l12.344,21.291l-5.968,3.403L372.187,314.007z"/>
		<radialGradient id="SVGID_2_" cx="375.4461" cy="311.112" r="20.1393" gradientUnits="userSpaceOnUse">
			<stop  offset="0" style="stop-color:#FFFFFF"/>
			<stop  offset="1" style="stop-color:#000000"/>
		</radialGradient>
		<path fill="url(#SVGID_2_)" d="M378.152,310.598l7.175-1.474c0.378-0.078,0.501-0.557,0.207-0.807l-25.138-21.385l0.378,2.041
			l23.124,19.671c0.294,0.25,0.171,0.73-0.207,0.808l-5.55,1.14c-0.799,0.164-1.202,1.063-0.793,1.768l11.512,19.857l-4.596,2.62
			l0.264,0.455l5.968-3.403L378.152,310.598z"/>
		<linearGradient id="SVGID_3_" gradientUnits="userSpaceOnUse" x1="362.262" y1="259.3751" x2="379.2782" y2="326.7852">
			<stop  offset="0" style="stop-color:#25054D"/>
			<stop  offset="1" style="stop-color:#45108A"/>
		</linearGradient>
		<path fill="url(#SVGID_3_)" d="M361.865,289.471l22.224,18.906l-5.244,1.078c-0.515,0.106-0.948,0.453-1.164,0.933
			c-0.215,0.48-0.186,1.034,0.077,1.49l11.392,19.649l-4.262,2.43l-11.404-19.67c-0.262-0.451-0.722-0.75-1.241-0.806
			c-0.059-0.006-0.117-0.009-0.175-0.009c-0.457,0-0.897,0.192-1.209,0.533l-3.696,4.052L361.865,289.471L361.865,289.471z
			 M359.416,285.24l6.322,34.1c0.171,0.924,1.326,1.254,1.96,0.56l4.371-4.792l12.219,21.075l7.105-4.051l-12.219-21.075
			l6.245-1.283c0.929-0.191,1.23-1.367,0.508-1.981L359.416,285.24L359.416,285.24z"/>
	</g>
</g>
</svg>
