<?xml version="1.0" encoding="utf-8"?>
<!-- Generator: Adobe Illustrator 24.1.1, SVG Export Plug-In . SVG Version: 6.00 Build 0)  -->
<svg version="1.1" id="Capa_6" xmlns="http://www.w3.org/2000/svg" xmlns:xlink="http://www.w3.org/1999/xlink" x="0px" y="0px"
	 viewBox="0 0 448.396 400.557" enable-background="new 0 0 448.396 400.557" xml:space="preserve">
<g>
	<g opacity="0.2">
		<path opacity="0" d="M49.443,193.275c-1.063,0-2.027-0.2-2.789-0.58L17.118,177.99c-1.017-0.506-1.6-1.308-1.6-2.198
			c0-0.976,0.702-1.886,1.927-2.495l34.402-17.447c0.962-0.479,2.165-0.742,3.387-0.742c1.063,0,2.027,0.2,2.789,0.58l29.535,14.705
			c1.017,0.506,1.6,1.308,1.6,2.198c0,0.976-0.702,1.886-1.927,2.496L52.83,192.533C51.868,193.012,50.665,193.275,49.443,193.275z"
			/>
		<path opacity="0.0909" d="M51.43,156.222c0.951-0.474,2.147-0.73,3.35-0.723c0.616,0.004,1.196,0.082,1.719,0.216
			c0.343,0.089,0.74,0.239,1.028,0.382l29.2,14.538c0.925,0.46,1.613,1.291,1.657,2.099c0.052,0.943-0.548,1.856-1.781,2.47
			l-33.835,17.122c-0.171,0.085-0.396,0.184-0.581,0.255c-0.825,0.313-1.778,0.488-2.743,0.491c-1.042,0.004-1.994-0.19-2.74-0.561
			l-29.27-14.573c-0.925-0.46-1.619-1.294-1.664-2.103c-0.052-0.943,0.548-1.856,1.781-2.47L51.43,156.222z"/>
		<path opacity="0.1818" d="M51.013,156.595c0.941-0.468,2.13-0.717,3.312-0.703c0.609,0.008,1.182,0.095,1.695,0.231
			c0.308,0.082,0.75,0.257,1.009,0.386l28.864,14.371c0.832,0.414,1.633,1.277,1.715,2.001c0.104,0.92-0.393,1.827-1.635,2.445
			l-33.268,16.798c-0.154,0.077-0.406,0.19-0.573,0.254c-0.807,0.31-1.743,0.488-2.689,0.495c-1.022,0.008-1.96-0.179-2.691-0.543
			l-29.005-14.441c-0.832-0.414-1.645-1.283-1.727-2.007c-0.104-0.92,0.393-1.827,1.635-2.445L51.013,156.595z"/>
		<path opacity="0.2727" d="M50.597,156.967c0.931-0.463,2.113-0.704,3.275-0.683c0.603,0.012,1.168,0.107,1.671,0.246
			c0.274,0.076,0.761,0.275,0.991,0.39l28.528,14.204c0.74,0.368,1.661,1.264,1.772,1.902c0.158,0.906-0.238,1.797-1.489,2.42
			L52.644,191.92c-0.137,0.068-0.416,0.195-0.564,0.253c-0.79,0.307-1.708,0.489-2.636,0.5c-1.001,0.011-1.926-0.168-2.642-0.524
			l-28.74-14.309c-0.74-0.368-1.679-1.273-1.791-1.911c-0.158-0.906,0.238-1.797,1.489-2.42L50.597,156.967z"/>
		<path opacity="0.3636" d="M50.18,157.34c0.92-0.458,2.096-0.692,3.238-0.664c0.597,0.015,1.154,0.12,1.647,0.261
			c0.239,0.068,0.771,0.293,0.972,0.393l28.193,14.037c0.647,0.322,1.83,1.236,1.83,1.803c0.415,0.828-0.084,1.768-1.342,2.395
			l-32.135,16.15c-0.12,0.06-0.426,0.201-0.556,0.251c-0.772,0.304-1.673,0.49-2.582,0.504c-0.981,0.015-1.893-0.157-2.593-0.506
			l-28.474-14.177c-0.647-0.322-1.854-1.248-1.854-1.815c-0.415-0.828,0.084-1.768,1.343-2.395L50.18,157.34z"/>
		<path opacity="0.4545" d="M49.763,157.713c0.91-0.453,2.079-0.679,3.201-0.644c0.591,0.019,1.14,0.133,1.623,0.276
			c0.204,0.061,0.781,0.311,0.953,0.397l27.857,13.87c0.555,0.276,1.887,1.218,1.887,1.704c0.519,0.791,0.071,1.738-1.196,2.369
			L52.52,191.511c-0.103,0.051-0.436,0.206-0.547,0.25c-0.755,0.301-1.638,0.491-2.528,0.509c-0.96,0.019-1.859-0.146-2.544-0.487
			l-28.209-14.045c-0.555-0.276-1.918-1.233-1.918-1.719c-0.519-0.791-0.071-1.738,1.196-2.369L49.763,157.713z"/>
		<path opacity="0.5455" d="M49.346,158.085c0.9-0.448,2.062-0.666,3.163-0.624c0.585,0.023,1.125,0.146,1.599,0.292
			c0.17,0.052,0.791,0.329,0.935,0.401l27.521,13.703c0.462,0.23,1.944,1.2,1.944,1.605c0.623,0.754,0.225,1.709-1.05,2.344
			l-31.001,15.501c-0.085,0.043-0.446,0.212-0.538,0.249c-0.737,0.298-1.603,0.492-2.474,0.513c-0.94,0.023-1.826-0.136-2.495-0.469
			l-27.944-13.913c-0.462-0.23-1.981-1.219-1.981-1.623c-0.623-0.754-0.225-1.709,1.05-2.344L49.346,158.085z"/>
		<path opacity="0.6364" d="M48.93,158.458c0.889-0.443,2.045-0.653,3.126-0.605c0.579,0.027,1.111,0.159,1.574,0.307
			c0.135,0.043,0.801,0.347,0.916,0.404L81.732,172.1c0.37,0.184,2.002,1.183,2.002,1.506c0.727,0.717,0.38,1.679-0.904,2.319
			l-30.434,15.177c-0.068,0.034-0.456,0.218-0.53,0.248c-0.72,0.295-1.568,0.493-2.421,0.518c-0.919,0.026-1.792-0.125-2.446-0.45
			l-27.679-13.781c-0.37-0.184-2.045-1.204-2.045-1.528c-0.727-0.717-0.38-1.68,0.904-2.319L48.93,158.458z"/>
		<path opacity="0.7273" d="M48.513,158.83c0.879-0.438,2.028-0.641,3.089-0.585c0.573,0.031,1.096,0.171,1.55,0.322
			c0.101,0.033,0.812,0.365,0.898,0.408l26.85,13.368c0.277,0.138,2.059,1.165,2.059,1.408c0.831,0.68,0.535,1.65-0.758,2.294
			l-29.867,14.853c-0.051,0.026-0.466,0.224-0.521,0.247c-0.703,0.292-1.533,0.494-2.367,0.522c-0.898,0.03-1.758-0.114-2.397-0.432
			l-27.414-13.649c-0.277-0.138-2.108-1.189-2.108-1.432c-0.831-0.68-0.535-1.65,0.758-2.294L48.513,158.83z"/>
		<path opacity="0.8182" d="M48.096,159.203c0.869-0.433,2.01-0.628,3.051-0.565c0.567,0.035,1.081,0.184,1.526,0.337
			c0.067,0.023,0.822,0.383,0.879,0.412l26.514,13.201c0.185,0.092,2.117,1.147,2.117,1.309c0.934,0.643,0.689,1.621-0.612,2.269
			l-29.301,14.528c-0.034,0.017-0.476,0.231-0.512,0.246c-0.685,0.289-1.498,0.495-2.313,0.526
			c-0.878,0.034-1.725-0.103-2.347-0.413L19.95,177.535c-0.185-0.092-2.172-1.174-2.172-1.336c-0.934-0.643-0.689-1.621,0.612-2.268
			L48.096,159.203z"/>
		<path opacity="0.9091" d="M47.68,159.576c0.859-0.427,1.993-0.615,3.014-0.546c0.561,0.039,1.066,0.197,1.502,0.352
			c0.033,0.012,0.832,0.401,0.861,0.416l26.178,13.034c0.092,0.046,2.174,1.129,2.174,1.21c1.038,0.606,0.844,1.591-0.466,2.243
			L52.21,190.488c-0.017,0.008-0.485,0.237-0.504,0.245c-0.668,0.286-1.463,0.496-2.26,0.531c-0.857,0.038-1.691-0.092-2.298-0.395
			l-26.883-13.385c-0.092-0.046-2.235-1.159-2.235-1.24c-1.038-0.606-0.844-1.591,0.466-2.243L47.68,159.576z"/>
		<path d="M47.197,190.687L18.281,176.29c-1.142-0.568-0.999-1.562,0.32-2.218l28.662-14.124c1.319-0.656,3.313-0.728,4.455-0.159
			l28.916,14.397c1.142,0.568,0.999,1.562-0.32,2.218l-28.662,14.124C50.334,191.184,48.339,191.256,47.197,190.687z"/>
	</g>
	<g>
		
			<linearGradient id="SVGID_1_" gradientUnits="userSpaceOnUse" x1="5168.2852" y1="144.5849" x2="5289.355" y2="117.4449" gradientTransform="matrix(-1 0 0 1 5306.1016 0)">
			<stop  offset="0" style="stop-color:#25054D"/>
			<stop  offset="1" style="stop-color:#45108A"/>
		</linearGradient>
		<polygon fill="url(#SVGID_1_)" points="80.413,98.787 80.413,172.992 49.514,157.72 49.514,83.515 		"/>
		<g>
			
				<linearGradient id="SVGID_2_" gradientUnits="userSpaceOnUse" x1="5225.1138" y1="182.4257" x2="5301.0596" y2="165.4012" gradientTransform="matrix(-1 0 0 1 5306.1016 0)">
				<stop  offset="0.0354" style="stop-color:#138BBD"/>
				<stop  offset="0.2257" style="stop-color:#169AC7"/>
				<stop  offset="0.5946" style="stop-color:#1FC3DF"/>
				<stop  offset="1" style="stop-color:#2AF6FF"/>
			</linearGradient>
			<polygon fill="url(#SVGID_2_)" points="54.319,176.879 54.319,181.67 33.36,171.318 33.36,166.526 			"/>
			
				<linearGradient id="SVGID_3_" gradientUnits="userSpaceOnUse" x1="5236.3252" y1="175.4381" x2="5270.1196" y2="165.3188" gradientTransform="matrix(-1 0 0 1 5306.1016 0)">
				<stop  offset="0.0354" style="stop-color:#138BBD"/>
				<stop  offset="0.2257" style="stop-color:#169AC7"/>
				<stop  offset="0.5946" style="stop-color:#1FC3DF"/>
				<stop  offset="1" style="stop-color:#2AF6FF"/>
			</linearGradient>
			<polygon fill="url(#SVGID_3_)" points="54.306,176.879 54.306,181.67 75.257,170.994 75.257,166.214 			"/>
			
				<linearGradient id="SVGID_4_" gradientUnits="userSpaceOnUse" x1="5271.1802" y1="129.4232" x2="5250.3252" y2="169.1686" gradientTransform="matrix(-1 0 0 1 5306.1016 0)">
				<stop  offset="0.0354" style="stop-color:#138BBD"/>
				<stop  offset="0.2257" style="stop-color:#169AC7"/>
				<stop  offset="0.5946" style="stop-color:#1FC3DF"/>
				<stop  offset="1" style="stop-color:#2AF6FF"/>
			</linearGradient>
			<polygon fill="url(#SVGID_4_)" points="75.257,166.214 54.306,176.879 33.36,166.526 54.335,155.849 			"/>
			
				<radialGradient id="SVGID_5_" cx="45.4707" cy="173.2281" r="11.5575" gradientTransform="matrix(1.1596 0 0 1 -2.4766 0)" gradientUnits="userSpaceOnUse">
				<stop  offset="0" style="stop-color:#FFFFFF"/>
				<stop  offset="1" style="stop-color:#000000"/>
			</radialGradient>
			<polygon fill="url(#SVGID_5_)" points="54.237,181.167 54.608,176.812 74.902,166.474 54.325,176.283 33.842,166.841 
				54.089,176.975 			"/>
		</g>
		<g>
			
				<linearGradient id="SVGID_6_" gradientUnits="userSpaceOnUse" x1="5225.1138" y1="176.1364" x2="5301.0596" y2="159.1118" gradientTransform="matrix(-1 0 0 1 5306.1016 0)">
				<stop  offset="0.0354" style="stop-color:#138BBD"/>
				<stop  offset="0.2257" style="stop-color:#169AC7"/>
				<stop  offset="0.5946" style="stop-color:#1FC3DF"/>
				<stop  offset="1" style="stop-color:#2AF6FF"/>
			</linearGradient>
			<polygon fill="url(#SVGID_6_)" points="54.319,170.589 54.319,175.381 33.36,165.029 33.36,160.237 			"/>
			
				<linearGradient id="SVGID_7_" gradientUnits="userSpaceOnUse" x1="5236.3252" y1="169.1488" x2="5270.1196" y2="159.0295" gradientTransform="matrix(-1 0 0 1 5306.1016 0)">
				<stop  offset="0.0354" style="stop-color:#138BBD"/>
				<stop  offset="0.2257" style="stop-color:#169AC7"/>
				<stop  offset="0.5946" style="stop-color:#1FC3DF"/>
				<stop  offset="1" style="stop-color:#2AF6FF"/>
			</linearGradient>
			<polygon fill="url(#SVGID_7_)" points="54.306,170.589 54.306,175.381 75.257,164.704 75.257,159.925 			"/>
			
				<linearGradient id="SVGID_8_" gradientUnits="userSpaceOnUse" x1="5271.1802" y1="123.134" x2="5250.3252" y2="162.8793" gradientTransform="matrix(-1 0 0 1 5306.1016 0)">
				<stop  offset="0.0354" style="stop-color:#138BBD"/>
				<stop  offset="0.2257" style="stop-color:#169AC7"/>
				<stop  offset="0.5946" style="stop-color:#1FC3DF"/>
				<stop  offset="1" style="stop-color:#2AF6FF"/>
			</linearGradient>
			<polygon fill="url(#SVGID_8_)" points="75.257,159.925 54.306,170.589 33.36,160.237 54.335,149.56 			"/>
			
				<radialGradient id="SVGID_9_" cx="45.4707" cy="166.9388" r="11.5574" gradientTransform="matrix(1.1596 0 0 1 -2.4766 0)" gradientUnits="userSpaceOnUse">
				<stop  offset="0" style="stop-color:#FFFFFF"/>
				<stop  offset="1" style="stop-color:#000000"/>
			</radialGradient>
			<polygon fill="url(#SVGID_9_)" points="54.237,174.878 54.608,170.523 74.902,160.185 54.325,169.994 33.842,160.551 
				54.089,170.686 			"/>
		</g>
		<g>
			
				<linearGradient id="SVGID_10_" gradientUnits="userSpaceOnUse" x1="5225.1138" y1="170.0639" x2="5301.0596" y2="153.0394" gradientTransform="matrix(-1 0 0 1 5306.1016 0)">
				<stop  offset="0.0354" style="stop-color:#138BBD"/>
				<stop  offset="0.2257" style="stop-color:#169AC7"/>
				<stop  offset="0.5946" style="stop-color:#1FC3DF"/>
				<stop  offset="1" style="stop-color:#2AF6FF"/>
			</linearGradient>
			<polygon fill="url(#SVGID_10_)" points="54.319,164.517 54.319,169.309 33.36,158.956 33.36,154.164 			"/>
			
				<linearGradient id="SVGID_11_" gradientUnits="userSpaceOnUse" x1="5236.3252" y1="163.0763" x2="5270.1196" y2="152.9571" gradientTransform="matrix(-1 0 0 1 5306.1016 0)">
				<stop  offset="0.0354" style="stop-color:#138BBD"/>
				<stop  offset="0.2257" style="stop-color:#169AC7"/>
				<stop  offset="0.5946" style="stop-color:#1FC3DF"/>
				<stop  offset="1" style="stop-color:#2AF6FF"/>
			</linearGradient>
			<polygon fill="url(#SVGID_11_)" points="54.306,164.517 54.306,169.309 75.257,158.632 75.257,153.852 			"/>
			
				<linearGradient id="SVGID_12_" gradientUnits="userSpaceOnUse" x1="5271.1802" y1="117.0615" x2="5250.3252" y2="156.8068" gradientTransform="matrix(-1 0 0 1 5306.1016 0)">
				<stop  offset="0.0354" style="stop-color:#138BBD"/>
				<stop  offset="0.2257" style="stop-color:#169AC7"/>
				<stop  offset="0.5946" style="stop-color:#1FC3DF"/>
				<stop  offset="1" style="stop-color:#2AF6FF"/>
			</linearGradient>
			<polygon fill="url(#SVGID_12_)" points="75.257,153.852 54.306,164.517 33.36,154.164 54.335,143.488 			"/>
			
				<radialGradient id="SVGID_13_" cx="45.4707" cy="160.8664" r="11.5574" gradientTransform="matrix(1.1596 0 0 1 -2.4766 0)" gradientUnits="userSpaceOnUse">
				<stop  offset="0" style="stop-color:#FFFFFF"/>
				<stop  offset="1" style="stop-color:#000000"/>
			</radialGradient>
			<polygon fill="url(#SVGID_13_)" points="54.237,168.805 54.608,164.45 74.902,154.113 54.325,163.921 33.842,154.479 
				54.089,164.613 			"/>
		</g>
		<g>
			<polygon fill="#FFFFFF" points="63.421,157.168 62.255,156.587 63.423,156.032 64.589,156.613 			"/>
			<polygon fill="#FFFFFF" points="56.268,159.568 61.413,157.007 62.579,157.587 57.434,160.149 			"/>
			<polygon fill="#FFFFFF" points="60.858,154.604 62.024,155.184 58.143,157.116 56.977,156.536 			"/>
			<polygon fill="#FFFFFF" points="55.717,151.804 56.883,152.385 51.739,154.946 50.573,154.366 			"/>
			<polygon fill="#FFFFFF" points="53.026,150.465 54.192,151.045 50.673,152.798 49.507,152.217 			"/>
			<polygon fill="#FFFFFF" points="55.4,154.642 56.565,155.222 51.421,157.784 50.255,157.203 			"/>
			<polygon fill="#FFFFFF" points="52.983,147.807 54.149,148.387 50.629,150.14 49.463,149.559 			"/>
			<polygon fill="#FFFFFF" points="48.621,149.979 49.787,150.559 44.642,153.121 43.476,152.54 			"/>
			<polygon fill="#FFFFFF" points="62.866,154.765 61.7,154.184 62.868,153.629 64.034,154.21 			"/>
			<polygon fill="#FFFFFF" points="57.408,154.803 56.242,154.223 59.762,152.47 60.928,153.051 			"/>
			<polygon fill="#FFFFFF" points="57.726,151.965 56.56,151.385 57.727,150.83 58.893,151.41 			"/>
			<polygon fill="#FFFFFF" points="60.604,152.051 63.142,150.813 64.308,151.394 61.77,152.631 			"/>
			<polygon fill="#FFFFFF" points="50.896,155.366 46.504,157.553 45.338,156.972 49.73,154.785 			"/>
			<polygon fill="#FFFFFF" points="50.579,158.203 49.195,158.892 48.029,158.312 49.413,157.623 			"/>
			<polygon fill="#FFFFFF" points="49.83,153.217 43.813,156.213 42.647,155.632 48.664,152.637 			"/>
			<polygon fill="#FFFFFF" points="53.826,147.387 55.07,146.794 56.236,147.375 54.992,147.968 			"/>
			<polygon fill="#FFFFFF" points="42.634,152.96 43.8,153.54 41.122,154.873 39.956,154.293 			"/>
			<polygon fill="#FFFFFF" points="57.301,157.536 51.885,160.232 50.719,159.652 56.135,156.955 			"/>
			<polygon fill="#FFFFFF" points="53.869,150.045 57.761,148.134 58.926,148.714 55.035,150.626 			"/>
			<polygon fill="#FFFFFF" points="58.57,150.41 60.451,149.474 61.617,150.054 59.736,150.991 			"/>
			<polygon fill="#FFFFFF" points="56.592,160.568 54.576,161.572 53.41,160.991 55.426,159.988 			"/>
			<polygon fill="#FFFFFF" points="63.71,153.21 65.833,152.153 66.999,152.733 64.876,153.79 			"/>
			<polygon fill="#FFFFFF" points="64.265,155.613 68.524,153.493 69.69,154.073 65.431,156.193 			"/>
		</g>
		
			<linearGradient id="SVGID_14_" gradientUnits="userSpaceOnUse" x1="5192.4712" y1="163.1805" x2="5357.5356" y2="126.1783" gradientTransform="matrix(-1 0 0 1 5306.1016 0)">
			<stop  offset="0" style="stop-color:#25054D"/>
			<stop  offset="1" style="stop-color:#45108A"/>
		</linearGradient>
		<polygon fill="url(#SVGID_14_)" points="48.939,114.471 48.939,191.554 16.841,175.69 16.841,98.608 		"/>
		<linearGradient id="SVGID_15_" gradientUnits="userSpaceOnUse" x1="58.6059" y1="177.2261" x2="10.919" y2="117.6174">
			<stop  offset="0" style="stop-color:#972A74"/>
			<stop  offset="0.0413" style="stop-color:#8A266A"/>
			<stop  offset="0.1941" style="stop-color:#601B4A"/>
			<stop  offset="0.35" style="stop-color:#3D112F"/>
			<stop  offset="0.5074" style="stop-color:#220A1B"/>
			<stop  offset="0.6667" style="stop-color:#0F040C"/>
			<stop  offset="0.8293" style="stop-color:#040103"/>
			<stop  offset="1" style="stop-color:#000000"/>
		</linearGradient>
		<polygon fill="url(#SVGID_15_)" points="48.939,114.471 48.939,191.554 16.841,175.69 16.841,98.608 		"/>
		<path fill="#25054D" d="M31.901,114.87v16.143c0,0.883-1.106,1.435-1.994,0.996l-9.072-4.494
			c-0.936-0.462-1.513-1.321-1.513-2.252v-16.143c0-0.883,1.106-1.435,1.994-0.996l9.072,4.494
			C31.324,113.081,31.901,113.94,31.901,114.87z"/>
		
			<linearGradient id="SVGID_16_" gradientUnits="userSpaceOnUse" x1="5287.0698" y1="41.5087" x2="5254.9106" y2="102.7969" gradientTransform="matrix(-1 0 0 1 5306.1016 0)">
			<stop  offset="0" style="stop-color:#25054D"/>
			<stop  offset="1" style="stop-color:#45108A"/>
		</linearGradient>
		<polygon fill="url(#SVGID_16_)" points="81.012,98.355 48.921,114.471 16.841,98.608 48.967,82.474 		"/>
		
			<linearGradient id="SVGID_17_" gradientUnits="userSpaceOnUse" x1="5228.0278" y1="148.8796" x2="5326.1655" y2="119.4938" gradientTransform="matrix(-1 0 0 1 5306.1016 0)">
			<stop  offset="0" style="stop-color:#25054D"/>
			<stop  offset="1" style="stop-color:#45108A"/>
		</linearGradient>
		<path fill="url(#SVGID_17_)" d="M48.921,114.471v77.083l32.092-16.133V98.355L48.921,114.471z M53.07,118.039l23.793-11.949
			v66.113L53.07,184.164V118.039z"/>
		<g>
			
				<linearGradient id="SVGID_18_" gradientUnits="userSpaceOnUse" x1="5733.3979" y1="1584.9839" x2="5744.4473" y2="1563.4828" gradientTransform="matrix(-0.866 -0.5 0 1.1547 4996.2197 1167.265)">
				<stop  offset="0.0303" style="stop-color:#7C1DC9"/>
				<stop  offset="0.2138" style="stop-color:#6E41D2"/>
				<stop  offset="0.6184" style="stop-color:#4C9BE8"/>
				<stop  offset="1" style="stop-color:#2AF6FF"/>
			</linearGradient>
			<polygon fill="url(#SVGID_18_)" points="21.554,110.942 29.669,114.976 29.669,115.751 21.554,111.717 			"/>
			
				<linearGradient id="SVGID_19_" gradientUnits="userSpaceOnUse" x1="5734.2192" y1="1585.3632" x2="5745.2686" y2="1563.8621" gradientTransform="matrix(-0.866 -0.5 0 1.1547 4996.2197 1167.265)">
				<stop  offset="0.0303" style="stop-color:#7C1DC9"/>
				<stop  offset="0.2138" style="stop-color:#6E41D2"/>
				<stop  offset="0.6184" style="stop-color:#4C9BE8"/>
				<stop  offset="1" style="stop-color:#2AF6FF"/>
			</linearGradient>
			<polygon fill="url(#SVGID_19_)" points="21.554,113.226 29.669,117.26 29.669,118.034 21.554,114 			"/>
			
				<linearGradient id="SVGID_20_" gradientUnits="userSpaceOnUse" x1="5735.0405" y1="1585.7424" x2="5746.0898" y2="1564.2412" gradientTransform="matrix(-0.866 -0.5 0 1.1547 4996.2197 1167.265)">
				<stop  offset="0.0303" style="stop-color:#7C1DC9"/>
				<stop  offset="0.2138" style="stop-color:#6E41D2"/>
				<stop  offset="0.6184" style="stop-color:#4C9BE8"/>
				<stop  offset="1" style="stop-color:#2AF6FF"/>
			</linearGradient>
			<polygon fill="url(#SVGID_20_)" points="21.554,115.509 29.669,119.543 29.669,120.318 21.554,116.284 			"/>
			
				<linearGradient id="SVGID_21_" gradientUnits="userSpaceOnUse" x1="5735.8618" y1="1586.1217" x2="5746.9111" y2="1564.6205" gradientTransform="matrix(-0.866 -0.5 0 1.1547 4996.2197 1167.265)">
				<stop  offset="0.0303" style="stop-color:#7C1DC9"/>
				<stop  offset="0.2138" style="stop-color:#6E41D2"/>
				<stop  offset="0.6184" style="stop-color:#4C9BE8"/>
				<stop  offset="1" style="stop-color:#2AF6FF"/>
			</linearGradient>
			<polygon fill="url(#SVGID_21_)" points="21.554,117.792 29.669,121.827 29.669,122.601 21.554,118.567 			"/>
			
				<linearGradient id="SVGID_22_" gradientUnits="userSpaceOnUse" x1="5736.6831" y1="1586.501" x2="5747.7324" y2="1564.9998" gradientTransform="matrix(-0.866 -0.5 0 1.1547 4996.2197 1167.265)">
				<stop  offset="0.0303" style="stop-color:#7C1DC9"/>
				<stop  offset="0.2138" style="stop-color:#6E41D2"/>
				<stop  offset="0.6184" style="stop-color:#4C9BE8"/>
				<stop  offset="1" style="stop-color:#2AF6FF"/>
			</linearGradient>
			<polygon fill="url(#SVGID_22_)" points="21.554,120.076 29.669,124.11 29.669,124.885 21.554,120.85 			"/>
			
				<linearGradient id="SVGID_23_" gradientUnits="userSpaceOnUse" x1="5737.5044" y1="1586.8802" x2="5748.5537" y2="1565.3789" gradientTransform="matrix(-0.866 -0.5 0 1.1547 4996.2197 1167.265)">
				<stop  offset="0.0303" style="stop-color:#7C1DC9"/>
				<stop  offset="0.2138" style="stop-color:#6E41D2"/>
				<stop  offset="0.6184" style="stop-color:#4C9BE8"/>
				<stop  offset="1" style="stop-color:#2AF6FF"/>
			</linearGradient>
			<polygon fill="url(#SVGID_23_)" points="21.554,122.359 29.669,126.394 29.669,127.168 21.554,123.134 			"/>
			
				<linearGradient id="SVGID_24_" gradientUnits="userSpaceOnUse" x1="5738.3262" y1="1587.2594" x2="5749.3755" y2="1565.7581" gradientTransform="matrix(-0.866 -0.5 0 1.1547 4996.2197 1167.265)">
				<stop  offset="0.0303" style="stop-color:#7C1DC9"/>
				<stop  offset="0.2138" style="stop-color:#6E41D2"/>
				<stop  offset="0.6184" style="stop-color:#4C9BE8"/>
				<stop  offset="1" style="stop-color:#2AF6FF"/>
			</linearGradient>
			<polygon fill="url(#SVGID_24_)" points="21.554,124.643 29.669,128.677 29.669,129.452 21.554,125.417 			"/>
		</g>
	</g>
	<g>
		<g>
			
				<linearGradient id="SVGID_25_" gradientUnits="userSpaceOnUse" x1="-78.2464" y1="101.3561" x2="-42.0499" y2="101.3561" gradientTransform="matrix(1 0 0 1 109.2211 0)">
				<stop  offset="0.1414" style="stop-color:#4A1195"/>
				<stop  offset="0.5" style="stop-color:#5414A8"/>
				<stop  offset="0.8737" style="stop-color:#25054D"/>
			</linearGradient>
			<path fill="url(#SVGID_25_)" d="M67.143,97.221v-1.32H31.001v1.67h0.006c-0.219,1.407,0.646,2.778,2.647,3.775l8.297,4.131
				c3.972,1.977,10.909,1.729,15.495-0.554l5.931-2.953C66.099,100.615,67.381,98.847,67.143,97.221z"/>
			
				<linearGradient id="SVGID_26_" gradientUnits="userSpaceOnUse" x1="-40.5309" y1="58.2848" x2="-62.9279" y2="100.9689" gradientTransform="matrix(1 0 0 1 109.2211 0)">
				<stop  offset="0" style="stop-color:#2E085F"/>
				<stop  offset="0.5606" style="stop-color:#45108A"/>
				<stop  offset="1" style="stop-color:#5213A3"/>
			</linearGradient>
			<path fill="url(#SVGID_26_)" d="M41.953,103.347l-8.297-4.131c-3.972-1.977-3.474-5.431,1.112-7.715l5.931-2.953
				c4.586-2.283,11.523-2.531,15.495-0.554l8.297,4.131c3.972,1.977,3.474,5.431-1.113,7.715l-5.931,2.953
				C52.861,105.077,45.924,105.325,41.953,103.347z"/>
			
				<radialGradient id="SVGID_27_" cx="-64.7636" cy="99.9818" r="11.5211" gradientTransform="matrix(1.1596 0 0 1 124.1755 0)" gradientUnits="userSpaceOnUse">
				<stop  offset="0" style="stop-color:#FFFFFF"/>
				<stop  offset="1" style="stop-color:#000000"/>
			</radialGradient>
			<path fill="url(#SVGID_27_)" d="M63.378,99.573l-5.931,2.953c-4.586,2.283-11.523,2.531-15.495,0.554l-8.297-4.131
				c-1.706-0.849-2.581-1.971-2.668-3.155c-0.034,1.282,0.835,2.51,2.668,3.423l8.297,4.131c3.972,1.977,10.909,1.729,15.495-0.554
				l5.931-2.953c2.617-1.303,3.897-2.986,3.781-4.559C67.119,96.776,65.847,98.344,63.378,99.573z"/>
			
				<linearGradient id="SVGID_28_" gradientUnits="userSpaceOnUse" x1="1265.8363" y1="1259.5474" x2="1247.7393" y2="1294.0366" gradientTransform="matrix(0.866 0.5 -1 0.5774 256.3416 -1274.2505)">
				<stop  offset="0.0354" style="stop-color:#138BBD"/>
				<stop  offset="0.2257" style="stop-color:#169AC7"/>
				<stop  offset="0.5946" style="stop-color:#1FC3DF"/>
				<stop  offset="1" style="stop-color:#2AF6FF"/>
			</linearGradient>
			<path fill="url(#SVGID_28_)" d="M57.209,99.498c-4.465,2.223-11.728,2.212-16.221-0.025c-4.493-2.237-4.516-5.853-0.051-8.076
				c4.465-2.223,11.728-2.212,16.221,0.025C61.652,93.659,61.674,97.275,57.209,99.498z"/>
			
				<linearGradient id="SVGID_29_" gradientUnits="userSpaceOnUse" x1="-47.0532" y1="70.4673" x2="-61.706" y2="98.3925" gradientTransform="matrix(1 0 0 1 109.2211 0)">
				<stop  offset="0.1414" style="stop-color:#4A1195"/>
				<stop  offset="0.5" style="stop-color:#5414A8"/>
				<stop  offset="0.8737" style="stop-color:#25054D"/>
			</linearGradient>
			<path fill="url(#SVGID_29_)" d="M40.937,93.564c4.465-2.223,11.728-2.212,16.221,0.025c1.699,0.846,2.756,1.888,3.176,2.978
				c0.698-1.802-0.361-3.745-3.176-5.146c-4.494-2.237-11.756-2.249-16.221-0.025c-2.778,1.383-3.816,3.304-3.125,5.098
				C38.228,95.42,39.269,94.395,40.937,93.564z"/>
			
				<linearGradient id="SVGID_30_" gradientUnits="userSpaceOnUse" x1="-50.0395" y1="76.1701" x2="-61.5806" y2="98.165" gradientTransform="matrix(1 0 0 1 109.2211 0)">
				<stop  offset="0" style="stop-color:#2E085F"/>
				<stop  offset="0.5606" style="stop-color:#45108A"/>
				<stop  offset="1" style="stop-color:#5213A3"/>
			</linearGradient>
			<path fill="url(#SVGID_30_)" d="M57.86,94.051c-2.387-1.18-6.335-0.186-8.22,0.628c-0.141-0.276-0.423-1.026,0.343-1.618
				c0.858-0.664,2.109-0.951,1.662-1.582c-0.622-0.879-3.284-1.491-5.407-0.427c-2.356,1.181-0.333,3.154,1.313,4.097
				c-0.564,0.069-2.069,0.201-3.253-0.181c-1.339-0.432-1.923-1.056-3.189-0.837c-1.762,0.304-2.975,1.626-0.823,2.69
				c2.387,1.18,6.335,0.186,8.22-0.628c0.142,0.276,0.423,1.026-0.343,1.618c-0.858,0.664-2.109,0.951-1.662,1.582
				c0.622,0.879,3.284,1.491,5.407,0.427c2.356-1.181,0.332-3.154-1.314-4.097c0.564-0.069,2.069-0.201,3.253,0.181
				c1.339,0.432,1.923,1.056,3.189,0.837C58.799,96.436,60.011,95.114,57.86,94.051z"/>
			<g>
				
					<radialGradient id="SVGID_31_" cx="-67.1055" cy="93.6212" r="1.1938" gradientTransform="matrix(1.1596 0 0 1 124.1755 0)" gradientUnits="userSpaceOnUse">
					<stop  offset="0" style="stop-color:#FFFFFF"/>
					<stop  offset="1" style="stop-color:#000000"/>
				</radialGradient>
				<path fill="url(#SVGID_31_)" d="M47.241,94.962c0.119-0.011,0.227-0.022,0.309-0.032c-1.072-0.614-2.296-1.664-2.374-2.649
					C45.077,93.232,46.173,94.283,47.241,94.962z"/>
				
					<radialGradient id="SVGID_32_" cx="-69.2221" cy="96.4069" r="2.9825" gradientTransform="matrix(1.1596 0 0 1 124.1755 0)" gradientUnits="userSpaceOnUse">
					<stop  offset="0" style="stop-color:#FFFFFF"/>
					<stop  offset="1" style="stop-color:#000000"/>
				</radialGradient>
				<path fill="url(#SVGID_32_)" d="M48.666,96.734c0.028-0.325-0.083-0.613-0.16-0.762c-1.885,0.813-5.832,1.808-8.22,0.628
					c-0.748-0.37-1.082-0.77-1.136-1.149c-0.066,0.44,0.241,0.926,1.136,1.368c2.387,1.18,6.335,0.186,8.22-0.628
					C48.564,96.306,48.643,96.503,48.666,96.734z"/>
				
					<radialGradient id="SVGID_33_" cx="-63.4453" cy="92.7687" r="1.0649" gradientTransform="matrix(1.1596 0 0 1 124.1755 0)" gradientUnits="userSpaceOnUse">
					<stop  offset="0" style="stop-color:#FFFFFF"/>
					<stop  offset="1" style="stop-color:#000000"/>
				</radialGradient>
				<path fill="url(#SVGID_33_)" d="M49.983,92.841c-0.449,0.347-0.534,0.747-0.502,1.076c0.024-0.278,0.149-0.583,0.502-0.856
					c0.791-0.612,1.911-0.904,1.734-1.44C51.575,92.029,50.659,92.318,49.983,92.841z"/>
				
					<radialGradient id="SVGID_34_" cx="-59.8281" cy="95.9922" r="2.6241" gradientTransform="matrix(1.1596 0 0 1 124.1755 0)" gradientUnits="userSpaceOnUse">
					<stop  offset="0" style="stop-color:#FFFFFF"/>
					<stop  offset="1" style="stop-color:#000000"/>
				</radialGradient>
				<path fill="url(#SVGID_34_)" d="M57.037,96.521c-1.266,0.218-1.85-0.406-3.189-0.837c-1.184-0.382-2.689-0.25-3.253-0.181
					c0.102,0.058,0.206,0.121,0.309,0.187c0.693-0.064,1.933-0.112,2.944,0.214c1.339,0.432,1.923,1.056,3.189,0.837
					c1.15-0.198,2.059-0.83,1.959-1.541C58.903,95.817,58.067,96.343,57.037,96.521z"/>
				
					<radialGradient id="SVGID_35_" cx="-64.2324" cy="99.3768" r="2.1239" gradientTransform="matrix(1.1596 0 0 1 124.1755 0)" gradientUnits="userSpaceOnUse">
					<stop  offset="0" style="stop-color:#FFFFFF"/>
					<stop  offset="1" style="stop-color:#000000"/>
				</radialGradient>
				<path fill="url(#SVGID_35_)" d="M51.909,99.599c-2.123,1.065-4.785,0.453-5.407-0.427c-0.035-0.05-0.057-0.097-0.072-0.143
					c-0.038,0.11-0.023,0.228,0.072,0.362c0.622,0.879,3.284,1.491,5.407,0.427c0.822-0.412,1.103-0.921,1.061-1.448
					C52.923,98.818,52.616,99.245,51.909,99.599z"/>
			</g>
			<g>
				
					<linearGradient id="SVGID_36_" gradientUnits="userSpaceOnUse" x1="-64.0399" y1="92.2727" x2="-64.0466" y2="92.2855" gradientTransform="matrix(1 0 0 1 109.2211 0)">
					<stop  offset="0" style="stop-color:#2E085F"/>
					<stop  offset="0.5606" style="stop-color:#45108A"/>
					<stop  offset="1" style="stop-color:#5213A3"/>
				</linearGradient>
				<polygon fill="url(#SVGID_36_)" points="45.176,92.281 45.175,92.281 45.175,92.287 				"/>
				
					<linearGradient id="SVGID_37_" gradientUnits="userSpaceOnUse" x1="-66.3691" y1="93.8533" x2="-61.7832" y2="93.8533" gradientTransform="matrix(1 0 0 1 109.2211 0)">
					<stop  offset="0.1212" style="stop-color:#340A69"/>
					<stop  offset="0.3636" style="stop-color:#4A1195"/>
					<stop  offset="0.5799" style="stop-color:#3C0C79"/>
					<stop  offset="0.8737" style="stop-color:#25054D"/>
				</linearGradient>
				<path fill="url(#SVGID_37_)" d="M45.175,92.48v0.94c-0.059,0.603,0.363,1.244,0.951,1.806c0.607,0.008,1.138-0.042,1.424-0.077
					C46.471,94.53,45.238,93.47,45.175,92.48z"/>
				
					<linearGradient id="SVGID_38_" gradientUnits="userSpaceOnUse" x1="-70.0337" y1="95.4474" x2="-70.0897" y2="95.5541" gradientTransform="matrix(1 0 0 1 109.2211 0)">
					<stop  offset="0" style="stop-color:#2E085F"/>
					<stop  offset="0.5606" style="stop-color:#45108A"/>
					<stop  offset="1" style="stop-color:#5213A3"/>
				</linearGradient>
				<path fill="url(#SVGID_38_)" d="M39.144,95.514l-0.006,0v0.055C39.138,95.551,39.142,95.533,39.144,95.514z"/>
				
					<linearGradient id="SVGID_39_" gradientUnits="userSpaceOnUse" x1="-62.9798" y1="93.2039" x2="-58.0911" y2="93.2039" gradientTransform="matrix(1 0 0 1 109.2211 0)">
					<stop  offset="0.1212" style="stop-color:#340A69"/>
					<stop  offset="0.3636" style="stop-color:#4A1195"/>
					<stop  offset="0.5799" style="stop-color:#3C0C79"/>
					<stop  offset="0.8737" style="stop-color:#25054D"/>
				</linearGradient>
				<path fill="url(#SVGID_39_)" d="M49.983,94.193c0.761-0.588,1.827-0.881,1.749-1.38v-1.028
					c-0.073,0.438-1.043,0.729-1.749,1.275c-0.723,0.559-0.513,1.254-0.368,1.562C49.693,94.477,49.805,94.331,49.983,94.193z"/>
				
					<linearGradient id="SVGID_40_" gradientUnits="userSpaceOnUse" x1="-54.506" y1="96.5702" x2="-50.2401" y2="96.5702" gradientTransform="matrix(1 0 0 1 109.2211 0)">
					<stop  offset="0.1212" style="stop-color:#340A69"/>
					<stop  offset="0.3636" style="stop-color:#4A1195"/>
					<stop  offset="0.5799" style="stop-color:#3C0C79"/>
					<stop  offset="0.8737" style="stop-color:#25054D"/>
				</linearGradient>
				<path fill="url(#SVGID_40_)" d="M59,95.231c0.069,0.698-0.831,1.314-1.964,1.509c-1.266,0.218-1.85-0.406-3.189-0.837
					c-1.184-0.382-2.689-0.25-3.253-0.181c0.485,0.278,0.999,0.646,1.428,1.055c0.586,0.008,1.244,0.071,1.825,0.259
					c1.339,0.432,1.923,1.056,3.189,0.837c1.096-0.189,1.979-0.772,1.972-1.442l0.01-0.003v-1.206L59,95.231z"/>
				
					<linearGradient id="SVGID_41_" gradientUnits="userSpaceOnUse" x1="-70.8319" y1="97.0421" x2="-62.1517" y2="97.0421" gradientTransform="matrix(1 0 0 1 109.2211 0)">
					<stop  offset="0.1212" style="stop-color:#340A69"/>
					<stop  offset="0.3636" style="stop-color:#4A1195"/>
					<stop  offset="0.5799" style="stop-color:#3C0C79"/>
					<stop  offset="0.8737" style="stop-color:#25054D"/>
				</linearGradient>
				<path fill="url(#SVGID_41_)" d="M48.534,97.385c0.268-0.487,0.081-0.981-0.028-1.193c-1.885,0.813-5.832,1.808-8.22,0.628
					c-0.801-0.396-1.135-0.828-1.149-1.23v1.113c0,0.007,0,0.013,0,0.02v0.017l0.003,0c0.022,0.397,0.355,0.823,1.146,1.213
					c2.387,1.18,6.335,0.186,8.22-0.628C48.514,97.341,48.524,97.365,48.534,97.385z"/>
				
					<linearGradient id="SVGID_42_" gradientUnits="userSpaceOnUse" x1="-63.0079" y1="99.7904" x2="-55.6339" y2="99.7904" gradientTransform="matrix(1 0 0 1 109.2211 0)">
					<stop  offset="0.1212" style="stop-color:#340A69"/>
					<stop  offset="0.3636" style="stop-color:#4A1195"/>
					<stop  offset="0.5799" style="stop-color:#3C0C79"/>
					<stop  offset="0.8737" style="stop-color:#25054D"/>
				</linearGradient>
				<path fill="url(#SVGID_42_)" d="M51.909,100.951c0.695-0.349,1.002-0.767,1.057-1.206l0.016-0.001v-1.315l-0.008,0.001
					c0.016,0.506-0.273,0.993-1.064,1.389c-2.123,1.065-4.785,0.453-5.407-0.427c-0.059-0.083-0.087-0.161-0.091-0.234l-0.006,0.001
					v1.069l0.01-0.001c-0.013,0.092,0.011,0.189,0.088,0.298c0.144,0.203,0.401,0.391,0.731,0.549
					c1.521,0.127,3.077,0.101,4.577-0.078C51.842,100.98,51.876,100.968,51.909,100.951z"/>
			</g>
			
				<linearGradient id="SVGID_43_" gradientUnits="userSpaceOnUse" x1="1253.2432" y1="1283.5137" x2="1249.5099" y2="1290.6284" gradientTransform="matrix(0.866 0.5 -1 0.5774 256.3416 -1274.2505)">
				<stop  offset="0" style="stop-color:#2E085F"/>
				<stop  offset="0.5606" style="stop-color:#45108A"/>
				<stop  offset="1" style="stop-color:#5213A3"/>
			</linearGradient>
			<path fill="url(#SVGID_43_)" d="M50.751,96.271c-0.921,0.459-2.419,0.456-3.346-0.005c-0.927-0.462-0.932-1.207-0.01-1.666
				c0.921-0.459,2.419-0.456,3.346,0.005C51.668,95.066,51.673,95.812,50.751,96.271z"/>
			
				<radialGradient id="SVGID_44_" cx="-64.7662" cy="95.9657" r="1.5077" gradientTransform="matrix(1.1596 0 0 1 124.1755 0)" gradientUnits="userSpaceOnUse">
				<stop  offset="0" style="stop-color:#FFFFFF"/>
				<stop  offset="1" style="stop-color:#000000"/>
			</radialGradient>
			<path fill="url(#SVGID_44_)" d="M50.751,96.051c-0.921,0.459-2.419,0.456-3.346-0.005c-0.409-0.204-0.628-0.463-0.677-0.728
				c-0.063,0.338,0.155,0.688,0.677,0.947c0.927,0.462,2.425,0.464,3.346,0.005c0.515-0.256,0.73-0.602,0.667-0.938
				C51.369,95.595,51.154,95.851,50.751,96.051z"/>
		</g>
		
			<linearGradient id="SVGID_45_" gradientUnits="userSpaceOnUse" x1="-60.1802" y1="109.1057" x2="-60.1802" y2="65.3621" gradientTransform="matrix(1 0 0 1 109.2211 0)">
			<stop  offset="0" style="stop-color:#43E8E1"/>
			<stop  offset="0.0944" style="stop-color:#36BDB7"/>
			<stop  offset="0.2176" style="stop-color:#288B87"/>
			<stop  offset="0.3438" style="stop-color:#1C605D"/>
			<stop  offset="0.4708" style="stop-color:#123E3C"/>
			<stop  offset="0.599" style="stop-color:#0A2321"/>
			<stop  offset="0.7287" style="stop-color:#040F0F"/>
			<stop  offset="0.8611" style="stop-color:#010404"/>
			<stop  offset="1" style="stop-color:#000000"/>
		</linearGradient>
		<path opacity="0.15" fill="url(#SVGID_45_)" d="M60.481,95.164V60.149H37.602v34.938c-0.179,1.573,0.931,3.18,3.354,4.386
			c4.493,2.237,11.756,2.249,16.221,0.025C59.563,98.31,60.655,96.725,60.481,95.164z"/>
	</g>
	
		<radialGradient id="SVGID_46_" cx="55.9033" cy="151.3676" r="19.0717" gradientTransform="matrix(1.1596 0 0 1 -2.4766 0)" gradientUnits="userSpaceOnUse">
		<stop  offset="0" style="stop-color:#2AF6FF"/>
		<stop  offset="0.0152" style="stop-color:#29EEF7"/>
		<stop  offset="0.132" style="stop-color:#1FB7BE"/>
		<stop  offset="0.252" style="stop-color:#17868B"/>
		<stop  offset="0.3727" style="stop-color:#105D60"/>
		<stop  offset="0.4942" style="stop-color:#0A3B3E"/>
		<stop  offset="0.6167" style="stop-color:#062123"/>
		<stop  offset="0.7407" style="stop-color:#030F0F"/>
		<stop  offset="0.8672" style="stop-color:#010404"/>
		<stop  offset="1" style="stop-color:#000000"/>
	</radialGradient>
	<ellipse opacity="0.1" fill="url(#SVGID_46_)" cx="64.66" cy="150.185" rx="19.11" ry="16.48"/>
	<g>
		<linearGradient id="SVGID_47_" gradientUnits="userSpaceOnUse" x1="59.8006" y1="188.7892" x2="127.2004" y2="168.6074">
			<stop  offset="0" style="stop-color:#25054D"/>
			<stop  offset="1" style="stop-color:#45108A"/>
		</linearGradient>
		<polygon opacity="0.2" fill="url(#SVGID_47_)" points="48.888,192.755 48.888,197.606 80.959,181.755 80.959,176.905 		"/>
		<linearGradient id="SVGID_48_" gradientUnits="userSpaceOnUse" x1="-12.1811" y1="197.2288" x2="79.9308" y2="176.5802">
			<stop  offset="0" style="stop-color:#25054D"/>
			<stop  offset="1" style="stop-color:#45108A"/>
		</linearGradient>
		<polygon opacity="0.2" fill="url(#SVGID_48_)" points="48.906,192.755 48.906,197.606 16.841,181.486 16.841,176.652 		"/>
	</g>
</g>
</svg>
