<?xml version="1.0" encoding="utf-8"?>
<!-- Generator: Adobe Illustrator 24.1.1, SVG Export Plug-In . SVG Version: 6.00 Build 0)  -->
<svg version="1.1" id="Capa_4" xmlns="http://www.w3.org/2000/svg" xmlns:xlink="http://www.w3.org/1999/xlink" x="0px" y="0px"
	 viewBox="0 0 448.396 400.557" enable-background="new 0 0 448.396 400.557" xml:space="preserve">
<g>
	
		<linearGradient id="SVGID_1_" gradientUnits="userSpaceOnUse" x1="933.5023" y1="347.1476" x2="784.1589" y2="129.5556" gradientTransform="matrix(-0.8531 0 0 -1 902.4797 401.2756)">
		<stop  offset="0" style="stop-color:#5207A1"/>
		<stop  offset="0.5392" style="stop-color:#11002C"/>
		<stop  offset="1" style="stop-color:#5207A1"/>
	</linearGradient>
	<path opacity="0.3" fill="url(#SVGID_1_)" enable-background="new    " d="M231.852,265.755c2.263,0,4.706-2.001,4.706-5.235
		V149.777c0-1.861-0.899-3.594-2.347-4.523L114.554,68.4c-0.736-0.472-1.522-0.712-2.337-0.712c-2.264,0-4.706,2.001-4.706,5.235
		v110.743c0,1.861,0.9,3.594,2.349,4.524l119.655,76.854C230.25,265.516,231.036,265.755,231.852,265.755z"/>
	<g opacity="0.3">
		<polygon fill="#15FF5F" points="182.012,212.907 223.083,239.286 223.083,206.592 182.012,180.212 		"/>
		<polygon fill="#8B00BF" points="119.884,173.002 173.916,207.706 173.916,175.012 119.884,140.308 		"/>
		<polygon fill="#44FFFF" points="119.884,134.502 223.083,200.786 223.083,173.671 119.884,107.388 		"/>
		<polygon fill="#44FFFF" points="119.884,103.342 223.083,169.626 223.083,164.908 119.884,98.624 		"/>
	</g>
</g>
<linearGradient id="SVGID_2_" gradientUnits="userSpaceOnUse" x1="912.2734" y1="377.2684" x2="922.5027" y2="251.7274" gradientTransform="matrix(-0.8531 0 0 -1 902.4797 401.2756)">
	<stop  offset="6.674000e-04" style="stop-color:#FFFFFF"/>
	<stop  offset="1" style="stop-color:#FFFFFF;stop-opacity:0"/>
</linearGradient>
<path opacity="0.4" fill="url(#SVGID_2_)" enable-background="new    " d="M130.152,56.842l5.128,3.293v6.587l-5.128-3.293V56.842z
	 M119.603,56.653l-5.128-3.293v-6.587l5.128,3.293V56.653z M114.475,84.428l5.128,3.293v6.587l-5.128-3.294V84.428z
	 M115.466,113.092l5.128,3.293v6.587l-5.128-3.293V113.092z M114.569,93.773l5.128,3.293v6.587l-5.128-3.294V93.773z
	 M114.475,121.739l5.128,3.294v6.587l-5.128-3.293V121.739z M137.32,61.446l14.894,9.567V77.6l-14.894-9.566V61.446z M115.466,75.78
	l5.128,3.293v6.587l-5.128-3.293V75.78z M130.819,38.701l21.395,13.742v6.587l-21.395-13.742V38.701z M122.426,42.595l29.789,19.133
	v6.587l-29.789-19.133C122.426,49.182,122.426,42.595,122.426,42.595z M123.86,34.231l5.128,3.293v6.587l-5.128-3.293
	C123.86,40.818,123.86,34.231,123.86,34.231z M117.133,29.911l5.128,3.293v6.587l-5.128-3.293V29.911z M127.441,61.688l-5.128-3.293
	v-6.587l5.128,3.293V61.688z M120.594,48.005l-5.128-3.293v-6.587l5.128,3.293V48.005z M113.867,118.651l-5.128-3.294v-6.587
	l5.128,3.293V118.651z M131.69,73.701L112.585,61.43v-6.587l19.105,12.271V73.701z M117.133,104.877l5.128,3.294v6.587l-5.128-3.293
	V104.877z M108.739,33.804l5.128,3.293v6.587l-5.128-3.294V33.804z M122.137,98.634l9.552,6.135v6.587l-9.552-6.135
	C122.137,105.221,122.137,98.634,122.137,98.634z M94.28,15.232l5.128,3.294v6.587L94.28,21.82V15.232z M108.739,71.459l5.128,3.293
	v6.587l-5.128-3.294V71.459z M128.941,91.021l-5.128-3.293v-6.587l5.128,3.293V91.021z M123.86,115.785v-6.587l5.128,3.293v6.587
	L123.86,115.785z M130.89,82.989l-5.128-3.293v-6.587l5.128,3.294V82.989z M127.441,99.343l-5.128-3.293v-6.587l5.128,3.293V99.343z
	 M130.152,94.497l5.128,3.293v6.587l-5.128-3.293V94.497z M132.49,77.429l5.128,3.293v6.587l-5.128-3.293V77.429z M130.152,138.396
	v-6.587l5.128,3.294v6.587L130.152,138.396z M99.407,56.181v6.587l-5.128-3.293v-6.587L99.407,56.181z M102.447,83.289
	l-14.894-9.567v-6.587l14.894,9.567V83.289z M92.68,95.759l-5.128-3.293v-6.587l5.128,3.294V95.759z M92.68,86.301l-5.128-3.293
	v-6.587l5.128,3.293V86.301z M92.68,105.043l-5.128-3.294v-6.587l5.128,3.293V105.043z M99.407,93.492v6.587l-5.128-3.293v-6.587
	L99.407,93.492z M102.447,120.601l-14.894-9.567v-6.587l14.894,9.567V120.601z M102.447,45.634l-14.894-9.567V29.48l14.894,9.567
	V45.634z M92.68,30.076l-5.128-3.293v-6.587l5.128,3.293V30.076z M92.68,14.205v6.587l-5.128-3.294v-6.587L92.68,14.205z
	 M92.68,48.645l-5.128-3.293v-6.587l5.128,3.293V48.645z M92.68,67.732l-5.128-3.294v-6.587l5.128,3.293V67.732z M92.68,58.447
	l-5.128-3.293v-6.587l5.128,3.293V58.447z M136.896,89.544l15.319,9.839v6.587l-15.319-9.839V89.544z M133.11,105.681l19.105,12.271
	v6.587l-19.105-12.271V105.681z M137.32,99.101l14.894,9.567v6.587l-14.894-9.566V99.101z M130.819,113.668l21.395,13.742v6.587
	l-21.395-13.742V113.668z M92.68,123.612l-5.128-3.294v-6.587l5.128,3.293V123.612z M143.142,84.271l9.073,5.827v6.587l-9.073-5.827
	V84.271z M122.426,117.562l29.789,19.133v6.587l-29.789-19.133C122.426,124.149,122.426,117.562,122.426,117.562z M133.11,68.026
	l19.105,12.271v6.587L133.11,74.613V68.026z M111.303,135.574l-5.128-3.294v-6.587l5.128,3.293V135.574z M111.303,60.607
	l-5.128-3.293v-6.587l5.128,3.293V60.607z M127.441,136.654l-5.128-3.293v-6.587l5.128,3.293V136.654z M131.69,148.668
	l-19.105-12.271v-6.587l19.105,12.271V148.668z M152.215,161.85l-19.105-12.27v-6.587l19.105,12.271V161.85z M137.32,136.413
	l14.894,9.567v6.587L137.32,143V136.413z"/>
</svg>
