<?xml version="1.0" encoding="utf-8"?>
<!-- Generator: Adobe Illustrator 24.1.1, SVG Export Plug-In . SVG Version: 6.00 Build 0)  -->
<svg version="1.1" id="Capa_1" xmlns="http://www.w3.org/2000/svg" xmlns:xlink="http://www.w3.org/1999/xlink" x="0px" y="0px"
	 viewBox="0 0 102.653 105.505" enable-background="new 0 0 102.653 105.505" xml:space="preserve">
<g id="Capa_2_1_">
</g>
<g id="Capa_3">
	<path fill="#303030" d="M17.252,43.927L17.252,43.927c-3.027,0-5.48,2.454-5.48,5.48v3.861c0,3.027,2.454,5.48,5.48,5.48l0,0
		c3.027,0,5.48-2.454,5.48-5.48v-3.861C22.733,46.381,20.279,43.927,17.252,43.927z M19.168,52.934c0,1.095-0.888,1.983-1.983,1.983
		s-1.983-0.888-1.983-1.983v-3.698c0-1.095,0.888-1.983,1.983-1.983s1.983,0.888,1.983,1.983V52.934z"/>
	<path fill="#303030" d="M17.252,78.531L17.252,78.531c-3.027,0-5.48,2.454-5.48,5.48v3.861c0,3.027,2.454,5.48,5.48,5.48l0,0
		c3.027,0,5.48-2.454,5.48-5.48v-3.861C22.733,80.985,20.279,78.531,17.252,78.531z M19.168,87.538c0,1.095-0.888,1.983-1.983,1.983
		s-1.983-0.888-1.983-1.983V83.84c0-1.095,0.888-1.983,1.983-1.983s1.983,0.888,1.983,1.983V87.538z"/>
	<path fill="#303030" d="M17.186,63.249c-2.953,0-5.347,2.394-5.347,5.346s2.394,5.347,5.347,5.347s5.346-2.394,5.346-5.347
		S20.138,63.249,17.186,63.249z M17.252,70.872c-1.331,0-2.411-1.079-2.411-2.411c0-1.331,1.079-2.411,2.411-2.411
		c1.331,0,2.411,1.079,2.411,2.411S18.584,70.872,17.252,70.872z"/>
	<path fill="#303030" d="M91.356,36.442h-9.721l-1.995,2.554h10.814c2.416,0,4.693,2.731,4.693,5.147V92.78h0.001
		c0,2.416-2.417,5.384-4.833,5.384H11.937c-2.416,0-4.375-2.968-4.375-5.385V44.143c0-2.416,2.099-5.147,4.515-5.147h50.367
		l1.703-2.554h-52.85c-3.811,0-6.901,3.09-6.901,6.901v50.586c0,3.811,3.09,6.901,6.901,6.901h80.06c3.811,0,6.901-3.09,6.901-6.901
		V43.343C98.257,39.531,95.168,36.442,91.356,36.442z"/>
	<path fill="#303030" d="M88.97,43.927H75.953l-1.413,1.637l13.866,0.01v45.477l-59.525-0.045V45.529l28.829,0.022l1.245-1.624
		H28.257c-1.083,0-1.96,0.878-1.96,1.96v45.505c0,1.083,0.878,1.96,1.96,1.96H88.97c1.083,0,1.96-0.878,1.96-1.96V45.887
		C90.931,44.805,90.053,43.927,88.97,43.927z"/>
	<path fill="#F50B16" d="M97.049,12.679l-7.366-5.711c0,0-3.743-0.229-4.99,1.434L52.436,49.986l-4.753,16.158h-3.609
		c0,0-4.01,0.267-4.723,4.946c0,0-0.089,3.965,3.832,5.391l1.916,0.312l15.015-0.267c0,0,1.381,0.445,1.381,2.139
		c0,0,0.134,1.782-1.648,2.005H46.703c0,0-1.96,0.134-1.827,1.96c0,0,0.49,1.292,1.916,1.515H60.47c0,0,4.5-0.223,4.589-6.371
		c0,0-0.802-4.411-5.391-4.723l-15.46,0.089c0,0-2.361-1.47-0.535-3.342c0,0,1.158-0.356,2.406-0.401l3.653,0.045l15.653-9.832
		l31.96-40.871C97.347,18.739,99.545,14.699,97.049,12.679z M51.126,64.541l3.389-10.642l6.356,4.82L51.126,64.541z M63.812,56.521
		l-7.813-5.881l25.902-33.951l7.931,6.416L63.812,56.521z M94.504,16.689c-0.591,0.746-2.682,3.386-2.682,3.386l-7.307-5.911
		l2.406-2.97c0.891-1.158,2.198-0.445,2.198-0.445l3.832,2.792C94.911,14.729,95.094,15.944,94.504,16.689z"/>
</g>
</svg>
