<?xml version="1.0" encoding="utf-8"?>
<!-- Generator: Adobe Illustrator 21.0.0, SVG Export Plug-In . SVG Version: 6.00 Build 0)  -->
<svg version="1.1" id="barra" xmlns="http://www.w3.org/2000/svg" xmlns:xlink="http://www.w3.org/1999/xlink" x="0px" y="0px"
	 viewBox="0 0 129.1 79.7" style="enable-background:new 0 0 129.1 79.7;" xml:space="preserve">
<style type="text/css">
	.st0{fill:url(#SVGID_1_);}
	.st1{fill:#754598;}
	.st2{fill:url(#SVGID_2_);}
	.st3{fill:url(#SVGID_3_);}
	.st4{opacity:0.57;fill:#2322C2;enable-background:new    ;}
	.st5{opacity:0.76;fill:#230563;enable-background:new    ;}
	.st6{opacity:0.5;fill:#FFFFFF;enable-background:new    ;}
	.st7{fill:url(#SVGID_4_);}
	.st8{fill:#9A1743;}
	.st9{opacity:0.57;fill:#230548;enable-background:new    ;}
</style>
<g>
	
		<radialGradient id="SVGID_1_" cx="60.4718" cy="-5103.4282" r="6.1231" gradientTransform="matrix(1 0 0 -0.6198 0 -3115.1211)" gradientUnits="userSpaceOnUse">
		<stop  offset="0" style="stop-color:#FCFCFD"/>
		<stop  offset="0.9829" style="stop-color:#D4CDE9"/>
	</radialGradient>
	<polygon class="st0" points="52.3,47.7 51.4,53.1 67.8,53.3 68.7,47.6 	"/>
	<polygon class="st1" points="68.7,47.6 68.8,47.8 68,53.6 51.6,53.3 51.4,53.1 67.8,53.3 	"/>
	
		<radialGradient id="SVGID_2_" cx="59.3452" cy="-21129.0195" r="7.0291" gradientTransform="matrix(1 0 0 -0.2836 0 -5943.3027)" gradientUnits="userSpaceOnUse">
		<stop  offset="0" style="stop-color:#FCFCFD"/>
		<stop  offset="0.9829" style="stop-color:#B0A4D8"/>
	</radialGradient>
	<polygon class="st2" points="52.9,49.2 52.6,51.3 66.2,51.6 66.7,48.9 	"/>
	
		<radialGradient id="SVGID_3_" cx="59.497" cy="-4538.4395" r="7.2345" gradientTransform="matrix(1 0 0 -0.647 0 -2886.4951)" gradientUnits="userSpaceOnUse">
		<stop  offset="0" style="stop-color:#BFBDD1"/>
		<stop  offset="0.9829" style="stop-color:#8B72B0"/>
	</radialGradient>
	<polygon class="st3" points="67,50 66.7,48.9 66.2,51.6 52.6,51.3 53.4,51.7 66.5,51.9 	"/>
	<polygon class="st4" points="61.6,51.8 61.2,51.5 61.6,49 52.9,49.2 52.6,51.3 53.4,51.7 	"/>
	<polygon class="st5" points="61.6,49 61.9,49.5 61.6,51.8 61.2,51.5 	"/>
	<polygon class="st6" points="52.6,51.3 54.1,49.2 55,49.1 53.2,51.3 	"/>
	<polygon class="st6" points="55.2,51.3 56.8,49.1 58,49.1 55.7,51.4 	"/>
	<polygon class="st6" points="57.8,51.4 60,49 60.7,49.1 58.5,51.4 	"/>
	<polygon class="st6" points="61.4,50.3 60.2,51.5 60.9,51.5 61.3,51 	"/>
	
		<linearGradient id="SVGID_4_" gradientUnits="userSpaceOnUse" x1="61.6833" y1="33.8722" x2="61.6833" y2="35.4227" gradientTransform="matrix(1 0 0 -1 0 83.3333)">
		<stop  offset="1.984140e-03" style="stop-color:#E03347"/>
		<stop  offset="1" style="stop-color:#FF6E27"/>
	</linearGradient>
	<polygon class="st7" points="60.8,47.9 61.4,49.5 62.5,47.9 	"/>
	<polygon class="st8" points="62.5,47.9 62.8,48.2 61.8,49.6 61.4,49.5 	"/>
	<polygon class="st9" points="68.7,48.5 70.8,48.8 70.4,51.8 68.2,51.8 	"/>
</g>
</svg>
