<?xml version="1.0" encoding="utf-8"?>
<!-- Generator: Adobe Illustrator 21.0.0, SVG Export Plug-In . SVG Version: 6.00 Build 0)  -->
<svg version="1.1" id="archivos" xmlns="http://www.w3.org/2000/svg" xmlns:xlink="http://www.w3.org/1999/xlink" x="0px" y="0px"
	 viewBox="0 0 129.1 79.7" style="enable-background:new 0 0 129.1 79.7;" xml:space="preserve">
<style type="text/css">
	.st0{opacity:0.57;fill:#230548;enable-background:new    ;}
	.st1{fill:url(#SVGID_1_);}
	.st2{fill:url(#SVGID_2_);}
	.st3{fill:#FFFFFF;}
	.st4{fill:#754598;}
	.st5{opacity:0.27;}
	.st6{fill:#3D3182;}
	.st7{fill:#7A72A9;}
</style>
<g>
	<polygon class="st0" points="78.9,30.8 96.8,29.8 94.8,45.8 76.4,45.8 	"/>
	
		<radialGradient id="SVGID_1_" cx="82.5894" cy="2658.239" r="9.1598" gradientTransform="matrix(1 0 0 0.7705 0 -2015.3202)" gradientUnits="userSpaceOnUse">
		<stop  offset="0" style="stop-color:#FCFCFD"/>
		<stop  offset="0.9829" style="stop-color:#D4CDE9"/>
	</radialGradient>
	<polygon class="st1" points="74.4,28.8 92.3,27.8 90.3,43.5 71.9,43.9 	"/>
	
		<radialGradient id="SVGID_2_" cx="83.3232" cy="145.8594" r="6.4837" gradientTransform="matrix(1 0 0 1 0 -116.6667)" gradientUnits="userSpaceOnUse">
		<stop  offset="0" style="stop-color:#2478FE"/>
		<stop  offset="0.9944" style="stop-color:#804AD6"/>
	</radialGradient>
	<polygon class="st2" points="74.4,28.8 74.2,30.5 92.1,29.5 92.3,27.8 	"/>
	<g>
		<polygon class="st3" points="90.3,28.5 90.5,28.3 91.4,29 91.3,29.3 		"/>
		<polygon class="st3" points="91.3,28.3 91.5,28.3 90.2,29.3 90.1,29.3 		"/>
	</g>
	<polygon class="st4" points="92.3,27.8 92.6,28.3 90.4,43.7 72,43.9 71.9,43.9 90.3,43.5 	"/>
</g>
<g class="st5">
	<polygon class="st6" points="89.2,31.7 74.5,32.3 74.6,31.8 89.3,31 	"/>
	<polygon class="st7" points="85.4,36.7 73.8,37 73.8,36.5 85.5,36 	"/>
	<polygon class="st7" points="84,32.9 76.8,33.2 76.8,32.5 84.1,32.3 	"/>
	<polygon class="st7" points="85.7,32.9 84.6,32.9 84.7,32.3 85.8,32.3 	"/>
	<polygon class="st7" points="89.8,33.5 88.9,33.5 89,33 89.9,33 	"/>
	<polygon class="st7" points="89.7,34.4 88.6,34.5 88.7,34 89.8,33.8 	"/>
	<polygon class="st7" points="88.3,33.5 76.6,34 76.7,33.5 88.4,33 	"/>
	<polygon class="st7" points="88.1,34.5 76.5,34.9 76.6,34.4 88.2,34 	"/>
	<polygon class="st7" points="86.6,35.5 85.5,35.5 85.6,35 86.7,34.9 	"/>
	<polygon class="st7" points="90.7,31.5 89.7,31.7 89.8,31 90.8,31 	"/>
	<polygon class="st7" points="86.9,36.5 85.9,36.7 86,36 87,36 	"/>
	<polygon class="st6" points="88.2,37.5 73.5,37.9 73.6,37.3 88.3,36.8 	"/>
	<polygon class="st7" points="89.7,37.3 88.6,37.3 88.7,36.8 89.8,36.8 	"/>
	<polygon class="st6" points="85.1,35.5 76.3,35.9 76.4,35.4 85.2,35 	"/>
	<polygon class="st7" points="83.1,38.5 75.8,38.8 75.9,38.2 83.2,38 	"/>
	<polygon class="st7" points="84.7,38.5 83.6,38.5 83.7,38 84.8,37.9 	"/>
	<polygon class="st7" points="88.9,39.3 87.9,39.3 87.9,38.8 89,38.8 	"/>
	<polygon class="st7" points="88.7,40.2 87.6,40.2 87.8,39.5 88.9,39.5 	"/>
	<polygon class="st7" points="87.2,39.3 75.7,39.5 75.8,39 87.3,38.8 	"/>
	<polygon class="st7" points="87.1,40.2 75.5,40.4 75.6,39.9 87.2,39.5 	"/>
	<polygon class="st7" points="85.6,41.2 84.5,41.3 84.6,40.5 85.7,40.5 	"/>
	<polygon class="st7" points="84.1,41.3 75.4,41.4 75.5,40.8 84.3,40.7 	"/>
</g>
</svg>
