<?xml version="1.0" encoding="utf-8"?>
<!-- Generator: Adobe Illustrator 21.0.0, SVG Export Plug-In . SVG Version: 6.00 Build 0)  -->
<svg version="1.1" id="codigo" xmlns="http://www.w3.org/2000/svg" xmlns:xlink="http://www.w3.org/1999/xlink" x="0px" y="0px"
	 viewBox="0 0 129.1 79.7" style="enable-background:new 0 0 129.1 79.7;" xml:space="preserve">
<style type="text/css">
	.st0{opacity:0.57;fill:#230548;enable-background:new    ;}
	.st1{fill:url(#SVGID_1_);}
	.st2{fill:#754598;}
	.st3{fill:url(#SVGID_2_);}
	.st4{fill:#FFFFFF;}
	.st5{fill:url(#SVGID_3_);}
	.st6{fill:#7A72A9;}
</style>
<g>
	<g>
		<polygon class="st0" points="67.3,13.8 81.9,12.6 80.9,18.7 66.3,19.5 		"/>
		
			<radialGradient id="SVGID_1_" cx="56.2815" cy="-2399.283" r="6.911" gradientTransform="matrix(0.9606 -5.321761e-02 -4.199467e-02 -0.7226 -83.6483 -1719.876)" gradientUnits="userSpaceOnUse">
			<stop  offset="0" style="stop-color:#FCFCFD"/>
			<stop  offset="0.9829" style="stop-color:#D4CDE9"/>
		</radialGradient>
		<polygon class="st1" points="64.5,8.9 79,7.4 77.5,17.2 62.9,18.3 		"/>
		<polygon class="st2" points="79,7.4 79.2,7.6 77.6,17.3 63,18.4 62.9,18.3 77.5,17.2 		"/>
		
			<radialGradient id="SVGID_2_" cx="71.0344" cy="68.7382" r="4.5226" gradientTransform="matrix(0.9621 0 0 -0.9394 2.5774 76.6222)" gradientUnits="userSpaceOnUse">
			<stop  offset="0" style="stop-color:#2478FE"/>
			<stop  offset="0.9944" style="stop-color:#804AD6"/>
		</radialGradient>
		<polygon class="st3" points="66.7,9.6 65.7,15.3 75.2,14.7 76.1,8.8 		"/>
		<polygon class="st4" points="70.5,11 70.1,13.3 71.6,11.9 		"/>
		<polygon class="st0" points="65.6,16.3 65.5,16.7 74.9,16 75,15.6 		"/>
		<polygon class="st4" points="65.6,16.3 65.6,16.6 69.5,16.3 69.5,16 		"/>
		<ellipse transform="matrix(0.1382 -0.9904 0.9904 0.1382 43.9903 82.8202)" class="st4" cx="69.6" cy="16.1" rx="0.4" ry="0.3"/>
	</g>
	<g>
		<g>
			
				<radialGradient id="SVGID_3_" cx="44.5791" cy="-2395.0396" r="2.705" gradientTransform="matrix(0.9606 -5.321761e-02 -4.199467e-02 -0.7226 -83.6483 -1719.876)" gradientUnits="userSpaceOnUse">
				<stop  offset="0" style="stop-color:#FCFCFD"/>
				<stop  offset="0.9829" style="stop-color:#D4CDE9"/>
			</radialGradient>
			<polygon class="st5" points="57.1,7.6 62.9,7.1 62.2,10.9 56.5,11.3 			"/>
			<polygon class="st2" points="62.9,7.1 63.1,7.5 62.6,11.2 57,11.5 56.5,11.3 62.2,10.9 			"/>
		</g>
		<g>
			<g>
				<polygon class="st6" points="58.9,8 57.7,9.4 58.8,10.7 58.8,10 58,9.4 58.8,8.7 				"/>
				<polygon class="st6" points="60.4,7.8 61.3,9 60,10.5 60,9.8 60.9,9.1 60.4,8.5 				"/>
				<polygon class="st6" points="58.8,10.7 60.1,7.8 60.4,7.8 59.1,10.6 				"/>
			</g>
		</g>
	</g>
</g>
</svg>
