<?xml version="1.0" encoding="utf-8"?>
<!-- Generator: Adobe Illustrator 21.0.0, SVG Export Plug-In . SVG Version: 6.00 Build 0)  -->
<svg version="1.1" id="tuerca_2" xmlns="http://www.w3.org/2000/svg" xmlns:xlink="http://www.w3.org/1999/xlink" x="0px" y="0px"
	 viewBox="0 0 129.1 79.7" style="enable-background:new 0 0 129.1 79.7;" xml:space="preserve">
<style type="text/css">
	.st0{fill:#34146D;}
	.st1{fill:url(#SVGID_1_);}
	.st2{fill:#664E98;}
	.st3{fill:#3E207C;}
	.st4{fill:url(#SVGID_2_);}
	.st5{fill:url(#SVGID_3_);}
	.st6{fill:#E5E2FF;}
	.st7{fill:url(#SVGID_4_);}
	.st8{opacity:0.62;fill:url(#SVGID_5_);enable-background:new    ;}
	.st9{opacity:0.62;fill:url(#SVGID_6_);enable-background:new    ;}
	.st10{opacity:0.5;fill:url(#SVGID_7_);enable-background:new    ;}
	.st11{fill:#FFFFFF;}
</style>
<g>
	<g>
		<path class="st0" d="M126.7,29.5L126.7,29.5c0-0.1,0-0.2,0-0.4l0,0l0.7-1l-0.4-0.7l-0.4-0.7l-1,0.4l0,0c-0.1-0.1-0.2-0.1-0.3-0.2
			l0,0l-0.1-1.2l-0.7-0.1l-0.7-0.1l-0.5,1.1l0,0c-0.1,0-0.2,0.1-0.3,0.1l0,0l-0.7-0.7l-0.6,0.5l-0.6,0.5l-0.9,1.7l-0.2,0.9l-0.2,0.9
			l0.5,0.3L120,31c0,0.1,0.2,0.6,0.2,0.7l0.1,0.1l-0.4,0.6l0.4,0.7l0.4,0.7l1-0.4l0,0c0.1,0.1,0.2,0.1,0.3,0.2l0,0l0.1,1.2l0.7,0.1
			l0.7,0.1l0.5-1.1l0,0c0.1,0,0.2-0.1,0.3-0.1l0,0l0.7,0.7l0.6-0.5l0.6-0.5l-0.3-1.1l0,0c0.1-0.1,0.1-0.2,0.2-0.3l0,0l1-0.2l0.2-0.9
			l0.2-0.9L126.7,29.5z M123.2,32.2c-0.8-0.2-1.3-1.1-1.1-2.2c0.2-1,1-1.8,1.9-1.7c0.8,0.2,1.3,1.1,1.1,2.2S124,32.3,123.2,32.2z"/>
		
			<radialGradient id="SVGID_1_" cx="138.8943" cy="32.4212" r="4.6113" gradientTransform="matrix(0.9978 6.620000e-02 6.620000e-02 -0.9978 -16.944 50.8377)" gradientUnits="userSpaceOnUse">
			<stop  offset="0" style="stop-color:#2478FE"/>
			<stop  offset="0.9944" style="stop-color:#804AD6"/>
		</radialGradient>
		<path class="st1" d="M125.8,29.2L125.8,29.2c0-0.1,0-0.3-0.1-0.4l0,0l0.7-1l-0.4-0.7l-0.4-0.7l-1,0.4l0,0
			c-0.1-0.1-0.2-0.1-0.3-0.2l0,0l-0.1-1.2l-0.7-0.1l-0.7-0.1l-0.5,1.1l0,0c-0.1,0-0.2,0.1-0.3,0.1l0,0l-0.8-0.7l-0.6,0.6l-0.6,0.6
			l0.3,1.2l0,0c-0.1,0.1-0.1,0.2-0.2,0.3l0,0l-1,0.2l-0.2,0.9l-0.2,0.9l0.9,0.5l0,0c0,0.1,0,0.3,0.1,0.4l0,0l-0.7,1l0.4,0.7l0.4,0.7
			l1-0.4l0,0c0.1,0.1,0.2,0.1,0.3,0.2l0,0l0.1,1.2l0.7,0.1l0.7,0.1L123,34l0,0c0.1,0,0.2-0.1,0.3-0.1l0,0l0.8,0.7l0.6-0.6l0.6-0.6
			l-0.3-1.2l0,0c0.1-0.1,0.1-0.2,0.2-0.3l0,0l1-0.2l0.2-0.9l0.2-0.9L125.8,29.2z M122.2,32c-0.9-0.2-1.4-1.2-1.2-2.4
			c0.2-1.1,1.1-2,2.1-1.8c0.9,0.2,1.4,1.2,1.2,2.4C124,31.5,123.1,32.2,122.2,32z"/>
		<polygon class="st2" points="125.7,26.2 126.5,26.7 127.3,28.2 126.5,27.8 		"/>
		<polygon class="st3" points="125.8,28.8 126.6,29.2 127.3,28.2 126.5,27.8 		"/>
		<polygon class="st3" points="127.2,31.9 126.4,31.7 125.2,31.9 125.1,32.2 126,32.4 126.2,32.1 		"/>
		<polygon class="st3" points="125.8,28.8 125.8,29.2 126.7,29.5 126.6,29.2 		"/>
		<polygon class="st2" points="126.3,33.7 125.4,33.5 125.1,32.2 126,32.4 		"/>
		<polygon class="st3" points="124.9,34.7 124,34.6 125.4,33.5 126.3,33.7 		"/>
		<polygon class="st3" points="123.4,35.2 122.4,35.1 123,33.9 123.8,34.4 		"/>
		<polygon class="st3" points="120.8,33.8 120.6,33.9 119.6,33.8 120.5,33.4 120.8,33.6 		"/>
		<polygon class="st2" points="121.1,25.4 122.4,25.8 122.3,26.1 121.9,26.2 		"/>
		<polygon class="st3" points="124.3,25.2 125.1,25.7 125.2,26.4 124.6,26.7 124.3,26.4 		"/>
	</g>
	<g>
		
			<linearGradient id="SVGID_2_" gradientUnits="userSpaceOnUse" x1="-212.7847" y1="203.6652" x2="-212.7847" y2="222.4948" gradientTransform="matrix(0.7094 -0.7048 -0.7048 -0.7094 416.5142 35.6692)">
			<stop  offset="0" style="stop-color:#DBCCFF"/>
			<stop  offset="1" style="stop-color:#D1BBFF"/>
		</linearGradient>
		<path class="st4" d="M113.7,27.8c-1.5-1.3-3.4-1.3-3.4-1.3l-0.5,0.5l2.2,2c0.1,1-0.3,1.8-0.3,1.8l0,0c0,0-0.7,0.4-1.8,0.3
			l-1.9-2.2l-0.5,0.5c0,0,0.1,2,1.3,3.5c0,0,0.4,0.5,0.5,0.5c0.3,0.2,1,0.3,2.2-0.2l6.8,6.2c-0.1,0.7,0.1,1.4,0.6,2
			c0.8,0.9,2.3,0.9,3.2,0c0.9-0.8,0.9-2.3,0-3.2c-0.5-0.5-1.2-0.7-2-0.6l-6.2-6.8c0.5-1.1,0.4-1.9,0.2-2.2
			C114.1,28.2,113.7,27.8,113.7,27.8z M121.7,39.9l-0.9,0.9l-1.2-0.3l-0.3-1.2l0.9-0.9l1.2,0.3L121.7,39.9z"/>
		
			<linearGradient id="SVGID_3_" gradientUnits="userSpaceOnUse" x1="-212.7669" y1="202.9307" x2="-212.7669" y2="221.7602" gradientTransform="matrix(0.7094 -0.7048 -0.7048 -0.7094 416.5142 35.6692)">
			<stop  offset="0" style="stop-color:#9590E1"/>
			<stop  offset="1" style="stop-color:#7760AC"/>
		</linearGradient>
		<path class="st5" d="M114.2,28.3c-1.5-1.3-3.4-1.3-3.4-1.3l-0.5,0.5l2.2,2c0.1,1-0.3,1.8-0.3,1.8l0,0c0,0-0.7,0.4-1.8,0.3
			l-1.9-2.2l-0.5,0.5c0,0,0.1,2,1.3,3.5c0,0,1.3,0.9,2.7,0.3l6.8,6.2c-0.1,0.7,0.1,1.4,0.6,2c0.8,0.9,2.3,0.9,3.2,0
			c0.9-0.8,0.9-2.3,0-3.2c-0.5-0.5-1.2-0.7-2-0.6l-6.2-6.8C115,29.6,114.2,28.3,114.2,28.3z M122.3,40.4l-0.9,0.9l-1.2-0.3l-0.3-1.2
			l0.9-0.9l1.2,0.3L122.3,40.4z"/>
		
			<rect x="107.6" y="28.7" transform="matrix(0.7094 -0.7048 0.7048 0.7094 10.8687 84.5317)" class="st6" width="0.7" height="0.7"/>
		
			<rect x="109.9" y="26.5" transform="matrix(0.7094 -0.7048 0.7048 0.7094 13.0906 85.4988)" class="st6" width="0.7" height="0.7"/>
		<rect x="120.9" y="40.2" transform="matrix(0.7094 -0.7048 0.7048 0.7094 6.7522 97.438)" class="st6" width="1.2" height="0.7"/>
		<g>
			
				<linearGradient id="SVGID_4_" gradientUnits="userSpaceOnUse" x1="-212.6844" y1="207.612" x2="-212.6844" y2="215.5489" gradientTransform="matrix(0.7094 -0.7048 -0.7048 -0.7094 416.5142 35.6692)">
				<stop  offset="0" style="stop-color:#B5A6E7"/>
				<stop  offset="1" style="stop-color:#7760BF"/>
			</linearGradient>
			<path class="st7" d="M113.1,33.7l5.5,5.1c0.8-0.3,1.1-1.1,1.1-1.1l-5-5.6C113.5,32.4,113.1,33.7,113.1,33.7z M119.5,37.8
				c-0.1,0.1-0.2,0.3-0.3,0.4c-0.1,0.1-0.2,0.2-0.4,0.3l-5.5-5c0.1-0.2,0.3-0.5,0.6-0.8c0.2-0.2,0.4-0.4,0.7-0.5L119.5,37.8z"/>
			<path class="st6" d="M119.5,37.8l0.2-0.1c0,0-0.1,0.8-1.1,1.1l0.1-0.2C118.7,38.5,119.2,38.3,119.5,37.8z"/>
			
				<linearGradient id="SVGID_5_" gradientUnits="userSpaceOnUse" x1="-213.8006" y1="215.3772" x2="-211.5479" y2="215.3772" gradientTransform="matrix(0.7094 -0.7048 -0.7048 -0.7094 416.5142 35.6692)">
				<stop  offset="0" style="stop-color:#8B8BE0"/>
				<stop  offset="1" style="stop-color:#A177B7"/>
			</linearGradient>
			<path class="st8" d="M113.1,33.7l0.2-0.1c0,0,0.3-0.8,1.3-1.3l0.1-0.2c0,0-0.4,0.1-0.9,0.6C113.2,33.1,113.1,33.7,113.1,33.7z"/>
		</g>
		
			<linearGradient id="SVGID_6_" gradientUnits="userSpaceOnUse" x1="-212.6856" y1="214.8672" x2="-212.6856" y2="216.2309" gradientTransform="matrix(0.7094 -0.7048 -0.7048 -0.7094 416.5142 35.6692)">
			<stop  offset="0" style="stop-color:#FFFFFF"/>
			<stop  offset="1" style="stop-color:#A177B7"/>
		</linearGradient>
		<path class="st9" d="M112,33.4c0,0,1.4-0.8,2.4-2.4l0.8,0.8c0,0-0.6-0.3-1.5,0.5c-1,0.9-0.6,2-0.6,2L112,33.4z"/>
		
			<linearGradient id="SVGID_7_" gradientUnits="userSpaceOnUse" x1="-211.4657" y1="206.8017" x2="-211.4657" y2="215.5515" gradientTransform="matrix(0.7094 -0.7048 -0.7048 -0.7094 416.5142 35.6692)">
			<stop  offset="0" style="stop-color:#000000"/>
			<stop  offset="1" style="stop-color:#FFFFFF"/>
		</linearGradient>
		<path class="st10" d="M115.2,31.8c-0.4-0.1-0.7,0-0.7,0l5.9,6.5l0.2-0.5L115.2,31.8z"/>
		<path class="st11" d="M115.2,31.8c0,0,0,1.1,1.1,1.2L115.2,31.8z"/>
	</g>
</g>
</svg>
