<?xml version="1.0" encoding="utf-8"?>
<!-- Generator: Adobe Illustrator 21.0.0, SVG Export Plug-In . SVG Version: 6.00 Build 0)  -->
<svg version="1.1" id="lupa" xmlns="http://www.w3.org/2000/svg" xmlns:xlink="http://www.w3.org/1999/xlink" x="0px" y="0px"
	 viewBox="0 0 129.1 79.7" style="enable-background:new 0 0 129.1 79.7;" xml:space="preserve">
<style type="text/css">
	.st0{clip-path:url(#SVGID_2_);fill:#9A2143;}
	.st1{clip-path:url(#SVGID_4_);fill:#9A2143;}
	.st2{clip-path:url(#SVGID_6_);fill:#9B2143;}
	.st3{clip-path:url(#SVGID_8_);fill:#9C2242;}
	.st4{clip-path:url(#SVGID_10_);fill:#9D2242;}
	.st5{clip-path:url(#SVGID_12_);fill:#9E2342;}
	.st6{clip-path:url(#SVGID_14_);fill:#9F2342;}
	.st7{clip-path:url(#SVGID_16_);fill:#A02441;}
	.st8{clip-path:url(#SVGID_18_);fill:#A12441;}
	.st9{clip-path:url(#SVGID_20_);fill:#A22541;}
	.st10{clip-path:url(#SVGID_22_);fill:#A32541;}
	.st11{clip-path:url(#SVGID_24_);fill:#A42640;}
	.st12{clip-path:url(#SVGID_26_);fill:#A52640;}
	.st13{clip-path:url(#SVGID_28_);fill:#A62640;}
	.st14{clip-path:url(#SVGID_30_);fill:#A72740;}
	.st15{clip-path:url(#SVGID_32_);fill:#A8273F;}
	.st16{clip-path:url(#SVGID_34_);fill:#A9283F;}
	.st17{clip-path:url(#SVGID_36_);fill:#AA283F;}
	.st18{clip-path:url(#SVGID_38_);fill:#AB293F;}
	.st19{clip-path:url(#SVGID_40_);fill:#AC293E;}
	.st20{clip-path:url(#SVGID_42_);fill:#AD2A3E;}
	.st21{clip-path:url(#SVGID_44_);fill:#AE2A3E;}
	.st22{clip-path:url(#SVGID_46_);fill:#AF2B3E;}
	.st23{clip-path:url(#SVGID_48_);fill:#B02B3D;}
	.st24{clip-path:url(#SVGID_50_);fill:#B12C3D;}
	.st25{clip-path:url(#SVGID_52_);fill:#B22C3D;}
	.st26{clip-path:url(#SVGID_54_);fill:#B32C3D;}
	.st27{clip-path:url(#SVGID_56_);fill:#B42D3C;}
	.st28{clip-path:url(#SVGID_58_);fill:#B52D3C;}
	.st29{clip-path:url(#SVGID_60_);fill:#B62E3C;}
	.st30{clip-path:url(#SVGID_62_);fill:#B72E3C;}
	.st31{clip-path:url(#SVGID_64_);fill:#B82F3B;}
	.st32{clip-path:url(#SVGID_66_);fill:#B92F3B;}
	.st33{clip-path:url(#SVGID_68_);fill:#BA303B;}
	.st34{clip-path:url(#SVGID_70_);fill:#BB303B;}
	.st35{clip-path:url(#SVGID_72_);fill:#BC313A;}
	.st36{clip-path:url(#SVGID_74_);fill:#BD313A;}
	.st37{clip-path:url(#SVGID_76_);fill:#BE313A;}
	.st38{clip-path:url(#SVGID_78_);fill:#BF323A;}
	.st39{clip-path:url(#SVGID_80_);fill:#C03239;}
	.st40{clip-path:url(#SVGID_82_);fill:#C13339;}
	.st41{clip-path:url(#SVGID_84_);fill:#C23339;}
	.st42{clip-path:url(#SVGID_86_);fill:#C33439;}
	.st43{clip-path:url(#SVGID_88_);fill:#C43438;}
	.st44{clip-path:url(#SVGID_90_);fill:#C53538;}
	.st45{clip-path:url(#SVGID_92_);fill:#C63538;}
	.st46{clip-path:url(#SVGID_94_);fill:#C73638;}
	.st47{clip-path:url(#SVGID_96_);fill:#C93637;}
	.st48{clip-path:url(#SVGID_98_);fill:#CA3637;}
	.st49{clip-path:url(#SVGID_100_);fill:#CB3737;}
	.st50{clip-path:url(#SVGID_102_);fill:#CC3737;}
	.st51{clip-path:url(#SVGID_104_);fill:#CD3836;}
	.st52{clip-path:url(#SVGID_106_);fill:#CE3836;}
	.st53{clip-path:url(#SVGID_108_);fill:#CF3936;}
	.st54{clip-path:url(#SVGID_110_);fill:#D03936;}
	.st55{clip-path:url(#SVGID_112_);fill:#D13A35;}
	.st56{clip-path:url(#SVGID_114_);fill:#D23A35;}
	.st57{clip-path:url(#SVGID_116_);fill:#D33B35;}
	.st58{clip-path:url(#SVGID_118_);fill:#D43B35;}
	.st59{clip-path:url(#SVGID_120_);fill:#D53B34;}
	.st60{clip-path:url(#SVGID_122_);fill:#D63C34;}
	.st61{clip-path:url(#SVGID_124_);fill:#D73C34;}
	.st62{clip-path:url(#SVGID_126_);fill:#D83D34;}
	.st63{clip-path:url(#SVGID_128_);fill:#D93D33;}
	.st64{clip-path:url(#SVGID_130_);fill:#DA3E33;}
	.st65{clip-path:url(#SVGID_132_);fill:#DB3E33;}
	.st66{clip-path:url(#SVGID_134_);fill:#DC3F33;}
	.st67{clip-path:url(#SVGID_136_);fill:#DD3F32;}
	.st68{clip-path:url(#SVGID_138_);fill:#DE4032;}
	.st69{clip-path:url(#SVGID_140_);fill:#DF4032;}
	.st70{clip-path:url(#SVGID_142_);fill:#E04132;}
	.st71{clip-path:url(#SVGID_144_);fill:#E14131;}
	.st72{clip-path:url(#SVGID_146_);fill:#E24131;}
	.st73{clip-path:url(#SVGID_148_);fill:#E34231;}
	.st74{clip-path:url(#SVGID_150_);fill:#E44231;}
	.st75{clip-path:url(#SVGID_152_);fill:#E54330;}
	.st76{clip-path:url(#SVGID_154_);fill:#E64330;}
	.st77{clip-path:url(#SVGID_156_);fill:#E74430;}
	.st78{clip-path:url(#SVGID_158_);fill:#E84430;}
	.st79{clip-path:url(#SVGID_160_);fill:#E9452F;}
	.st80{clip-path:url(#SVGID_162_);fill:#EA452F;}
	.st81{clip-path:url(#SVGID_164_);fill:#EB462F;}
	.st82{clip-path:url(#SVGID_166_);fill:#EC462F;}
	.st83{clip-path:url(#SVGID_168_);fill:#ED462E;}
	.st84{clip-path:url(#SVGID_170_);fill:#EE472E;}
	.st85{clip-path:url(#SVGID_172_);fill:#EF472E;}
	.st86{clip-path:url(#SVGID_174_);fill:#F0482E;}
	.st87{clip-path:url(#SVGID_176_);fill:#F1482D;}
	.st88{clip-path:url(#SVGID_178_);fill:#F2492D;}
	.st89{clip-path:url(#SVGID_180_);fill:#F3492D;}
	.st90{clip-path:url(#SVGID_182_);fill:#F44A2D;}
	.st91{clip-path:url(#SVGID_184_);fill:#F54A2C;}
	.st92{clip-path:url(#SVGID_186_);fill:#F64B2C;}
	.st93{clip-path:url(#SVGID_188_);fill:#F74B2C;}
	.st94{fill:url(#SVGID_189_);}
	.st95{fill:url(#SVGID_190_);}
	.st96{fill:url(#SVGID_191_);}
	.st97{fill:url(#SVGID_192_);}
	.st98{fill:url(#SVGID_193_);}
	.st99{opacity:0.75;fill:url(#SVGID_194_);enable-background:new    ;}
	.st100{fill:url(#SVGID_195_);}
	.st101{opacity:0.39;fill:#FFD8C9;enable-background:new    ;}
	.st102{fill:#FFFFFF;}
	.st103{opacity:0.2;fill:#FFFFFF;}
</style>
<g>
	<g>
		<g>
			<g>
				<defs>
					<path id="SVGID_1_" d="M40.4,39.4c0,0-1-0.3-1.6,0.2c-0.6,0.5-7.2,7.1-8.3,7.1c-1,0.1-1.7-0.8-1.8-1l0,0c0,0-0.6-1.1-0.2-2
						c0.2-0.6,3.8-2.5,6.4-3.8l0,0c1.5-0.8,2.8-1.4,3.1-1.6c0.6-0.4,0.8-1.5,0.8-1.5l0.8,1.4L40.4,39.4z"/>
				</defs>
				<clipPath id="SVGID_2_">
					<use xlink:href="#SVGID_1_"  style="overflow:visible;"/>
				</clipPath>
				<rect x="27.9" y="36.8" class="st0" width="12.4" height="9.9"/>
			</g>
			<g>
				<defs>
					<path id="SVGID_3_" d="M38.4,36c0,0-1,0.2-1.3,1s-2.9,9.7-3.8,10.2c-0.8,0.6-1.9,0.2-2.1,0l0,0c0,0-1.1-0.6-1.2-1.7
						c-0.1-0.7,2.1-4,3.7-6.4l0,0c1-1.4,1.8-2.6,2-2.9c0.4-0.7-0.1-1.7-0.1-1.7l1.3,0.9L38.4,36z"/>
				</defs>
				<clipPath id="SVGID_4_">
					<use xlink:href="#SVGID_3_"  style="overflow:visible;"/>
				</clipPath>
				
					<ellipse transform="matrix(0.8748 -0.4845 0.4845 0.8748 -16.078 21.0903)" class="st1" cx="32.8" cy="41.7" rx="5.6" ry="2.6"/>
			</g>
			<g>
				<defs>
					<path id="SVGID_5_" d="M38.4,36c0,0-1,0.2-1.3,1c-0.3,0.8-2.9,9.7-3.8,10.2c-0.8,0.6-1.9,0.2-2.1,0l0,0c0,0-1.1-0.6-1.2-1.7
						c-0.1-0.7,2.1-4,3.7-6.4l0,0c1-1.4,1.8-2.6,2-2.9c0.4-0.7-0.1-1.7-0.1-1.7l1.3,0.9L38.4,36z"/>
				</defs>
				<clipPath id="SVGID_6_">
					<use xlink:href="#SVGID_5_"  style="overflow:visible;"/>
				</clipPath>
				
					<ellipse transform="matrix(0.8748 -0.4844 0.4844 0.8748 -16.0793 21.0844)" class="st2" cx="32.8" cy="41.7" rx="5.5" ry="2.6"/>
			</g>
			<g>
				<defs>
					<path id="SVGID_7_" d="M38.4,36c0,0-1,0.2-1.3,1c-0.3,0.8-2.9,9.7-3.8,10.2c-0.8,0.6-1.9,0.2-2.1,0l0,0c0,0-1.1-0.6-1.2-1.7
						c-0.1-0.7,2.1-4,3.7-6.4l0,0c1-1.4,1.8-2.6,2-2.9c0.4-0.7-0.1-1.7-0.1-1.7l1.3,0.9L38.4,36z"/>
				</defs>
				<clipPath id="SVGID_8_">
					<use xlink:href="#SVGID_7_"  style="overflow:visible;"/>
				</clipPath>
				
					<ellipse transform="matrix(0.8748 -0.4844 0.4844 0.8748 -16.0792 21.0845)" class="st3" cx="32.8" cy="41.7" rx="5.5" ry="2.5"/>
			</g>
			<g>
				<defs>
					<path id="SVGID_9_" d="M38.4,36c0,0-1,0.2-1.3,1c-0.3,0.8-2.9,9.7-3.8,10.2c-0.8,0.6-1.9,0.2-2.1,0l0,0c0,0-1.1-0.6-1.2-1.7
						c-0.1-0.7,2.1-4,3.7-6.4l0,0c1-1.4,1.8-2.6,2-2.9c0.4-0.7-0.1-1.7-0.1-1.7l1.3,0.9L38.4,36z"/>
				</defs>
				<clipPath id="SVGID_10_">
					<use xlink:href="#SVGID_9_"  style="overflow:visible;"/>
				</clipPath>
				
					<ellipse transform="matrix(0.8748 -0.4844 0.4844 0.8748 -16.0792 21.0845)" class="st4" cx="32.8" cy="41.7" rx="5.4" ry="2.5"/>
			</g>
			<g>
				<defs>
					<path id="SVGID_11_" d="M38.4,36c0,0-1,0.2-1.3,1c-0.3,0.8-2.9,9.7-3.8,10.2c-0.8,0.6-1.9,0.2-2.1,0l0,0c0,0-1.1-0.6-1.2-1.7
						c-0.1-0.7,2.1-4,3.7-6.4l0,0c1-1.4,1.8-2.6,2-2.9c0.4-0.7-0.1-1.7-0.1-1.7l1.3,0.9L38.4,36z"/>
				</defs>
				<clipPath id="SVGID_12_">
					<use xlink:href="#SVGID_11_"  style="overflow:visible;"/>
				</clipPath>
				
					<ellipse transform="matrix(0.8748 -0.4845 0.4845 0.8748 -16.078 21.0903)" class="st5" cx="32.8" cy="41.7" rx="5.4" ry="2.5"/>
			</g>
			<g>
				<defs>
					<path id="SVGID_13_" d="M38.4,36c0,0-1,0.2-1.3,1c-0.3,0.8-2.9,9.7-3.8,10.2c-0.8,0.6-1.9,0.2-2.1,0l0,0c0,0-1.1-0.6-1.2-1.7
						c-0.1-0.7,2.1-4,3.7-6.4l0,0c1-1.4,1.8-2.6,2-2.9c0.4-0.7-0.1-1.7-0.1-1.7l1.3,0.9L38.4,36z"/>
				</defs>
				<clipPath id="SVGID_14_">
					<use xlink:href="#SVGID_13_"  style="overflow:visible;"/>
				</clipPath>
				
					<ellipse transform="matrix(0.8748 -0.4844 0.4844 0.8748 -16.0793 21.0844)" class="st6" cx="32.8" cy="41.7" rx="5.3" ry="2.5"/>
			</g>
			<g>
				<defs>
					<path id="SVGID_15_" d="M38.4,36c0,0-1,0.2-1.3,1c-0.3,0.8-2.9,9.7-3.8,10.2c-0.8,0.6-1.9,0.2-2.1,0l0,0c0,0-1.1-0.6-1.2-1.7
						c-0.1-0.7,2.1-4,3.7-6.4l0,0c1-1.4,1.8-2.6,2-2.9c0.4-0.7-0.1-1.7-0.1-1.7l1.3,0.9L38.4,36z"/>
				</defs>
				<clipPath id="SVGID_16_">
					<use xlink:href="#SVGID_15_"  style="overflow:visible;"/>
				</clipPath>
				
					<ellipse transform="matrix(0.8748 -0.4844 0.4844 0.8748 -16.0792 21.0845)" class="st7" cx="32.8" cy="41.7" rx="5.2" ry="2.4"/>
			</g>
			<g>
				<defs>
					<path id="SVGID_17_" d="M38.4,36c0,0-1,0.2-1.3,1s-2.9,9.7-3.8,10.2c-0.8,0.6-1.9,0.2-2.1,0l0,0c0,0-1.1-0.6-1.2-1.7
						c-0.1-0.7,2.1-4,3.7-6.4l0,0c1-1.4,1.8-2.6,2-2.9c0.4-0.7-0.1-1.7-0.1-1.7l1.3,0.9L38.4,36z"/>
				</defs>
				<clipPath id="SVGID_18_">
					<use xlink:href="#SVGID_17_"  style="overflow:visible;"/>
				</clipPath>
				
					<ellipse transform="matrix(0.8748 -0.4845 0.4845 0.8748 -16.078 21.0903)" class="st8" cx="32.8" cy="41.7" rx="5.2" ry="2.4"/>
			</g>
			<g>
				<defs>
					<path id="SVGID_19_" d="M38.4,36c0,0-1,0.2-1.3,1c-0.3,0.8-2.9,9.7-3.8,10.2c-0.8,0.6-1.9,0.2-2.1,0l0,0c0,0-1.1-0.6-1.2-1.7
						c-0.1-0.7,2.1-4,3.7-6.4l0,0c1-1.4,1.8-2.6,2-2.9c0.4-0.7-0.1-1.7-0.1-1.7l1.3,0.9L38.4,36z"/>
				</defs>
				<clipPath id="SVGID_20_">
					<use xlink:href="#SVGID_19_"  style="overflow:visible;"/>
				</clipPath>
				
					<ellipse transform="matrix(0.8748 -0.4844 0.4844 0.8748 -16.0793 21.0844)" class="st9" cx="32.8" cy="41.7" rx="5.1" ry="2.4"/>
			</g>
			<g>
				<defs>
					<path id="SVGID_21_" d="M38.4,36c0,0-1,0.2-1.3,1c-0.3,0.8-2.9,9.7-3.8,10.2c-0.8,0.6-1.9,0.2-2.1,0l0,0c0,0-1.1-0.6-1.2-1.7
						c-0.1-0.7,2.1-4,3.7-6.4l0,0c1-1.4,1.8-2.6,2-2.9c0.4-0.7-0.1-1.7-0.1-1.7l1.3,0.9L38.4,36z"/>
				</defs>
				<clipPath id="SVGID_22_">
					<use xlink:href="#SVGID_21_"  style="overflow:visible;"/>
				</clipPath>
				
					<ellipse transform="matrix(0.8748 -0.4844 0.4844 0.8748 -16.0793 21.0844)" class="st10" cx="32.8" cy="41.7" rx="5.1" ry="2.4"/>
			</g>
			<g>
				<defs>
					<path id="SVGID_23_" d="M38.4,36c0,0-1,0.2-1.3,1s-2.9,9.7-3.8,10.2c-0.8,0.6-1.9,0.2-2.1,0l0,0c0,0-1.1-0.6-1.2-1.7
						c-0.1-0.7,2.1-4,3.7-6.4l0,0c1-1.4,1.8-2.6,2-2.9c0.4-0.7-0.1-1.7-0.1-1.7l1.3,0.9L38.4,36z"/>
				</defs>
				<clipPath id="SVGID_24_">
					<use xlink:href="#SVGID_23_"  style="overflow:visible;"/>
				</clipPath>
				<ellipse transform="matrix(0.8748 -0.4845 0.4845 0.8748 -16.078 21.0903)" class="st11" cx="32.8" cy="41.7" rx="5" ry="2.3"/>
			</g>
			<g>
				<defs>
					<path id="SVGID_25_" d="M38.4,36c0,0-1,0.2-1.3,1c-0.3,0.8-2.9,9.7-3.8,10.2c-0.8,0.6-1.9,0.2-2.1,0l0,0c0,0-1.1-0.6-1.2-1.7
						c-0.1-0.7,2.1-4,3.7-6.4l0,0c1-1.4,1.8-2.6,2-2.9c0.4-0.7-0.1-1.7-0.1-1.7l1.3,0.9L38.4,36z"/>
				</defs>
				<clipPath id="SVGID_26_">
					<use xlink:href="#SVGID_25_"  style="overflow:visible;"/>
				</clipPath>
				<ellipse transform="matrix(0.8748 -0.4845 0.4845 0.8748 -16.078 21.0903)" class="st12" cx="32.8" cy="41.7" rx="5" ry="2.3"/>
			</g>
			<g>
				<defs>
					<path id="SVGID_27_" d="M38.4,36c0,0-1,0.2-1.3,1c-0.3,0.8-2.9,9.7-3.8,10.2c-0.8,0.6-1.9,0.2-2.1,0l0,0c0,0-1.1-0.6-1.2-1.7
						c-0.1-0.7,2.1-4,3.7-6.4l0,0c1-1.4,1.8-2.6,2-2.9c0.4-0.7-0.1-1.7-0.1-1.7l1.3,0.9L38.4,36z"/>
				</defs>
				<clipPath id="SVGID_28_">
					<use xlink:href="#SVGID_27_"  style="overflow:visible;"/>
				</clipPath>
				
					<ellipse transform="matrix(0.8748 -0.4844 0.4844 0.8748 -16.0793 21.0844)" class="st13" cx="32.8" cy="41.7" rx="4.8" ry="2.3"/>
			</g>
			<g>
				<defs>
					<path id="SVGID_29_" d="M38.4,36c0,0-1,0.2-1.3,1c-0.3,0.8-2.9,9.7-3.8,10.2c-0.8,0.6-1.9,0.2-2.1,0l0,0c0,0-1.1-0.6-1.2-1.7
						c-0.1-0.7,2.1-4,3.7-6.4l0,0c1-1.4,1.8-2.6,2-2.9c0.4-0.7-0.1-1.7-0.1-1.7l1.3,0.9L38.4,36z"/>
				</defs>
				<clipPath id="SVGID_30_">
					<use xlink:href="#SVGID_29_"  style="overflow:visible;"/>
				</clipPath>
				
					<ellipse transform="matrix(0.8748 -0.4844 0.4844 0.8748 -16.0792 21.0845)" class="st14" cx="32.8" cy="41.7" rx="4.8" ry="2.3"/>
			</g>
			<g>
				<defs>
					<path id="SVGID_31_" d="M38.4,36c0,0-1,0.2-1.3,1s-2.9,9.7-3.8,10.2c-0.8,0.6-1.9,0.2-2.1,0l0,0c0,0-1.1-0.6-1.2-1.7
						c-0.1-0.7,2.1-4,3.7-6.4l0,0c1-1.4,1.8-2.6,2-2.9c0.4-0.7-0.1-1.7-0.1-1.7l1.3,0.9L38.4,36z"/>
				</defs>
				<clipPath id="SVGID_32_">
					<use xlink:href="#SVGID_31_"  style="overflow:visible;"/>
				</clipPath>
				
					<ellipse transform="matrix(0.8748 -0.4845 0.4845 0.8748 -16.078 21.0903)" class="st15" cx="32.8" cy="41.7" rx="4.7" ry="2.2"/>
			</g>
			<g>
				<defs>
					<path id="SVGID_33_" d="M38.4,36c0,0-1,0.2-1.3,1c-0.3,0.8-2.9,9.7-3.8,10.2c-0.8,0.6-1.9,0.2-2.1,0l0,0c0,0-1.1-0.6-1.2-1.7
						c-0.1-0.7,2.1-4,3.7-6.4l0,0c1-1.4,1.8-2.6,2-2.9c0.4-0.7-0.1-1.7-0.1-1.7l1.3,0.9L38.4,36z"/>
				</defs>
				<clipPath id="SVGID_34_">
					<use xlink:href="#SVGID_33_"  style="overflow:visible;"/>
				</clipPath>
				
					<ellipse transform="matrix(0.8748 -0.4844 0.4844 0.8748 -16.0793 21.0844)" class="st16" cx="32.8" cy="41.7" rx="4.6" ry="2.2"/>
			</g>
			<g>
				<defs>
					<path id="SVGID_35_" d="M38.4,36c0,0-1,0.2-1.3,1c-0.3,0.8-2.9,9.7-3.8,10.2c-0.8,0.6-1.9,0.2-2.1,0l0,0c0,0-1.1-0.6-1.2-1.7
						c-0.1-0.7,2.1-4,3.7-6.4l0,0c1-1.4,1.8-2.6,2-2.9c0.4-0.7-0.1-1.7-0.1-1.7l1.3,0.9L38.4,36z"/>
				</defs>
				<clipPath id="SVGID_36_">
					<use xlink:href="#SVGID_35_"  style="overflow:visible;"/>
				</clipPath>
				
					<ellipse transform="matrix(0.8748 -0.4844 0.4844 0.8748 -16.0792 21.0845)" class="st17" cx="32.8" cy="41.7" rx="4.6" ry="2.2"/>
			</g>
			<g>
				<defs>
					<path id="SVGID_37_" d="M38.4,36c0,0-1,0.2-1.3,1s-2.9,9.7-3.8,10.2c-0.8,0.6-1.9,0.2-2.1,0l0,0c0,0-1.1-0.6-1.2-1.7
						c-0.1-0.7,2.1-4,3.7-6.4l0,0c1-1.4,1.8-2.6,2-2.9c0.4-0.7-0.1-1.7-0.1-1.7l1.3,0.9L38.4,36z"/>
				</defs>
				<clipPath id="SVGID_38_">
					<use xlink:href="#SVGID_37_"  style="overflow:visible;"/>
				</clipPath>
				<ellipse transform="matrix(0.8748 -0.4845 0.4845 0.8748 -16.078 21.0903)" class="st18" cx="32.8" cy="41.7" rx="4.5" ry="2"/>
			</g>
			<g>
				<defs>
					<path id="SVGID_39_" d="M38.4,36c0,0-1,0.2-1.3,1c-0.3,0.8-2.9,9.7-3.8,10.2c-0.8,0.6-1.9,0.2-2.1,0l0,0c0,0-1.1-0.6-1.2-1.7
						c-0.1-0.7,2.1-4,3.7-6.4l0,0c1-1.4,1.8-2.6,2-2.9c0.4-0.7-0.1-1.7-0.1-1.7l1.3,0.9L38.4,36z"/>
				</defs>
				<clipPath id="SVGID_40_">
					<use xlink:href="#SVGID_39_"  style="overflow:visible;"/>
				</clipPath>
				<ellipse transform="matrix(0.8748 -0.4845 0.4845 0.8748 -16.078 21.0903)" class="st19" cx="32.8" cy="41.7" rx="4.5" ry="2"/>
			</g>
			<g>
				<defs>
					<path id="SVGID_41_" d="M38.4,36c0,0-1,0.2-1.3,1c-0.3,0.8-2.9,9.7-3.8,10.2c-0.8,0.6-1.9,0.2-2.1,0l0,0c0,0-1.1-0.6-1.2-1.7
						c-0.1-0.7,2.1-4,3.7-6.4l0,0c1-1.4,1.8-2.6,2-2.9c0.4-0.7-0.1-1.7-0.1-1.7l1.3,0.9L38.4,36z"/>
				</defs>
				<clipPath id="SVGID_42_">
					<use xlink:href="#SVGID_41_"  style="overflow:visible;"/>
				</clipPath>
				
					<ellipse transform="matrix(0.8748 -0.4844 0.4844 0.8748 -16.0792 21.0845)" class="st20" cx="32.8" cy="41.7" rx="4.4" ry="2"/>
			</g>
			<g>
				<defs>
					<path id="SVGID_43_" d="M38.4,36c0,0-1,0.2-1.3,1c-0.3,0.8-2.9,9.7-3.8,10.2c-0.8,0.6-1.9,0.2-2.1,0l0,0c0,0-1.1-0.6-1.2-1.7
						c-0.1-0.7,2.1-4,3.7-6.4l0,0c1-1.4,1.8-2.6,2-2.9c0.4-0.7-0.1-1.7-0.1-1.7l1.3,0.9L38.4,36z"/>
				</defs>
				<clipPath id="SVGID_44_">
					<use xlink:href="#SVGID_43_"  style="overflow:visible;"/>
				</clipPath>
				
					<ellipse transform="matrix(0.8748 -0.4844 0.4844 0.8748 -16.0792 21.0845)" class="st21" cx="32.8" cy="41.7" rx="4.4" ry="2"/>
			</g>
			<g>
				<defs>
					<path id="SVGID_45_" d="M38.4,36c0,0-1,0.2-1.3,1s-2.9,9.7-3.8,10.2c-0.8,0.6-1.9,0.2-2.1,0l0,0c0,0-1.1-0.6-1.2-1.7
						c-0.1-0.7,2.1-4,3.7-6.4l0,0c1-1.4,1.8-2.6,2-2.9c0.4-0.7-0.1-1.7-0.1-1.7l1.3,0.9L38.4,36z"/>
				</defs>
				<clipPath id="SVGID_46_">
					<use xlink:href="#SVGID_45_"  style="overflow:visible;"/>
				</clipPath>
				
					<ellipse transform="matrix(0.8748 -0.4845 0.4845 0.8748 -16.078 21.0903)" class="st22" cx="32.8" cy="41.7" rx="4.3" ry="1.9"/>
			</g>
			<g>
				<defs>
					<path id="SVGID_47_" d="M38.4,36c0,0-1,0.2-1.3,1c-0.3,0.8-2.9,9.7-3.8,10.2c-0.8,0.6-1.9,0.2-2.1,0l0,0c0,0-1.1-0.6-1.2-1.7
						c-0.1-0.7,2.1-4,3.7-6.4l0,0c1-1.4,1.8-2.6,2-2.9c0.4-0.7-0.1-1.7-0.1-1.7l1.3,0.9L38.4,36z"/>
				</defs>
				<clipPath id="SVGID_48_">
					<use xlink:href="#SVGID_47_"  style="overflow:visible;"/>
				</clipPath>
				
					<ellipse transform="matrix(0.8748 -0.4844 0.4844 0.8748 -16.0792 21.0845)" class="st23" cx="32.8" cy="41.7" rx="4.3" ry="1.9"/>
			</g>
			<g>
				<defs>
					<path id="SVGID_49_" d="M38.4,36c0,0-1,0.2-1.3,1c-0.3,0.8-2.9,9.7-3.8,10.2c-0.8,0.6-1.9,0.2-2.1,0l0,0c0,0-1.1-0.6-1.2-1.7
						c-0.1-0.7,2.1-4,3.7-6.4l0,0c1-1.4,1.8-2.6,2-2.9c0.4-0.7-0.1-1.7-0.1-1.7l1.3,0.9L38.4,36z"/>
				</defs>
				<clipPath id="SVGID_50_">
					<use xlink:href="#SVGID_49_"  style="overflow:visible;"/>
				</clipPath>
				
					<ellipse transform="matrix(0.8748 -0.4844 0.4844 0.8748 -16.0792 21.0845)" class="st24" cx="32.8" cy="41.7" rx="4.2" ry="1.9"/>
			</g>
			<g>
				<defs>
					<path id="SVGID_51_" d="M38.4,36c0,0-1,0.2-1.3,1s-2.9,9.7-3.8,10.2c-0.8,0.6-1.9,0.2-2.1,0l0,0c0,0-1.1-0.6-1.2-1.7
						c-0.1-0.7,2.1-4,3.7-6.4l0,0c1-1.4,1.8-2.6,2-2.9c0.4-0.7-0.1-1.7-0.1-1.7l1.3,0.9L38.4,36z"/>
				</defs>
				<clipPath id="SVGID_52_">
					<use xlink:href="#SVGID_51_"  style="overflow:visible;"/>
				</clipPath>
				
					<ellipse transform="matrix(0.8748 -0.4845 0.4845 0.8748 -16.078 21.0903)" class="st25" cx="32.8" cy="41.7" rx="4.1" ry="1.9"/>
			</g>
			<g>
				<defs>
					<path id="SVGID_53_" d="M38.4,36c0,0-1,0.2-1.3,1c-0.3,0.8-2.9,9.7-3.8,10.2c-0.8,0.6-1.9,0.2-2.1,0l0,0c0,0-1.1-0.6-1.2-1.7
						c-0.1-0.7,2.1-4,3.7-6.4l0,0c1-1.4,1.8-2.6,2-2.9c0.4-0.7-0.1-1.7-0.1-1.7l1.3,0.9L38.4,36z"/>
				</defs>
				<clipPath id="SVGID_54_">
					<use xlink:href="#SVGID_53_"  style="overflow:visible;"/>
				</clipPath>
				
					<ellipse transform="matrix(0.8748 -0.4844 0.4844 0.8748 -16.0793 21.0844)" class="st26" cx="32.8" cy="41.7" rx="4.1" ry="1.8"/>
			</g>
			<g>
				<defs>
					<path id="SVGID_55_" d="M38.4,36c0,0-1,0.2-1.3,1c-0.3,0.8-2.9,9.7-3.8,10.2c-0.8,0.6-1.9,0.2-2.1,0l0,0c0,0-1.1-0.6-1.2-1.7
						c-0.1-0.7,2.1-4,3.7-6.4l0,0c1-1.4,1.8-2.6,2-2.9c0.4-0.7-0.1-1.7-0.1-1.7l1.3,0.9L38.4,36z"/>
				</defs>
				<clipPath id="SVGID_56_">
					<use xlink:href="#SVGID_55_"  style="overflow:visible;"/>
				</clipPath>
				
					<ellipse transform="matrix(0.8748 -0.4844 0.4844 0.8748 -16.0792 21.0845)" class="st27" cx="32.8" cy="41.7" rx="4" ry="1.8"/>
			</g>
			<g>
				<defs>
					<path id="SVGID_57_" d="M38.4,36c0,0-1,0.2-1.3,1s-2.9,9.7-3.8,10.2c-0.8,0.6-1.9,0.2-2.1,0l0,0c0,0-1.1-0.6-1.2-1.7
						c-0.1-0.7,2.1-4,3.7-6.4l0,0c1-1.4,1.8-2.6,2-2.9c0.4-0.7-0.1-1.7-0.1-1.7l1.3,0.9L38.4,36z"/>
				</defs>
				<clipPath id="SVGID_58_">
					<use xlink:href="#SVGID_57_"  style="overflow:visible;"/>
				</clipPath>
				
					<ellipse transform="matrix(0.8748 -0.4845 0.4845 0.8748 -16.0781 21.0903)" class="st28" cx="32.8" cy="41.7" rx="4" ry="1.8"/>
			</g>
			<g>
				<defs>
					<path id="SVGID_59_" d="M38.4,36c0,0-1,0.2-1.3,1c-0.3,0.8-2.9,9.7-3.8,10.2c-0.8,0.6-1.9,0.2-2.1,0l0,0c0,0-1.1-0.6-1.2-1.7
						c-0.1-0.7,2.1-4,3.7-6.4l0,0c1-1.4,1.8-2.6,2-2.9c0.4-0.7-0.1-1.7-0.1-1.7l1.3,0.9L38.4,36z"/>
				</defs>
				<clipPath id="SVGID_60_">
					<use xlink:href="#SVGID_59_"  style="overflow:visible;"/>
				</clipPath>
				
					<ellipse transform="matrix(0.8748 -0.4844 0.4844 0.8748 -16.0793 21.0844)" class="st29" cx="32.8" cy="41.7" rx="3.9" ry="1.8"/>
			</g>
			<g>
				<defs>
					<path id="SVGID_61_" d="M38.4,36c0,0-1,0.2-1.3,1c-0.3,0.8-2.9,9.7-3.8,10.2c-0.8,0.6-1.9,0.2-2.1,0l0,0c0,0-1.1-0.6-1.2-1.7
						c-0.1-0.7,2.1-4,3.7-6.4l0,0c1-1.4,1.8-2.6,2-2.9c0.4-0.7-0.1-1.7-0.1-1.7l1.3,0.9L38.4,36z"/>
				</defs>
				<clipPath id="SVGID_62_">
					<use xlink:href="#SVGID_61_"  style="overflow:visible;"/>
				</clipPath>
				
					<ellipse transform="matrix(0.8748 -0.4844 0.4844 0.8748 -16.0792 21.0845)" class="st30" cx="32.8" cy="41.7" rx="3.9" ry="1.7"/>
			</g>
			<g>
				<defs>
					<path id="SVGID_63_" d="M38.4,36c0,0-1,0.2-1.3,1c-0.3,0.8-2.9,9.7-3.8,10.2c-0.8,0.6-1.9,0.2-2.1,0l0,0c0,0-1.1-0.6-1.2-1.7
						c-0.1-0.7,2.1-4,3.7-6.4l0,0c1-1.4,1.8-2.6,2-2.9c0.4-0.7-0.1-1.7-0.1-1.7l1.3,0.9L38.4,36z"/>
				</defs>
				<clipPath id="SVGID_64_">
					<use xlink:href="#SVGID_63_"  style="overflow:visible;"/>
				</clipPath>
				
					<ellipse transform="matrix(0.8748 -0.4844 0.4844 0.8748 -16.0792 21.0845)" class="st31" cx="32.8" cy="41.7" rx="3.8" ry="1.7"/>
			</g>
			<g>
				<defs>
					<path id="SVGID_65_" d="M38.4,36c0,0-1,0.2-1.3,1c-0.3,0.8-2.9,9.7-3.8,10.2c-0.8,0.6-1.9,0.2-2.1,0l0,0c0,0-1.1-0.6-1.2-1.7
						c-0.1-0.7,2.1-4,3.7-6.4l0,0c1-1.4,1.8-2.6,2-2.9c0.4-0.7-0.1-1.7-0.1-1.7l1.3,0.9L38.4,36z"/>
				</defs>
				<clipPath id="SVGID_66_">
					<use xlink:href="#SVGID_65_"  style="overflow:visible;"/>
				</clipPath>
				
					<ellipse transform="matrix(0.8748 -0.4844 0.4844 0.8748 -16.0793 21.0844)" class="st32" cx="32.8" cy="41.7" rx="3.7" ry="1.7"/>
			</g>
			<g>
				<defs>
					<path id="SVGID_67_" d="M38.4,36c0,0-1,0.2-1.3,1c-0.3,0.8-2.9,9.7-3.8,10.2c-0.8,0.6-1.9,0.2-2.1,0l0,0c0,0-1.1-0.6-1.2-1.7
						c-0.1-0.7,2.1-4,3.7-6.4l0,0c1-1.4,1.8-2.6,2-2.9c0.4-0.7-0.1-1.7-0.1-1.7l1.3,0.9L38.4,36z"/>
				</defs>
				<clipPath id="SVGID_68_">
					<use xlink:href="#SVGID_67_"  style="overflow:visible;"/>
				</clipPath>
				
					<ellipse transform="matrix(0.8748 -0.4844 0.4844 0.8748 -16.0792 21.0844)" class="st33" cx="32.8" cy="41.7" rx="3.7" ry="1.7"/>
			</g>
			<g>
				<defs>
					<path id="SVGID_69_" d="M38.4,36c0,0-1,0.2-1.3,1c-0.3,0.8-2.9,9.7-3.8,10.2c-0.8,0.6-1.9,0.2-2.1,0l0,0c0,0-1.1-0.6-1.2-1.7
						c-0.1-0.7,2.1-4,3.7-6.4l0,0c1-1.4,1.8-2.6,2-2.9c0.4-0.7-0.1-1.7-0.1-1.7l1.3,0.9L38.4,36z"/>
				</defs>
				<clipPath id="SVGID_70_">
					<use xlink:href="#SVGID_69_"  style="overflow:visible;"/>
				</clipPath>
				
					<ellipse transform="matrix(0.8748 -0.4844 0.4844 0.8748 -16.0792 21.0845)" class="st34" cx="32.8" cy="41.7" rx="3.6" ry="1.6"/>
			</g>
			<g>
				<defs>
					<path id="SVGID_71_" d="M38.4,36c0,0-1,0.2-1.3,1s-2.9,9.7-3.8,10.2c-0.8,0.6-1.9,0.2-2.1,0l0,0c0,0-1.1-0.6-1.2-1.7
						c-0.1-0.7,2.1-4,3.7-6.4l0,0c1-1.4,1.8-2.6,2-2.9c0.4-0.7-0.1-1.7-0.1-1.7l1.3,0.9L38.4,36z"/>
				</defs>
				<clipPath id="SVGID_72_">
					<use xlink:href="#SVGID_71_"  style="overflow:visible;"/>
				</clipPath>
				
					<ellipse transform="matrix(0.8748 -0.4845 0.4845 0.8748 -16.078 21.0903)" class="st35" cx="32.8" cy="41.7" rx="3.6" ry="1.6"/>
			</g>
			<g>
				<defs>
					<path id="SVGID_73_" d="M38.4,36c0,0-1,0.2-1.3,1c-0.3,0.8-2.9,9.7-3.8,10.2c-0.8,0.6-1.9,0.2-2.1,0l0,0c0,0-1.1-0.6-1.2-1.7
						c-0.1-0.7,2.1-4,3.7-6.4l0,0c1-1.4,1.8-2.6,2-2.9c0.4-0.7-0.1-1.7-0.1-1.7l1.3,0.9L38.4,36z"/>
				</defs>
				<clipPath id="SVGID_74_">
					<use xlink:href="#SVGID_73_"  style="overflow:visible;"/>
				</clipPath>
				
					<ellipse transform="matrix(0.8748 -0.4844 0.4844 0.8748 -16.0793 21.0844)" class="st36" cx="32.8" cy="41.7" rx="3.4" ry="1.6"/>
			</g>
			<g>
				<defs>
					<path id="SVGID_75_" d="M38.4,36c0,0-1,0.2-1.3,1c-0.3,0.8-2.9,9.7-3.8,10.2c-0.8,0.6-1.9,0.2-2.1,0l0,0c0,0-1.1-0.6-1.2-1.7
						c-0.1-0.7,2.1-4,3.7-6.4l0,0c1-1.4,1.8-2.6,2-2.9c0.4-0.7-0.1-1.7-0.1-1.7l1.3,0.9L38.4,36z"/>
				</defs>
				<clipPath id="SVGID_76_">
					<use xlink:href="#SVGID_75_"  style="overflow:visible;"/>
				</clipPath>
				
					<ellipse transform="matrix(0.8748 -0.4844 0.4844 0.8748 -16.0792 21.0845)" class="st37" cx="32.8" cy="41.7" rx="3.4" ry="1.6"/>
			</g>
			<g>
				<defs>
					<path id="SVGID_77_" d="M38.4,36c0,0-1,0.2-1.3,1c-0.3,0.8-2.9,9.7-3.8,10.2c-0.8,0.6-1.9,0.2-2.1,0l0,0c0,0-1.1-0.6-1.2-1.7
						c-0.1-0.7,2.1-4,3.7-6.4l0,0c1-1.4,1.8-2.6,2-2.9c0.4-0.7-0.1-1.7-0.1-1.7l1.3,0.9L38.4,36z"/>
				</defs>
				<clipPath id="SVGID_78_">
					<use xlink:href="#SVGID_77_"  style="overflow:visible;"/>
				</clipPath>
				
					<ellipse transform="matrix(0.8748 -0.4844 0.4844 0.8748 -16.0792 21.0845)" class="st38" cx="32.8" cy="41.7" rx="3.3" ry="1.5"/>
			</g>
			<g>
				<defs>
					<path id="SVGID_79_" d="M38.4,36c0,0-1,0.2-1.3,1c-0.3,0.8-2.9,9.7-3.8,10.2c-0.8,0.6-1.9,0.2-2.1,0l0,0c0,0-1.1-0.6-1.2-1.7
						c-0.1-0.7,2.1-4,3.7-6.4l0,0c1-1.4,1.8-2.6,2-2.9c0.4-0.7-0.1-1.7-0.1-1.7l1.3,0.9L38.4,36z"/>
				</defs>
				<clipPath id="SVGID_80_">
					<use xlink:href="#SVGID_79_"  style="overflow:visible;"/>
				</clipPath>
				
					<ellipse transform="matrix(0.8748 -0.4845 0.4845 0.8748 -16.078 21.0903)" class="st39" cx="32.8" cy="41.7" rx="3.3" ry="1.5"/>
			</g>
			<g>
				<defs>
					<path id="SVGID_81_" d="M38.4,36c0,0-1,0.2-1.3,1c-0.3,0.8-2.9,9.7-3.8,10.2c-0.8,0.6-1.9,0.2-2.1,0l0,0c0,0-1.1-0.6-1.2-1.7
						c-0.1-0.7,2.1-4,3.7-6.4l0,0c1-1.4,1.8-2.6,2-2.9c0.4-0.7-0.1-1.7-0.1-1.7l1.3,0.9L38.4,36z"/>
				</defs>
				<clipPath id="SVGID_82_">
					<use xlink:href="#SVGID_81_"  style="overflow:visible;"/>
				</clipPath>
				
					<ellipse transform="matrix(0.8748 -0.4844 0.4844 0.8748 -16.0792 21.0844)" class="st40" cx="32.8" cy="41.7" rx="3.2" ry="1.5"/>
			</g>
			<g>
				<defs>
					<path id="SVGID_83_" d="M38.4,36c0,0-1,0.2-1.3,1c-0.3,0.8-2.9,9.7-3.8,10.2c-0.8,0.6-1.9,0.2-2.1,0l0,0c0,0-1.1-0.6-1.2-1.7
						c-0.1-0.7,2.1-4,3.7-6.4l0,0c1-1.4,1.8-2.6,2-2.9c0.4-0.7-0.1-1.7-0.1-1.7l1.3,0.9L38.4,36z"/>
				</defs>
				<clipPath id="SVGID_84_">
					<use xlink:href="#SVGID_83_"  style="overflow:visible;"/>
				</clipPath>
				
					<ellipse transform="matrix(0.8748 -0.4844 0.4844 0.8748 -16.0792 21.0845)" class="st41" cx="32.8" cy="41.7" rx="3.1" ry="1.5"/>
			</g>
			<g>
				<defs>
					<path id="SVGID_85_" d="M38.4,36c0,0-1,0.2-1.3,1s-2.9,9.7-3.8,10.2c-0.8,0.6-1.9,0.2-2.1,0l0,0c0,0-1.1-0.6-1.2-1.7
						c-0.1-0.7,2.1-4,3.7-6.4l0,0c1-1.4,1.8-2.6,2-2.9c0.4-0.7-0.1-1.7-0.1-1.7l1.3,0.9L38.4,36z"/>
				</defs>
				<clipPath id="SVGID_86_">
					<use xlink:href="#SVGID_85_"  style="overflow:visible;"/>
				</clipPath>
				
					<ellipse transform="matrix(0.8748 -0.4845 0.4845 0.8748 -16.0781 21.0903)" class="st42" cx="32.8" cy="41.7" rx="3.1" ry="1.4"/>
			</g>
			<g>
				<defs>
					<path id="SVGID_87_" d="M38.4,36c0,0-1,0.2-1.3,1c-0.3,0.8-2.9,9.7-3.8,10.2c-0.8,0.6-1.9,0.2-2.1,0l0,0c0,0-1.1-0.6-1.2-1.7
						c-0.1-0.7,2.1-4,3.7-6.4l0,0c1-1.4,1.8-2.6,2-2.9c0.4-0.7-0.1-1.7-0.1-1.7l1.3,0.9L38.4,36z"/>
				</defs>
				<clipPath id="SVGID_88_">
					<use xlink:href="#SVGID_87_"  style="overflow:visible;"/>
				</clipPath>
				
					<ellipse transform="matrix(0.8748 -0.4844 0.4844 0.8748 -16.0793 21.0844)" class="st43" cx="32.8" cy="41.7" rx="3" ry="1.4"/>
			</g>
			<g>
				<defs>
					<path id="SVGID_89_" d="M38.4,36c0,0-1,0.2-1.3,1c-0.3,0.8-2.9,9.7-3.8,10.2c-0.8,0.6-1.9,0.2-2.1,0l0,0c0,0-1.1-0.6-1.2-1.7
						c-0.1-0.7,2.1-4,3.7-6.4l0,0c1-1.4,1.8-2.6,2-2.9c0.4-0.7-0.1-1.7-0.1-1.7l1.3,0.9L38.4,36z"/>
				</defs>
				<clipPath id="SVGID_90_">
					<use xlink:href="#SVGID_89_"  style="overflow:visible;"/>
				</clipPath>
				
					<ellipse transform="matrix(0.8748 -0.4844 0.4844 0.8748 -16.0792 21.0845)" class="st44" cx="32.8" cy="41.7" rx="3" ry="1.4"/>
			</g>
			<g>
				<defs>
					<path id="SVGID_91_" d="M38.4,36c0,0-1,0.2-1.3,1s-2.9,9.7-3.8,10.2c-0.8,0.6-1.9,0.2-2.1,0l0,0c0,0-1.1-0.6-1.2-1.7
						c-0.1-0.7,2.1-4,3.7-6.4l0,0c1-1.4,1.8-2.6,2-2.9c0.4-0.7-0.1-1.7-0.1-1.7l1.3,0.9L38.4,36z"/>
				</defs>
				<clipPath id="SVGID_92_">
					<use xlink:href="#SVGID_91_"  style="overflow:visible;"/>
				</clipPath>
				
					<ellipse transform="matrix(0.8748 -0.4845 0.4845 0.8748 -16.0781 21.0904)" class="st45" cx="32.8" cy="41.7" rx="2.9" ry="1.4"/>
			</g>
			<g>
				<defs>
					<path id="SVGID_93_" d="M38.4,36c0,0-1,0.2-1.3,1c-0.3,0.8-2.9,9.7-3.8,10.2c-0.8,0.6-1.9,0.2-2.1,0l0,0c0,0-1.1-0.6-1.2-1.7
						c-0.1-0.7,2.1-4,3.7-6.4l0,0c1-1.4,1.8-2.6,2-2.9c0.4-0.7-0.1-1.7-0.1-1.7l1.3,0.9L38.4,36z"/>
				</defs>
				<clipPath id="SVGID_94_">
					<use xlink:href="#SVGID_93_"  style="overflow:visible;"/>
				</clipPath>
				
					<ellipse transform="matrix(0.8748 -0.4845 0.4845 0.8748 -16.078 21.0903)" class="st46" cx="32.8" cy="41.7" rx="2.9" ry="1.3"/>
			</g>
			<g>
				<defs>
					<path id="SVGID_95_" d="M38.4,36c0,0-1,0.2-1.3,1c-0.3,0.8-2.9,9.7-3.8,10.2c-0.8,0.6-1.9,0.2-2.1,0l0,0c0,0-1.1-0.6-1.2-1.7
						c-0.1-0.7,2.1-4,3.7-6.4l0,0c1-1.4,1.8-2.6,2-2.9c0.4-0.7-0.1-1.7-0.1-1.7l1.3,0.9L38.4,36z"/>
				</defs>
				<clipPath id="SVGID_96_">
					<use xlink:href="#SVGID_95_"  style="overflow:visible;"/>
				</clipPath>
				
					<ellipse transform="matrix(0.8748 -0.4844 0.4844 0.8748 -16.0792 21.0845)" class="st47" cx="32.8" cy="41.7" rx="2.8" ry="1.3"/>
			</g>
			<g>
				<defs>
					<path id="SVGID_97_" d="M38.4,36c0,0-1,0.2-1.3,1c-0.3,0.8-2.9,9.7-3.8,10.2c-0.8,0.6-1.9,0.2-2.1,0l0,0c0,0-1.1-0.6-1.2-1.7
						c-0.1-0.7,2.1-4,3.7-6.4l0,0c1-1.4,1.8-2.6,2-2.9c0.4-0.7-0.1-1.7-0.1-1.7l1.3,0.9L38.4,36z"/>
				</defs>
				<clipPath id="SVGID_98_">
					<use xlink:href="#SVGID_97_"  style="overflow:visible;"/>
				</clipPath>
				
					<ellipse transform="matrix(0.8748 -0.4844 0.4844 0.8748 -16.0792 21.0845)" class="st48" cx="32.8" cy="41.7" rx="2.8" ry="1.3"/>
			</g>
			<g>
				<defs>
					<path id="SVGID_99_" d="M38.4,36c0,0-1,0.2-1.3,1s-2.9,9.7-3.8,10.2c-0.8,0.6-1.9,0.2-2.1,0l0,0c0,0-1.1-0.6-1.2-1.7
						c-0.1-0.7,2.1-4,3.7-6.4l0,0c1-1.4,1.8-2.6,2-2.9c0.4-0.7-0.1-1.7-0.1-1.7l1.3,0.9L38.4,36z"/>
				</defs>
				<clipPath id="SVGID_100_">
					<use xlink:href="#SVGID_99_"  style="overflow:visible;"/>
				</clipPath>
				
					<ellipse transform="matrix(0.8748 -0.4845 0.4845 0.8748 -16.078 21.0903)" class="st49" cx="32.8" cy="41.7" rx="2.7" ry="1.3"/>
			</g>
			<g>
				<defs>
					<path id="SVGID_101_" d="M38.4,36c0,0-1,0.2-1.3,1c-0.3,0.8-2.9,9.7-3.8,10.2c-0.8,0.6-1.9,0.2-2.1,0l0,0c0,0-1.1-0.6-1.2-1.7
						c-0.1-0.7,2.1-4,3.7-6.4l0,0c1-1.4,1.8-2.6,2-2.9c0.4-0.7-0.1-1.7-0.1-1.7l1.3,0.9L38.4,36z"/>
				</defs>
				<clipPath id="SVGID_102_">
					<use xlink:href="#SVGID_101_"  style="overflow:visible;"/>
				</clipPath>
				
					<ellipse transform="matrix(0.8748 -0.4844 0.4844 0.8748 -16.0793 21.0844)" class="st50" cx="32.8" cy="41.7" rx="2.6" ry="1.2"/>
			</g>
			<g>
				<defs>
					<path id="SVGID_103_" d="M38.4,36c0,0-1,0.2-1.3,1c-0.3,0.8-2.9,9.7-3.8,10.2c-0.8,0.6-1.9,0.2-2.1,0l0,0c0,0-1.1-0.6-1.2-1.7
						c-0.1-0.7,2.1-4,3.7-6.4l0,0c1-1.4,1.8-2.6,2-2.9c0.4-0.7-0.1-1.7-0.1-1.7l1.3,0.9L38.4,36z"/>
				</defs>
				<clipPath id="SVGID_104_">
					<use xlink:href="#SVGID_103_"  style="overflow:visible;"/>
				</clipPath>
				
					<ellipse transform="matrix(0.8748 -0.4844 0.4844 0.8748 -16.0792 21.0845)" class="st51" cx="32.8" cy="41.7" rx="2.6" ry="1.2"/>
			</g>
			<g>
				<defs>
					<path id="SVGID_105_" d="M38.4,36c0,0-1,0.2-1.3,1s-2.9,9.7-3.8,10.2c-0.8,0.6-1.9,0.2-2.1,0l0,0c0,0-1.1-0.6-1.2-1.7
						c-0.1-0.7,2.1-4,3.7-6.4l0,0c1-1.4,1.8-2.6,2-2.9c0.4-0.7-0.1-1.7-0.1-1.7l1.3,0.9L38.4,36z"/>
				</defs>
				<clipPath id="SVGID_106_">
					<use xlink:href="#SVGID_105_"  style="overflow:visible;"/>
				</clipPath>
				
					<ellipse transform="matrix(0.8748 -0.4845 0.4845 0.8748 -16.078 21.0903)" class="st52" cx="32.8" cy="41.7" rx="2.5" ry="1.2"/>
			</g>
			<g>
				<defs>
					<path id="SVGID_107_" d="M38.4,36c0,0-1,0.2-1.3,1c-0.3,0.8-2.9,9.7-3.8,10.2c-0.8,0.6-1.9,0.2-2.1,0l0,0c0,0-1.1-0.6-1.2-1.7
						c-0.1-0.7,2.1-4,3.7-6.4l0,0c1-1.4,1.8-2.6,2-2.9c0.4-0.7-0.1-1.7-0.1-1.7l1.3,0.9L38.4,36z"/>
				</defs>
				<clipPath id="SVGID_108_">
					<use xlink:href="#SVGID_107_"  style="overflow:visible;"/>
				</clipPath>
				
					<ellipse transform="matrix(0.8748 -0.4845 0.4845 0.8748 -16.078 21.0903)" class="st53" cx="32.8" cy="41.7" rx="2.5" ry="1.2"/>
			</g>
			<g>
				<defs>
					<path id="SVGID_109_" d="M38.4,36c0,0-1,0.2-1.3,1c-0.3,0.8-2.9,9.7-3.8,10.2c-0.8,0.6-1.9,0.2-2.1,0l0,0c0,0-1.1-0.6-1.2-1.7
						c-0.1-0.7,2.1-4,3.7-6.4l0,0c1-1.4,1.8-2.6,2-2.9c0.4-0.7-0.1-1.7-0.1-1.7l1.3,0.9L38.4,36z"/>
				</defs>
				<clipPath id="SVGID_110_">
					<use xlink:href="#SVGID_109_"  style="overflow:visible;"/>
				</clipPath>
				
					<ellipse transform="matrix(0.8748 -0.4844 0.4844 0.8748 -16.0792 21.0845)" class="st54" cx="32.8" cy="41.7" rx="2.4" ry="1.1"/>
			</g>
			<g>
				<defs>
					<path id="SVGID_111_" d="M38.4,36c0,0-1,0.2-1.3,1c-0.3,0.8-2.9,9.7-3.8,10.2c-0.8,0.6-1.9,0.2-2.1,0l0,0c0,0-1.1-0.6-1.2-1.7
						c-0.1-0.7,2.1-4,3.7-6.4l0,0c1-1.4,1.8-2.6,2-2.9c0.4-0.7-0.1-1.7-0.1-1.7l1.3,0.9L38.4,36z"/>
				</defs>
				<clipPath id="SVGID_112_">
					<use xlink:href="#SVGID_111_"  style="overflow:visible;"/>
				</clipPath>
				
					<ellipse transform="matrix(0.8748 -0.4844 0.4844 0.8748 -16.0792 21.0845)" class="st55" cx="32.8" cy="41.7" rx="2.4" ry="1.1"/>
			</g>
			<g>
				<defs>
					<path id="SVGID_113_" d="M38.4,36c0,0-1,0.2-1.3,1s-2.9,9.7-3.8,10.2c-0.8,0.6-1.9,0.2-2.1,0l0,0c0,0-1.1-0.6-1.2-1.7
						c-0.1-0.7,2.1-4,3.7-6.4l0,0c1-1.4,1.8-2.6,2-2.9c0.4-0.7-0.1-1.7-0.1-1.7l1.3,0.9L38.4,36z"/>
				</defs>
				<clipPath id="SVGID_114_">
					<use xlink:href="#SVGID_113_"  style="overflow:visible;"/>
				</clipPath>
				
					<ellipse transform="matrix(0.8748 -0.4845 0.4845 0.8748 -16.078 21.0903)" class="st56" cx="32.8" cy="41.7" rx="2.3" ry="1.1"/>
			</g>
			<g>
				<defs>
					<path id="SVGID_115_" d="M38.4,36c0,0-1,0.2-1.3,1c-0.3,0.8-2.9,9.7-3.8,10.2c-0.8,0.6-1.9,0.2-2.1,0l0,0c0,0-1.1-0.6-1.2-1.7
						c-0.1-0.7,2.1-4,3.7-6.4l0,0c1-1.4,1.8-2.6,2-2.9c0.4-0.7-0.1-1.7-0.1-1.7l1.3,0.9L38.4,36z"/>
				</defs>
				<clipPath id="SVGID_116_">
					<use xlink:href="#SVGID_115_"  style="overflow:visible;"/>
				</clipPath>
				
					<ellipse transform="matrix(0.8748 -0.4844 0.4844 0.8748 -16.0793 21.0844)" class="st57" cx="32.8" cy="41.7" rx="2.3" ry="1"/>
			</g>
			<g>
				<defs>
					<path id="SVGID_117_" d="M38.4,36c0,0-1,0.2-1.3,1c-0.3,0.8-2.9,9.7-3.8,10.2c-0.8,0.6-1.9,0.2-2.1,0l0,0c0,0-1.1-0.6-1.2-1.7
						c-0.1-0.7,2.1-4,3.7-6.4l0,0c1-1.4,1.8-2.6,2-2.9c0.4-0.7-0.1-1.7-0.1-1.7l1.3,0.9L38.4,36z"/>
				</defs>
				<clipPath id="SVGID_118_">
					<use xlink:href="#SVGID_117_"  style="overflow:visible;"/>
				</clipPath>
				
					<ellipse transform="matrix(0.8748 -0.4844 0.4844 0.8748 -16.0791 21.0845)" class="st58" cx="32.8" cy="41.7" rx="2.2" ry="1"/>
			</g>
			<g>
				<defs>
					<path id="SVGID_119_" d="M38.4,36c0,0-1,0.2-1.3,1s-2.9,9.7-3.8,10.2c-0.8,0.6-1.9,0.2-2.1,0l0,0c0,0-1.1-0.6-1.2-1.7
						c-0.1-0.7,2.1-4,3.7-6.4l0,0c1-1.4,1.8-2.6,2-2.9c0.4-0.7-0.1-1.7-0.1-1.7l1.3,0.9L38.4,36z"/>
				</defs>
				<clipPath id="SVGID_120_">
					<use xlink:href="#SVGID_119_"  style="overflow:visible;"/>
				</clipPath>
				<ellipse transform="matrix(0.8748 -0.4845 0.4845 0.8748 -16.0781 21.0903)" class="st59" cx="32.8" cy="41.7" rx="2" ry="1"/>
			</g>
			<g>
				<defs>
					<path id="SVGID_121_" d="M38.4,36c0,0-1,0.2-1.3,1c-0.3,0.8-2.9,9.7-3.8,10.2c-0.8,0.6-1.9,0.2-2.1,0l0,0c0,0-1.1-0.6-1.2-1.7
						c-0.1-0.7,2.1-4,3.7-6.4l0,0c1-1.4,1.8-2.6,2-2.9c0.4-0.7-0.1-1.7-0.1-1.7l1.3,0.9L38.4,36z"/>
				</defs>
				<clipPath id="SVGID_122_">
					<use xlink:href="#SVGID_121_"  style="overflow:visible;"/>
				</clipPath>
				<ellipse transform="matrix(0.8748 -0.4845 0.4845 0.8748 -16.078 21.0903)" class="st60" cx="32.8" cy="41.7" rx="2" ry="1"/>
			</g>
			<g>
				<defs>
					<path id="SVGID_123_" d="M38.4,36c0,0-1,0.2-1.3,1c-0.3,0.8-2.9,9.7-3.8,10.2c-0.8,0.6-1.9,0.2-2.1,0l0,0c0,0-1.1-0.6-1.2-1.7
						c-0.1-0.7,2.1-4,3.7-6.4l0,0c1-1.4,1.8-2.6,2-2.9c0.4-0.7-0.1-1.7-0.1-1.7l1.3,0.9L38.4,36z"/>
				</defs>
				<clipPath id="SVGID_124_">
					<use xlink:href="#SVGID_123_"  style="overflow:visible;"/>
				</clipPath>
				
					<ellipse transform="matrix(0.8748 -0.4844 0.4844 0.8748 -16.0791 21.0845)" class="st61" cx="32.8" cy="41.7" rx="1.9" ry="0.9"/>
			</g>
			<g>
				<defs>
					<path id="SVGID_125_" d="M38.4,36c0,0-1,0.2-1.3,1s-2.9,9.7-3.8,10.2c-0.8,0.6-1.9,0.2-2.1,0l0,0c0,0-1.1-0.6-1.2-1.7
						c-0.1-0.7,2.1-4,3.7-6.4l0,0c1-1.4,1.8-2.6,2-2.9c0.4-0.7-0.1-1.7-0.1-1.7l1.3,0.9L38.4,36z"/>
				</defs>
				<clipPath id="SVGID_126_">
					<use xlink:href="#SVGID_125_"  style="overflow:visible;"/>
				</clipPath>
				
					<ellipse transform="matrix(0.8748 -0.4845 0.4845 0.8748 -16.0781 21.0904)" class="st62" cx="32.8" cy="41.7" rx="1.9" ry="0.9"/>
			</g>
			<g>
				<defs>
					<path id="SVGID_127_" d="M38.4,36c0,0-1,0.2-1.3,1s-2.9,9.7-3.8,10.2c-0.8,0.6-1.9,0.2-2.1,0l0,0c0,0-1.1-0.6-1.2-1.7
						c-0.1-0.7,2.1-4,3.7-6.4l0,0c1-1.4,1.8-2.6,2-2.9c0.4-0.7-0.1-1.7-0.1-1.7l1.3,0.9L38.4,36z"/>
				</defs>
				<clipPath id="SVGID_128_">
					<use xlink:href="#SVGID_127_"  style="overflow:visible;"/>
				</clipPath>
				
					<ellipse transform="matrix(0.8748 -0.4845 0.4845 0.8748 -16.078 21.0903)" class="st63" cx="32.8" cy="41.7" rx="1.8" ry="0.9"/>
			</g>
			<g>
				<defs>
					<path id="SVGID_129_" d="M38.4,36c0,0-1,0.2-1.3,1c-0.3,0.8-2.9,9.7-3.8,10.2c-0.8,0.6-1.9,0.2-2.1,0l0,0c0,0-1.1-0.6-1.2-1.7
						c-0.1-0.7,2.1-4,3.7-6.4l0,0c1-1.4,1.8-2.6,2-2.9c0.4-0.7-0.1-1.7-0.1-1.7l1.3,0.9L38.4,36z"/>
				</defs>
				<clipPath id="SVGID_130_">
					<use xlink:href="#SVGID_129_"  style="overflow:visible;"/>
				</clipPath>
				
					<ellipse transform="matrix(0.8748 -0.4844 0.4844 0.8748 -16.0792 21.0845)" class="st64" cx="32.8" cy="41.7" rx="1.8" ry="0.9"/>
			</g>
			<g>
				<defs>
					<path id="SVGID_131_" d="M38.4,36c0,0-1,0.2-1.3,1c-0.3,0.8-2.9,9.7-3.8,10.2c-0.8,0.6-1.9,0.2-2.1,0l0,0c0,0-1.1-0.6-1.2-1.7
						c-0.1-0.7,2.1-4,3.7-6.4l0,0c1-1.4,1.8-2.6,2-2.9c0.4-0.7-0.1-1.7-0.1-1.7l1.3,0.9L38.4,36z"/>
				</defs>
				<clipPath id="SVGID_132_">
					<use xlink:href="#SVGID_131_"  style="overflow:visible;"/>
				</clipPath>
				
					<ellipse transform="matrix(0.8748 -0.4844 0.4844 0.8748 -16.0791 21.0844)" class="st65" cx="32.8" cy="41.7" rx="1.7" ry="0.8"/>
			</g>
			<g>
				<defs>
					<path id="SVGID_133_" d="M38.4,36c0,0-1,0.2-1.3,1s-2.9,9.7-3.8,10.2c-0.8,0.6-1.9,0.2-2.1,0l0,0c0,0-1.1-0.6-1.2-1.7
						c-0.1-0.7,2.1-4,3.7-6.4l0,0c1-1.4,1.8-2.6,2-2.9c0.4-0.7-0.1-1.7-0.1-1.7l1.3,0.9L38.4,36z"/>
				</defs>
				<clipPath id="SVGID_134_">
					<use xlink:href="#SVGID_133_"  style="overflow:visible;"/>
				</clipPath>
				
					<ellipse transform="matrix(0.8748 -0.4845 0.4845 0.8748 -16.0781 21.0903)" class="st66" cx="32.8" cy="41.7" rx="1.7" ry="0.8"/>
			</g>
			<g>
				<defs>
					<path id="SVGID_135_" d="M38.4,36c0,0-1,0.2-1.3,1c-0.3,0.8-2.9,9.7-3.8,10.2c-0.8,0.6-1.9,0.2-2.1,0l0,0c0,0-1.1-0.6-1.2-1.7
						c-0.1-0.7,2.1-4,3.7-6.4l0,0c1-1.4,1.8-2.6,2-2.9c0.4-0.7-0.1-1.7-0.1-1.7l1.3,0.9L38.4,36z"/>
				</defs>
				<clipPath id="SVGID_136_">
					<use xlink:href="#SVGID_135_"  style="overflow:visible;"/>
				</clipPath>
				
					<ellipse transform="matrix(0.8748 -0.4844 0.4844 0.8748 -16.0792 21.0845)" class="st67" cx="32.8" cy="41.7" rx="1.6" ry="0.8"/>
			</g>
			<g>
				<defs>
					<path id="SVGID_137_" d="M38.4,36c0,0-1,0.2-1.3,1c-0.3,0.8-2.9,9.7-3.8,10.2c-0.8,0.6-1.9,0.2-2.1,0l0,0c0,0-1.1-0.6-1.2-1.7
						c-0.1-0.7,2.1-4,3.7-6.4l0,0c1-1.4,1.8-2.6,2-2.9c0.4-0.7-0.1-1.7-0.1-1.7l1.3,0.9L38.4,36z"/>
				</defs>
				<clipPath id="SVGID_138_">
					<use xlink:href="#SVGID_137_"  style="overflow:visible;"/>
				</clipPath>
				
					<ellipse transform="matrix(0.8748 -0.4844 0.4844 0.8748 -16.0791 21.0844)" class="st68" cx="32.8" cy="41.7" rx="1.5" ry="0.8"/>
			</g>
			<g>
				<defs>
					<path id="SVGID_139_" d="M38.4,36c0,0-1,0.2-1.3,1s-2.9,9.7-3.8,10.2c-0.8,0.6-1.9,0.2-2.1,0l0,0c0,0-1.1-0.6-1.2-1.7
						c-0.1-0.7,2.1-4,3.7-6.4l0,0c1-1.4,1.8-2.6,2-2.9c0.4-0.7-0.1-1.7-0.1-1.7l1.3,0.9L38.4,36z"/>
				</defs>
				<clipPath id="SVGID_140_">
					<use xlink:href="#SVGID_139_"  style="overflow:visible;"/>
				</clipPath>
				
					<ellipse transform="matrix(0.8748 -0.4845 0.4845 0.8748 -16.0781 21.0904)" class="st69" cx="32.8" cy="41.7" rx="1.5" ry="0.6"/>
			</g>
			<g>
				<defs>
					<path id="SVGID_141_" d="M38.4,36c0,0-1,0.2-1.3,1c-0.3,0.8-2.9,9.7-3.8,10.2c-0.8,0.6-1.9,0.2-2.1,0l0,0c0,0-1.1-0.6-1.2-1.7
						c-0.1-0.7,2.1-4,3.7-6.4l0,0c1-1.4,1.8-2.6,2-2.9c0.4-0.7-0.1-1.7-0.1-1.7l1.3,0.9L38.4,36z"/>
				</defs>
				<clipPath id="SVGID_142_">
					<use xlink:href="#SVGID_141_"  style="overflow:visible;"/>
				</clipPath>
				
					<ellipse transform="matrix(0.8748 -0.4844 0.4844 0.8748 -16.0792 21.0845)" class="st70" cx="32.8" cy="41.7" rx="1.4" ry="0.6"/>
			</g>
			<g>
				<defs>
					<path id="SVGID_143_" d="M38.4,36c0,0-1,0.2-1.3,1c-0.3,0.8-2.9,9.7-3.8,10.2c-0.8,0.6-1.9,0.2-2.1,0l0,0c0,0-1.1-0.6-1.2-1.7
						c-0.1-0.7,2.1-4,3.7-6.4l0,0c1-1.4,1.8-2.6,2-2.9c0.4-0.7-0.1-1.7-0.1-1.7l1.3,0.9L38.4,36z"/>
				</defs>
				<clipPath id="SVGID_144_">
					<use xlink:href="#SVGID_143_"  style="overflow:visible;"/>
				</clipPath>
				
					<ellipse transform="matrix(0.8748 -0.4844 0.4844 0.8748 -16.0791 21.0845)" class="st71" cx="32.8" cy="41.7" rx="1.4" ry="0.6"/>
			</g>
			<g>
				<defs>
					<path id="SVGID_145_" d="M38.4,36c0,0-1,0.2-1.3,1c-0.3,0.8-2.9,9.7-3.8,10.2c-0.8,0.6-1.9,0.2-2.1,0l0,0c0,0-1.1-0.6-1.2-1.7
						c-0.1-0.7,2.1-4,3.7-6.4l0,0c1-1.4,1.8-2.6,2-2.9c0.4-0.7-0.1-1.7-0.1-1.7l1.3,0.9L38.4,36z"/>
				</defs>
				<clipPath id="SVGID_146_">
					<use xlink:href="#SVGID_145_"  style="overflow:visible;"/>
				</clipPath>
				
					<ellipse transform="matrix(0.8748 -0.4844 0.4844 0.8748 -16.0793 21.0844)" class="st72" cx="32.8" cy="41.7" rx="1.3" ry="0.6"/>
			</g>
			<g>
				<defs>
					<path id="SVGID_147_" d="M38.4,36c0,0-1,0.2-1.3,1c-0.3,0.8-2.9,9.7-3.8,10.2c-0.8,0.6-1.9,0.2-2.1,0l0,0c0,0-1.1-0.6-1.2-1.7
						c-0.1-0.7,2.1-4,3.7-6.4l0,0c1-1.4,1.8-2.6,2-2.9c0.4-0.7-0.1-1.7-0.1-1.7l1.3,0.9L38.4,36z"/>
				</defs>
				<clipPath id="SVGID_148_">
					<use xlink:href="#SVGID_147_"  style="overflow:visible;"/>
				</clipPath>
				
					<ellipse transform="matrix(0.8748 -0.4844 0.4844 0.8748 -16.0793 21.0844)" class="st73" cx="32.8" cy="41.7" rx="1.3" ry="0.5"/>
			</g>
			<g>
				<defs>
					<path id="SVGID_149_" d="M38.4,36c0,0-1,0.2-1.3,1c-0.3,0.8-2.9,9.7-3.8,10.2c-0.8,0.6-1.9,0.2-2.1,0l0,0c0,0-1.1-0.6-1.2-1.7
						c-0.1-0.7,2.1-4,3.7-6.4l0,0c1-1.4,1.8-2.6,2-2.9c0.4-0.7-0.1-1.7-0.1-1.7l1.3,0.9L38.4,36z"/>
				</defs>
				<clipPath id="SVGID_150_">
					<use xlink:href="#SVGID_149_"  style="overflow:visible;"/>
				</clipPath>
				
					<ellipse transform="matrix(0.8748 -0.4844 0.4844 0.8748 -16.0792 21.0845)" class="st74" cx="32.8" cy="41.7" rx="1.2" ry="0.5"/>
			</g>
			<g>
				<defs>
					<path id="SVGID_151_" d="M38.4,36c0,0-1,0.2-1.3,1c-0.3,0.8-2.9,9.7-3.8,10.2c-0.8,0.6-1.9,0.2-2.1,0l0,0c0,0-1.1-0.6-1.2-1.7
						c-0.1-0.7,2.1-4,3.7-6.4l0,0c1-1.4,1.8-2.6,2-2.9c0.4-0.7-0.1-1.7-0.1-1.7l1.3,0.9L38.4,36z"/>
				</defs>
				<clipPath id="SVGID_152_">
					<use xlink:href="#SVGID_151_"  style="overflow:visible;"/>
				</clipPath>
				
					<ellipse transform="matrix(0.8748 -0.4844 0.4844 0.8748 -16.079 21.0844)" class="st75" cx="32.8" cy="41.7" rx="1.2" ry="0.5"/>
			</g>
			<g>
				<defs>
					<path id="SVGID_153_" d="M38.4,36c0,0-1,0.2-1.3,1c-0.3,0.8-2.9,9.7-3.8,10.2c-0.8,0.6-1.9,0.2-2.1,0l0,0c0,0-1.1-0.6-1.2-1.7
						c-0.1-0.7,2.1-4,3.7-6.4l0,0c1-1.4,1.8-2.6,2-2.9c0.4-0.7-0.1-1.7-0.1-1.7l1.3,0.9L38.4,36z"/>
				</defs>
				<clipPath id="SVGID_154_">
					<use xlink:href="#SVGID_153_"  style="overflow:visible;"/>
				</clipPath>
				
					<ellipse transform="matrix(0.8748 -0.4845 0.4845 0.8748 -16.0783 21.0903)" class="st76" cx="32.8" cy="41.7" rx="1.1" ry="0.5"/>
			</g>
			<g>
				<defs>
					<path id="SVGID_155_" d="M38.4,36c0,0-1,0.2-1.3,1s-2.9,9.7-3.8,10.2c-0.8,0.6-1.9,0.2-2.1,0l0,0c0,0-1.1-0.6-1.2-1.7
						c-0.1-0.7,2.1-4,3.7-6.4l0,0c1-1.4,1.8-2.6,2-2.9c0.4-0.7-0.1-1.7-0.1-1.7l1.3,0.9L38.4,36z"/>
				</defs>
				<clipPath id="SVGID_156_">
					<use xlink:href="#SVGID_155_"  style="overflow:visible;"/>
				</clipPath>
				
					<ellipse transform="matrix(0.8748 -0.4845 0.4845 0.8748 -16.0781 21.0903)" class="st77" cx="32.8" cy="41.7" rx="1" ry="0.4"/>
			</g>
			<g>
				<defs>
					<path id="SVGID_157_" d="M38.4,36c0,0-1,0.2-1.3,1c-0.3,0.8-2.9,9.7-3.8,10.2c-0.8,0.6-1.9,0.2-2.1,0l0,0c0,0-1.1-0.6-1.2-1.7
						c-0.1-0.7,2.1-4,3.7-6.4l0,0c1-1.4,1.8-2.6,2-2.9c0.4-0.7-0.1-1.7-0.1-1.7l1.3,0.9L38.4,36z"/>
				</defs>
				<clipPath id="SVGID_158_">
					<use xlink:href="#SVGID_157_"  style="overflow:visible;"/>
				</clipPath>
				<ellipse transform="matrix(0.8748 -0.4844 0.4844 0.8748 -16.079 21.0844)" class="st78" cx="32.8" cy="41.7" rx="1" ry="0.4"/>
			</g>
			<g>
				<defs>
					<path id="SVGID_159_" d="M38.4,36c0,0-1,0.2-1.3,1c-0.3,0.8-2.9,9.7-3.8,10.2c-0.8,0.6-1.9,0.2-2.1,0l0,0c0,0-1.1-0.6-1.2-1.7
						c-0.1-0.7,2.1-4,3.7-6.4l0,0c1-1.4,1.8-2.6,2-2.9c0.4-0.7-0.1-1.7-0.1-1.7l1.3,0.9L38.4,36z"/>
				</defs>
				<clipPath id="SVGID_160_">
					<use xlink:href="#SVGID_159_"  style="overflow:visible;"/>
				</clipPath>
				
					<ellipse transform="matrix(0.8748 -0.4845 0.4845 0.8748 -16.0784 21.0904)" class="st79" cx="32.8" cy="41.7" rx="0.9" ry="0.4"/>
			</g>
			<g>
				<defs>
					<path id="SVGID_161_" d="M38.4,36c0,0-1,0.2-1.3,1c-0.3,0.8-2.9,9.7-3.8,10.2c-0.8,0.6-1.9,0.2-2.1,0l0,0c0,0-1.1-0.6-1.2-1.7
						c-0.1-0.7,2.1-4,3.7-6.4l0,0c1-1.4,1.8-2.6,2-2.9c0.4-0.7-0.1-1.7-0.1-1.7l1.3,0.9L38.4,36z"/>
				</defs>
				<clipPath id="SVGID_162_">
					<use xlink:href="#SVGID_161_"  style="overflow:visible;"/>
				</clipPath>
				
					<ellipse transform="matrix(0.8748 -0.4845 0.4845 0.8748 -16.0783 21.0903)" class="st80" cx="32.8" cy="41.7" rx="0.9" ry="0.4"/>
			</g>
			<g>
				<defs>
					<path id="SVGID_163_" d="M38.4,36c0,0-1,0.2-1.3,1c-0.3,0.8-2.9,9.7-3.8,10.2c-0.8,0.6-1.9,0.2-2.1,0l0,0c0,0-1.1-0.6-1.2-1.7
						c-0.1-0.7,2.1-4,3.7-6.4l0,0c1-1.4,1.8-2.6,2-2.9c0.4-0.7-0.1-1.7-0.1-1.7l1.3,0.9L38.4,36z"/>
				</defs>
				<clipPath id="SVGID_164_">
					<use xlink:href="#SVGID_163_"  style="overflow:visible;"/>
				</clipPath>
				
					<ellipse transform="matrix(0.8748 -0.4844 0.4844 0.8748 -16.0791 21.0844)" class="st81" cx="32.8" cy="41.7" rx="0.8" ry="0.3"/>
			</g>
			<g>
				<defs>
					<path id="SVGID_165_" d="M38.4,36c0,0-1,0.2-1.3,1c-0.3,0.8-2.9,9.7-3.8,10.2c-0.8,0.6-1.9,0.2-2.1,0l0,0c0,0-1.1-0.6-1.2-1.7
						c-0.1-0.7,2.1-4,3.7-6.4l0,0c1-1.4,1.8-2.6,2-2.9c0.4-0.7-0.1-1.7-0.1-1.7l1.3,0.9L38.4,36z"/>
				</defs>
				<clipPath id="SVGID_166_">
					<use xlink:href="#SVGID_165_"  style="overflow:visible;"/>
				</clipPath>
				
					<ellipse transform="matrix(0.8748 -0.4844 0.4844 0.8748 -16.0789 21.0844)" class="st82" cx="32.8" cy="41.7" rx="0.8" ry="0.3"/>
			</g>
			<g>
				<defs>
					<path id="SVGID_167_" d="M38.4,36c0,0-1,0.2-1.3,1c-0.3,0.8-2.9,9.7-3.8,10.2c-0.8,0.6-1.9,0.2-2.1,0l0,0c0,0-1.1-0.6-1.2-1.7
						c-0.1-0.7,2.1-4,3.7-6.4l0,0c1-1.4,1.8-2.6,2-2.9c0.4-0.7-0.1-1.7-0.1-1.7l1.3,0.9L38.4,36z"/>
				</defs>
				<clipPath id="SVGID_168_">
					<use xlink:href="#SVGID_167_"  style="overflow:visible;"/>
				</clipPath>
				
					<ellipse transform="matrix(0.8748 -0.4845 0.4845 0.8748 -16.0784 21.0904)" class="st83" cx="32.8" cy="41.7" rx="0.6" ry="0.3"/>
			</g>
			<g>
				<defs>
					<path id="SVGID_169_" d="M38.4,36c0,0-1,0.2-1.3,1c-0.3,0.8-2.9,9.7-3.8,10.2c-0.8,0.6-1.9,0.2-2.1,0l0,0c0,0-1.1-0.6-1.2-1.7
						c-0.1-0.7,2.1-4,3.7-6.4l0,0c1-1.4,1.8-2.6,2-2.9c0.4-0.7-0.1-1.7-0.1-1.7l1.3,0.9L38.4,36z"/>
				</defs>
				<clipPath id="SVGID_170_">
					<use xlink:href="#SVGID_169_"  style="overflow:visible;"/>
				</clipPath>
				
					<ellipse transform="matrix(0.8748 -0.4844 0.4844 0.8748 -16.0792 21.0845)" class="st84" cx="32.8" cy="41.7" rx="0.6" ry="0.3"/>
			</g>
			<g>
				<defs>
					<path id="SVGID_171_" d="M38.4,36c0,0-1,0.2-1.3,1c-0.3,0.8-2.9,9.7-3.8,10.2c-0.8,0.6-1.9,0.2-2.1,0l0,0c0,0-1.1-0.6-1.2-1.7
						c-0.1-0.7,2.1-4,3.7-6.4l0,0c1-1.4,1.8-2.6,2-2.9c0.4-0.7-0.1-1.7-0.1-1.7l1.3,0.9L38.4,36z"/>
				</defs>
				<clipPath id="SVGID_172_">
					<use xlink:href="#SVGID_171_"  style="overflow:visible;"/>
				</clipPath>
				
					<ellipse transform="matrix(0.8748 -0.4844 0.4844 0.8748 -16.0789 21.0844)" class="st85" cx="32.8" cy="41.7" rx="0.5" ry="0.2"/>
			</g>
			<g>
				<defs>
					<path id="SVGID_173_" d="M38.4,36c0,0-1,0.2-1.3,1c-0.3,0.8-2.9,9.7-3.8,10.2c-0.8,0.6-1.9,0.2-2.1,0l0,0c0,0-1.1-0.6-1.2-1.7
						c-0.1-0.7,2.1-4,3.7-6.4l0,0c1-1.4,1.8-2.6,2-2.9c0.4-0.7-0.1-1.7-0.1-1.7l1.3,0.9L38.4,36z"/>
				</defs>
				<clipPath id="SVGID_174_">
					<use xlink:href="#SVGID_173_"  style="overflow:visible;"/>
				</clipPath>
				
					<ellipse transform="matrix(0.8748 -0.4845 0.4845 0.8748 -16.0788 21.0904)" class="st86" cx="32.8" cy="41.7" rx="0.4" ry="0.2"/>
			</g>
			<g>
				<defs>
					<path id="SVGID_175_" d="M38.4,36c0,0-1,0.2-1.3,1c-0.3,0.8-2.9,9.7-3.8,10.2c-0.8,0.6-1.9,0.2-2.1,0l0,0c0,0-1.1-0.6-1.2-1.7
						c-0.1-0.7,2.1-4,3.7-6.4l0,0c1-1.4,1.8-2.6,2-2.9c0.4-0.7-0.1-1.7-0.1-1.7l1.3,0.9L38.4,36z"/>
				</defs>
				<clipPath id="SVGID_176_">
					<use xlink:href="#SVGID_175_"  style="overflow:visible;"/>
				</clipPath>
				
					<ellipse transform="matrix(0.8748 -0.4844 0.4844 0.8748 -16.0793 21.0844)" class="st87" cx="32.8" cy="41.7" rx="0.4" ry="0.2"/>
			</g>
			<g>
				<defs>
					<path id="SVGID_177_" d="M38.4,36c0,0-1,0.2-1.3,1c-0.3,0.8-2.9,9.7-3.8,10.2c-0.8,0.6-1.9,0.2-2.1,0l0,0c0,0-1.1-0.6-1.2-1.7
						c-0.1-0.7,2.1-4,3.7-6.4l0,0c1-1.4,1.8-2.6,2-2.9c0.4-0.7-0.1-1.7-0.1-1.7l1.3,0.9L38.4,36z"/>
				</defs>
				<clipPath id="SVGID_178_">
					<use xlink:href="#SVGID_177_"  style="overflow:visible;"/>
				</clipPath>
				
					<ellipse transform="matrix(0.8748 -0.4844 0.4844 0.8748 -16.0789 21.0844)" class="st88" cx="32.8" cy="41.7" rx="0.3" ry="0.2"/>
			</g>
			<g>
				<defs>
					<path id="SVGID_179_" d="M38.4,36c0,0-1,0.2-1.3,1c-0.3,0.8-2.9,9.7-3.8,10.2c-0.8,0.6-1.9,0.2-2.1,0l0,0c0,0-1.1-0.6-1.2-1.7
						c-0.1-0.7,2.1-4,3.7-6.4l0,0c1-1.4,1.8-2.6,2-2.9c0.4-0.7-0.1-1.7-0.1-1.7l1.3,0.9L38.4,36z"/>
				</defs>
				<clipPath id="SVGID_180_">
					<use xlink:href="#SVGID_179_"  style="overflow:visible;"/>
				</clipPath>
				
					<ellipse transform="matrix(0.8748 -0.4845 0.4845 0.8748 -16.0795 21.0904)" class="st89" cx="32.8" cy="41.7" rx="0.3" ry="0.1"/>
			</g>
			<g>
				<defs>
					<path id="SVGID_181_" d="M38.4,36c0,0-1,0.2-1.3,1c-0.3,0.8-2.9,9.7-3.8,10.2c-0.8,0.6-1.9,0.2-2.1,0l0,0c0,0-1.1-0.6-1.2-1.7
						c-0.1-0.7,2.1-4,3.7-6.4l0,0c1-1.4,1.8-2.6,2-2.9c0.4-0.7-0.1-1.7-0.1-1.7l1.3,0.9L38.4,36z"/>
				</defs>
				<clipPath id="SVGID_182_">
					<use xlink:href="#SVGID_181_"  style="overflow:visible;"/>
				</clipPath>
				
					<ellipse transform="matrix(0.8748 -0.4845 0.4845 0.8748 -16.0783 21.0903)" class="st90" cx="32.8" cy="41.7" rx="0.2" ry="0.1"/>
			</g>
			<g>
				<defs>
					<path id="SVGID_183_" d="M38.4,36c0,0-1,0.2-1.3,1c-0.3,0.8-2.9,9.7-3.8,10.2c-0.8,0.6-1.9,0.2-2.1,0l0,0c0,0-1.1-0.6-1.2-1.7
						c-0.1-0.7,2.1-4,3.7-6.4l0,0c1-1.4,1.8-2.6,2-2.9c0.4-0.7-0.1-1.7-0.1-1.7l1.3,0.9L38.4,36z"/>
				</defs>
				<clipPath id="SVGID_184_">
					<use xlink:href="#SVGID_183_"  style="overflow:visible;"/>
				</clipPath>
				
					<ellipse transform="matrix(0.8748 -0.4844 0.4844 0.8748 -16.0789 21.0844)" class="st91" cx="32.8" cy="41.7" rx="0.2" ry="0.1"/>
			</g>
			<g>
				<defs>
					<path id="SVGID_185_" d="M38.4,36c0,0-1,0.2-1.3,1c-0.3,0.8-2.9,9.7-3.8,10.2c-0.8,0.6-1.9,0.2-2.1,0l0,0c0,0-1.1-0.6-1.2-1.7
						c-0.1-0.7,2.1-4,3.7-6.4l0,0c1-1.4,1.8-2.6,2-2.9c0.4-0.7-0.1-1.7-0.1-1.7l1.3,0.9L38.4,36z"/>
				</defs>
				<clipPath id="SVGID_186_">
					<use xlink:href="#SVGID_185_"  style="overflow:visible;"/>
				</clipPath>
				
					<ellipse transform="matrix(0.8748 -0.4844 0.4844 0.8748 -16.0774 21.0844)" class="st92" cx="32.8" cy="41.7" rx="0.1" ry="0.1"/>
			</g>
			<g>
				<defs>
					<path id="SVGID_187_" d="M38.4,36c0,0-1,0.2-1.3,1c-0.3,0.8-2.9,9.7-3.8,10.2c-0.8,0.6-1.9,0.2-2.1,0l0,0c0,0-1.1-0.6-1.2-1.7
						c-0.1-0.7,2.1-4,3.7-6.4l0,0c1-1.4,1.8-2.6,2-2.9c0.4-0.7-0.1-1.7-0.1-1.7l1.3,0.9L38.4,36z"/>
				</defs>
				<clipPath id="SVGID_188_">
					<use xlink:href="#SVGID_187_"  style="overflow:visible;"/>
				</clipPath>
				<ellipse class="st93" cx="32.8" cy="41.7" rx="0" ry="0.1"/>
			</g>
		</g>
	</g>
	
		<radialGradient id="SVGID_189_" cx="76.5983" cy="18.3596" r="1.527" gradientTransform="matrix(0.983 0.1839 0.1839 -0.983 -41.5336 43.7545)" gradientUnits="userSpaceOnUse">
		<stop  offset="0" style="stop-color:#C5C1D4"/>
		<stop  offset="0.9829" style="stop-color:#A592C2"/>
	</radialGradient>
	<path class="st94" d="M35.9,39.4c0,0-1.1,1.6,1,1.9l1.8-1.7c0,0-1.2,0-0.8-1.3L35.9,39.4z"/>
	
		<linearGradient id="SVGID_190_" gradientUnits="userSpaceOnUse" x1="69.3352" y1="15.9492" x2="79.6955" y2="15.9492" gradientTransform="matrix(0.983 0.1839 0.1839 -0.983 -41.5336 43.7545)">
		<stop  offset="0" style="stop-color:#FFFFFF"/>
		<stop  offset="0.9829" style="stop-color:#A563C2"/>
	</linearGradient>
	<path class="st95" d="M40.4,39.4c0,0-1-0.3-1.6,0.2c-0.6,0.5-7.2,7.1-8.3,7.1c-1,0.1-1.7-0.8-1.8-1c0.1,0.1,0.8,0.9,3.6-1.4
		c3-2.4,5.5-5.6,5.3-5.8c-0.1-0.2-2.7,1.3-2.7,1.3l0,0c1.5-0.8,2.8-1.4,3.1-1.6c0.6-0.4,0.8-1.5,0.8-1.5l0.8,1.4L40.4,39.4z"/>
	
		<radialGradient id="SVGID_191_" cx="92.7133" cy="30.3961" r="8.6154" gradientTransform="matrix(0.983 0.1839 0.1839 -0.983 -41.5336 43.7545)" gradientUnits="userSpaceOnUse">
		<stop  offset="0" style="stop-color:#FFFF9A"/>
		<stop  offset="0.5447" style="stop-color:#EE913E"/>
		<stop  offset="0.998" style="stop-color:#E03347"/>
	</radialGradient>
	<path class="st96" d="M49.3,23.6c-0.1,0-0.3-0.1-0.4-0.1c-3.3-0.9-6.9,1.1-8.9,4.4l0,0c-0.4,0.6-0.8,1.4-1,2.2
		c-0.2,0.5-0.3,1.1-0.3,1.6c-0.6,4.2,1.3,8.1,4.7,9.5c0.1,0.1,0.3,0.1,0.4,0.1c4.2,1.3,8.7-1.6,10.2-6.6
		C55.6,29.8,53.5,24.9,49.3,23.6z M39.3,30c1.2-4,4.7-6.4,8.1-5.9h0.1c0.2,0,0.3,0.1,0.5,0.1c3.7,1.1,5.5,5.5,4.1,9.7
		c-1.2,4-4.7,6.4-8.1,5.9l0,0c-0.2,0-0.3-0.1-0.5-0.1C39.9,38.7,37.9,34.4,39.3,30z"/>
	
		<linearGradient id="SVGID_192_" gradientUnits="userSpaceOnUse" x1="84.7295" y1="18.2895" x2="82.58" y2="36.63" gradientTransform="matrix(0.983 0.1839 0.1839 -0.983 -41.5336 43.7545)">
		<stop  offset="0" style="stop-color:#9A1743"/>
		<stop  offset="1" style="stop-color:#C73E2C"/>
	</linearGradient>
	<path class="st97" d="M48.9,23.5c-0.1-0.1-0.3-0.1-0.4-0.1c-4.2-1.3-8.7,1.6-10.2,6.6c-1.5,4.8,0.6,9.9,4.7,11.2
		c0.1,0,0.3,0.1,0.4,0.1c4,1,8.4-1.9,9.8-6.7C54.7,29.7,52.8,25,48.9,23.5z M44,40c-0.2,0-0.3-0.1-0.5-0.1c-3.7-1.1-5.5-5.5-4.1-9.7
		c1.2-4,4.7-6.4,8.1-5.9h0.1c0.2,0,0.3,0.1,0.5,0.1c3.7,1.1,5.5,5.5,4.1,9.7C50.8,38,47.4,40.5,44,40L44,40z"/>
	
		<linearGradient id="SVGID_193_" gradientUnits="userSpaceOnUse" x1="81.5972" y1="19.2418" x2="79.7338" y2="35.1402" gradientTransform="matrix(0.983 0.1839 0.1839 -0.983 -41.5336 43.7545)">
		<stop  offset="0" style="stop-color:#FF6E27"/>
		<stop  offset="0.998" style="stop-color:#E03347"/>
	</linearGradient>
	<path class="st98" d="M43.4,39.8C43.6,40,43.7,40,44,40c-0.2,0-0.5-0.1-0.8-0.2c-3.1-1-5-4.4-4.5-8.1c0.1-0.5,0.2-1.1,0.3-1.7
		c0.2-0.8,0.5-1.5,1-2.2l0,0c1.7-2.7,4.6-4.2,7.4-3.7c-3.3-0.5-6.9,1.9-8.1,5.9C37.9,34.4,39.9,38.7,43.4,39.8z"/>
	
		<radialGradient id="SVGID_194_" cx="84.7357" cy="928.5554" r="7.4312" gradientTransform="matrix(0.983 0.1839 0.206 -1.1014 -227.9811 1039.5146)" gradientUnits="userSpaceOnUse">
		<stop  offset="0.816" style="stop-color:#000000"/>
		<stop  offset="1" style="stop-color:#FCFCFD"/>
	</radialGradient>
	<path class="st99" d="M52.1,34.1c-1.2,4-4.7,6.4-8.1,5.9l0,0c-0.2,0-0.3-0.1-0.5-0.1c-3.7-1.1-5.5-5.5-4.1-9.7
		c1.2-4,4.7-6.4,8.1-5.9h0.1c0.2,0,0.3,0.1,0.5,0.1C51.6,25.5,53.4,29.8,52.1,34.1z"/>
	
		<linearGradient id="SVGID_195_" gradientUnits="userSpaceOnUse" x1="87.423" y1="19.8721" x2="85.5616" y2="35.7541" gradientTransform="matrix(0.983 0.1839 0.1839 -0.983 -41.5336 43.7545)">
		<stop  offset="0" style="stop-color:#FFFFFF"/>
		<stop  offset="0.9829" style="stop-color:#A563C2"/>
	</linearGradient>
	<path class="st100" d="M52.4,34.1c-1.3,4-5,6.6-8.4,5.8c3.3,0.5,6.9-1.9,8.1-5.9c1.3-4.3-0.5-8.6-4.1-9.7c-0.2,0-0.3-0.1-0.5-0.1
		c0.2,0,0.5,0.1,0.8,0.2C51.8,25.5,53.7,29.9,52.4,34.1z"/>
	<path class="st101" d="M30.9,46.4c0,0,2.9-3.7,5.1-4.4C36,41.9,32.6,45.5,30.9,46.4z"/>
	<path class="st102" d="M39.1,33.8c0,0,0.4,2.5,1.7,3.8l0.6-0.4c0,0-1.2-1.7-1.5-3.8L39.1,33.8z"/>
	<path class="st102" d="M41.2,37.8l0.5-0.3l0.6,0.5l-0.5,0.5C41.8,38.6,41.5,38.4,41.2,37.8z"/>
	<path class="st103" d="M46,24.4c0,0-1.1,6.8,5.6,10.2c0.9-2.6,0.6-4.2,0.6-4.2s-0.1-3.6-3-5.3C49.3,25.3,47.6,24.2,46,24.4z"/>
</g>
</svg>
