<?xml version="1.0" encoding="utf-8"?>
<!-- Generator: Adobe Illustrator 24.1.1, SVG Export Plug-In . SVG Version: 6.00 Build 0)  -->
<svg version="1.1" id="Capa_2_1_" xmlns="http://www.w3.org/2000/svg" xmlns:xlink="http://www.w3.org/1999/xlink" x="0px" y="0px"
	 viewBox="0 0 102.653 105.505" enable-background="new 0 0 102.653 105.505" xml:space="preserve">
<path fill="#F50B16" d="M77,37.166"/>
<path fill="#423E3E" d="M66.069,80.77H42.485c-0.804,0-1.455-0.652-1.455-1.455v0c0-0.804,0.652-1.455,1.455-1.455h23.584
	c0.804,0,1.455,0.652,1.455,1.455v0C67.525,80.119,66.873,80.77,66.069,80.77z"/>
<path fill="#423E3E" d="M25.61,74.266H5.331c-0.749,0-1.356-0.607-1.356-1.356V72.71c0-0.749,0.607-1.356,1.356-1.356H25.61
	c0.749,0,1.356,0.607,1.356,1.356v0.199C26.965,73.659,26.358,74.266,25.61,74.266z"/>
<circle fill="#423E3E" cx="84.641" cy="87.899" r="3.156"/>
<circle fill="#423E3E" cx="29.126" cy="87.899" r="3.156"/>
<path fill="#F50B16" d="M40.079,67.048L55.48,51.617c0,0,0.847-1.381-0.178-2.168c0,0-0.98-0.55-2.005,0.119
	c-1.025,0.668-14.191,14.124-14.191,14.124l-7.262-7.129c0,0-1.002-1.092-2.094-0.29c0,0-1.069,0.847-0.223,2.072l8.621,8.703
	C38.149,67.048,39.069,67.798,40.079,67.048z"/>
<path fill="#F50B16" d="M16.528,22.221l0.038-1.001c1.044-0.373,1.019-1.416,1.019-1.416c0.025-0.87-1.118-1.292-1.118-1.292h-3.23
	c-0.994,0.075-1.267,0.77-1.267,0.77c-0.621,1.491,0.944,1.938,0.944,1.938v1.032c-1.88,0.439-3.507,1.528-4.642,3.012H5.163
	c-0.161,0-0.362,0.15-0.362,0.311v0.103c0,0.161,0.093,0.432,0.254,0.432h2.64c-0.339,0.551-0.506,0.983-0.707,1.611H2.531
	c-0.189,0-0.342,0.153-0.342,0.342s0.153,0.342,0.342,0.342h4.27c-0.122,0.538-0.193,1.095-0.203,1.667H4.51
	c-0.139,0-0.252,0.113-0.252,0.252v0.182c0,0.139,0.113,0.252,0.252,0.252h2.108c0.037,0.574,0.132,1.131,0.282,1.667H3.97
	c-0.161,0-0.291,0.13-0.291,0.291v0.103c0,0.161,0.13,0.291,0.291,0.291h3.156c1.169,3.094,4.151,5.299,7.655,5.299
	c4.523,0,8.189-3.667,8.189-8.189C22.97,26.297,20.211,23.022,16.528,22.221z M12.632,19.854c0,0,0.058-0.464,0.439-0.547h3.271
	c0,0,0.398,0.075,0.398,0.588c0,0-0.066,0.555-0.373,0.588h-3.296C13.071,20.483,12.607,20.185,12.632,19.854z M15.721,21.282v0.806
	c-0.309-0.035-0.622-0.058-0.94-0.058c-0.377,0-0.746,0.034-1.11,0.084v-0.832H15.721z M14.781,36.503
	c-3.47,0-6.284-2.813-6.284-6.284c0-3.47,2.813-6.284,6.284-6.284c3.47,0,6.284,2.813,6.284,6.284
	C21.065,33.69,18.251,36.503,14.781,36.503z"/>
<path fill="#F50B16" d="M14.781,28.617c-0.967,0-1.751,0.784-1.751,1.751c0,0.967,0.784,1.751,1.751,1.751s1.751-0.784,1.751-1.751
	C16.532,29.401,15.748,28.617,14.781,28.617z M14.781,31.211c-0.465,0-0.842-0.377-0.842-0.842c0-0.465,0.377-0.842,0.842-0.842
	c0.465,0,0.842,0.377,0.842,0.842C15.623,30.834,15.246,31.211,14.781,31.211z"/>
<path fill="#F50B16" d="M17.301,27.354l-1.825,1.825c-0.149,0.149-0.149,0.392,0,0.541l0.093,0.093c0.149,0.149,0.392,0.149,0.541,0
	l1.825-1.825c0.149-0.149,0.149-0.392,0-0.541l-0.093-0.093C17.693,27.205,17.451,27.205,17.301,27.354z"/>
<path fill="#F50B16" d="M12.552,28.633l1.099,1.099c0.124,0.124,0.324,0.124,0.448,0l0.191-0.191c0.124-0.124,0.124-0.324,0-0.448
	l-0.973-0.973c-0.193-0.193-0.512-0.325-0.706-0.132l-0.064,0.064C12.424,28.177,12.429,28.51,12.552,28.633z"/>
<g>
	<path fill="#423E3E" d="M8.598,67.365c0.257,0.051,0.532,0.029,0.762-0.095c0.295-0.159,0.614-0.428,0.897-0.701V42.996
		c0-0.726-0.588-1.314-1.314-1.314H8.364c-0.726,0-1.314,0.588-1.314,1.314v22.899c0,0.445,0.22,0.871,0.597,1.107
		C7.984,67.212,8.344,67.315,8.598,67.365z"/>
	<path fill="#423E3E" d="M101.436,85.055V68.117c-0.426-5.168-7.178-7.307-7.178-7.307l-2.495-10.277l1.01-0.781
		c0.535-0.84-0.238-4.388-0.238-4.388c-0.416-3.861-5.584-4.752-5.584-4.752H74.297v-4.708c0-1.075-0.871-1.946-1.946-1.946H26.921
		c0,0-1.307,0.267-1.307,1.649c0,1.381,1.292,1.559,1.292,1.559h44.421v28.79c0.409,1.466,1.663,1.411,1.663,1.411
		c1.201-0.058,1.301-1.342,1.307-1.678v-0.082v-1.41l19.426-0.298c2.436,0,4.455,3.802,4.455,3.802s-3.683-0.059-4.99,0
		c-1.307,0.059-1.604,1.01-1.604,1.01l0.119,5.465c0.654,3.386,6.654,3.446,6.654,3.446l-0.119,6.832H94.06
		c-1.407-3.845-5.088-6.594-9.42-6.594s-8.013,2.749-9.42,6.594h-0.924V72.981c-0.119-2.005-1.574-1.894-1.574-1.894
		c-1.314,0.067-1.396,1.938-1.396,1.938v11.428H38.546c-1.407-3.845-5.088-6.594-9.42-6.594s-8.013,2.749-9.42,6.594h-9.448V80.77
		h7.151c0.66,0,1.196-0.535,1.196-1.196v-0.52c0-0.66-0.535-1.196-1.196-1.196H1.918c-0.66,0-1.196,0.535-1.196,1.196v0.52
		c0,0.66,0.535,1.196,1.196,1.196h5.131v3.861c0,1.542,1.25,2.792,2.792,2.792h9.268c-0.007,0.159-0.024,0.315-0.024,0.475
		c0,5.545,4.495,10.04,10.04,10.04s10.04-4.495,10.04-10.04c0-0.16-0.017-0.317-0.024-0.475h35.156c0,0,0.116-0.001,0.328-0.003
		c-0.008,0.16-0.024,0.317-0.024,0.479c0,5.545,4.495,10.04,10.04,10.04s10.04-4.495,10.04-10.04c0-0.233-0.019-0.461-0.035-0.69
		c2.574-0.029,4.379-0.052,4.521-0.06C101.639,87.015,101.436,85.055,101.436,85.055z M74.297,43.818l12.743-0.043
		c2.955,0.52,2.911,3.936,2.911,3.936l-15.653-0.059V43.818z M74.297,61.048V50.592l14.198-0.119L90.99,60.81L74.297,61.048z
		 M30.537,94.977c-5.081,0.963-9.452-3.409-8.489-8.489c0.538-2.839,2.827-5.128,5.666-5.666c5.081-0.963,9.452,3.409,8.489,8.489
		C35.665,92.149,33.376,94.439,30.537,94.977z M86.052,94.977c-5.081,0.963-9.452-3.409-8.489-8.489
		c0.538-2.839,2.827-5.128,5.666-5.666c5.081-0.963,9.452,3.409,8.489,8.489C91.18,92.149,88.891,94.439,86.052,94.977z
		 M98.356,74.533c0,0-2.488,0.286-3.234-0.605c0,0-0.561-0.59-0.42-3.108h3.654V74.533z"/>
</g>
</svg>
