<?xml version="1.0" encoding="utf-8"?>
<!-- Generator: Adobe Illustrator 24.1.1, SVG Export Plug-In . SVG Version: 6.00 Build 0)  -->
<svg version="1.1" id="Capa_3" xmlns="http://www.w3.org/2000/svg" xmlns:xlink="http://www.w3.org/1999/xlink" x="0px" y="0px"
	 viewBox="0 0 102.653 105.505" enable-background="new 0 0 102.653 105.505" xml:space="preserve">
<path fill="#303030" d="M69.983,56.867c-0.49-0.802-16.463-29.829-16.463-29.829s-0.683-0.735-1.366-0.735
	c0,0-1.195,0.134-1.686,1.114l-7.262,13.455c0,0-0.802,1.715,0.334,2.295c1.136,0.579,2.183-0.089,2.272-0.223
	s4.723-8.688,4.723-8.688L50.446,48.58l-0.201,0.735c0,0,2.451,0.022,2.517,0s0.891-0.267,0.891-0.267l0.156,0.022l0.045-14.792
	l12.899,23.347c0,0-6.139,6.807-7.612,15.096H45.088c-0.618-6.888-7.593-14.822-7.593-14.822l2.376-4.107
	c0.475-1.286-0.698-2.1-0.698-2.1c-1.411-0.52-2.361,0.475-2.361,0.475l-3.03,5.525c-0.535,1.247,1.248,2.228,1.248,2.228
	c4.105,3.277,6.26,10.248,6.935,12.802h-1.44c-3.035,0-5.495,2.46-5.495,5.495c0,2.229,1.33,4.144,3.238,5.006v15.222
	c0,0.82,0.665,1.485,1.485,1.485s1.485-0.665,1.485-1.485V83.711h21.683v14.733c0,0.82,0.665,1.485,1.485,1.485
	s1.485-0.665,1.485-1.485V83.222c1.908-0.862,3.238-2.777,3.238-5.006c0-3.035-2.46-5.495-5.495-5.495h-1.442
	c0.412-2.025,1.823-6.976,6.343-12.045c0,0,1.47-1.337,1.626-1.693S70.473,57.669,69.983,56.867z M63.823,76.137
	c1.142,0,2.068,0.926,2.068,2.068v0.022c0,1.142-0.926,2.068-2.068,2.068H40.335c-1.142,0-2.068-0.926-2.068-2.068v-0.022
	c0-1.142,0.926-2.068,2.068-2.068H63.823z"/>
<path fill="#F50B16" d="M52.079,48.29c-3.445,0-6.238,2.793-6.238,6.238s2.793,6.238,6.238,6.238s6.238-2.793,6.238-6.238
	S55.524,48.29,52.079,48.29z M52.079,58.263c-2.12,0-3.839-1.719-3.839-3.839s1.719-3.839,3.839-3.839s3.839,1.719,3.839,3.839
	S54.199,58.263,52.079,58.263z"/>
<circle fill="#F50B16" cx="41.312" cy="47.444" r="1.782"/>
<g>
	<path fill="#303030" d="M5.505,53.474V64.82c0,0.722,0.585,1.307,1.307,1.307h11.822c0.722,0,1.307-0.585,1.307-1.307V53.474
		c0-0.722-0.585-1.307-1.307-1.307h-4.515H6.812C6.09,52.167,5.505,52.752,5.505,53.474z M8.059,54.424h9.475v9.475H8.059V54.424z"
		/>
	<path fill="#303030" d="M85.599,21.454h11.822c0.722,0,1.307-0.585,1.307-1.307V8.8c0-0.722-0.585-1.307-1.307-1.307H85.599
		c-0.722,0-1.307,0.585-1.307,1.307v4.871H59.297V8.8c0-0.722-0.585-1.307-1.307-1.307H46.168c-0.722,0-1.307,0.585-1.307,1.307
		v4.871H19.941V8.8c0-0.722-0.585-1.307-1.307-1.307H6.812c-0.722,0-1.307,0.585-1.307,1.307v11.346
		c0,0.722,0.585,1.307,1.307,1.307h11.822c0.722,0,1.307-0.585,1.307-1.307v-4.782h20.515c-8.447,2.276-25.974,10.161-29.063,36.692
		l2.726,0.11c0,0,3.259-30.27,30.743-35.433v3.413c0,0.722,0.585,1.307,1.307,1.307H57.99c0.722,0,1.307-0.585,1.307-1.307v-3.368
		c4.018,0.611,28.871,5.583,31.218,35.388h-4.99c-0.722,0-1.307,0.585-1.307,1.307V64.82c0,0.722,0.585,1.307,1.307,1.307h11.822
		c0.722,0,1.307-0.585,1.307-1.307V53.474c0-0.722-0.585-1.307-1.307-1.307H93.04c0,0-0.922-30.387-30.452-36.802h21.705v4.782
		C84.292,20.869,84.877,21.454,85.599,21.454z M86.847,9.751h9.475v9.475h-9.475V9.751z M17.535,19.226H8.059V9.751h9.475V19.226z
		 M56.891,19.226h-9.475V9.751h9.475V19.226z M96.247,54.424v9.475h-9.475v-9.475H96.247z"/>
</g>
</svg>
