<?xml version="1.0" encoding="utf-8"?>
<!-- Generator: Adobe Illustrator 26.0.0, SVG Export Plug-In . SVG Version: 6.00 Build 0)  -->
<svg version="1.1" id="digital" xmlns="http://www.w3.org/2000/svg" xmlns:xlink="http://www.w3.org/1999/xlink" x="0px" y="0px"
	 viewBox="0 0 357.9 400" style="enable-background:new 0 0 357.9 400;" xml:space="preserve">
<style type="text/css">
	.st0{fill:url(#SVGID_1_);}
	.st1{fill:url(#SVGID_00000034050734954614057560000002911584534549629576_);}
	.st2{fill:#197DE5;}
	.st3{fill:#001B8D;}
	.st4{fill:#31A8FF;}
	.st5{fill:#002D95;}
	.st6{fill:#0037A2;}
	.st7{fill:#0041AE;}
	.st8{fill:#58FFFE;}
	.st9{fill:#00379F;}
	.st10{opacity:0.1;fill:url(#SVGID_00000147195989242317030750000005619053443693589934_);enable-background:new    ;}
	.st11{fill:#FFFFFF;}
	.st12{fill:#D49AF0;}
	.st13{fill-rule:evenodd;clip-rule:evenodd;fill:#0041AE;}
	.st14{fill-rule:evenodd;clip-rule:evenodd;fill:#197DE5;}
</style>
<g>
	<g>
		
			<linearGradient id="SVGID_1_" gradientUnits="userSpaceOnUse" x1="-1155.0385" y1="600.9832" x2="-1132.5812" y2="598.6229" gradientTransform="matrix(-1 0 0 1 -845.5602 -390.7244)">
			<stop  offset="0" style="stop-color:#0056E5"/>
			<stop  offset="7.120000e-02" style="stop-color:#136EE9"/>
			<stop  offset="0.202" style="stop-color:#3293F0"/>
			<stop  offset="0.3389" style="stop-color:#4BB2F5"/>
			<stop  offset="0.4814" style="stop-color:#5ECAFA"/>
			<stop  offset="0.6321" style="stop-color:#6CDBFD"/>
			<stop  offset="0.7965" style="stop-color:#74E5FE"/>
			<stop  offset="1" style="stop-color:#77E8FF"/>
		</linearGradient>
		<path class="st0" d="M270.3,367c7.1,0.6,20.2,0,23-9.7l8.6-80.1l1.3-12.5l21.4-199.2c-0.6-8.4-12.2-15.9-20.1-16.6l-21.2,196.9
			l-5.4,50.2L270.3,367z"/>
		
			<linearGradient id="SVGID_00000036220830427755328490000002343987051700178366_" gradientUnits="userSpaceOnUse" x1="115.2411" y1="598.597" x2="316.2177" y2="598.597" gradientTransform="matrix(1 0 0 1 0 -390.7244)">
			<stop  offset="0" style="stop-color:#1558FF"/>
			<stop  offset="0.3858" style="stop-color:#232321"/>
			<stop  offset="1" style="stop-color:#F73535"/>
		</linearGradient>
		<path style="fill:url(#SVGID_00000036220830427755328490000002343987051700178366_);" d="M127.7,355.4l141.2,11.5
			c7.3,0.6,13.8-4.7,14.6-12l32.6-291.1c0.9-8.4-5.9-15.6-14.3-15.1l-135.5,8.5c-6.4,0.4-11.7,5.3-12.6,11.6l-0.9,6.7l-11.7,82.7
			l-10.7,75.7l-4.8,33.6L115.4,340C114.3,347.7,119.9,354.8,127.7,355.4z"/>
		<path class="st2" d="M130.2,339c0.8,0.3,1.7,0.5,2.6,0.5l134.7,8.9c5,0.3,9.4-3.3,9.9-8.3l29.9-267c0.2-2-0.2-3.9-1.1-5.6h0
			c-1.6-3-4.9-5-8.6-4.8l-129,6.3c-4.5,0.2-8.2,3.6-8.8,8l-35.6,251.7C123.5,333.4,126.2,337.5,130.2,339z"/>
		<path class="st3" d="M130.2,339c0.8,0.3,1.7,0.5,2.6,0.5l134.7,8.9c5,0.3,9.4-3.3,9.9-8.3l1-8.6l29-258.3c0.2-2-0.2-3.9-1.1-5.6h0
			c-1.1-0.4-2.4-0.6-3.7-0.6l-129,6.3c-4.5,0.2-8.2,3.6-8.8,8l-34.1,241.2l-1.5,10.5C128.8,335.2,129.3,337.3,130.2,339z"/>
	</g>
	<path class="st4" d="M260.3,58.2l0,0.3c-0.2,1.2-1.1,2.1-2.3,2.2l-54.7,2.7c-1.4,0.1-2.6-1.1-2.6-2.5l0,0c0-1.3,1-2.4,2.3-2.5
		l54.8-3C259.3,55.3,260.5,56.7,260.3,58.2z"/>
	<path class="st2" d="M296.8,88.5l-8.9,70.1c-0.5,4-3.9,7-7.9,7L170.1,166c-4.9,0-8.7-4.3-7.9-9.2l9.6-65.3c0.5-3.4,3.3-5.9,6.7-6.1
		l111-5C293.8,80.3,297.3,84.1,296.8,88.5z"/>
	<path class="st5" d="M282.1,212.7l-2.3,18.8c-0.5,4.1-4,7.1-8.1,6.9l-109.8-4c-4.6-0.2-8.1-4.3-7.5-8.9l2.3-17.6c0.5-4,4-7,8-6.9
		l109.7,2.9C279.1,203.9,282.6,208,282.1,212.7z"/>
	<path class="st3" d="M246.9,138.4h32.6c1.7,0,3.1-1.2,3.3-2.9l3.8-30c0.3-2-1.4-3.8-3.4-3.7l-32.8,1.4c-1.6,0.1-2.9,1.3-3.1,2.9
		l-3.6,28.6C243.4,136.6,244.9,138.4,246.9,138.4z"/>
	<path class="st6" d="M275.8,253.1l-2.3,18.7c-0.5,4.1-4.1,7.1-8.2,6.9l-109.6-5.4c-4.6-0.2-8-4.3-7.4-8.9l2.3-17.1
		c0.5-4,4-7,8.1-6.9l109.6,3.7C272.9,244.5,276.4,248.5,275.8,253.1z"/>
	<path class="st7" d="M295.9,95.7l-125.4,4.7l1.5-10c0.4-2.7,2.7-4.8,5.4-4.9L291,80.4c3.6-0.2,6.4,2.9,6,6.5L295.9,95.7z"/>
	<path class="st8" d="M176.6,93.6l3.3,3.6l4.1-2l0.8-5.2l-3.3-3.2l-4.2,2.6L176.6,93.6z M178.9,91.7c0.2-1.2,1.1-2,1.9-1.9
		c0.9,0.1,1.5,1.2,1.3,2.4c-0.2,1.2-1.1,2-1.9,1.9C179.3,94,178.8,92.9,178.9,91.7z"/>
	<path class="st9" d="M130.2,339c0.8,0.3,1.7,0.5,2.6,0.5l134.7,8.9c5,0.3,9.4-3.3,9.9-8.3l1-8.6l-147.8-8.9l-1.5,10.5
		C128.8,335.2,129.3,337.3,130.2,339z"/>
	<path class="st9" d="M184.3,327.8c-0.6,7.6,4.4,14.2,11,14.7c6.7,0.5,12.6-5.3,13.1-12.9c0.6-7.6-4.4-14.2-11-14.7
		C190.8,314.4,184.9,320.1,184.3,327.8z"/>
	<path class="st8" d="M190.8,326.4l-0.9,7.2l10.9,0.8l1-7.3l2.6,0.2l-7.6-6.7l-8.5,5.7L190.8,326.4z M193.4,330.5
		c0.1-1.4,1.1-2.5,2.2-2.4c1.1,0.1,1.9,1.3,1.8,2.7c-0.1,1.4-1.1,2.5-2.2,2.4C194.1,333.1,193.3,331.9,193.4,330.5z"/>
	
		<radialGradient id="SVGID_00000096777458060167289300000006563642939238337423_" cx="-883.4755" cy="819.6173" r="16.8032" gradientTransform="matrix(-0.9479 -3.200000e-02 -2.710000e-02 0.8009 -619.0218 -357.4872)" gradientUnits="userSpaceOnUse">
		<stop  offset="0" style="stop-color:#02689B"/>
		<stop  offset="1" style="stop-color:#000000"/>
	</radialGradient>
	<path style="opacity:0.1;fill:url(#SVGID_00000096777458060167289300000006563642939238337423_);enable-background:new    ;" d="
		M180.3,326.7c-0.3,7.4,6.7,13.7,15.5,14s16.1-5.5,16.4-12.9c0.3-7.4-6.7-13.7-15.5-14S180.5,319.2,180.3,326.7z"/>
	<g>
		<path class="st11" d="M153.1,336.8c0.2,0,0.4-0.1,0.6-0.2c0.4-0.3,0.4-0.9,0.1-1.3l-2.5-2.9l3.3-3c0.4-0.3,0.4-0.9,0.1-1.3
			c-0.3-0.4-0.9-0.4-1.3-0.1l-4.6,4.1l3.7,4.2C152.6,336.7,152.9,336.8,153.1,336.8z"/>
	</g>
	<g>
		<path class="st11" d="M244.6,342.1c0.2,0,0.4-0.1,0.5-0.2l4.9-3.7l-4-4.7c-0.3-0.4-0.9-0.4-1.2-0.1c-0.4,0.3-0.4,0.9-0.1,1.2
			l2.7,3.3l-3.4,2.5c-0.4,0.3-0.5,0.8-0.2,1.2C244,342,244.3,342.1,244.6,342.1z"/>
	</g>
	<g>
		<path class="st8" d="M261.8,114c-0.1,2,1.2,3.7,2.8,3.7c1.7,0.1,3.1-1.4,3.2-3.4c0.1-2-1.2-3.7-2.8-3.7
			C263.3,110.5,261.9,112,261.8,114z"/>
		<path class="st8" d="M264.6,118.6c2.9,0.2,5.2,3.1,5,6.6l-10.7-0.1C259.1,121.6,261.6,118.4,264.6,118.6z"/>
	</g>
	<g>
		<g>
			<polygon class="st8" points="241.1,136.4 244.6,103.6 243.8,103.5 240.4,135.5 179.6,134.4 179.6,135.2 			"/>
		</g>
		<g>
			<polygon class="st8" points="209.8,124 220,123 240.9,116.2 240.6,115.4 219.8,122.1 210,123.1 199.6,117.4 179.7,115.4 
				179.7,116.2 199.5,118.2 			"/>
		</g>
		<path class="st8" d="M237.6,115.5c-0.2,1.4,0.6,2.7,1.8,2.9c1.2,0.1,2.2-0.9,2.4-2.4c0.2-1.4-0.6-2.7-1.8-2.9
			C238.8,113,237.7,114,237.6,115.5z"/>
		<path class="st8" d="M217.9,122.8c-0.2,1.4,0.6,2.7,1.8,2.9c1.2,0.1,2.2-0.9,2.4-2.4c0.2-1.4-0.6-2.7-1.8-2.9
			C219.1,120.3,218,121.3,217.9,122.8z"/>
		<path class="st12" d="M207.8,123.4c-0.2,1.4,0.6,2.7,1.8,2.9c1.2,0.1,2.2-0.9,2.4-2.4s-0.6-2.7-1.8-2.9
			C209.1,120.9,208,121.9,207.8,123.4z"/>
		<path class="st8" d="M197.2,118.1c-0.2,1.4,0.6,2.7,1.8,2.9c1.2,0.1,2.2-0.9,2.4-2.4c0.2-1.4-0.6-2.7-1.8-2.9
			C198.5,115.6,197.4,116.7,197.2,118.1z"/>
		<path class="st12" d="M177.5,115.5c-0.2,1.4,0.6,2.7,1.8,2.9c1.2,0.1,2.2-0.9,2.4-2.4c0.2-1.4-0.6-2.7-1.8-2.9
			C178.7,113,177.6,114,177.5,115.5z"/>
	</g>
	<polygon class="st13" points="217.5,107.1 240.6,106.4 241,103.8 217.9,104.5 	"/>
	<polygon class="st13" points="250.6,144.4 273.8,144.5 274.2,141.9 251,141.8 	"/>
	<polygon class="st14" points="160,207.7 183.1,208.4 183.5,205.8 160.4,205.1 	"/>
	<polygon class="st14" points="243.4,314.1 266.8,315.2 267.2,312.6 243.7,311.5 	"/>
	<polygon class="st14" points="253.4,318.9 266.4,319.5 266.8,316.9 253.8,316.3 	"/>
	<polygon class="st14" points="159.7,211.7 171.7,212.1 172.1,209.5 160,209.1 	"/>
</g>
<g>
	<path class="st11" d="M191.9,89.7c-1.2,0-2,1-2,2.2c0,1.2,1,2.1,2.2,2c0.6,0,1.3-0.4,1.7-0.9l0.9,0.9c-0.7,0.8-1.7,1.3-2.7,1.3
		c-2,0.1-3.6-1.4-3.7-3.3c-0.1-2,1.4-3.5,3.5-3.6c1,0,2,0.4,2.7,1l-0.8,1.1C193.2,90,192.5,89.7,191.9,89.7z"/>
	<path class="st11" d="M198.7,94.9l0-0.6c-0.3,0.5-0.9,0.7-1.6,0.7c-1.1,0-1.8-0.6-1.9-1.6c0-1,0.6-1.6,1.9-1.7l1.4-0.1l0-0.1
		c0-0.6-0.4-0.9-1.1-0.8c-0.5,0-1,0.2-1.5,0.5l-0.5-1c0.8-0.4,1.4-0.7,2.3-0.7c1.4-0.1,2.2,0.6,2.3,1.8l0.1,3.4L198.7,94.9z
		 M198.6,93.2l0-0.5l-1.2,0c-0.6,0-0.8,0.2-0.8,0.6c0,0.4,0.3,0.6,0.8,0.6C198,94,198.5,93.6,198.6,93.2z"/>
	<path class="st11" d="M204.7,94.4c-0.4,0.2-0.9,0.4-1.3,0.4c-0.9,0-1.7-0.5-1.7-1.5l-0.1-2.4l-0.7,0l0-1l0.7,0l-0.1-1.4l1.5-0.1
		l0.1,1.4l1.4-0.1l0,1l-1.4,0.1l0.1,2.2c0,0.4,0.2,0.6,0.5,0.6c0.2,0,0.4-0.1,0.7-0.2L204.7,94.4z"/>
	<path class="st11" d="M208.6,94.6l0-0.6c-0.3,0.5-0.9,0.7-1.6,0.7c-1.1,0-1.8-0.6-1.9-1.6c0-1,0.6-1.6,1.9-1.7l1.4-0.1l0-0.1
		c0-0.6-0.4-0.9-1.1-0.8c-0.5,0-1,0.2-1.5,0.5l-0.5-1c0.8-0.4,1.4-0.7,2.3-0.7c1.4-0.1,2.2,0.6,2.3,1.8l0.1,3.4L208.6,94.6z
		 M208.5,92.8l0-0.5l-1.2,0c-0.6,0-0.8,0.2-0.8,0.6c0,0.4,0.3,0.6,0.8,0.6C208,93.6,208.4,93.2,208.5,92.8z M207.9,88.7l-1.2,0
		l1-1.6l1.4,0.5L207.9,88.7z"/>
	<path class="st11" d="M212.6,87.2l0.3,7.2l-1.5,0.1l-0.3-7.2L212.6,87.2z"/>
	<path class="st11" d="M219.4,91.5c0.1,1.6-1,2.7-2.7,2.8c-1.7,0.1-2.8-1-2.9-2.6c-0.1-1.6,1-2.7,2.7-2.8
		C218.2,88.9,219.4,89.9,219.4,91.5z M215.3,91.7c0,0.9,0.6,1.4,1.4,1.4c0.8,0,1.3-0.6,1.2-1.5c0-0.9-0.6-1.4-1.4-1.4
		C215.8,90.2,215.3,90.8,215.3,91.7z"/>
	<path class="st11" d="M225.2,88.7l0.2,4.7c0.1,1.5-1,2.5-2.7,2.5c-0.9,0-1.7-0.2-2.3-0.6l0.5-1.1c0.5,0.3,1.1,0.5,1.6,0.5
		c0.9,0,1.4-0.5,1.4-1.2l0-0.6c-0.3,0.5-0.9,0.8-1.5,0.8c-1.3,0.1-2.3-0.9-2.4-2.4c-0.1-1.5,0.8-2.5,2.1-2.6c0.7,0,1.3,0.2,1.6,0.7
		l0-0.7L225.2,88.7z M223.8,91.2c0-0.8-0.5-1.3-1.3-1.3c-0.7,0-1.2,0.6-1.2,1.4c0,0.8,0.5,1.3,1.3,1.3
		C223.4,92.6,223.9,92,223.8,91.2z"/>
	<path class="st11" d="M231.8,91c0.1,1.6-1,2.7-2.7,2.8c-1.7,0.1-2.8-1-2.9-2.6c-0.1-1.6,1-2.7,2.7-2.8
		C230.6,88.4,231.8,89.4,231.8,91z M227.7,91.2c0,0.9,0.6,1.4,1.4,1.4c0.8,0,1.3-0.6,1.2-1.5c0-0.9-0.6-1.4-1.4-1.4
		C228.2,89.7,227.7,90.3,227.7,91.2z"/>
	<path class="st11" d="M236.5,86.6l1.6,5.1l1.2-5.2l1.5-0.1l1.6,5.1l1.2-5.2l1.6-0.1l-2,6.9l-1.6,0.1l-1.6-4.8l-1.2,4.9l-1.6,0.1
		l-2.5-6.7L236.5,86.6z"/>
	<path class="st11" d="M250.3,90.7l-3.7,0.1c0.2,0.7,0.7,1,1.4,1c0.5,0,1-0.2,1.3-0.6l0.8,0.8c-0.5,0.6-1.3,1-2.2,1
		c-1.7,0.1-2.8-1-2.8-2.5c-0.1-1.6,1-2.7,2.6-2.8C249.5,87.7,250.4,88.8,250.3,90.7z M248.9,89.9c0-0.7-0.5-1.1-1.2-1.1
		c-0.7,0-1.1,0.5-1.2,1.2L248.9,89.9z"/>
	<path class="st11" d="M256.9,90.1c0.1,1.6-0.9,2.7-2.3,2.7c-0.7,0-1.3-0.2-1.7-0.7l0,0.8l-1.5,0.1l-0.3-7.2l1.5-0.1l0.1,2.7
		c0.3-0.5,0.9-0.9,1.6-0.9C255.8,87.4,256.9,88.4,256.9,90.1z M255.4,90.1c0-0.8-0.6-1.4-1.3-1.4c-0.8,0-1.3,0.6-1.2,1.5
		c0,0.9,0.6,1.4,1.4,1.4C255,91.5,255.5,90.9,255.4,90.1z"/>
</g>
</svg>
