<?xml version="1.0" encoding="utf-8"?>
<!-- Generator: Adobe Illustrator 24.1.1, SVG Export Plug-In . SVG Version: 6.00 Build 0)  -->
<svg version="1.1" id="Capa_3" xmlns="http://www.w3.org/2000/svg" xmlns:xlink="http://www.w3.org/1999/xlink" x="0px" y="0px"
	 viewBox="0 0 357.851 400" enable-background="new 0 0 357.851 400" xml:space="preserve">
<g>
	
		<ellipse transform="matrix(0.1107 -0.9939 0.9939 0.1107 52.7286 449.6924)" opacity="0.05" fill-rule="evenodd" clip-rule="evenodd" fill="#197DE5" enable-background="new    " cx="277.652" cy="195.381" rx="34.217" ry="23.714"/>
	
		<ellipse transform="matrix(0.1107 -0.9939 0.9939 0.1107 54.0129 434.0181)" fill-rule="evenodd" clip-rule="evenodd" fill="#19E0FF" cx="269.536" cy="186.827" rx="34.217" ry="23.714"/>
	<path fill-rule="evenodd" clip-rule="evenodd" fill="#19B8FF" d="M251.298,211.26c3.163,4.84,7.461,8.01,12.464,8.58
		c11.887,1.35,23.217-12.51,25.286-30.96c2.079-18.45-5.879-34.5-17.766-35.85c-11.798-1.34-23.018,12.27-25.236,30.48
		c-0.02,0.16-0.04,0.32-0.06,0.48C244.783,194.68,246.951,204.57,251.298,211.26z"/>
	<path fill-rule="evenodd" clip-rule="evenodd" fill="#CC3232" d="M267.519,186.434l-7.786-34.191c0,0-13.585,6.195-17.486,30.691
		L267.519,186.434z"/>
	<path fill-rule="evenodd" clip-rule="evenodd" fill="#197DE5" d="M257.502,219.781c0,0-5.148-2.559-7.136-7.081l17.154-26.267
		L257.502,219.781z"/>
	<polygon fill-rule="evenodd" clip-rule="evenodd" fill="#199FFF" points="267.519,186.434 259.624,218.717 261.722,219.893 
		257.502,219.781 	"/>
	<polygon fill-rule="evenodd" clip-rule="evenodd" fill="#E14192" points="263.732,154.182 259.734,152.243 267.519,186.434 
		262.037,154.8 	"/>
	<path fill="#D49AF0" d="M251.298,211.26l16.224-24.83l-21.476-2.92c-0.02,0.16-0.04,0.32-0.06,0.48
		C244.783,194.68,246.951,204.57,251.298,211.26z"/>
</g>
</svg>
