<?xml version="1.0" encoding="utf-8"?>
<!-- Generator: Adobe Illustrator 24.1.1, SVG Export Plug-In . SVG Version: 6.00 Build 0)  -->
<svg version="1.1" id="Capa_5" xmlns="http://www.w3.org/2000/svg" xmlns:xlink="http://www.w3.org/1999/xlink" x="0px" y="0px"
	 viewBox="0 0 357.851 400" enable-background="new 0 0 357.851 400" xml:space="preserve">
<g>
	<g>
		<g>
			
				<radialGradient id="SVGID_1_" cx="-185.7272" cy="102.5253" r="56.4506" gradientTransform="matrix(-1 0 0 1 -111.5602 0)" gradientUnits="userSpaceOnUse">
				<stop  offset="0" style="stop-color:#000000"/>
				<stop  offset="1" style="stop-color:#02B3C4"/>
			</radialGradient>
			<path opacity="0.32" fill="url(#SVGID_1_)" d="M141.522,67.751l-8.889,70.092c-0.505,3.985-3.888,6.978-7.905,6.995
				L14.79,145.291c-4.898,0.02-8.664-4.325-7.949-9.17l9.646-65.338c0.497-3.364,3.309-5.903,6.705-6.054l110.97-4.961
				C138.561,59.57,142.076,63.384,141.522,67.751z"/>
			<path fill="#58FFFE" d="M14.849,145.291l109.938-0.453c4.017-0.016,7.4-3.009,7.905-6.995l8.889-70.092
				c0.119-0.94,0.04-1.85-0.185-2.704c0.812,1.32,1.207,2.918,0.994,4.6L133.5,139.74c-0.505,3.985-3.888,6.978-7.905,6.995
				l-109.938,0.453c-3.733,0.015-6.802-2.508-7.737-5.853C9.307,143.689,11.865,145.303,14.849,145.291z"/>
		</g>
		<g>
			<path fill="#58FFFE" d="M22.817,62.777L31,62.548c1.313-0.037,2.4-1.017,2.555-2.303l0.907-7.519
				c0.191-1.584-1.089-2.966-2.706-2.921l-8.184,0.229c-1.313,0.037-2.4,1.017-2.555,2.303l-0.907,7.519
				C19.92,61.441,21.2,62.823,22.817,62.777z"/>
			<path fill="#F73535" d="M22.715,62.463l7.877-0.223c1.264-0.036,2.31-0.992,2.46-2.248l0.873-7.337
				c0.184-1.546-1.048-2.894-2.604-2.85l-7.877,0.223c-1.264,0.036-2.31,0.992-2.46,2.248l-0.873,7.337
				C19.927,61.159,21.159,62.507,22.715,62.463z"/>
			<g>
				<path fill="#FFFFFF" d="M23.783,59.219c0.232,0,0.463-0.087,0.641-0.262l6.017-5.907c0.361-0.354,0.366-0.934,0.013-1.294
					c-0.354-0.361-0.934-0.367-1.294-0.012l-6.018,5.907c-0.361,0.354-0.366,0.934-0.013,1.294
					C23.309,59.127,23.545,59.219,23.783,59.219z"/>
			</g>
			<g>
				<path fill="#FFFFFF" d="M29.4,59.489c0.223,0,0.445-0.08,0.621-0.243c0.371-0.343,0.395-0.922,0.051-1.293l-5.164-5.59
					c-0.343-0.372-0.923-0.394-1.293-0.051c-0.371,0.343-0.395,0.922-0.051,1.293l5.164,5.59
					C28.908,59.39,29.154,59.489,29.4,59.489z"/>
			</g>
		</g>
		<g>
			<polygon fill="#58FFFE" points="124.83,176.571 124.832,175.763 56.394,175.635 60.909,144.59 60.109,144.474 55.46,176.442 
				55.926,176.442 			"/>
		</g>
		<path fill="#58FFFE" d="M122.297,175.88c-0.196,1.734,0.779,3.268,2.179,3.426c1.4,0.158,2.693-1.119,2.889-2.853
			c0.196-1.734-0.78-3.268-2.179-3.426C123.787,172.869,122.493,174.147,122.297,175.88z"/>
		<path fill="#58FFFE" d="M57.737,144.967c-0.196,1.734,0.78,3.268,2.179,3.426c1.4,0.158,2.693-1.119,2.889-2.853
			c0.196-1.734-0.779-3.268-2.179-3.426C59.227,141.956,57.933,143.233,57.737,144.967z"/>
	</g>
	<g>
		
			<ellipse transform="matrix(0.1124 -0.9937 0.9937 0.1124 -35.1184 155.4984)" opacity="0.5" fill="#58FFFE" cx="69.48" cy="97.406" rx="22.576" ry="18.223"/>
		<path fill="#58FFFE" d="M60.7,96.453c-0.652,5.764,2.591,10.863,7.244,11.389c4.653,0.526,8.953-3.72,9.605-9.484
			c0.652-5.764-2.591-10.863-7.244-11.389C65.652,86.444,61.352,90.69,60.7,96.453z"/>
		<path fill="#58FFFE" d="M100.162,108.414c-0.196,1.734,0.779,3.268,2.179,3.426c1.4,0.158,2.693-1.119,2.889-2.853
			c0.196-1.734-0.779-3.268-2.179-3.426C101.651,105.403,100.358,106.68,100.162,108.414z"/>
		<path fill="#58FFFE" d="M36.631,112.419c-0.196,1.734,0.779,3.268,2.179,3.426c1.399,0.158,2.693-1.119,2.889-2.853
			c0.196-1.734-0.779-3.268-2.179-3.426C38.121,109.408,36.828,110.685,36.631,112.419z"/>
		<path fill="#F73535" d="M36.631,95.517c-0.196,1.734,0.779,3.268,2.179,3.426c1.399,0.158,2.693-1.119,2.889-2.853
			c0.196-1.734-0.779-3.268-2.179-3.426C38.121,92.506,36.828,93.784,36.631,95.517z"/>
		<path fill="#D49AF0" d="M89.154,83.9c-0.196,1.734,0.779,3.268,2.179,3.426c1.4,0.158,2.693-1.119,2.889-2.853
			c0.196-1.734-0.779-3.268-2.179-3.426C90.643,80.889,89.35,82.166,89.154,83.9z"/>
		<g>
			<path fill="#FFFFFF" d="M69.85,100.466l3.359-3.271c0.287-0.279,0.292-0.737,0.014-1.023c-0.279-0.286-0.737-0.294-1.023-0.014
				l-2.23,2.172l-3.971-4.834c-0.254-0.31-0.709-0.354-1.019-0.1c-0.309,0.253-0.354,0.709-0.1,1.018L69.85,100.466z"/>
		</g>
		<g>
			<polygon fill="#58FFFE" points="79.711,108.549 100.162,108.549 100.162,108.28 79.804,108.28 75.044,104.563 74.878,104.775 			
				"/>
		</g>
		<g>
			<polygon fill="#58FFFE" points="75.067,89.54 79.382,84.035 89.154,84.035 89.154,83.765 79.251,83.765 74.855,89.374 			"/>
		</g>
		<g>
			<polygon fill="#58FFFE" points="60.561,97.524 60.694,97.289 58.342,95.956 41.7,95.956 41.7,96.225 58.271,96.225 			"/>
		</g>
		<g>
			<polygon fill="#58FFFE" points="41.7,113.127 61.524,113.127 65.554,106.612 65.325,106.471 61.374,112.858 41.7,112.858 			"/>
		</g>
	</g>
</g>
</svg>
