<?xml version="1.0" encoding="utf-8"?>
<!-- Generator: Adobe Illustrator 24.1.1, SVG Export Plug-In . SVG Version: 6.00 Build 0)  -->
<svg version="1.1" id="Capa_4" xmlns="http://www.w3.org/2000/svg" xmlns:xlink="http://www.w3.org/1999/xlink" x="0px" y="0px"
	 viewBox="0 0 357.851 400" enable-background="new 0 0 357.851 400" xml:space="preserve">
<g>
	
		<linearGradient id="SVGID_1_" gradientUnits="userSpaceOnUse" x1="-800.7252" y1="149.7173" x2="-800.7252" y2="240.8508" gradientTransform="matrix(-1 0 0 -1 -593.5602 401.2756)">
		<stop  offset="0" style="stop-color:#58FFFE"/>
		<stop  offset="1" style="stop-color:#002D95"/>
	</linearGradient>
	<path opacity="0.04" fill-rule="evenodd" clip-rule="evenodd" fill="url(#SVGID_1_)" enable-background="new    " d="
		M187.228,204.488c-1.897,25.152,5.491,46.215,16.502,47.045s21.475-18.886,23.372-44.038c1.897-25.152-5.491-46.215-16.502-47.045
		C199.589,159.62,189.125,179.336,187.228,204.488z"/>
	<g>
		
			<ellipse transform="matrix(0.1442 -0.9895 0.9895 0.1442 9.8458 358.4512)" fill-rule="evenodd" clip-rule="evenodd" fill="#AE41E2" cx="212.157" cy="173.533" rx="13.826" ry="10.433"/>
		
			<ellipse transform="matrix(0.1442 -0.9895 0.9895 0.1442 5.5467 351.7156)" fill-rule="evenodd" clip-rule="evenodd" fill="#F73535" cx="206.114" cy="172.651" rx="17.484" ry="13.193"/>
		<path fill-rule="evenodd" clip-rule="evenodd" fill="#F73535" d="M191.237,150.579l17.896,4.851l-4.287,34.627
			c0,0-16.212-0.24-19.802-0.559L191.237,150.579z"/>
		
			<ellipse transform="matrix(0.1442 -0.9895 0.9895 0.1442 -8.1126 330.3331)" fill-rule="evenodd" clip-rule="evenodd" fill="#A42D6F" cx="186.922" cy="169.857" rx="19.969" ry="15.068"/>
		
			<linearGradient id="SVGID_2_" gradientUnits="userSpaceOnUse" x1="-802.8805" y1="317.0726" x2="-722.8322" y2="317.0726" gradientTransform="matrix(-0.9896 -0.1442 0.1442 -0.9896 -641.7332 364.9298)">
			<stop  offset="0.004" style="stop-color:#197DE5"/>
			<stop  offset="0.227" style="stop-color:#1770D9"/>
			<stop  offset="0.6976" style="stop-color:#135AC5"/>
			<stop  offset="1" style="stop-color:#1252BD"/>
		</linearGradient>
		<path fill="url(#SVGID_2_)" d="M111.175,211.17l48.292-14.936l28.023-8.665c9.76-2.998,15.967-27.319,5.217-35.813l-24.229-19.376
			l-40.952-32.762L111.175,211.17z"/>
		
			<ellipse transform="matrix(0.1442 -0.9895 0.9895 0.1442 -61.2112 236.007)" fill="#E14192" cx="105.839" cy="153.392" rx="63.442" ry="38.006"/>
		
			<ellipse transform="matrix(0.1442 -0.9895 0.9895 0.1442 -63.789 231.9699)" fill="#F73535" cx="102.216" cy="152.864" rx="63.442" ry="38.006"/>
		
			<linearGradient id="SVGID_3_" gradientUnits="userSpaceOnUse" x1="-696.6594" y1="199.7388" x2="-696.6594" y2="309.8897" gradientTransform="matrix(-0.9999 -0.0133 0.0133 -0.9999 -597.7675 398.3901)">
			<stop  offset="0.004" style="stop-color:#58FFFE"/>
			<stop  offset="0.2734" style="stop-color:#48DAF1"/>
			<stop  offset="0.5843" style="stop-color:#39B6E5"/>
			<stop  offset="0.8377" style="stop-color:#2FA0DE"/>
			<stop  offset="1" style="stop-color:#2C98DB"/>
		</linearGradient>
		<path fill="url(#SVGID_3_)" d="M68.479,164.259c0.812,23.073,10.941,41.25,25.743,43.407c8.694,1.266,17.425-3.228,24.637-11.602
			c2.885-3.332,5.518-7.277,7.817-11.727c0,0,0,0,0.01-0.01c3.952-7.638,6.894-16.73,8.347-26.681
			c0.22-1.537,0.401-3.085,0.552-4.623c0.035-0.35,0.069-0.699,0.094-1.059c0.082-0.909,0.144-1.818,0.196-2.718
			c0.733-13.732-1.74-26.266-6.567-35.521c-4.544-8.701-11.158-14.5-19.123-15.656c-13.625-1.992-27.328,10.167-35.162,29.174
			c-0.01,0.01-0.01,0.01-0.01,0.01c-2.584,6.276-4.538,13.311-5.628,20.827C68.571,153.629,68.288,159.066,68.479,164.259z"/>
		<path opacity="0.3" fill="#A4A0E5" enable-background="new    " d="M103.524,164.116c0.536,15.299,6.42,27.788,15.335,31.947
			c2.885-3.332,5.518-7.277,7.817-11.727c0,0,0,0,0.01-0.01c3.952-7.638,6.894-16.73,8.347-26.681
			c0.22-1.537,0.401-3.085,0.552-4.623c0.035-0.35,0.069-0.699,0.094-1.059c0.082-0.909,0.144-1.818,0.196-2.718
			c0.733-13.732-1.74-26.266-6.567-35.521c-8.248,2.04-15.949,10.348-20.766,22.025c-0.01,0-0.01,0-0.01,0
			c-1.984,4.814-3.477,10.215-4.313,15.974C103.593,155.977,103.377,160.144,103.524,164.116z"/>
		<path opacity="0.3" fill="#A4A0E5" enable-background="new    " d="M69.383,148.08c-0.809,5.552-1.096,10.989-0.907,16.175
			c14.513-8.559,32.353-15.218,43.085-5.142c16.958,15.922,15.248,24.54,15.121,25.218c3.955-7.638,6.901-16.738,8.35-26.688
			c0.224-1.538,0.406-3.081,0.552-4.616c0.038-0.357,0.068-0.708,0.098-1.066c0.075-0.906,0.143-1.812,0.189-2.715
			c1.424-26.652-9.25-48.785-25.685-51.18c-13.624-1.985-27.325,10.167-35.161,29.177c-0.008,0.006-0.008,0.006-0.008,0.006
			C72.426,133.53,70.477,140.565,69.383,148.08z"/>
		
			<linearGradient id="SVGID_4_" gradientUnits="userSpaceOnUse" x1="-720.2031" y1="295.0985" x2="-720.2031" y2="336.5433" gradientTransform="matrix(-0.9896 -0.1442 0.1442 -0.9896 -641.7332 364.9298)">
			<stop  offset="0" style="stop-color:#0043B3"/>
			<stop  offset="0.2159" style="stop-color:#004BB8"/>
			<stop  offset="0.5528" style="stop-color:#0061C7"/>
			<stop  offset="0.9667" style="stop-color:#0085DE"/>
			<stop  offset="0.996" style="stop-color:#0088E0"/>
		</linearGradient>
		<path fill="url(#SVGID_4_)" d="M100.753,135.566l35.001,2.541c1.074,13.05-0.962,27.662-6.592,40.924l-33.284-10.004
			L100.753,135.566z"/>
		
			<linearGradient id="SVGID_5_" gradientUnits="userSpaceOnUse" x1="-701.619" y1="300.1984" x2="-701.619" y2="334.0119" gradientTransform="matrix(-0.9896 -0.1442 0.1442 -0.9896 -641.7332 364.9298)">
			<stop  offset="0" style="stop-color:#00349A"/>
			<stop  offset="0.2474" style="stop-color:#003CA1"/>
			<stop  offset="0.6322" style="stop-color:#0052B3"/>
			<stop  offset="0.996" style="stop-color:#006DC9"/>
		</linearGradient>
		<path fill="url(#SVGID_5_)" d="M88.293,150.836c-1.346,9.24,2.05,17.385,7.585,18.191c5.535,0.807,11.114-6.031,12.46-15.271
			c1.346-9.24-2.05-17.385-7.585-18.191C95.217,134.759,89.639,141.596,88.293,150.836z"/>
		
			<linearGradient id="SVGID_6_" gradientUnits="userSpaceOnUse" x1="-699.8462" y1="304.2307" x2="-699.8462" y2="329.9784" gradientTransform="matrix(-0.9896 -0.1442 0.1442 -0.9896 -641.7332 364.9298)">
			<stop  offset="0.004" style="stop-color:#58FFFE"/>
			<stop  offset="0.2734" style="stop-color:#48DAF1"/>
			<stop  offset="0.5843" style="stop-color:#39B6E5"/>
			<stop  offset="0.8377" style="stop-color:#2FA0DE"/>
			<stop  offset="1" style="stop-color:#2C98DB"/>
		</linearGradient>
		<path fill="url(#SVGID_6_)" d="M88.929,150.929c-1.025,7.036,1.561,13.238,5.776,13.852c4.215,0.614,8.463-4.592,9.488-11.628
			s-1.561-13.238-5.776-13.852C94.202,138.686,89.954,143.893,88.929,150.929z"/>
	</g>
</g>
</svg>
