<?xml version="1.0" encoding="utf-8"?>
<!-- Generator: Adobe Illustrator 24.1.1, SVG Export Plug-In . SVG Version: 6.00 Build 0)  -->
<svg version="1.1" id="Capa_2" xmlns="http://www.w3.org/2000/svg" xmlns:xlink="http://www.w3.org/1999/xlink" x="0px" y="0px"
	 viewBox="0 0 357.851 400" enable-background="new 0 0 357.851 400" xml:space="preserve">
<g>
	<path opacity="0.12" fill-rule="evenodd" clip-rule="evenodd" fill="#197DE5" d="M246,304.224c-0.09,0-0.19,0.01-0.28,0.01
		c0.17,0.01,0.35,0.03,0.52,0.03c0.89,0.04,1.77,0.01,2.65-0.06c0.82,0.11,1.66,0.19,2.51,0.22c0.01,0,0.01,0,0.01,0
		c7.75,0.28,14.97-2.95,20.55-8.49c1.41-1.4,2.72-2.94,3.9-4.61c3.08-4.32,5.33-9.51,6.49-15.21c0.01-0.01,0.02-0.01,0.03-0.02
		l13.35,0.67c0.06,0.15,0.12,0.29,0.18,0.44l1.34-12.48c-0.15,0.19-0.29,0.4-0.43,0.62l-13.65-0.69c-0.41-7.03-2.5-13.53-5.8-18.89
		c-0.98-1.62-2.09-3.14-3.29-4.54c-5.19-6.02-12.2-9.82-20.03-10.11h-0.01c-0.9-0.03-1.79-0.01-2.68,0.05
		c-0.83-0.12-1.66-0.2-2.51-0.23c-15.91-0.58-29.39,15.37-30.12,35.61C218.01,286.704,230.2,303.514,246,304.224z M249.34,297.124
		c0.2,0.02,0.4,0.04,0.61,0.05c-0.19-0.01-0.37-0.03-0.56-0.04C249.38,297.134,249.36,297.134,249.34,297.124z"/>
	<g>
		<path fill="#6FE0F6" d="M213.026,262.832c-0.73,20.243,12.332,37.148,29.178,37.755c9.713,0.35,18.566-4.803,24.455-13.108
			c3.175-4.467,5.486-9.851,6.61-15.784c0.409-2.156,0.666-4.385,0.748-6.665c0.73-20.243-12.332-37.148-29.171-37.755
			C228,226.668,213.755,242.588,213.026,262.832z M218.679,263.035c0.586-16.268,11.424-29.088,24.203-28.627
			c12.786,0.461,22.672,14.028,22.086,30.296c-0.587,16.273-11.424,29.088-24.21,28.627
			C227.978,292.87,218.092,279.309,218.679,263.035z"/>
		<g>
			<path fill="#7CFFF6" d="M240.2,293.292c-0.19-0.001-0.379,0.005-0.57-0.002c-12.779-0.461-22.665-14.022-22.079-30.296
				c0.586-16.268,11.424-29.088,24.203-28.627c0.191,0.007,0.379,0.026,0.568,0.039c-12.529-0.065-23.056,12.604-23.633,28.63
				C218.111,279.066,227.698,292.456,240.2,293.292z"/>
			<path fill="#7CFFF6" d="M265.531,287.438c3.175-4.467,5.486-9.851,6.611-15.784c0.409-2.156,0.666-4.385,0.748-6.665
				c0.721-20.014-12.04-36.754-28.603-37.717c0.19,0.003,0.379-0.004,0.57,0.003c16.839,0.607,29.901,17.512,29.171,37.755
				c-0.082,2.28-0.339,4.508-0.748,6.665c-1.124,5.933-3.436,11.316-6.61,15.784c-5.889,8.305-14.742,13.458-24.455,13.108
				c-0.14-0.005-0.277-0.02-0.417-0.028C251.227,300.636,259.789,295.537,265.531,287.438z"/>
		</g>
		
			<radialGradient id="SVGID_1_" cx="-386.5281" cy="255.7947" r="24.5225" gradientTransform="matrix(-1.267 -0.0457 -0.036 0.9994 -238.6967 -9.4378)" gradientUnits="userSpaceOnUse">
			<stop  offset="0" style="stop-color:#000000"/>
			<stop  offset="0.1056" style="stop-color:#000A0B"/>
			<stop  offset="0.2911" style="stop-color:#002528"/>
			<stop  offset="0.5344" style="stop-color:#015058"/>
			<stop  offset="0.8229" style="stop-color:#028B99"/>
			<stop  offset="1" style="stop-color:#02B3C4"/>
		</radialGradient>
		<path opacity="0.22" fill="url(#SVGID_1_)" d="M218.681,263.033c-0.587,16.274,9.3,29.835,22.079,30.296
			c12.786,0.461,23.623-12.354,24.21-28.627c0.586-16.268-9.3-29.835-22.086-30.296
			C230.105,233.946,219.268,246.765,218.681,263.033z"/>
		<path opacity="0.5" fill-rule="evenodd" clip-rule="evenodd" fill="#197DE5" d="M256.003,285.869l10.656,1.609
			c3.175-4.467,5.486-9.851,6.61-15.784l-5.12-5.39L256.003,285.869z"/>
		<path fill="#197DE5" d="M209.537,262.706c-0.73,20.244,11.571,37.12,27.474,37.693c15.903,0.573,29.387-15.373,30.116-35.617
			c0.73-20.244-11.571-37.12-27.474-37.693C223.75,226.515,210.266,242.461,209.537,262.706z M214.368,262.88
			c0.607-16.848,11.829-30.118,25.063-29.641c13.235,0.477,23.472,14.521,22.864,31.369s-11.829,30.118-25.063,29.641
			C223.997,293.772,213.761,279.727,214.368,262.88z"/>
		<g>
			<path fill="#4DD1FF" d="M236.589,294.208c-0.177-0.001-0.352,0.004-0.53-0.002c-13.235-0.477-23.471-14.521-22.864-31.369
				c0.607-16.848,11.829-30.118,25.063-29.641c0.177,0.006,0.352,0.025,0.528,0.036c-13.003-0.109-23.935,13.022-24.534,29.643
				S223.612,293.381,236.589,294.208z"/>
			<path fill="#4DD1FF" d="M266.107,264.771c0.721-20.018-11.3-36.732-26.945-37.657c0.177,0.002,0.352-0.004,0.53,0.002
				c15.903,0.573,28.204,17.449,27.474,37.693c-0.73,20.244-14.213,36.19-30.116,35.617c-0.177-0.006-0.352-0.026-0.528-0.036
				C252.191,300.594,265.386,284.789,266.107,264.771z"/>
		</g>
		<path fill="#7CFFF6" d="M268.149,266.303c-0.01,3.139,1.644,5.709,3.695,5.741c2.051,0.032,3.721-2.487,3.731-5.626
			c0.01-3.139-1.644-5.709-3.695-5.741C269.829,260.646,268.158,263.164,268.149,266.303z"/>
		<polygon fill="#7CFFF6" points="271.262,271.569 298.368,272.932 299.008,262.072 271.902,260.709 		"/>
		<path fill="#6FCEF6" d="M268.127,266.892c-0.01,3.139,1.644,5.709,3.695,5.741c2.051,0.032,3.721-2.487,3.731-5.626
			c0.01-3.139-1.644-5.709-3.695-5.741C269.808,261.235,268.137,263.753,268.127,266.892z"/>
		<polygon fill="#6FCEF6" points="271.241,272.158 298.346,273.521 298.987,262.661 271.881,261.298 		"/>
		
			<linearGradient id="SVGID_2_" gradientUnits="userSpaceOnUse" x1="-446.4833" y1="278.8931" x2="-415.8142" y2="238.1938" gradientTransform="matrix(-0.9994 -0.036 -0.036 0.9994 -102.484 -4.0866)">
			<stop  offset="0" style="stop-color:#0020A9"/>
			<stop  offset="1" style="stop-color:#F73535"/>
		</linearGradient>
		<path fill="url(#SVGID_2_)" d="M292.495,258.436l53.634-0.144l-2.394,25.405l-52.351-6.402c-3.405-0.171-5.915-4.532-5.608-9.739
			C286.082,262.348,289.091,258.265,292.495,258.436z"/>
		<path opacity="0.5" fill="#65B1DB" d="M292.544,258.45l53.634-0.144l0,0l-52.841,0.737c-3.404-0.171-6.413,3.912-6.72,9.119
			c-0.212,3.601,0.924,6.795,2.77,8.48c-2.303-1.426-3.804-4.983-3.563-9.073C286.131,262.361,289.14,258.279,292.544,258.45z"/>
		<path fill="#001B8D" d="M337.091,270.557c-0.413,7.004,2.964,12.869,7.543,13.099c4.579,0.23,8.626-5.261,9.038-12.265
			c0.413-7.004-2.964-12.869-7.543-13.099C341.55,258.061,337.504,263.553,337.091,270.557z"/>
		<path fill-rule="evenodd" clip-rule="evenodd" fill="#FFFFFF" d="M221.804,251.536c-1.421,4.829-0.005,9.247,3.163,9.868
			c3.168,0.621,6.888-2.789,8.309-7.617c1.421-4.829,0.005-9.247-3.163-9.868C226.945,243.297,223.225,246.708,221.804,251.536z"/>
		<path fill-rule="evenodd" clip-rule="evenodd" fill="#FFFFFF" d="M221.352,265.4c-0.058,1.612,1.178,2.966,2.761,3.023
			c1.583,0.057,2.914-1.204,2.972-2.816c0.058-1.612-1.178-2.966-2.761-3.023C222.741,262.527,221.41,263.787,221.352,265.4z"/>
	</g>
</g>
</svg>
