<?xml version="1.0" encoding="utf-8"?>
<!-- Generator: Adobe Illustrator 26.0.0, SVG Export Plug-In . SVG Version: 6.00 Build 0)  -->
<svg version="1.1" id="Capa_6" xmlns="http://www.w3.org/2000/svg" xmlns:xlink="http://www.w3.org/1999/xlink" x="0px" y="0px"
	 viewBox="0 0 357.9 400" style="enable-background:new 0 0 357.9 400;" xml:space="preserve">
<style type="text/css">
	.st0{fill:#00235E;}
	.st1{fill:url(#SVGID_1_);}
	.st2{fill:url(#SVGID_00000123414583344421151730000008913351554047492483_);}
	.st3{fill:url(#SVGID_00000029011819911872828670000010225036342361702321_);}
	.st4{fill:url(#SVGID_00000099647333077321286570000014931819034934650754_);}
	.st5{fill:url(#SVGID_00000116230315571315415040000000250229895714120113_);}
	.st6{fill:url(#SVGID_00000088128026175244230980000015593004223723898799_);}
	.st7{fill:url(#SVGID_00000050656595952853362210000013641271951472197265_);}
	.st8{fill:url(#SVGID_00000102542039781898930150000009003019423684602527_);}
	.st9{fill:url(#SVGID_00000162349963124186072050000015364307712370833814_);}
	.st10{fill:url(#SVGID_00000134939799015978770170000017277677324633046671_);}
	.st11{fill:url(#SVGID_00000072248597022106760880000009449911297372196015_);}
	.st12{fill:#F6F6E0;}
</style>
<g>
	<g>
		<path class="st0" d="M105,271.1c-8.8,16-3.1,39.8,12.7,53c15.9,13.2,35.9,11,44.7-5.1c8.8-16,3.1-39.8-12.7-53
			C133.9,252.7,113.8,255,105,271.1z"/>
		
			<linearGradient id="SVGID_1_" gradientUnits="userSpaceOnUse" x1="105.7726" y1="658.4225" x2="160.0437" y2="712.6938" gradientTransform="matrix(1 0 0 1 0 -390)">
			<stop  offset="0" style="stop-color:#003665"/>
			<stop  offset="1" style="stop-color:#003060"/>
		</linearGradient>
		<path class="st1" d="M104.2,271.6c-8.8,16-3.1,39.8,12.7,53c15.9,13.2,35.9,11,44.7-5.1c8.8-16,3.1-39.8-12.7-53
			C133,253.3,113,255.6,104.2,271.6z"/>
		
			<linearGradient id="SVGID_00000154423302545763957370000017661663586721486500_" gradientUnits="userSpaceOnUse" x1="104.8726" y1="659.0226" x2="159.1438" y2="713.2938" gradientTransform="matrix(1 0 0 1 0 -390)">
			<stop  offset="0" style="stop-color:#004A6D"/>
			<stop  offset="1" style="stop-color:#003D62"/>
		</linearGradient>
		<path style="fill:url(#SVGID_00000154423302545763957370000017661663586721486500_);" d="M103.3,272.2c-8.8,16-3.1,39.8,12.7,53
			c15.9,13.2,35.9,11,44.7-5.1c8.8-16,3.1-39.8-12.7-53C132.1,253.9,112.1,256.2,103.3,272.2z"/>
		
			<linearGradient id="SVGID_00000077314620282808767960000010546690269059827120_" gradientUnits="userSpaceOnUse" x1="103.9592" y1="659.6091" x2="158.2437" y2="713.8938" gradientTransform="matrix(1 0 0 1 0 -390)">
			<stop  offset="0" style="stop-color:#005D74"/>
			<stop  offset="1" style="stop-color:#004964"/>
		</linearGradient>
		<path style="fill:url(#SVGID_00000077314620282808767960000010546690269059827120_);" d="M102.4,272.8c-8.8,16-3.1,39.8,12.7,53
			c15.9,13.2,35.9,11,44.7-5.1c8.8-16,3.1-39.8-12.7-53C131.3,254.5,111.2,256.7,102.4,272.8z"/>
		
			<linearGradient id="SVGID_00000007405866149604785840000003127952834497760936_" gradientUnits="userSpaceOnUse" x1="103.0726" y1="660.2226" x2="157.3438" y2="714.4938" gradientTransform="matrix(1 0 0 1 0 -390)">
			<stop  offset="0" style="stop-color:#00707B"/>
			<stop  offset="1" style="stop-color:#005666"/>
		</linearGradient>
		<path style="fill:url(#SVGID_00000007405866149604785840000003127952834497760936_);" d="M101.5,273.4c-8.8,16-3.1,39.8,12.7,53
			c15.9,13.2,35.9,11,44.7-5.1c8.8-16,3.1-39.8-12.7-53C130.4,255,110.4,257.3,101.5,273.4z"/>
		
			<linearGradient id="SVGID_00000030482785630744847220000005361991251718787768_" gradientUnits="userSpaceOnUse" x1="102.2726" y1="660.7225" x2="156.5437" y2="714.9938" gradientTransform="matrix(1 0 0 1 0 -390)">
			<stop  offset="0" style="stop-color:#008482"/>
			<stop  offset="1" style="stop-color:#006368"/>
		</linearGradient>
		<path style="fill:url(#SVGID_00000030482785630744847220000005361991251718787768_);" d="M100.7,273.9c-8.8,16-3.1,39.8,12.7,53
			c15.9,13.2,35.9,11,44.7-5.1c8.8-16,3.1-39.8-12.7-53C129.5,255.6,109.5,257.9,100.7,273.9z"/>
		
			<linearGradient id="SVGID_00000001659630651860850220000002008098669220129412_" gradientUnits="userSpaceOnUse" x1="101.3726" y1="661.3226" x2="155.6438" y2="715.5938" gradientTransform="matrix(1 0 0 1 0 -390)">
			<stop  offset="0" style="stop-color:#00978A"/>
			<stop  offset="1" style="stop-color:#00706B"/>
		</linearGradient>
		<path style="fill:url(#SVGID_00000001659630651860850220000002008098669220129412_);" d="M99.8,274.5c-8.8,16-3.1,39.8,12.7,53
			c15.9,13.2,35.9,11,44.7-5.1c8.8-16,3.1-39.8-12.7-53C128.6,256.2,108.6,258.5,99.8,274.5z"/>
		
			<linearGradient id="SVGID_00000101802164752920110640000003369894089926320517_" gradientUnits="userSpaceOnUse" x1="100.4754" y1="661.9255" x2="154.7438" y2="716.1937" gradientTransform="matrix(1 0 0 1 0 -390)">
			<stop  offset="0" style="stop-color:#00AB91"/>
			<stop  offset="1" style="stop-color:#007D6D"/>
		</linearGradient>
		<path style="fill:url(#SVGID_00000101802164752920110640000003369894089926320517_);" d="M98.9,275.1c-8.8,16-3.1,39.8,12.7,53
			c15.9,13.2,35.9,11,44.7-5.1c8.8-16,3.1-39.8-12.7-53S107.8,259,98.9,275.1z"/>
		
			<linearGradient id="SVGID_00000039120074794846969150000015585606199257728936_" gradientUnits="userSpaceOnUse" x1="99.6533" y1="662.5033" x2="153.9438" y2="716.7938" gradientTransform="matrix(1 0 0 1 0 -390)">
			<stop  offset="0" style="stop-color:#00BE98"/>
			<stop  offset="1" style="stop-color:#008A6F"/>
		</linearGradient>
		<path style="fill:url(#SVGID_00000039120074794846969150000015585606199257728936_);" d="M98.1,275.7c-8.8,16-3.1,39.8,12.7,53
			c15.9,13.2,35.9,11,44.7-5.1c8.8-16,3.1-39.8-12.7-53C126.9,257.3,106.9,259.6,98.1,275.7z"/>
		
			<linearGradient id="SVGID_00000023979806940277604510000007709339902728110754_" gradientUnits="userSpaceOnUse" x1="98.7726" y1="663.0226" x2="153.0437" y2="717.2938" gradientTransform="matrix(1 0 0 1 0 -390)">
			<stop  offset="0" style="stop-color:#00D19F"/>
			<stop  offset="1" style="stop-color:#009671"/>
		</linearGradient>
		<path style="fill:url(#SVGID_00000023979806940277604510000007709339902728110754_);" d="M97.2,276.2c-8.8,16-3.1,39.8,12.7,53
			c15.9,13.2,35.9,11,44.7-5.1c8.8-16,3.1-39.8-12.7-53C126,257.9,106,260.2,97.2,276.2z"/>
		
			<linearGradient id="SVGID_00000038388761963693976850000006254694840885075120_" gradientUnits="userSpaceOnUse" x1="97.8917" y1="663.6417" x2="152.1437" y2="717.8938" gradientTransform="matrix(1 0 0 1 0 -390)">
			<stop  offset="0" style="stop-color:#00E5A7"/>
			<stop  offset="1" style="stop-color:#00A373"/>
		</linearGradient>
		<path style="fill:url(#SVGID_00000038388761963693976850000006254694840885075120_);" d="M96.3,276.8c-8.8,16-3.1,39.8,12.7,53
			c15.9,13.2,35.9,11,44.7-5.1c8.8-16,3.1-39.8-12.7-53C125.2,258.5,105.2,260.8,96.3,276.8z"/>
		
			<linearGradient id="SVGID_00000054983761068078373940000004539436294435007165_" gradientUnits="userSpaceOnUse" x1="-566.1434" y1="251.1075" x2="-519.8096" y2="297.4413" gradientTransform="matrix(-0.1218 -0.9925 0.9925 -0.1218 -214.1519 -204.1476)">
			<stop  offset="0" style="stop-color:#00F8AE"/>
			<stop  offset="1" style="stop-color:#00B075"/>
		</linearGradient>
		<path style="fill:url(#SVGID_00000054983761068078373940000004539436294435007165_);" d="M95.5,277.4c-8.8,16-3.1,39.8,12.7,53
			c15.9,13.2,35.9,11,44.7-5.1c8.8-16,3.1-39.8-12.7-53C124.3,259.1,104.3,261.3,95.5,277.4z"/>
	</g>
</g>
<g>
	<path class="st12" d="M122.5,287.4c1,0.8,1.4,2.6,1.8,3.7c0.4,1.2,0.9,2.7,0.3,3.5c-0.4,0.6-1.7,0.4-2.3,0.5
		c-0.3,0.1-0.4,0.4-0.3,0.9c0.8,3.7,2.5,7.2,5,10.4c0.4,0.5,0.7,0.7,1.1,0.6c0.6-0.2,1.3-0.4,2.1-0.1s1.6,1.3,2.3,2
		c0.8,1,2,2.2,2.4,3.4c0.4,1.1,0,2-0.7,2.4c-1.1,0.7-2.8,0.3-4.3-0.7c-0.4-0.3-0.9-0.6-1.3-1c-1-0.9-1.9-2-2.8-3.1
		c-0.6-0.8-1.3-1.7-1.8-2.6c-1.9-2.9-3.5-6-4.6-9.1c-0.6-1.6-1-3.2-1.3-4.7c-0.3-1.7-0.6-3.3-0.2-4.7c0.5-1.4,1.6-2.5,3.2-2.2
		C121.6,286.8,122.1,287,122.5,287.4z"/>
	<path class="st12" d="M105.7,288.1c-0.4,3.5,0.1,7.6,1.4,11.7l-4.3,9.8l11.5,3.7c2.9,3.6,6.2,6.7,9.7,8.8c11.4,7,21.7,3,23-8.8
		s-6.9-27.1-18.3-34.1C117.3,272.3,107,276.3,105.7,288.1z M128.2,283.4c9.2,5.7,15.9,18.1,14.9,27.7s-9.4,12.8-18.6,7.1
		c-3-1.9-6-4.6-8.4-7.9l-0.7-0.9l-6.4-2.1l2.4-5.5l-0.3-1c-1.3-3.6-1.7-7.2-1.4-10.3C110.6,280.9,119,277.7,128.2,283.4z"/>
</g>
</svg>
