<?xml version="1.0" encoding="utf-8"?>
<!-- Generator: Adobe Illustrator 24.1.1, SVG Export Plug-In . SVG Version: 6.00 Build 0)  -->
<svg version="1.1" xmlns="http://www.w3.org/2000/svg" xmlns:xlink="http://www.w3.org/1999/xlink" x="0px" y="0px"
	 viewBox="0 0 103.842 105.505" enable-background="new 0 0 103.842 105.505" xml:space="preserve">
<g id="Capa_1">
</g>
<g id="Capa_2">
	<path fill="#423E3E" d="M96.285,51.11C95.296,28.288,76.983,9.964,54.164,8.961V5.006h-3.882V8.96
		C27.438,9.935,9.095,28.269,8.106,51.11H3.753v3.882h4.352c0.989,22.841,19.333,41.174,42.178,42.149v3.307h3.882v-3.307
		c22.818-1.003,41.132-19.327,42.121-42.149h3.922V51.11H96.285z M19.026,76.771c-1.121-1.565-2.136-3.211-3.03-4.93v-7.221
		c0.056-3.319,3.432-3.516,3.432-3.516h5.316c0.337,0.056,0.141,1.772,0.141,1.772c-2.954,2.672-2.082,4.473-2.082,4.473
		c2.504,6.02,4.782,4.866,4.782,4.866c1.941-1.519,3.629-4.979,3.629-4.979c0.225-1.885-1.716-4.163-1.716-4.163
		c-0.422-0.703,0.056-1.828,0.056-1.828h5.119c3.376,0.028,3.179,3.629,3.179,3.629v11.899H19.026z M29.497,47.615
		c0.844,1.603,5.021,2.743,5.021,2.743v1.013c-0.97,5.823-6.793,6.499-6.793,6.499c-0.76,0.127-1.224-0.001-1.224-0.001
		c-5.19,0.084-7.131-6.498-7.131-6.498L29.497,47.615z M25.616,40.273c0,0,1.983-0.675,3.333,0c0,0,4.937,1.519,5.57,6.287
		c0,0,0.127,0.759,0,1.055c0,0-4.726-2.194-5.443-3.882c0,0-1.688,3.207-9.704,4.515C19.371,48.248,18.865,41.877,25.616,40.273z
		 M27.388,68.332c-0.253,0.084-1.603,0.45-1.772-1.716l0.478-2.278h1.294c0,0,0.591,1.378,0.703,2.222
		C28.203,67.404,27.641,68.248,27.388,68.332z M54.164,93.79v-3.975h-3.882v3.975c-11.484-0.53-21.72-5.816-28.805-13.925h19.075
		l-0.007-9.359h22.566v9.359h19.802C75.841,87.962,65.626,93.245,54.164,93.79z M54.568,38.256c0.844,1.603,5.021,2.743,5.021,2.743
		v1.013c-0.97,5.823-6.793,6.499-6.793,6.499c-0.76,0.127-1.224-0.001-1.224-0.001c-5.19,0.084-7.131-6.498-7.131-6.498
		L54.568,38.256z M50.686,30.915c0,0,1.983-0.675,3.333,0c0,0,4.937,1.519,5.57,6.287c0,0,0.127,0.759,0,1.055
		c0,0-4.726-2.194-5.443-3.882c0,0-1.688,3.207-9.704,4.515C44.442,38.889,43.935,32.518,50.686,30.915z M52.458,58.973
		c-0.253,0.084-1.603,0.45-1.772-1.716l0.478-2.278h1.294c0,0,0.591,1.378,0.703,2.222C53.274,58.045,52.712,58.889,52.458,58.973z
		 M49.814,51.744c0.338,0.056,0.141,1.772,0.141,1.772c-2.954,2.672-2.082,4.473-2.082,4.473c2.504,6.02,4.782,4.866,4.782,4.866
		c1.941-1.519,3.629-4.979,3.629-4.979c0.225-1.885-1.716-4.163-1.716-4.163c-0.422-0.703,0.056-1.828,0.056-1.828h5.119
		c3.376,0.028,3.179,3.629,3.179,3.629v11.899H41.066V55.26c0.056-3.319,3.432-3.516,3.432-3.516H49.814z M87.696,64.872v8.266
		c-0.712,1.255-1.495,2.464-2.331,3.632H65.84V64.619c0.056-3.319,3.432-3.516,3.432-3.516h5.316
		c0.338,0.056,0.141,1.772,0.141,1.772c-2.954,2.672-2.082,4.473-2.082,4.473c2.504,6.02,4.782,4.866,4.782,4.866
		c1.941-1.519,3.629-4.979,3.629-4.979c0.225-1.885-1.716-4.163-1.716-4.163c-0.422-0.703,0.056-1.828,0.056-1.828h5.119
		C87.893,61.272,87.696,64.872,87.696,64.872z M79.342,47.615c0.844,1.603,5.021,2.743,5.021,2.743v1.013
		c-0.97,5.823-6.793,6.499-6.793,6.499c-0.76,0.127-1.224-0.001-1.224-0.001c-5.19,0.084-7.131-6.498-7.131-6.498L79.342,47.615z
		 M75.46,40.273c0,0,1.983-0.675,3.333,0c0,0,4.937,1.519,5.57,6.287c0,0,0.127,0.759,0,1.055c0,0-4.726-2.194-5.443-3.882
		c0,0-1.688,3.207-9.704,4.515C69.216,48.248,68.709,41.877,75.46,40.273z M77.232,68.332c-0.253,0.084-1.603,0.45-1.772-1.716
		l0.478-2.278h1.294c0,0,0.591,1.378,0.703,2.222C78.048,67.404,77.485,68.248,77.232,68.332z M92.934,54.992
		c-0.203,4.336-1.093,8.49-2.546,12.369l-0.002-3.136c0,0-0.382-4.444-4.207-5.176h-1.8l-0.45-1.631c0,0,2.982-2.644,3.207-5.795
		c0.225-3.15-0.281-12.883-7.314-14.121c0,0-6.245-1.013-8.832,1.519c0,0-5.682,3.994-4.838,12.939c0,0,1.35,3.713,3.797,5.148
		l-1.025,1.941c0,0-2.042-0.113-2.21,0.113c-0.061,0.081-0.524,0.456-1.097,1.007l-0.004-5.302c0,0-0.382-4.444-4.207-5.176h-1.8
		l-0.45-1.631c0,0,2.982-2.644,3.207-5.795c0.225-3.15-0.281-12.883-7.314-14.121c0,0-6.245-1.013-8.832,1.519
		c0,0-5.682,3.994-4.838,12.939c0,0,1.35,3.713,3.797,5.148l-1.025,1.941c0,0-2.042-0.113-2.21,0.113
		c-0.169,0.225-3.432,2.7-3.601,5.007v5.144c-0.533-0.417-1.186-0.749-2.005-0.905h-1.8l-0.45-1.631c0,0,2.982-2.644,3.207-5.795
		c0.225-3.15-0.281-12.883-7.314-14.121c0,0-6.245-1.013-8.832,1.519c0,0-5.682,3.994-4.838,12.939c0,0,1.35,3.713,3.797,5.148
		l-1.025,1.941c0,0-2.042-0.113-2.21,0.113c-0.169,0.225-3.432,2.7-3.601,5.007v1.048c-1.016-3.253-1.645-6.678-1.811-10.225h2.93
		V51.11h-2.929c0.984-20.99,17.831-37.83,38.825-38.799v3.328h3.882v-3.327c20.968,0.997,37.786,17.826,38.769,38.798h-3.359v3.882
		H92.934z"/>
	<path fill="#F50B16" d="M80.577,9.057h15.19v15.527h3.713V7.285c0,0,0.225-1.435-1.828-1.744L80.577,5.625V9.057z"/>
	<path fill="#F50B16" d="M23.984,96.932H8.794V81.405H5.081v17.299c0,0-0.225,1.435,1.828,1.744l17.074-0.084V96.932z"/>
	<path fill="#F50B16" d="M8.468,24.517V9.328h15.527V5.615H6.696c0,0-1.435-0.225-1.744,1.828l0.084,17.074H8.468z"/>
	<path fill="#F50B16" d="M95.986,81.471v15.19H80.458v3.713h17.299c0,0,1.435,0.225,1.744-1.828l-0.084-17.074H95.986z"/>
</g>
</svg>
