<?xml version="1.0" encoding="utf-8"?>
<!-- Generator: Adobe Illustrator 24.1.1, SVG Export Plug-In . SVG Version: 6.00 Build 0)  -->
<svg version="1.1" id="Capa_1" xmlns="http://www.w3.org/2000/svg" xmlns:xlink="http://www.w3.org/1999/xlink" x="0px" y="0px"
	 viewBox="0 0 102.653 105.505" enable-background="new 0 0 102.653 105.505" xml:space="preserve">
<g id="Capa_2_1_">
	<path fill="#423E3E" d="M69.833,93.339h-1.664c0.054-0.564,0.074-1.237,0.045-2.064c0.086-2.033,0.072-11.573,0.046-19.233h-3.283
		V93.25H41.674c-1.114,0.045-0.847,1.604-0.847,1.604h-6.728c0.045-1.515-1.158-1.604-1.158-1.604H9.773V63.354
		c0-2.852,1.559-2.762,1.559-2.762h38.584h4.225l-0.238-3.059H11.065c-2.428,0-4.396,1.968-4.396,4.396c0,0,0,23.45,0,29.346
		c0,0.831,0.043,1.502,0.117,2.064H4.649c0,0-1.114,0-0.802,2.673l1.559,5.124c0,0,0.668,1.604,2.941,1.693h58.322
		c0,0,1.916-0.089,3.252-2.45c0,0,1.292-3.698,1.337-5.525C71.258,94.854,70.813,93.517,69.833,93.339z M43.998,95.67h0.003
		l-0.003,0.216V95.67z M66.068,100.222l-57.409,0.067c0,0-1.91-0.98-1.693-3.965l23.986-0.044c0.075,0.728,0.355,1.696,1.321,1.678
		h10.574c0,0,1.124-0.341,1.15-2.071l-0.007,0.437l23.614,0.045C67.605,96.368,68.028,99.309,66.068,100.222z"/>
	<path fill="#423E3E" d="M71.748,81.977h14.703c0,0,2.673,0.267,2.941-2.941c0.111-1.335,0-21.505,0-21.505h3.119v21.743
		c0,0,0.475,5.347-5.822,5.465L71.748,84.62L71.748,81.977z"/>
	<path fill="#423E3E" d="M94.07,35.24c0,0-3.431-0.446-4.678-0.223l-0.446-0.062c0,0,1.738-7.334-5.124-11.611
		c0,0-7.173-3.921-12.431,0.757c0,0-5.257-4.856-8.02-4.945c0,0-3.832-16.307-17.911-8.287c0,0-12.653-11.762-25.218-0.713
		c0,0-4.812,4.455-5.257,11.495c0,0-10.96-0.713-11.673,10.426c0,0,0.618,9.099,9.089,9.178l17.377-0.179
		c0,0-2.792,11.429,8.376,13.14l20.617-0.043l-1.815-2.493H37.525c-7.847-3.03-5.43-8.822-5.43-8.822
		c1.871-7.752,10.604-5.525,10.604-5.525c0.535-11.406,10.954-15.107,10.954-15.107c11.406-3.475,15.179,2.801,16.313,4.236
		c1.515,1.916,2.145,0.98,2.145,0.98c1.878-4.634,9.111-2.852,9.111-2.852c8.226,4.634,4.605,11.317,4.695,11.852
		c0.09,0.535,1.515,0.713,1.515,0.713c8.911-1.604,10.604,4.812,10.604,4.812c1.693,7.396-6.149,9.713-6.149,9.713H76.181
		l0.409,0.921c0,0-0.601,0.844-1.112,1.537l16.676-0.035c0,0,6.46-0.552,8.243-7.815C100.397,46.289,102.402,38.448,94.07,35.24z
		 M40.56,35.552c-6.238-0.713-8.376,3.119-8.376,3.119H11.956V38.67c-5.792-0.802-6.148-6.059-6.148-6.059
		C4.917,22.809,17.125,23.7,17.125,23.7C15.788,13.096,27.366,8.172,27.366,8.172c8.795-3.033,15.957,4.567,15.957,4.567
		c1.604,2.495,2.673,0.98,2.673,0.98c12.653-7.307,14.257,5.257,14.257,5.257C42.075,20.047,40.56,35.552,40.56,35.552z"/>
	<path fill="#F50B16" d="M66.723,54.104c-2.976,0-5.388,2.412-5.388,5.388s2.412,5.388,5.388,5.388c2.976,0,5.388-2.412,5.388-5.388
		C72.111,56.516,69.699,54.104,66.723,54.104z M66.723,63.423c-2.171,0-3.931-1.76-3.931-3.931s1.76-3.931,3.931-3.931
		s3.931,1.76,3.931,3.931S68.894,63.423,66.723,63.423z"/>
	<path fill="#F50B16" d="M81.149,57.087c0,0-0.11-0.99-0.99-1.1c-0.88-0.11-3.629-0.687-3.629-0.687l2.447-3.299
		c0,0,0.137-0.825-0.275-1.127s-3.546-3.519-3.546-3.519s-0.825-0.247-1.072-0.11s-3.271,2.254-3.271,2.254l-0.715-3.821
		c0,0-0.44-0.77-0.715-0.77c-0.275,0-5.251,0-5.251,0s-1.072,0.412-0.99,0.77c0.082,0.357-0.632,3.766-0.632,3.766l-3.052-2.089
		c0,0-0.907-0.247-1.347,0.165l-3.656,3.766c0,0-0.192,0.935,0.165,1.32c0.357,0.385,1.897,2.722,1.897,2.722l-3.821,0.88
		c0,0-0.66,0.331-0.66,1.32c0,0.988,0,4.811,0,4.811s0.467,0.742,1.32,0.77c0.852,0.028,3.161,0.605,3.161,0.605l-1.897,3.849
		c0,0-0.275,0.165,0.412,1.072l2.942,2.969c0,0,0.632,0.605,1.704,0l2.832-2.034l0.66,3.849c0,0,0.082,0.55,0.797,0.66H69.3
		c0,0,0.687-0.247,0.88-1.045c0.192-0.797,0.605-3.464,0.605-3.464l2.914,1.952c0,0,0.962,0.357,1.649-0.082l3.354-3.326
		c0,0,0.44-0.962-0.33-1.842c-0.77-0.88-1.732-2.612-1.732-2.612l3.849-0.744c0,0,0.495-0.219,0.66-0.878
		C81.314,61.375,81.149,57.087,81.149,57.087z M78.743,60.729l-0.165,0.192c-3.643-0.014-4.055,1.636-4.055,1.636
		c-1.113,1.856,1.512,4.474,1.512,4.474v0.42l-1.416,1.526h-0.467c-2.117-2.089-4.302-1.718-4.302-1.718
		c-1.347,0.289-2.034,4.33-2.034,4.33h-2.378l-0.536-2.639c-0.33-1.526-1.773-1.856-1.773-1.856c-1.732-0.467-4,1.856-4,1.856
		l-1.746-1.759c2.722-2.804,1.512-4.577,1.512-4.577c-0.234-1.512-4.192-1.817-4.192-1.817V58.38
		c4.016-0.192,4.371-2.323,4.371-2.323c0.55-1.292-1.622-4.357-1.622-4.357l1.526-1.443c1.952,1.814,3.876,1.732,3.876,1.732
		c2.735-0.014,2.529-4.426,2.529-4.426h2.46l0.591,2.914c0.33,1.553,2.461,1.649,2.461,1.649c1.32-0.082,3.326-2.062,3.326-2.062
		l1.787,1.924c-1.979,2.323-1.924,3.381-1.924,3.381c0.385,2.79,4.344,2.9,4.344,2.9h0.316L78.743,60.729L78.743,60.729z"/>
</g>
<ellipse fill="#423E3E" cx="30.826" cy="77.277" rx="1.27" ry="1.448"/>
<ellipse fill="#423E3E" cx="37.525" cy="77.277" rx="1.27" ry="1.448"/>
<ellipse fill="#423E3E" cx="43.852" cy="77.277" rx="1.27" ry="1.448"/>
</svg>
