<?xml version="1.0" encoding="utf-8"?>
<!-- Generator: Adobe Illustrator 24.1.1, SVG Export Plug-In . SVG Version: 6.00 Build 0)  -->
<svg version="1.1" id="Capa_1" xmlns="http://www.w3.org/2000/svg" xmlns:xlink="http://www.w3.org/1999/xlink" x="0px" y="0px"
	 viewBox="0 0 102.653 105.505" enable-background="new 0 0 102.653 105.505" xml:space="preserve">
<g id="Capa_1_1_" display="none">
	
		<image display="inline" overflow="visible" enable-background="new    " width="512" height="512" xlink:href="../../../../../Downloads/credit-card.png"  transform="matrix(0.1891 0 0 0.1891 3.428 2.8515)">
	</image>
</g>
<g id="Capa_2_1_">
</g>
<path fill="#423E3E" d="M76.448,19.275c0,0,0.084-2.615,0-5.315c-0.084-2.7-3.965-3.543-3.965-3.543s-39.518,0-41.957,0
	c-3.346,0-3.74,3.585-3.74,3.585l-0.046,5.803L15.789,35.22l-0.169,64.708c0,1.444,1.171,2.615,2.615,2.615h67.239
	c1.025,0,1.856-0.831,1.856-1.856V38.145c0.009-0.481,0.043-0.888,0.054-1.238l0.001,0l0-0.018c0.003-0.094,0.003-0.184,0.001-0.269
	L87.39,35.6L76.448,19.275z M29.119,13.847c0,0,0.253-1.237,1.547-1.322h41.592c0,0,1.575,0.548,1.659,1.519v4.978L28.95,18.741
	L29.119,13.847z M27.797,21.722l9.083,13.498H18.32L27.797,21.722z M19.841,100.124l7.929-8.38l8.117,8.38H19.841z M37.851,98.65
	l-8.676-9.043l-0.056-39.989c-1.237-2.362-2.531,0-2.531,0l-0.056,40.045l-8.212,8.475V37.132h19.53V98.65z M30.216,21.3
	l44.418,0.127l9.407,13.794H39.749L30.216,21.3z M84.969,100.124H40.03V37.132h44.938V100.124z"/>
<path fill="#F50B16" d="M78.768,47.2H46.625c-0.815,0-1.476,0.661-1.476,1.476v12.739c0,0.815,0.661,1.476,1.476,1.476h32.143
	c0.815,0,1.476-0.661,1.476-1.476V48.676C80.244,47.861,79.583,47.2,78.768,47.2z M77.755,60.487H47.511V49.984h30.245V60.487z"/>
</svg>
