<?xml version="1.0" encoding="utf-8"?>
<!-- Generator: Adobe Illustrator 24.1.1, SVG Export Plug-In . SVG Version: 6.00 Build 0)  -->
<svg version="1.1" id="Capa_1" xmlns="http://www.w3.org/2000/svg" xmlns:xlink="http://www.w3.org/1999/xlink" x="0px" y="0px"
	 viewBox="0 0 102.7 105.5" style="enable-background:new 0 0 102.7 105.5;" xml:space="preserve">
<style type="text/css">
	.st0{fill:#F50B16;}
	.st1{fill:#423E3E;}
</style>
<g id="Capa_3">
	<path class="st0" d="M99.3,68.8v-7.9c0,0,0.3-3.1-2.3-3.7l-16.1-6.8c0,0-0.6-0.5-1.6,0L63,57.3c0,0-1.8,0.8-1.9,2.1
		c0,0-0.6,14.6,1,19.5c0,0,0.3,4.4,7.3,12.3c0,0,7.8,6.4,9,6.4s1.8,0.4,3.4-0.5c0,0,10.4-3.8,15.3-15.6
		C97.2,81.5,99.3,75.1,99.3,68.8z M92.3,81.1c-4.1,7.8-10.8,11-10.8,11c-1.2,0.7-1.6,0.4-2.4,0.4c-0.9-0.1-6.4-5-6.4-5
		c-5.2-5.6-5.8-9.5-5.8-9.5c-1.6-4-0.9-15.3-0.9-15.3c0-0.3-0.1-0.8,0-1c0.2-0.6,0.9-0.7,0.9-0.7l13-5.6c0.7-0.4,1.1,0,1.1,0
		l13.8,6.2v8.7C94.2,75,92.3,81.1,92.3,81.1z"/>
	<path class="st0" d="M79.6,80.1l9.7-12c0,0,0.6-2.6-0.6-3.2c0,0-1.8-0.8-3.1,0.5L77.9,75l-3.5-4.7c0,0-0.9-1.6-2.8-0.8
		c0,0-1.3,1.1-0.9,3.2l5.2,7.8C75.9,80.5,77.6,82.5,79.6,80.1z"/>
</g>
<path class="st1" d="M58.4,77.8c0-1.7-1.5-1.8-2.1-1.8H11.3c-1.6,0-2.9-1.3-2.9-2.9V45.4h81.8v0.7c0,0.6,0.2,2.7,1.8,2.4
	c0,0,2.3,0.8,2.3-2.6V21.6c0-3.1-2.5-5.6-5.6-5.6H10.4c-3.1,0-5.6,2.5-5.6,5.6v52.5c0,3.1,2.5,5.6,5.6,5.6h45.8
	C56.1,79.7,58.4,80.1,58.4,77.8z M8.4,22.6c0-1.6,1.3-2.9,2.9-2.9h75.9c1.6,0,2.9,1.3,2.9,2.9V27H8.4V22.6z M8.4,30.8h81.8v10.8H8.4
	V30.8z"/>
<path class="st1" d="M43.5,56.7h-30c-1,0-1.9-0.8-1.9-1.9v-0.2c0-1,0.8-1.9,1.9-1.9h30c1,0,1.9,0.8,1.9,1.9v0.2
	C45.3,55.9,44.5,56.7,43.5,56.7z"/>
</svg>
