<?xml version="1.0" encoding="utf-8"?>
<!-- Generator: Adobe Illustrator 24.1.1, SVG Export Plug-In . SVG Version: 6.00 Build 0)  -->
<svg version="1.1" id="Capa_3" xmlns="http://www.w3.org/2000/svg" xmlns:xlink="http://www.w3.org/1999/xlink" x="0px" y="0px"
	 viewBox="0 0 102.653 105.505" enable-background="new 0 0 102.653 105.505" xml:space="preserve">
<path fill="#303030" d="M68.08,84.847H34.851c-1.332,0-2.413-1.08-2.413-2.413v-0.172c0-1.332,1.08-2.413,2.413-2.413H68.08
	c1.332,0,2.413,1.08,2.413,2.413v0.172C70.493,83.767,69.412,84.847,68.08,84.847z"/>
<path fill="#F50B16" d="M69.513,60.178H33.806c-1.122,0-2.032-0.91-2.032-2.032v-0.145c0-1.122,0.91-2.032,2.032-2.032h35.707
	c1.122,0,2.032,0.91,2.032,2.032v0.145C71.545,59.268,70.635,60.178,69.513,60.178z"/>
<path fill="#303030" d="M48.623,74.154H34.09c-0.912,0-1.652-0.739-1.652-1.652v-1.694c0-0.912,0.739-1.652,1.652-1.652h14.533
	c0.912,0,1.652,0.739,1.652,1.652v1.694C50.275,73.414,49.535,74.154,48.623,74.154z"/>
<path fill="#F50B16" d="M51.798,40.337c-9.331,0-16.895,8.112-16.895,18.119c0,0.582,0.031,1.155,0.081,1.723h33.627
	c0.05-0.568,0.081-1.141,0.081-1.723C68.692,48.449,61.128,40.337,51.798,40.337z M65.483,58.046h-27.37
	c-0.041-0.446,0.64-0.834,0.64-1.291c0-7.856,5.312-12.876,12.906-12.876s12.768,4.5,13.889,12.814
	C65.61,57.146,65.523,57.601,65.483,58.046z"/>
<path opacity="0.95" fill="#F50B16" d="M54.127,43.88v-5.848c0-1.104-0.834-1.999-1.863-1.999h-0.932
	c-1.029,0-1.863,0.895-1.863,1.999v5.848H54.127z"/>
<path fill="#303030" d="M78.583,23.777H73.65V10.464c-0.886-5.703-6.536-5.109-6.536-5.109L23.908,20.563
	c-7.948,4.248-7.722,7.366-7.722,7.366l0.003-0.001c-0.147,0.529-0.229,1.088-0.229,1.668v65.749c0,5.574,5.179,5.574,8.049,5.574
	h54.968c4.884,0,5.419-2.602,5.419-5.812V30.012C84.396,26.569,83.683,23.777,78.583,23.777z M68.692,10.226v13.551H29.916
	L68.692,10.226z M81.128,96.246H19.616V27.929h61.512V96.246z"/>
</svg>
