<?xml version="1.0" encoding="utf-8"?>
<!-- Generator: Adobe Illustrator 24.1.1, SVG Export Plug-In . SVG Version: 6.00 Build 0)  -->
<svg version="1.1" id="Capa_1" xmlns="http://www.w3.org/2000/svg" xmlns:xlink="http://www.w3.org/1999/xlink" x="0px" y="0px"
	 viewBox="0 0 102.653 105.505" enable-background="new 0 0 102.653 105.505" xml:space="preserve">
<path fill="#423E3E" d="M51.348,28.6c-8.155,0-14.765,6.611-14.765,14.765s6.611,14.765,14.765,14.765s14.765-6.611,14.765-14.765
	S59.503,28.6,51.348,28.6z M51.348,55.274c-6.577,0-11.909-5.332-11.909-11.909s5.332-11.909,11.909-11.909
	c6.577,0,11.909,5.332,11.909,11.909C63.258,49.942,57.926,55.274,51.348,55.274z"/>
<path fill="#F50B16" d="M54.525,44.915c-0.648,0-1.488,0.454-1.98,0.801l-3.995-2.112c0.012-0.084,0.021-0.777,0.025-0.862
	l3.864-1.842c0.481,0.324,1.46,0.915,2.085,0.915c1.663,0,3.012-1.348,3.012-3.012s-1.348-3.012-3.012-3.012
	c-1.601,0-2.897,1.252-2.993,2.828l-4.293,2.05c-0.476-0.314-1.045-0.5-1.658-0.5c-1.663,0-3.012,1.348-3.012,3.012
	s1.348,3.011,3.012,3.011c0.59,0,1.388-0.33,1.945-0.813l3.994,2.621c0.04,1.628,1.366,2.937,3.004,2.937
	c1.663,0,3.012-1.348,3.012-3.012C57.537,46.264,56.188,44.915,54.525,44.915z"/>
<path fill="#423E3E" d="M93.947,63.044h-4.172c0,0,1.707-4.425-0.743-6.179c0,0-1.533-0.68-2.244,0.98c0,0,0.407,1.911-1.501,3.809
	l-1.816,2.054c-0.148-0.307-0.46-0.521-0.824-0.521h-3.73c-0.506,0-0.917,0.41-0.917,0.917v8.945c0,0.506,0.41,0.917,0.917,0.917
	h3.73c0.409,0,0.751-0.269,0.869-0.639c0.436,0.294,1.2,0.739,1.944,0.812c1.122,0.111,8.408,0,8.408,0s1.58-0.284,1.612-1.928
	v-7.539C95.479,64.672,95.322,63.186,93.947,63.044z M81.999,72.277h-2.465v-7.426h2.465V72.277z M94.025,64.849v7.424
	c0,0.332-0.427,0.443-0.427,0.443h-7.965c-1.221-0.032-1.812-0.79-2.07-1.285v-5.688l2.841-3.123
	c1.742-1.316,1.861-4.528,1.861-4.528c0.261-0.332,0.616,1.233,0.616,1.233c0.652,1.434-0.889,4.042-0.889,4.042
	c-0.284,0.853,0.439,1.15,0.439,1.15h5.049C94.074,64.529,94.025,64.849,94.025,64.849z"/>
<path fill="#F50B16" d="M91.16,17.437c0,0-2.702-0.735-4.288,0.94l-0.135,0.125c0,0-1.817-1.993-4.295-1.112
	c0,0-6.002,2.192-2.985,8.204c0.637,0.917,2.049,3.553,6.629,5.632l0.65,0.294l0.635-0.294c0,0,6.138-2.936,7.313-6.843
	C94.948,23.061,95.564,18.363,91.16,17.437z M91.791,24.53c-0.551,1.505-4.758,4.141-4.758,4.141l-0.235,0.15l-0.293-0.15
	c-0.705-0.352-3.847-3.142-3.847-3.142c-3.011-3.436,0.147-5.433,0.147-5.433c1.777-0.748,3.406,1.365,3.715,1.483
	c0.308,0.118,0.514-0.015,0.514-0.015c1.425-2.306,3.729-1.453,3.729-1.453C93.376,21.08,91.967,24.016,91.791,24.53z"/>
<path fill="#423E3E" d="M22.644,28.424H9.694c-0.705,0-1.277-0.572-1.277-1.277l0,0c0-0.705,0.572-1.277,1.277-1.277h12.95
	c0.705,0,1.277,0.572,1.277,1.277l0,0C23.921,27.852,23.349,28.424,22.644,28.424z"/>
<path fill="#423E3E" d="M22.846,24.206h-8.839c-0.594,0-1.075-0.481-1.075-1.075v-0.404c0-0.594,0.481-1.075,1.075-1.075h8.839
	c0.594,0,1.075,0.481,1.075,1.075v0.404C23.921,23.725,23.44,24.206,22.846,24.206z"/>
<path fill="#423E3E" d="M22.846,19.989h-8.839c-0.594,0-1.075-0.481-1.075-1.075V18.51c0-0.594,0.481-1.075,1.075-1.075h8.839
	c0.594,0,1.075,0.481,1.075,1.075v0.404C23.921,19.507,23.44,19.989,22.846,19.989z"/>
<path fill="#423E3E" d="M22.279,66.16c-0.586-0.358-9.629-4.945-9.629-4.945s-1.952-0.553-2.049,0.618
	c-0.098,1.171-0.13,10.247-0.13,10.247s0.325,1.431,1.887,1.073l10.204-5.075C22.561,68.08,22.865,66.518,22.279,66.16z
	 M12.604,70.932v-7.567l6.95,3.698L12.604,70.932z"/>
<circle fill="#423E3E" cx="51.307" cy="72.219" r="1.884"/>
<g>
	<circle fill="#423E3E" cx="59.42" cy="72.219" r="1.884"/>
	<circle fill="#423E3E" cx="43.08" cy="72.219" r="1.884"/>
</g>
<path fill="#423E3E" d="M95.37,55.184V36.306c3.711-2.682,6.135-7.035,6.135-11.964c0-8.155-6.611-14.765-14.765-14.765
	c-5.057,0-9.516,2.545-12.177,6.421h-0.113v-0.001h-6.553v0.001H30.551v-2.636c0-1.065-0.864-1.929-1.929-1.929h-4.473h-4.634H3.466
	c-1.065,0-1.929,0.863-1.929,1.929v18.951c0,1.065,0.863,1.929,1.929,1.929h2.68v21.664C2.964,58.614,0.94,62.642,0.94,67.148
	c0,8.155,6.611,14.765,14.765,14.765c2.643,0,5.119-0.703,7.265-1.92h19.363c0.292,0.965,0.51,2.574-0.166,4.702
	c0,0-3.222,5.952-6.661,7.535h-3.401c-0.995,0-1.802,0.807-1.802,1.802c0,0.995,0.807,1.802,1.802,1.802H70.11
	c0.995,0,1.802-0.807,1.802-1.802c0-0.995-0.807-1.802-1.802-1.802h-3.167c-3.44-1.584-6.661-7.535-6.661-7.535
	c-0.677-2.128-0.459-3.736-0.167-4.702h19.36c2.146,1.217,4.622,1.92,7.265,1.92c8.155,0,14.765-6.611,14.765-14.765
	C101.505,62.219,99.081,57.866,95.37,55.184z M86.74,12.433c6.577,0,11.909,5.332,11.909,11.909
	c0.001,6.577-5.331,11.909-11.909,11.909c-6.577,0-11.909-5.332-11.909-11.909C74.83,17.765,80.163,12.433,86.74,12.433z
	 M4.556,29.841V15.896c0-0.821,0.665-1.486,1.486-1.486h20.255c0.821,0,1.486,0.665,1.486,1.486v13.945
	c0,0.821-0.665,1.486-1.486,1.486h-9.148c-0.719,0.089-0.979,0.131-0.979,0.687c0,1.347-0.126,4.388-0.126,4.388
	s-1.434-3.244-1.939-4.254c-0.233-0.467-1.171-0.821-2-0.821s-6.063,0-6.063,0C5.221,31.327,4.556,30.662,4.556,29.841z
	 M12.333,34.242c1.066,1.315,3.043,4.692,4.325,5.842c0,0,0.316,0.471,0.892,0.157c0.163-0.089,0.167-0.858,0.167-0.858l0.2-5.141
	h1.652l4.627-0.001h4.426c1.065,0,1.929-0.863,1.929-1.929V18.959h37.346h1.074h3.977h0.053c-0.655,1.67-1.027,3.482-1.027,5.384
	c0,8.155,6.611,14.765,14.765,14.765c1.942,0,3.792-0.385,5.491-1.066v15.407c-1.699-0.682-3.549-1.066-5.491-1.066
	c-7.342,0-13.415,5.364-14.556,12.383H30.262c-1.141-7.019-7.214-12.383-14.556-12.383c-2.305,0-4.479,0.543-6.423,1.486V34.242
	H12.333z M15.706,79.057c-6.577,0-11.909-5.332-11.909-11.909s5.332-11.909,11.909-11.909c6.577,0,11.909,5.332,11.909,11.909
	C27.616,73.724,22.284,79.057,15.706,79.057z M61.303,92.231H41.142c0,0,6.593-5.633,4.629-12.237h10.903
	C54.711,86.598,61.303,92.231,61.303,92.231z M26.651,77.033c2.202-2.436,3.596-5.604,3.78-9.101h41.582
	c0.184,3.497,1.579,6.664,3.78,9.101H26.651z M86.74,79.057c-6.577,0-11.909-5.332-11.909-11.909s5.332-11.909,11.909-11.909
	s11.909,5.332,11.909,11.909C98.65,73.724,93.317,79.057,86.74,79.057z"/>
</svg>
