<?xml version="1.0" encoding="utf-8"?>
<!-- Generator: Adobe Illustrator 24.1.1, SVG Export Plug-In . SVG Version: 6.00 Build 0)  -->
<svg version="1.1" id="Capa_1" xmlns="http://www.w3.org/2000/svg" xmlns:xlink="http://www.w3.org/1999/xlink" x="0px" y="0px"
	 viewBox="0 0 100 100" enable-background="new 0 0 100 100" xml:space="preserve">
<g id="surface2498057">
	<path fill="#F50B16" d="M48.508,45.834L28.72,26.045L18.143,36.622l-5.921,0.066c0,0-1.028,2.031-1.03,3.544
		s0.823,1.741,1.03,2.121h7.195l9.211-9.211L48.416,52.93l10.577-10.577h22.404c0,0,1.548-0.861,1.548-2.517
		c0-1.656-1.456-3.214-1.456-3.214H57.72L48.508,45.834z"/>
</g>
<circle fill="#F50B16" cx="75.392" cy="67.607" r="2.894"/>
<path fill="#423E3E" d="M94.143,81.756l-9.935-10.46c-1.382-1.514-4.474-0.263-4.474-0.263c-1.382,1.184-0.79,3.947-0.79,3.947
	l10.131,10.658c1.514,2.106-0.394,4.276-0.394,4.276c-1.382,2.039-4.753,1.481-5.329,0.855
	c-0.576-0.626-20.894-22.678-20.894-22.678c4.847-4.069,8.605-9.388,10.794-15.457c0.056-0.255,0.678-3.342-1.762-4.046
	c0,0-2.595,0.117-3.449,2.227c-0.02,0.049-0.06,0.087-0.086,0.132C63.642,62.659,52.417,71.03,39.207,71.03
	c-16.933,0-30.658-13.727-30.658-30.658S22.276,9.714,39.207,9.714c12.235,0,22.766,7.186,27.684,17.552l0.033-0.008
	c0,0,0.791,1.856,2.941,1.133c0,0,2.117-0.988,2.1-3.159c-0.547-1.214-1.033-2.272-1.033-2.272
	C64.815,11.649,52.97,4.186,39.207,4.186c-13.519,0-25.298,7.419-31.51,18.402C6.326,24.82,4.97,28.662,4.97,28.662
	c-1.257,3.674-1.948,7.611-1.948,11.711c0,19.985,16.2,36.185,36.185,36.185c6.542,0,12.673-1.745,17.968-4.781
	c4.744,4.991,24.153,24.412,24.153,24.412c5.855,2.5,12.024-2.788,12.024-2.788C97.629,88.071,94.143,81.756,94.143,81.756z"/>
</svg>
