<?xml version="1.0" encoding="utf-8"?>
<!-- Generator: Adobe Illustrator 24.1.1, SVG Export Plug-In . SVG Version: 6.00 Build 0)  -->
<svg version="1.1" id="Capa_1" xmlns="http://www.w3.org/2000/svg" xmlns:xlink="http://www.w3.org/1999/xlink" x="0px" y="0px"
	 viewBox="0 0 100 100" enable-background="new 0 0 100 100" xml:space="preserve">
<circle fill="#F50B16" cx="79.408" cy="78.576" r="2.389"/>
<path fill="#423E3E" d="M85.851,82.029c-0.893-0.978-2.892-0.17-2.892-0.17c-0.893,0.765-0.511,2.551-0.511,2.551l6.549,6.889
	c0.978,1.361-0.255,2.764-0.255,2.764c-0.893,1.318-3.072,0.957-3.445,0.553c-0.372-0.405-13.506-14.659-13.506-14.659
	c5.11-4.29,8.361-10.723,8.361-17.918c0-2.729-0.399-5.134-1.258-7.57c-0.189-0.558-1.624-3.684-1.624-3.684
	c-3.954-7.31-11.611-12.134-20.507-12.134c-8.738,0-16.352,4.795-20.367,11.894c-0.887,1.442-1.763,3.926-1.763,3.926
	c-0.812,2.375-1.259,4.919-1.259,7.57c0,12.918,10.471,23.389,23.389,23.389c4.228,0,8.191-1.128,11.614-3.091
	C71.445,85.567,83.99,98.12,83.99,98.12c3.784,1.616,7.772-1.802,7.772-1.802c2.764-3.445,0.511-7.527,0.511-7.527L85.851,82.029z
	 M56.764,81.858c-10.945,0-19.817-8.873-19.817-19.817s8.873-19.817,19.817-19.817s19.817,8.873,19.817,19.817
	S67.709,81.858,56.764,81.858z"/>
<g>
	<path fill="#423E3E" d="M30.256,23.465h29.303c1.053,0.008,2.037-0.374,2.575-1.009c0.527-0.636,0.527-1.415,0-2.051
		c-0.538-0.636-1.522-1.017-2.575-1.009H30.256c-0.092,0-0.183,0-0.275,0c-0.092,0-0.183,0-0.275,0c-0.092,0-0.183,0-0.275,0
		c-1.614,0.159-2.747,1.2-2.518,2.321C27.143,22.837,28.642,23.624,30.256,23.465z"/>
	<path fill="#423E3E" d="M40.839,82.601c-0.085-0.186-0.202-0.35-0.344-0.496C40.605,82.274,40.726,82.435,40.839,82.601z"/>
	<path fill="#423E3E" d="M26.914,32.324c0.229,1.121,1.728,1.908,3.342,1.749h29.303c1.053,0.008,2.037-0.374,2.575-1.009
		c0.527-0.636,0.527-1.415,0-2.051c-0.538-0.636-1.522-1.017-2.575-1.009H30.256c-0.092,0-0.183,0-0.275,0c-0.092,0-0.183,0-0.275,0
		c-0.092,0-0.183,0-0.275,0C27.818,30.161,26.685,31.203,26.914,32.324z"/>
	<path fill="#423E3E" d="M44.121,86.54H13.752V9.622h60.033v34.472c-0.094-0.045-0.191-0.083-0.285-0.127l0.109,0.216l0.176,0.349
		c0,0,2.689,0.945,3.752,1.731V7.746c0-1.033-0.843-1.876-1.876-1.876H11.876c-0.059,0-0.117,0-0.176,0s-0.117,0-0.176,0
		C10.63,6.039,9.985,6.83,10,7.746v80.67c0,1.033,0.843,1.876,1.876,1.876h37.228c0,0-3.535-2.473-5.991-4.815
		C43.441,85.838,43.772,86.198,44.121,86.54z"/>
</g>
<g>
	<path fill="#423E3E" d="M61.555,42.95c-0.039-0.289-0.144-0.575-0.359-0.835c-0.135-0.159-0.298-0.303-0.483-0.428L61.555,42.95z"
		/>
	<path fill="#423E3E" d="M48.747,41.106H29.318c-0.092,0-0.183,0-0.275,0c-0.092,0-0.183,0-0.275,0c-0.092,0-0.183,0-0.275,0
		c-1.614,0.159-2.747,1.2-2.518,2.321s1.728,1.908,3.342,1.749h13.818C44.633,43.215,46.647,41.937,48.747,41.106z"/>
</g>
<path fill="#423E3E" d="M37.767,51.918h-8.449c-0.092,0-0.183,0-0.275,0c-0.092,0-0.183,0-0.275,0c-0.092,0-0.183,0-0.275,0
	c-1.614,0.159-2.747,1.2-2.518,2.321s1.728,1.908,3.342,1.749h6.869L37.767,51.918z"/>
<path opacity="0.96" fill="#423E3E" d="M35.873,64.513h-6.555c-0.092,0-0.183,0-0.275,0c-0.092,0-0.183,0-0.275,0
	c-0.092,0-0.183,0-0.275,0c-1.614,0.159-2.747,1.2-2.518,2.321s1.728,1.908,3.342,1.749h7.318L35.873,64.513z"/>
<path fill="#F50B16" d="M69.274,65.094c-0.538-0.899-1.522-1.438-2.575-1.427H38.265c0.161,1.738,0.636,3.52,1.608,5.754h26.825
	c1.053,0.011,2.037-0.528,2.575-1.427C69.801,67.094,69.801,65.993,69.274,65.094z"/>
<path fill="#F50B16" d="M69.274,52.499c-0.538-0.899-1.522-1.438-2.575-1.427H41.693c-1.155,1.592-2.713,4.149-3.109,5.754h28.114
	c1.053,0.011,2.037-0.528,2.575-1.427C69.801,54.499,69.801,53.398,69.274,52.499z"/>
</svg>
