<?xml version="1.0" encoding="utf-8"?>
<!-- Generator: Adobe Illustrator 24.1.1, SVG Export Plug-In . SVG Version: 6.00 Build 0)  -->
<svg version="1.1" id="Capa_1" xmlns="http://www.w3.org/2000/svg" xmlns:xlink="http://www.w3.org/1999/xlink" x="0px" y="0px"
	 viewBox="0 0 100 100" enable-background="new 0 0 100 100" xml:space="preserve">
<g id="surface2504498">
	<path fill="#303030" d="M14,5.612v84.609c0,0-0.153,1.5,1.941,1.5s38.773,0,38.773,0c-0.425-1.196-0.667-2.477-0.667-3.814H17.814
		V7.814h38.14v20.194c0,0-0.241,2.689,1.987,2.689s20.897,0,20.897,0v22.884h3.814v-25.58L58.65,4c0,0-39.64,0-42.145,0
		S14,5.612,14,5.612z M59.767,10.511l16.373,16.373H59.767V10.511z M67.395,57.395c-1.049,0-1.907,0.858-1.907,1.907v20.977
		c-4.527,0-8.127,3.934-7.571,8.574c0.464,3.875,3.955,6.682,7.857,6.682l20.691,0c0.067,0,0.127-0.007,0.186-0.007
		C91.806,95.423,96,91.17,96,86V59.302c0-1.049-0.858-1.907-1.907-1.907H67.395z M69.302,61.209h22.884v24.598
		c0,2.613-1.671,5.019-4.194,5.7c-3.159,0.852-5.456-0.937-5.337-3.814c0.084-2.011,1.83-3.567,3.842-3.601
		c1.181-0.02,2.098-1.11,1.826-2.343c-0.196-0.885-1.049-1.471-1.955-1.471H69.302V61.209z M65.568,84.093l14.439,0
		c-0.678,1.14-1.17,2.391-1.17,3.814c0,1.423,0.492,2.674,1.17,3.814H65.488c-2.383,0-3.963-1.697-3.803-4.153
		C61.816,85.582,63.578,84.093,65.568,84.093z"/>
</g>
<path fill="#F50B16" d="M52.14,34.512c-1.054,0-1.907,0.853-1.907,1.907v17.163c0,1.054,0.853,1.907,1.907,1.907h17.163
	c1.054,0,1.907-0.853,1.907-1.907C71.209,43.071,62.65,34.512,52.14,34.512z M54.047,51.674V38.709
	c6.846,0.89,12.075,6.119,12.965,12.965H54.047z"/>
<path fill="#F50B16" d="M61.674,59.302H46.419V44.047c0-1.054-0.853-1.907-1.907-1.907c-10.511,0-19.07,8.559-19.07,19.07
	s8.559,19.07,19.07,19.07s19.07-8.559,19.07-19.07C63.581,60.155,62.728,59.302,61.674,59.302z M44.512,76.465
	c-8.451,0-15.256-6.805-15.256-15.256c0-7.773,5.851-13.9,13.349-14.872v14.872c0,1.054,0.853,1.907,1.907,1.907h14.872
	C58.412,70.614,52.285,76.465,44.512,76.465z"/>
<path fill="#303030" d="M14,89.464"/>
<path fill="#303030" d="M55.953,28.484"/>
</svg>
