<?xml version="1.0" encoding="utf-8"?>
<!-- Generator: Adobe Illustrator 24.1.1, SVG Export Plug-In . SVG Version: 6.00 Build 0)  -->
<svg version="1.1" id="Capa_1" xmlns="http://www.w3.org/2000/svg" xmlns:xlink="http://www.w3.org/1999/xlink" x="0px" y="0px"
	 viewBox="0 0 100 100" enable-background="new 0 0 100 100" xml:space="preserve">
<g id="surface2498057">
	<path fill="#F50B16" d="M38.78-109.798l-19.789-19.789L8.414-119.009l-5.921,0.066c0,0-1.028,2.031-1.03,3.544
		c-0.001,1.513,0.823,1.741,1.03,2.121h7.195l9.211-9.211l19.789,19.789l10.577-10.577h22.404c0,0,1.548-0.861,1.548-2.517
		s-1.456-3.214-1.456-3.214H47.992L38.78-109.798z"/>
</g>
<circle fill="#F50B16" cx="65.664" cy="-88.025" r="2.894"/>
<path fill="#423E3E" d="M84.415-73.876l-9.935-10.46c-1.382-1.514-4.474-0.263-4.474-0.263c-1.382,1.184-0.79,3.947-0.79,3.947
	l10.131,10.658c1.514,2.106-0.394,4.276-0.394,4.276c-1.382,2.039-4.753,1.481-5.329,0.855C73.047-65.488,52.729-87.54,52.729-87.54
	c4.847-4.069,8.605-9.388,10.794-15.457c0.056-0.255,0.678-3.342-1.762-4.046c0,0-2.595,0.117-3.449,2.227
	c-0.02,0.049-0.06,0.087-0.086,0.132c-4.312,11.713-15.536,20.083-28.746,20.083c-16.933,0-30.658-13.727-30.658-30.658
	s13.727-30.658,30.658-30.658c12.235,0,22.766,7.186,27.684,17.552l0.033-0.008c0,0,0.791,1.856,2.941,1.133
	c0,0,2.117-0.988,2.1-3.159c-0.547-1.214-1.033-2.272-1.033-2.272c-6.118-11.31-17.963-18.773-31.726-18.773
	c-13.519,0-25.298,7.419-31.51,18.402c-1.372,2.231-2.727,6.073-2.727,6.073c-1.257,3.674-1.948,7.611-1.948,11.711
	c0,19.985,16.2,36.185,36.185,36.185c6.542,0,12.673-1.745,17.968-4.781C52.191-78.864,71.6-59.443,71.6-59.443
	c5.855,2.5,12.024-2.788,12.024-2.788C87.901-67.56,84.415-73.876,84.415-73.876z"/>
<g id="surface2478453">
	<path fill="#423E3E" d="M7.176,9.533c-2.963,0-5.429,2.466-5.429,5.429v9.651c-0.008,0.083-0.008,0.158,0,0.241v67.679
		c0,1.063,0.867,1.93,1.93,1.93h92.652c1.063,0,1.93-0.867,1.93-1.93V24.975c0-0.06,0-0.121,0-0.181v-9.832
		c0-2.963-2.466-5.429-5.429-5.429H7.176z M8.688,13.564h82.629c0.866,0,1.513,0.647,1.513,1.513v7.797H7.176v-7.797
		C7.176,14.211,7.823,13.564,8.688,13.564z M6.979,27.889h86.047v61.73H6.979V27.889z"/>
</g>
<path fill="#F50B16" d="M50.003,32.696c-13.836,0-25.093,11.257-25.093,25.093c0,13.836,11.257,25.093,25.093,25.093
	c13.836,0,25.093-11.257,25.093-25.093C75.096,43.953,63.839,32.696,50.003,32.696z M29.549,57.789
	c0-11.317,9.138-20.454,20.454-20.454c4.983,0,9.53,1.758,13.074,4.707L34.255,70.863C31.307,67.319,29.549,62.772,29.549,57.789z
	 M50.003,78.243c-4.983,0-9.53-1.758-13.074-4.707L65.75,44.715c2.949,3.545,4.707,8.092,4.707,13.074
	C70.457,69.106,61.319,78.243,50.003,78.243z"/>
</svg>
