<?xml version="1.0" encoding="utf-8"?>
<!-- Generator: Adobe Illustrator 24.1.1, SVG Export Plug-In . SVG Version: 6.00 Build 0)  -->
<svg version="1.1" id="Capa_1" xmlns="http://www.w3.org/2000/svg" xmlns:xlink="http://www.w3.org/1999/xlink" x="0px" y="0px"
	 viewBox="0 0 100 100" enable-background="new 0 0 100 100" xml:space="preserve">
<g id="surface2493185">
	<path fill="#423E3E" d="M67.058,20.869v75.204h28V20.869c0-1.544-1.252-2.796-2.796-2.796H69.853
		C68.309,18.073,67.058,19.325,67.058,20.869z M73.853,22.073h14.409c1.544,0,2.796,1.252,2.796,2.796v67.204h-20V24.869
		C71.058,23.325,72.309,22.073,73.853,22.073z M35.058,46.869v49.204h28V46.869c0-1.544-1.252-2.796-2.796-2.796H37.853
		C36.309,44.073,35.058,45.325,35.058,46.869z M41.853,48.073h14.409c1.544,0,2.796,1.252,2.796,2.796v41.204h-20V50.869
		C39.058,49.325,40.309,48.073,41.853,48.073z M3.058,68.869V96.04c0,0.018,0.015,0.033,0.033,0.033h27.967V68.869
		c0-1.544-1.252-2.796-2.796-2.796H5.853C4.309,66.073,3.058,67.325,3.058,68.869z M9.853,70.073h14.409
		c1.544,0,2.796,1.252,2.796,2.796v19.204h-20V72.869C7.058,71.325,8.309,70.073,9.853,70.073z"/>
</g>
<path fill="#F50B16" d="M24.683,10.073c-1.102,0.102-1.914,1.086-1.813,2.188s1.086,1.914,2.188,1.813h13.125L3.62,48.636
	c-0.797,0.797-0.797,2.078,0,2.875s2.078,0.797,2.875,0l34.563-34.563v13.125c-0.008,0.719,0.367,1.391,0.992,1.758
	c0.625,0.359,1.391,0.359,2.016,0c0.625-0.367,1-1.039,0.992-1.758v-20h-20c-0.063,0-0.125,0-0.188,0S24.745,10.073,24.683,10.073z"
	/>
</svg>
