<?xml version="1.0" encoding="utf-8"?>
<!-- Generator: Adobe Illustrator 24.1.1, SVG Export Plug-In . SVG Version: 6.00 Build 0)  -->
<svg version="1.1" id="Capa_1" xmlns="http://www.w3.org/2000/svg" xmlns:xlink="http://www.w3.org/1999/xlink" x="0px" y="0px"
	 viewBox="0 0 102.653 105.505" enable-background="new 0 0 102.653 105.505" xml:space="preserve">
<path fill="#423E3E" d="M86.544,59.843c-3.557,0-6.441,2.884-6.441,6.441c0,3.557,2.884,6.441,6.441,6.441s6.441-2.884,6.441-6.441
	C92.986,62.727,90.102,59.843,86.544,59.843z M86.544,69.621c-1.843,0-3.337-1.494-3.337-3.337c0-1.843,1.494-3.337,3.337-3.337
	s3.337,1.494,3.337,3.337C89.882,68.127,88.387,69.621,86.544,69.621z"/>
<path fill="#423E3E" d="M98.764,71.189c-0.968,0.047-1.145,0.682-1.171,1.028v3.155c0,1.164-0.943,2.107-2.107,2.107H77.603
	c-1.164,0-2.107-0.943-2.107-2.107V57.196c0-1.164,0.943-2.107,2.107-2.107h17.883c1.164,0,2.107,0.943,2.107,2.107v10.173
	c0.523,0.513,1.252,0.762,1.252,0.762c0.912-0.128,1.341-0.897,1.541-1.49V55.939c0-1.931-1.566-3.497-3.497-3.497h-20.69
	c-1.931,0-3.497,1.566-3.497,3.497v20.69c0,1.931,1.566,3.497,3.497,3.497h20.69c1.931,0,3.497-1.566,3.497-3.497v-4.098
	C100.024,71.108,98.764,71.189,98.764,71.189z"/>
<path fill="#423E3E" d="M74.324,13.681c0.968-0.047,1.145-0.682,1.171-1.028V9.498c0-1.164,0.943-2.107,2.107-2.107h17.883
	c1.164,0,2.107,0.943,2.107,2.107v18.176c0,1.164-0.943,2.107-2.107,2.107H77.603c-1.164,0-2.107-0.943-2.107-2.107V17.501
	c-0.523-0.513-1.252-0.762-1.252-0.762c-0.912,0.128-1.341,0.897-1.541,1.49v10.702c0,1.931,1.566,3.497,3.497,3.497h20.69
	c1.931,0,3.497-1.566,3.497-3.497V8.241c0-1.931-1.566-3.497-3.497-3.497h-20.69c-1.931,0-3.497,1.566-3.497,3.497v4.098
	C73.064,13.762,74.324,13.681,74.324,13.681z"/>
<path fill="#423E3E" d="M91.148,11.217h-4.262c0,0-3.546,1.659-3.578,3.644v2.399h-1.517c-0.869,0-1.574,0.705-1.574,1.574
	s0.705,1.574,1.574,1.574h1.517v5.059c0,0,0.618,1.171,1.464,1.139c0.846-0.032,1.204-0.553,1.562-1.366v-4.831h1.557
	c0.869,0,1.574-0.705,1.574-1.574s-0.705-1.574-1.574-1.574h-1.557v-2.074c0,0,0.553-1.074,1.204-1.074h3.448
	c0,0,1.561,0.033,1.561-1.171C92.546,12.942,92.449,11.315,91.148,11.217z"/>
<path fill="#423E3E" d="M48.198,1C40.545,1,34.34,7.205,34.34,14.858s6.205,13.858,13.858,13.858
	c7.654,0,13.858-6.205,13.858-13.858S55.852,1,48.198,1z M48.198,26.029c-6.169,0-11.17-5.001-11.17-11.17s5.001-11.17,11.17-11.17
	s11.17,5.001,11.17,11.17S54.367,26.029,48.198,26.029z"/>
<path fill="#423E3E" d="M25.955,18.586H8.734c-1.213,0-2.196,0.983-2.196,2.196v23.406c0,1.213,0.983,2.196,2.196,2.196h17.22
	c1.213,0,2.196-0.983,2.196-2.196V20.782C28.151,19.569,27.167,18.586,25.955,18.586z M25.068,43.651H9.478V21.383h15.591V43.651z"
	/>
<path fill="#423E3E" d="M20.447,40.431h-6.324c-0.841,0-1.523-0.682-1.523-1.523l0,0c0-0.841,0.682-1.523,1.523-1.523h6.324
	c0.841,0,1.523,0.682,1.523,1.523l0,0C21.97,39.749,21.288,40.431,20.447,40.431z"/>
<path fill="#423E3E" d="M20.447,34.269h-6.324c-0.841,0-1.523-0.682-1.523-1.523l0,0c0-0.841,0.682-1.523,1.523-1.523h6.324
	c0.841,0,1.523,0.682,1.523,1.523l0,0C21.97,33.588,21.288,34.269,20.447,34.269z"/>
<path fill="#423E3E" d="M20.967,28.108h-3.916c-0.697,0-1.262-0.565-1.262-1.262v-0.52c0-0.697,0.565-1.262,1.262-1.262h3.916
	c0.697,0,1.262,0.565,1.262,1.262v0.52C22.23,27.543,21.665,28.108,20.967,28.108z"/>
<path fill="#F50B16" d="M69.836,60.017c-1.85-3.331-7.988-13.99-7.988-13.99s-1.885-1.462-2.579-0.49c0,0-1.11,0.932-0.25,2.701
	l7.578,13.149l-28.22,10.844l-0.496,0.277c-0.474,0.206-0.949,0.472-1.425,0.777l-0.109,0.07c-0.026,0.017-0.051,0.034-0.077,0.051
	l-5.997,3.341c0,0-3.035,1.184-4.848-1.702l-3.479-6.588c0,0-1.147-2.406,0.851-3.664l6.736-4.182l4.293,7.55
	c0,0,1.369,1.554,2.48,0.777c0,0,1.48-1.48,0.629-2.739c-0.851-1.258-4.515-7.55-4.515-7.55l21.897-18.153l1.401,1.665
	c0,0,0.611,0.722,2.11,0.018c0,0,0.981-1.295,0.241-2.461l-1.943-2.961c0,0-0.685-1.11-2.406-0.092L29.902,56.751l-9.299,5.69
	c0,0-2.942,3.137-1.915,6.634c0.005,0.017,0.013,0.036,0.018,0.053l-2.423,1.474c0,0-2.961,2.628-1.48,6.403
	c0,0,0.999,4.145,7.254,2.147l1.923-1.049c0.02,0.026,0.038,0.05,0.038,0.05s3.701,3.553,6.662,1.925c0,0,1.155-1.026,2.959-2.281
	c0.137,0.768,0.493,1.654,1.143,2.704l2.741,4.279c1.541,2.406,4.741,3.107,7.146,1.565l0.109-0.07
	c2.406-1.541,3.107-4.741,1.565-7.146l-2.741-4.279c-0.331-0.52-0.662-0.947-0.994-1.307c0.563-0.123,1.127-0.226,1.691-0.276
	l24.205-9.327C68.503,63.94,71.686,63.348,69.836,60.017z M19.632,76.468c-1.147,0.407-2.128-0.574-2.128-0.574
	c-0.444-0.814,0.185-2.091,0.185-2.091l2.239-1.628h0.138l0.03,0.049c0.591,1.07,1.262,2.134,1.884,3.065L22,75.321
	C22,75.321,19.724,76.468,19.632,76.468z M43.128,83.412c0,0-1.596,0.68-2.54,0l-3.84-6.592l3.146-1.888l3.405,6.144
	C43.299,81.076,44.53,82.482,43.128,83.412z"/>
<path fill="#F50B16" d="M83.065,48.27l-8.776,1.734c-0.705,0.139-1.389-0.319-1.528-1.024l-0.122-0.618
	c-0.139-0.705,0.319-1.389,1.024-1.528l8.776-1.734c0.705-0.139,1.389,0.319,1.528,1.024l0.122,0.618
	C84.228,47.447,83.769,48.131,83.065,48.27z"/>
<path fill="#F50B16" d="M76.841,37.499l-7.155,5.37c-0.574,0.431-1.39,0.315-1.821-0.259l-0.378-0.504
	c-0.431-0.574-0.315-1.39,0.259-1.821l7.155-5.37c0.574-0.431,1.39-0.315,1.821,0.259l0.378,0.504
	C77.531,36.252,77.415,37.068,76.841,37.499z"/>
<path fill="#F50B16" d="M69.722,28.548l-5.515,7.044c-0.443,0.566-1.26,0.665-1.826,0.222l-0.496-0.388
	c-0.566-0.443-0.665-1.26-0.222-1.826l5.515-7.044c0.443-0.566,1.26-0.665,1.826-0.222l0.496,0.388
	C70.065,27.165,70.165,27.983,69.722,28.548z"/>
<path fill="#423E3E" d="M63.161,90.643h-3.473c0.031-0.158,0.049-0.322,0.049-0.489V73.156c-0.124-1.369-1.764-1.684-1.764-1.684
	c-1.036,0.111-1.438,1.684-1.438,1.684v17.487H10.475c-0.152,0-0.275-0.123-0.275-0.275V56.807c0-1.23,0.997-2.228,2.228-2.228
	h13.747c0.391-0.213,0.619-0.41,0.619-0.41c0.176-0.824-0.124-1.316-0.476-1.607H9.504c-1.384,0-2.506,1.122-2.506,2.506v35.086
	c0,0.168,0.018,0.331,0.049,0.489H2.761c-0.74,0-0.888,0.832-0.888,0.832v5.107c0.814,7.476,7.92,8.216,7.92,8.216h47.595
	c5.699-0.814,7.476-7.032,7.476-7.032V92.66C64.642,90.736,63.161,90.643,63.161,90.643z M58.655,100.938c0,0-1.702,0.592-5.7,0.592
	h-0.304c0.003-0.039,0.012-0.077,0.012-0.117v-2.332c0-0.95-0.771-1.721-1.721-1.721c-0.95,0-1.721,0.771-1.721,1.721v2.332
	c0,0.04,0.009,0.077,0.012,0.117H17.621c0.003-0.039,0.012-0.077,0.012-0.117v-2.332c0-0.95-0.77-1.721-1.721-1.721
	c-0.95,0-1.721,0.771-1.721,1.721v2.332c0,0.04,0.009,0.077,0.012,0.117h-2.921c0,0-6.884,0.518-6.366-7.18l56.847-0.444
	C61.764,93.906,62.652,99.457,58.655,100.938z"/>
<path fill="#423E3E" d="M55.642,13.87c-0.586-0.358-9.629-4.945-9.629-4.945s-1.952-0.553-2.049,0.618
	c-0.098,1.171-0.13,10.247-0.13,10.247s0.325,1.431,1.887,1.073l10.204-5.075C55.924,15.79,56.228,14.228,55.642,13.87z
	 M46.693,17.851v-5.986l5.498,2.925L46.693,17.851z"/>
</svg>
