<?xml version="1.0" encoding="utf-8"?>
<!-- Generator: Adobe Illustrator 24.1.1, SVG Export Plug-In . SVG Version: 6.00 Build 0)  -->
<svg version="1.1" id="Capa_2_1_" xmlns="http://www.w3.org/2000/svg" xmlns:xlink="http://www.w3.org/1999/xlink" x="0px" y="0px"
	 viewBox="0 0 102.653 105.505" enable-background="new 0 0 102.653 105.505" xml:space="preserve">
<circle fill="#303030" cx="52.178" cy="75.959" r="2.05"/>
<circle fill="#303030" cx="61.005" cy="75.959" r="2.05"/>
<circle fill="#303030" cx="43.228" cy="75.959" r="2.05"/>
<path fill="#F50B16" d="M66.652,39.832v-6.019c0,0,0.255-2.388-1.729-2.834l-12.295-5.202c0,0-0.452-0.371-1.215,0l-12.515,5.275
	c0,0-1.386,0.63-1.44,1.584c0,0-0.486,11.192,0.783,14.89c0,0,0.243,3.401,5.614,9.393c0,0,5.965,4.858,6.909,4.912
	c0.944,0.054,1.377,0.333,2.618-0.351c0,0,7.935-2.915,11.714-11.93C65.099,49.549,66.768,44.388,66.652,39.832z M61.293,49.28
	c-3.158,5.992-8.286,8.392-8.286,8.392c-0.885,0.534-1.193,0.316-1.866,0.274s-4.926-3.836-4.926-3.836
	c-4.004-4.289-4.463-7.258-4.463-7.258c-1.25-3.078-0.711-11.714-0.711-11.714c0.012-0.227-0.109-0.597-0.027-0.783
	c0.187-0.423,0.657-0.549,0.657-0.549l9.965-4.301c0.544-0.29,0.866,0,0.866,0l10.519,4.741v6.64
	C63.083,44.388,61.293,49.28,61.293,49.28z"/>
<path fill="#F50B16" d="M51.603,48.524l7.45-9.141c0,0,0.468-1.979-0.432-2.483c0,0-1.403-0.648-2.375,0.36l-5.902,7.342
	l-2.663-3.563c0,0-0.683-1.259-2.123-0.576c0,0-1.008,0.828-0.72,2.411l3.959,5.938C48.796,48.812,50.119,50.345,51.603,48.524z"/>
<path fill="#303030" d="M91.145,14.794H77.356v-0.001h-7.129v0.001H12.016c-4.954,0-8.97,4.016-8.97,8.97v51.683
	c0,4.954,4.016,8.97,8.97,8.97h30.4c0.318,1.05,0.555,2.8-0.181,5.115c0,0-3.505,6.475-7.247,8.198h-3.7
	c-1.083,0-1.96,0.878-1.96,1.96c0,1.083,0.878,1.96,1.96,1.96h41.347c1.083,0,1.96-0.878,1.96-1.96c0-1.083-0.878-1.96-1.96-1.96
	h-3.446c-3.743-1.723-7.247-8.198-7.247-8.198c-0.737-2.315-0.499-4.065-0.182-5.115h29.386c4.954,0,8.97-4.016,8.97-8.97V23.764
	C100.115,18.81,96.099,14.794,91.145,14.794z M6.459,24.126c0-3.375,2.736-6.111,6.111-6.111h57.658h1.168h4.327h1.634H90.59
	c3.375,0,6.111,2.736,6.111,6.111V67.85H6.459V24.126z M63.054,97.731H41.12c0,0,7.173-6.128,5.036-13.313h11.862
	C55.882,91.603,63.054,97.731,63.054,97.731z M96.702,75.086c0,3.375-2.736,6.111-6.111,6.111h-78.02
	c-3.375,0-6.111-2.736-6.111-6.111v-3.79h90.242V75.086z"/>
</svg>
