<?xml version="1.0" encoding="utf-8"?>
<!-- Generator: Adobe Illustrator 24.1.1, SVG Export Plug-In . SVG Version: 6.00 Build 0)  -->
<svg version="1.1" id="Capa_1" xmlns="http://www.w3.org/2000/svg" xmlns:xlink="http://www.w3.org/1999/xlink" x="0px" y="0px"
	 viewBox="0 0 114.8 107.9" style="enable-background:new 0 0 114.8 107.9;" xml:space="preserve">
<style type="text/css">
	.st0{fill:#0031B3;}
	.st1{fill:url(#SVGID_1_);}
	.st2{fill:#318FE8;}
	.st3{fill:#001B8D;}
	.st4{fill:#00379F;}
	.st5{fill:#197DE5;}
	.st6{opacity:0.88;fill:#197DE5;enable-background:new    ;}
	.st7{fill:#17A8ED;}
	.st8{fill:#58FFFE;}
	.st9{opacity:0.1;fill:url(#SVGID_2_);enable-background:new    ;}
	.st10{opacity:0.2;fill:url(#SVGID_3_);enable-background:new    ;}
	.st11{fill-rule:evenodd;clip-rule:evenodd;fill:#65B1DB;}
	.st12{fill:#A92FE5;}
	.st13{opacity:0.88;fill:#687DE5;enable-background:new    ;}
	.st14{fill:#AC9CF0;}
	.st15{fill:#D4BDF0;}
	.st16{opacity:0.1;fill:url(#SVGID_4_);enable-background:new    ;}
	.st17{opacity:0.59;}
	.st18{clip-path:url(#SVGID_6_);}
	.st19{fill:url(#SVGID_7_);}
	.st20{opacity:0.5;fill:url(#SVGID_8_);enable-background:new    ;}
	.st21{fill:#B85C77;}
	.st22{fill:#FEBDA9;}
	.st23{fill:url(#SVGID_9_);}
	.st24{fill:url(#SVGID_10_);}
	.st25{fill:#F5A397;}
	.st26{fill:#1B1F47;}
	.st27{fill:#401F47;}
	.st28{fill:#FFFFFF;}
	.st29{fill:url(#SVGID_11_);}
	.st30{opacity:0.3;fill:#976890;enable-background:new    ;}
	.st31{fill:url(#SVGID_12_);}
	.st32{fill:#00002A;}
	.st33{fill:#000A3B;}
	.st34{fill:url(#SVGID_13_);}
	.st35{opacity:0.5;fill:url(#SVGID_14_);enable-background:new    ;}
	.st36{opacity:0.5;fill:url(#SVGID_15_);enable-background:new    ;}
	.st37{opacity:0.5;fill:url(#SVGID_16_);enable-background:new    ;}
	.st38{fill:url(#SVGID_17_);}
	.st39{fill:url(#SVGID_18_);}
	.st40{fill:#09AEEF;}
	.st41{opacity:0.12;fill:#FFFFFF;enable-background:new    ;}
	.st42{fill:#F79E81;}
	.st43{fill:#DE8484;}
	.st44{opacity:0.1;fill:url(#SVGID_19_);enable-background:new    ;}
	.st45{fill:#29BBFE;}
	.st46{fill:#B84B81;}
	.st47{fill:#85DEDA;}
	.st48{display:none;}
	.st49{display:inline;}
	.st50{fill:#002D95;}
	.st51{fill:#F73535;}
	.st52{opacity:0.4;fill:url(#SVGID_20_);enable-background:new    ;}
	.st53{opacity:0.5;fill:#58FFFE;enable-background:new    ;}
	.st54{fill:#6FE0F6;}
	.st55{fill:#6D208B;}
	.st56{fill:#7CFFF6;}
	.st57{opacity:0.3;fill:url(#SVGID_21_);enable-background:new    ;}
	.st58{opacity:0.5;fill-rule:evenodd;clip-rule:evenodd;fill:#197DE5;enable-background:new    ;}
	.st59{fill:#4DD1FF;}
	.st60{fill:#6FCEF6;}
	.st61{fill:url(#SVGID_22_);}
	.st62{opacity:0.5;fill:#65B1DB;enable-background:new    ;}
	.st63{fill-rule:evenodd;clip-rule:evenodd;fill:#FFFFFF;}
</style>
<g id="Capa_3">
	<g>
		<g>
			<path class="st0" d="M87.7,100.1l0.9,0.4c2.1,0,5.5-2.4,5.6-4.7l0.7-17.2l0.4-10L97.7,13c0-2.6-3.2-5.4-6.1-4.6l-2.1,62l-0.2,5.9
				l-0.8,24.1L87.7,100.1z"/>
			
				<linearGradient id="SVGID_1_" gradientUnits="userSpaceOnUse" x1="29.6905" y1="844.9919" x2="94.504" y2="844.9919" gradientTransform="matrix(1 0 0 1 0 -790.7244)">
				<stop  offset="0.2177" style="stop-color:#0000FF"/>
				<stop  offset="0.2195" style="stop-color:#0100FE"/>
				<stop  offset="0.391" style="stop-color:#4A10C2"/>
				<stop  offset="0.5522" style="stop-color:#881D90"/>
				<stop  offset="0.6981" style="stop-color:#B82769"/>
				<stop  offset="0.826" style="stop-color:#DA2F4C"/>
				<stop  offset="0.931" style="stop-color:#EF333B"/>
				<stop  offset="1" style="stop-color:#F73535"/>
			</linearGradient>
			<path class="st1" d="M90.8,98.3l3.7-87.9c0.1-1.7-1.7-2.9-3.3-2.1L34,37.7c-0.7,0.4-1.2,1.1-1.2,1.8l-3.1,43.1
				c-0.1,1.1,0.6,2.1,1.7,2.3L88,100.4C89.4,100.8,90.8,99.8,90.8,98.3z"/>
			<polygon class="st2" points="86.5,97.1 30.9,82.3 34,39.1 91.2,10.5 			"/>
			<polygon class="st3" points="86.5,97.1 32,82.7 35.1,39.5 91.1,11.5 			"/>
			<polygon class="st4" points="89,15.6 57.6,31.5 54.8,86.3 84.5,94.2 			"/>
			<polygon class="st5" points="55.3,32.7 36.4,41.7 35.2,57.4 53.9,55.6 			"/>
			<polygon class="st5" points="52.2,85.5 33.6,81.5 35.1,58.7 53.9,56.9 			"/>
			<polygon class="st6" points="49.8,84.3 31.2,80.4 32.7,57.5 51.5,55.7 			"/>
			<polygon class="st7" points="91.1,11.5 90.8,17.1 34.9,42.3 35.1,39.5 			"/>
			<polygon class="st6" points="53.8,32.1 34.9,41.1 33.8,56.4 52.4,55 			"/>
			<polygon class="st8" points="88.2,13.7 88.2,17.4 65.6,27.9 65.6,25 			"/>
			<g>
				<polygon class="st8" points="58.7,58.8 83.1,57.2 83.1,56.8 58.7,58.5 				"/>
				<polygon class="st8" points="58.4,63.8 82.7,63.8 82.7,63.4 58.5,63.5 				"/>
				<polygon class="st8" points="58.6,60.8 82.9,59.8 83,59.4 58.6,60.5 				"/>
				<polygon class="st8" points="76.1,59 83,58.6 83,58.2 76.1,58.6 				"/>
				<polygon class="st8" points="80.8,62.8 82.7,62.8 82.8,62.4 80.8,62.4 				"/>
				<polygon class="st8" points="66.1,63 68.1,63 68.1,62.7 66.1,62.7 				"/>
				<polygon class="st8" points="65,59.6 75.9,59 75.9,58.6 65,59.2 				"/>
				<polygon class="st8" points="65.7,62.2 76.6,62 76.6,61.6 65.8,61.9 				"/>
				<polygon class="st8" points="69.1,63 80,62.8 80,62.4 69.1,62.6 				"/>
				<polygon class="st8" points="58.6,61.5 69.4,61.1 69.4,60.8 58.6,61.2 				"/>
				<polygon class="st8" points="58.4,64.7 82.6,64.9 82.6,64.5 58.4,64.4 				"/>
				<polygon class="st8" points="58.1,69.7 82.2,71.5 82.2,71.1 58.1,69.4 				"/>
				<polygon class="st8" points="58.3,66.7 82.4,67.5 82.4,67.1 58.3,66.3 				"/>
				<polygon class="st8" points="75.6,66.1 82.5,66.3 82.5,65.9 75.7,65.8 				"/>
				<polygon class="st8" points="80.3,70.3 82.2,70.5 82.3,70.1 80.3,69.9 				"/>
				
					<rect x="66.6" y="68.4" transform="matrix(6.410278e-02 -0.9979 0.9979 6.410278e-02 -6.8077 131.4957)" class="st8" width="0.3" height="1.9"/>
				<polygon class="st8" points="64.6,65.9 75.4,66.1 75.4,65.8 64.6,65.6 				"/>
				<polygon class="st8" points="65.4,68.6 76.1,69.2 76.1,68.8 65.4,68.3 				"/>
				<polygon class="st8" points="68.7,69.6 79.5,70.3 79.5,69.9 68.7,69.2 				"/>
				<polygon class="st8" points="58.2,67.3 69,67.8 69,67.4 58.3,67 				"/>
			</g>
			
				<radialGradient id="SVGID_2_" cx="-4594.2676" cy="882.5782" r="5.0296" gradientTransform="matrix(-0.5642 -8.000000e-02 -7.920000e-02 0.5586 -2429.0564 -773.8286)" gradientUnits="userSpaceOnUse">
				<stop  offset="0" style="stop-color:#27A6FC"/>
				<stop  offset="2.670000e-02" style="stop-color:#259FF1"/>
				<stop  offset="0.1849" style="stop-color:#1C75B2"/>
				<stop  offset="0.3415" style="stop-color:#13517C"/>
				<stop  offset="0.4926" style="stop-color:#0C344F"/>
				<stop  offset="0.637" style="stop-color:#071D2D"/>
				<stop  offset="0.7731" style="stop-color:#030D14"/>
				<stop  offset="0.8977" style="stop-color:#010305"/>
				<stop  offset="1" style="stop-color:#000000"/>
			</radialGradient>
			<path class="st9" d="M90.3,86.3c-0.2,1.6,0.9,3,2.4,3.2c1.6,0.2,3-0.9,3.2-2.4c0.2-1.6-0.9-3-2.4-3.2
				C91.9,83.7,90.5,84.8,90.3,86.3z"/>
			
				<radialGradient id="SVGID_3_" cx="-4633.0435" cy="891.9094" r="3.5952" gradientTransform="matrix(-0.5571 -7.900000e-02 -7.920000e-02 0.5586 -2417.783 -772.2409)" gradientUnits="userSpaceOnUse">
				<stop  offset="0" style="stop-color:#FF2C77"/>
				<stop  offset="3.340000e-02" style="stop-color:#F12A70"/>
				<stop  offset="0.1905" style="stop-color:#B21F53"/>
				<stop  offset="0.346" style="stop-color:#7C153A"/>
				<stop  offset="0.496" style="stop-color:#4F0E25"/>
				<stop  offset="0.6395" style="stop-color:#2D0815"/>
				<stop  offset="0.7747" style="stop-color:#140309"/>
				<stop  offset="0.8984" style="stop-color:#050102"/>
				<stop  offset="1" style="stop-color:#000000"/>
			</radialGradient>
			<path class="st10" d="M90.6,91.7c-0.2,1.1,0.6,2.1,1.7,2.3c1.1,0.2,2.1-0.6,2.3-1.7c0.2-1.1-0.6-2.1-1.7-2.3
				C91.8,89.8,90.8,90.6,90.6,91.7z"/>
			<g>
				<path class="st11" d="M51.2,77.5C51.2,77.5,51.1,77.6,51.2,77.5L51.2,77.5z"/>
			</g>
			<polygon class="st8" points="86.8,21.6 59.1,33.8 58.1,55.4 85,52.6 			"/>
			<g>
				
					<rect x="56.2" y="55.8" transform="matrix(0.9958 -9.140129e-02 9.140129e-02 0.9958 -4.8142 6.7742)" class="st5" width="30.7" height="0.3"/>
			</g>
			<path class="st12" d="M73.8,73.7l-9.6-0.9c-1.2-0.1-2.3,0.8-2.3,2l0,0c-0.1,1.1,0.7,2,1.8,2.2l9.6,1.7c1.2,0.2,2.4-0.7,2.5-1.9
				l0.1-0.8C75.8,74.9,75,73.8,73.8,73.7z"/>
			<path class="st13" d="M71.6,73l-9.3-0.9C61,72,59.9,73,59.8,74.2l0,0c-0.1,1.2,0.8,2.2,1.9,2.4L71,78c1.3,0.2,2.5-0.7,2.6-2.1
				v-0.6C73.7,74.2,72.8,73.1,71.6,73z"/>
			<path class="st14" d="M70,71.8l-9.4-0.6c-1.2-0.1-2.3,0.9-2.4,2.1l0,0c-0.1,1.2,0.8,2.2,1.9,2.3l9.4,1.2c1.3,0.2,2.4-0.8,2.5-2
				v-0.6C72.2,73,71.2,71.9,70,71.8z"/>
			<path class="st15" d="M69.1,71.8l-8.8-0.5c-1.2-0.1-2.1,0.9-2.1,2.2l0,0c0,1.2,0.8,2.2,1.9,2.3l8.7,1c1.2,0.1,2.2-0.8,2.3-2.1
				v-0.6C71,72.7,70.2,71.8,69.1,71.8z"/>
			
				<radialGradient id="SVGID_4_" cx="-3207.9221" cy="859.5174" r="7.4187" gradientTransform="matrix(-1.0308 -0.1164 -6.880000e-02 0.6093 -3184.4949 -823.5725)" gradientUnits="userSpaceOnUse">
				<stop  offset="0" style="stop-color:#F94081"/>
				<stop  offset="1" style="stop-color:#000000"/>
			</radialGradient>
			<path class="st16" d="M55.4,72.7c-0.3,2.5,2.9,4.9,7.1,5.4s7.9-1.2,8.2-3.7c0.3-2.5-2.9-4.9-7.1-5.4S55.7,70.2,55.4,72.7z"/>
			<g class="st17">
				<g>
					<g>
						<defs>
							<polygon id="SVGID_5_" points="86.8,21.7 59,33.8 58,55.5 84.9,52.6 							"/>
						</defs>
						<clipPath id="SVGID_6_">
							<use xlink:href="#SVGID_5_"  style="overflow:visible;"/>
						</clipPath>
						<g class="st18">
							
								<linearGradient id="SVGID_7_" gradientUnits="userSpaceOnUse" x1="-3436.5408" y1="846.6489" x2="-3436.5408" y2="823.5766" gradientTransform="matrix(-1 0 0 1 -3367.1165 -790.7244)">
								<stop  offset="0" style="stop-color:#0E4095"/>
								<stop  offset="1" style="stop-color:#0E1B6D"/>
							</linearGradient>
							<path class="st19" d="M61,53.7c1.3,3.9,7.3,2,10.8-1c3.5-3.2,5-9.7,5-9.7s0.7-2.5,1-4.6c0.2-1.1,0.3-2.1,0.2-2.6
								c-0.3-1.3-3.4-2.7-3.9-2.9l0,0H74l-3.8,0.5l0,0c0,0.3-0.3,2.7-0.9,5.2l0,0c-0.5,2-1.1,4-1.9,5.1C65.4,46.7,59.7,50,61,53.7z"
								/>
							
								<linearGradient id="SVGID_8_" gradientUnits="userSpaceOnUse" x1="-3445.2813" y1="829.9744" x2="-3433.9812" y2="829.9744" gradientTransform="matrix(-1 0 0 1 -3367.1165 -790.7244)">
								<stop  offset="0" style="stop-color:#310054"/>
								<stop  offset="1" style="stop-color:#360068"/>
							</linearGradient>
							<path class="st20" d="M66.9,45.6c0,0,2.6-1.1,4.5-1.9c2-0.8,5.8-2,5.8-2l0.7-3.3l0.3-0.7L78,33l-3.6-0.1h-0.2l0,0l-3.8,0.4
								l0,0c0,0.3-0.3,2.7-0.9,5.2l0,0l0,0c0,0,0.1,1.5-0.6,3.4C68.1,43.9,66.9,45.6,66.9,45.6z"/>
							<path class="st21" d="M77.1,58.4c0,0,0.6-0.5,0.6-0.6c-0.1-0.1-0.7,0.1-0.7,0.1L77.1,58.4z"/>
							<path class="st22" d="M76.5,55.5c0,0-0.5,0.6-0.5,0.7c0,0.1-0.1,1.9,0.2,2.2c0.3,0.3,1.6,0.1,1.6,0s-0.6-0.3-0.6-0.3
								s-0.1-1.5-0.3-2.2l0.2-0.2C77.1,55.8,76.9,55.5,76.5,55.5z"/>
							<path class="st21" d="M60.5,47.5v-0.6c0-0.1,0.2-0.2,0.3-0.1l0.1,0.3l0.5,0.8l-0.2,0.6L60.5,49c0,0-0.6-0.3-0.6-0.5
								c-0.1-0.2,0.2-0.5,0.2-0.5L60.5,47.5z"/>
							
								<linearGradient id="SVGID_9_" gradientUnits="userSpaceOnUse" x1="-3438.324" y1="885.8742" x2="-3438.324" y2="848.9742" gradientTransform="matrix(-1 0 0 1 -3367.1165 -790.7244)">
								<stop  offset="0" style="stop-color:#360090"/>
								<stop  offset="0.996" style="stop-color:#1845B8"/>
							</linearGradient>
							<path class="st23" d="M63.1,91.2l0.8,0.6c1.7-6.7,6.7-20.4,8.5-24.9c0.4-0.9,0.6-1.4,0.7-1.4c0.5,0,1.3,3.3,1.4,8.9
								c0,1.8,0.1,4.6,0,7.5v0.2c0,5.5-0.1,11.4-0.1,12.6c0,0.1,0,0.1,0,0.1v0.1l0.7,0.2l0,0c0.1-0.3,2-8.5,2.9-15.8
								c0.9-7.5,1.6-15.6,1.2-16.8c-0.4-1.4-1.3-2.8-1.9-3.6l0,0c-0.3-0.4-0.6-0.7-0.6-0.7L69.1,61c-0.1,0.1-0.1,0.3-0.2,0.4
								L68.8,62c-1.9,5.4-3.3,11.7-4.2,17.1C63.5,85.8,63.1,91.2,63.1,91.2z"/>
							
								<linearGradient id="SVGID_10_" gradientUnits="userSpaceOnUse" x1="-3437.9568" y1="840.0244" x2="-3428.061" y2="840.0244" gradientTransform="matrix(-1 0 0 1 -3367.1165 -790.7244)">
								<stop  offset="0" style="stop-color:#1D89FF"/>
								<stop  offset="1" style="stop-color:#3B8CFE"/>
							</linearGradient>
							<path class="st24" d="M60.9,49.3c0,0,1.5,4,3.7,5.2c0,0,2.9-1.7,4.5-4c0.4-0.5,0.6-1.1,0.9-1.8c0.8-2.2,0.9-4.6,0.9-4.6l0,0
								c-0.1,0.2-0.7,1-1.5,2l0,0c-1.6,2.1-3.9,5-4.1,4.9c-0.6-0.1-2.9-0.7-3.8-2.3l0,0L60.9,49.3z"/>
							<path class="st25" d="M74.1,41c0,0-0.2,0.8-0.2,1l1.2,0.9c0,0-1.5,2.1-3,2.5s-0.4-1.9-0.4-1.9s0.5-0.3,0.6-0.5
								s0.2-0.9,0.2-0.9L74.1,41z"/>
							<path class="st21" d="M74,41.7c0,0-0.6,0.7-1.6,0.7v-0.2l1.7-1.2L74,41.7z"/>
							<path class="st22" d="M70,39.6c-0.1,1.9,1.2,3.2,1.7,3.1c0.1,0,0.3-0.1,0.6-0.2l0,0c0.5-0.3,1.2-0.7,1.9-1.5
								c1-1.1,1.9-2.8,1.9-2.8c0.3-0.8,0.8-3.3,0.6-4.8c-0.1-0.6-0.2-1-0.5-1.2c-1.1-0.8-4.6,0.8-4.8,1c0,0,0,0.1-0.1,0.1
								c-0.1,0.3-0.3,1-0.5,1.9l0,0C70.4,36.6,70,38.5,70,39.6z"/>
							<path class="st25" d="M70.7,35.1L70.7,35.1c0,0,2.7-1.2,3.8-0.5c1.1,0.8,0.3,4.3-0.1,5.4c-0.4,1.1-2,2.4-2.1,2.4
								c0.5-0.3,1.2-0.7,1.9-1.5c1-1.1,1.9-2.8,1.9-2.8c0.3-0.8,0.8-3.3,0.6-4.8l-1.3-0.8l-3.6,0.4l-0.4,0.3
								C71.1,33.5,70.9,34.2,70.7,35.1z"/>
							<path class="st26" d="M74.7,36.3c0,0-0.5-0.4-1-0.5s-1.3,0.1-1.3,0.1s-0.2-0.1-0.2-0.4c0,0,0.6-0.2,1.3,0.1
								C74.3,35.8,74.7,36.3,74.7,36.3z"/>
							<path class="st26" d="M70.9,36.1c0,0,0.1,0.2,0,0.3s-0.5,0.4-0.5,0.4s-0.1-0.2,0.1-0.4C70.6,36.1,70.9,36.1,70.9,36.1z"/>
							<path class="st27" d="M72.5,37.8c0,0.3,0.1,0.5,0.3,0.4c0.2-0.1,0.3-0.3,0.3-0.6s-0.1-0.5-0.3-0.4
								C72.6,37.2,72.5,37.5,72.5,37.8z"/>
							<path class="st27" d="M70.3,38.3c0,0.3,0.1,0.4,0.2,0.4c0.1-0.1,0.3-0.3,0.3-0.6s-0.1-0.4-0.2-0.4
								C70.4,37.8,70.3,38,70.3,38.3z"/>
							<path class="st28" d="M70.6,40.8L70.6,40.8c0.2,0.2,0.5,0.6,0.9,0.5c0.5-0.2,1.1-1.6,1.1-1.6l-0.2,0.1l0,0L70.6,40.8z"/>
							<path class="st21" d="M70.6,40.8L70.6,40.8c0.2,0.2,0.5,0.6,0.9,0.5c0.5-0.2,1.1-1.6,1.1-1.6l-0.2,0.1l0,0l-0.2,0.5
								c0,0-0.5,0.5-1.2,0.7L70.6,40.8z"/>
							
								<linearGradient id="SVGID_11_" gradientUnits="userSpaceOnUse" x1="-3441.656" y1="833.7244" x2="-3441.656" y2="821.2496" gradientTransform="matrix(-1 0 0 1 -3367.1165 -790.7244)">
								<stop  offset="0" style="stop-color:#2E33A0"/>
								<stop  offset="1" style="stop-color:#066586"/>
							</linearGradient>
							<path class="st29" d="M71.7,34.4c0,0,2.2-1.3,3.3-1c1.4,0.4,0.9,3.9,0.9,3.9s0.7,0.2,1.2,1.5S76.9,43,76.9,43
								s3.1-9.9,1.3-11.7c-1.8-1.7-5.2-0.3-7.7,1.3C70.3,32.6,69.9,34.3,71.7,34.4z"/>
							<path class="st25" d="M76,36.9c0,0,1.5-1.6,2.1-1.1s-1,3.2-1.9,3.5c-0.9,0.4-0.8-0.7-0.8-0.7L76,36.9z"/>
							<path class="st21" d="M75.9,38c0,0,0.8-1.1,1.3-1.4c0.5-0.3,0.6,0.1,0.6,0.1s-0.2-0.2-0.6,0.2c-0.3,0.2-0.4,0.5-0.4,0.5
								s0.3,0.2,0,0.8L77,38c0,0-0.7,0.7-1,0.6C75.8,38.4,75.9,38,75.9,38z"/>
							<path class="st30" d="M60.9,49.3c0,0,1.5,4,3.7,5.2c0,0,2.9-1.7,4.5-4c0.4-0.5,0.6-1.1,0.9-1.8l0.8-4.5c-0.1,0.2-0.7,1-1.5,2
								l0,0c-0.1,0.2-2.4,5.2-4.1,6.6l-0.1-1.6c-0.6-0.1-2.9-0.7-3.8-2.3l0,0L60.9,49.3z"/>
							
								<linearGradient id="SVGID_12_" gradientUnits="userSpaceOnUse" x1="-3443.2664" y1="827.9914" x2="-3443.2664" y2="824.9071" gradientTransform="matrix(-1 0 0 1 -3367.1165 -790.7244)">
								<stop  offset="0" style="stop-color:#22316D"/>
								<stop  offset="1" style="stop-color:#0E405C"/>
							</linearGradient>
							<path class="st31" d="M75.8,37.3c0,0,0.3-2.1-0.1-3.1c0,0,0.8,1.4,0.9,2.1C76.6,36.3,76.1,37.1,75.8,37.3z"/>
							<path class="st22" d="M60.4,47.4c-0.1,0-0.2,0.2-0.2,0.2S60,47.7,60,47.8c-0.1,0.1,0,0.3,0,0.3s-0.1,0.1-0.2,0.3
								c0,0.1,0.4,0.3,0.5,0.3c0.1-0.1-0.2-0.4-0.2-0.4s0.3,0.1,0.4,0.1c0.1,0,0.1-0.2,0.1-0.2s0.2-0.1,0.2-0.2
								C60.8,47.7,60.4,47.4,60.4,47.4z"/>
							<polygon class="st26" points="64.9,45.1 65.1,45.4 59.4,47.7 58.9,47.8 59.4,47.4 							"/>
							<path class="st22" d="M61.4,48.9c0,0,0.2-0.6,0.3-1s-0.9-1.2-0.9-1.2s-0.2,0.2-0.1,0.5c0.1,0.3,0.4,0.4,0.3,0.6
								c0,0.1-0.3,0.5-0.3,0.7c-0.1,0.2-0.3,0.3-0.3,0.4s0.5,0.4,0.5,0.4L61.4,48.9z"/>
							<path class="st22" d="M60.7,46.7c0,0.1-0.2,0.2-0.3,0.2C60.4,46.9,60.6,46.5,60.7,46.7z"/>
							<path class="st32" d="M75.1,95.1c0,0,0.6,1.1,0.8,2.2l-2-0.7c0,0,0-1.4,0.4-1.7L75.1,95.1z"/>
							<path class="st32" d="M63.9,91.8c0,0,0,0.8-0.1,1.3l-4.7-1.6c0,0,1.1-0.4,3.9-0.3L63.9,91.8z"/>
							<path class="st33" d="M77.3,98.1c0,0-0.8-1.1-1.9-2.3c0,0-0.7-0.4-1.5,0.8L77.3,98.1z"/>
							
								<linearGradient id="SVGID_13_" gradientUnits="userSpaceOnUse" x1="-3442.208" y1="835.8752" x2="-3437.4314" y2="835.8752" gradientTransform="matrix(-1 0 0 1 -3367.1165 -790.7244)">
								<stop  offset="0" style="stop-color:#1D89FF"/>
								<stop  offset="1" style="stop-color:#3B8CFE"/>
							</linearGradient>
							<path class="st34" d="M75.1,42.9c0,0-3.7,4.6-4.6,4.5c-0.8-0.1,1.1-3.9,1.1-3.9S71,45.1,72,45C73,45,75.1,42.9,75.1,42.9z"/>
							
								<linearGradient id="SVGID_14_" gradientUnits="userSpaceOnUse" x1="-3441.1741" y1="885.8742" x2="-3441.1741" y2="849.6742" gradientTransform="matrix(-1 0 0 1 -3367.1165 -790.7244)">
								<stop  offset="0" style="stop-color:#310054"/>
								<stop  offset="1" style="stop-color:#360068"/>
							</linearGradient>
							<path class="st35" d="M75.6,81.7C74.8,82,74.5,82,74.5,82v0.2l-0.1,12.6c0,0.1,0,0.1,0,0.1V95l0.7,0.2l0,0
								c0.1-0.3,2-8.5,2.9-15.8c0.9-7.5,1.6-15.6,1.2-16.8c-0.4-1.4-1.3-2.8-1.9-3.6l0,0L69,61.5L68.8,62c0,0,5.6-0.5,8.3-1.2
								c0,0,1.1,1.8,0.8,7.4C77.5,75.6,76.5,81.3,75.6,81.7z"/>
							
								<linearGradient id="SVGID_15_" gradientUnits="userSpaceOnUse" x1="-3439.7664" y1="856.3818" x2="-3439.7664" y2="855.0415" gradientTransform="matrix(-1 0 0 1 -3367.1165 -790.7244)">
								<stop  offset="0" style="stop-color:#310054"/>
								<stop  offset="1" style="stop-color:#360068"/>
							</linearGradient>
							<path class="st36" d="M73.9,65.6c0,0-1.3,0.3-2.5-1.3L73.9,65.6z"/>
							
								<linearGradient id="SVGID_16_" gradientUnits="userSpaceOnUse" x1="-3434.9165" y1="882.5733" x2="-3434.9165" y2="857.2733" gradientTransform="matrix(-1 0 0 1 -3367.1165 -790.7244)">
								<stop  offset="0" style="stop-color:#310054"/>
								<stop  offset="1" style="stop-color:#360068"/>
							</linearGradient>
							<path class="st37" d="M63.1,91.2l0.8,0.6c1.7-6.7,6.7-20.4,8.5-24.9l0.1-0.4c-0.1,0.3-4,9.3-4.8,11.2c-0.9,1.9-3,1.4-3,1.4
								C63.5,85.8,63.1,91.2,63.1,91.2z"/>
							
								<linearGradient id="SVGID_17_" gradientUnits="userSpaceOnUse" x1="-3439.9165" y1="852.5967" x2="-3439.9165" y2="833.616" gradientTransform="matrix(-1 0 0 1 -3367.1165 -790.7244)">
								<stop  offset="0" style="stop-color:#D09AB5"/>
								<stop  offset="1" style="stop-color:#DEC4D4"/>
							</linearGradient>
							<path class="st38" d="M69.4,55.6c0.1,0.6,0.2,1.1,0.2,1.4c-0.1,0.9-1.1,3.2-1.2,3.4c0,0.2,0.1,0.4,0.1,0.4L68,61.9
								c0,0,2.4-0.2,4.4-0.7c1.6-0.4,2.9-1,3.8-1.6c0.8-0.5,1.3-0.9,1.4-0.9l0,0c0,0-0.6-0.8-0.7-1.2c-0.3-0.5-2.2-2.8-2.5-3.9
								c-0.4-1.4,0.9-4.3,1.1-5.3c0-0.1,0-0.1,0-0.2c0-0.7,0-5.1,0-5.1l-0.4-0.2c0,0-3.9,4.5-4.4,4.1s1-3.5,1-3.5l-0.8,0.7
								c0,0-2.8,4.7-2.8,5.5c0,0.1,0,0.4,0.1,0.7c0.1,0.6,0.4,1.4,0.6,2.3l0.1,0.3C69,53.9,69.2,54.8,69.4,55.6
								C69.4,55.5,69.4,55.6,69.4,55.6L69.4,55.6z"/>
							
								<linearGradient id="SVGID_18_" gradientUnits="userSpaceOnUse" x1="-3445.7664" y1="846.6679" x2="-3445.7664" y2="833.8106" gradientTransform="matrix(-1 0 0 1 -3367.1165 -790.7244)">
								<stop  offset="0" style="stop-color:#1DB8FF"/>
								<stop  offset="1" style="stop-color:#51BEFE"/>
							</linearGradient>
							<path class="st39" d="M75.1,48.3c2.2,1,4.4,2.9,4.4,2.9c-0.4,1.4-3,4.4-3,4.4l0.3,0.4c0.3-0.1,0.6-0.2,0.9-0.4
								c2.6-1.2,4.7-3.7,4.7-3.7c-1.9-5.1-4.5-6.7-5.6-8c-0.3-0.4-1.4-0.8-1.4-0.8c-0.3,0.7-0.4,1.5-0.5,2.3
								C74.9,46.9,75.1,48.3,75.1,48.3z"/>
							<path class="st30" d="M68.1,50.3l0.6,2.3l0.1,0.3l0.6,2.6l0,0c0-0.3-0.7-3.6-0.7-3.9c0-0.3,3.3-0.7,3.8-0.4
								c0.2,0.2,0.4,2.4,0.8,3.7s0.8,3.1,0.8,3.3s-3.5,2.3-5.4,2.5c0.8-0.1,3.8-0.4,6.2-2.1l1.2,1l1.4-0.9l0,0c0,0-0.6-0.8-0.7-1.2
								c-0.3-0.5-2.2-2.8-2.5-3.9c-0.4-1.4,0.9-4.3,1.1-5.3l-0.3-0.1c0,0-1.1,0.7-2.4,1.3C71.5,50.1,68.1,50.3,68.1,50.3z"/>
							<path class="st30" d="M75.1,48.3c2.2,1,4.4,2.9,4.4,2.9c-0.4,1.4-3,4.4-3,4.4l0.3,0.4l0.9-0.4c2.6-1.2,4.7-3.7,4.7-3.7
								s-1.9-0.4-2.6-0.8c-0.7-0.4-3.9-2.8-4.3-3.4c-0.3-0.6-0.6-2.2-0.7-2.3C74.9,46.9,75.1,48.3,75.1,48.3z"/>
							<path class="st40" d="M70.3,32.6c0,0,2.6-1.6,4.3-1.8c1.8-0.2,3.3,0.4,3.3,0.4s-1-1.2-3.6-0.5C72,31.3,70.3,32.6,70.3,32.6z"
								/>
							<path class="st40" d="M69.9,36c0,0-0.6,4.5-1.4,6.2S65.4,46,65.4,46s2.2-2.4,3-4.3C69.2,39.9,69.9,36,69.9,36z"/>
							<path class="st40" d="M68.6,62.6c0,0-3.7,14-4.3,18.4C64.4,80.9,66.5,67.1,68.6,62.6z"/>
							<g>
								<path class="st28" d="M71.5,38c0-0.3,0.1-0.5,0.2-0.8c0.2-0.6,0.7-1.1,1.1-1.3c0.7-0.3,1.1,0.3,1.1,1.2
									c0,0.2-0.1,0.5-0.2,0.7c-0.2,0.6-0.7,1.2-1.1,1.3C72,39.4,71.5,38.9,71.5,38z M71.9,37.2c-0.1,0.2-0.1,0.5-0.1,0.7
									c0,0.8,0.3,1.2,0.9,1c0.4-0.1,0.7-0.5,0.9-1.1c0.1-0.2,0.1-0.4,0.1-0.7c0-0.8-0.3-1.2-0.9-1C72.4,36.3,72.1,36.7,71.9,37.2z
									"/>
							</g>
							<g>
								<path class="st28" d="M69.1,38.8c0-0.8,0.5-1.6,1-1.8s0.9,0.3,0.8,1.2c0,0.8-0.5,1.6-1,1.8S69,39.6,69.1,38.8z M69.3,38.7
									c0,0.7,0.2,1.1,0.6,1s0.7-0.8,0.7-1.5s-0.2-1.1-0.6-1C69.7,37.4,69.4,38,69.3,38.7z"/>
							</g>
							<g>
								<path class="st28" d="M76.6,36.4c0.1,0,0.1-0.1,0.1-0.2c0-0.1,0-0.1-0.1-0.1L73.8,37c-0.1,0-0.1,0.1-0.1,0.2
									c0,0.1,0,0.1,0.1,0.1L76.6,36.4L76.6,36.4z"/>
							</g>
							<path class="st41" d="M71.8,37.2c1.3-0.3,1.8,0.7,1.8,0.7c0.1-0.2,0.1-0.5,0.1-0.7c0-0.8-0.4-1.3-1-1.1
								C72.4,36.2,72,36.7,71.8,37.2z"/>
							<path class="st41" d="M69.3,38.1c1-0.2,1.4,0.8,1.4,0.8c0.1-0.2,0.1-0.4,0.1-0.7c0-0.8-0.3-1.3-0.8-1.1
								C69.8,37.1,69.5,37.5,69.3,38.1z"/>
							<path class="st42" d="M71.4,37.3c0,0-0.3,1.1-0.6,1.6c-0.3,0.5-0.4,0.7-0.4,0.8s0.5,0.3,0.8,0.1
								C71.4,39.7,71.5,38.1,71.4,37.3z"/>
							<path class="st43" d="M71.4,38.7c0,0-0.1,0.8-0.3,0.9c-0.2,0.2-0.8,0.1-0.8,0.1s0.4,0.4,0.7,0.2
								C71.5,39.7,71.4,38.7,71.4,38.7z"/>
							<path class="st28" d="M71.7,37.8c0,0-0.4-0.1-0.8,0.3L71.7,37.8z"/>
							<path class="st40" d="M63.1,91.2c0,0,1.1-9,1.6-12.1C64.7,79.1,63.1,86.6,63.1,91.2z"/>
							<path class="st40" d="M74.4,94.7c0,0,0.3-16.8,0-22.7V94.7z"/>
						</g>
					</g>
				</g>
			</g>
			<g>
				<g>
					<path class="st8" d="M44.2,92.9v-3.2l11.2,3.6v4.2L44.2,92.9z M44.5,90.1v2.6L55.1,97v-3.5L44.5,90.1z"/>
				</g>
				<g>
					<path class="st8" d="M46.1,93C46.1,93,46.2,93,46.1,93c0.1-0.1,0.2-0.2,0.1-0.2l-0.9-1.3l0.9-0.4c0.1,0,0.1-0.1,0.1-0.2
						s-0.1-0.1-0.2-0.1l-1.2,0.6l1.1,1.5C46,93,46.1,93,46.1,93z"/>
				</g>
				<g>
					<path class="st8" d="M47.4,93.6L47.4,93.6c0.1-0.1,0.2-0.2,0.1-0.2l-0.8-1.3l0.9-0.4c0.1,0,0.1-0.1,0.1-0.2s-0.1-0.1-0.2-0.1
						L46.3,92l1,1.6C47.3,93.6,47.3,93.6,47.4,93.6z"/>
				</g>
			</g>
			<g>
				<g>
					<path class="st8" d="M46.4,83l0.5-5.4l5.2,0.5L51.7,84L46.4,83z M47.1,77.9l-0.4,4.9l4.7,0.9l0.3-5.3L47.1,77.9z"/>
				</g>
				<polygon class="st8" points="50,78.9 49.7,82.6 47.8,80.6 				"/>
				
					<radialGradient id="SVGID_19_" cx="-3006.9121" cy="1223.3374" r="4.0869" gradientTransform="matrix(-1.1386 -3.850000e-02 -1.910000e-02 0.5639 -3351.0725 -727.6891)" gradientUnits="userSpaceOnUse">
					<stop  offset="0" style="stop-color:#02689B"/>
					<stop  offset="1" style="stop-color:#000000"/>
				</radialGradient>
				<path class="st44" d="M44.6,77.8c0,1.3,2,2.4,4.6,2.5s4.7-0.9,4.7-2.1c0-1.3-2-2.4-4.6-2.5C46.7,75.5,44.6,76.5,44.6,77.8z"/>
			</g>
			<g>
				<g>
					<path class="st8" d="M74.8,10.1l5-3.3l-0.1,5.8l-5,2.7L74.8,10.1z M79.5,7.4l-4.4,2.9L75,14.9l4.4-2.4L79.5,7.4z"/>
				</g>
				<g>
					<path class="st8" d="M75.4,10.6L79,8.3l-0.1,3.9l-3.5,2V10.6z M78.7,8.8l-3,1.9v2.9l2.9-1.6L78.7,8.8z"/>
				</g>
				<g>
					<polygon class="st8" points="76.7,12 78.9,8.7 78.7,8.5 76.7,11.6 75.6,10.6 75.4,10.8 					"/>
				</g>
			</g>
			<g>
				<polygon class="st45" points="86.3,78.3 86.3,78.2 88.8,33.9 86.2,34.5 86.3,34.7 88.6,34.1 86.2,78.1 76.6,76.7 76.5,76.9 				
					"/>
			</g>
			<path class="st8" d="M75.8,76.8c0,0.3,0.2,0.6,0.4,0.6c0.3,0,0.5-0.2,0.5-0.6c0-0.3-0.2-0.6-0.4-0.6
				C76.1,76.2,75.8,76.5,75.8,76.8z"/>
			<path class="st8" d="M85.8,34.6c0,0.3,0.2,0.6,0.4,0.6c0.3,0,0.5-0.2,0.5-0.6c0-0.3-0.2-0.6-0.4-0.6C86,34,85.8,34.2,85.8,34.6z"
				/>
			<path class="st46" d="M92.2,92.1c0,0.4,0.2,0.8,0.6,0.8c0.3,0,0.6-0.3,0.6-0.7c0-0.4-0.2-0.8-0.6-0.8S92.2,91.7,92.2,92.1z"/>
			<path class="st47" d="M92.6,86.7c0,0.4,0.2,0.8,0.6,0.8c0.3,0,0.6-0.3,0.6-0.7c0-0.4-0.2-0.8-0.6-0.8
				C92.8,86,92.6,86.3,92.6,86.7z"/>
			<g>
				
					<rect x="26.9" y="60.3" transform="matrix(5.820029e-02 -0.9983 0.9983 5.820029e-02 -8.9239 111.4899)" class="st5" width="55.5" height="0.3"/>
			</g>
			<g>
				<polygon class="st45" points="48.8,77.9 49.1,72.8 58.1,73.5 58.1,73.3 49,72.6 48.7,77.9 				"/>
			</g>
			<path class="st8" d="M48.2,77.7c0,0.3,0.2,0.6,0.4,0.6c0.3,0,0.5-0.2,0.5-0.6c0-0.3-0.2-0.6-0.4-0.6S48.3,77.3,48.2,77.7z"/>
			<path class="st8" d="M57.3,73.4c0,0.3,0.2,0.6,0.4,0.6c0.3,0,0.5-0.2,0.5-0.6c0-0.3-0.2-0.6-0.4-0.6C57.5,72.8,57.3,73,57.3,73.4
				z"/>
			<g>
				<g>
					<polygon class="st8" points="48.8,29.1 55.3,25.6 55.4,18.6 55.1,18.6 55,25.4 48.6,28.9 					"/>
				</g>
				<g>
					<rect x="53.2" y="24.5" class="st8" width="0.3" height="1.9"/>
				</g>
				<g>
					<rect x="51.6" y="24.6" class="st8" width="0.3" height="2.7"/>
				</g>
				<g>
					<rect x="50.3" y="24.5" class="st8" width="0.3" height="3.5"/>
				</g>
				<g>
					<path class="st8" d="M52.3,24.1c1.2,0,2-0.3,2.1-0.3l-0.1-0.3c0,0-4,1.2-6-1.5L48,22.2C49.2,23.7,51,24.1,52.3,24.1z"/>
				</g>
				<g>
					<polygon class="st8" points="48.1,23.1 48.2,22.1 49.2,22.3 49.3,22 47.9,21.7 47.8,23 					"/>
				</g>
			</g>
			<g>
				<g>
					<path class="st28" d="M67.2,88.5C67.2,88.5,67.1,88.5,67.2,88.5c-0.1,0-0.3,0-0.6,0c-0.2,0-0.4-0.1-0.5-0.1
						c-0.1,0-0.1-0.1-0.1-0.1c0-0.2,0-0.3-0.1-0.3c0,0-0.3-0.1-0.7-0.2c-0.3-0.1-0.4-0.1-0.5-0.1c0,0-0.1,0.1-0.1,0.2
						C64.6,88,64.6,88,64.5,88c-0.1,0-0.3,0-0.6-0.1c-0.3-0.1-0.4-0.1-0.4-0.1c0,0,0.3-0.4,0.8-1.1c0.6-0.7,0.9-1.1,1-1.2
						c0,0,0.1-0.1,0.1-0.1c0,0,0.1,0,0.2,0.1c0.1,0,0.2,0,0.2,0.1c0,0,0.1,0,0.2,0c0.1,0,0.2,0,0.2,0c0,0,0.1,0,0.1,0.1
						c0.1,0.1,0.2,0.6,0.5,1.5C67.1,88,67.2,88.5,67.2,88.5z M65.7,86.4c0,0-0.1,0.2-0.3,0.3c-0.1,0.2-0.2,0.3-0.2,0.3
						c0,0,0,0,0.1,0.1c0.1,0,0.1,0,0.3,0.1c0.1,0,0.2,0,0.2,0c0,0,0,0,0,0c0,0,0-0.2-0.1-0.4C65.7,86.6,65.7,86.5,65.7,86.4z"/>
					<path class="st28" d="M71.1,87.9c-0.1,0.4-0.3,0.7-0.7,0.9C70,89,69.6,89,69.1,88.9c-0.1,0-0.4-0.1-0.8-0.2
						c-0.1,0-0.2,0-0.4-0.1s-0.3-0.1-0.4-0.1c0,0-0.1,0-0.1-0.1c0-0.1,0.1-0.3,0.1-0.6c0.1-0.3,0.1-0.5,0.1-0.6
						c0-0.1,0.1-0.4,0.1-0.6c0-0.3,0.1-0.5,0.1-0.6c0,0,0,0,0.1,0c0.1,0,0.3,0,0.6,0.1c0.5,0.1,0.9,0.2,1,0.2
						c0.4,0.1,0.7,0.3,0.9,0.4c0.2,0.2,0.3,0.3,0.4,0.6C71.1,87.5,71.1,87.7,71.1,87.9z M70.1,87.7c0-0.2,0-0.4-0.2-0.6
						c-0.1-0.2-0.4-0.3-0.7-0.3c-0.3-0.1-0.4-0.1-0.4,0c0,0.1,0,0.2-0.1,0.3c0,0.1-0.1,0.3-0.1,0.3c0,0.1,0,0.2-0.1,0.3
						c0,0.1,0,0.3-0.1,0.3c0,0.1,0.1,0.1,0.4,0.2c0.3,0.1,0.5,0,0.7-0.1C69.9,88.1,70,88,70.1,87.7z"/>
					<path class="st28" d="M73.1,88.9c0,0.3-0.2,0.4-0.6,0.6c-0.3,0.1-0.6,0.1-1,0.1c0,0,0,0,0,0c0,0-0.1-0.1-0.2-0.3
						c-0.1-0.2-0.1-0.3-0.1-0.4c0,0,0,0,0,0c0.3,0,0.4,0,0.5,0c0.2,0,0.3-0.1,0.3-0.2c0-0.1,0-0.2-0.1-0.3c-0.2-0.2-0.3-0.3-0.3-0.3
						c-0.1-0.2-0.1-0.3-0.1-0.5c0-0.2,0.2-0.4,0.5-0.5c0.3-0.1,0.6-0.1,0.9-0.1c0,0,0,0,0,0c0,0,0,0,0.1,0.1c0,0.1,0.1,0.3,0.2,0.6
						c0,0,0,0,0,0c0,0,0,0-0.1,0c0,0,0,0-0.1,0c0,0-0.1,0-0.1,0c-0.1,0-0.2,0-0.3,0c-0.1,0-0.2,0.1-0.2,0.2c0,0.1,0,0.2,0.1,0.3
						c0.2,0.2,0.3,0.4,0.3,0.4C73.1,88.6,73.2,88.7,73.1,88.9z"/>
				</g>
			</g>
		</g>
	</g>
</g>
<g id="seo" class="st48">
	<g class="st49">
		<path class="st8" d="M22.6,67.7c0,0.3,0.1,0.6,0.3,0.6c0.2,0,0.4-0.2,0.4-0.6c0-0.3-0.1-0.6-0.3-0.6
			C22.8,67.1,22.6,67.3,22.6,67.7z"/>
		<polygon class="st5" points="42.3,82.4 22.3,78.1 23.5,56.4 44,53.8 		"/>
		<polygon class="st0" points="44,53.8 44.3,54.3 42.9,82.1 42.3,82.4 		"/>
		<g>
			<g>
				<polygon class="st50" points="33.4,69.1 42.1,69.7 42.6,60.3 34,60.7 				"/>
				<polygon class="st8" points="23.5,68.5 32.1,69.1 32.7,60.7 24,61.1 				"/>
				<polygon class="st8" points="32.7,79.4 41.4,81 41.9,71.6 33.3,70.9 				"/>
				<polygon class="st50" points="22.8,77.5 31.4,79.1 32,70.8 23.4,70.1 				"/>
			</g>
			<polygon class="st8" points="26.2,77.5 30.8,78.3 30.9,77.2 26.3,76.4 			"/>
			<polygon class="st8" points="35.7,68.6 40.3,68.9 40.4,67.6 35.8,67.4 			"/>
			<polygon class="st8" points="23.9,77.1 25.7,77.4 25.8,76.3 24,76 			"/>
			<polygon class="st5" points="24.5,62.8 31.9,62.7 32,61.4 24.6,61.6 			"/>
			<polygon class="st5" points="35.3,74.4 39.5,74.9 39.6,73.1 35.4,72.6 			"/>
		</g>
		<polygon class="st15" points="26.8,56.4 24,56.7 23.9,58.7 26.8,58.5 		"/>
		<g>
			<polygon class="st51" points="18.3,79 21.5,80.3 21.8,75.9 18.6,75.3 			"/>
			<g>
				<path class="st28" d="M19,78.5L19,78.5c0.1,0.1,0.2,0.2,0.3,0.1l1.7-1.5c0.1-0.1,0.1-0.3,0-0.4l0,0c-0.1-0.1-0.2-0.2-0.3-0.1
					L19,78.1C19,78.2,18.9,78.4,19,78.5z"/>
				<path class="st28" d="M19.2,76.2L19.2,76.2c-0.1,0.1-0.1,0.3,0,0.4l1.4,2.4c0.1,0.1,0.2,0.2,0.3,0.1l0,0c0.1-0.1,0.1-0.3,0-0.4
					l-1.4-2.4C19.4,76.2,19.3,76.2,19.2,76.2z"/>
			</g>
		</g>
		<path class="st8" d="M22.1,78.3l1.2-22l20.8-2.6l-1.7,28.9L22.1,78.3z M23.6,56.5L22.4,78l19.7,4.2L43.9,54L23.6,56.5z"/>
		<path class="st8" d="M38.9,57.7c0,1.1,0.6,2.1,1.4,2.1s1.4-0.9,1.4-2.1c0-1.1-0.6-2.1-1.4-2.1S38.9,56.5,38.9,57.7z M39.3,57.7
			c0-0.8,0.4-1.4,1-1.4c0.5,0,1,0.6,1,1.4c0,0.8-0.4,1.4-1,1.4C39.8,59.1,39.3,58.5,39.3,57.7z"/>
		<path class="st8" d="M37.7,59L37.7,59c0.1,0.2,0.3,0.3,0.5,0.2l1-0.5c0.2-0.1,0.3-0.3,0.2-0.5v-0.1c-0.1-0.2-0.3-0.3-0.5-0.2
			l-1,0.5C37.7,58.7,37.6,58.9,37.7,59z"/>
	</g>
</g>
<g id="Capa_4" class="st48">
	<g class="st49">
		<g>
			<polygon class="st5" points="47.8,29.3 28.9,38.3 27.8,54.7 46.5,52.2 			"/>
			<polygon class="st8" points="47,30.2 46.9,33.5 29.2,40.8 29.4,38.5 			"/>
			<polygon class="st0" points="47.8,29.3 48,29.5 47,52.2 46.5,52.2 			"/>
		</g>
		<g>
			
				<radialGradient id="SVGID_20_" cx="-3400.6914" cy="828.7244" r="11.7982" gradientTransform="matrix(-1 0 0 1 -3367.1165 -790.7244)" gradientUnits="userSpaceOnUse">
				<stop  offset="0" style="stop-color:#000000"/>
				<stop  offset="1" style="stop-color:#02B3C4"/>
			</radialGradient>
			<polygon class="st52" points="43.6,24.7 24.6,35.5 23.5,51.3 42.3,47.6 			"/>
			<polygon class="st53" points="42.9,25.5 42.7,28.9 24.9,37.5 25.1,35.5 			"/>
			<polygon class="st8" points="43.6,24.7 43.9,24.9 42.9,47.9 42.3,47.6 			"/>
		</g>
		<polygon class="st8" points="23.5,51.3 42.3,47.6 42.9,47.9 23.7,51.4 		"/>
		<g>
			<polygon class="st8" points="25,36.2 42.8,26.8 42.8,26.3 25,35.8 			"/>
			<polygon class="st8" points="24.6,42.9 42.3,36.1 42.3,35.5 24.6,42.5 			"/>
			<polygon class="st8" points="24.8,38.8 42.6,30.5 42.6,29.9 24.9,38.4 			"/>
			<polygon class="st8" points="37.6,31.3 42.7,28.8 42.7,28.2 37.7,30.8 			"/>
			<polygon class="st8" points="40.9,35.2 42.4,34.7 42.4,34.1 41,34.7 			"/>
			<polygon class="st8" points="30.2,39.7 31.6,39.1 31.7,38.6 30.2,39.2 			"/>
			<polygon class="st8" points="29.5,35.3 37.5,31.4 37.5,30.9 29.6,34.9 			"/>
			<polygon class="st8" points="30,38.7 37.9,35.3 37.9,34.8 30,38.2 			"/>
			<polygon class="st8" points="32.4,38.7 40.3,35.5 40.4,34.9 32.4,38.2 			"/>
			<polygon class="st8" points="24.8,39.7 32.7,36.2 32.7,35.7 24.8,39.3 			"/>
			<polygon class="st8" points="24.5,44 42.2,37.7 42.2,37.1 24.5,43.6 			"/>
			<polygon class="st8" points="24,50.7 41.7,46.9 41.8,46.4 24.1,50.3 			"/>
			<polygon class="st8" points="24.3,46.6 42,41.3 42.1,40.7 24.3,46.2 			"/>
			<polygon class="st8" points="37.1,41.3 42.1,39.6 42.1,39.1 37.1,40.8 			"/>
			<polygon class="st8" points="40.4,45.8 41.8,45.5 41.8,44.9 40.4,45.3 			"/>
			<polygon class="st8" points="29.7,48.4 31.1,48.1 31.1,47.6 29.7,47.9 			"/>
			<polygon class="st8" points="29,43.9 36.9,41.3 36.9,40.8 29,43.5 			"/>
			<polygon class="st8" points="29.4,47.4 37.3,45.4 37.4,44.8 29.5,46.9 			"/>
			<polygon class="st8" points="31.9,47.8 39.8,46 39.8,45.4 31.9,47.4 			"/>
			<polygon class="st8" points="24.2,47.5 32.1,45.3 32.2,44.8 24.3,47.1 			"/>
		</g>
		<g>
			<polygon class="st45" points="22.9,67.7 22.9,67.5 20.3,67.4 22.4,44.3 24.1,43.4 24.1,43.2 22.2,44.2 22.2,44.2 20.1,67.5 			
				"/>
		</g>
		<path class="st8" d="M23.5,43.3c0,0.3,0.1,0.6,0.3,0.6c0.2,0,0.4-0.2,0.4-0.6c0-0.3-0.1-0.6-0.3-0.6S23.6,43,23.5,43.3z"/>
		<g>
			<polygon class="st8" points="23.8,51.4 24.8,35.6 43.7,24.8 43.6,24.6 24.5,35.4 23.5,51.4 			"/>
		</g>
		<g>
			<polygon class="st51" points="23.2,38.4 26.2,36.8 26.4,32.8 23.3,35.2 			"/>
			<g>
				<path class="st28" d="M23.9,37.4L23.9,37.4c0.1,0,0.2,0,0.3-0.2l1.6-2.7c0.1-0.2,0.1-0.3,0-0.4l0,0c-0.1,0-0.2,0.1-0.3,0.2
					L23.9,37C23.8,37.2,23.8,37.3,23.9,37.4z"/>
				<path class="st28" d="M24,35.4L24,35.4c-0.1,0.2-0.1,0.3,0,0.3l1.4,0.8c0.1,0.1,0.2,0,0.3-0.2l0,0c0.1-0.2,0.1-0.3,0-0.4
					l-1.4-0.8C24.2,35.1,24.1,35.2,24,35.4z"/>
			</g>
		</g>
		<polygon class="st8" points="46.2,51.1 46.8,36.4 46.2,36.8 45.6,51.2 		"/>
		<polygon class="st15" points="33.3,53.2 33.3,51.5 28.6,52.3 28.5,53.8 		"/>
	</g>
</g>
<g id="Capa_6" class="st48">
	<g class="st49">
		<path class="st54" d="M15,82.6c0,7.4,2.7,13.6,7,13.6s8.7-6.2,8.7-13.6S26.4,69.1,22,69.1S15,75.2,15,82.6z"/>
		<ellipse class="st5" cx="21.7" cy="82.5" rx="7.8" ry="13.4"/>
		<ellipse class="st0" cx="21" cy="82.3" rx="6.1" ry="10.4"/>
		<ellipse class="st5" cx="19.8" cy="81.8" rx="4.1" ry="7"/>
		<path class="st55" d="M17.1,81.7c0,1.8,0.9,3.3,2,3.3s2-1.5,2-3.3s-0.9-3.3-2-3.3C18,78.4,17.1,79.8,17.1,81.7z"/>
		<g>
			<path class="st11" d="M20.9,80.7c-0.1,0-0.1,0.1-0.1,0.1C21,80.8,20.9,80.7,20.9,80.7z"/>
			<path class="st11" d="M21.1,82.6L21.1,82.6c-0.1,0.1-0.1,0.2,0,0.2C21.1,82.7,21.1,82.6,21.1,82.6z"/>
			<path class="st11" d="M21.4,82.5c-0.1,0-0.1,0.1-0.1,0.1C21.4,82.6,21.4,82.6,21.4,82.5z"/>
			<path class="st11" d="M21.3,82.8C21.2,82.8,21.3,82.7,21.3,82.8c-0.1,0-0.1,0-0.1,0.1C21.2,82.8,21.2,82.8,21.3,82.8
				C21.3,82.8,21.2,82.8,21.3,82.8c0.1,0,0.1,0,0.1-0.1C21.4,82.7,21.3,82.7,21.3,82.8C21.2,82.7,21.3,82.7,21.3,82.8z"/>
			<path class="st11" d="M21.1,82.8C21,82.9,21.1,82.9,21.1,82.8C21,82.9,20.9,82.9,21.1,82.8C21.1,82.9,21.1,82.9,21.1,82.8z"/>
			<path class="st11" d="M21.1,83.2L21.1,83.2C21.1,83.3,21.1,83.3,21.1,83.2z"/>
			<path class="st11" d="M21.3,83.4C21.3,83.5,21.3,83.5,21.3,83.4C21.4,83.5,21.4,83.4,21.3,83.4z"/>
			<path class="st11" d="M21.7,83.5C21.6,83.5,21.7,83.6,21.7,83.5C21.7,83.6,21.7,83.5,21.7,83.5z"/>
			<path class="st11" d="M21.6,81.6C21.5,81.6,21.5,81.6,21.6,81.6C21.5,81.6,21.5,81.7,21.6,81.6C21.5,81.7,21.6,81.6,21.6,81.6z"
				/>
			<path class="st11" d="M21,82C21,82,21,82.1,21,82C21,82.1,21,82.1,21,82C21.1,82.1,21,82,21,82z"/>
			<path class="st11" d="M20.9,82.1L20.9,82.1C21,82.1,21,82.1,20.9,82.1C21,82.1,20.9,82.1,20.9,82.1z"/>
			<path class="st11" d="M23.2,85.6c-0.1,0.1-0.1,0.1-0.1,0.2h0.1c0.1,0,0-0.1,0.1-0.1C23.2,85.7,23.2,85.7,23.2,85.6z"/>
			<path class="st11" d="M22.3,82.3C22.2,82.4,22.3,82.4,22.3,82.3C22.2,82.5,22.2,82.4,22.3,82.3c-0.2,0.1,0,0.1-0.1,0.1
				c0,0,0,0,0,0.1c0.1,0,0,0,0-0.1C22.3,82.4,22.3,82.4,22.3,82.3C22.3,82.4,22.3,82.4,22.3,82.3z"/>
			<path class="st11" d="M21.6,83.3L21.6,83.3c-0.1,0-0.1,0-0.1,0.1C21.5,83.3,21.6,83.3,21.6,83.3z"/>
			<path class="st11" d="M20.5,80.1C20.5,80.1,20.4,80.2,20.5,80.1C20.6,80.1,20.5,80.2,20.5,80.1z"/>
			<path class="st11" d="M19.8,80.8c-0.1,0-0.1,0.2,0,0.2c0,0.1-0.1,0.1-0.2,0.1c0.1,0,0.2,0,0.3,0.1c0.1,0,0-0.2-0.1-0.2
				C19.9,80.9,19.9,80.9,19.8,80.8z"/>
			<path class="st11" d="M22.1,83.7C22.1,83.8,22.1,83.8,22.1,83.7C22.2,83.8,22.1,83.8,22.1,83.7z"/>
			<path class="st11" d="M22.6,84C22.6,84,22.5,84,22.6,84L22.6,84z"/>
			<path class="st11" d="M27.3,75.1h-0.1v0.1C27.4,75.2,27.3,75.2,27.3,75.1z"/>
			<path class="st11" d="M21.5,85.4c-0.1,0-0.2,0.1-0.2,0.1C21.4,85.5,21.5,85.5,21.5,85.4C21.5,85.5,21.5,85.5,21.5,85.4z"/>
			<path class="st11" d="M20.3,76.3C20.2,76.3,20.2,76.4,20.3,76.3C20.3,76.4,20.3,76.4,20.3,76.3z"/>
			<path class="st11" d="M20.3,76.7c-0.1,0-0.1,0.1-0.1,0.2C20.4,76.9,20.3,76.8,20.3,76.7z"/>
			<path class="st11" d="M19.9,77C19.8,76.9,19.8,77.2,19.9,77C20,77.1,19.8,77.1,19.9,77z"/>
			<path class="st11" d="M19.9,77.2c-0.1,0-0.1,0.2,0,0.2C19.9,77.3,20,77.3,19.9,77.2z"/>
			<path class="st11" d="M19.9,78.1L19.9,78.1c0,0.1,0,0.1,0.1,0.1L19.9,78.1z"/>
			<path class="st11" d="M20,77.5c-0.1,0-0.1,0.1-0.1,0.2C20,77.6,19.9,77.5,20,77.5z"/>
			<path class="st11" d="M24.6,70.2C24.5,70.2,24.5,70.2,24.6,70.2C24.6,70.2,24.6,70.3,24.6,70.2L24.6,70.2L24.6,70.2z"/>
			<path class="st11" d="M24.9,72.8c-0.1,0,0,0.1-0.1,0.2C24.9,72.9,24.9,72.9,24.9,72.8z"/>
			<path class="st11" d="M23.1,81.3L23.1,81.3C23.1,81.4,23.2,81.4,23.1,81.3C23.2,81.4,23.2,81.3,23.1,81.3
				C23.2,81.4,23.1,81.4,23.1,81.3z"/>
			<path class="st11" d="M23.5,83.9c-0.1,0,0,0.1-0.1,0.2C23.5,84.1,23.5,84,23.5,83.9z"/>
			<path class="st11" d="M20.5,82.1c-0.1,0.1,0.1,0.3,0.3,0.3C20.9,82.3,20.6,82.2,20.5,82.1z"/>
			<path class="st11" d="M18.8,82.3c-0.2,0,0.1,0.1-0.1,0.1L18.8,82.3C18.9,82.4,18.9,82.4,18.8,82.3z"/>
			<path class="st11" d="M20.1,82.2C20,82.2,20.1,82.3,20.1,82.2c0.1,0.1,0.1,0.1,0.2,0.1C20.2,82.3,20.2,82.3,20.1,82.2z"/>
			<path class="st11" d="M19.9,82.4c-0.1,0-0.2,0.1-0.1,0.1S19.9,82.4,19.9,82.4z"/>
			<path class="st11" d="M20.2,82.6c-0.1,0.1-0.2,0.2,0,0.3c0.1,0,0-0.1,0.1-0.1C20.2,82.7,20.2,82.7,20.2,82.6z"/>
			<path class="st11" d="M20.3,83.1c-0.2,0-0.1,0.4,0.1,0.3h-0.1C20.4,83.3,20.2,83.2,20.3,83.1z"/>
			<path class="st11" d="M20.1,84.3C20,84.3,20.1,84.4,20.1,84.3C20.2,84.4,20.2,84.3,20.1,84.3z"/>
			<path class="st11" d="M20.1,85.7c-0.1,0-0.1,0.1-0.1,0.1C20.1,85.8,20.1,85.8,20.1,85.7z"/>
			<path class="st11" d="M20.2,87c-0.1,0,0,0.2,0,0.3c0.1,0,0-0.1,0.1-0.1C20.2,87.1,20.2,87.1,20.2,87z"/>
			<path class="st11" d="M18.9,82.5c-0.1,0-0.1,0-0.1,0s0.2,0,0.2,0.1s0.1-0.1,0.1-0.1C18.9,82.6,18.9,82.6,18.9,82.5z"/>
			<path class="st11" d="M20.2,82.4c-0.1,0,0,0.1,0.1,0.2h0.1c-0.1,0.1,0.1,0,0.1,0.1h-0.1c0,0.1,0,0.1,0.2,0.1
				c-0.1-0.1-0.1-0.1,0-0.2h-0.1v-0.1c0.1,0,0.1,0,0.2,0s0,0.1,0.1,0l-0.1-0.1c0,0.1-0.1,0.1-0.2,0.1c0.1,0,0,0.1,0,0.1
				C20.2,82.5,20.2,82.4,20.2,82.4z"/>
			<path class="st11" d="M18.7,82.6C18.8,82.6,18.8,82.7,18.7,82.6c0.1,0.1,0.1,0.1,0.1,0.1C18.9,82.8,18.9,82.6,18.7,82.6z"/>
			<path class="st11" d="M20.4,82.7c-0.1,0.1,0.1,0.1,0.2,0.1c0,0-0.1,0-0.1,0.1C20.7,82.8,20.4,82.8,20.4,82.7z"/>
			<path class="st11" d="M23,81.4C22.9,81.5,23.1,81.5,23,81.4C23,81.5,23,81.5,23,81.4C23,81.5,23,81.5,23,81.4z"/>
			<path class="st11" d="M23.5,81.5C23.5,81.5,23.4,81.5,23.5,81.5L23.5,81.5z"/>
			<path class="st11" d="M23,81.5C23,81.5,23,81.6,23,81.5C22.9,81.6,23.1,81.6,23,81.5C23,81.6,23,81.6,23,81.5
				C23,81.6,23,81.6,23,81.5z"/>
			<path class="st11" d="M22.9,81.6C23,81.6,23,81.6,22.9,81.6C23,81.7,23,81.7,22.9,81.6C23,81.7,23,81.6,22.9,81.6z"/>
			<path class="st11" d="M22.7,86.7C22.6,86.7,22.6,86.7,22.7,86.7c0,0.1,0,0.1,0.2,0.1C22.8,86.6,22.7,86.7,22.7,86.7z"/>
			<path class="st11" d="M22.9,88C22.8,88,22.9,88.1,22.9,88C23,88.1,22.9,88,22.9,88z"/>
			<path class="st11" d="M21.1,88.3c-0.1,0,0,0.2,0.1,0.1C21.2,88.3,21.1,88.4,21.1,88.3z"/>
			<path class="st11" d="M23.1,89C23.1,89,23,89.1,23.1,89C23.2,89.1,23,89,23.1,89z"/>
			<path class="st11" d="M23.2,90.1c-0.1,0,0,0.2,0,0.2C23.3,90.2,23.2,90.2,23.2,90.1z"/>
			<path class="st11" d="M24.8,90.5c-0.2,0.1,0.1,0.1,0,0.2C24.9,90.7,24.8,90.6,24.8,90.5z"/>
			<path class="st11" d="M22.9,85.4C22.8,85.4,22.8,85.5,22.9,85.4C22.9,85.5,22.9,85.5,22.9,85.4z"/>
			<path class="st11" d="M22.9,85.8c-0.1,0-0.1,0.1-0.1,0.2C23,86,22.9,85.9,22.9,85.8z"/>
			<path class="st11" d="M22.5,86.1C22.4,86,22.4,86.3,22.5,86.1C22.6,86.2,22.4,86.2,22.5,86.1z"/>
			<path class="st11" d="M23.4,89.2c0,0,0,0.1,0,0.2C23.5,89.4,23.4,89.2,23.4,89.2z"/>
			<path class="st11" d="M23.1,83.6c-0.1,0,0.1,0.1,0.1,0.2C23.2,83.7,23.1,83.6,23.1,83.6z"/>
			<path class="st11" d="M23.2,84.9c-0.2,0,0.1,0.1-0.1,0.1L23.2,84.9C23.3,84.9,23.3,84.9,23.2,84.9z"/>
			<path class="st11" d="M23.3,85c-0.1,0-0.1,0-0.1,0s0.2,0,0.2,0.1s0.1-0.1,0.1-0.1C23.3,85.1,23.3,85.1,23.3,85z"/>
			<path class="st11" d="M23.1,85.2C23.2,85.2,23.2,85.3,23.1,85.2c0.1,0.1,0.1,0.1,0.1,0.1C23.3,85.3,23.3,85.2,23.1,85.2z"/>
			<path class="st11" d="M20.5,85.5c-0.1,0.1,0.1,0.3,0.3,0.3C20.8,85.7,20.5,85.6,20.5,85.5z"/>
			<path class="st11" d="M18.8,85.7c-0.2,0,0.1,0.1-0.1,0.1L18.8,85.7C18.8,85.8,18.8,85.8,18.8,85.7z"/>
			<path class="st11" d="M20,85.6C19.9,85.6,20,85.7,20,85.6c0.1,0.1,0.1,0.1,0.2,0.1C20.2,85.7,20.1,85.7,20,85.6z"/>
			<path class="st11" d="M19.8,85.8c-0.1,0-0.2,0.1-0.1,0.1S19.8,85.8,19.8,85.8z"/>
			<path class="st11" d="M20.1,85.9c-0.1,0.1-0.2,0.2,0,0.3c0.1,0,0-0.1,0.1-0.1C20.1,86.1,20.1,86,20.1,85.9z"/>
			<path class="st11" d="M20.2,86.5c-0.2,0-0.1,0.4,0.1,0.3h-0.1C20.3,86.7,20.1,86.6,20.2,86.5z"/>
			<path class="st11" d="M20,87.6C19.9,87.6,20,87.7,20,87.6C20.1,87.7,20.1,87.7,20,87.6z"/>
			<path class="st11" d="M20.1,89.1c-0.1,0-0.1,0.1-0.1,0.1S20,89.2,20.1,89.1z"/>
			<path class="st11" d="M20.1,90.4c-0.1,0,0,0.2,0,0.3c0.1,0,0-0.1,0.1-0.1C20.1,90.5,20.1,90.4,20.1,90.4z"/>
			<path class="st11" d="M18.8,85.9c-0.1,0-0.1,0-0.1,0s0.2,0,0.2,0.1s0.1-0.1,0.1-0.1C18.9,85.9,18.8,85.9,18.8,85.9z"/>
			<path class="st11" d="M20.1,85.8c-0.1,0,0,0.1,0.1,0.2h0.1c-0.1,0.1,0.1,0,0.1,0.1h-0.1c0,0.1,0,0.1,0.2,0.1
				c-0.1-0.1-0.1-0.1,0-0.2h-0.1v-0.1c0.1,0,0.1,0,0.2,0s0,0.1,0.1,0l-0.1-0.1c0,0.1-0.1,0.1-0.2,0.1c0.1,0,0,0.1,0,0.1
				C20.1,85.9,20.1,85.8,20.1,85.8z"/>
			<path class="st11" d="M18.6,86C18.7,86,18.7,86.1,18.6,86c0.1,0.1,0.1,0.1,0.1,0.1C18.8,86.2,18.8,86,18.6,86z"/>
			<path class="st11" d="M20.3,86.1c-0.1,0.1,0.1,0.1,0.2,0.1c0,0-0.1,0-0.1,0.1C20.6,86.2,20.3,86.2,20.3,86.1z"/>
			<path class="st11" d="M19.4,84c0,0.1,0.1,0.1,0.1,0.2C19.6,84.1,19.4,84,19.4,84z"/>
			<path class="st11" d="M19.3,84.1C19.2,84.1,19.3,84.2,19.3,84.1C19.3,84.2,19.3,84.2,19.3,84.1c0,0.1,0.1,0.1,0.1,0.1l0,0
				c0,0,0,0,0.1,0c0,0,0,0,0-0.1l0,0C19.4,84.2,19.4,84.2,19.3,84.1c0.1,0,0.1,0,0.2,0c0,0,0,0,0.1,0c0,0,0,0-0.1,0
				S19.4,84.1,19.3,84.1L19.3,84.1C19.2,84.2,19.3,84.1,19.3,84.1z"/>
			<path class="st11" d="M19.3,84.3C19.3,84.3,19.4,84.3,19.3,84.3C19.4,84.3,19.4,84.3,19.3,84.3C19.5,84.3,19.3,84.3,19.3,84.3z"
				/>
			<path class="st11" d="M21,81C21,81,21.1,80.9,21,81c0,0-0.2,0.1-0.3,0c0,0,0,0.1-0.1,0.1C20.7,81.1,20.9,81,21,81z"/>
			<path class="st11" d="M20.7,81.4c0.1,0,0.2,0,0.2,0C20.9,81.3,20.8,81.4,20.7,81.4C20.7,81.4,20.6,81.4,20.7,81.4
				c0,0.1-0.1,0.2,0,0.3c0.1,0,0.1-0.1,0-0.1c0.1,0,0.1-0.1,0.2-0.2C20.8,81.5,20.7,81.5,20.7,81.4C20.7,81.5,20.7,81.4,20.7,81.4z"
				/>
			<path class="st11" d="M19.2,82.4c0.2-0.1,0.1,0,0.2,0.1C19.5,82.5,19.2,82.3,19.2,82.4z"/>
			<path class="st11" d="M21.4,82.8C21.4,82.8,21.4,82.7,21.4,82.8L21.4,82.8z"/>
			<path class="st11" d="M21.4,83c0,0,0-0.1,0-0.2h-0.1C21.3,82.9,21.3,82.9,21.4,83c0,0-0.1-0.1-0.1,0v0.1
				C21.3,83.1,21.3,83,21.4,83z"/>
			<path class="st11" d="M21.5,83c-0.1,0.1-0.2,0.3-0.2,0.4c0,0,0,0-0.1,0c0,0,0,0,0.1,0c0,0.1,0,0.1,0,0.1s0,0-0.1,0
				c0.1,0.3,0,0.5,0,0.7c0.1,0,0,0,0.1,0l0,0c0,0,0,0-0.1,0c0,0.1,0,0.1,0.1,0.1s-0.1-0.1,0-0.1c0-0.4-0.1-0.6-0.2-1c0,0,0,0,0.1,0
				v-0.1c0,0,0,0,0.1,0C21.5,83.1,21.5,83,21.5,83z"/>
			<path class="st11" d="M21.1,81.8L21.1,81.8L21.1,81.8C21,81.9,21.1,82,21,82c0.1,0,0.1,0.2,0.1,0.2s0,0,0.1,0c0,0-0.1,0-0.1,0.1
				c0,0,0,0,0.1,0c0,0,0.1,0,0.1,0.1c0,0,0,0,0,0.1h0.1c0-0.1,0.1-0.1,0.1-0.1l0,0c-0.1,0-0.1-0.1-0.1-0.1h-0.1c0,0,0-0.1,0.1-0.1
				c0,0,0,0,0-0.1c-0.1,0,0,0,0,0.1l0,0C21.2,82.1,21.1,81.9,21.1,81.8z"/>
			<path class="st11" d="M21.8,81.8C21.7,81.8,21.7,81.7,21.8,81.8C21.7,81.7,21.7,81.8,21.8,81.8C21.7,81.8,21.7,81.8,21.8,81.8z"
				/>
			<path class="st11" d="M23.2,85.6c0-0.1,0-0.2,0-0.3c0,0-0.1,0-0.1,0.1H23c0.1,0.1,0.1,0.2,0,0.3C23.1,85.6,23.2,85.4,23.2,85.6z"
				/>
			<path class="st11" d="M23.1,85.9c-0.1,0,0,0.1,0.1,0c0,0,0,0,0-0.1L23.1,85.9z"/>
			<path class="st11" d="M24.9,72.9C24.8,72.9,24.8,73,24.9,72.9C25,72.9,24.9,73,24.9,72.9z"/>
			<path class="st11" d="M20.3,85.6c-0.1,0.1-0.1,0.1-0.1,0.2h0.1c0.1,0,0-0.1,0.1-0.1C20.3,85.7,20.4,85.7,20.3,85.6z"/>
			<path class="st11" d="M18.5,82.9C18.4,83,18.4,83.1,18.5,82.9C18.6,83,18.5,83,18.5,82.9z"/>
			<path class="st11" d="M23.2,85.7c-0.2,0,0.1,0.1-0.1,0.1L23.2,85.7C23.3,85.7,23.3,85.7,23.2,85.7z"/>
			<path class="st11" d="M22.4,81c-0.2,0-0.1,0.4,0.1,0.3h-0.1C22.5,81.2,22.3,81.1,22.4,81z"/>
			<path class="st11" d="M22.2,82.1C22.1,82.1,22.2,82.2,22.2,82.1C22.3,82.2,22.3,82.2,22.2,82.1z"/>
			<path class="st11" d="M23.3,85.9c-0.1,0-0.1,0-0.1,0s0.2,0,0.2,0.1s0.1-0.1,0.1-0.1C23.3,85.9,23.3,85.9,23.3,85.9z"/>
			<path class="st11" d="M23.1,86C23.2,86,23.2,86.1,23.1,86c0.1,0.1,0.1,0.1,0.1,0.1C23.3,86.1,23.3,86,23.1,86z"/>
			<path class="st11" d="M20.3,85.6c0-0.1,0-0.2,0-0.3c0,0-0.1,0-0.1,0.1h-0.1c0.1,0.1,0.1,0.2,0,0.3C20.2,85.7,20.3,85.5,20.3,85.6
				z"/>
			<path class="st11" d="M20.2,85.9c-0.1,0,0,0.1,0.1,0c0,0,0,0,0-0.1C20.3,85.9,20.3,86,20.2,85.9z"/>
			<path class="st11" d="M22.3,86.1L22.3,86.1c-0.1,0-0.1,0-0.1,0c0.2,0,0,0.2,0.3,0.2h-0.1C22.3,86.2,22.3,86.1,22.3,86.1z"/>
			<path class="st11" d="M20.5,85.3C20.5,85.3,20.6,85.3,20.5,85.3c0.1,0,0.1,0,0.1,0s0,0,0.1,0c0,0,0,0,0-0.1l0,0
				c0.1,0,0,0,0.1-0.1h-0.1c0,0-0.1,0-0.1-0.1c0,0,0,0-0.1,0C20.6,85.2,20.6,85.3,20.5,85.3z"/>
			<path class="st11" d="M22.4,82.4L22.4,82.4C22.3,82.4,22.3,82.4,22.4,82.4C22.3,82.5,22.4,82.5,22.4,82.4
				C22.4,82.5,22.3,82.4,22.4,82.4z"/>
			<path class="st11" d="M22,82.6C22,82.6,21.9,82.6,22,82.6C22,82.6,21.9,82.7,22,82.6l-0.1,0.1c0,0,0,0.2,0.1,0.2
				c-0.1,0,0,0.1-0.1,0.1H22c-0.1,0.1,0,0.1,0,0.1h0.1c0.1,0,0-0.1,0-0.1v-0.1c0,0,0,0,0.1,0c0-0.1-0.1-0.1,0-0.1
				c-0.2,0,0-0.1-0.1-0.2C22,82.7,22,82.6,22,82.6z"/>
			<path class="st11" d="M20.8,82.9L20.8,82.9c0,0.1,0,0.1-0.1,0.1c0,0.1,0,0.1-0.1,0.1c0.1,0,0.1,0.2,0.2,0.2l0,0
				c0,0,0.1,0,0.1,0.1c0.1,0,0.2,0.1,0.3,0.1v-0.1c0-0.2-0.2-0.4,0-0.6c0,0-0.1,0.1,0,0.1c0-0.1,0.1-0.1,0.1-0.1s0,0.1,0.1,0
				c0,0,0,0,0-0.1c-0.1,0.1-0.1-0.1-0.1-0.1s0,0-0.1,0v0.1c-0.1,0-0.1-0.1-0.1-0.2c0,0.1-0.2,0.2-0.2,0.2s0,0.1-0.1,0.1h0.1
				C20.9,82.8,20.8,82.8,20.8,82.9c0,0,0,0-0.1,0s0-0.1-0.1-0.1l0,0c0,0,0,0,0.1,0c0,0,0,0-0.1,0C20.8,83,20.9,83,20.8,82.9z"/>
			<path class="st11" d="M22.1,82.7C22.1,82.7,22.2,82.7,22.1,82.7C22.2,82.7,22.2,82.7,22.1,82.7C22.2,82.7,22.1,82.7,22.1,82.7z"
				/>
			<path class="st11" d="M22.1,83.1L22.1,83.1C22.2,83.2,22.2,83.1,22.1,83.1z"/>
			<path class="st11" d="M21.5,83.3c0.1,0,0-0.1,0-0.2C21.4,83.2,21.4,83.3,21.5,83.3z"/>
			<path class="st11" d="M24.8,74.6c0,0.1,0.2,0,0.2,0.1C25.1,74.7,25,74.5,24.8,74.6z"/>
			<path class="st11" d="M21.3,73.5C21.3,73.6,21.4,73.6,21.3,73.5c0.1,0.1,0.1,0,0.1,0S21.4,73.6,21.3,73.5z"/>
			<path class="st11" d="M21.1,84.7c0,0,0,0,0.1,0c-0.1,0-0.1-0.1-0.2-0.1c0-0.1,0.1-0.1,0.3-0.1c0.1-0.1,0-0.3-0.2-0.3
				c-0.3,0-0.5,0.1-0.5,0.2c0,0.2,0.3,0.3,0.2,0.4l0.1,0.2c0.1,0,0,0,0.1,0C21.1,84.8,21,84.7,21.1,84.7L21.1,84.7z"/>
			<path class="st11" d="M21,90.1C21.1,90.2,21.1,90.2,21,90.1C21.1,90.1,21.1,90.1,21,90.1z"/>
			<path class="st11" d="M22.1,90.1L22.1,90.1c0,0.1,0.1,0,0.1,0H22.1z"/>
			<path class="st11" d="M22.1,89.9C22.1,90,22.1,90,22.1,89.9L22.1,89.9z"/>
			<path class="st11" d="M22.2,90L22.2,90C22.2,90.1,22.2,90,22.2,90C22.2,90.1,22.2,90.1,22.2,90L22.2,90L22.2,90
				C22.1,90,22.1,90,22.2,90C22.2,90.1,22.2,90,22.2,90z"/>
			<path class="st11" d="M22.2,90.1C22.2,90.2,22.3,90.1,22.2,90.1C22.3,90.2,22.3,90.2,22.2,90.1C22.3,90.1,22.3,90.1,22.2,90.1z"
				/>
			<path class="st11" d="M22.4,90.1C22.4,90.1,22.5,90.1,22.4,90.1C22.5,90.1,22.5,90.1,22.4,90.1z"/>
			<path class="st11" d="M22.6,90L22.6,90L22.6,90z"/>
			<path class="st11" d="M22.6,89.8L22.6,89.8C22.7,89.8,22.6,89.8,22.6,89.8z"/>
			<path class="st11" d="M21.6,89.8L21.6,89.8C21.6,89.9,21.6,89.8,21.6,89.8L21.6,89.8z"/>
			<path class="st11" d="M21.8,90.1C21.8,90.2,21.8,90.2,21.8,90.1L21.8,90.1L21.8,90.1z"/>
			<path class="st11" d="M21.8,90.2L21.8,90.2L21.8,90.2L21.8,90.2z"/>
			<path class="st11" d="M26.5,77.5c0.1,0.1,0.1,0.1,0.2,0.1v-0.1c0-0.1-0.1,0-0.1-0.1C26.6,77.5,26.5,77.5,26.5,77.5z"/>
			<path class="st11" d="M22,89.4C22,89.5,22,89.4,22,89.4C22.1,89.5,22,89.5,22,89.4C22,89.6,22.1,89.5,22,89.4
				c0.1,0.1,0.1,0.1,0.1,0.1S22.1,89.5,22,89.4C22.1,89.5,22.1,89.5,22,89.4C22.1,89.5,22,89.5,22,89.4z"/>
			<path class="st11" d="M22.5,89.8C22.5,89.9,22.5,89.9,22.5,89.8C22.5,89.9,22.5,89.9,22.5,89.8C22.5,89.9,22.5,89.8,22.5,89.8z"
				/>
			<path class="st11" d="M20.7,90.3C20.8,90.4,20.8,90.4,20.7,90.3C20.7,90.3,20.8,90.4,20.7,90.3z"/>
			<path class="st11" d="M21.1,90.7c0,0.1,0.1,0,0.1,0v0.1c0,0,0-0.1,0-0.2C21.3,90.7,21.2,90.7,21.1,90.7
				C21.2,90.7,21.1,90.7,21.1,90.7z"/>
			<path class="st11" d="M22.8,89.6L22.8,89.6C22.8,89.5,22.8,89.6,22.8,89.6z"/>
			<path class="st11" d="M22.9,89.3L22.9,89.3L22.9,89.3z"/>
			<path class="st11" d="M23.7,90c0,0.1,0,0.1,0.1,0.1C23.7,90,23.7,90,23.7,90L23.7,90z"/>
			<path class="st11" d="M19.9,88.5C19.9,88.7,20,88.5,19.9,88.5C20,88.6,20,88.5,19.9,88.5L19.9,88.5z"/>
			<path class="st11" d="M21.8,87.9C21.8,88,21.8,88,21.8,87.9C21.9,87.9,21.8,87.9,21.8,87.9z"/>
			<path class="st11" d="M22.5,88c0,0.1,0.1,0,0.1,0C22.6,87.9,22.6,88,22.5,88C22.5,88,22.5,87.9,22.5,88z"/>
			<path class="st11" d="M20,88.5C20,88.6,20,88.6,20,88.5C20,88.6,20,88.5,20,88.5C20.1,88.5,20.1,88.5,20,88.5L20,88.5z"/>
			<path class="st11" d="M20.1,88.6L20.1,88.6C20.1,88.6,20.1,88.5,20.1,88.6C20.2,88.5,20.1,88.6,20.1,88.6z"/>
			<path class="st11" d="M21.5,88.9C21.5,89,21.5,89,21.5,88.9L21.5,88.9L21.5,88.9L21.5,88.9z"/>
			<path class="st11" d="M22.9,88.8C22.9,88.9,23,88.9,22.9,88.8C23,88.8,22.9,88.8,22.9,88.8z"/>
			<path class="st11" d="M17.5,72.9L17.5,72.9c-0.1-0.1-0.2,0.1-0.3,0c0-0.1,0.1,0,0.1-0.1c-0.1-0.1-0.1,0-0.2,0c0,0.1,0,0.1,0,0.2
				C17.3,73,17.2,73,17.5,72.9C17.4,72.9,17.5,72.9,17.5,72.9c0,0.1,0.1,0.1,0.2,0c0.1,0,0,0.1,0,0.1c0.1-0.1,0.2,0,0.2-0.1l0,0
				c0.1,0,0,0.2,0.1,0.1c-0.1-0.1,0-0.1,0.1-0.1c-0.1-0.2-0.4,0-0.5-0.1C17.5,72.8,17.5,72.8,17.5,72.9z"/>
			<path class="st11" d="M21.8,90.4c0.1,0,0.2-0.1,0.2-0.1C22,90.2,21.9,90.4,21.8,90.4z"/>
			<path class="st11" d="M21.9,91.4C21.9,91.5,22,91.3,21.9,91.4C22,91.4,22,91.3,21.9,91.4C21.9,91.3,21.9,91.3,21.9,91.4z"/>
			<path class="st11" d="M21.9,90.6C21.9,90.7,21.9,90.6,21.9,90.6L21.9,90.6L21.9,90.6z"/>
			<path class="st11" d="M22,90.8C22,90.8,22,90.9,22,90.8L22,90.8z"/>
			<path class="st11" d="M22.1,90.6c0,0,0.1,0.1,0.1,0c0,0,0,0,0-0.1C22.2,90.6,22.1,90.6,22.1,90.6z"/>
			<path class="st11" d="M22.4,90.6c0,0.1,0.2,0.1,0.2,0c0,0,0,0,0,0.1C22.5,90.5,22.4,90.6,22.4,90.6z"/>
			<path class="st11" d="M23,90.7L23,90.7L23,90.7z"/>
			<path class="st11" d="M23.8,90.7C23.8,90.8,23.8,90.8,23.8,90.7L23.8,90.7z"/>
			<path class="st11" d="M27.7,80.7c0,0.1,0.2,0,0.3,0c0-0.1-0.1,0-0.1-0.1C27.8,80.7,27.8,80.6,27.7,80.7z"/>
			<path class="st11" d="M22,91.3C22,91.4,22,91.4,22,91.3C22,91.4,22,91.3,22,91.3C22.1,91.3,22,91.3,22,91.3S22,91.4,22,91.3z"/>
			<path class="st11" d="M22,90.6C22,90.7,22,90.6,22,90.6C22.1,90.6,22,90.5,22,90.6c0.1,0,0.1-0.1,0.1-0.1l0,0c0,0,0,0,0-0.1
				c-0.1,0,0,0-0.1,0C22,90.4,22,90.4,22,90.6c0-0.1,0-0.1-0.1-0.1c0-0.1,0-0.1,0-0.1s0.1,0,0-0.1c0,0,0,0-0.1,0.1
				C22,90.4,22,90.5,22,90.6C22,90.5,22,90.5,22,90.6L22,90.6z"/>
			<path class="st11" d="M22.1,91.4L22.1,91.4C22.1,91.4,22.1,91.3,22.1,91.4C22.1,91.3,22.1,91.4,22.1,91.4z"/>
			<path class="st11" d="M22.2,90.5C22.2,90.6,22.2,90.5,22.2,90.5C22.2,90.4,22.2,90.5,22.2,90.5C22.2,90.3,22.2,90.5,22.2,90.5z"
				/>
			<path class="st11" d="M21.5,88.5C21.5,88.5,21.6,88.5,21.5,88.5C21.6,88.4,21.5,88.5,21.5,88.5z"/>
			<path class="st11" d="M21.5,89C21.5,89.1,21.6,89,21.5,89C21.6,89,21.6,89,21.5,89L21.5,89z"/>
			<path class="st11" d="M21.5,88.6C21.5,88.7,21.5,88.7,21.5,88.6L21.5,88.6L21.5,88.6z"/>
			<path class="st11" d="M21.6,88.7C21.6,88.7,21.6,88.8,21.6,88.7L21.6,88.7z"/>
			<path class="st11" d="M21.6,88.6C21.6,88.7,21.7,88.7,21.6,88.6C21.7,88.6,21.7,88.7,21.6,88.6C21.7,88.6,21.6,88.6,21.6,88.6z"
				/>
			<path class="st11" d="M21.8,88.6C21.8,88.7,21.9,88.7,21.8,88.6C21.9,88.6,21.9,88.6,21.8,88.6L21.8,88.6z"/>
			<path class="st11" d="M21.6,89L21.6,89L21.6,89L21.6,89L21.6,89z"/>
			<path class="st11" d="M21.6,88.6C21.6,88.7,21.6,88.6,21.6,88.6L21.6,88.6L21.6,88.6L21.6,88.6c0.1-0.1,0.1-0.1,0.1-0.1
				C21.6,88.5,21.6,88.5,21.6,88.6C21.6,88.5,21.6,88.5,21.6,88.6L21.6,88.6C21.6,88.5,21.6,88.5,21.6,88.6L21.6,88.6L21.6,88.6
				L21.6,88.6L21.6,88.6L21.6,88.6z"/>
			<path class="st11" d="M21.6,89.1C21.6,89,21.6,89,21.6,89.1C21.6,89,21.7,89,21.6,89.1C21.7,89,21.6,89,21.6,89.1z"/>
			<path class="st11" d="M21.7,88.6L21.7,88.6C21.7,88.5,21.7,88.6,21.7,88.6C21.7,88.5,21.7,88.6,21.7,88.6z"/>
			<path class="st11" d="M20.4,88.2C20.4,88.3,20.5,88.2,20.4,88.2C20.5,88.2,20.4,88.2,20.4,88.2z"/>
			<path class="st11" d="M21.2,88.3L21.2,88.3C21.3,88.3,21.2,88.3,21.2,88.3z"/>
			<path class="st11" d="M21.9,88.3c0,0.1,0.1,0,0.1,0C22,88.2,22,88.3,21.9,88.3C22,88.3,21.9,88.3,21.9,88.3z"/>
			<path class="st11" d="M17.8,75.5c0,0.1,0,0.1,0.1,0.1c0-0.1,0-0.1,0-0.3C17.8,75.4,17.9,75.5,17.8,75.5z"/>
			<path class="st11" d="M19.1,75.4c0,0.1,0.1,0,0.1,0C19.2,75.3,19.2,75.4,19.1,75.4z"/>
			<path class="st11" d="M19.4,77.3c0,0.1,0.2,0,0.1-0.1C19.4,77.2,19.4,77.3,19.4,77.3z"/>
			<path class="st11" d="M27.1,82.7c0,0.1,0.1,0.1,0.2,0.1C27.3,82.7,27.2,82.8,27.1,82.7z"/>
			<path class="st11" d="M27.4,82.7c0,0.1,0.2,0,0.3,0.1C27.7,82.7,27.5,82.7,27.4,82.7z"/>
			<path class="st11" d="M27.9,82.4c0,0.1,0.1,0.1,0.2,0.1c0-0.1-0.1-0.1-0.1-0.1C28,82.3,28,82.4,27.9,82.4z"/>
			<path class="st11" d="M18.6,79.9C18.6,79.8,18.6,79.8,18.6,79.9c0-0.1-0.1-0.1-0.1,0C18.5,79.9,18.5,79.9,18.6,79.9
				C18.6,79.9,18.6,80,18.6,79.9z"/>
			<path class="st11" d="M18.6,80c0.1,0.1,0.1-0.1,0.2,0C18.8,79.8,18.6,79.9,18.6,80z"/>
			<path class="st11" d="M22.5,88.5C22.5,88.6,22.6,88.5,22.5,88.5C22.6,88.5,22.6,88.5,22.5,88.5z"/>
			<path class="st11" d="M26.3,77.8c0,0.1,0.1,0.2,0.1,0H26.3z"/>
			<path class="st11" d="M26.7,77.8c0,0.1,0.1,0.1,0.1,0.1C26.8,77.8,26.7,77.9,26.7,77.8z"/>
			<path class="st11" d="M27,78.3c-0.1,0.1,0.1,0.1,0.1,0C27,78.2,27,78.4,27,78.3z"/>
			<path class="st11" d="M22.7,89h0.1C22.8,88.9,22.7,89,22.7,89z"/>
			<path class="st11" d="M23.3,88c0.1,0,0.2-0.1,0.2-0.1C23.4,87.9,23.4,88,23.3,88z"/>
			<path class="st11" d="M23.4,89C23.4,89.1,23.4,88.9,23.4,89C23.5,89,23.5,89,23.4,89L23.4,89z"/>
			<path class="st11" d="M23.4,88.3L23.4,88.3C23.4,88.2,23.4,88.2,23.4,88.3C23.4,88.2,23.4,88.2,23.4,88.3z"/>
			<path class="st11" d="M23.5,88.4C23.5,88.4,23.5,88.5,23.5,88.4L23.5,88.4z"/>
			<path class="st11" d="M26.1,76.1c0.1,0.1,0.2,0.2,0.2,0.1s-0.1,0-0.1-0.1H26.1z"/>
			<path class="st11" d="M26.6,76c0,0.2,0.4,0.1,0.3-0.1V76C26.8,76,26.7,76.1,26.6,76z"/>
			<path class="st11" d="M23.5,89L23.5,89C23.5,89,23.5,88.9,23.5,89C23.6,88.9,23.5,88.9,23.5,89C23.5,88.9,23.5,89,23.5,89z"/>
			<path class="st11" d="M23.5,88.2C23.5,88.3,23.5,88.2,23.5,88.2L23.5,88.2c0.1,0,0.1-0.1,0.1-0.1l0,0c0,0,0,0,0-0.1
				c-0.1,0,0,0-0.1,0C23.5,88,23.5,88,23.5,88.2c0-0.1,0-0.1-0.1-0.1c0-0.1,0-0.1,0-0.1s0.1,0,0-0.1c0,0,0,0-0.1,0.1
				C23.5,88,23.5,88.1,23.5,88.2C23.5,88.1,23.5,88.2,23.5,88.2L23.5,88.2z"/>
			<path class="st11" d="M23.6,89.1C23.6,89,23.6,89,23.6,89.1C23.6,89,23.6,89,23.6,89.1C23.6,89,23.6,89,23.6,89.1z"/>
			<path class="st11" d="M16.6,73.3c0.1,0.1,0.1-0.1,0.1-0.2c0,0,0,0.1,0.1,0.1C16.7,73,16.6,73.3,16.6,73.3z"/>
			<path class="st11" d="M23.6,90.6c0.1,0,0.2-0.1,0.2-0.1C23.8,90.4,23.7,90.5,23.6,90.6z"/>
			<path class="st11" d="M23.7,91.5C23.7,91.6,23.8,91.4,23.7,91.5C23.8,91.5,23.8,91.5,23.7,91.5C23.8,91.5,23.8,91.5,23.7,91.5z"
				/>
			<path class="st11" d="M23.7,90.8C23.7,90.8,23.8,90.8,23.7,90.8C23.8,90.7,23.8,90.8,23.7,90.8C23.7,90.7,23.7,90.8,23.7,90.8z"
				/>
			<path class="st11" d="M23.8,90.9C23.8,91,23.9,91,23.8,90.9L23.8,90.9z"/>
			<path class="st11" d="M26.7,80.7c0.1,0.1,0.2,0.2,0.2,0.1s-0.1,0-0.1-0.1C26.8,80.7,26.8,80.7,26.7,80.7z"/>
			<path class="st11" d="M27.2,80.6c0,0.2,0.4,0.1,0.3-0.1v0.1C27.4,80.6,27.3,80.7,27.2,80.6z"/>
			<path class="st11" d="M18.6,78.3c0,0.1,0.1,0,0.1,0C18.8,78.2,18.7,78.2,18.6,78.3z"/>
			<path class="st11" d="M23.8,91.5L23.8,91.5C23.9,91.6,23.9,91.4,23.8,91.5C23.9,91.5,23.9,91.5,23.8,91.5
				C23.9,91.5,23.9,91.5,23.8,91.5z"/>
			<path class="st11" d="M23.8,90.7C23.8,90.8,23.9,90.7,23.8,90.7C23.9,90.7,23.9,90.7,23.8,90.7c0.1,0,0.1-0.1,0.1-0.1l0,0
				c0,0,0,0,0-0.1c-0.1,0,0,0-0.1,0C23.8,90.5,23.8,90.5,23.8,90.7c0-0.1,0-0.1-0.1-0.1c0-0.1,0-0.1,0-0.1s0.1,0,0-0.1
				c0,0,0,0-0.1,0.1C23.8,90.6,23.8,90.6,23.8,90.7C23.8,90.6,23.8,90.7,23.8,90.7C23.9,90.8,23.8,90.7,23.8,90.7z"/>
			<path class="st11" d="M23.9,91.6C23.9,91.5,23.9,91.5,23.9,91.6C24,91.5,24,91.5,23.9,91.6C24,91.5,23.9,91.5,23.9,91.6z"/>
			<path class="st11" d="M26.9,80.5c0.1,0.1,0.1-0.1,0.1-0.2c0,0,0,0.1,0.1,0.1C27,80.2,26.9,80.5,26.9,80.5z"/>
			<path class="st11" d="M22.8,91.1C22.8,91.1,22.9,91.1,22.8,91.1C22.9,91,22.8,91.1,22.8,91.1z"/>
			<path class="st11" d="M23.5,92.3L23.5,92.3C23.5,92.2,23.5,92.2,23.5,92.3C23.5,92.2,23.5,92.2,23.5,92.3z"/>
			<path class="st11" d="M23.5,92.4C23.6,92.4,23.6,92.5,23.5,92.4C23.6,92.4,23.6,92.4,23.5,92.4z"/>
			<path class="st11" d="M23.6,92.2c0,0,0.1,0.1,0.1,0c0,0,0,0,0-0.1C23.7,92.2,23.7,92.2,23.6,92.2z"/>
			<path class="st11" d="M23.3,92.5c0,0.1,0.2,0.1,0.2,0c0,0,0,0,0,0.1C23.4,92.5,23.3,92.6,23.3,92.5z"/>
			<path class="st11" d="M18.2,80.9c0,0.1,0.1,0,0.1,0C18.3,80.9,18.2,80.9,18.2,80.9z"/>
			<path class="st11" d="M19.6,81c0,0.1,0.1,0.1,0.1,0.1C19.8,81,19.7,81,19.6,81z"/>
			<path class="st11" d="M22.9,91.2L22.9,91.2L22.9,91.2C22.9,91.2,22.9,91.1,22.9,91.2C23,91.1,22.9,91.1,22.9,91.2
				C23,91.1,23,91.1,22.9,91.2C22.9,91.1,23,91.1,22.9,91.2C22.9,91.1,22.9,91.1,22.9,91.2C22.9,91.1,22.9,91.1,22.9,91.2
				C22.9,91.1,22.9,91.1,22.9,91.2C22.9,91.1,22.9,91.1,22.9,91.2C22.9,91.1,22.9,91.1,22.9,91.2C22.9,91.1,22.9,91.1,22.9,91.2
				C22.9,91.1,22.9,91.2,22.9,91.2L22.9,91.2z"/>
			<path class="st11" d="M23,91.1C23,91.2,23,91.1,23,91.1L23,91.1L23,91.1z"/>
			<path class="st11" d="M21.2,90.1L21.2,90.1c0,0,0,0.1,0,0.2c0,0,0,0,0,0.1C21.3,90.3,21.3,90.2,21.2,90.1z"/>
			<path class="st11" d="M21.4,90.3C21.4,90.2,21.4,90.2,21.4,90.3C21.4,90.2,21.4,90.3,21.4,90.3L21.4,90.3c0.1,0,0.1,0.1,0.2,0
				c0,0,0,0-0.1,0C21.5,90.2,21.5,90.2,21.4,90.3C21.5,90.2,21.5,90.3,21.4,90.3C21.5,90.3,21.5,90.3,21.4,90.3z"/>
			<path class="st11" d="M22,91.2C22,91.1,22,91.1,22,91.2C22,91,21.9,91.2,22,91.2z"/>
			<path class="st11" d="M22.3,89.9C22.2,89.9,22.2,89.9,22.3,89.9C22.2,89.9,22.2,89.9,22.3,89.9z"/>
			<path class="st11" d="M22.3,90C22.3,90,22.3,89.9,22.3,90C22.3,90,22.2,90,22.3,90L22.3,90L22.3,90L22.3,90
				C22.4,90,22.3,90,22.3,90z"/>
			<path class="st11" d="M22.3,89.9c0,0.1,0.1,0.1,0.2,0.1l0,0c0,0,0,0,0-0.1l0,0l0,0c0.1,0,0.3,0,0.4,0c0,0,0,0,0-0.1l0,0l0,0
				c0,0,0,0,0.1-0.1c0,0,0,0.1,0,0c-0.2,0-0.3,0-0.5,0.1l0,0C22.4,89.9,22.4,89.9,22.3,89.9C22.4,89.9,22.4,89.9,22.3,89.9
				C22.4,89.9,22.3,89.9,22.3,89.9z"/>
			<path class="st11" d="M21.6,90.1C21.7,90.1,21.7,90.1,21.6,90.1C21.7,90.1,21.7,90.1,21.6,90.1c0.1,0.1,0.1,0.1,0.2,0.1
				c0-0.1,0.1-0.1,0.1,0l0,0l0,0l0,0c0,0,0,0,0-0.1l0,0l0,0c0,0,0-0.1-0.1-0.1l0,0c0,0,0,0-0.1,0l0,0L21.6,90.1L21.6,90.1L21.6,90.1
				L21.6,90.1C21.8,90,21.7,90.1,21.6,90.1z"/>
			<path class="st11" d="M21.7,89.7C21.7,89.7,21.6,89.7,21.7,89.7C21.7,89.8,21.7,89.7,21.7,89.7L21.7,89.7z"/>
			<path class="st11" d="M26.4,77.6c-0.1-0.1-0.2,0-0.3-0.1c0,0,0,0.1,0.1,0.1v0.1c0.1-0.1,0.2-0.1,0.3,0
				C26.5,77.7,26.3,77.6,26.4,77.6z"/>
			<path class="st11" d="M26.7,77.6C26.7,77.7,26.8,77.6,26.7,77.6c0-0.1,0-0.1-0.1-0.1C26.7,77.6,26.8,77.6,26.7,77.6z"/>
			<path class="st11" d="M23.7,90.6c0,0,0.1,0,0.1,0.1l0,0C23.9,90.6,23.8,90.7,23.7,90.6C23.8,90.6,23.8,90.6,23.7,90.6z"/>
			<path class="st11" d="M22.2,91.6C22.2,91.6,22.3,91.6,22.2,91.6C22.2,91.5,22.3,91.6,22.2,91.6z"/>
			<path class="st11" d="M16.7,73.2c0.1,0.1,0.3-0.1,0.3-0.2S16.9,73.1,16.7,73.2z"/>
			<path class="st11" d="M26.6,77.5c0,0.2,0.1-0.1,0.1,0.1v-0.1C26.6,77.5,26.6,77.5,26.6,77.5z"/>
			<path class="st11" d="M26.5,76.2c0,0.1,0.1,0,0.1,0c0-0.1,0-0.1,0-0.2C26.6,76.1,26.6,76.2,26.5,76.2z"/>
			<path class="st11" d="M26.7,76.4c0,0.1,0.1,0.2,0.1,0.1C26.8,76.5,26.7,76.4,26.7,76.4z"/>
			<path class="st11" d="M26.9,76.2c0.1,0.1,0.2,0.2,0.2,0.1s-0.1,0-0.1-0.1H26.9z"/>
			<path class="st11" d="M21.3,89.3c0,0.1,0.2,0.1,0.2,0c0,0,0,0,0,0.1C21.4,89.3,21.3,89.4,21.3,89.3z"/>
			<path class="st11" d="M21.9,89.5L21.9,89.5C21.9,89.4,21.9,89.4,21.9,89.5z"/>
			<path class="st11" d="M26.7,77.5C26.7,77.6,26.7,77.6,26.7,77.5c0,0.1,0-0.2,0.1-0.1c0.1,0,0-0.1,0-0.1
				C26.8,77.4,26.8,77.5,26.7,77.5z"/>
			<path class="st11" d="M26.7,76.1c0,0.1,0.1,0,0.2,0V76c0.1,0.1,0-0.1,0.1-0.1V76c0.1,0,0.1,0,0.1-0.1C27,76,27,76,26.9,75.9V76
				L26.7,76.1c0.1-0.2,0.1-0.2,0.1-0.3s0.1,0,0.1-0.1l-0.1,0.1C26.9,75.8,26.8,75.9,26.7,76.1c0.1-0.1,0.2,0,0.2,0
				C26.8,76.1,26.7,76.1,26.7,76.1z"/>
			<path class="st11" d="M26.9,77.6c0,0,0.1-0.1,0.1,0c0-0.1,0-0.1,0-0.1S26.9,77.5,26.9,77.6z"/>
			<path class="st11" d="M17.4,73.4c0.1,0.1,0.1-0.1,0.1-0.2c0,0,0,0.1,0.1,0.1C17.5,73,17.4,73.3,17.4,73.4z"/>
			<path class="st11" d="M23.7,90.6c-0.1,0-0.1,0-0.2,0l0,0c0,0,0,0,0,0.1C23.7,90.6,23.7,90.7,23.7,90.6
				C23.7,90.7,23.7,90.6,23.7,90.6z"/>
			<path class="st11" d="M26.7,80.5C26.7,80.6,26.8,80.5,26.7,80.5c0-0.1,0-0.1-0.1-0.1C26.6,80.5,26.7,80.5,26.7,80.5z"/>
			<path class="st11" d="M26.9,78.5L26.9,78.5C26.9,78.6,26.9,78.6,26.9,78.5s0.2,0.1,0.2-0.2v0.1C27,78.4,26.9,78.4,26.9,78.5z"/>
			<path class="st11" d="M23.6,90.5L23.6,90.5C23.6,90.5,23.6,90.4,23.6,90.5C23.6,90.4,23.6,90.4,23.6,90.5L23.6,90.5L23.6,90.5
				L23.6,90.5L23.6,90.5C23.5,90.4,23.5,90.4,23.6,90.5C23.5,90.4,23.5,90.4,23.6,90.5C23.5,90.5,23.5,90.5,23.6,90.5z"/>
			<path class="st11" d="M22,89.4L22,89.4L22,89.4C22.1,89.4,22.1,89.4,22,89.4C22.1,89.4,22,89.4,22,89.4z"/>
			<path class="st11" d="M22.1,89.6L22.1,89.6C22.1,89.6,22.2,89.7,22.1,89.6C22.2,89.6,22.2,89.7,22.1,89.6c0.1,0,0.2,0,0.2,0
				c0,0.1,0,0,0,0l0,0c0,0,0,0,0.1,0c0,0,0-0.1,0,0l0,0c0,0,0,0-0.1,0l0,0c0,0,0,0-0.1,0C22.2,89.7,22.1,89.6,22.1,89.6
				C22.2,89.6,22.2,89.6,22.1,89.6z"/>
			<path class="st11" d="M22.3,90.3L22.3,90.3L22.3,90.3L22.3,90.3c0.1,0,0.2,0.1,0.2,0l0,0l0,0c0-0.1,0.1-0.1,0.1-0.1l0,0
				C22.5,90.2,22.4,90.3,22.3,90.3c0-0.1,0-0.1,0.1-0.1c0,0,0-0.1-0.1-0.1l0,0l0,0c0,0.1,0,0.1-0.1,0l0,0l0,0c0,0.1-0.1,0-0.1,0
				C22.2,90.1,22.2,90.2,22.3,90.3C22.3,90.2,22.3,90.2,22.3,90.3C22.3,90.2,22.3,90.2,22.3,90.3c0.1,0,0.1,0,0.1,0l0,0H22.3
				L22.3,90.3C22.3,90.3,22.4,90.3,22.3,90.3L22.3,90.3L22.3,90.3z"/>
			<path class="st11" d="M22.2,89.5L22.2,89.5L22.2,89.5L22.2,89.5z"/>
			<path class="st11" d="M22.4,89.5L22.4,89.5L22.4,89.5z"/>
			<path class="st11" d="M22.5,89.9C22.5,89.8,22.4,89.9,22.5,89.9C22.4,89.9,22.5,89.9,22.5,89.9z"/>
			<path class="st11" d="M23.2,90.2L23.2,90.2L23.2,90.2c-0.1,0-0.1,0-0.1-0.1c-0.1-0.1-0.2,0-0.2,0.1s0,0.3,0.1,0.3
				s0.2-0.1,0.2-0.1C23.2,90.3,23.3,90.3,23.2,90.2C23.3,90.2,23.3,90.2,23.2,90.2C23.3,90.2,23.3,90.2,23.2,90.2
				C23.3,90.2,23.3,90.2,23.2,90.2z"/>
			<path class="st11" d="M18.8,81.3L18.8,81.3C18.9,81.2,18.8,81.3,18.8,81.3z"/>
			<path class="st11" d="M20.1,81.2L20.1,81.2c0.1,0.1,0.1,0.1,0.1,0C20.2,81.2,20.2,81.2,20.1,81.2z"/>
			<path class="st11" d="M20.1,81C20.1,81,20.2,81.1,20.1,81C20.2,81,20.2,81,20.1,81z"/>
			<path class="st11" d="M20.3,81.1L20.3,81.1C20.3,81.2,20.3,81.2,20.3,81.1C20.3,81.2,20.3,81.2,20.3,81.1L20.3,81.1
				C20.3,81.1,20.2,81.1,20.3,81.1C20.2,81,20.2,81.1,20.3,81.1C20.2,81.2,20.2,81.1,20.3,81.1z"/>
			<path class="st11" d="M20.3,81.2C20.3,81.3,20.4,81.3,20.3,81.2C20.4,81.3,20.4,81.4,20.3,81.2C20.4,81.2,20.4,81.3,20.3,81.2z"
				/>
			<path class="st11" d="M20.6,81.2C20.6,81.2,20.7,81.3,20.6,81.2C20.7,81.2,20.6,81.2,20.6,81.2z"/>
			<path class="st11" d="M20.8,81.1L20.8,81.1C20.8,81,20.7,81.1,20.8,81.1z"/>
			<path class="st11" d="M20.8,80.8C20.8,80.9,20.8,80.8,20.8,80.8C20.9,80.8,20.8,80.8,20.8,80.8z"/>
			<path class="st11" d="M19.5,80.9L19.5,80.9L19.5,80.9L19.5,80.9z"/>
			<path class="st11" d="M19.7,81.3C19.7,81.3,19.8,81.3,19.7,81.3C19.8,81.3,19.8,81.3,19.7,81.3C19.8,81.2,19.7,81.3,19.7,81.3z"
				/>
			<path class="st11" d="M19.8,81.3L19.8,81.3L19.8,81.3L19.8,81.3z"/>
			<path class="st11" d="M22.3,79.8c0,0,0.1,0,0.1,0.1c0,0,0,0,0-0.1s-0.1,0,0-0.1C22.4,79.8,22.4,79.8,22.3,79.8z"/>
			<path class="st11" d="M20,80.4C20,80.4,20.1,80.4,20,80.4C20.1,80.5,20,80.4,20,80.4c0,0.1,0.1,0,0.1,0.1c0,0,0,0,0.1,0l0,0
				c0,0,0,0,0-0.1C20.1,80.4,20.1,80.4,20,80.4z"/>
			<path class="st11" d="M20.7,80.9L20.7,80.9C20.7,81,20.7,81,20.7,80.9C20.7,81,20.7,80.9,20.7,80.9z"/>
			<path class="st11" d="M18.4,81.5C18.4,81.6,18.5,81.6,18.4,81.5C18.4,81.5,18.4,81.6,18.4,81.5z"/>
			<path class="st11" d="M18.8,82.1c0,0.1,0.1,0.1,0.1,0c0,0,0,0.1,0.1,0.2c0-0.1,0-0.2,0.1-0.2c0,0-0.2,0-0.1,0.1
				C18.9,82,18.9,82,18.8,82.1z"/>
			<path class="st11" d="M21,80.5C21,80.6,21,80.5,21,80.5L21,80.5z"/>
			<path class="st11" d="M21.2,80.2L21.2,80.2L21.2,80.2z"/>
			<path class="st11" d="M22.1,81.1c0,0.1,0,0.1,0.1,0.1C22.2,81.1,22.2,81.1,22.1,81.1C22.2,81,22.2,81.1,22.1,81.1z"/>
			<path class="st11" d="M27,81.8C27,81.9,27.1,81.7,27,81.8C27.1,81.8,27.1,81.8,27,81.8L27,81.8z"/>
			<path class="st11" d="M19.7,78.4C19.8,78.5,19.8,78.5,19.7,78.4C19.8,78.4,19.8,78.4,19.7,78.4z"/>
			<path class="st11" d="M20.6,78.4c0,0.1,0.1,0,0.2,0c0-0.1-0.1,0-0.1-0.1C20.7,78.5,20.7,78.4,20.6,78.4z"/>
			<path class="st11" d="M27.1,81.8C27.1,81.9,27.1,81.9,27.1,81.8c0,0.1,0-0.1,0.1,0C27.3,81.8,27.2,81.7,27.1,81.8
				C27.2,81.7,27.2,81.8,27.1,81.8z"/>
			<path class="st11" d="M27.2,81.9C27.3,81.9,27.3,81.8,27.2,81.9c0.1-0.1,0.1-0.1,0.1-0.1C27.3,81.8,27.2,81.8,27.2,81.9z"/>
			<path class="st11" d="M19.3,79.7C19.3,79.7,19.3,79.8,19.3,79.7C19.4,79.7,19.4,79.7,19.3,79.7C19.4,79.7,19.3,79.7,19.3,79.7
				C19.4,79.7,19.3,79.7,19.3,79.7z"/>
			<path class="st11" d="M21.2,79.6c0,0.1,0.1,0,0.1,0C21.3,79.6,21.2,79.6,21.2,79.6z"/>
			<path class="st11" d="M19.8,81.6c0.1,0,0.2-0.1,0.2-0.2C20,81.4,19.9,81.6,19.8,81.6z"/>
			<path class="st11" d="M19.9,82.8C19.9,83,20,82.7,19.9,82.8C20,82.9,20,82.8,19.9,82.8L19.9,82.8z"/>
			<path class="st11" d="M19.9,81.9C19.9,82,19.9,81.9,19.9,81.9c0.1-0.1,0.1,0,0.1-0.1C19.9,81.8,19.9,81.9,19.9,81.9z"/>
			<path class="st11" d="M20,82.1C20,82.2,20,82.2,20,82.1L20,82.1z"/>
			<path class="st11" d="M20.1,81.9c0,0.1,0.1,0.1,0.2,0c0-0.1-0.1,0,0-0.1C20.2,81.9,20.2,81.9,20.1,81.9z"/>
			<path class="st11" d="M20.5,81.8c0,0.1,0.3,0.1,0.2-0.1c0,0,0,0,0,0.1C20.6,81.8,20.6,81.9,20.5,81.8z"/>
			<path class="st11" d="M21.3,82c0,0.1,0.1,0,0.1,0C21.4,81.9,21.3,82,21.3,82z"/>
			<path class="st11" d="M22.3,82C22.3,82.1,22.4,82.1,22.3,82C22.4,82,22.3,82.1,22.3,82z"/>
			<path class="st11" d="M23.2,82.1c0,0.1,0.1,0,0.2,0c0-0.1-0.1,0-0.1-0.1C23.3,82.1,23.3,82,23.2,82.1z"/>
			<path class="st11" d="M20,82.8C20,82.9,20,82.9,20,82.8c0,0.1,0-0.1,0.1,0C20.2,82.8,20.1,82.8,20,82.8
				C20.1,82.8,20.1,82.8,20,82.8z"/>
			<path class="st11" d="M20,81.9c0,0.1,0.1,0,0.1,0s0,0,0-0.1c0.1,0.1,0-0.1,0.1-0.1c0,0,0,0.1,0,0c0,0,0.1,0,0-0.1
				c-0.1,0-0.1,0-0.1,0v0.1H20c0-0.1,0-0.1,0-0.1c0-0.1,0.1,0,0-0.1l-0.1,0.1C20,81.6,20,81.7,20,81.9C20,81.7,20,81.8,20,81.9
				C20.1,81.9,20,81.9,20,81.9z"/>
			<path class="st11" d="M20.1,82.9L20.1,82.9c0.1-0.1,0.1-0.1,0.1-0.1S20.1,82.8,20.1,82.9z"/>
			<path class="st11" d="M20.2,81.7c0,0.1,0.1-0.1,0.1-0.1s0,0.1,0,0C20.3,81.5,20.3,81.7,20.2,81.7z"/>
			<path class="st11" d="M19.4,79.2c0,0,0.1,0,0.1-0.1C19.4,79.1,19.4,79.2,19.4,79.2z"/>
			<path class="st11" d="M19.4,79.8C19.4,79.9,19.4,79.8,19.4,79.8C19.5,79.8,19.5,79.8,19.4,79.8L19.4,79.8z"/>
			<path class="st11" d="M19.4,79.3C19.4,79.4,19.4,79.3,19.4,79.3L19.4,79.3L19.4,79.3z"/>
			<path class="st11" d="M19.5,79.4C19.5,79.5,19.5,79.5,19.5,79.4L19.5,79.4z"/>
			<path class="st11" d="M19.5,79.3C19.5,79.4,19.6,79.4,19.5,79.3C19.6,79.3,19.6,79.4,19.5,79.3C19.6,79.3,19.5,79.3,19.5,79.3z"
				/>
			<path class="st11" d="M19.7,79.3c0,0.1,0.1,0.1,0.1,0l0,0C19.8,79.3,19.8,79.3,19.7,79.3z"/>
			<path class="st11" d="M19.5,79.8C19.5,79.8,19.5,79.9,19.5,79.8C19.5,79.9,19.5,79.8,19.5,79.8L19.5,79.8L19.5,79.8z"/>
			<path class="st11" d="M19.4,79.3C19.5,79.4,19.5,79.3,19.4,79.3C19.5,79.3,19.5,79.3,19.4,79.3C19.5,79.3,19.5,79.2,19.4,79.3
				c0.1-0.1,0.1-0.1,0.1-0.1s0,0,0-0.1c0,0,0,0-0.1,0C19.5,79.2,19.5,79.2,19.4,79.3C19.5,79.2,19.5,79.2,19.4,79.3
				C19.4,79.2,19.4,79.2,19.4,79.3L19.4,79.3L19.4,79.3C19.5,79.2,19.5,79.2,19.4,79.3C19.5,79.2,19.5,79.3,19.4,79.3
				C19.5,79.3,19.5,79.3,19.4,79.3z"/>
			<path class="st11" d="M19.5,79.9C19.5,79.9,19.5,79.8,19.5,79.9C19.6,79.8,19.6,79.8,19.5,79.9C19.6,79.8,19.5,79.8,19.5,79.9z"
				/>
			<path class="st11" d="M19.6,79.3C19.6,79.3,19.6,79.2,19.6,79.3C19.6,79.2,19.6,79.2,19.6,79.3C19.6,79.1,19.6,79.2,19.6,79.3z"
				/>
			<path class="st11" d="M27.6,81.4c0,0.1,0.1,0,0.1,0C27.7,81.3,27.7,81.4,27.6,81.4z"/>
			<path class="st11" d="M19,78.9L19,78.9C19.1,78.9,19,78.9,19,78.9z"/>
			<path class="st11" d="M19.9,78.9c0,0.1,0.1,0,0.2,0c0-0.1-0.1,0-0.1-0.1C20,78.9,19.9,78.9,19.9,78.9z"/>
			<path class="st11" d="M23.1,80.2C23.1,80.3,23.1,80.3,23.1,80.2C23.2,80.2,23.2,80.2,23.1,80.2C23,80.1,23.1,80.2,23.1,80.2z"/>
			<path class="st11" d="M22.8,83.5c0,0.1,0.1,0.1,0.1,0C22.9,83.5,22.8,83.6,22.8,83.5z"/>
			<path class="st11" d="M23,83.5c0,0.1,0.1,0,0.2,0H23z"/>
			<path class="st11" d="M23.4,83.3c0,0.1,0.1,0.1,0.1,0.1C23.5,83.3,23.4,83.3,23.4,83.3C23.4,83.2,23.4,83.3,23.4,83.3z"/>
			<path class="st11" d="M23.6,83.4C23.6,83.3,23.6,83.4,23.6,83.4C23.6,83.3,23.5,83.3,23.6,83.4C23.5,83.4,23.6,83.3,23.6,83.4
				L23.6,83.4z"/>
			<path class="st11" d="M23.6,83.4c0,0.1,0.1-0.1,0.1,0C23.7,83.3,23.6,83.3,23.6,83.4z"/>
			<path class="st11" d="M20.7,79.2C20.7,79.3,20.8,79.2,20.7,79.2C20.7,79.1,20.7,79.2,20.7,79.2z"/>
			<path class="st11" d="M22.2,80C22.2,80.1,22.3,80.2,22.2,80C22.3,80,22.2,80,22.2,80z"/>
			<path class="st11" d="M22.5,80.1c0,0,0.1,0.1,0.1,0S22.5,80.1,22.5,80.1z"/>
			<path class="st11" d="M22.7,80.4C22.6,80.4,22.8,80.5,22.7,80.4C22.7,80.3,22.7,80.4,22.7,80.4z"/>
			<path class="st11" d="M20.9,79.8c0,0.1,0.1,0,0.2,0C21,79.7,20.9,79.8,20.9,79.8z"/>
			<path class="st11" d="M21.7,78.5c0.1,0,0.2-0.1,0.2-0.2C21.9,78.3,21.8,78.5,21.7,78.5z"/>
			<path class="st11" d="M21.8,79.8C21.8,79.9,21.9,79.7,21.8,79.8C21.9,79.8,21.9,79.8,21.8,79.8C21.9,79.8,21.8,79.8,21.8,79.8z"
				/>
			<path class="st11" d="M21.8,78.8C21.8,78.9,21.9,78.9,21.8,78.8c0.1-0.1,0.1,0,0.1-0.1C21.8,78.8,21.8,78.8,21.8,78.8z"/>
			<path class="st11" d="M21.9,79C21.9,79.1,22,79.1,21.9,79C22,79,21.9,79,21.9,79z"/>
			<path class="st11" d="M22,78.8c0,0.1,0.1,0.1,0.2,0c0-0.1-0.1,0,0-0.1C22.1,78.8,22.1,78.8,22,78.8z"/>
			<path class="st11" d="M22.4,78.8c0,0.1,0.3,0.1,0.2-0.1c0,0,0,0,0,0.1C22.6,78.7,22.5,78.8,22.4,78.8z"/>
			<path class="st11" d="M21.9,79.8C21.9,79.9,21.9,79.9,21.9,79.8c0,0.1,0-0.1,0.1,0C22.1,79.7,22,79.7,21.9,79.8
				C22,79.7,22,79.8,21.9,79.8z"/>
			<path class="st11" d="M21.9,78.8c0,0.1,0.1,0,0.1,0s0,0,0-0.1c0.1,0.1,0-0.1,0.1-0.1c0,0,0,0.1,0,0c0,0,0.1,0,0-0.1
				c-0.1,0-0.1,0-0.1,0v0.1h-0.1c0-0.1,0-0.1,0-0.1c0-0.1,0.1,0,0-0.1l-0.1,0.1C22,78.6,21.9,78.6,21.9,78.8
				C21.9,78.7,22,78.7,21.9,78.8C22,78.8,21.9,78.8,21.9,78.8z"/>
			<path class="st11" d="M22,79.9C22.1,79.8,22.1,79.8,22,79.9c0.1-0.1,0.1-0.1,0.1-0.1S22,79.8,22,79.9z"/>
			<path class="st11" d="M22.2,78.7c0,0.1,0.1-0.1,0.1-0.1s0,0.1,0,0C22.2,78.4,22.2,78.7,22.2,78.7z"/>
			<path class="st11" d="M22.1,81.8c0.1,0,0.2-0.1,0.2-0.2C22.3,81.6,22.2,81.8,22.1,81.8z"/>
			<path class="st11" d="M22.3,83C22.3,83.2,22.3,82.9,22.3,83C22.4,83.1,22.3,83,22.3,83L22.3,83z"/>
			<path class="st11" d="M22.2,82.1C22.2,82.2,22.3,82.1,22.2,82.1c0.1-0.1,0.1,0,0.1-0.1C22.3,82,22.3,82.1,22.2,82.1z"/>
			<path class="st11" d="M22.3,82.3C22.4,82.3,22.4,82.4,22.3,82.3C22.4,82.3,22.4,82.3,22.3,82.3z"/>
			<path class="st11" d="M22.5,82.1c0,0.1,0.1,0.1,0.2,0c0-0.1-0.1,0,0-0.1C22.6,82.1,22.5,82.1,22.5,82.1z"/>
			<path class="st11" d="M22.9,82c0,0.1,0.3,0.1,0.2-0.1c0,0,0,0,0,0.1C23,82,22.9,82.1,22.9,82z"/>
			<path class="st11" d="M22.4,83C22.4,83.1,22.4,83.1,22.4,83c0,0.1,0-0.1,0.1,0H22.4L22.4,83z"/>
			<path class="st11" d="M22.3,82.1c0,0.1,0.1,0,0.1,0s0,0,0-0.1c0.1,0.1,0-0.1,0.1-0.1c0,0,0,0.1,0,0c0,0,0.1,0,0-0.1
				c-0.1,0-0.1,0-0.1,0v0.1h-0.1c0-0.1,0-0.1,0-0.1c0-0.1,0.1,0,0-0.1l-0.1,0.1C22.4,81.8,22.4,81.9,22.3,82.1
				C22.4,81.9,22.4,82,22.3,82.1C22.4,82.1,22.4,82,22.3,82.1z"/>
			<path class="st11" d="M22.5,83.1L22.5,83.1c0.1-0.1,0.1-0.1,0.1-0.1S22.5,83,22.5,83.1z"/>
			<path class="st11" d="M22.6,81.9c0,0.1,0.1-0.1,0.1-0.1s0,0.1,0,0C22.7,81.7,22.6,81.9,22.6,81.9z"/>
			<path class="st11" d="M21.1,82.5c0,0,0.1,0,0.1-0.1C21.1,82.4,21.1,82.5,21.1,82.5z"/>
			<path class="st11" d="M21.9,84C21.9,84.1,22,84,21.9,84c0.1-0.1,0.1,0,0.1-0.1C21.9,83.9,21.9,84,21.9,84z"/>
			<path class="st11" d="M22,84.2C22,84.2,22.1,84.3,22,84.2C22.1,84.2,22,84.2,22,84.2z"/>
			<path class="st11" d="M22.1,84c0,0.1,0.1,0.1,0.2,0c0-0.1-0.1,0,0-0.1C22.3,84,22.2,84,22.1,84z"/>
			<path class="st11" d="M21.7,84.4c0,0.1,0.3,0.1,0.2-0.1c0,0,0,0,0,0.1C21.8,84.3,21.8,84.4,21.7,84.4z"/>
			<path class="st11" d="M23.3,84.1c0,0.1,0.1,0,0.1,0C23.4,84,23.4,84.1,23.3,84.1z"/>
			<path class="st11" d="M21.1,82.6C21.2,82.7,21.2,82.6,21.1,82.6C21.2,82.6,21.2,82.6,21.1,82.6C21.2,82.6,21.2,82.5,21.1,82.6
				c0.1-0.1,0.1-0.1,0.1-0.1l0,0C21.2,82.5,21.2,82.5,21.1,82.6C21.2,82.5,21.2,82.5,21.1,82.6C21.2,82.5,21.2,82.5,21.1,82.6
				C21.1,82.5,21.1,82.5,21.1,82.6L21.1,82.6L21.1,82.6C21.2,82.5,21.2,82.5,21.1,82.6C21.2,82.6,21.2,82.6,21.1,82.6
				C21.2,82.6,21.2,82.6,21.1,82.6z"/>
			<path class="st11" d="M21.3,82.6C21.3,82.6,21.3,82.5,21.3,82.6C21.3,82.5,21.3,82.5,21.3,82.6C21.3,82.5,21.3,82.6,21.3,82.6z"
				/>
			<path class="st11" d="M19,81.2C19,81.2,18.9,81.2,19,81.2v0.2c0,0,0,0,0,0.1C19.1,81.4,19,81.3,19,81.2z"/>
			<path class="st11" d="M19.3,81.5c0-0.1,0-0.2,0-0.2C19.2,81.3,19.3,81.4,19.3,81.5L19.3,81.5c0.1,0,0.1,0.1,0.2,0
				c0,0-0.1-0.1-0.1,0C19.4,81.4,19.3,81.4,19.3,81.5C19.3,81.4,19.3,81.4,19.3,81.5L19.3,81.5z"/>
			<path class="st11" d="M20,82.6c0-0.1,0-0.1,0.1-0.1C20,82.4,19.9,82.6,20,82.6z"/>
			<path class="st11" d="M20.3,81C20.3,81,20.2,81,20.3,81L20.3,81z"/>
			<path class="st11" d="M20.4,81.1h-0.1v0.1C20.4,81.1,20.4,81.1,20.4,81.1L20.4,81.1L20.4,81.1C20.5,81.1,20.4,81.1,20.4,81.1z"/>
			<path class="st11" d="M20.4,80.9c0,0.1,0.2,0.1,0.3,0.1l0,0c0,0,0,0,0-0.1c0,0,0,0,0.1,0l0,0c0.2,0,0.3,0,0.5,0c0,0,0,0,0-0.1
				l0,0c0,0,0,0,0,0.1c0,0,0.1,0,0.1-0.1c0,0,0,0.1,0,0c-0.3,0-0.4,0-0.7,0.1l0,0l0,0C20.5,81,20.5,81,20.4,80.9
				C20.5,80.9,20.4,81,20.4,80.9z"/>
			<path class="st11" d="M19.6,81.2L19.6,81.2L19.6,81.2c0.1,0.1,0.1,0.1,0.2,0.1c0-0.1,0.1-0.1,0.1,0l0,0c0,0,0,0,0.1,0.1l0,0
				c0,0,0-0.1,0.1-0.1l0,0l0,0L20,81.2l0,0h-0.1c0,0,0,0,0,0.1c0,0-0.1,0-0.1-0.1l0,0l0,0l0,0C19.8,81.1,19.7,81.2,19.6,81.2z"/>
			<path class="st11" d="M19.6,80.7C19.6,80.8,19.5,80.7,19.6,80.7C19.6,80.8,19.6,80.7,19.6,80.7L19.6,80.7z"/>
			<path class="st11" d="M22.3,79.9c-0.1,0-0.1,0-0.2,0c0,0,0,0.1,0,0c0,0,0,0,0,0.1C22.2,79.9,22.2,80,22.3,79.9
				C22.3,79.9,22.2,79.9,22.3,79.9z"/>
			<path class="st11" d="M22.5,79.9C22.5,80,22.6,79.9,22.5,79.9C22.5,79.8,22.5,79.8,22.5,79.9L22.5,79.9z"/>
			<path class="st11" d="M22.3,81.9c0,0,0.1,0,0.1,0.1c0,0,0,0,0-0.1s-0.1,0,0-0.1C22.3,81.9,22.3,81.9,22.3,81.9z"/>
			<path class="st11" d="M20.3,83.1C20.3,83.2,20.4,83.2,20.3,83.1L20.3,83.1z"/>
			<path class="st11" d="M22.3,78.6c0.1,0,0.2-0.1,0.2-0.2C22.5,78.4,22.4,78.5,22.3,78.6z"/>
			<path class="st11" d="M22.4,79.8C22.4,80,22.5,79.7,22.4,79.8C22.5,79.8,22.5,79.8,22.4,79.8L22.4,79.8z"/>
			<path class="st11" d="M22.4,78.9L22.4,78.9c0.1-0.1,0.1,0,0.1-0.1C22.4,78.8,22.4,78.9,22.4,78.9z"/>
			<path class="st11" d="M22.5,79.1C22.5,79.1,22.5,79.2,22.5,79.1C22.5,79.1,22.5,79,22.5,79.1z"/>
			<path class="st11" d="M22.6,78.9c0,0.1,0.1,0.1,0.2,0c0-0.1-0.1,0,0-0.1C22.7,78.9,22.7,78.9,22.6,78.9z"/>
			<path class="st11" d="M19.1,80.2c0,0.1,0.3,0.1,0.2-0.1c0,0,0,0,0,0.1C19.2,80.2,19.1,80.3,19.1,80.2z"/>
			<path class="st11" d="M19.9,80.4c0,0.1,0.1,0,0.1,0C19.9,80.3,19.9,80.4,19.9,80.4z"/>
			<path class="st11" d="M22.5,79.8C22.5,79.9,22.5,79.9,22.5,79.8c0,0.1,0-0.1,0.1,0C22.7,79.8,22.6,79.8,22.5,79.8
				C22.6,79.7,22.6,79.8,22.5,79.8z"/>
			<path class="st11" d="M22.5,78.8c0,0.1,0.1,0,0.1,0s0,0,0-0.1c0.1,0.1,0-0.1,0.1-0.1c0,0,0,0.1,0,0c0,0,0.1,0,0-0.1
				c-0.1,0-0.1,0-0.1,0v0.1h-0.1c0-0.1,0-0.1,0-0.1c0-0.1,0.1,0,0-0.1l-0.1,0.1C22.5,78.6,22.5,78.7,22.5,78.8
				C22.5,78.7,22.5,78.7,22.5,78.8C22.6,78.8,22.5,78.8,22.5,78.8z"/>
			<path class="st11" d="M22.6,79.9C22.6,79.9,22.6,79.8,22.6,79.9c0.1-0.1,0.1-0.1,0.1-0.1S22.6,79.8,22.6,79.9z"/>
			<path class="st11" d="M22.7,78.7c0,0.1,0.1-0.1,0.1-0.1s0,0.1,0,0C22.8,78.5,22.8,78.7,22.7,78.7z"/>
			<path class="st11" d="M22.3,81.9c-0.1,0-0.1,0-0.2,0c0,0,0,0.1,0,0c0,0,0,0,0,0.1C22.2,81.9,22.2,82,22.3,81.9
				C22.3,82,22.2,81.9,22.3,81.9z"/>
			<path class="st11" d="M22.5,82C22.5,82.1,22.6,82,22.5,82C22.5,81.9,22.5,81.9,22.5,82C22.4,81.9,22.5,82,22.5,82z"/>
			<path class="st11" d="M22.6,80.5L22.6,80.5L22.6,80.5c0,0,0.2,0.1,0.2-0.1c0,0,0,0,0,0.1C22.7,80.5,22.7,80.5,22.6,80.5z"/>
			<path class="st11" d="M22,81.7C22.1,81.7,22.1,81.7,22,81.7C22.1,81.7,22,81.6,22,81.7C22,81.6,22,81.6,22,81.7
				c0-0.1,0-0.1-0.1-0.1l0,0c0,0,0,0,0-0.1v0.1l0,0l0,0C22,81.7,22,81.7,22,81.7z"/>
			<path class="st11" d="M20.1,80.3L20.1,80.3L20.1,80.3L20.1,80.3L20.1,80.3z"/>
			<path class="st11" d="M20.2,80.6L20.2,80.6c0,0,0.1,0.1,0.1,0c0,0,0,0.1,0,0c0,0,0.1,0,0.2-0.1c0,0.1,0,0,0.1,0l0,0h0.1
				c0,0,0-0.1,0,0l0,0c0,0,0,0-0.1,0l0,0c0,0,0,0-0.1,0c0,0.1-0.1,0-0.1,0.1C20.3,80.6,20.2,80.6,20.2,80.6z"/>
			<path class="st11" d="M20.4,81.4L20.4,81.4C20.4,81.5,20.4,81.5,20.4,81.4c0.1,0.1,0.1,0.1,0.1,0.1c0-0.1,0.1-0.1,0.1-0.1l0,0
				c0,0,0-0.1,0.1-0.1c0-0.1,0.1-0.1,0.1-0.2c0,0-0.1,0,0,0c-0.1,0-0.3,0.1-0.4,0c0,0,0,0.1,0.1,0c0,0,0-0.1-0.1-0.1l0,0l0,0
				c0,0.1-0.1,0.1-0.1,0.1l0,0c0,0,0,0,0.1,0c0,0.1-0.1,0-0.1,0.1C20.3,81.2,20.3,81.3,20.4,81.4C20.4,81.3,20.4,81.3,20.4,81.4
				c0.1,0,0.1-0.1,0.1-0.1s0,0.1,0,0l0,0C20.5,81.4,20.4,81.3,20.4,81.4C20.5,81.5,20.5,81.5,20.4,81.4c0.1,0,0.1,0.1,0.1,0H20.4
				C20.4,81.5,20.4,81.4,20.4,81.4z"/>
			<path class="st11" d="M20.2,80.5L20.2,80.5C20.3,80.4,20.3,80.4,20.2,80.5C20.2,80.4,20.3,80.5,20.2,80.5z"/>
			<path class="st11" d="M20.5,80.5C20.5,80.5,20.6,80.5,20.5,80.5C20.6,80.5,20.5,80.4,20.5,80.5z"/>
			<path class="st11" d="M20.7,81c0-0.1-0.1,0-0.1,0S20.6,81,20.7,81z"/>
			<path class="st11" d="M21.6,81.3L21.6,81.3C21.6,81.3,21.5,81.3,21.6,81.3c-0.1,0-0.2,0-0.2-0.2c-0.1-0.1-0.2,0-0.3,0.1
				c0,0.2,0,0.3,0.1,0.4c0.1,0,0.2-0.2,0.3-0.1c0,0,0.1,0,0.1-0.1C21.6,81.4,21.6,81.4,21.6,81.3C21.7,81.3,21.7,81.4,21.6,81.3
				L21.6,81.3z"/>
		</g>
		<polygon class="st6" points="19.7,82 15.8,91.3 15.4,90.4 19.4,81.8 		"/>
		<g>
			<polygon class="st0" points="19.7,81.5 7.5,73.8 7.3,74.2 19.7,82 			"/>
			<polygon class="st5" points="7,71.4 11,74.3 12.1,76.7 7.5,73.8 			"/>
			<polygon class="st0" points="11.8,77.1 9.6,77.1 5,74.7 7.3,74.2 			"/>
		</g>
	</g>
</g>
<g id="Capa_5" class="st48">
	<g class="st49">
		<path class="st54" d="M46.9,62.9c0,11.4,6.1,20.6,13.5,20.6c4.3,0,8.2-3.1,10.6-7.9c1.3-2.6,2.3-5.6,2.7-9
			c0.1-1.2,0.2-2.5,0.2-3.8c0-11.4-6.1-20.6-13.5-20.6C52.9,42.3,46.9,51.6,46.9,62.9z M49.4,62.9c0-9.2,4.6-16.6,10.3-16.6
			S70,53.7,70,62.9s-4.6,16.6-10.3,16.6S49.4,72.1,49.4,62.9z"/>
		<g>
			<path class="st56" d="M59.4,79.5c-0.1,0-0.2,0-0.3,0c-5.7,0-10.3-7.4-10.3-16.6s4.6-16.6,10.3-16.6c0.1,0,0.2,0,0.3,0
				c-5.6,0.2-10,7.5-10,16.6S53.8,79.3,59.4,79.5z"/>
			<path class="st56" d="M70.5,75.7c1.3-2.6,2.3-5.6,2.7-9c0.1-1.2,0.2-2.5,0.2-3.8c0-11.3-5.9-20.4-13.3-20.6c0.1,0,0.2,0,0.3,0
				c7.5,0,13.5,9.2,13.5,20.6c0,1.3-0.1,2.5-0.2,3.8c-0.4,3.4-1.3,6.4-2.7,9c-2.5,4.8-6.3,7.9-10.6,7.9c-0.1,0-0.1,0-0.2,0
				C64.4,83.4,68.1,80.4,70.5,75.7z"/>
		</g>
		
			<radialGradient id="SVGID_21_" cx="-3426.7681" cy="853.6713" r="13.7894" gradientTransform="matrix(-1 0 0 1 -3367.1165 -790.7244)" gradientUnits="userSpaceOnUse">
			<stop  offset="0" style="stop-color:#000000"/>
			<stop  offset="0.1056" style="stop-color:#000A0B"/>
			<stop  offset="0.2911" style="stop-color:#002528"/>
			<stop  offset="0.5344" style="stop-color:#015058"/>
			<stop  offset="0.8229" style="stop-color:#028B99"/>
			<stop  offset="1" style="stop-color:#02B3C4"/>
		</radialGradient>
		<path class="st57" d="M49.4,62.9c0,9.2,4.6,16.6,10.3,16.6S70,72.1,70,62.9s-4.6-16.6-10.3-16.6C54,46.4,49.4,53.8,49.4,62.9z"/>
		<path class="st58" d="M66.3,75l4.7,0.7c1.3-2.6,2.3-5.6,2.7-9l-2.4-2.9L66.3,75z"/>
		<path class="st5" d="M45.3,62.9c0,11.4,5.7,20.6,12.8,20.6s12.8-9.2,12.8-20.6s-5.7-20.6-12.8-20.6C51,42.3,45.3,51.6,45.3,62.9z
			 M47.5,62.9c0-9.5,4.8-17.2,10.6-17.2s10.6,7.7,10.6,17.2s-4.8,17.2-10.6,17.2S47.5,72.4,47.5,62.9z"/>
		<g>
			<path class="st59" d="M57.8,80.1c-0.1,0-0.2,0-0.2,0c-5.9,0-10.6-7.7-10.6-17.2s4.8-17.2,10.6-17.2c0.1,0,0.2,0,0.2,0
				c-5.8,0.2-10.4,7.8-10.4,17.2S52.1,79.9,57.8,80.1z"/>
			<path class="st59" d="M70.4,63c0-11.3-5.6-20.4-12.5-20.6c0.1,0,0.2,0,0.2,0c7.1,0,12.8,9.2,12.8,20.6s-5.7,20.6-12.8,20.6
				c-0.1,0-0.2,0-0.2,0C64.8,83.4,70.4,74.2,70.4,63z"/>
		</g>
		<path class="st56" d="M71.4,63.8c0,1.8,0.8,3.2,1.7,3.2c0.9,0,1.6-1.5,1.6-3.2c0-1.8-0.8-3.2-1.7-3.2C72,60.6,71.3,62,71.4,63.8z"
			/>
		
			<rect x="75.8" y="57.7" transform="matrix(1.800068e-02 -0.9998 0.9998 1.800068e-02 13.7675 141.442)" class="st56" width="6.1" height="12"/>
		<path class="st60" d="M71.4,64.1c0,1.8,0.8,3.2,1.7,3.2c0.9,0,1.6-1.5,1.6-3.2c0-1.8-0.8-3.2-1.7-3.2C72,60.9,71.3,62.3,71.4,64.1
			z"/>
		
			<rect x="75.8" y="58.1" transform="matrix(1.800068e-02 -0.9998 0.9998 1.800068e-02 13.4045 141.7964)" class="st60" width="6.1" height="12"/>
		
			<linearGradient id="SVGID_22_" gradientUnits="userSpaceOnUse" x1="-3468.8115" y1="865.3438" x2="-3453.9187" y2="845.5803" gradientTransform="matrix(-1 0 0 1 -3367.1165 -790.7244)">
			<stop  offset="0" style="stop-color:#0020A9"/>
			<stop  offset="1" style="stop-color:#0063B3"/>
		</linearGradient>
		<path class="st61" d="M82,58.9l23.8-1.2L105.1,72l-23.3-2.5c-1.5,0-2.7-2.4-2.6-5.4C79.2,61.2,80.5,58.8,82,58.9z"/>
		<path class="st62" d="M82,58.9l23.8-1.2l0,0l-23.4,1.5c-1.5,0-2.8,2.3-2.8,5.3c0,2,0.5,3.8,1.4,4.7c-1-0.8-1.8-2.7-1.7-5
			C79.3,61.2,80.5,58.8,82,58.9z"/>
		<path class="st3" d="M102,64.8c-0.1,3.9,1.5,7.2,3.6,7.2c2,0,3.7-3.1,3.8-7.1s-1.5-7.2-3.6-7.2C103.8,57.7,102.1,60.8,102,64.8z"
			/>
		<path class="st63" d="M50.6,56.4c-0.6,2.7,0.1,5.2,1.6,5.5c1.4,0.3,3-1.7,3.6-4.4s-0.1-5.2-1.6-5.5C52.7,51.7,51.1,53.7,50.6,56.4
			z"/>
		<path class="st63" d="M50.6,64.2c0,0.9,0.6,1.6,1.3,1.6s1.3-0.7,1.3-1.6s-0.6-1.6-1.3-1.6S50.6,63.3,50.6,64.2z"/>
	</g>
</g>
</svg>
