<?xml version="1.0" encoding="utf-8"?>
<!-- Generator: Adobe Illustrator 24.1.1, SVG Export Plug-In . SVG Version: 6.00 Build 0)  -->
<svg version="1.1" id="Capa_1" xmlns="http://www.w3.org/2000/svg" xmlns:xlink="http://www.w3.org/1999/xlink" x="0px" y="0px"
	 viewBox="0 0 114.8 107.9" enable-background="new 0 0 114.8 107.9" xml:space="preserve">
<g id="seo">
	<polygon opacity="0.2" fill="#052038" enable-background="new    " points="44.8,84.4 24.8,80.1 26,58.3 46.5,55.8 	"/>
	<g>
		<path fill="#58FFFE" d="M22.6,67.7c0,0.3,0.1,0.6,0.3,0.6c0.2,0,0.4-0.2,0.4-0.6c0-0.3-0.1-0.6-0.3-0.6
			C22.8,67.1,22.6,67.3,22.6,67.7z"/>
		<polygon fill="#197DE5" points="42.3,82.4 22.3,78.1 23.5,56.4 44,53.8 		"/>
		<polygon fill="#0031B3" points="44,53.8 44.3,54.3 42.9,82.1 42.3,82.4 		"/>
		<g>
			<g>
				<polygon fill="#002D95" points="33.4,69.1 42.1,69.7 42.6,60.3 34,60.7 				"/>
				<polygon fill="#58FFFE" points="23.5,68.5 32.1,69.1 32.7,60.7 24,61.1 				"/>
				<polygon fill="#58FFFE" points="32.7,79.4 41.4,81 41.9,71.6 33.3,70.9 				"/>
				<polygon fill="#002D95" points="22.8,77.5 31.4,79.1 32,70.8 23.4,70.1 				"/>
			</g>
			<polygon fill="#58FFFE" points="26.2,77.5 30.8,78.3 30.9,77.2 26.3,76.4 			"/>
			<polygon fill="#58FFFE" points="35.7,68.6 40.3,68.9 40.4,67.6 35.8,67.4 			"/>
			<polygon fill="#58FFFE" points="23.9,77.1 25.7,77.4 25.8,76.3 24,76 			"/>
			<polygon fill="#197DE5" points="24.5,62.8 31.9,62.7 32,61.4 24.6,61.6 			"/>
			<polygon fill="#197DE5" points="35.3,74.4 39.5,74.9 39.6,73.1 35.4,72.6 			"/>
		</g>
		<polygon fill="#D4BDF0" points="26.8,56.4 24,56.7 23.9,58.7 26.8,58.5 		"/>
		<g>
			<polygon fill="#F73535" points="18.3,79 21.5,80.3 21.8,75.9 18.6,75.3 			"/>
			<g>
				<path fill="#FFFFFF" d="M19,78.5L19,78.5c0.1,0.1,0.2,0.2,0.3,0.1l1.7-1.5c0.1-0.1,0.1-0.3,0-0.4l0,0c-0.1-0.1-0.2-0.2-0.3-0.1
					L19,78.1C19,78.2,18.9,78.4,19,78.5z"/>
				<path fill="#FFFFFF" d="M19.2,76.2L19.2,76.2c-0.1,0.1-0.1,0.3,0,0.4l1.4,2.4c0.1,0.1,0.2,0.2,0.3,0.1l0,0
					c0.1-0.1,0.1-0.3,0-0.4l-1.4-2.4C19.4,76.2,19.3,76.2,19.2,76.2z"/>
			</g>
		</g>
		<path fill="#58FFFE" d="M22.1,78.3l1.2-22l20.8-2.6l-1.7,28.9L22.1,78.3z M23.6,56.5L22.4,78l19.7,4.2L43.9,54L23.6,56.5z"/>
		<path fill="#58FFFE" d="M38.9,57.7c0,1.1,0.6,2.1,1.4,2.1s1.4-0.9,1.4-2.1c0-1.1-0.6-2.1-1.4-2.1S38.9,56.5,38.9,57.7z M39.3,57.7
			c0-0.8,0.4-1.4,1-1.4c0.5,0,1,0.6,1,1.4c0,0.8-0.4,1.4-1,1.4C39.8,59.1,39.3,58.5,39.3,57.7z"/>
		<path fill="#58FFFE" d="M37.7,59L37.7,59c0.1,0.2,0.3,0.3,0.5,0.2l1-0.5c0.2-0.1,0.3-0.3,0.2-0.5v-0.1c-0.1-0.2-0.3-0.3-0.5-0.2
			l-1,0.5C37.7,58.7,37.6,58.9,37.7,59z"/>
	</g>
</g>
</svg>
