<?xml version="1.0" encoding="utf-8"?>
<!-- Generator: Adobe Illustrator 24.1.1, SVG Export Plug-In . SVG Version: 6.00 Build 0)  -->
<svg version="1.1" id="Capa_1" xmlns="http://www.w3.org/2000/svg" xmlns:xlink="http://www.w3.org/1999/xlink" x="0px" y="0px"
	 viewBox="0 0 114.8 107.9" enable-background="new 0 0 114.8 107.9" xml:space="preserve">
<g id="Capa_4">
	<g>
		<g>
			<polygon fill="#197DE5" points="47.8,29.3 28.9,38.3 27.8,54.7 46.5,52.2 			"/>
			<polygon fill="#58FFFE" points="47,30.2 46.9,33.5 29.2,40.8 29.4,38.5 			"/>
			<polygon fill="#0031B3" points="47.8,29.3 48,29.5 47,52.2 46.5,52.2 			"/>
		</g>
		<g>
			
				<radialGradient id="SVGID_1_" cx="-1092.6914" cy="71.2756" r="11.7982" gradientTransform="matrix(-1 0 0 -1 -1059.1165 109.2756)" gradientUnits="userSpaceOnUse">
				<stop  offset="0" style="stop-color:#000000"/>
				<stop  offset="1" style="stop-color:#02B3C4"/>
			</radialGradient>
			<polygon opacity="0.4" fill="url(#SVGID_1_)" enable-background="new    " points="43.6,24.7 24.6,35.5 23.5,51.3 42.3,47.6 			
				"/>
			<polygon opacity="0.5" fill="#58FFFE" enable-background="new    " points="42.9,25.5 42.7,28.9 24.9,37.5 25.1,35.5 			"/>
			<polygon fill="#58FFFE" points="43.6,24.7 43.9,24.9 42.9,47.9 42.3,47.6 			"/>
		</g>
		<polygon fill="#58FFFE" points="23.5,51.3 42.3,47.6 42.9,47.9 23.7,51.4 		"/>
		<g>
			<polygon fill="#58FFFE" points="25,36.2 42.8,26.8 42.8,26.3 25,35.8 			"/>
			<polygon fill="#58FFFE" points="24.6,42.9 42.3,36.1 42.3,35.5 24.6,42.5 			"/>
			<polygon fill="#58FFFE" points="24.8,38.8 42.6,30.5 42.6,29.9 24.9,38.4 			"/>
			<polygon fill="#58FFFE" points="37.6,31.3 42.7,28.8 42.7,28.2 37.7,30.8 			"/>
			<polygon fill="#58FFFE" points="40.9,35.2 42.4,34.7 42.4,34.1 41,34.7 			"/>
			<polygon fill="#58FFFE" points="30.2,39.7 31.6,39.1 31.7,38.6 30.2,39.2 			"/>
			<polygon fill="#58FFFE" points="29.5,35.3 37.5,31.4 37.5,30.9 29.6,34.9 			"/>
			<polygon fill="#58FFFE" points="30,38.7 37.9,35.3 37.9,34.8 30,38.2 			"/>
			<polygon fill="#58FFFE" points="32.4,38.7 40.3,35.5 40.4,34.9 32.4,38.2 			"/>
			<polygon fill="#58FFFE" points="24.8,39.7 32.7,36.2 32.7,35.7 24.8,39.3 			"/>
			<polygon fill="#58FFFE" points="24.5,44 42.2,37.7 42.2,37.1 24.5,43.6 			"/>
			<polygon fill="#58FFFE" points="24,50.7 41.7,46.9 41.8,46.4 24.1,50.3 			"/>
			<polygon fill="#58FFFE" points="24.3,46.6 42,41.3 42.1,40.7 24.3,46.2 			"/>
			<polygon fill="#58FFFE" points="37.1,41.3 42.1,39.6 42.1,39.1 37.1,40.8 			"/>
			<polygon fill="#58FFFE" points="40.4,45.8 41.8,45.5 41.8,44.9 40.4,45.3 			"/>
			<polygon fill="#58FFFE" points="29.7,48.4 31.1,48.1 31.1,47.6 29.7,47.9 			"/>
			<polygon fill="#58FFFE" points="29,43.9 36.9,41.3 36.9,40.8 29,43.5 			"/>
			<polygon fill="#58FFFE" points="29.4,47.4 37.3,45.4 37.4,44.8 29.5,46.9 			"/>
			<polygon fill="#58FFFE" points="31.9,47.8 39.8,46 39.8,45.4 31.9,47.4 			"/>
			<polygon fill="#58FFFE" points="24.2,47.5 32.1,45.3 32.2,44.8 24.3,47.1 			"/>
		</g>
		<g>
			<polygon fill="#29BBFE" points="22.9,67.7 22.9,67.5 20.3,67.4 22.4,44.3 24.1,43.4 24.1,43.2 22.2,44.2 22.2,44.2 20.1,67.5 			
				"/>
		</g>
		<path fill="#58FFFE" d="M23.5,43.3c0,0.3,0.1,0.6,0.3,0.6c0.2,0,0.4-0.2,0.4-0.6c0-0.3-0.1-0.6-0.3-0.6S23.6,43,23.5,43.3z"/>
		<g>
			<polygon fill="#58FFFE" points="23.8,51.4 24.8,35.6 43.7,24.8 43.6,24.6 24.5,35.4 23.5,51.4 			"/>
		</g>
		<g>
			<polygon fill="#F73535" points="23.2,38.4 26.2,36.8 26.4,32.8 23.3,35.2 			"/>
			<g>
				<path fill="#FFFFFF" d="M23.9,37.4L23.9,37.4c0.1,0,0.2,0,0.3-0.2l1.6-2.7c0.1-0.2,0.1-0.3,0-0.4l0,0c-0.1,0-0.2,0.1-0.3,0.2
					L23.9,37C23.8,37.2,23.8,37.3,23.9,37.4z"/>
				<path fill="#FFFFFF" d="M24,35.4L24,35.4c-0.1,0.2-0.1,0.3,0,0.3l1.4,0.8c0.1,0.1,0.2,0,0.3-0.2l0,0c0.1-0.2,0.1-0.3,0-0.4
					l-1.4-0.8C24.2,35.1,24.1,35.2,24,35.4z"/>
			</g>
		</g>
		<polygon fill="#58FFFE" points="46.2,51.1 46.8,36.4 46.2,36.8 45.6,51.2 		"/>
		<polygon fill="#D4BDF0" points="33.3,53.2 33.3,51.5 28.6,52.3 28.5,53.8 		"/>
	</g>
</g>
</svg>
