<?xml version="1.0" encoding="utf-8"?>
<!-- Generator: Adobe Illustrator 24.1.1, SVG Export Plug-In . SVG Version: 6.00 Build 0)  -->
<svg version="1.1" id="Capa_1" xmlns="http://www.w3.org/2000/svg" xmlns:xlink="http://www.w3.org/1999/xlink" x="0px" y="0px"
	 viewBox="0 0 114.8 107.9" enable-background="new 0 0 114.8 107.9" xml:space="preserve">
<g id="Capa_6">
	<g>
		<path fill="#6FE0F6" d="M15,82.6c0,7.4,2.7,13.6,7,13.6s8.7-6.2,8.7-13.6S26.4,69.1,22,69.1S15,75.2,15,82.6z"/>
		<ellipse fill="#197DE5" cx="21.7" cy="82.5" rx="7.8" ry="13.4"/>
		<ellipse fill="#0031B3" cx="21" cy="82.3" rx="6.1" ry="10.4"/>
		<ellipse fill="#197DE5" cx="19.8" cy="81.8" rx="4.1" ry="7"/>
		<path fill="#6D208B" d="M17.1,81.7c0,1.8,0.9,3.3,2,3.3s2-1.5,2-3.3s-0.9-3.3-2-3.3C18,78.4,17.1,79.8,17.1,81.7z"/>
		<polygon opacity="0.12" fill="#2C333A" enable-background="new    " points="19.7,82 15.8,91.3 15.4,90.4 19.4,81.8 		"/>
		<g>
			<polygon fill="#0031B3" points="19.7,81.5 7.5,73.8 7.3,74.2 19.7,82 			"/>
			<polygon fill="#197DE5" points="7,71.4 11,74.3 12.1,76.7 7.5,73.8 			"/>
			<polygon fill="#0031B3" points="11.8,77.1 9.6,77.1 5,74.7 7.3,74.2 			"/>
		</g>
	</g>
</g>
</svg>
