<?xml version="1.0" encoding="utf-8"?>
<!-- Generator: Adobe Illustrator 24.1.1, SVG Export Plug-In . SVG Version: 6.00 Build 0)  -->
<svg version="1.1" id="Capa_1" xmlns="http://www.w3.org/2000/svg" xmlns:xlink="http://www.w3.org/1999/xlink" x="0px" y="0px"
	 viewBox="0 0 114.8 107.9" enable-background="new 0 0 114.8 107.9" xml:space="preserve">
<g id="Capa_5">
	<g>
		<path fill="#6FE0F6" d="M46.9,62.9c0,11.4,6.1,20.6,13.5,20.6c4.3,0,8.2-3.1,10.6-7.9c1.3-2.6,2.3-5.6,2.7-9
			c0.1-1.2,0.2-2.5,0.2-3.8c0-11.4-6.1-20.6-13.5-20.6C52.9,42.3,46.9,51.6,46.9,62.9z M49.4,62.9c0-9.2,4.6-16.6,10.3-16.6
			S70,53.7,70,62.9s-4.6,16.6-10.3,16.6S49.4,72.1,49.4,62.9z"/>
		<g>
			<path fill="#7CFFF6" d="M59.4,79.5c-0.1,0-0.2,0-0.3,0c-5.7,0-10.3-7.4-10.3-16.6s4.6-16.6,10.3-16.6c0.1,0,0.2,0,0.3,0
				c-5.6,0.2-10,7.5-10,16.6S53.8,79.3,59.4,79.5z"/>
			<path fill="#7CFFF6" d="M70.5,75.7c1.3-2.6,2.3-5.6,2.7-9c0.1-1.2,0.2-2.5,0.2-3.8c0-11.3-5.9-20.4-13.3-20.6c0.1,0,0.2,0,0.3,0
				c7.5,0,13.5,9.2,13.5,20.6c0,1.3-0.1,2.5-0.2,3.8c-0.4,3.4-1.3,6.4-2.7,9c-2.5,4.8-6.3,7.9-10.6,7.9c-0.1,0-0.1,0-0.2,0
				C64.4,83.4,68.1,80.4,70.5,75.7z"/>
		</g>
		
			<radialGradient id="SVGID_1_" cx="-1118.7682" cy="46.3287" r="13.7894" gradientTransform="matrix(-1 0 0 -1 -1059.1165 109.2756)" gradientUnits="userSpaceOnUse">
			<stop  offset="0" style="stop-color:#000000"/>
			<stop  offset="0.1056" style="stop-color:#000A0B"/>
			<stop  offset="0.2911" style="stop-color:#002528"/>
			<stop  offset="0.5344" style="stop-color:#015058"/>
			<stop  offset="0.8229" style="stop-color:#028B99"/>
			<stop  offset="1" style="stop-color:#02B3C4"/>
		</radialGradient>
		<path opacity="0.3" fill="url(#SVGID_1_)" enable-background="new    " d="M49.4,62.9c0,9.2,4.6,16.6,10.3,16.6S70,72.1,70,62.9
			s-4.6-16.6-10.3-16.6C54,46.4,49.4,53.8,49.4,62.9z"/>
		<path opacity="0.5" fill-rule="evenodd" clip-rule="evenodd" fill="#197DE5" enable-background="new    " d="M66.3,75l4.7,0.7
			c1.3-2.6,2.3-5.6,2.7-9l-2.4-2.9L66.3,75z"/>
		<path fill="#197DE5" d="M45.3,62.9c0,11.4,5.7,20.6,12.8,20.6s12.8-9.2,12.8-20.6s-5.7-20.6-12.8-20.6
			C51,42.3,45.3,51.6,45.3,62.9z M47.5,62.9c0-9.5,4.8-17.2,10.6-17.2s10.6,7.7,10.6,17.2s-4.8,17.2-10.6,17.2S47.5,72.4,47.5,62.9z
			"/>
		<g>
			<path fill="#4DD1FF" d="M57.8,80.1c-0.1,0-0.2,0-0.2,0c-5.9,0-10.6-7.7-10.6-17.2s4.8-17.2,10.6-17.2c0.1,0,0.2,0,0.2,0
				c-5.8,0.2-10.4,7.8-10.4,17.2S52.1,79.9,57.8,80.1z"/>
			<path fill="#4DD1FF" d="M70.4,63c0-11.3-5.6-20.4-12.5-20.6c0.1,0,0.2,0,0.2,0c7.1,0,12.8,9.2,12.8,20.6s-5.7,20.6-12.8,20.6
				c-0.1,0-0.2,0-0.2,0C64.8,83.4,70.4,74.2,70.4,63z"/>
		</g>
		<path fill="#7CFFF6" d="M71.4,63.8c0,1.8,0.8,3.2,1.7,3.2c0.9,0,1.6-1.5,1.6-3.2c0-1.8-0.8-3.2-1.7-3.2C72,60.6,71.3,62,71.4,63.8
			z"/>
		
			<rect x="75.843" y="57.711" transform="matrix(0.018 -0.9998 0.9998 0.018 13.7711 141.4426)" fill="#7CFFF6" width="6.1" height="12"/>
		<path fill="#6FCEF6" d="M71.4,64.1c0,1.8,0.8,3.2,1.7,3.2c0.9,0,1.6-1.5,1.6-3.2c0-1.8-0.8-3.2-1.7-3.2
			C72,60.9,71.3,62.3,71.4,64.1z"/>
		
			<rect x="75.843" y="58.073" transform="matrix(0.018 -0.9998 0.9998 0.018 13.4081 141.7981)" fill="#6FCEF6" width="6.1" height="12"/>
		
			<linearGradient id="SVGID_2_" gradientUnits="userSpaceOnUse" x1="-1160.8116" y1="34.6562" x2="-1145.9188" y2="54.4197" gradientTransform="matrix(-1 0 0 -1 -1059.1165 109.2756)">
			<stop  offset="0" style="stop-color:#0020A9"/>
			<stop  offset="1" style="stop-color:#0063B3"/>
		</linearGradient>
		<path fill="url(#SVGID_2_)" d="M82,58.9l23.8-1.2L105.1,72l-23.3-2.5c-1.5,0-2.7-2.4-2.6-5.4C79.2,61.2,80.5,58.8,82,58.9z"/>
		<path opacity="0.5" fill="#65B1DB" enable-background="new    " d="M82,58.9l23.8-1.2l0,0l-23.4,1.5c-1.5,0-2.8,2.3-2.8,5.3
			c0,2,0.5,3.8,1.4,4.7c-1-0.8-1.8-2.7-1.7-5C79.3,61.2,80.5,58.8,82,58.9z"/>
		<path fill="#001B8D" d="M102,64.8c-0.1,3.9,1.5,7.2,3.6,7.2c2,0,3.7-3.1,3.8-7.1s-1.5-7.2-3.6-7.2C103.8,57.7,102.1,60.8,102,64.8
			z"/>
		<path fill-rule="evenodd" clip-rule="evenodd" fill="#FFFFFF" d="M50.6,56.4c-0.6,2.7,0.1,5.2,1.6,5.5c1.4,0.3,3-1.7,3.6-4.4
			s-0.1-5.2-1.6-5.5C52.7,51.7,51.1,53.7,50.6,56.4z"/>
		<path fill-rule="evenodd" clip-rule="evenodd" fill="#FFFFFF" d="M50.6,64.2c0,0.9,0.6,1.6,1.3,1.6s1.3-0.7,1.3-1.6
			s-0.6-1.6-1.3-1.6S50.6,63.3,50.6,64.2z"/>
	</g>
</g>
</svg>
