<?xml version="1.0" encoding="utf-8"?>
<!-- Generator: Adobe Illustrator 24.1.1, SVG Export Plug-In . SVG Version: 6.00 Build 0)  -->
<svg version="1.1" id="Capa_1" xmlns="http://www.w3.org/2000/svg" xmlns:xlink="http://www.w3.org/1999/xlink" x="0px" y="0px"
	 viewBox="0 0 454.8 400" enable-background="new 0 0 454.8 400" xml:space="preserve">
<g id="Capa_7">
	
		<ellipse transform="matrix(0.0821 -0.9966 0.9966 0.0821 39.1167 424.6903)" opacity="0.2" fill="#58FFFE" enable-background="new    " cx="250.118" cy="191.109" rx="93.498" ry="39.399"/>
	
		<ellipse transform="matrix(0.0821 -0.9966 0.9966 0.0821 33.9317 418.1302)" opacity="0.5" fill="#58FFFE" enable-background="new    " cx="243.964" cy="190.644" rx="58.899" ry="20.9"/>
	<path fill="#58FFFE" d="M248.7,192.8c-1,12.6-5.5,22.4-9.9,22.1c-4.5-0.4-7.2-10.8-6.2-23.4c1-12.6,5.5-22.4,9.9-22.1
		C247,169.8,249.7,180.3,248.7,192.8z"/>
	<g>
		<polygon fill="#58FFFE" points="251.5,219.1 251.4,219 236,193.5 236.5,193.3 251.8,218.6 342.2,216.6 342.3,217.1 		"/>
	</g>
	<g>
		<path fill="#FFFFFF" d="M238.2,201.7l-5.4-7.6c-0.3-0.5-0.2-1.1,0.2-1.4c0.5-0.3,1.1-0.2,1.4,0.2l3.5,5l8.3-15.1
			c0.3-0.5,0.9-0.7,1.4-0.4s0.7,0.9,0.4,1.4L238.2,201.7z"/>
	</g>
	<g>
		<polygon fill="#58FFFE" points="244.5,174.2 244,173.9 249.8,164.3 249.9,164.3 345.6,148 345.7,148.5 250.1,164.8 		"/>
	</g>
	<g>
		<g>
			<g>
				<path fill="#58FFFE" d="M255.2,199.6c-0.1,0-0.3,0-0.4-0.1c-0.4-0.2-0.6-0.8-0.3-1.2l2.5-4.5l-2.2-4.7c-0.2-0.4,0-1,0.4-1.2
					s1,0,1.2,0.4l2.6,5.6l-3,5.3C255.8,199.4,255.5,199.6,255.2,199.6z"/>
			</g>
			<g opacity="0.5">
				<path fill="#58FFFE" d="M259.5,199.2c-0.1,0-0.3,0-0.4-0.1c-0.4-0.2-0.6-0.8-0.3-1.2l2.5-4.5l-2.2-4.7c-0.2-0.4,0-1,0.4-1.2
					s1,0,1.2,0.4l2.6,5.6l-3,5.3C260.1,199.1,259.8,199.2,259.5,199.2z"/>
			</g>
		</g>
		<g>
			<g opacity="0.2">
				<path fill="#58FFFE" d="M263.9,199.6c-0.1,0-0.3,0-0.4-0.1c-0.4-0.2-0.6-0.8-0.3-1.2l2.5-4.5l-2.2-4.7c-0.2-0.4,0-1,0.4-1.2
					s1,0,1.2,0.4l2.6,5.6l-3,5.3C264.5,199.4,264.2,199.6,263.9,199.6z"/>
			</g>
		</g>
	</g>
</g>
</svg>
