<?xml version="1.0" encoding="utf-8"?>
<!-- Generator: Adobe Illustrator 24.1.1, SVG Export Plug-In . SVG Version: 6.00 Build 0)  -->
<svg version="1.1" id="Capa_1" xmlns="http://www.w3.org/2000/svg" xmlns:xlink="http://www.w3.org/1999/xlink" x="0px" y="0px"
	 viewBox="0 0 454.8 400" enable-background="new 0 0 454.8 400" xml:space="preserve">
<g id="Capa_3">
	<g>
		<g>
			<path fill="#58FFFE" d="M291.5,346.7v-14.8l-40-12.9v11.3L291.5,346.7z M290.5,332.6v12.6l-38-15.6v-9.3L290.5,332.6z"/>
		</g>
		<g>
			<path fill="#58FFFE" d="M258.3,330.7c0.1,0,0.2,0,0.3-0.1c0.2-0.2,0.3-0.5,0.1-0.7l-3.1-4.5l3.4-1.6c0.3-0.1,0.4-0.4,0.2-0.7
				c-0.1-0.2-0.4-0.4-0.7-0.2l-4.4,2.1l3.8,5.5C258,330.7,258.1,330.7,258.3,330.7z"/>
		</g>
		<g>
			<path fill="#58FFFE" d="M262.9,332.9c0.1,0,0.2,0,0.3-0.1c0.2-0.1,0.3-0.5,0.2-0.7l-3-4.7l3.2-1.5c0.3-0.1,0.4-0.4,0.2-0.7
				c-0.1-0.3-0.4-0.4-0.7-0.3l-4.3,1.9l3.6,5.6C262.6,332.8,262.7,332.9,262.9,332.9z"/>
		</g>
	</g>
	<g>
		<g>
			<path fill="#A954B8" d="M350.2,323L303,309.5c-6.5-1.8-13.1,2-14.7,8.6l0,0c-1.4,5.8,1.7,11.7,7.3,13.8l50.8,19.1
				c6.3,2.4,13.2-1.2,14.9-7.7l0.1-0.5C363.7,334.3,358.7,325.5,350.2,323z"/>
			<path fill="#C09EE9" d="M348.8,324.1l-47.2-13.5c-6.5-1.8-13.1,2-14.7,8.6l0,0c-1.4,5.8,1.7,11.7,7.3,13.8l50.8,19.1
				c6.3,2.4,13.2-1.2,14.9-7.7l0.1-0.5C362.3,335.3,357.3,326.5,348.8,324.1z"/>
			
				<radialGradient id="SVGID_1_" cx="-510.9074" cy="250.2712" r="27.2895" gradientTransform="matrix(-1.0009 -0.2729 0.1613 -0.5915 -233.336 339.5588)" gradientUnits="userSpaceOnUse">
				<stop  offset="0" style="stop-color:#F94081"/>
				<stop  offset="1" style="stop-color:#000000"/>
			</radialGradient>
			<path opacity="0.1" fill="url(#SVGID_1_)" enable-background="new    " d="M291.1,323.5c-2.4,8.9,7.8,19.5,22.9,23.6
				s29.3,0.2,31.7-8.7c2.4-8.9-7.8-19.5-22.9-23.6C307.7,310.7,293.5,314.6,291.1,323.5z"/>
		</g>
	</g>
	<g>
		<polygon fill="#F73535" points="160.2,301.9 171.8,306.4 172.7,290.6 161.4,288.6 		"/>
		<g>
			<path fill="#FFFFFF" d="M162.9,300L162.9,300c0.3,0.5,0.8,0.7,1.1,0.4l6-5.5c0.3-0.3,0.4-1,0.1-1.5l0,0c-0.3-0.5-0.8-0.6-1.1-0.2
				l-6,5.5C162.6,298.9,162.6,299.5,162.9,300z"/>
			<path fill="#FFFFFF" d="M163.5,291.9L163.5,291.9c-0.3,0.3-0.4,0.9-0.1,1.4l5,8.6c0.3,0.5,0.8,0.7,1.1,0.4l0,0
				c0.3-0.3,0.4-1,0.1-1.5l-5-8.6C164.4,291.7,163.9,291.6,163.5,291.9z"/>
		</g>
	</g>
	<g>
		<path fill="#58FFFE" d="M316,367.6h0.1c0.1,0,0.1-0.1,0.1-0.2v-25.8h-0.5V367l-93.9-40v-25h-0.5v25.1c0,0.1,0.1,0.2,0.2,0.2
			L316,367.6C316,367.5,316,367.6,316,367.6z"/>
	</g>
	
		<radialGradient id="SVGID_2_" cx="254.25" cy="165.5256" r="93.4016" gradientTransform="matrix(1 0 0 -1 0 401.2756)" gradientUnits="userSpaceOnUse">
		<stop  offset="0" style="stop-color:#000000"/>
		<stop  offset="1" style="stop-color:#02B3C4"/>
	</radialGradient>
	<polygon opacity="0.4" fill="url(#SVGID_2_)" enable-background="new    " points="167.6,176.9 161.4,288.6 337.9,329.7 
		347.1,141.8 	"/>
	<polygon fill="#58FFFE" points="347.1,141.8 345.6,141.8 336.2,329.5 337.9,329.7 	"/>
	<polygon opacity="0.5" fill="#58FFFE" points="276.7,160.1 274,204 337.7,200.6 339.4,147.5 	"/>
	<g>
		<polygon fill="#58FFFE" points="342.6,231.7 165.6,227.3 165.6,226.8 342.6,231.2 		"/>
	</g>
	<g>
		<polygon fill="#58FFFE" points="338.3,293 162.1,268.2 162.2,267.8 338.4,292.5 		"/>
	</g>
</g>
</svg>
