<?xml version="1.0" encoding="utf-8"?>
<!-- Generator: Adobe Illustrator 24.1.1, SVG Export Plug-In . SVG Version: 6.00 Build 0)  -->
<svg version="1.1" id="Capa_1" xmlns="http://www.w3.org/2000/svg" xmlns:xlink="http://www.w3.org/1999/xlink" x="0px" y="0px"
	 viewBox="0 0 454.8 400" enable-background="new 0 0 454.8 400" xml:space="preserve">
<g id="Capa_6">
	<g>
		
			<linearGradient id="SVGID_1_" gradientUnits="userSpaceOnUse" x1="73.55" y1="88.2964" x2="73.55" y2="105.9964" gradientTransform="matrix(1 0 0 -1 0 401.2756)">
			<stop  offset="0" style="stop-color:#0B0F27"/>
			<stop  offset="1" style="stop-color:#85DEDA"/>
		</linearGradient>
		<path fill="url(#SVGID_1_)" d="M59.7,295.3c0,0,1.6,17.7,9.3,17.7s18.4-14.6,18.4-14.6L59.7,295.3z"/>
		
			<linearGradient id="SVGID_2_" gradientUnits="userSpaceOnUse" x1="81.1889" y1="97.0958" x2="82.1543" y2="152.4015" gradientTransform="matrix(1 0 0 -1 0 401.2756)">
			<stop  offset="0" style="stop-color:#9AABCF"/>
			<stop  offset="1" style="stop-color:#F2F1F7"/>
		</linearGradient>
		<path fill="url(#SVGID_2_)" d="M112.7,283.9l-0.3,0.9c-3.8,9.3-33,21.4-42.5,18.9c-9.4-2.5-15.4-12.5-18.3-22.3
			c-2.5-8.6-1.7-19.6,1.4-22.8c3.1-3.1,12.6-10.6,28.6-9.7c15.7,1,20.6,7.4,25.5,12.2C112.7,266.7,114.3,278.4,112.7,283.9z"/>
		<path fill="#DEE5F1" d="M112.7,283.9l-0.3,0.9c0,0-23.9,11.7-43,1.5C52,276.9,53,258.6,53,258.6c3.1-3.1,12.6-10.6,28.6-9.7
			c15.7,1,20.6,7.4,25.5,12.2C112.7,266.7,114.3,278.4,112.7,283.9z"/>
		<path fill="#9C85C2" d="M197.2,207.3c0,0,6.9,0.9,15.1,6.4c0,0,3.2-5.6,2.8-7.7c-0.4-2.1-12.3-7-12.3-7l-8.4,4.3L197.2,207.3z"/>
		<ellipse fill="#1B4FDB" cx="80" cy="254.3" rx="14.4" ry="3.7"/>
		<path fill="#6DFFE5" d="M91.1,255.1c0,1.6-5.1,2.9-11.5,2.9c-6.3,0-11.5-1.3-11.5-2.9c0-1.6,5.1-2.9,11.5-2.9
			C86,252.1,91.1,253.4,91.1,255.1z"/>
		<path fill="#DEE5F1" d="M132.1,224.1c0,0-7.1-2.2-7.7-5.2s7.1-6.3,7.1-6.3L132.1,224.1z"/>
		<path fill="#DEE5F1" d="M43.3,228l-8.6-3.4l-1.5-0.6l0,0c0.2-0.3,3.5-5.1,7.3-4C44.4,221.1,43.3,228,43.3,228z"/>
		<path fill="#646DA4" d="M108.8,144.4c-5.7,0-14.6-10.1-14.6-22.1c0-8.3,6.1-12.9,10.9-12.9s9.5,10.5,9.5,21.3
			C114.6,141.4,111,144.4,108.8,144.4z"/>
		
			<linearGradient id="SVGID_3_" gradientUnits="userSpaceOnUse" x1="84.6895" y1="221.6072" x2="85.8911" y2="290.4463" gradientTransform="matrix(1 0 0 -1 0 401.2756)">
			<stop  offset="0" style="stop-color:#9AABCF"/>
			<stop  offset="1" style="stop-color:#F2F1F7"/>
		</linearGradient>
		<path fill="url(#SVGID_3_)" d="M125.5,152.6c0,0-0.2,10.2-1.7,14.2c-0.2,0.5-0.4,1-0.7,1.2c-2.2,2.2-15.1,11.7-35.9,11.7
			s-36.8-8.1-38.5-11.5c-0.5-1-0.9-2-1.3-3c-6.7-18.2,1.1-42.3,9.9-48.8c5.5-4,31.8-10.8,47.5,0.9c16.6,12.4,17.9,34.3,17.9,34.3
			L125.5,152.6z"/>
		
			<linearGradient id="SVGID_4_" gradientUnits="userSpaceOnUse" x1="83.25" y1="144.5464" x2="83.25" y2="162.2464" gradientTransform="matrix(1 0 0 -1 0 401.2756)">
			<stop  offset="0" style="stop-color:#0B0F27"/>
			<stop  offset="1" style="stop-color:#85DEDA"/>
		</linearGradient>
		<path fill="url(#SVGID_4_)" d="M69.4,239c0,0,1.6,17.7,9.3,17.7s18.4-14.6,18.4-14.6L69.4,239z"/>
		
			<linearGradient id="SVGID_5_" gradientUnits="userSpaceOnUse" x1="87.2781" y1="155.6837" x2="88.3863" y2="219.1727" gradientTransform="matrix(1 0 0 -1 0 401.2756)">
			<stop  offset="0" style="stop-color:#9AABCF"/>
			<stop  offset="1" style="stop-color:#F2F1F7"/>
		</linearGradient>
		<path fill="url(#SVGID_5_)" d="M121.4,210.5c0,2.3-0.4,12.4-9.7,21.7c-8,8-19.6,13.3-29.6,13.3c-8.2,0-18-10.2-22.8-21.1l0,0
			c-0.4-1-0.8-2-1.2-3c-4.2-12-4.6-24.2-1.7-27.9c0.8-1.1,1.7-2,2.7-2.9c1.5-1.4,3.1-2.5,4.8-3.5c16-9.1,41.5-3.7,45.2-0.4
			c0.4,0.4,0.8,0.8,1.2,1.2c5.9,6.3,10.4,18.3,11.1,21.9C121.4,210,121.4,210.3,121.4,210.5z"/>
		<path fill="#878BC4" d="M123.8,166.8c-0.2,0.5-0.4,1-0.7,1.2c-2.2,2.2-15.1,11.7-35.9,11.7s-36.8-8.1-38.5-11.5
			c-0.5-1-0.9-2-1.3-3c0,0,6,3.9,14,3.2C69.4,167.6,101.2,158.7,123.8,166.8z"/>
		<path fill="#1B4FDB" d="M105.5,174.1c0,2.1-7.6,3.8-17,3.8s-17-1.7-17-3.8s7.6-3.8,17-3.8S105.5,172,105.5,174.1z"/>
		<ellipse fill="#85DEDA" cx="87.7" cy="173.7" rx="13.8" ry="3.1"/>
		
			<linearGradient id="SVGID_6_" gradientUnits="userSpaceOnUse" x1="87.6" y1="215.1756" x2="87.6" y2="230.651" gradientTransform="matrix(1 0 0 -1 0 401.2756)">
			<stop  offset="0" style="stop-color:#0B0F27"/>
			<stop  offset="1" style="stop-color:#85DEDA"/>
		</linearGradient>
		<path fill="url(#SVGID_6_)" d="M73.8,173.7c0,0,5.1,12.4,13.8,12.4c8.8,0,13.8-12.4,13.8-12.4C98.4,169.7,76.3,169.5,73.8,173.7z"
			/>
		<path fill="#DEE5F1" d="M121.4,210.5c-4.3,4.3-28.2,7-38.4,1.5s-19.1-24.9-19.1-24.9c16-9.1,41.5-3.7,45.2-0.4
			c6.5,5.9,11.5,19.2,12.3,23.1L121.4,210.5z"/>
		<path fill="#646DA4" d="M50.2,142c6.3,0,16.1-11.2,16.1-24.3c0-9.2-6.7-14.2-12-14.2S43.8,115,43.8,126.9
			C43.8,138.7,47.7,142,50.2,142z"/>
		<path fill="#1B4BBF" d="M60.3,122.2c-0.4,5.3-2.3,10.6-4.6,14c-1.8,2.6-3.8,4.2-5.7,4c-4.4-0.3-5.5-12.6-5-19.1
			c0.6-7.5,4.5-17.1,9.1-17.1c2.5,0,4.6,3.5,5.7,8.4C60.3,115.4,60.6,118.8,60.3,122.2z"/>
		<path fill="#7CFFBF" d="M60.3,122.2c-0.4,5.3-2.3,10.6-4.6,14c-2.7-2.3-3.3-8.7-2.9-12.3c0.5-4.4,3.4-9.8,7-11.4
			C60.3,115.4,60.6,118.8,60.3,122.2z"/>
		
			<linearGradient id="SVGID_7_" gradientUnits="userSpaceOnUse" x1="25.2763" y1="120.9169" x2="26.2873" y2="178.8404" gradientTransform="matrix(1 0 0 -1 0 401.2756)">
			<stop  offset="0" style="stop-color:#9AABCF"/>
			<stop  offset="1" style="stop-color:#F2F1F7"/>
		</linearGradient>
		<path fill="url(#SVGID_7_)" d="M39.1,280.6L6,277.8c0.4-3.3,1-6.7,1.8-9.9l0,0c4.9-20.5,17.1-38.6,25.5-43.8l0,0
			c2.2-1.4,4.1-1.8,5.5-1.2c2,0.9,3.5,2.7,4.5,5.1C49.5,242.7,39.1,280.6,39.1,280.6z"/>
		<path fill="#646DA4" d="M6,277.8c-2.3,5.5,4.2,9.1,14.4,10.1s17.8-3.5,18.7-7.3c1-3.7-6.3-9.7-16.6-9.7S7.4,274.5,6,277.8z"/>
		
			<linearGradient id="SVGID_8_" gradientUnits="userSpaceOnUse" x1="1.8569" y1="-21.1745" x2="2.8149" y2="33.7128" gradientTransform="matrix(0.5585 -0.8295 -0.8295 -0.5585 166.0946 219.9925)">
			<stop  offset="0" style="stop-color:#9AABCF"/>
			<stop  offset="1" style="stop-color:#F2F1F7"/>
		</linearGradient>
		<path fill="url(#SVGID_8_)" d="M181.1,197.1l4,32.6c-32.8,6.4-57.9-4.8-58-11.3c0-0.3,0-0.5,0.1-0.7
			C132.5,200.5,179.5,197.2,181.1,197.1L181.1,197.1z"/>
		<path fill="#FFFFFF" d="M181.1,197.1c-8,0.8-2.3,31.5,4,32.6C191.4,230.8,188.4,196.4,181.1,197.1z"/>
		<path fill="#646DA4" d="M59.3,224.4L59.3,224.4l-4.2-7.1c0,0-6.6-14.5,0.6-25.8l0,0c0,0,3.1-2.9,8.2-4.4c0,0,0.3,0.7,0.7,1.8
			C66.6,194.3,70.8,210.3,59.3,224.4z"/>
		<path fill="#1B4FDB" d="M59,215.5L59,215.5c-1.1,1.5-2.4,2-3.2,1.7c-1.9-0.7-6.9-18,0-25.7c0,0,0.5,0.4,1.2,1.3
			c1.2,1.6,2.9,5.1,3.7,11.5C61.4,209.9,60.4,213.5,59,215.5z"/>
		<path fill="#85DEDA" d="M59,215.5L59,215.5c-0.8-0.8-2.6-2.8-3.3-7.5c-1.2-7.6,1.2-15.2,1.2-15.2c1.2,1.6,2.9,5.1,3.7,11.5
			C61.4,209.9,60.4,213.5,59,215.5z"/>
		
			<linearGradient id="SVGID_9_" gradientUnits="userSpaceOnUse" x1="42.4839" y1="184.8532" x2="62.9784" y2="199.7435" gradientTransform="matrix(1 0 0 -1 0 401.2756)">
			<stop  offset="0" style="stop-color:#0B0F27"/>
			<stop  offset="1" style="stop-color:#85DEDA"/>
		</linearGradient>
		<path fill="url(#SVGID_9_)" d="M58.2,194.9c0,0-15.8,16.3-14.7,22.4c1.1,6.1,16.5-3.5,16.5-3.5S62,208.1,58.2,194.9z"/>
		
			<linearGradient id="SVGID_10_" gradientUnits="userSpaceOnUse" x1="48.8446" y1="189.4746" x2="62.9533" y2="199.7252" gradientTransform="matrix(1 0 0 -1 0 401.2756)">
			<stop  offset="0" style="stop-color:#0B0F27"/>
			<stop  offset="1" style="stop-color:#85DEDA"/>
		</linearGradient>
		<path fill="url(#SVGID_10_)" d="M58.2,194.9c0,0-9.3,11.5-8.2,17.6s10,1.3,10,1.3S62,208.1,58.2,194.9z"/>
		<path fill="#5B5B82" d="M10.7,277.1c0,0,12.4-5.3,19.9-1.5l3.3,6.8L31,293.7c0,0-13.3,5.5-25,1.2l-0.5-6.3
			C5.6,288.6,7.4,282.2,10.7,277.1z"/>
		<path fill="#A49BC7" d="M32.8,301.6c0,0,3.7,2.4,8.2,0.7c0,0,1.2-14.3-7.9-21.6c0,0-3,1.8-2.6,7.4C31,293.7,32.8,297.1,32.8,301.6
			z"/>
		<path fill="#A49BC7" d="M6,290.5c0,0-1.7,10.9-0.5,14.3c1.3,3.4,11.4,4.8,11.4,4.8l-5.2-19.8C11.7,289.8,9.2,288.6,6,290.5z"/>
		<path fill="#A49BC7" d="M11,288.9c0,0-2.6,8.7,0,14c2.6,5.2,7.1,8.3,7.1,8.3s5.2-1.2,5.9-4.1S18.9,289,18.9,289H11V288.9z"/>
		<path fill="#AEB8D2" d="M28.8,286.7c-0.7-1.8-7.6-2.1-9.5,1.2c-1.8,3.3-1.1,16.8-0.7,17.2c0.5,0.5,5.7,3.6,9.3,2
			c3.5-1.6,4-6.1,3.5-8C30.8,297.3,29.3,288.3,28.8,286.7z"/>
		<path fill="#FFFFFF" d="M18.6,305.1c-0.3-1.5,6.2-7.3,12.8-5.5c0,0,1.7,6-4.2,7.9S18.6,305.1,18.6,305.1z"/>
		<path fill="#5B5B82" d="M183.2,221.2c0,0-6.6-11.2-0.7-20c0,0,5.8-3.4,13.8-3.9c0,0,2.2,4.2,3.1,8.9c0.9,4.8-1.9,14.7-1.9,14.7
			S189.3,222.4,183.2,221.2z"/>
		<path fill="#A49BC7" d="M183.2,216.8c-0.9,3.7,9.9,7.5,22.3,1.9c0,0,3.5-4.4,0-8.5C205.5,210.2,185.5,207,183.2,216.8z"/>
		<path fill="#A49BC7" d="M198.9,203.8c0,0,10.5-0.6,17.4,0.3c0,0,4.6-5.6,0.7-10c0,0-12.2-0.8-20.6,3.1L198.9,203.8z"/>
		<path fill="#0B1E7D" d="M114.6,127.8c0,0-16.2-10.1-39.4,0c0,0-9,5.9-9,17.5c0,0,12,1.8,19.4-1.4c0,0,6.5-9.5,17.6-9.5
			c11,0,14.8,10.9,14.8,10.9l4.5,2.1C122.5,147.3,119.4,132.6,114.6,127.8z"/>
		<path fill="#646DA4" d="M122.8,151.6c-25.7-10.3-70.1,7-70.1,7c-6.2-3.6-4.9-18.3-4.9-18.3c0,10.4,5.9,16.2,5.9,16.2
			C99.2,137.7,122.8,151.6,122.8,151.6z"/>
		<path fill="#DEE5F1" d="M122.8,151.6c-25.7-10.3-70.1,7-70.1,7l1-2.1C99.2,137.7,122.8,151.6,122.8,151.6z"/>
		<path fill="#DEE5F1" d="M40.5,220l-1.7,2.9c-1.3,0.3-2.7,0.9-4.1,1.8c-13.9,8.7-27,43.2-27,43.2l0,0c4.9-20.5,17.1-38.6,25.5-43.8
			l0,0C33.4,223.8,36.8,218.9,40.5,220z"/>
		<path fill="#DEE5F1" d="M181,197.1c-42.7,5-51.7,19.2-53.9,21.3c0-0.3,0-0.5,0.1-0.7C132.5,200.5,179.5,197.2,181,197.1z"/>
		<path fill="#FFFFFF" d="M65.6,113l0.5,2.6c0,0,23.5-7.8,38.8,1.7C104.9,117.3,93.1,106.1,65.6,113z"/>
		<path fill="#85DEDA" d="M74.5,133.3l18-1.8c0,0-4.2,7.2-10.8,7.2C75,138.6,74.5,133.3,74.5,133.3z"/>
		
			<radialGradient id="SVGID_11_" cx="465.0256" cy="424.1184" r="9.7136" gradientTransform="matrix(-0.0475 -0.7864 -1.4116 0.0853 704.0223 464.2355)" gradientUnits="userSpaceOnUse">
			<stop  offset="0" style="stop-color:#0268FF"/>
			<stop  offset="0.1563" style="stop-color:#024FC2"/>
			<stop  offset="0.3242" style="stop-color:#013788"/>
			<stop  offset="0.4868" style="stop-color:#012457"/>
			<stop  offset="0.6396" style="stop-color:#001431"/>
			<stop  offset="0.7804" style="stop-color:#000916"/>
			<stop  offset="0.9049" style="stop-color:#000206"/>
			<stop  offset="1" style="stop-color:#000000"/>
		</radialGradient>
		<path fill="url(#SVGID_11_)" d="M82.8,127.1c7.6-0.5,13.9,2.6,14.2,6.8c0.3,4.2-5.7,8-13.3,8.5c-7.6,0.5-13.9-2.6-14.2-6.8
			C69.3,131.3,75.2,127.5,82.8,127.1z"/>
		<path fill="#85DEDA" d="M111.2,131.8c0,0,5.6,1.1,7.4,2.6c0,0,2.1,4.2-0.5,4C115,138.3,111.2,131.8,111.2,131.8z"/>
		
			<radialGradient id="SVGID_12_" cx="673.0468" cy="382.0142" r="8.7666" gradientTransform="matrix(0.3262 -0.7172 -1.2873 -0.5855 387.4756 840.7639)" gradientUnits="userSpaceOnUse">
			<stop  offset="0" style="stop-color:#0268FF"/>
			<stop  offset="0.1563" style="stop-color:#024FC2"/>
			<stop  offset="0.3242" style="stop-color:#013788"/>
			<stop  offset="0.4868" style="stop-color:#012457"/>
			<stop  offset="0.6396" style="stop-color:#001431"/>
			<stop  offset="0.7804" style="stop-color:#000916"/>
			<stop  offset="0.9049" style="stop-color:#000206"/>
			<stop  offset="1" style="stop-color:#000000"/>
		</radialGradient>
		<path fill="url(#SVGID_12_)" d="M118.1,128.1c6.2,2.8,10,7.9,8.4,11.4c-1.6,3.5-7.9,4-14.1,1.2s-10-7.9-8.4-11.4
			S111.9,125.3,118.1,128.1z"/>
		<path fill="#FFFFFF" d="M196.4,197.3c0,0,14.4-3.2,19.8-1.8c0,0,3,3.2,0.1,8.7c0,0,6.1-4.7,0.7-10
			C217,194.1,206.8,192.3,196.4,197.3z"/>
		<path fill="#FFFFFF" d="M204.7,210.1c0,0,1.6,4.7,0.7,8.6c0,0,3.4-4.4,1-8.5L204.7,210.1z"/>
	</g>
</g>
</svg>
