<?xml version="1.0" encoding="utf-8"?>
<!-- Generator: Adobe Illustrator 24.1.1, SVG Export Plug-In . SVG Version: 6.00 Build 0)  -->
<svg version="1.1" id="Capa_1" xmlns="http://www.w3.org/2000/svg" xmlns:xlink="http://www.w3.org/1999/xlink" x="0px" y="0px"
	 viewBox="0 0 454.8 400" enable-background="new 0 0 454.8 400" xml:space="preserve">
<g id="Capa_5">
	<g>
		
			<radialGradient id="SVGID_1_" cx="-710.1848" cy="314.0256" r="60.3801" gradientTransform="matrix(-1 0 0 -1 -409.6348 401.2756)" gradientUnits="userSpaceOnUse">
			<stop  offset="0" style="stop-color:#000000"/>
			<stop  offset="1" style="stop-color:#02B3C4"/>
		</radialGradient>
		<polygon opacity="0.4" fill="url(#SVGID_1_)" enable-background="new    " points="352,19.1 254.8,74.3 249.1,155.4 333.9,138.7 
			345.2,137.1 		"/>
		<polygon opacity="0.5" fill="#58FFFE" enable-background="new    " points="348.1,23.5 347.3,40.5 256,84.8 257,74.3 		"/>
		<polygon fill="#58FFFE" points="352,19.1 353.3,20 346.5,136.7 345.2,137.1 		"/>
	</g>
	<polygon fill="#6FCEF6" points="262.6,69.9 263.5,59.6 306.6,33 306.1,44.5 	"/>
	<g>
		<polygon fill="#FFFFFF" points="312.8,50.2 258.7,78.3 258.8,76.7 312.9,48.3 		"/>
		<polygon fill="#FFFFFF" points="316.1,55.5 262.1,82.1 262.2,80.5 316.2,53.6 		"/>
		<polygon fill="#FFFFFF" points="342.5,34.8 314.1,49.6 314.2,47.6 342.6,32.7 		"/>
		<polygon fill="#FFFFFF" points="345.5,33.3 343.7,34.2 343.8,32.1 345.6,31.1 		"/>
		<polygon fill="#FFFFFF" points="345,41.3 339.7,43.9 339.8,41.8 345.2,39.1 		"/>
		<polygon fill="#FFFFFF" points="259.7,83.3 257.8,84.2 257.9,82.6 259.8,81.7 		"/>
		<polygon fill="#FFFFFF" points="338.5,44.5 318.4,54.4 318.5,52.4 338.7,42.4 		"/>
		<polygon fill="#FFFFFF" points="293.9,72.9 258,89.6 258.1,88 294,71.1 		"/>
		<polygon fill="#FFFFFF" points="315.3,69.9 261.4,93.6 261.5,92 315.4,68 		"/>
		<polygon fill="#FFFFFF" points="294.6,85.5 256.7,101.1 256.8,99.5 294.7,83.7 		"/>
		<polygon fill="#FFFFFF" points="343.3,65.5 305.4,81 305.5,79.2 343.4,63.3 		"/>
		<polygon fill="#FFFFFF" points="341.7,50.7 313.3,63.8 313.4,61.9 341.8,48.5 		"/>
		<polygon fill="#FFFFFF" points="344.6,49.3 342.8,50.1 342.9,48 344.7,47.1 		"/>
		<polygon fill="#FFFFFF" points="344.2,57.3 338.9,59.6 339,57.5 344.3,55.1 		"/>
		<polygon fill="#FFFFFF" points="258.9,94.6 257.1,95.4 257.2,93.9 259,93.1 		"/>
		<polygon fill="#FFFFFF" points="337.7,60.1 324.5,65.9 324.6,63.9 337.8,58 		"/>
		<polygon fill="#FFFFFF" points="310.7,85.8 256.9,106.5 257,105 310.9,83.9 		"/>
		<polygon fill="#FFFFFF" points="314.1,91.6 260.3,110.8 260.4,109.2 314.2,89.6 		"/>
		<polygon fill="#FFFFFF" points="340.4,74.4 312.1,85.3 312.2,83.3 340.5,72.3 		"/>
		<polygon fill="#FFFFFF" points="343.3,73.3 341.5,74 341.6,71.8 343.4,71.1 		"/>
		<polygon fill="#FFFFFF" points="342.9,81.3 337.6,83.2 337.7,81 343,79.1 		"/>
		<polygon fill="#FFFFFF" points="257.8,111.7 256,112.3 256.1,110.8 257.9,110.1 		"/>
		<polygon fill="#FFFFFF" points="336.4,83.6 316.4,90.7 316.5,88.8 336.5,81.5 		"/>
		<polygon fill="#FFFFFF" points="309.9,100 256.2,117.8 256.3,116.2 310,98.1 		"/>
		<polygon fill="#FFFFFF" points="313.2,106 259.5,122.3 259.6,120.7 313.4,104 		"/>
		<polygon fill="#FFFFFF" points="292.6,118.8 254.9,129.2 255,127.7 292.8,117 		"/>
		<polygon fill="#FFFFFF" points="341.1,105.4 303.4,115.8 303.5,113.9 341.3,103.2 		"/>
		<polygon fill="#FFFFFF" points="339.5,90.2 311.2,99.6 311.3,97.6 339.6,88.1 		"/>
		<polygon fill="#FFFFFF" points="342.4,89.3 340.6,89.9 340.7,87.7 342.6,87.1 		"/>
		<polygon fill="#FFFFFF" points="342,97.3 336.7,98.9 336.8,96.7 342.1,95.1 		"/>
		<polygon fill="#FFFFFF" points="257.1,123 255.3,123.6 255.4,122.1 257.2,121.5 		"/>
		<polygon fill="#FFFFFF" points="335.5,99.2 315.5,105.3 315.6,103.3 335.7,97.1 		"/>
	</g>
</g>
</svg>
