<?xml version="1.0" encoding="utf-8"?>
<!-- Generator: Adobe Illustrator 24.1.1, SVG Export Plug-In . SVG Version: 6.00 Build 0)  -->
<svg version="1.1" id="Capa_2" xmlns="http://www.w3.org/2000/svg" xmlns:xlink="http://www.w3.org/1999/xlink" x="0px" y="0px"
	 viewBox="0 0 102.653 105.505" enable-background="new 0 0 102.653 105.505" xml:space="preserve">
<path fill="#F50B16" d="M56.911,32.881c-3.084,0-5.584,2.5-5.584,5.584c0,0.868,0.204,1.686,0.557,2.419l-0.011-0.009l-5.831,6.065
	c-0.757-0.383-1.61-0.604-2.517-0.604c-1.655,0-3.136,0.724-4.159,1.867l-5.496-2.81c-0.012-3.073-2.507-5.562-5.583-5.562
	c-3.084,0-5.584,2.5-5.584,5.584c0,0.981,0.255,1.902,0.699,2.703l-4.093,5.081c-0.673-0.287-1.413-0.447-2.19-0.447
	c-3.084,0-5.584,2.5-5.584,5.584s2.5,5.584,5.584,5.584s5.584-2.5,5.584-5.584c0-1.003-0.268-1.942-0.731-2.755l4.09-5.045
	C26.745,50.833,27.496,51,28.287,51c1.805,0,3.405-0.86,4.426-2.189l5.248,2.705c-0.01,0.134-0.02,0.268-0.02,0.405
	c0,3.084,2.5,5.584,5.584,5.584s5.584-2.5,5.584-5.584c0-0.772-0.157-1.508-0.44-2.176l6.003-6.165
	c0.686,0.301,1.442,0.47,2.239,0.47c3.084,0,5.584-2.5,5.584-5.584S59.995,32.881,56.911,32.881z M17.119,61.366
	c-1.673,0-3.03-1.356-3.03-3.03c0-1.673,1.356-3.03,3.03-3.03c1.673,0,3.03,1.356,3.03,3.03
	C20.148,60.01,18.792,61.366,17.119,61.366z M28.287,48.446c-1.673,0-3.03-1.356-3.03-3.03c0-1.673,1.356-3.03,3.03-3.03
	c1.673,0,3.03,1.356,3.03,3.03C31.317,47.089,29.96,48.446,28.287,48.446z M43.525,54.95c-1.673,0-3.03-1.356-3.03-3.03
	c0-1.673,1.356-3.03,3.03-3.03c1.673,0,3.03,1.356,3.03,3.03C46.554,53.594,45.198,54.95,43.525,54.95z M56.911,41.495
	c-1.673,0-3.03-1.356-3.03-3.03c0-1.673,1.356-3.03,3.03-3.03c1.673,0,3.03,1.356,3.03,3.03
	C59.94,40.139,58.584,41.495,56.911,41.495z"/>
<path fill="#303030" d="M90.912,49.606H71.018c-1.076,0-1.949-0.873-1.949-1.949v-0.165c0-1.076,0.873-1.949,1.949-1.949h19.894
	c1.076,0,1.949,0.873,1.949,1.949v0.165C92.861,48.733,91.989,49.606,90.912,49.606z"/>
<path fill="#303030" d="M90.83,56.815H65.086c-1.122,0-2.031-0.91-2.031-2.031v0c0-1.122,0.91-2.031,2.031-2.031H90.83
	c1.122,0,2.031,0.91,2.031,2.031v0C92.861,55.906,91.952,56.815,90.83,56.815z"/>
<path fill="#303030" d="M90.83,63.84H59.249c-1.122,0-2.031-0.91-2.031-2.031v0c0-1.122,0.91-2.031,2.031-2.031H90.83
	c1.122,0,2.031,0.91,2.031,2.031v0C92.861,62.93,91.952,63.84,90.83,63.84z"/>
<path fill="#303030" d="M88.66,22.352H73.271c-2.321,0-4.202,1.537-4.202,3.432v13.282c0,1.895,1.881,3.432,4.202,3.432H88.66
	c2.321,0,4.202-1.537,4.202-3.432V25.784C92.861,23.889,90.98,22.352,88.66,22.352z M89.969,38.559c0,0.951-0.943,1.721-2.107,1.721
	H74.26c-1.164,0-2.107-0.771-2.107-1.721V26.292c0-0.951,0.943-1.721,2.107-1.721h13.602c1.164,0,2.107,0.771,2.107,1.721V38.559z"
	/>
<path fill="#F50B16" d="M38.605,4.908c-8.634,0-15.633,6.999-15.633,15.633s6.999,15.633,15.633,15.633s15.633-6.999,15.633-15.633
	S47.238,4.908,38.605,4.908z M51.005,19.078h-4.897c-0.594-3.065-3.017-5.473-6.088-6.048V8.45
	C45.676,9.085,50.182,13.48,51.005,19.078z M38.605,25.811c-2.911,0-5.271-2.36-5.271-5.271c0-2.911,2.36-5.271,5.271-5.271
	c2.911,0,5.271,2.36,5.271,5.271C43.875,23.451,41.516,25.811,38.605,25.811z M37.168,13.093c-0.737,0.216-2.915,1.519-3.541,1.932
	l-3.499-3.463c2.079-2.05,3.52-3.113,7.04-3.113V13.093z M26.055,20.914c0-2.831,0.949-5.434,2.53-7.534l3.378,3.378
	c-0.637,1.116-1.006,2.405-1.006,3.782c0,3.678,2.597,6.747,6.057,7.479v5.333C30.836,32.569,26.055,27.305,26.055,20.914z
	 M40.579,33.294v-5.373c2.788-0.745,4.951-3.018,5.522-5.873h4.996C50.582,27.789,46.203,32.403,40.579,33.294z"/>
<circle fill="#303030" cx="52.178" cy="75.959" r="2.05"/>
<circle fill="#303030" cx="61.005" cy="75.959" r="2.05"/>
<circle fill="#303030" cx="43.228" cy="75.959" r="2.05"/>
<path fill="#303030" d="M91.145,14.794H58.327c0,0-1.21-0.098-1.199,1.529c0.011,1.652,1.037,1.692,1.037,1.692H90.59
	c3.375,0,6.111,2.736,6.111,6.111V67.85H6.459V24.126c0-3.375,2.736-6.111,6.111-6.111h6.66c0,0,1.126-0.363,1.111-1.581
	c-0.015-1.218-1.299-1.64-1.299-1.64h-7.026c-4.954,0-8.97,4.016-8.97,8.97v51.683c0,4.954,4.016,8.97,8.97,8.97h30.4
	c0.318,1.05,0.555,2.8-0.181,5.115c0,0-3.505,6.475-7.247,8.198h-3.7c-1.083,0-1.96,0.878-1.96,1.96c0,1.083,0.878,1.96,1.96,1.96
	h41.347c1.083,0,1.96-0.878,1.96-1.96c0-1.083-0.878-1.96-1.96-1.96h-3.446c-3.743-1.723-7.247-8.198-7.247-8.198
	c-0.737-2.315-0.499-4.065-0.182-5.115h29.386c4.954,0,8.97-4.016,8.97-8.97V23.764C100.115,18.81,96.099,14.794,91.145,14.794z
	 M63.054,97.731H41.12c0,0,7.173-6.128,5.036-13.313h11.862C55.882,91.603,63.054,97.731,63.054,97.731z M96.702,75.086
	c0,3.375-2.736,6.111-6.111,6.111H12.571c-3.375,0-6.111-2.736-6.111-6.111v-3.79h90.242V75.086z"/>
</svg>
