<?xml version="1.0" encoding="utf-8"?>
<!-- Generator: Adobe Illustrator 24.1.1, SVG Export Plug-In . SVG Version: 6.00 Build 0)  -->
<svg version="1.1" id="Capa_1" xmlns="http://www.w3.org/2000/svg" xmlns:xlink="http://www.w3.org/1999/xlink" x="0px" y="0px"
	 viewBox="0 0 454.8 400" enable-background="new 0 0 454.8 400" xml:space="preserve">
<g id="Capa_4">
	<g>
		
			<radialGradient id="SVGID_1_" cx="-613.8348" cy="278.6756" r="42.1014" gradientTransform="matrix(-1 0 0 -1 -409.6348 401.2756)" gradientUnits="userSpaceOnUse">
			<stop  offset="0" style="stop-color:#000000"/>
			<stop  offset="1" style="stop-color:#02B3C4"/>
		</radialGradient>
		<polygon opacity="0.4" fill="url(#SVGID_1_)" enable-background="new    " points="240.1,75.1 172.3,113.6 168.3,170.1 
			227.4,158.5 235.3,157.3 		"/>
		<polygon opacity="0.5" fill="#58FFFE" enable-background="new    " points="237.3,78.2 236.8,90 173.2,120.9 173.8,113.6 		"/>
		<polygon fill="#58FFFE" points="240.1,75.1 241,75.7 236.2,157.1 235.3,157.3 		"/>
	</g>
	<g>
		<polygon fill="#F73535" points="167.6,111.7 178.3,106 179.1,91.5 168,100.2 		"/>
		<g>
			<path fill="#FFFFFF" d="M169.9,107.9L169.9,107.9c0.3,0.2,0.8-0.1,1.1-0.6l5.5-9.7c0.3-0.6,0.3-1.2,0.1-1.4l0,0
				c-0.3-0.2-0.8,0.2-1.1,0.8l-5.5,9.7C169.7,107.3,169.7,107.8,169.9,107.9z"/>
			<path fill="#FFFFFF" d="M170.2,100.9L170.2,100.9c-0.3,0.5-0.3,1.1-0.1,1.2l5,2.8c0.3,0.2,0.8-0.1,1.1-0.6l0,0
				c0.3-0.6,0.3-1.2,0.1-1.4l-5-2.8C171,100,170.6,100.4,170.2,100.9z"/>
		</g>
	</g>
	<g>
		<polygon fill="#58FFFE" points="179,165.1 182.4,160.7 181.6,160.1 179,163.5 173.7,157.7 172.9,158.3 		"/>
	</g>
	<g>
		<path fill="#58FFFE" d="M147.9,209.2L147.9,209.2l29.8-4.6l-0.1-0.5l-29.5,4.6l5.4-79.2l18.1-7.5l-0.2-0.5l-18.2,7.6
			c-0.1,0-0.1,0.1-0.2,0.2l-5.5,79.7c0,0.1,0,0.2,0.1,0.2C147.8,209.2,147.9,209.2,147.9,209.2z"/>
	</g>
	<path fill="#58FFFE" d="M171,121.2c0,1,0.4,1.7,0.9,1.7s0.9-0.8,0.9-1.7c0-1-0.4-1.7-0.9-1.7S171,120.3,171,121.2z"/>
	<g>
		<polygon fill="#FFFFFF" points="212.8,98.5 176.4,117.4 176.4,116.3 212.9,97.2 		"/>
		<polygon fill="#FFFFFF" points="215.1,102 178.6,119.9 178.7,118.9 215.1,100.7 		"/>
		<polygon fill="#FFFFFF" points="232.9,88.1 213.7,98 213.8,96.7 233,86.6 		"/>
		<polygon fill="#FFFFFF" points="234.9,87 233.6,87.7 233.7,86.2 235,85.6 		"/>
		<polygon fill="#FFFFFF" points="234.6,92.4 231,94.2 231.1,92.8 234.7,91 		"/>
		<polygon fill="#FFFFFF" points="177,120.8 175.8,121.4 175.8,120.3 177,119.7 		"/>
		<polygon fill="#FFFFFF" points="230.2,94.6 216.6,101.3 216.7,99.9 230.3,93.2 		"/>
		<polygon fill="#FFFFFF" points="200.1,113.7 175.9,125 175.9,124 200.1,112.5 		"/>
		<polygon fill="#FFFFFF" points="214.5,111.7 178.1,127.7 178.2,126.6 214.6,110.4 		"/>
		<polygon fill="#FFFFFF" points="200.6,122.2 175,132.7 175.1,131.7 200.6,121 		"/>
		<polygon fill="#FFFFFF" points="233.4,108.7 207.9,119.2 207.9,118 233.5,107.3 		"/>
		<polygon fill="#FFFFFF" points="232.3,98.7 213.2,107.6 213.2,106.3 232.4,97.3 		"/>
		<polygon fill="#FFFFFF" points="234.3,97.8 233.1,98.4 233.1,96.9 234.4,96.4 		"/>
		<polygon fill="#FFFFFF" points="234,103.2 230.4,104.8 230.5,103.4 234.1,101.8 		"/>
		<polygon fill="#FFFFFF" points="176.5,128.4 175.3,129 175.3,127.9 176.5,127.4 		"/>
		<polygon fill="#FFFFFF" points="229.6,105.1 220.7,109 220.8,107.7 229.7,103.7 		"/>
		<polygon fill="#FFFFFF" points="211.4,122.4 175.1,136.4 175.2,135.4 211.5,121.1 		"/>
		<polygon fill="#FFFFFF" points="213.7,126.3 177.4,139.3 177.5,138.3 213.8,125 		"/>
		<polygon fill="#FFFFFF" points="231.4,114.8 212.3,122.1 212.4,120.8 231.5,113.3 		"/>
		<polygon fill="#FFFFFF" points="233.4,114 232.2,114.5 232.3,113 233.5,112.5 		"/>
		<polygon fill="#FFFFFF" points="233.1,119.4 229.5,120.7 229.6,119.2 233.2,117.9 		"/>
		<polygon fill="#FFFFFF" points="175.7,139.9 174.5,140.3 174.6,139.3 175.8,138.9 		"/>
		<polygon fill="#FFFFFF" points="228.7,121 215.2,125.8 215.3,124.5 228.8,119.5 		"/>
		<polygon fill="#FFFFFF" points="210.9,132 174.6,144 174.7,143 211,130.7 		"/>
		<polygon fill="#FFFFFF" points="213.1,136.1 176.9,147.1 177,146 213.2,134.8 		"/>
		<polygon fill="#FFFFFF" points="199.2,144.7 173.8,151.7 173.8,150.7 199.3,143.5 		"/>
		<polygon fill="#FFFFFF" points="231.9,135.7 206.5,142.7 206.6,141.4 232,134.2 		"/>
		<polygon fill="#FFFFFF" points="230.8,125.4 211.8,131.7 211.8,130.4 230.9,124 		"/>
		<polygon fill="#FFFFFF" points="232.8,124.8 231.6,125.2 231.7,123.7 232.9,123.3 		"/>
		<polygon fill="#FFFFFF" points="232.5,130.2 229,131.3 229,129.8 232.6,128.7 		"/>
		<polygon fill="#FFFFFF" points="175.2,147.6 174,147.9 174.1,146.9 175.3,146.5 		"/>
		<polygon fill="#FFFFFF" points="228.2,131.5 214.7,135.6 214.7,134.3 228.2,130.1 		"/>
	</g>
	<polygon fill="#F73535" points="226.6,82.7 228,68.6 241,59.5 240.1,75.1 	"/>
	<polygon fill="#58FFFE" points="241,59.5 241.6,60.2 241,75.7 240.1,75.1 	"/>
	<g>
		<g>
			<path fill="#58FFFE" d="M232.9,76L232.9,76c-0.3,0-0.6-0.3-0.5-0.6L233,67c0-0.3,0.3-0.5,0.6-0.5s0.5,0.3,0.5,0.6l-0.7,8.4
				C233.4,75.8,233.2,76,232.9,76z"/>
		</g>
		<g>
			<path fill="#58FFFE" d="M230.3,73.8c-0.2,0-0.3-0.1-0.4-0.2c-0.2-0.2-0.1-0.6,0.1-0.7l5.9-4c0.2-0.2,0.6-0.1,0.7,0.1
				c0.2,0.2,0.1,0.6-0.1,0.7l-5.9,4C230.5,73.8,230.4,73.8,230.3,73.8z"/>
		</g>
	</g>
</g>
</svg>
