<?xml version="1.0" encoding="utf-8"?>
<!-- Generator: Adobe Illustrator 24.1.1, SVG Export Plug-In . SVG Version: 6.00 Build 0)  -->
<svg version="1.1" id="Capa_1" xmlns="http://www.w3.org/2000/svg" xmlns:xlink="http://www.w3.org/1999/xlink" x="0px" y="0px"
	 viewBox="0 0 346.8 400" enable-background="new 0 0 346.8 400" xml:space="preserve">
<g id="Capa_3">
	<g>
		<g>
			<path fill="#897BFF" d="M50.3,164.3l22.1,0.9l13.8-50.4c3-10.9,13.2-19.6,22.8-19.3c2.3,0.1,4.4,0.7,6.3,1.7
				c5.7,3.2,8.7,10.4,7,18.8l-10.5,50.8l22.1,0.9l9.1-54c3.9-23.4-10.1-46.9-29.5-47.4c-9.7-0.2-18.3,8.3-26.9,15.7
				c-8.8,7.4-16.2,17.7-19.8,29.3L50.3,164.3z"/>
			<path fill="#0041AE" d="M66.9,111.2l-16.6,53.1l22.1,0.8l13.8-50.4c3-10.9,13.2-19.6,22.8-19.3l6-25.2
				c-9.7-0.2-19.8,4.2-28.4,11.7C77.9,89.3,70.5,99.7,66.9,111.2z"/>
			<polygon fill="#519FF6" points="136.1,155.1 114.4,154.3 111.9,166.7 134,167.6 			"/>
			<polygon fill="#519FF6" points="54.2,152.1 50.3,164.3 72.4,165.2 75.8,152.9 			"/>
		</g>
		<path fill="#8923E5" d="M102.2,89.2l6.8,6.3c2.3,0.1,4.4,0.7,6.3,1.7l-1.1-2.9C107.2,88.4,102.2,89.2,102.2,89.2z"/>
		<g>
			<path fill="#F73535" d="M60.1,104.9L43.5,158l22.1,0.9l13.8-50.4c3-10.9,13.2-19.6,22.8-19.3s15.5,9.4,13.3,20.4L105,160.4
				l22.1,0.8l9.1-54c3.9-23.4-8.6-42.8-27.9-43.3c-9.7-0.2-19.8,4.2-28.4,11.7C71.1,83,63.7,93.4,60.1,104.9z"/>
			<path fill="#197DE5" d="M60.1,104.9L43.5,158l22.1,0.9l13.8-50.4c3-10.9,13.2-19.6,22.8-19.3l6-25.2c-9.7-0.2-19.8,4.2-28.4,11.7
				C71.1,83,63.7,93.4,60.1,104.9z"/>
			<polygon fill="#6FCEF6" points="129.3,148.8 107.6,148 105.1,160.4 127.2,161.3 			"/>
			<polygon fill="#6FCEF6" points="47.4,145.8 43.5,158.1 65.6,158.9 69,146.6 			"/>
		</g>
		<polygon fill="#3991F6" points="75.8,152.9 69,146.6 65.6,158.9 72.4,165.2 		"/>
		<polygon fill="#58FFFE" points="134,167.6 127.2,161.3 129.3,148.8 136.1,155.1 		"/>
		<polygon fill="#519FF6" points="50.3,164.3 43.5,158.1 65.6,158.9 72.4,165.2 		"/>
		<polygon fill="#519FF6" points="111.9,166.7 105.1,160.4 127.2,161.3 134,167.6 		"/>
	</g>
	<g>
		<path fill="#197DE5" d="M57.9,235.5c-0.8,5.2,2.2,9.4,6.7,9.4s8.6-4.4,9.2-9.7s-2.4-9.5-6.7-9.4C62.9,225.9,58.7,230.3,57.9,235.5
			z"/>
		<path fill="#001B8D" d="M61.2,237.2c-0.1,0.7-0.1,1.4,0,2l0,0c0.4,2,1.8,3.3,3.7,3.3s3.7-1.5,4.6-3.4l0,0c0.3-0.6,0.5-1.3,0.5-2
			L61.2,237.2z"/>
		<path fill="#001B8D" d="M68.6,232.8c-0.1,1,0.2,1.8,0.8,1.8c0.6,0,1.1-0.8,1.2-1.9c0.1-1-0.2-1.8-0.8-1.8
			C69.3,231,68.8,231.8,68.6,232.8z"/>
		<path fill="#001B8D" d="M61.8,233c-0.1,1,0.2,1.8,0.8,1.8s1.1-0.8,1.3-1.8c0.1-1-0.2-1.8-0.8-1.8S61.9,232,61.8,233z"/>
		<path fill="#58FFFE" d="M62.4,237.2c-0.1,0.7-0.1,1.4,0,2l0,0l6.2-0.1l0,0c0.2-0.6,0.4-1.3,0.5-2L62.4,237.2z"/>
	</g>
	<g>
		<path fill="#197DE5" d="M81.9,242.9c-0.5,3.3,1.4,5.9,4.2,5.9c2.8,0,5.4-2.8,5.8-6.1s-1.5-6-4.2-5.9
			C85,236.9,82.4,239.6,81.9,242.9z"/>
		<path fill="#001B8D" d="M84,243.9c-0.1,0.4-0.1,0.8,0,1.2l0,0c0.2,1.2,1.1,2.1,2.3,2.1c1.2,0,2.3-0.9,2.9-2.2l0,0
			c0.2-0.4,0.3-0.8,0.3-1.2L84,243.9z"/>
		<path fill="#001B8D" d="M88.6,241.2c-0.1,0.6,0.1,1.1,0.5,1.1s0.7-0.5,0.8-1.2c0.1-0.6-0.1-1.1-0.5-1.1
			C89,240.1,88.7,240.6,88.6,241.2z"/>
		<path fill="#001B8D" d="M84.3,241.3c-0.1,0.6,0.1,1.1,0.5,1.1s0.7-0.5,0.8-1.2c0.1-0.6-0.1-1.1-0.5-1.1
			C84.8,240.2,84.4,240.7,84.3,241.3z"/>
		<path fill="#58FFFE" d="M84.7,243.9c-0.1,0.4-0.1,0.8,0,1.2l0,0l3.9-0.1l0,0c0.1-0.4,0.2-0.8,0.3-1.2L84.7,243.9z"/>
	</g>
	<g>
		<path fill="#56D6FF" d="M68.9,211c-1.4,9.3,3.9,16.8,11.9,16.7s15.4-7.8,16.4-17.3c1.1-9.5-4.3-16.9-11.9-16.7
			C77.6,194,70.3,201.7,68.9,211z"/>
		<path fill="#001B8D" d="M74.7,213.9c-0.2,1.2-0.1,2.4,0.1,3.5l0,0c0.7,3.5,3.2,5.9,6.7,5.9c3.4,0,6.6-2.6,8.2-6.1l0,0
			c0.5-1.1,0.8-2.3,1-3.5L74.7,213.9z"/>
		<path fill="#001B8D" d="M87.9,206.2c-0.2,1.8,0.4,3.2,1.4,3.2s2-1.5,2.2-3.3s-0.4-3.2-1.4-3.2S88.1,204.4,87.9,206.2z"/>
		<path fill="#001B8D" d="M75.7,206.5c-0.3,1.8,0.4,3.2,1.4,3.2s2-1.5,2.3-3.3c0.2-1.8-0.4-3.2-1.4-3.2
			C77,203.3,76,204.7,75.7,206.5z"/>
		<path fill="#58FFFE" d="M76.8,213.9c-0.2,1.2-0.2,2.4-0.1,3.5l0,0l11-0.2l0,0c0.4-1.1,0.7-2.3,0.8-3.5L76.8,213.9z"/>
	</g>
	<g>
		<path fill="#56D6FF" d="M57.6,181.4c-0.9,5.9,2.5,10.6,7.5,10.5c5.1-0.1,9.7-4.9,10.4-10.9c0.7-6-2.7-10.7-7.5-10.5
			C63.1,170.7,58.5,175.6,57.6,181.4z"/>
		<path fill="#001B8D" d="M61.2,183.3c-0.1,0.8-0.1,1.5,0,2.2l0,0c0.4,2.2,2.1,3.7,4.2,3.7c2.2,0,4.2-1.6,5.2-3.9l0,0
			c0.3-0.7,0.5-1.4,0.6-2.2L61.2,183.3z"/>
		<path fill="#001B8D" d="M69.6,178.4c-0.1,1.1,0.3,2,0.9,2s1.3-0.9,1.4-2.1c0.1-1.1-0.3-2-0.9-2C70.4,176.3,69.7,177.3,69.6,178.4z
			"/>
		<path fill="#001B8D" d="M61.9,178.6c-0.2,1.1,0.2,2,0.9,2s1.3-0.9,1.4-2.1c0.2-1.1-0.2-2-0.9-2C62.7,176.5,62.1,177.5,61.9,178.6z
			"/>
		<path fill="#58FFFE" d="M62.6,183.3c-0.1,0.8-0.1,1.5,0,2.2l0,0l6.9-0.1l0,0c0.2-0.7,0.4-1.4,0.5-2.2L62.6,183.3z"/>
	</g>
	<g>
		<path fill="#56D6FF" d="M107.7,185.4c-1.1,7.5,3.2,13.6,9.7,13.5s12.5-6.4,13.3-14.1c0.9-7.7-3.5-13.8-9.7-13.5
			C114.8,171.6,108.9,177.9,107.7,185.4z"/>
		<path fill="#001B8D" d="M112.4,187.8c-0.1,1-0.1,2,0.1,2.8l0,0c0.6,2.8,2.6,4.8,5.4,4.8s5.4-2.1,6.7-5l0,0
			c0.4-0.9,0.7-1.8,0.8-2.8L112.4,187.8z"/>
		<path fill="#001B8D" d="M123.1,181.5c-0.2,1.5,0.3,2.6,1.1,2.6c0.8,0,1.6-1.2,1.8-2.7c0.2-1.5-0.3-2.6-1.1-2.6
			C124.1,178.9,123.3,180.1,123.1,181.5z"/>
		<path fill="#001B8D" d="M113.3,181.8c-0.2,1.4,0.3,2.6,1.1,2.6c0.8,0,1.6-1.2,1.8-2.7c0.2-1.4-0.3-2.6-1.1-2.6
			C114.3,179.2,113.5,180.3,113.3,181.8z"/>
		<path fill="#58FFFE" d="M114.1,187.8c-0.1,1-0.2,2-0.1,2.8l0,0l8.9-0.2l0,0c0.3-0.9,0.6-1.8,0.7-2.8L114.1,187.8z"/>
	</g>
	<g>
		<path fill="#0041AE" d="M32.8,271.7c-1.7,7.9,2.5,14.3,9.5,14.4c7,0,13.5-6,14.7-13.5c1.1-7.5-3.1-14-9.5-14.4
			C41.1,257.8,34.5,263.9,32.8,271.7z"/>
		<g>
			<path fill="#58FFFE" d="M38.8,268.7L38.8,268.7C38.9,268.7,38.9,268.7,38.8,268.7l4.2,2.6c0.5,0.4,1.2,0.5,1.8,0.2l6.5-2.7
				c0.1,0,0.2,0,0.3,0c-0.1-0.2-0.3-0.4-0.6-0.4l-11.6-0.2C39.2,268.3,39,268.5,38.8,268.7z"/>
			<path fill="#58FFFE" d="M38.4,276.1l11.6,0.4c0.4,0,0.7-0.3,0.8-0.7l0.9-5.9l-6.4,2.6c-0.4,0.2-0.9,0.3-1.3,0.3
				c-0.6,0-1.1-0.2-1.5-0.6l-3.8-2.4l-0.9,5.2C37.7,275.6,38,276.1,38.4,276.1z"/>
		</g>
	</g>
	<g>
		<path fill="#0041AE" d="M48.9,240.5c-0.8,3.8,1.2,6.9,4.6,6.9c3.4,0,6.5-2.9,7-6.5s-1.5-6.7-4.6-6.9
			C52.8,233.8,49.7,236.8,48.9,240.5z"/>
		<g>
			<path fill="#58FFFE" d="M51.8,239L51.8,239C51.8,239,51.9,239,51.8,239l2,1.3c0.3,0.2,0.6,0.2,0.9,0.1l3.1-1.3h0.1
				c-0.1-0.1-0.2-0.2-0.3-0.2l-5.5-0.1C52,238.8,51.9,238.8,51.8,239z"/>
			<path fill="#58FFFE" d="M51.7,242.5l5.5,0.2c0.2,0,0.3-0.1,0.4-0.3l0.4-2.8l-3,1.3c-0.2,0.1-0.4,0.1-0.6,0.1
				c-0.3,0-0.5-0.1-0.7-0.3l-1.8-1.1l-0.4,2.5C51.3,242.3,51.4,242.5,51.7,242.5z"/>
		</g>
	</g>
	<g>
		<path fill="#0041AE" d="M23.9,215.8c-1.1,5.2,1.7,9.4,6.2,9.5c4.6,0,8.9-4,9.6-8.9c0.7-4.9-2.1-9.2-6.2-9.5S25.1,210.6,23.9,215.8
			z"/>
		<g>
			<path fill="#58FFFE" d="M28.1,213.9L28.1,213.9L28.1,213.9l2.6,1.7c0.3,0.3,0.7,0.3,1.1,0.1L36,214c0.1,0,0.1,0,0.2,0
				c-0.1-0.1-0.2-0.2-0.4-0.2l-7.2-0.1C28.4,213.6,28.2,213.7,28.1,213.9z"/>
			<path fill="#58FFFE" d="M27.9,218.5l7.2,0.3c0.2,0,0.4-0.2,0.5-0.4l0.6-3.7l-4,1.7c-0.3,0.1-0.5,0.2-0.8,0.2s-0.7-0.1-1-0.4
				l-2.4-1.5l-0.5,3.3C27.4,218.2,27.6,218.5,27.9,218.5z"/>
		</g>
	</g>
	<g>
		<path fill="#0041AE" d="M99.3,225.2c-1,4.6,1.5,8.3,5.5,8.3s7.8-3.5,8.5-7.8c0.6-4.3-1.8-8.1-5.5-8.3
			C104.1,217.2,100.4,220.7,99.3,225.2z"/>
		<g>
			<path fill="#58FFFE" d="M103.2,223.4L103.2,223.4L103.2,223.4l2.2,1.4c0.3,0.2,0.6,0.3,0.9,0.1l3.4-1.4h0.1
				c-0.1-0.1-0.2-0.2-0.3-0.2l-6-0.1C103.4,223.1,103.3,223.2,103.2,223.4z"/>
			<path fill="#58FFFE" d="M103,227.2l6,0.2c0.2,0,0.4-0.2,0.4-0.4l0.5-3.1l-3.3,1.4c-0.2,0.1-0.5,0.1-0.7,0.1
				c-0.3,0-0.6-0.1-0.8-0.3l-2-1.3l-0.4,2.7C102.6,227,102.8,227.2,103,227.2z"/>
		</g>
	</g>
	<g>
		<path fill="#D32D2D" d="M57.9,253c1,0,1.8,0.6,2.3,1.5c0.8-1,1.8-1.5,2.8-1.5c0.1,0,0.2,0,0.3,0c2.2,0.3,2.6,3.8,0.6,5.7l-2.4,2.3
			l-2.7,2.5l-1.9-2.5l-1.7-2.3c-1.4-1.9,0.1-5.4,2.4-5.7C57.7,253,57.8,253,57.9,253z"/>
	</g>
	<g>
		<path fill="#D32D2D" d="M85.9,178.7c0.9,0,1.5,0.5,1.9,1.2c0.6-0.8,1.5-1.2,2.3-1.2c0.1,0,0.2,0,0.3,0c1.9,0.2,2.2,3.2,0.5,4.8
			l-2,1.9l-2.2,2.1l-1.6-2.1l-1.4-1.9c-1.1-1.6,0.1-4.6,2-4.8C85.8,178.7,85.9,178.7,85.9,178.7z"/>
	</g>
	<g>
		<path fill="#F73535" d="M48.9,197.1c2.3,0,4.1,1.3,5.1,3.3c1.7-2,3.9-3.3,6.2-3.3c0.2,0,0.5,0,0.7,0c5,0.6,5.8,8.5,1.4,12.8
			l-5.4,5.1l-6,5.7l-4.2-5.7l-3.8-5.1c-3.1-4.2,0.2-12.2,5.4-12.8C48.4,197.2,48.6,197.1,48.9,197.1z"/>
	</g>
	<g>
		<path fill="#F73535" d="M94.3,239.7c1.3,0,2.3,0.7,2.9,1.9c0.9-1.1,2.2-1.9,3.4-1.9c0.1,0,0.3,0,0.4,0c2.8,0.3,3.2,4.8,0.8,7.1
			l-3,2.9l-3.4,3.2l-2.4-3.2l-2.1-2.9c-1.7-2.4,0.1-6.8,3-7.1C94,239.7,94.2,239.7,94.3,239.7z"/>
	</g>
	<path fill="#D49AF0" d="M74.3,279c-0.3,2.3,1.3,4.4,3.4,4.6s4.1-1.4,4.3-3.8s-1.3-4.4-3.4-4.6C76.5,275,74.6,276.7,74.3,279z"/>
	<g>
		<path fill="#56D6FF" d="M73.4,278.4c-0.5,3.2,1.4,5.8,4.1,5.7c2.8,0,5.3-2.7,5.6-6c0.4-3.3-1.5-5.8-4.1-5.7
			C76.4,272.5,73.9,275.2,73.4,278.4z"/>
		<path fill="#001B8D" d="M75.4,279.4c-0.1,0.4-0.1,0.8,0,1.2l0,0c0.2,1.2,1.1,2,2.3,2c1.2,0,2.3-0.9,2.8-2.1l0,0
			c0.2-0.4,0.3-0.8,0.3-1.2L75.4,279.4z"/>
		<path fill="#001B8D" d="M80,276.7c-0.1,0.6,0.1,1.1,0.5,1.1c0.3,0,0.7-0.5,0.8-1.1c0.1-0.6-0.1-1.1-0.5-1.1S80,276.1,80,276.7z"/>
		<path fill="#001B8D" d="M75.8,276.8c-0.1,0.6,0.1,1.1,0.5,1.1c0.3,0,0.7-0.5,0.8-1.1c0.1-0.6-0.1-1.1-0.5-1.1
			C76.2,275.7,75.9,276.2,75.8,276.8z"/>
		<path fill="#58FFFE" d="M76.1,279.4c-0.1,0.4-0.1,0.8,0,1.2l0,0l3.8-0.1l0,0c0.1-0.4,0.2-0.8,0.3-1.2L76.1,279.4z"/>
	</g>
</g>
</svg>
