<?xml version="1.0" encoding="utf-8"?>
<!-- Generator: Adobe Illustrator 24.1.1, SVG Export Plug-In . SVG Version: 6.00 Build 0)  -->
<svg version="1.1" id="Capa_1" xmlns="http://www.w3.org/2000/svg" xmlns:xlink="http://www.w3.org/1999/xlink" x="0px" y="0px"
	 viewBox="0 0 346.8 400" enable-background="new 0 0 346.8 400" xml:space="preserve">
<g id="Capa_2_1_">
	<g>
		<path opacity="0.88" fill="#197DE5" enable-background="new    " d="M125,300.9l49.1,1.2l5,4.9l3.8-28.8c0.3-2.6-1.6-4.8-4.2-4.9
			l-49.7-0.7l-0.2,1.6L125,300.9z"/>
		
			<radialGradient id="SVGID_1_" cx="-123.2158" cy="125.8865" r="39.5904" gradientTransform="matrix(-1 0 0 -1 0.0848 401.2756)" gradientUnits="userSpaceOnUse">
			<stop  offset="0" style="stop-color:#000000"/>
			<stop  offset="1" style="stop-color:#02B3C4"/>
		</radialGradient>
		<path opacity="0.4" fill="url(#SVGID_1_)" enable-background="new    " d="M176.4,264.1l-3.8,28.8l-5-4.9l-93.2-2.2
			c-2.5-0.1-4.5-2.3-4.2-4.8l2.1-19.2c0.2-2.2,2.1-3.9,4.3-3.8l95.6,1.3C174.8,259.2,176.7,261.5,176.4,264.1z"/>
		<path fill="#27D9F9" d="M69.3,281.6l2.2-19.5c0.2-1.8,1.5-3.2,3.1-3.7c-1.3,0.6-2.2,1.9-2.4,3.4L70.1,281
			c-0.3,2.5,1.7,4.7,4.2,4.8l93.2,2.2l5,4.9l3.8-28.8c0.2-1.9-0.7-3.6-2.3-4.4c2,0.6,3.4,2.6,3.1,4.8l-3.9,29.2l-5.1-5l-94.6-2.3
			C71,286.4,69.1,284.1,69.3,281.6z"/>
		<polygon fill="#58FFFE" points="170.5,264.5 116.7,264 116.4,266.3 170.2,267.1 		"/>
		<polygon fill="#58FFFE" points="169.8,272.4 132.3,272 132.1,274.4 169.4,274.9 		"/>
		<polygon fill="#58FFFE" points="170.2,268.3 169.9,270.6 75.6,270.1 75.6,267.9 		"/>
	</g>
</g>
</svg>
