<?xml version="1.0" encoding="utf-8"?>
<!-- Generator: Adobe Illustrator 24.1.1, SVG Export Plug-In . SVG Version: 6.00 Build 0)  -->
<svg version="1.1" id="Capa_1" xmlns="http://www.w3.org/2000/svg" xmlns:xlink="http://www.w3.org/1999/xlink" x="0px" y="0px"
	 viewBox="0 0 346.8 400" enable-background="new 0 0 346.8 400" xml:space="preserve">
<g id="Capa_4">
	<path fill="#58FFFE" d="M248.1,166.8c-0.2,1.7,0.8,3.3,2.2,3.4c1.4,0.2,2.7-1.1,2.9-2.9c0.2-1.7-0.8-3.3-2.2-3.4
		C249.6,163.8,248.3,165.1,248.1,166.8z"/>
	
		<ellipse transform="matrix(0.1822 -0.9833 0.9833 0.1822 61.7001 331.3761)" opacity="0.5" fill="#58FFFE" enable-background="new    " cx="230.06" cy="128.597" rx="25.001" ry="19.501"/>
	
		<ellipse transform="matrix(0.1822 -0.9833 0.9833 0.1822 61.131 330.8629)" fill="#0041AE" cx="229.466" cy="128.682" rx="19.901" ry="15.501"/>
	<g>
		
			<radialGradient id="SVGID_1_" cx="-20.1375" cy="269.713" r="13.7534" gradientTransform="matrix(-0.9474 -0.0427 0.0498 -1.1056 197.5236 426.4363)" gradientUnits="userSpaceOnUse">
			<stop  offset="0" style="stop-color:#02689B"/>
			<stop  offset="0.1467" style="stop-color:#024F75"/>
			<stop  offset="0.3356" style="stop-color:#01334B"/>
			<stop  offset="0.5199" style="stop-color:#011D2B"/>
			<stop  offset="0.6958" style="stop-color:#000D13"/>
			<stop  offset="0.8598" style="stop-color:#000305"/>
			<stop  offset="1" style="stop-color:#000000"/>
		</radialGradient>
		<path fill="url(#SVGID_1_)" d="M217,128.5c-0.4,8.4,5.1,15.5,12.3,15.8s13.3-6.2,13.7-14.6s-5.1-15.5-12.3-15.8
			C223.5,113.6,217.4,120.1,217,128.5z"/>
		<g>
			<path fill="#58FFFE" d="M226,123.7c-0.1,2,1.1,3.7,2.8,3.8c1.7,0.1,3.1-1.4,3.2-3.4s-1.1-3.7-2.8-3.8
				C227.6,120.2,226.1,121.7,226,123.7z"/>
			<path fill="#58FFFE" d="M228.7,128.3c2.9,0.2,5.1,3.2,4.9,6.7l-10.7-0.2C223.2,131.3,225.8,128.1,228.7,128.3z"/>
		</g>
	</g>
	<g>
		<polygon fill="#58FFFE" points="251.3,164 257.2,127.4 241.3,127.6 241.3,128.1 256.7,127.9 250.8,163.9 		"/>
	</g>
	<path fill="#58FFFE" d="M241.1,127.4c-0.2,1.7,0.8,3.3,2.2,3.4c1.4,0.2,2.7-1.1,2.9-2.9c0.2-1.7-0.8-3.3-2.2-3.4
		S241.3,125.7,241.1,127.4z"/>
	<g>
		<path fill="#FFFFFF" d="M215.6,156.9l0.9,2.5l0.7-2.5c0-0.2,0.1-0.3,0.2-0.4c0.1-0.1,0.2-0.1,0.3-0.1s0.2,0,0.3,0.1
			c0,0.1,0,0.2,0,0.4l-0.9,3.3c-0.1,0.4-0.3,0.6-0.6,0.6c-0.1,0-0.1,0-0.2,0c-0.1,0-0.1-0.1-0.1-0.1s-0.1-0.1-0.1-0.2
			c0-0.1-0.1-0.1-0.1-0.2l-0.9-2.4l-0.7,2.5c0,0.2-0.1,0.3-0.2,0.4s-0.2,0.1-0.3,0.1s-0.2,0-0.2-0.1s-0.1-0.2,0-0.4l0.9-3.2
			c0-0.1,0.1-0.2,0.1-0.3c0.1-0.1,0.1-0.2,0.2-0.2c0.1-0.1,0.2-0.1,0.3-0.1s0.1,0,0.2,0l0.1,0.1
			C215.5,156.7,215.6,156.8,215.6,156.9C215.6,157,215.5,156.8,215.6,156.9z"/>
		<path fill="#FFFFFF" d="M220.8,156.4c0.4,0,0.8,0.1,1,0.3c0.3,0.2,0.4,0.4,0.5,0.8s0,0.7-0.1,1.1c-0.1,0.3-0.2,0.6-0.4,0.9
			c-0.2,0.3-0.3,0.5-0.6,0.7c-0.2,0.2-0.5,0.3-0.8,0.4c-0.3,0.1-0.6,0.2-0.9,0.2c-0.3,0-0.6-0.1-0.8-0.2s-0.4-0.3-0.5-0.4
			c-0.1-0.2-0.2-0.4-0.2-0.7s0-0.6,0.1-0.9c0.1-0.3,0.2-0.6,0.4-0.9c0.2-0.3,0.4-0.5,0.6-0.7s0.5-0.3,0.7-0.4
			C220.2,156.4,220.5,156.4,220.8,156.4z M221.4,158.5c0.1-0.3,0.1-0.6,0.1-0.8s-0.1-0.4-0.3-0.5c-0.1-0.1-0.3-0.2-0.6-0.2
			c-0.2,0-0.3,0-0.5,0.1s-0.3,0.2-0.4,0.3c-0.1,0.1-0.3,0.3-0.4,0.5c-0.1,0.2-0.2,0.4-0.3,0.6c-0.1,0.2-0.1,0.5-0.1,0.6
			c0,0.2,0,0.4,0.1,0.5s0.2,0.2,0.3,0.3s0.3,0.1,0.4,0.1c0.2,0,0.4-0.1,0.6-0.2c0.2-0.1,0.4-0.3,0.6-0.5
			C221.2,159.1,221.3,158.8,221.4,158.5z"/>
		<path fill="#FFFFFF" d="M223.9,160v-2.7l-0.8,2.9c0,0.2-0.1,0.3-0.2,0.4c-0.1,0.1-0.2,0.1-0.3,0.1s-0.2,0-0.2-0.1s-0.1-0.2,0-0.4
			l0.9-3.3c0-0.2,0.1-0.3,0.2-0.4c0.1-0.1,0.2-0.1,0.4-0.1h0.3c0.2,0,0.3,0,0.3,0c0.1,0,0.1,0.1,0.1,0.2c0,0.1,0,0.2,0,0.4v2.3
			l1.2-2.3c0.1-0.2,0.2-0.3,0.2-0.4c0.1-0.1,0.1-0.1,0.2-0.2c0.1,0,0.2,0,0.3,0h0.3c0.2,0,0.3,0,0.4,0.1c0.1,0.1,0.1,0.2,0,0.4
			l-0.9,3.3c0,0.2-0.1,0.3-0.2,0.4s-0.2,0.1-0.3,0.1s-0.2,0-0.2-0.1s-0.1-0.2,0-0.4l0.8-2.9L225,160c-0.1,0.2-0.2,0.3-0.2,0.4
			c0,0.1-0.1,0.2-0.2,0.2c-0.1,0.1-0.2,0.1-0.3,0.1s-0.2,0-0.2-0.1c-0.1,0-0.1-0.1-0.1-0.2c0-0.1,0-0.1,0-0.2
			C223.9,160.2,223.9,160.1,223.9,160z"/>
		<path fill="#FFFFFF" d="M228.9,160.6h-1.3c-0.2,0-0.3,0-0.4-0.1c-0.1-0.1-0.1-0.2,0-0.4l0.8-3.1c0-0.2,0.1-0.3,0.2-0.4
			c0.1-0.1,0.2-0.1,0.4-0.1h1.3c0.2,0,0.4,0,0.5,0s0.3,0.1,0.3,0.1c0.1,0.1,0.1,0.1,0.2,0.2s0.1,0.2,0.1,0.3s0,0.2,0,0.3
			c-0.1,0.4-0.4,0.7-0.9,0.9c0.5,0.2,0.7,0.5,0.5,1c-0.1,0.2-0.2,0.4-0.3,0.6c-0.2,0.2-0.4,0.3-0.6,0.4c-0.1,0.1-0.3,0.1-0.5,0.1
			C229.3,160.6,229.1,160.6,228.9,160.6z M229.4,158.8h-0.9l-0.3,1.2h0.9c0.6,0,0.9-0.2,1-0.6c0.1-0.2,0-0.4-0.1-0.5
			C229.8,158.8,229.6,158.8,229.4,158.8z M228.9,157.1l-0.3,1.1h0.8c0.2,0,0.4,0,0.5-0.1c0.1,0,0.2-0.1,0.3-0.2
			c0.1-0.1,0.1-0.2,0.1-0.3c0.1-0.2,0-0.4-0.1-0.4c-0.1-0.1-0.3-0.1-0.6-0.1H228.9z"/>
		<path fill="#FFFFFF" d="M232.9,158.8h-0.3l-0.4,1.3c0,0.2-0.1,0.3-0.2,0.4s-0.2,0.1-0.3,0.1s-0.2,0-0.3-0.1c0-0.1-0.1-0.2,0-0.4
			l0.9-3.2c0-0.2,0.1-0.3,0.2-0.4c0.1-0.1,0.2-0.1,0.4-0.1h1.4c0.2,0,0.3,0,0.5,0c0.1,0,0.2,0,0.3,0.1s0.2,0.1,0.3,0.2
			c0.1,0.1,0.1,0.2,0.1,0.4c0,0.1,0,0.3,0,0.4c-0.1,0.3-0.2,0.6-0.5,0.7c-0.2,0.2-0.5,0.3-0.9,0.4c0.1,0.1,0.2,0.2,0.3,0.4
			s0.2,0.3,0.2,0.5c0.1,0.2,0.1,0.3,0.1,0.5c0,0.1,0,0.2,0,0.3s0,0.1-0.1,0.2c0,0.1-0.1,0.1-0.2,0.1c-0.1,0-0.1,0-0.2,0
			c-0.1,0-0.2,0-0.2-0.1c-0.1,0-0.1-0.1-0.1-0.2c0-0.1-0.1-0.2-0.1-0.3l-0.2-0.6c-0.1-0.2-0.1-0.4-0.2-0.5c-0.1-0.1-0.1-0.2-0.2-0.2
			C233.2,158.8,233,158.8,232.9,158.8z M233.8,157.1H233l-0.3,1.2h0.7c0.2,0,0.4,0,0.5-0.1c0.1,0,0.3-0.1,0.4-0.2
			c0.1-0.1,0.2-0.2,0.2-0.3s0-0.2,0-0.3s-0.1-0.2-0.2-0.2C234.3,157.1,234.1,157.1,233.8,157.1z"/>
		<path fill="#FFFFFF" d="M239.1,157.1h-1.9l-0.3,1h1.7c0.1,0,0.2,0,0.3,0.1c0,0.1,0.1,0.1,0,0.2c0,0.1-0.1,0.2-0.2,0.2
			c-0.1,0.1-0.2,0.1-0.3,0.1h-1.7l-0.3,1.2h1.9c0.1,0,0.2,0,0.3,0.1s0.1,0.1,0,0.2c0,0.1-0.1,0.2-0.2,0.2c-0.1,0.1-0.2,0.1-0.3,0.1
			h-2.3c-0.2,0-0.3,0-0.4-0.1s-0.1-0.2,0-0.4l0.8-3.1c0-0.1,0.1-0.2,0.1-0.3c0.1-0.1,0.1-0.1,0.2-0.2c0.1,0,0.2-0.1,0.3-0.1h2.2
			c0.1,0,0.2,0,0.3,0.1c0,0.1,0.1,0.1,0,0.2c0,0.1-0.1,0.2-0.2,0.2C239.3,157.1,239.2,157.1,239.1,157.1z"/>
	</g>
</g>
</svg>
