<?xml version="1.0" encoding="utf-8"?>
<!-- Generator: Adobe Illustrator 24.1.1, SVG Export Plug-In . SVG Version: 6.00 Build 0)  -->
<svg version="1.1" id="Capa_1" xmlns="http://www.w3.org/2000/svg" xmlns:xlink="http://www.w3.org/1999/xlink" x="0px" y="0px"
	 viewBox="0 0 346.8 400" enable-background="new 0 0 346.8 400" xml:space="preserve">
<g id="social_media">
	<g>
		<g>
			<g>
				
					<linearGradient id="SVGID_1_" gradientUnits="userSpaceOnUse" x1="-806.5337" y1="410.9684" x2="-784.0701" y2="408.6075" gradientTransform="matrix(-1 0 0 1 -493.9152 -194)">
					<stop  offset="0" style="stop-color:#0056E5"/>
					<stop  offset="0.0492" style="stop-color:#1C52D1"/>
					<stop  offset="0.1483" style="stop-color:#4F4BAD"/>
					<stop  offset="0.2521" style="stop-color:#7C458D"/>
					<stop  offset="0.3587" style="stop-color:#A24072"/>
					<stop  offset="0.4687" style="stop-color:#C13C5C"/>
					<stop  offset="0.5833" style="stop-color:#D9394B"/>
					<stop  offset="0.7044" style="stop-color:#EA373E"/>
					<stop  offset="0.8365" style="stop-color:#F43537"/>
					<stop  offset="1" style="stop-color:#F73535"/>
				</linearGradient>
				<path fill="url(#SVGID_1_)" d="M307.7,55.6c7.9,0.7,19.5,8.2,20.1,16.6L296.4,364c-2.8,9.7-15.9,10.3-23,9.7L307.7,55.6z"/>
				
					<linearGradient id="SVGID_2_" gradientUnits="userSpaceOnUse" x1="118.3639" y1="408.4108" x2="319.2966" y2="408.4108" gradientTransform="matrix(1 0 0 1 0 -194)">
					<stop  offset="0" style="stop-color:#0056E5"/>
					<stop  offset="0.0492" style="stop-color:#1C52D1"/>
					<stop  offset="0.1483" style="stop-color:#4F4BAD"/>
					<stop  offset="0.2521" style="stop-color:#7C458D"/>
					<stop  offset="0.3587" style="stop-color:#A24072"/>
					<stop  offset="0.4687" style="stop-color:#C13C5C"/>
					<stop  offset="0.5833" style="stop-color:#D9394B"/>
					<stop  offset="0.7044" style="stop-color:#EA373E"/>
					<stop  offset="0.8365" style="stop-color:#F43537"/>
					<stop  offset="1" style="stop-color:#F73535"/>
				</linearGradient>
				<path fill="url(#SVGID_2_)" d="M130.8,362L272,373.5c7.3,0.6,13.8-4.7,14.6-12l32.6-291.1c1-8.4-5.9-15.6-14.3-15.1l-135.5,8.5
					c-6.4,0.4-11.7,5.3-12.6,11.7l-0.9,6.7L144.2,165l-10.7,75.7l-4.5,31.9l-0.2,1.6l-3.8,26.6l-6.5,45.7
					C117.4,354.4,123.1,361.4,130.8,362z"/>
				<path fill="#197DE5" d="M133.3,345.6c0.8,0.3,1.7,0.5,2.6,0.5l134.7,8.9c5,0.3,9.4-3.3,9.9-8.3l29.9-267c0.2-2-0.2-3.9-1.1-5.6
					l0,0c-1.6-3-4.9-5-8.6-4.8l-129,6.3c-4.5,0.2-8.2,3.6-8.8,8l-35.6,251.7C126.7,340,129.3,344.2,133.3,345.6z"/>
				<path fill="#001B8D" d="M133.3,345.6c0.8,0.3,1.7,0.5,2.6,0.5l134.7,8.9c5,0.3,9.4-3.3,9.9-8.3l1-8.6l6.4-57.4l10.6-94.4
					l11.9-106.6c0.2-2-0.2-4-1.1-5.6l0,0c-1.1-0.4-2.4-0.6-3.7-0.6l-129,6.3c-4.5,0.2-8.2,3.6-8.8,8l-12.8,91l-13.7,96.6l-7.6,53.9
					l-1.5,10.5C132,341.9,132.4,343.9,133.3,345.6z"/>
				<g>
					<path fill-rule="evenodd" clip-rule="evenodd" fill="#65B1DB" d="M286.4,352.2c-0.2-0.1,0.2,0.4-0.1,0.5
						c0.3-0.1,0.3,0.2,0.4,0.3c0.3-0.1,0.1-0.3,0.2-0.5C286.6,352.7,286.5,352.3,286.4,352.2z"/>
					<path fill-rule="evenodd" clip-rule="evenodd" fill="#65B1DB" d="M315.8,86.3c-0.3,0.2,0,0.3,0.1,0.4
						C316.1,86.6,315.9,86.4,315.8,86.3z"/>
					<path fill-rule="evenodd" clip-rule="evenodd" fill="#65B1DB" d="M316.1,84c-0.3,0.2,0,0.3,0.1,0.2
						C316.5,84,316.1,84.2,316.1,84z"/>
					<path fill-rule="evenodd" clip-rule="evenodd" fill="#65B1DB" d="M314.5,85.9c-0.2,0.1,0.3,0.2,0.4,0.4
						C315,86,314.6,86,314.5,85.9z"/>
					<path fill-rule="evenodd" clip-rule="evenodd" fill="#65B1DB" d="M320.1,86c0,0.4,0.6,0.5,1,0.5
						C321.1,86.1,320.4,86.3,320.1,86z"/>
					<path fill-rule="evenodd" clip-rule="evenodd" fill="#65B1DB" d="M319.3,86.9c-0.2,0.1,0.1,0.2,0.1,0.3
						c0.2-0.2,0.1-0.1,0.4-0.3C319.6,86.8,319.4,87,319.3,86.9z"/>
					<path fill-rule="evenodd" clip-rule="evenodd" fill="#65B1DB" d="M318.9,87.5c-0.2,0.2-0.3,0.4,0,0.3
						C319,87.8,319,87.6,318.9,87.5z"/>
					<path fill-rule="evenodd" clip-rule="evenodd" fill="#65B1DB" d="M319.8,87.6c-0.1,0.2-0.1,0.7,0.2,0.6
						c0.1-0.2-0.1-0.2,0.3-0.3C320,88,319.9,87.8,319.8,87.6z"/>
					<path fill-rule="evenodd" clip-rule="evenodd" fill="#65B1DB" d="M319.7,87.1c-0.3,0.3,0.2,0.3,0.3,0.3c0-0.1,0.1-0.1,0.2-0.2
						c-0.1,0.3,0.3,0,0.4,0.1c0,0.1-0.1,0.1-0.1,0.2c0.1,0.2,0.2,0.1,0.4,0c-0.3-0.1-0.2-0.1-0.3-0.4c-0.1,0.1-0.2,0.1-0.2,0.2
						c0-0.1-0.1-0.2-0.2-0.2c0.2-0.1,0.3-0.1,0.4-0.3c0.2-0.2,0.1,0.2,0.3,0c-0.1,0-0.3-0.1-0.4-0.1c0,0.3-0.2,0.3-0.5,0.4
						c0.2,0,0.1,0.1,0.1,0.2C319.8,87.5,319.8,87.2,319.7,87.1z"/>
					<path fill-rule="evenodd" clip-rule="evenodd" fill="#65B1DB" d="M320.6,87.7c-0.2,0.3,0.3,0.1,0.5,0c0,0.1-0.1,0.2-0.1,0.2
						C321.4,87.5,320.7,87.8,320.6,87.7z"/>
					<path fill-rule="evenodd" clip-rule="evenodd" fill="#65B1DB" d="M286.8,351.2c-0.2,0.1-0.3,0.3,0.2,0.3
						C287.1,351.4,286.8,351.4,286.8,351.2z"/>
					<path fill-rule="evenodd" clip-rule="evenodd" fill="#65B1DB" d="M285.5,343.5c0,0.3,0.3,0.3,0.5,0.3
						C285.9,343.6,285.7,343.6,285.5,343.5z"/>
					<path fill-rule="evenodd" clip-rule="evenodd" fill="#65B1DB" d="M286.3,343.6c0,0.3,0.5,0,0.7,0.3
						C286.9,343.6,286.4,343.6,286.3,343.6z"/>
					<path fill-rule="evenodd" clip-rule="evenodd" fill="#65B1DB" d="M284.6,341.8c0.2-0.1,0.2-0.2,0.3-0.1c0-0.2,0.1-0.2,0.1-0.3
						C285.1,341.5,284.6,341.5,284.6,341.8z"/>
					<path fill-rule="evenodd" clip-rule="evenodd" fill="#65B1DB" d="M282,344.6c0,0.2,0.2,0.1,0.3,0.1c0-0.3,0-0.2,0.1-0.5
						C282.1,344.3,282.1,344.6,282,344.6z"/>
					<path fill-rule="evenodd" clip-rule="evenodd" fill="#65B1DB" d="M282.2,345.3c0,0.2,0.2,0.5,0.2,0.2
						C282.4,345.4,282.3,345.3,282.2,345.3z"/>
					<path fill-rule="evenodd" clip-rule="evenodd" fill="#65B1DB" d="M282.8,344.7c0.1,0.2,0.5,0.6,0.6,0.3
						c-0.1-0.2-0.2-0.1-0.1-0.4C283.2,344.8,283,344.8,282.8,344.7z"/>
					<path fill-rule="evenodd" clip-rule="evenodd" fill="#65B1DB" d="M280.9,345.8c-0.1,0.5,0.9,0.6,0.8-0.1
						c-0.1,0-0.1,0.2-0.1,0.3C281.4,345.8,281.1,346.1,280.9,345.8z"/>
					<path fill-rule="evenodd" clip-rule="evenodd" fill="#65B1DB" d="M321.1,87.9c0,0.4,0.6,0.5,1,0.5
						C322.1,88,321.4,88.1,321.1,87.9z"/>
				</g>
				<path fill="#6FCEF6" d="M315.4,140.9l0.5,0.1c1.2,0.1,2.2-0.7,2.3-1.9l3.3-28.8c0.1-1.2-0.7-2.2-1.9-2.3l-0.5-0.1
					c-1.2-0.1-2.2,0.7-2.3,1.9l-3.3,28.8C313.4,139.7,314.3,140.8,315.4,140.9z"/>
				<path fill="#0457AE" d="M316.5,141L316.5,141c1,0.1,2-0.6,2.1-1.7l3.3-29.2c0.1-1-0.6-2-1.7-2.1l0,0c-1-0.1-2,0.6-2.1,1.7
					l-3.3,29.2C314.7,139.9,315.5,140.9,316.5,141z"/>
				<path fill="#6FCEF6" d="M310.7,180.5l0.5,0.1c1.2,0.1,2.2-0.7,2.3-1.9l3.3-28.8c0.1-1.2-0.7-2.2-1.9-2.3l-0.5-0.1
					c-1.2-0.1-2.2,0.7-2.3,1.9l-3.3,28.8C308.7,179.3,309.6,180.4,310.7,180.5z"/>
				<path fill="#0457AE" d="M311.7,180.6L311.7,180.6c1,0.1,2-0.6,2.1-1.7l3.3-29.2c0.1-1-0.6-2-1.7-2.1l0,0c-1-0.1-2,0.6-2.1,1.7
					l-3.3,29.2C310,179.6,310.7,180.5,311.7,180.6z"/>
			</g>
			<path fill="#31A8FF" d="M263.4,64.8v0.3c-0.2,1.2-1.1,2.1-2.3,2.2L206.4,70c-1.4,0.1-2.6-1.1-2.6-2.5l0,0c0-1.3,1-2.4,2.3-2.5
				l54.8-3C262.4,62,263.6,63.3,263.4,64.8z"/>
			<path fill="#0041AE" d="M275.2,280.4l12.7,0.5l10.6-94.4l-13.5,0.2c-2.6,0-4.8,2-5.1,4.6l-9.7,83.4
				C269.9,277.6,272.2,280.3,275.2,280.4z"/>
			<path fill="#0041AE" d="M141.4,275.4l7.3,0.6c2.7,0.2,5.1-1.7,5.5-4.4l12.3-86.7c0.4-3.1-1.9-5.8-5-5.9l-6.5-0.2L141.4,275.4z"/>
			<path fill="#0041AE" d="M301.7,92.1l-125.4,4.7l1.5-10c0.4-2.7,2.7-4.8,5.4-4.9l113.7-5.1c3.6-0.2,6.4,2.9,6,6.5L301.7,92.1z"/>
			<path fill="#58FFFE" d="M181.5,91.4l3.3,3.6l4.1-2l0.8-5.2l-3.3-3.2l-4.2,2.6L181.5,91.4z M183.9,89.5c0.2-1.2,1.1-2,1.9-1.9
				c0.9,0.1,1.5,1.2,1.3,2.4c-0.2,1.2-1.1,2-1.9,1.9C184.3,91.7,183.7,90.6,183.9,89.5z"/>
			<g>
				<path fill="#58FFFE" d="M288.7,150.7h-1.9l0.1-0.5h1.3l0.4-2.2h0.6L288.7,150.7z"/>
				<path fill="#58FFFE" d="M285.3,150.8c-0.8,0-1.3-0.6-1.1-1.4c0.2-0.8,0.9-1.4,1.7-1.4c0.8,0,1.3,0.6,1.1,1.4
					C286.8,150.2,286.1,150.8,285.3,150.8z M285.4,150.2c0.5,0,0.9-0.3,1-0.9c0.1-0.5-0.2-0.9-0.6-0.9c-0.5,0-0.9,0.3-1,0.9
					C284.7,149.9,285,150.2,285.4,150.2z"/>
				<path fill="#58FFFE" d="M281.2,150.7l0.7-0.9c-0.3-0.2-0.4-0.4-0.4-0.9c0.1-0.6,0.6-1,1.3-1h1.1l-0.5,2.7h-0.6l0.1-0.8h-0.5l0,0
					l-0.6,0.7L281.2,150.7z M282.2,149c-0.1,0.3,0.1,0.5,0.4,0.5h0.5l0.2-0.9h-0.5C282.5,148.5,282.3,148.7,282.2,149z"/>
				<path fill="#58FFFE" d="M280.3,150.2l0.1-0.6h-1.2l0.1-0.5h1.2l0.1-0.6h-1.3l0.1-0.5h1.9l-0.5,2.7h-2l0.1-0.5L280.3,150.2z"/>
				<path fill="#58FFFE" d="M275.5,150.7l0.5-2.7h0.5l0.6,1.7l1.3-1.7h0.5l-0.5,2.7h-0.6l0.3-1.6l-1,1.3h-0.3l-0.5-1.3l-0.3,1.6
					H275.5z"/>
				<path fill="#58FFFE" d="M273.9,150.6h-0.6l0.5-2.7h0.6L273.9,150.6z"/>
				<path fill="#58FFFE" d="M272.1,148h1.1l-0.5,2.7h-0.6l0.1-0.7h-0.5c-0.7,0-1-0.4-0.9-1C271,148.3,271.5,148,272.1,148z
					 M271.9,149.4h0.5l0.2-0.9h-0.5c-0.4,0-0.6,0.2-0.6,0.5C271.4,149.2,271.5,149.4,271.9,149.4z"/>
				<path fill="#58FFFE" d="M269.2,150.7c-0.7,0-1-0.4-0.9-0.8c0.2-1,1.6-0.6,1.7-1.1c0-0.2-0.1-0.3-0.4-0.3c-0.2,0-0.5,0.1-0.7,0.2
					l-0.1-0.5c0.3-0.2,0.6-0.2,0.9-0.2c0.7,0,1,0.4,0.9,0.8c-0.2,1-1.6,0.6-1.7,1.1c0,0.2,0.1,0.3,0.4,0.3s0.6-0.1,0.9-0.3l0.1,0.5
					C270,150.5,269.6,150.7,269.2,150.7z"/>
				<path fill="#58FFFE" d="M266.6,150.6c-0.7,0-1.1-0.4-0.9-1.2l0.3-1.5h0.6l-0.3,1.4c-0.1,0.5,0.1,0.7,0.4,0.7
					c0.4,0,0.6-0.2,0.7-0.7l0.3-1.5h0.6l-0.3,1.5C267.8,150.2,267.3,150.6,266.6,150.6z"/>
				<path fill="#58FFFE" d="M262,150.6l0.6-2.6h0.5l0.6,1.6l1.3-1.6h0.5l-0.6,2.6h-0.6l0.3-1.5l-1,1.3h-0.3l-0.5-1.3l-0.3,1.6
					L262,150.6z"/>
			</g>
			<g>
				<path fill="#58FFFE" d="M196,148.4h-1.8l0.1-0.5h1.2l0.4-2.1h0.6L196,148.4z"/>
				<path fill="#58FFFE" d="M192.7,148.5c-0.8,0-1.2-0.6-1.1-1.4c0.2-0.8,0.8-1.4,1.6-1.4s1.2,0.6,1.1,1.4
					C194.2,147.9,193.5,148.5,192.7,148.5z M192.8,147.9c0.4,0,0.8-0.3,0.9-0.8c0.1-0.5-0.2-0.8-0.6-0.8c-0.4,0-0.8,0.3-0.9,0.8
					C192.1,147.6,192.4,147.9,192.8,147.9z"/>
				<path fill="#58FFFE" d="M188.8,148.4l0.7-0.8c-0.3-0.1-0.4-0.4-0.3-0.8c0.1-0.6,0.6-0.9,1.3-0.9h1.1l-0.5,2.6h-0.6l0.1-0.7h-0.5
					l0,0l-0.6,0.7L188.8,148.4z M189.7,146.7c-0.1,0.3,0.1,0.5,0.4,0.5h0.5l0.2-0.9h-0.5C190,146.3,189.8,146.4,189.7,146.7z"/>
				<path fill="#58FFFE" d="M187.9,147.9l0.1-0.6h-1.1l0.1-0.5h1.1l0.1-0.6h-1.3l0.1-0.5h1.9l-0.5,2.6h-1.9l0.1-0.5L187.9,147.9z"/>
				<path fill="#58FFFE" d="M183.2,148.3l0.5-2.6h0.5l0.6,1.6l1.3-1.6h0.5l-0.5,2.6h-0.5l0.3-1.5l-1,1.2h-0.3l-0.5-1.3l-0.3,1.6
					H183.2z"/>
				<path fill="#58FFFE" d="M181.6,148.3H181l0.5-2.6h0.6L181.6,148.3z"/>
				<path fill="#58FFFE" d="M179.9,145.7h1.1l-0.5,2.6h-0.6l0.1-0.7h-0.5c-0.7,0-1-0.4-0.9-0.9C178.8,146.1,179.3,145.7,179.9,145.7
					z M179.7,147.1h0.5l0.2-0.9h-0.5c-0.3,0-0.6,0.2-0.6,0.4C179.2,146.9,179.3,147.1,179.7,147.1z"/>
				<path fill="#58FFFE" d="M177,148.3c-0.7,0-1-0.4-0.9-0.8c0.2-0.9,1.6-0.6,1.7-1.1c0-0.2-0.1-0.3-0.4-0.3c-0.2,0-0.5,0.1-0.7,0.2
					l-0.1-0.5c0.3-0.1,0.6-0.2,0.9-0.2c0.7,0,1,0.4,0.9,0.8c-0.2,1-1.6,0.6-1.7,1.1c0,0.2,0.1,0.3,0.4,0.3c0.3,0,0.6-0.1,0.9-0.3
					l0.1,0.5C177.9,148.2,177.4,148.3,177,148.3z"/>
				<path fill="#58FFFE" d="M174.5,148.3c-0.7,0-1-0.4-0.9-1.2l0.3-1.4h0.6l-0.3,1.4c-0.1,0.5,0.1,0.7,0.4,0.7
					c0.3,0,0.6-0.2,0.7-0.7l0.3-1.4h0.6l-0.3,1.4C175.7,147.9,175.2,148.3,174.5,148.3z"/>
				<path fill="#58FFFE" d="M170,148.2l0.6-2.5h0.5l0.6,1.6l1.3-1.6h0.5l-0.5,2.6h-0.5l0.3-1.5l-1,1.2h-0.3l-0.5-1.3l-0.3,1.5H170z"
					/>
			</g>
			<path fill="#00379F" d="M133.3,345.6c0.8,0.3,1.7,0.5,2.6,0.5l134.7,8.9c5,0.3,9.4-3.3,9.9-8.3l1-8.6l-147.8-8.9l-1.5,10.5
				C132,341.9,132.4,343.9,133.3,345.6z"/>
			
				<ellipse transform="matrix(0.0752 -0.9972 0.9972 0.0752 -153.0285 510.2916)" fill="#00379F" cx="198.596" cy="337.647" rx="11.7" ry="10.2"/>
			<path fill="#58FFFE" d="M193.4,335.6l-0.9,7.2l10.9,0.8l1-7.3l2.6,0.2l-7.6-6.7l-8.5,5.7L193.4,335.6z M196,339.7
				c0.1-1.4,1.1-2.5,2.2-2.4c1.1,0.1,1.9,1.3,1.8,2.7c-0.1,1.4-1.1,2.5-2.2,2.4C196.7,342.3,195.9,341.1,196,339.7z"/>
			
				<radialGradient id="SVGID_3_" cx="-504.7353" cy="628.3361" r="16.8104" gradientTransform="matrix(-0.9479 -0.032 -0.0271 0.8009 -262.8606 -184.8359)" gradientUnits="userSpaceOnUse">
				<stop  offset="0" style="stop-color:#02689B"/>
				<stop  offset="1" style="stop-color:#000000"/>
			</radialGradient>
			<path opacity="0.1" fill="url(#SVGID_3_)" enable-background="new    " d="M182.6,334c-0.3,7.4,6.7,13.7,15.5,14
				s16.1-5.5,16.4-12.9s-6.7-13.7-15.5-14C190.2,320.8,182.9,326.6,182.6,334z"/>
			<g>
				<path fill="#197DE5" d="M168.5,129c0.1,0,0.2,0,0.3-0.1c0.2-0.2,0.2-0.4,0-0.6l-1.2-1.4l1.6-1.5c0.2-0.2,0.2-0.4,0-0.6
					s-0.4-0.2-0.6,0l-2.3,2l1.8,2.1C168.2,128.9,168.3,129,168.5,129z"/>
			</g>
			<g>
				<path fill="#197DE5" d="M295.2,130.6c0.1,0,0.3,0,0.4-0.1l3.5-2.6l-2.8-3.4c-0.2-0.3-0.6-0.3-0.9-0.1c-0.3,0.2-0.3,0.6-0.1,0.9
					l2,2.3l-2.4,1.8c-0.3,0.2-0.3,0.6-0.1,0.9C294.8,130.6,295,130.6,295.2,130.6z"/>
			</g>
			
				<ellipse transform="matrix(0.1124 -0.9937 0.9937 0.1124 119.3131 391.4257)" fill="#0041AE" cx="278.755" cy="128.928" rx="15.001" ry="11.7"/>
			
				<radialGradient id="SVGID_4_" cx="-482.0468" cy="274.2546" r="13.4339" gradientTransform="matrix(-0.9479 -0.032 -0.0374 1.1061 -261.2735 -227.3756)" gradientUnits="userSpaceOnUse">
				<stop  offset="0" style="stop-color:#02689B"/>
				<stop  offset="0.1467" style="stop-color:#024F75"/>
				<stop  offset="0.3356" style="stop-color:#01334B"/>
				<stop  offset="0.5199" style="stop-color:#011D2B"/>
				<stop  offset="0.6958" style="stop-color:#000D13"/>
				<stop  offset="0.8598" style="stop-color:#000305"/>
				<stop  offset="1" style="stop-color:#000000"/>
			</radialGradient>
			<path opacity="0.1" fill="url(#SVGID_4_)" enable-background="new    " d="M172.7,91c-0.3,8.2,5.2,15.1,12.2,15.3
				c7,0.2,13-6.2,13.2-14.4c0.3-8.2-5.2-15.1-12.2-15.3C178.9,76.3,172.9,82.8,172.7,91z"/>
			
				<ellipse transform="matrix(0.1988 -0.98 0.98 0.1988 22.6849 284.5162)" fill="#0041AE" cx="185.356" cy="128.384" rx="13.899" ry="10.8"/>
			<g>
				<path fill="#58FFFE" d="M276.1,125.3c-0.1,1.5,0.9,2.7,2.1,2.8s2.3-1.1,2.4-2.5c0.1-1.5-0.9-2.7-2.1-2.8
					C277.2,122.7,276.2,123.8,276.1,125.3z"/>
				<path fill="#58FFFE" d="M278.2,128.7c2.2,0.1,3.8,2.3,3.7,4.9l-7.9-0.1C274.1,130.9,276,128.6,278.2,128.7z"/>
			</g>
			<g>
				<path fill="#58FFFE" d="M182.5,124.5c-0.1,1.4,0.8,2.6,2,2.7s2.2-1,2.3-2.5c0.1-1.4-0.8-2.6-2-2.7
					C183.6,122,182.6,123.1,182.5,124.5z"/>
				<path fill="#58FFFE" d="M184.5,127.9c2.1,0.1,3.7,2.2,3.6,4.8l-7.7-0.1C180.6,130,182.4,127.7,184.5,127.9z"/>
			</g>
			<path fill="#58FFFE" d="M149.3,300.9l-1.1,11.5c-0.3,2.7,1.3,5,3.7,5.2l112.5,9.1c2.6,0.2,5.1-2.3,5.2-5.3l0.6-10.5
				c0.1-2.6-1.4-4.7-3.7-4.9l-112-10C152,295.5,149.6,297.9,149.3,300.9z"/>
			<path fill="#15C4FE" d="M153.1,303l-0.7,7.7c-0.2,1.8,0.9,3.3,2.5,3.5l92.6,7.5c1.8,0.1,3.4-1.5,3.5-3.6l0.4-7
				c0.1-1.8-1-3.2-2.5-3.3l-92.2-8.1C154.9,299.4,153.3,301,153.1,303z"/>
			<path fill="#D49AF0" d="M235.3,343.9c-0.2,1.4,0.8,2.7,2.1,2.9c1.3,0.2,2.5-0.9,2.7-2.3s-0.8-2.7-2.1-2.9
				C236.7,341.5,235.5,342.5,235.3,343.9z"/>
			<path fill="#D49AF0" d="M158.3,338.3c-0.1,1.1,0.6,2,1.5,2.1c1,0.1,1.9-0.7,2-1.7c0.1-1.1-0.6-2-1.5-2.1
				C159.3,336.5,158.4,337.3,158.3,338.3z"/>
			<path fill="#197DE5" d="M158.8,311.8L158.8,311.8c-0.3,0-0.4-0.3-0.4-0.5l1-8.6c0-0.3,0.3-0.5,0.5-0.5l0,0c0.3,0,0.4,0.3,0.4,0.5
				l-1,8.6C159.3,311.5,159.1,311.8,158.8,311.8z"/>
			<polygon fill="#15C4FE" points="255.6,309.7 266.2,315 258.4,314.2 			"/>
			<polygon fill="#15C4FE" points="254.9,319.3 258.2,315.5 266,315.9 			"/>
			<g>
				<path fill="#58FFFE" d="M155.7,286c-0.1,2.4-2.1,4.3-4.3,4.2c-2.3-0.1-4-2.2-3.8-4.7c0.1-2.4,2.1-4.3,4.3-4.2
					C154.1,281.5,155.8,283.6,155.7,286z"/>
				<path fill="#15C4FE" d="M150.3,285.9c0,0.4-0.3,0.6-0.6,0.6s-0.6-0.3-0.6-0.7c0-0.4,0.3-0.6,0.6-0.6
					C150,285.2,150.3,285.5,150.3,285.9z"/>
				<path fill="#15C4FE" d="M152.2,286c0,0.4-0.3,0.6-0.6,0.6s-0.6-0.3-0.6-0.7c0-0.4,0.3-0.6,0.6-0.6
					C152,285.3,152.3,285.6,152.2,286z"/>
				<path fill="#15C4FE" d="M154.2,286.1c0,0.4-0.3,0.6-0.6,0.6s-0.6-0.3-0.6-0.7s0.3-0.6,0.6-0.6
					C154,285.4,154.2,285.7,154.2,286.1z"/>
				<path fill="#58FFFE" d="M148.7,288.2l-0.5,2.4l2.4-0.9C150.5,289.7,149.6,289.2,148.7,288.2z"/>
			</g>
		</g>
	</g>
	<g>
		<path fill="#1593EA" d="M166.6,311c-0.2,0.1-0.7,0.2-1.4,0.1c-1.4-0.1-2.5-1.1-2.6-2.8c0-1.6,1.1-2.6,2.7-2.5c0.6,0,1,0.2,1.2,0.3
			l-0.2,0.5c-0.3-0.1-0.6-0.3-1-0.3c-1.2-0.1-2,0.6-2,2c0,1.3,0.7,2.1,2,2.2c0.4,0,0.8,0,1.1-0.1L166.6,311z"/>
		<path fill="#1593EA" d="M171.6,309c0,1.8-1,2.6-2.4,2.5s-2.3-1.2-2.3-2.8c0-1.6,1-2.6,2.4-2.5C170.7,306.3,171.6,307.4,171.6,309z
			 M167.6,308.7c0,1.1,0.6,2.1,1.7,2.2c1.1,0.1,1.6-0.8,1.6-2c0-1-0.6-2.1-1.7-2.2C168.2,306.6,167.6,307.6,167.6,308.7z"/>
		<path fill="#1593EA" d="M176.8,309.7c0-0.7-0.1-1.6-0.1-2.2l0,0c-0.2,0.6-0.4,1.2-0.6,1.9l-0.9,2.4h-0.5l-0.9-2.5
			c-0.3-0.7-0.5-1.4-0.6-2l0,0c0,0.6,0,1.5-0.1,2.3l-0.1,2.2h-0.6l0.3-5.1l0.8,0.1l0.9,2.5c0.2,0.6,0.4,1.2,0.5,1.8l0,0
			c0.1-0.5,0.3-1.1,0.5-1.7l0.9-2.4l0.8,0.1l0.4,5.2L177,312L176.8,309.7z"/>
		<path fill="#1593EA" d="M181.3,309.9l-2-0.2v1.9l2.2,0.2v0.6l-2.9-0.2l-0.1-5.1l2.8,0.2v0.6l-2.1-0.2v1.6l2,0.2L181.3,309.9z"/>
		<path fill="#1593EA" d="M182.4,312.4l-0.1-5.1l0.7,0.1l1.7,2.7c0.4,0.6,0.7,1.2,0.9,1.7l0,0c-0.1-0.7-0.1-1.3-0.1-2.1v-2.1h0.6
			l0.1,5.1l-0.7-0.1l-1.7-2.7c-0.4-0.6-0.7-1.2-1-1.8l0,0c0,0.6,0.1,1.3,0.1,2.1v2.2L182.4,312.4z"/>
		<path fill="#1593EA" d="M188.4,308.3l-1.6-0.1v-0.6l3.8,0.3v0.6l-1.6-0.1v4.6l-0.7-0.1L188.4,308.3z"/>
		<path fill="#1593EA" d="M191.5,311.5l-0.5,1.6l-0.7-0.1l1.7-5l0.8,0.1l1.8,5.3l-0.7-0.1l-0.6-1.7L191.5,311.5z M193.1,311.1
			l-0.5-1.5c-0.1-0.3-0.2-0.7-0.3-1l0,0c-0.1,0.3-0.2,0.6-0.2,0.9l-0.5,1.4L193.1,311.1z"/>
		<path fill="#1593EA" d="M195.3,308.3c0.3,0,0.8,0,1.3,0c0.7,0.1,1.2,0.2,1.5,0.5c0.3,0.2,0.4,0.6,0.4,1c0,0.7-0.4,1.1-1,1.2l0,0
			c0.4,0.2,0.6,0.6,0.8,1.1c0.2,0.7,0.3,1.2,0.4,1.4l-0.7-0.1c-0.1-0.2-0.2-0.6-0.4-1.3c-0.2-0.7-0.4-1-1-1.1H196v2.2l-0.7-0.1
			V308.3z M195.9,310.7l0.7,0.1c0.7,0.1,1.2-0.3,1.1-0.9c0-0.7-0.5-1-1.2-1c-0.3,0-0.5,0-0.7,0L195.9,310.7z"/>
	</g>
</g>
</svg>
