<?xml version="1.0" encoding="utf-8"?>
<!-- Generator: Adobe Illustrator 24.1.1, SVG Export Plug-In . SVG Version: 6.00 Build 0)  -->
<svg version="1.1" id="Capa_1" xmlns="http://www.w3.org/2000/svg" xmlns:xlink="http://www.w3.org/1999/xlink" x="0px" y="0px"
	 viewBox="0 0 404.2 440.1" enable-background="new 0 0 404.2 440.1" xml:space="preserve">
<g id="Capa_5">
	<g>
		<path fill="#65E8FA" d="M90.8,312.8l-35.4-1.7c-7-0.3-13.6-3.6-18.1-9.1c-4.4-5.5-6.4-12.6-5.3-19.5c1.9-12.2,12.2-21,24.5-21
			c0.3,0,0.6,0,0.9,0l35.4,1.3c7.2,0.3,14,3.6,18.5,9.2s6.4,12.9,5.2,20c-2.1,12-12.4,20.7-24.6,20.7
			C91.6,312.8,91.2,312.8,90.8,312.8z M33.4,282.7c-1,6.6,0.8,13.3,5,18.5s10.4,8.3,17.1,8.6l35.4,1.7c12,0.5,22.4-7.9,24.4-19.6
			c1.2-6.7-0.6-13.6-4.9-19c-4.3-5.3-10.7-8.5-17.5-8.8l-35.4-1.3c-0.3,0-0.6,0-0.9,0C45,262.8,35.2,271.2,33.4,282.7z"/>
	</g>
	<path fill="#F73535" d="M92.4,276.6L57,275.3c-5.6-0.2-10.5,3.8-11.3,9.3l0,0c-1,6.5,3.8,12.4,10.4,12.8l35.4,1.7
		c5.7,0.3,10.6-3.7,11.6-9.3l0,0C104.2,283,99.2,276.8,92.4,276.6z"/>
	<g>
		<path fill="#FFFFFF" d="M73.5,290.7c0.2,0,0.4-0.1,0.6-0.2l5.5-4.1c0.5-0.3,0.6-1,0.2-1.5c-0.3-0.5-1-0.6-1.5-0.2l-4.8,3.6
			l-6.1-6.8c-0.4-0.4-1-0.5-1.5-0.1c-0.4,0.4-0.5,1-0.1,1.5l6.7,7.6C72.9,290.6,73.2,290.7,73.5,290.7z"/>
	</g>
</g>
</svg>
