<?xml version="1.0" encoding="utf-8"?>
<!-- Generator: Adobe Illustrator 24.1.1, SVG Export Plug-In . SVG Version: 6.00 Build 0)  -->
<svg version="1.1" id="Capa_1" xmlns="http://www.w3.org/2000/svg" xmlns:xlink="http://www.w3.org/1999/xlink" x="0px" y="0px"
	 viewBox="0 0 404.2 440.1" enable-background="new 0 0 404.2 440.1" xml:space="preserve">
<g id="Capa_6">
	<path opacity="0.12" fill="#0A1A4C" enable-background="new    " d="M141.2,258.2l75.7,5c5.6,0.4,10.5-3.7,11.2-9.3l8.6-76
		c0.7-6.1-3.9-11.4-10-11.7l-76-3.8c-5.6-0.3-10.4,3.8-11,9.4l-8.4,74.8C130.7,252.5,135.1,257.9,141.2,258.2z"/>
	<path fill="#197DE3" d="M122.2,250.9l83.3,3.5c6.3,0.3,11.7-4.4,12.4-10.7l9.4-82.8c0.8-7.1-4.7-13.3-11.8-13.4l-81.4-0.7
		c-6,0-11.2,4.4-12,10.3l-11.3,80C109.8,244.2,115.1,250.6,122.2,250.9z"/>
	<path fill="#58FFFC" d="M179.3,172.5c0,0-3.8,5.4-10.6,4.8c-6.8-0.6-9.3-5.9-9.3-5.9l-3.2-0.3l-10.8,10.5l7.6,7.9l3.4-3.1
		l-1.6,19.3l23.1,1.9l1.5-18.4l2.9,4l8.2-7.5l-8.2-13L179.3,172.5z"/>
	<polygon fill="#19A0FC" points="200,153.5 148.2,153 147,160.5 199.1,161.3 	"/>
	<polygon fill="#19A0FC" points="209.6,233.4 157.5,231.9 157.2,235.5 209.3,236.9 	"/>
	<polygon fill="#19A0FC" points="210.2,227.4 158.1,226.5 157.8,229.5 209.9,230.9 	"/>
	<polygon fill="#19A0FC" points="208.8,239.4 184.6,238.7 184.4,242.2 208.6,242.9 	"/>
	
		<radialGradient id="SVGID_1_" cx="-29.9189" cy="220.4492" r="48.9013" gradientTransform="matrix(-0.7562 -0.0256 0.0234 -0.6931 141.4669 345.5774)" gradientUnits="userSpaceOnUse">
		<stop  offset="0" style="stop-color:#026899"/>
		<stop  offset="0.071" style="stop-color:#025C88"/>
		<stop  offset="0.2933" style="stop-color:#013C58"/>
		<stop  offset="0.5045" style="stop-color:#012232"/>
		<stop  offset="0.6986" style="stop-color:#000F16"/>
		<stop  offset="0.8699" style="stop-color:#000406"/>
		<stop  offset="1" style="stop-color:#000000"/>
	</radialGradient>
	<path opacity="0.12" fill="url(#SVGID_1_)" enable-background="new    " d="M132.3,192.3c-0.6,18.7,15.4,34.4,35.8,35.1
		c20.4,0.7,37.5-13.9,38.1-32.6s-15.4-34.4-35.8-35.1C149.9,159,132.9,173.6,132.3,192.3z"/>
	<g>
		<path fill="#FFC3EE" d="M133.2,242.8c-0.1,1,0.6,1.9,1.5,2s1.8-0.6,1.9-1.7c0.1-1-0.6-1.9-1.5-2
			C134.2,241.1,133.4,241.8,133.2,242.8z"/>
		<path fill="#FFC3EE" d="M127.9,242.9c-0.1,1,0.6,1.9,1.5,2s1.8-0.6,1.9-1.7c0.1-1-0.6-1.9-1.5-2
			C128.9,241.1,128,241.9,127.9,242.9z"/>
		<path fill="#FFC3EE" d="M123,242.9c-0.1,1,0.6,1.9,1.5,2s1.8-0.6,1.9-1.7c0.1-1-0.6-1.9-1.5-2C124,241.2,123.2,241.9,123,242.9z"
			/>
	</g>
</g>
</svg>
