<?xml version="1.0" encoding="utf-8"?>
<!-- Generator: Adobe Illustrator 24.1.1, SVG Export Plug-In . SVG Version: 6.00 Build 0)  -->
<svg version="1.1" id="Capa_1" xmlns="http://www.w3.org/2000/svg" xmlns:xlink="http://www.w3.org/1999/xlink" x="0px" y="0px"
	 viewBox="0 0 404.2 440.1" enable-background="new 0 0 404.2 440.1" xml:space="preserve">
<g id="Capa_2_1_">
	<g>
		
			<radialGradient id="SVGID_1_" cx="-356.7108" cy="269.0687" r="54.8154" gradientTransform="matrix(-1 0 0 -1 -36.1527 441.2756)" gradientUnits="userSpaceOnUse">
			<stop  offset="0" style="stop-color:#000000"/>
			<stop  offset="0.1403" style="stop-color:#000404"/>
			<stop  offset="0.284" style="stop-color:#000F10"/>
			<stop  offset="0.4294" style="stop-color:#002225"/>
			<stop  offset="0.576" style="stop-color:#013C42"/>
			<stop  offset="0.7234" style="stop-color:#015E67"/>
			<stop  offset="0.8695" style="stop-color:#028793"/>
			<stop  offset="1" style="stop-color:#02B1C2"/>
		</radialGradient>
		<path opacity="0.5" fill="url(#SVGID_1_)" enable-background="new    " d="M274.8,221.2l81.3,3.4c6.1,0.3,11.4-4.3,12.1-10.4
			l9.1-80.8c0.8-6.9-4.6-13-11.6-13l-79.5-0.6c-5.9,0-10.9,4.3-11.7,10.1l-11,78C262.8,214.7,267.9,220.9,274.8,221.2z"/>
		<path fill="#27D7F7" d="M274.8,221.2l81.3,3.4c6.1,0.3,11.4-4.3,12.1-10.4l9.1-80.8c0.2-2.2-0.1-4.3-0.9-6.1
			c1.8,2.3,2.8,5.3,2.4,8.6l-9.1,80.8c-0.7,6.1-6,10.7-12.1,10.4l-81.3-3.4c-4.6-0.2-8.4-3-10.2-6.9
			C268.2,219.3,271.3,221,274.8,221.2z"/>
	</g>
	<g>
		<polygon fill-rule="evenodd" clip-rule="evenodd" fill="#65E8FA" points="332.7,161.4 329.2,178.9 303.2,178.9 303.2,161.3 		"/>
		<path fill-rule="evenodd" clip-rule="evenodd" fill="#65E8FA" d="M304.9,178.9L304.9,178.9c0.9,0,1.7-0.8,1.7-1.7v-20.7
			c0-0.9-0.8-1.7-1.7-1.7l0,0c-0.9,0-1.7,0.8-1.7,1.7v20.7C303.2,178.1,303.9,178.9,304.9,178.9z"/>
		<path fill-rule="evenodd" clip-rule="evenodd" fill="#65E8FA" d="M324.8,183.9L324.8,183.9c0-0.5-0.4-0.9-0.8-0.9h-16.5
			c-0.5,0-0.8,0.4-0.8,0.8v0.1c0,0.5,0.4,0.8,0.8,0.8H324C324.4,184.8,324.8,184.4,324.8,183.9z"/>
		<path fill-rule="evenodd" clip-rule="evenodd" fill="#65E8FA" d="M308.9,175.6h-0.5c-0.3,0-0.6,0.3-0.6,0.6v7.9
			c0,0.3,0.3,0.6,0.6,0.6h0.5c0.3,0,0.6-0.3,0.6-0.6v-7.9C309.5,175.8,309.3,175.6,308.9,175.6z"/>
		<path fill-rule="evenodd" clip-rule="evenodd" fill="#65E8FA" d="M306,157.5L306,157.5c0.7-0.6,0.8-1.7,0.1-2.4l-4.4-5
			c-0.6-0.7-1.7-0.8-2.4-0.1l0,0c-0.7,0.6-0.8,1.7-0.1,2.4l4.4,5C304.2,158.1,305.3,158.2,306,157.5z"/>
		<path fill-rule="evenodd" clip-rule="evenodd" fill="#65E8FA" d="M319.7,183.9c0,2.1,1.7,3.8,3.8,3.8c2.1,0,3.8-1.7,3.8-3.8
			s-1.7-3.8-3.8-3.8C321.4,180.1,319.7,181.8,319.7,183.9z"/>
		<circle fill-rule="evenodd" clip-rule="evenodd" fill="#65E8FA" cx="308.7" cy="183.9" r="3.8"/>
	</g>
	<g>
		<path fill="#FFFFFF" d="M289.5,205.1c0,0.3-0.1,0.6-0.3,0.9c-0.2,0.3-0.4,0.6-0.8,0.9s-0.8,0.5-1.3,0.7s-1.1,0.2-1.8,0.2
			c-0.5,0-1-0.1-1.4-0.2s-0.8-0.3-1.1-0.5c-0.3-0.2-0.6-0.5-0.9-0.8c-0.2-0.3-0.5-0.6-0.6-1c-0.2-0.4-0.3-0.7-0.4-1.1
			c-0.1-0.4-0.1-0.8-0.1-1.3c0-0.7,0.2-1.4,0.4-1.9c0.3-0.6,0.6-1,1-1.4s1-0.7,1.5-0.9c0.6-0.2,1.2-0.3,1.8-0.2
			c0.8,0,1.5,0.2,2.1,0.5s1.1,0.7,1.4,1.1c0.3,0.4,0.5,0.8,0.4,1.2c0,0.2-0.1,0.4-0.3,0.5c-0.2,0.2-0.4,0.2-0.6,0.2
			c-0.3,0-0.4-0.1-0.6-0.2c-0.1-0.1-0.3-0.3-0.4-0.6c-0.2-0.5-0.5-0.8-0.9-1c-0.3-0.2-0.8-0.4-1.3-0.4c-0.8,0-1.5,0.2-2,0.8
			c-0.5,0.5-0.8,1.3-0.8,2.4c0,0.7,0.1,1.3,0.2,1.7c0.2,0.5,0.5,0.8,0.9,1.1c0.4,0.2,0.8,0.4,1.4,0.4s1-0.1,1.5-0.3
			c0.4-0.2,0.7-0.6,0.9-1.1c0.1-0.2,0.2-0.4,0.3-0.6c0.1-0.1,0.3-0.2,0.6-0.2c0.2,0,0.4,0.1,0.6,0.3
			C289.4,204.7,289.5,204.9,289.5,205.1z"/>
		<path fill="#FFFFFF" d="M295.8,199.1c1,0,1.9,0.3,2.6,0.7s1.2,1,1.6,1.7c0.3,0.7,0.5,1.5,0.5,2.5c0,0.7-0.2,1.3-0.4,1.9
			c-0.2,0.6-0.6,1-1,1.4s-0.9,0.7-1.5,0.9s-1.3,0.3-2,0.2c-0.8,0-1.4-0.2-2-0.4c-0.6-0.3-1.1-0.6-1.5-1s-0.7-0.9-0.9-1.5
			c-0.2-0.6-0.3-1.2-0.2-1.9c0-0.7,0.2-1.3,0.4-1.9c0.2-0.6,0.6-1,1-1.4s0.9-0.7,1.5-0.9C294.4,199.2,295,199.1,295.8,199.1z
			 M298.4,203.8c0-0.7-0.1-1.2-0.3-1.7c-0.2-0.5-0.5-0.9-0.9-1.1c-0.4-0.3-0.9-0.4-1.5-0.4c-0.4,0-0.8,0-1.1,0.2s-0.6,0.3-0.9,0.6
			c-0.3,0.2-0.5,0.6-0.6,1c-0.2,0.4-0.2,0.8-0.3,1.3c0,0.5,0,1,0.2,1.4c0.1,0.4,0.3,0.8,0.5,1s0.5,0.5,0.8,0.6s0.7,0.2,1.1,0.3
			c0.5,0,1-0.1,1.4-0.3s0.8-0.6,1.1-1C298.2,205.1,298.4,204.5,298.4,203.8z"/>
		<path fill="#FFFFFF" d="M305.2,207.3l-1.3-5.7l-0.3,6.1c0,0.3-0.1,0.6-0.3,0.8c-0.2,0.2-0.4,0.2-0.7,0.2c-0.3,0-0.5-0.1-0.6-0.3
			c-0.2-0.2-0.2-0.4-0.2-0.8l0.3-7c0-0.4,0.1-0.6,0.4-0.8c0.2-0.1,0.5-0.2,0.9-0.2h0.6c0.4,0,0.6,0.1,0.8,0.1
			c0.2,0.1,0.3,0.2,0.4,0.3c0.1,0.2,0.2,0.4,0.2,0.8l1.2,4.9l1.6-4.8c0.1-0.4,0.2-0.6,0.3-0.8c0.1-0.2,0.2-0.3,0.4-0.3
			c0.2-0.1,0.4-0.1,0.8-0.1h0.6c0.4,0,0.7,0.1,0.9,0.2c0.2,0.1,0.3,0.4,0.3,0.8l-0.3,7c0,0.3-0.1,0.6-0.3,0.8
			c-0.2,0.2-0.4,0.2-0.7,0.2c-0.3,0-0.5-0.1-0.6-0.3c-0.2-0.2-0.2-0.4-0.2-0.8l0.3-6.1l-1.8,5.6c-0.1,0.4-0.2,0.6-0.3,0.8
			c-0.1,0.2-0.2,0.3-0.4,0.5c-0.2,0.1-0.4,0.2-0.7,0.2c-0.2,0-0.4-0.1-0.6-0.2c-0.2-0.1-0.3-0.2-0.4-0.4c-0.1-0.1-0.1-0.3-0.2-0.5
			C305.3,207.7,305.3,207.5,305.2,207.3z"/>
		<path fill="#FFFFFF" d="M317.1,205.7l-1.8-0.1l-0.1,2.5c0,0.4-0.1,0.6-0.3,0.8c-0.2,0.2-0.4,0.3-0.7,0.2c-0.3,0-0.5-0.1-0.7-0.3
			s-0.3-0.5-0.2-0.8l0.3-6.9c0-0.4,0.1-0.7,0.3-0.8s0.5-0.2,1-0.2l2.5,0.1c0.7,0,1.3,0.1,1.7,0.2c0.4,0.1,0.7,0.3,1,0.6
			s0.5,0.5,0.6,0.9c0.1,0.3,0.2,0.7,0.2,1.2c0,0.9-0.4,1.6-1,2C319.2,205.6,318.3,205.8,317.1,205.7z M316.8,201.6l-1.3-0.1
			l-0.1,2.7l1.3,0.1c0.5,0,0.9,0,1.2-0.1c0.3-0.1,0.6-0.2,0.7-0.4c0.2-0.2,0.3-0.5,0.3-0.8c0-0.4-0.1-0.7-0.3-1
			C318.2,201.8,317.7,201.7,316.8,201.6z"/>
		<path fill="#FFFFFF" d="M325,205.7h-0.7l-0.1,2.9c0,0.4-0.1,0.6-0.3,0.8c-0.2,0.2-0.4,0.2-0.7,0.2c-0.3,0-0.6-0.1-0.7-0.3
			c-0.2-0.2-0.2-0.5-0.2-0.8l0.3-6.9c0-0.4,0.1-0.7,0.3-0.8s0.5-0.2,0.9-0.2l3.2,0.1c0.4,0,0.8,0.1,1.1,0.1c0.3,0,0.6,0.1,0.8,0.2
			c0.3,0.1,0.6,0.3,0.8,0.5c0.2,0.2,0.4,0.5,0.5,0.8s0.2,0.6,0.1,0.9c0,0.7-0.3,1.2-0.7,1.6c-0.4,0.4-1.1,0.6-1.9,0.8
			c0.3,0.2,0.7,0.5,1,0.8s0.6,0.7,0.8,1.1c0.2,0.4,0.4,0.7,0.5,1s0.2,0.5,0.2,0.6s0,0.2-0.1,0.3s-0.2,0.2-0.3,0.3s-0.3,0.1-0.5,0.1
			s-0.4-0.1-0.6-0.2s-0.3-0.2-0.4-0.4s-0.2-0.4-0.4-0.7l-0.7-1.2c-0.3-0.5-0.5-0.8-0.7-1s-0.4-0.4-0.7-0.5
			C325.7,205.8,325.4,205.8,325,205.7z M326.3,202.1l-1.8-0.1l-0.1,2.4l1.8,0.1c0.5,0,0.9,0,1.2-0.1c0.3-0.1,0.6-0.2,0.8-0.3
			c0.2-0.2,0.3-0.4,0.3-0.7c0-0.2,0-0.5-0.2-0.7c-0.1-0.2-0.3-0.3-0.6-0.4C327.4,202.2,327,202.1,326.3,202.1z"/>
		<path fill="#FFFFFF" d="M338.3,209.2l-0.4-1.1l-3.9-0.2l-0.5,1.1c-0.2,0.4-0.4,0.7-0.5,0.9c-0.1,0.1-0.3,0.2-0.6,0.2
			c-0.2,0-0.5-0.1-0.6-0.3c-0.2-0.2-0.3-0.4-0.3-0.6c0-0.1,0-0.2,0.1-0.4c0-0.1,0.1-0.3,0.2-0.5l2.7-5.7c0.1-0.2,0.2-0.4,0.3-0.6
			c0.1-0.2,0.2-0.4,0.3-0.6c0.1-0.1,0.3-0.3,0.5-0.4s0.4-0.1,0.7-0.1c0.3,0,0.5,0.1,0.7,0.2s0.3,0.2,0.4,0.4s0.2,0.3,0.3,0.5
			c0.1,0.2,0.2,0.4,0.3,0.7l2.3,5.9c0.2,0.4,0.3,0.8,0.3,1s-0.1,0.4-0.3,0.6c-0.2,0.2-0.4,0.2-0.7,0.2c-0.2,0-0.3,0-0.4-0.1
			s-0.2-0.1-0.3-0.2c-0.1-0.1-0.1-0.2-0.2-0.4C338.4,209.5,338.3,209.3,338.3,209.2z M334.5,206.5l2.9,0.1l-1.3-3.7L334.5,206.5z"/>
		<path fill="#FFFFFF" d="M344.6,206.7h-0.7l-0.1,2.9c0,0.4-0.1,0.6-0.3,0.8c-0.2,0.2-0.4,0.2-0.7,0.2c-0.3,0-0.6-0.1-0.7-0.3
			c-0.2-0.2-0.2-0.5-0.2-0.8l0.3-6.9c0-0.4,0.1-0.7,0.3-0.8c0.2-0.2,0.5-0.2,0.9-0.2l3.2,0.1c0.4,0,0.8,0.1,1.1,0.1
			c0.3,0,0.6,0.1,0.8,0.2c0.3,0.1,0.6,0.3,0.8,0.5c0.2,0.2,0.4,0.5,0.5,0.8s0.2,0.6,0.1,0.9c0,0.7-0.3,1.2-0.7,1.6
			c-0.4,0.4-1.1,0.6-1.9,0.8c0.3,0.2,0.7,0.5,1,0.8s0.6,0.7,0.8,1.1c0.2,0.4,0.4,0.7,0.5,1s0.2,0.5,0.2,0.6s-0.1,0.2-0.1,0.3
			c-0.1,0.1-0.2,0.2-0.3,0.3c-0.1,0.1-0.3,0.1-0.5,0.1s-0.4-0.1-0.5-0.2c-0.1-0.1-0.3-0.2-0.4-0.4s-0.2-0.4-0.4-0.7l-0.7-1.2
			c-0.3-0.5-0.5-0.8-0.7-1s-0.4-0.4-0.7-0.5S344.9,206.7,344.6,206.7z M345.8,203l-1.8-0.1l-0.1,2.4l1.8,0.1c0.5,0,0.9,0,1.2-0.1
			c0.3-0.1,0.6-0.2,0.8-0.3c0.2-0.2,0.3-0.4,0.3-0.7c0-0.2,0-0.5-0.2-0.7c-0.1-0.2-0.3-0.3-0.6-0.4C347,203.1,346.5,203,345.8,203z"
			/>
	</g>
</g>
</svg>
