<?xml version="1.0" encoding="utf-8"?>
<!-- Generator: Adobe Illustrator 24.1.1, SVG Export Plug-In . SVG Version: 6.00 Build 0)  -->
<svg version="1.1" id="Capa_1" xmlns="http://www.w3.org/2000/svg" xmlns:xlink="http://www.w3.org/1999/xlink" x="0px" y="0px"
	 viewBox="0 0 404.2 440.1" enable-background="new 0 0 404.2 440.1" xml:space="preserve">
<g id="Capa_4">
	<g>
		
			<radialGradient id="SVGID_1_" cx="-126.7813" cy="272.4703" r="64.8371" gradientTransform="matrix(-1 0 0 -1 -36.1527 441.2756)" gradientUnits="userSpaceOnUse">
			<stop  offset="0" style="stop-color:#000000"/>
			<stop  offset="0.1403" style="stop-color:#000404"/>
			<stop  offset="0.284" style="stop-color:#000F10"/>
			<stop  offset="0.4294" style="stop-color:#002225"/>
			<stop  offset="0.576" style="stop-color:#013C42"/>
			<stop  offset="0.7234" style="stop-color:#015E67"/>
			<stop  offset="0.8695" style="stop-color:#028793"/>
			<stop  offset="1" style="stop-color:#02B1C2"/>
		</radialGradient>
		<path opacity="0.5" fill="url(#SVGID_1_)" enable-background="new    " d="M36.5,226.9l96.3,4c7.3,0.3,13.6-5.1,14.4-12.3
			l10.8-95.7c0.9-8.2-5.4-15.4-13.7-15.4l-94.1-0.8c-7-0.1-12.9,5.1-13.9,11.9l-13,92.4C22.2,219.2,28.3,226.5,36.5,226.9z"/>
		<path fill="#27D7F7" d="M36,226.3l96.3,4c7.3,0.3,13.6-5.1,14.4-12.3l10.8-95.7c0.3-2.6-0.1-5-1.1-7.2c2.2,2.8,3.3,6.3,2.9,10.1
			l-10.8,95.7c-0.8,7.2-7.1,12.6-14.4,12.3l-96.3-4c-5.4-0.2-10-3.6-12-8.1C28.1,224.1,31.8,226.1,36,226.3z"/>
	</g>
	<g>
		<polygon fill-rule="evenodd" clip-rule="evenodd" fill="#65E8FA" points="105.4,155.6 101.8,173 75.8,173 75.8,155.4 		"/>
		<path fill-rule="evenodd" clip-rule="evenodd" fill="#65E8FA" d="M77.5,173L77.5,173c0.9,0,1.7-0.8,1.7-1.7v-20.7
			c0-0.9-0.8-1.7-1.7-1.7l0,0c-0.9,0-1.7,0.8-1.7,1.7v20.7C75.8,172.3,76.6,173,77.5,173z"/>
		<path fill-rule="evenodd" clip-rule="evenodd" fill="#65E8FA" d="M97.4,178.1L97.4,178.1c0-0.5-0.4-0.9-0.8-0.9H80.1
			c-0.5,0-0.8,0.4-0.8,0.8v0.1c0,0.5,0.4,0.8,0.8,0.8h16.5C97.1,178.9,97.4,178.5,97.4,178.1z"/>
		<path fill-rule="evenodd" clip-rule="evenodd" fill="#65E8FA" d="M81.6,169.7H81c-0.3,0-0.6,0.3-0.6,0.6v7.9
			c0,0.3,0.3,0.6,0.6,0.6h0.5c0.3,0,0.6-0.3,0.6-0.6v-7.9C82.2,170,81.9,169.7,81.6,169.7z"/>
		<path fill-rule="evenodd" clip-rule="evenodd" fill="#65E8FA" d="M78.7,151.7L78.7,151.7c0.7-0.6,0.8-1.7,0.1-2.4l-4.4-5
			c-0.6-0.7-1.7-0.8-2.4-0.1l0,0c-0.7,0.6-0.8,1.7-0.1,2.4l4.4,5C76.9,152.3,77.9,152.3,78.7,151.7z"/>
		<circle fill-rule="evenodd" clip-rule="evenodd" fill="#65E8FA" cx="96.1" cy="178" r="3.8"/>
		<path fill-rule="evenodd" clip-rule="evenodd" fill="#65E8FA" d="M77.5,178c0,2.1,1.7,3.8,3.8,3.8c2.1,0,3.8-1.7,3.8-3.8
			s-1.7-3.8-3.8-3.8C79.2,174.3,77.5,176,77.5,178z"/>
	</g>
	<g>
		<path fill="#FFFFFF" d="M65.3,203.9c0,0.3-0.1,0.6-0.3,0.9c-0.2,0.3-0.4,0.6-0.8,0.9c-0.3,0.3-0.8,0.5-1.3,0.7s-1.1,0.2-1.8,0.2
			c-0.5,0-1-0.1-1.4-0.2c-0.4-0.1-0.8-0.3-1.1-0.5s-0.6-0.5-0.9-0.8c-0.2-0.3-0.5-0.6-0.6-1s-0.3-0.7-0.4-1.1
			c-0.1-0.4-0.1-0.8-0.1-1.3c0-0.7,0.2-1.4,0.4-1.9c0.3-0.6,0.6-1,1-1.4s1-0.7,1.5-0.9c0.6-0.2,1.2-0.3,1.8-0.2
			c0.8,0,1.5,0.2,2.1,0.5s1.1,0.7,1.4,1.1c0.3,0.4,0.5,0.8,0.4,1.2c0,0.2-0.1,0.4-0.3,0.5c-0.2,0.2-0.4,0.2-0.6,0.2
			c-0.3,0-0.4-0.1-0.6-0.2c-0.1-0.1-0.3-0.3-0.4-0.6c-0.2-0.5-0.5-0.8-0.9-1c-0.3-0.2-0.8-0.4-1.3-0.4c-0.8,0-1.5,0.2-2,0.8
			c-0.5,0.5-0.8,1.3-0.8,2.4c0,0.7,0.1,1.3,0.2,1.7c0.2,0.5,0.5,0.8,0.9,1.1c0.4,0.2,0.8,0.4,1.4,0.4c0.6,0,1-0.1,1.5-0.3
			c0.4-0.2,0.7-0.6,0.9-1.1c0.1-0.2,0.2-0.4,0.3-0.6c0.1-0.1,0.3-0.2,0.6-0.2c0.2,0,0.4,0.1,0.6,0.3
			C65.2,203.5,65.3,203.7,65.3,203.9z"/>
		<path fill="#FFFFFF" d="M71.6,198c1,0,1.9,0.3,2.6,0.7s1.2,1,1.6,1.7s0.5,1.5,0.5,2.5c0,0.7-0.2,1.3-0.4,1.9c-0.2,0.6-0.6,1-1,1.4
			s-0.9,0.7-1.5,0.9s-1.3,0.3-2,0.2c-0.8,0-1.4-0.2-2-0.4c-0.6-0.3-1.1-0.6-1.5-1s-0.7-0.9-0.9-1.5c-0.2-0.6-0.3-1.2-0.2-1.9
			c0-0.7,0.2-1.3,0.4-1.9c0.2-0.6,0.6-1,1-1.4s0.9-0.7,1.5-0.9C70.2,198,70.8,197.9,71.6,198z M74.2,202.7c0-0.7-0.1-1.2-0.3-1.7
			c-0.2-0.5-0.5-0.9-0.9-1.1c-0.4-0.3-0.9-0.4-1.5-0.4c-0.4,0-0.8,0-1.1,0.2c-0.3,0.1-0.6,0.3-0.9,0.6c-0.3,0.2-0.5,0.6-0.6,1
			c-0.2,0.4-0.2,0.8-0.3,1.3c0,0.5,0,1,0.2,1.4c0.1,0.4,0.3,0.8,0.5,1c0.2,0.3,0.5,0.5,0.8,0.6s0.7,0.2,1.1,0.3c0.5,0,1-0.1,1.4-0.3
			s0.8-0.6,1.1-1C74,204,74.2,203.4,74.2,202.7z"/>
		<path fill="#FFFFFF" d="M81,206.1l-1.3-5.7l-0.3,6.1c0,0.3-0.1,0.6-0.3,0.8c-0.2,0.2-0.4,0.2-0.7,0.2c-0.3,0-0.5-0.1-0.6-0.3
			s-0.2-0.4-0.2-0.8l0.3-7c0-0.4,0.1-0.6,0.4-0.8c0.2-0.1,0.5-0.2,0.9-0.2h0.6c0.4,0,0.6,0.1,0.8,0.1c0.2,0.1,0.3,0.2,0.4,0.3
			c0.1,0.2,0.2,0.4,0.2,0.8l1.2,4.9l1.6-4.8c0.1-0.4,0.2-0.6,0.3-0.8c0.1-0.2,0.2-0.3,0.4-0.3c0.2-0.1,0.4-0.1,0.8-0.1h0.6
			c0.4,0,0.7,0.1,0.9,0.2c0.2,0.1,0.3,0.4,0.3,0.8l-0.3,7c0,0.3-0.1,0.6-0.3,0.8c-0.2,0.2-0.4,0.2-0.7,0.2c-0.3,0-0.5-0.1-0.6-0.3
			s-0.2-0.4-0.2-0.8l0.3-6.1l-1.8,5.6c-0.1,0.4-0.2,0.6-0.3,0.8c-0.1,0.2-0.2,0.3-0.4,0.5c-0.2,0.1-0.4,0.2-0.7,0.2
			c-0.2,0-0.4-0.1-0.6-0.2c-0.2-0.1-0.3-0.2-0.4-0.4c-0.1-0.1-0.1-0.3-0.2-0.5C81.1,206.5,81.1,206.3,81,206.1z"/>
		<path fill="#FFFFFF" d="M92.9,204.6l-1.8-0.1L91,207c0,0.4-0.1,0.6-0.3,0.8c-0.2,0.2-0.4,0.3-0.7,0.2c-0.3,0-0.5-0.1-0.7-0.3
			s-0.3-0.5-0.2-0.8l0.3-6.9c0-0.4,0.1-0.7,0.3-0.8c0.2-0.2,0.5-0.2,1-0.2l2.5,0.1c0.7,0,1.3,0.1,1.7,0.2c0.4,0.1,0.7,0.3,1,0.6
			c0.3,0.2,0.5,0.5,0.6,0.9c0.1,0.3,0.2,0.7,0.2,1.2c0,0.9-0.4,1.6-1,2C95,204.4,94.1,204.6,92.9,204.6z M92.6,200.4l-1.3-0.1
			l-0.1,2.7l1.3,0.1c0.5,0,0.9,0,1.2-0.1c0.3-0.1,0.6-0.2,0.7-0.4s0.3-0.5,0.3-0.8c0-0.4-0.1-0.7-0.3-1
			C94,200.6,93.5,200.5,92.6,200.4z"/>
		<path fill="#FFFFFF" d="M100.8,204.6h-0.7l-0.1,2.9c0,0.4-0.1,0.6-0.3,0.8c-0.2,0.2-0.4,0.2-0.7,0.2c-0.3,0-0.6-0.1-0.7-0.3
			c-0.2-0.2-0.2-0.5-0.2-0.8l0.3-6.9c0-0.4,0.1-0.7,0.3-0.8c0.2-0.2,0.5-0.2,0.9-0.2l3.2,0.1c0.4,0,0.8,0.1,1.1,0.1
			c0.3,0,0.6,0.1,0.8,0.2c0.3,0.1,0.6,0.3,0.8,0.5c0.2,0.2,0.4,0.5,0.5,0.8s0.2,0.6,0.1,0.9c0,0.7-0.3,1.2-0.7,1.6
			c-0.4,0.4-1.1,0.6-1.9,0.8c0.3,0.2,0.7,0.5,1,0.8s0.6,0.7,0.8,1.1c0.2,0.4,0.4,0.7,0.5,1s0.2,0.5,0.2,0.6s-0.1,0.2-0.1,0.3
			s-0.2,0.2-0.3,0.3c-0.1,0.1-0.3,0.1-0.5,0.1s-0.4-0.1-0.5-0.2c-0.1-0.1-0.3-0.2-0.4-0.4s-0.2-0.4-0.4-0.7l-0.7-1.2
			c-0.3-0.5-0.5-0.8-0.7-1s-0.4-0.4-0.7-0.5C101.5,204.7,101.2,204.6,100.8,204.6z M102.1,200.9l-1.8-0.1l-0.1,2.4l1.8,0.1
			c0.5,0,0.9,0,1.2-0.1c0.3-0.1,0.6-0.2,0.8-0.3c0.2-0.2,0.3-0.4,0.3-0.7c0-0.2,0-0.5-0.2-0.7c-0.1-0.2-0.3-0.3-0.6-0.4
			C103.2,201,102.8,200.9,102.1,200.9z"/>
		<path fill="#FFFFFF" d="M114.1,208l-0.4-1.1l-4-0.2l-0.5,1.1c-0.2,0.4-0.4,0.7-0.5,0.9c-0.1,0.1-0.3,0.2-0.6,0.2
			c-0.2,0-0.5-0.1-0.6-0.3c-0.2-0.2-0.3-0.4-0.3-0.6c0-0.1,0-0.2,0.1-0.4c0-0.1,0.1-0.3,0.2-0.5l2.7-5.7c0.1-0.2,0.2-0.4,0.3-0.6
			c0.1-0.2,0.2-0.4,0.3-0.6c0.1-0.1,0.3-0.3,0.5-0.4c0.2-0.1,0.4-0.1,0.7-0.1c0.3,0,0.5,0.1,0.7,0.2c0.2,0.1,0.3,0.2,0.4,0.4
			s0.2,0.3,0.3,0.5c0.1,0.2,0.2,0.4,0.3,0.7l2.3,5.9c0.2,0.4,0.3,0.8,0.3,1s-0.1,0.4-0.3,0.6c-0.2,0.2-0.4,0.2-0.7,0.2
			c-0.2,0-0.3,0-0.4-0.1s-0.2-0.1-0.3-0.2c-0.1-0.1-0.1-0.2-0.2-0.4S114.1,208.1,114.1,208z M110.3,205.3l2.9,0.1l-1.3-3.7
			L110.3,205.3z"/>
		<path fill="#FFFFFF" d="M120.4,205.5h-0.7l-0.1,2.9c0,0.4-0.1,0.7-0.3,0.8c-0.2,0.2-0.4,0.2-0.7,0.2c-0.3,0-0.6-0.1-0.7-0.3
			c-0.2-0.2-0.2-0.5-0.2-0.8l0.3-6.9c0-0.4,0.1-0.7,0.3-0.8c0.2-0.2,0.5-0.2,0.9-0.2l3.2,0.1c0.4,0,0.8,0.1,1.1,0.1s0.6,0.1,0.8,0.2
			c0.3,0.1,0.6,0.3,0.8,0.5c0.2,0.2,0.4,0.5,0.5,0.8s0.2,0.6,0.1,0.9c0,0.7-0.3,1.2-0.7,1.6c-0.4,0.4-1.1,0.6-1.9,0.8
			c0.3,0.2,0.7,0.5,1,0.8s0.6,0.7,0.8,1.1c0.2,0.4,0.4,0.7,0.5,1s0.2,0.5,0.2,0.6s-0.1,0.2-0.1,0.3c-0.1,0.1-0.2,0.2-0.3,0.3
			s-0.3,0.1-0.5,0.1s-0.4-0.1-0.5-0.2s-0.3-0.2-0.4-0.4s-0.2-0.4-0.4-0.7l-0.7-1.2c-0.3-0.5-0.5-0.8-0.7-1s-0.4-0.4-0.7-0.5
			S120.7,205.5,120.4,205.5z M121.6,201.8l-1.8-0.1l-0.1,2.4l1.8,0.1c0.5,0,0.9,0,1.2-0.1c0.3-0.1,0.6-0.2,0.8-0.3
			c0.2-0.2,0.3-0.4,0.3-0.7c0-0.2,0-0.5-0.2-0.7c-0.1-0.2-0.3-0.3-0.6-0.4C122.8,201.9,122.3,201.8,121.6,201.8z"/>
	</g>
</g>
</svg>
