<?xml version="1.0" encoding="utf-8"?>
<!-- Generator: Adobe Illustrator 24.1.1, SVG Export Plug-In . SVG Version: 6.00 Build 0)  -->
<svg version="1.1" id="Capa_1" xmlns="http://www.w3.org/2000/svg" xmlns:xlink="http://www.w3.org/1999/xlink" x="0px" y="0px"
	 viewBox="0 0 404.2 440.1" enable-background="new 0 0 404.2 440.1" xml:space="preserve">
<g id="online_shopping">
	<g>
		<g>
			<g>
				
					<linearGradient id="SVGID_1_" gradientUnits="userSpaceOnUse" x1="-391.632" y1="221.7458" x2="-362.2216" y2="224.837" gradientTransform="matrix(-1 0 0 -1 -36.1527 441.2756)">
					<stop  offset="0" style="stop-color:#0056E3"/>
					<stop  offset="0.0574" style="stop-color:#1653D4"/>
					<stop  offset="0.2325" style="stop-color:#524BA9"/>
					<stop  offset="0.4008" style="stop-color:#844486"/>
					<stop  offset="0.5581" style="stop-color:#AC3F6A"/>
					<stop  offset="0.7017" style="stop-color:#C83B56"/>
					<stop  offset="0.827" style="stop-color:#D9394A"/>
					<stop  offset="0.9203" style="stop-color:#DF3846"/>
					<stop  offset="0.9378" style="stop-color:#EA373E"/>
					<stop  offset="0.9655" style="stop-color:#F43537"/>
					<stop  offset="1" style="stop-color:#F73535"/>
				</linearGradient>
				<path fill="url(#SVGID_1_)" d="M349.1,8.2c10.3,1,25.5,10.7,26.3,21.8l-41.1,382.1c-3.7,12.7-20.8,13.6-30.1,12.7L349.1,8.2z"/>
				
					<linearGradient id="SVGID_2_" gradientUnits="userSpaceOnUse" x1="101.1821" y1="224.9128" x2="364.2076" y2="224.9128" gradientTransform="matrix(1 0 0 -1 0 441.2756)">
					<stop  offset="0" style="stop-color:#0056E3"/>
					<stop  offset="0.0574" style="stop-color:#1653D4"/>
					<stop  offset="0.2325" style="stop-color:#524BA9"/>
					<stop  offset="0.4008" style="stop-color:#844486"/>
					<stop  offset="0.5581" style="stop-color:#AC3F6A"/>
					<stop  offset="0.7017" style="stop-color:#C83B56"/>
					<stop  offset="0.827" style="stop-color:#D9394A"/>
					<stop  offset="0.9203" style="stop-color:#DF3846"/>
					<stop  offset="0.9378" style="stop-color:#EA373E"/>
					<stop  offset="0.9655" style="stop-color:#F43537"/>
					<stop  offset="1" style="stop-color:#F73535"/>
				</linearGradient>
				<path fill="url(#SVGID_2_)" d="M117.4,409.6l55.5,4.5l129.4,10.6c9.6,0.8,18-6.2,19.1-15.7l42.7-381.3
					c1.2-11-7.8-20.4-18.8-19.7L167.9,19.2c-8.4,0.5-15.3,6.9-16.5,15.3l-1.2,8.8l-15.3,108.4l-14,99.1l-6.2,44l-11.1,78.8
					l-2.2,15.8C99.8,399.5,107.2,408.8,117.4,409.6z"/>
				
					<linearGradient id="SVGID_3_" gradientUnits="userSpaceOnUse" x1="112.659" y1="227.8191" x2="352.6765" y2="227.8191" gradientTransform="matrix(1 0 0 -1 0 441.2756)">
					<stop  offset="0" style="stop-color:#0056E3"/>
					<stop  offset="0.0574" style="stop-color:#1653D4"/>
					<stop  offset="0.2325" style="stop-color:#524BA9"/>
					<stop  offset="0.4008" style="stop-color:#844486"/>
					<stop  offset="0.5581" style="stop-color:#AC3F6A"/>
					<stop  offset="0.7017" style="stop-color:#C83B56"/>
					<stop  offset="0.827" style="stop-color:#D9394A"/>
					<stop  offset="0.9203" style="stop-color:#DF3846"/>
					<stop  offset="0.9378" style="stop-color:#EA373E"/>
					<stop  offset="0.9655" style="stop-color:#F43537"/>
					<stop  offset="1" style="stop-color:#F73535"/>
				</linearGradient>
				<path fill="url(#SVGID_3_)" d="M120.7,388.1c1.1,0.4,2.2,0.6,3.4,0.7l176.4,11.7c6.5,0.4,12.3-4.3,13-10.9L352.6,40
					c0.3-2.6-0.3-5.2-1.5-7.3l0,0c-2.2-3.9-6.4-6.5-11.3-6.3l-168.9,8.2c-5.9,0.3-10.7,4.7-11.5,10.5l-46.6,329.7
					C111.9,380.7,115.4,386.2,120.7,388.1z"/>
				
					<linearGradient id="SVGID_4_" gradientUnits="userSpaceOnUse" x1="119.1656" y1="225.026" x2="352.6765" y2="225.026" gradientTransform="matrix(1 0 0 -1 0 441.2756)">
					<stop  offset="0" style="stop-color:#0056E3"/>
					<stop  offset="0.1346" style="stop-color:#0044BF"/>
					<stop  offset="0.3446" style="stop-color:#002C8D"/>
					<stop  offset="0.5429" style="stop-color:#001966"/>
					<stop  offset="0.7242" style="stop-color:#000B4A"/>
					<stop  offset="0.8823" style="stop-color:#000339"/>
					<stop  offset="1" style="stop-color:#000033"/>
				</linearGradient>
				<path fill="url(#SVGID_4_)" d="M120.7,388.1c1.1,0.4,2.2,0.6,3.4,0.7l176.4,11.7c6.5,0.4,12.3-4.3,13-10.9l1.3-11.3L352.6,40
					c0.3-2.6-0.3-5.2-1.5-7.3l0,0c-1.5-0.6-3.1-0.8-4.8-0.7l-168.9,8.2c-5.9,0.3-10.7,4.7-11.5,10.5l-44.7,315.9l-1.9,13.8
					C118.9,383.2,119.4,385.9,120.7,388.1z"/>
			</g>
			<path fill="#31A6FF" d="M291.1,20.3l-0.1,0.4c-0.2,1.6-1.5,2.7-3,2.8L216.3,27c-1.8,0.1-3.4-1.4-3.4-3.2l0,0
				c0-1.7,1.3-3.1,3.1-3.2l71.7-3.9C289.7,16.6,291.3,18.3,291.1,20.3z"/>
			<path fill="#00379D" d="M120.7,388.1c1.1,0.4,2.2,0.6,3.4,0.7l176.4,11.7c6.5,0.4,12.3-4.3,13-10.9l1.3-11.3l-193.5-11.7
				l-1.9,13.8C118.9,383.2,119.4,385.9,120.7,388.1z"/>
			<path fill="#00379D" d="M191.5,373.4c-0.8,10,5.7,18.6,14.5,19.3c8.7,0.7,16.4-6.9,17.2-16.9s-5.7-18.6-14.5-19.3
				C200,355.8,192.3,363.4,191.5,373.4z"/>
			<path fill="#58FFFC" d="M200,371.6l-1.2,9.4l14.2,1l1.3-9.6l3.4,0.2l-9.9-8.8l-11.1,7.5L200,371.6z M203.5,377
				c0.1-1.8,1.4-3.2,2.9-3.1s2.5,1.7,2.4,3.5s-1.4,3.2-2.9,3.1S203.3,378.8,203.5,377z"/>
			<g>
				<path fill="#FFFFFF" d="M150.7,385.2c0.3,0,0.5-0.1,0.8-0.3c0.5-0.4,0.5-1.2,0.1-1.6l-3.3-3.8l4.3-3.9c0.5-0.4,0.5-1.2,0.1-1.6
					c-0.4-0.5-1.2-0.5-1.6-0.1l-6,5.4l4.8,5.5C150.1,385.1,150.4,385.2,150.7,385.2z"/>
			</g>
			<g>
				<path fill="#FFFFFF" d="M270.4,392.2c0.2,0,0.5-0.1,0.7-0.2l6.5-4.8l-5.2-6.2c-0.4-0.5-1.1-0.6-1.6-0.1
					c-0.5,0.4-0.6,1.1-0.1,1.6l3.6,4.3l-4.5,3.3c-0.5,0.4-0.6,1.1-0.2,1.6C269.7,392,270.1,392.2,270.4,392.2z"/>
			</g>
			<path fill="#0041AC" d="M255.4,169.8l68.7,0.9c4.5,0.1,8.4-3.3,8.9-7.8l7.5-66.7c0.6-5.3-3.6-9.9-9-9.8l-69,1.9
				c-4.4,0.1-8,3.5-8.5,7.8l-7.2,63.9C246.2,165.1,250.2,169.7,255.4,169.8z"/>
			<path fill="#0041AC" d="M165.8,168l65.1,0.8c4.3,0.1,7.9-3.1,8.4-7.4l7.2-63.2c0.6-5-3.5-9.4-8.5-9.3l-65.4,1.8
				c-4.2,0.1-7.6,3.3-8.1,7.4l-6.9,60.6C157,163.6,160.8,167.9,165.8,168z"/>
			<g>
				<polygon fill="#197DE3" points="208.5,104.9 190.1,104.8 189.9,107.5 208.3,107.8 				"/>
				<path fill="#197DE3" d="M186.4,122.1c0.4-5.1,3.3-13.4,3.3-13.4l18.5,0.5c0,0,2,9.1,1.9,14.2c-0.2,5.1-6.1,29.6-6.1,29.6
					l-5.5-0.3l1.6-28.8c0.1-1.1-0.8-2-1.8-2.1c-1.1-0.1-2,0.8-2.1,1.8l-1.6,28.8l-5.5-0.3C189.1,152.1,186,127.1,186.4,122.1z"/>
			</g>
			<path fill="#0041AC" d="M244.5,260.7l67.4,1.9c4.9,0.1,9-3.5,9.6-8.3l7.6-67.2c0.6-5.5-3.7-10.4-9.2-10.4l-67.6-0.6
				c-4.8,0-8.8,3.5-9.4,8.3l-7.4,65.8C234.9,255.8,239.1,260.6,244.5,260.7z"/>
			<path opacity="0.22" fill="#197DE3" enable-background="new    " d="M149.6,260.9l71.8,3c5.4,0.2,10.1-3.8,10.7-9.2l8.1-71.4
				c0.7-6.1-4.1-11.5-10.2-11.5l-70.2-0.6c-5.2,0-9.6,3.8-10.3,8.9l-9.7,69C138.9,255.2,143.5,260.7,149.6,260.9z"/>
			<g>
				<path fill="#197DE3" d="M306,106l-5.2,6c0,0,2.2,3.6-2.8,7l-1.8,5.9c0,0,4.9,3.9,6.1,10.8c1.1,6.2-0.5,13.5-0.5,13.5l-10.6-0.6
					l2.2-39.5c0,0,2.6,0.3,4.8-0.4c2.2-0.8,5.4-4.7,5.4-4.7L306,106z"/>
				<path fill="#197DE3" d="M281.1,104.6l4.5,6.5c0,0-2.3,3.6,2.3,7.6l1,5.7c0,0-4.8,4.1-6.7,10.1c-1.6,4.9-1.5,13.4-1.5,13.4
					l10.4,0.6l2.2-39.5c0,0-2.6,0-4.7-1s-4.8-5.2-4.8-5.2L281.1,104.6z"/>
				<path fill="#197DE3" d="M303.5,103.9c0,0-4.9,3.8-10.1,3.4c-5.7-0.4-9.6-4.5-9.6-4.5s2.6,7,10.1,7.4
					C301.4,110.7,303.5,103.9,303.5,103.9z"/>
			</g>
			<polygon fill="#196BD6" points="322.2,90.5 270.5,92 269.2,99.6 321,98.6 			"/>
			<polygon fill="#196BD6" points="231,93.5 179.3,95 178,102.6 229.8,101.6 			"/>
			<path fill="#0041AC" d="M141.7,347.8l64.6,4.2c5,0.3,9.3-3.3,9.9-8.3l7.5-65.9c0.6-5.4-3.5-10.2-8.9-10.4l-63-2.4
				c-4.8-0.2-8.9,3.3-9.6,8l-9,64.1C132.3,342.5,136.3,347.4,141.7,347.8z"/>
			<polygon opacity="0.45" fill="#00233F" enable-background="new    " points="353.4,77.7 344.1,116.4 155.8,121 145.4,75.4 
				132.6,56.5 153.8,41.1 339.2,40.1 			"/>
			<g>
				<polygon fill="#001B8B" points="125,49.5 149.6,75.2 154.6,40.5 				"/>
				<polygon fill-rule="evenodd" clip-rule="evenodd" fill="#197DE3" points="145.4,75.4 149.6,75.2 127.7,51.6 126.5,55.5 				"/>
				<polygon fill-rule="evenodd" clip-rule="evenodd" fill="#197DE3" points="353.4,77.7 348.4,77.3 330.5,49.2 333.5,42.2 				"/>
				<path fill-rule="evenodd" clip-rule="evenodd" fill="#197DE3" d="M319.8,56.1L319.8,56.1c7.3-0.3,14.2-7.3,15.4-15.8l2.6-18
					l-26.3,1.4l-2.6,17.8C307.7,49.8,312.5,56.4,319.8,56.1z"/>
				<path fill-rule="evenodd" clip-rule="evenodd" fill="#65E8FA" d="M293.5,57.1L293.5,57.1c7.3-0.3,14.2-7.3,15.4-15.6l2.6-17.8
					L285.2,25l-2.6,17.6C281.3,50.8,286.2,57.3,293.5,57.1z"/>
				<path fill-rule="evenodd" clip-rule="evenodd" fill="#F73535" d="M267.2,58L267.2,58c7.3-0.3,14.1-7.2,15.4-15.4l2.6-17.6
					l-26.3,1.4l-2.6,17.3C255,51.8,259.9,58.2,267.2,58z"/>
				<path fill-rule="evenodd" clip-rule="evenodd" fill="#197DE3" d="M240.9,58.9L240.9,58.9c7.3-0.3,14.1-7.1,15.4-15.2l2.6-17.3
					l-26.3,1.4L230,44.9C228.7,52.8,233.6,59.1,240.9,58.9z"/>
				<path fill-rule="evenodd" clip-rule="evenodd" fill="#65E8FA" d="M214.6,59.8L214.6,59.8c7.3-0.3,14.1-7,15.3-15l2.6-17.1
					L206.1,29l-2.5,16.8C202.4,53.8,207.3,60,214.6,59.8z"/>
				<path fill-rule="evenodd" clip-rule="evenodd" fill="#F73535" d="M188.3,60.7L188.3,60.7c7.3-0.3,14.1-6.9,15.3-14.8l2.5-16.8
					l-26.3,1.4L177.3,47C176.1,54.8,181,60.9,188.3,60.7z"/>
				<path fill-rule="evenodd" clip-rule="evenodd" fill="#197DE3" d="M162,61.6L162,61.6c7.3-0.3,14.1-6.8,15.3-14.6l2.5-16.6
					l-26.3,1.4L151,48.1C149.8,55.8,154.7,61.9,162,61.6z"/>
				<path fill-rule="evenodd" clip-rule="evenodd" fill="#65E8FA" d="M135.7,62.5L135.7,62.5c7.3-0.3,14.1-6.7,15.3-14.4l2.5-16.4
					l-26.3,1.4l-2.5,16.1C123.5,56.8,128.4,62.8,135.7,62.5z"/>
				<polygon fill="#0041AC" points="337.7,22.1 360.6,24.3 353.4,77.7 334.3,44 				"/>
			</g>
			<g>
				<path fill="#197DE3" d="M260.1,216.3l45.6,1c0,0-0.9-3.4-2-4.5s-21.8-12.6-22.7-13.1c-0.8-0.5-4.6,5.4-8.3,6.2
					c-3.8,0.8-7.5-1.3-8.3-1.3C263.5,204.7,260.9,212.2,260.1,216.3z M281.2,214.8l7.8-8.3l1.9,1.4l-7.5,8.1L281.2,214.8z
					 M276,212.4l7.8-8.3l1.9,1.4l-7.5,8.1L276,212.4z"/>
				<polygon fill="#197DE3" points="305.7,218.3 305.7,221.6 260.1,222.5 260.1,217.4 				"/>
			</g>
			<g>
				<path fill="#197DE3" d="M200.2,314.7l-45.6-1.1c0,0,1.1-3.4,2.2-4.4c1.2-1,22.4-11.5,23.3-12c0.8-0.5,4.3,5.6,8,6.6
					s7.6-0.9,8.4-0.9C197.4,302.9,199.6,310.6,200.2,314.7z"/>
				<polygon fill="#197DE3" points="154.6,314.4 154.4,317.7 199.9,320.9 200.2,315.7 				"/>
			</g>
			<polygon fill="#196BD6" points="211.1,272.9 159.4,270.8 158.3,278.3 210.3,280.7 			"/>
			<polygon fill="#196BD6" points="311.8,181.4 260.1,181.1 259.3,188.7 311.3,189.3 			"/>
			<g>
				<path fill="#197DE3" d="M150.6,340.7c-0.2,1,0.4,2,1.4,2.1c0.9,0.2,1.8-0.5,2-1.5s-0.4-2-1.4-2.1
					C151.7,339.1,150.8,339.7,150.6,340.7z"/>
				<path fill="#197DE3" d="M145.3,340.4c-0.2,1,0.4,2,1.4,2.1c0.9,0.2,1.8-0.5,2-1.5s-0.4-2-1.4-2.1
					C146.3,338.7,145.4,339.4,145.3,340.4z"/>
				<path fill="#197DE3" d="M140.4,340.1c-0.2,1,0.4,2,1.4,2.1c0.9,0.2,1.8-0.5,2-1.5s-0.4-2-1.4-2.1
					C141.5,338.4,140.6,339.1,140.4,340.1z"/>
			</g>
			<g>
				<path fill="#197DE3" d="M265.8,161.5c-0.1,1,0.6,1.9,1.5,2s1.8-0.6,1.9-1.7c0.1-1-0.6-1.9-1.5-2
					C266.7,159.8,265.9,160.5,265.8,161.5z"/>
				<path fill="#197DE3" d="M260.4,161.5c-0.1,1,0.6,1.9,1.5,2s1.8-0.6,1.9-1.7c0.1-1-0.6-1.9-1.5-2
					C261.4,159.8,260.6,160.5,260.4,161.5z"/>
				<path fill="#197DE3" d="M255.6,161.6c-0.1,1,0.6,1.9,1.5,2s1.8-0.6,1.9-1.7c0.1-1-0.6-1.9-1.5-2
					C256.5,159.8,255.7,160.5,255.6,161.6z"/>
			</g>
		</g>
	</g>
</g>
</svg>
