<?xml version="1.0" encoding="utf-8"?>
<!-- Generator: Adobe Illustrator 24.1.1, SVG Export Plug-In . SVG Version: 6.00 Build 0)  -->
<svg version="1.1" id="Capa_1" xmlns="http://www.w3.org/2000/svg" xmlns:xlink="http://www.w3.org/1999/xlink" x="0px" y="0px"
	 viewBox="0 0 404.2 440.1" enable-background="new 0 0 404.2 440.1" xml:space="preserve">
<g id="Capa_7">
	<path opacity="0.12" fill="#0A1A4C" enable-background="new    " d="M243.7,367.6l75.7,5c5.6,0.4,10.5-3.7,11.2-9.3l8.6-76
		c0.7-6.1-3.9-11.4-10-11.7l-76-3.8c-5.6-0.3-10.4,3.8-11,9.4l-8.4,74.8C233.2,361.9,237.7,367.2,243.7,367.6z"/>
	<path fill="#197DE3" d="M221.5,345l80.5,5.3c6,0.4,11.2-4,11.9-9.9l9.1-80.8c0.7-6.4-4.1-12.1-10.6-12.5l-80.8-4
		c-5.9-0.3-11.1,4.1-11.7,10l-8.9,79.5C210.3,338.9,215.1,344.6,221.5,345z"/>
	<polygon fill="#19A0FC" points="300.9,251.1 249.2,248.4 248,255.9 300,259 	"/>
	<polygon fill="#19A0FC" points="310,331.7 257.9,329 257.6,332 309.6,335.1 	"/>
	<polygon fill="#19A0FC" points="309.4,336.9 285.2,335.4 284.9,339 309,340.4 	"/>
	<g>
		<path fill="#58FFFC" d="M286.1,266.1l-7,7.6c0,0,1.4,5.8-5.3,10.1l-2.1,6.5c0,0,8.5,9.2,6.7,17.1c-1.7,7.9-7.3,14-7.3,14l-5.6-0.4
			l3.9-51.4c0,0,3.4,0.5,6.2-0.4c2.8-0.9,7.1-5.9,7.1-5.9L286.1,266.1z"/>
		<path fill="#58FFFC" d="M253.7,263.6l5.7,8.6c0,0-2.3,5.5,3.6,10.8l1.1,6.8c0,0-9.8,7.8-9.3,15.9s5.1,14.9,5.1,14.9l5.6,0.4
			l3.9-51.4c0,0-3.4,0-6.1-1.4s-6.2-6.9-6.2-6.9L253.7,263.6z"/>
	</g>
	<g>
		<path fill="#FFC3EE" d="M230.5,338.6c-0.2,1,0.4,2,1.4,2.1c0.9,0.2,1.8-0.5,2-1.5s-0.4-2-1.4-2.1S230.6,337.6,230.5,338.6z"/>
		<path fill="#FFC3EE" d="M225.1,338.3c-0.2,1,0.4,2,1.4,2.1c0.9,0.2,1.8-0.5,2-1.5s-0.4-2-1.4-2.1
			C226.2,336.6,225.3,337.3,225.1,338.3z"/>
		<path fill="#FFC3EE" d="M220.3,338c-0.2,1,0.4,2,1.4,2.1c0.9,0.2,1.8-0.5,2-1.5s-0.4-2-1.4-2.1C221.4,336.3,220.5,337,220.3,338z"
			/>
	</g>
</g>
</svg>
