<?xml version="1.0" encoding="utf-8"?>
<!-- Generator: Adobe Illustrator 24.1.1, SVG Export Plug-In . SVG Version: 6.00 Build 0)  -->
<svg version="1.1" id="Capa_2_1_" xmlns="http://www.w3.org/2000/svg" xmlns:xlink="http://www.w3.org/1999/xlink" x="0px" y="0px"
	 viewBox="0 0 102.653 105.505" enable-background="new 0 0 102.653 105.505" xml:space="preserve">
<circle fill="#303030" cx="52.178" cy="75.959" r="2.05"/>
<circle fill="#303030" cx="61.005" cy="75.959" r="2.05"/>
<circle fill="#303030" cx="43.228" cy="75.959" r="2.05"/>
<path fill="#303030" d="M91.145,10.108H77.356v-0.001h-7.129v0.001H12.016c-4.954,0-8.97,4.233-8.97,9.454v54.471
	c0,5.221,4.016,9.454,8.97,9.454h30.4c0.318,1.107,0.555,2.951-0.181,5.391c0,0-3.505,6.824-7.247,8.64h-3.7
	c-1.083,0-1.96,0.925-1.96,2.066c0,1.141,0.878,2.066,1.96,2.066h41.347c1.083,0,1.96-0.925,1.96-2.066
	c0-1.141-0.878-2.066-1.96-2.066h-3.446c-3.743-1.816-7.247-8.64-7.247-8.64c-0.737-2.44-0.499-4.284-0.182-5.391h29.386
	c4.954,0,8.97-4.233,8.97-9.454V19.562C100.115,14.341,96.099,10.108,91.145,10.108z M6.459,19.944c0-3.557,2.736-6.441,6.111-6.441
	h57.658h1.168h4.327h1.634H90.59c3.375,0,6.111,2.884,6.111,6.441l0.001,47.371H6.46L6.459,19.944z M63.054,97.52H41.12
	c0,0,7.173-6.459,5.036-14.031h11.862C55.882,91.061,63.054,97.52,63.054,97.52z M96.702,73.653c0,3.557-2.736,6.441-6.111,6.441
	h-78.02c-3.375,0-6.111-2.884-6.111-6.441l0.001-2.706h90.242L96.702,73.653z"/>
<path fill="#303030" d="M34.268,49.011H13.753c-1.36,0-1.034,1.034-1.034,1.034s2.666,11.536,2.993,11.917s0.762,0.925,0.762,0.925
	h14.256c1.306-0.218,1.469-0.707,1.469-0.707s2.612-10.175,2.83-11.209S34.268,49.011,34.268,49.011z M29.942,60.839H18.045
	l-2.749-9.256h17.156L29.942,60.839z"/>
<path fill="#303030" d="M20.171,49.356c0.097-1.969,1.711-3.539,3.704-3.539s3.606,1.57,3.704,3.539h1.552
	c-0.097-2.822-2.41-5.082-5.255-5.082s-5.158,2.26-5.255,5.082H20.171z"/>
<path fill="#303030" d="M47.755,49.751h-8.895c-0.71,0-1.286-0.576-1.286-1.286l0,0c0-0.71,0.576-1.286,1.286-1.286h8.895
	c0.71,0,1.286,0.576,1.286,1.286l0,0C49.041,49.175,48.465,49.751,47.755,49.751z"/>
<path fill="#303030" d="M47.755,36.964h-8.895c-0.71,0-1.286-0.576-1.286-1.286v0c0-0.71,0.576-1.286,1.286-1.286h8.895
	c0.71,0,1.286,0.576,1.286,1.286v0C49.041,36.388,48.465,36.964,47.755,36.964z"/>
<path fill="#303030" d="M47.755,31.359h-8.895c-0.71,0-1.286-0.576-1.286-1.286v0c0-0.71,0.576-1.286,1.286-1.286h8.895
	c0.71,0,1.286,0.576,1.286,1.286v0C49.041,30.783,48.465,31.359,47.755,31.359z"/>
<path fill="#303030" d="M47.755,25.428h-8.895c-0.71,0-1.286-0.576-1.286-1.286v0c0-0.71,0.576-1.286,1.286-1.286h8.895
	c0.71,0,1.286,0.576,1.286,1.286v0C49.041,24.852,48.465,25.428,47.755,25.428z"/>
<path fill="#F50B16" d="M88.456,36.964h-8.895c-0.71,0-1.286-0.576-1.286-1.286v0c0-0.71,0.576-1.286,1.286-1.286h8.895
	c0.71,0,1.286,0.576,1.286,1.286v0C89.743,36.388,89.167,36.964,88.456,36.964z"/>
<path fill="#F50B16" d="M88.456,31.359h-8.895c-0.71,0-1.286-0.576-1.286-1.286v0c0-0.71,0.576-1.286,1.286-1.286h8.895
	c0.71,0,1.286,0.576,1.286,1.286v0C89.743,30.783,89.167,31.359,88.456,31.359z"/>
<path fill="#F50B16" d="M88.456,25.428h-8.895c-0.71,0-1.286-0.576-1.286-1.286v0c0-0.71,0.576-1.286,1.286-1.286h8.895
	c0.71,0,1.286,0.576,1.286,1.286v0C89.743,24.852,89.167,25.428,88.456,25.428z"/>
<path fill="#303030" d="M47.755,55.403h-8.895c-0.71,0-1.286-0.576-1.286-1.286v0c0-0.71,0.576-1.286,1.286-1.286h8.895
	c0.71,0,1.286,0.576,1.286,1.286v0C49.041,54.827,48.465,55.403,47.755,55.403z"/>
<path fill="#303030" d="M47.755,61.054h-8.895c-0.71,0-1.286-0.576-1.286-1.286v0c0-0.71,0.576-1.286,1.286-1.286h8.895
	c0.71,0,1.286,0.576,1.286,1.286v0C49.041,60.479,48.465,61.054,47.755,61.054z"/>
<path fill="#F50B16" d="M88.456,49.751h-8.895c-0.71,0-1.286-0.576-1.286-1.286l0,0c0-0.71,0.576-1.286,1.286-1.286h8.895
	c0.71,0,1.286,0.576,1.286,1.286l0,0C89.743,49.175,89.167,49.751,88.456,49.751z"/>
<path fill="#F50B16" d="M88.456,55.403h-8.895c-0.71,0-1.286-0.576-1.286-1.286v0c0-0.71,0.576-1.286,1.286-1.286h8.895
	c0.71,0,1.286,0.576,1.286,1.286v0C89.743,54.827,89.167,55.403,88.456,55.403z"/>
<path fill="#F50B16" d="M88.456,61.054h-8.895c-0.71,0-1.286-0.576-1.286-1.286v0c0-0.71,0.576-1.286,1.286-1.286h8.895
	c0.71,0,1.286,0.576,1.286,1.286v0C89.743,60.479,89.167,61.054,88.456,61.054z"/>
<path fill="#303030" d="M34.064,21.673H26.35l-2.285,2.163l-2.408-2.163h-7.999c0,0-0.979,0.408-0.939,1.102l-0.001,6.285
	c0,0,0.246,0.653,0.858,0.816l1.959,0.041l0.082,8.897c0,0,0.218,1.02,1.02,1.02h14.08c0,0,1.347-0.122,1.428-0.939
	c0.082-0.816,0-8.856,0-8.856h1.836c0,0,0.939-0.082,1.061-1.184v-6.04C35.043,22.815,35.247,21.673,34.064,21.673z M32.37,27.284
	l-1.704,0.041c-0.867,0.122-1.173,1.204-1.173,1.204l0.245,8.611H18.311l-0.02-8.529c-0.041-0.714-0.939-1.347-0.939-1.347
	l-1.918-0.02v-2.847h5.06c0,0,2.385,2.289,2.907,2.696c0.522,0.407,1.01,0.008,1.01,0.008l2.806-2.663l5.152-0.041V27.284z"/>
<path fill="#F50B16" d="M72.296,23.837l-0.047-3.448c0,0-0.041-1.075-1.252-1.075c-1.211,0-1.36,1.075-1.36,1.075l-0.014,3.387
	c0,0-1.687,1.075-1.926,1.739c0,0-1.4-1.806-2.433-1.831l0.051-3.224c0,0,0.051-0.96-1.296-0.96c-1.347,0-1.439,0.93-1.439,0.93
	l-0.039,3.524c0,0-3.445,1.006-3.433,4.053c0.008,2.017,0,9.267,0,9.267s0.082,1.697,1.768,1.697h13.549
	c0,0,1.415-0.439,1.415-1.484c0-1.046,0-9.072,0-9.072S75.609,24.348,72.296,23.837z M61.855,36.632v-8.706
	c0.15-1.388,2.122-1.673,2.122-1.673c1.782-0.082,2.095,1.714,2.095,1.714l0.027,8.665H61.855z M68.848,36.632v-8.706
	c0.15-1.388,2.122-1.673,2.122-1.673c1.782-0.082,2.095,1.714,2.095,1.714l0.027,8.665H68.848z"/>
<path fill="#F50B16" d="M68.173,52.285h-8.735c-2.554,0-4.624,2.07-4.624,4.624v1.688c0,2.554,2.07,4.624,4.624,4.624h8.735
	c2.554,0,4.624-2.07,4.624-4.624v-1.688C72.797,54.355,70.727,52.285,68.173,52.285z M70.455,58.378c0,1.889-1.531,2.668-3.42,2.668
	h-6.46c-1.889,0-3.42-0.779-3.42-2.668v-1.249c0-1.889,1.832-3.185,3.721-3.185c0,0,0.02,0.229,0.02,0.357v2.306
	c0,0.49,0.397,0.888,0.888,0.888h0.102c0.49,0,0.888-0.397,0.888-0.888v-2.306c0-0.128,0.011-0.208,0.031-0.357h2.357
	c-0.014,0.206,0,0.229,0,0.357v2.306c0,0.49,0.397,0.888,0.888,0.888h0.102c0.49,0,0.888-0.397,0.888-0.888v-2.306
	c0-0.128,0.018-0.223-0.003-0.357h0.301c1.889,0,3.119,1.296,3.119,3.185V58.378z"/>
<path fill="#F50B16" d="M69.773,42.744c0,0-1.034-0.163-1.524,0.136l-8.761,5.958c0,0-0.381,0.435-0.381,1.687v2.178h2.646v-1.559
	H73.16v4.278l-0.809,0.029l0.064,2.329h2.309c0,0,1.034-0.051,1.115-1.286v-7.602C75.84,48.893,75.105,43.56,69.773,42.744z
	 M64.977,48.431l4.408-3.142c2.081,0.143,3.571,3.142,3.571,3.142H64.977z"/>
</svg>
