<?xml version="1.0" encoding="utf-8"?>
<!-- Generator: Adobe Illustrator 24.1.1, SVG Export Plug-In . SVG Version: 6.00 Build 0)  -->
<svg version="1.1" id="pc" xmlns="http://www.w3.org/2000/svg" xmlns:xlink="http://www.w3.org/1999/xlink" x="0px" y="0px"
	 viewBox="0 0 70.45 79.7" enable-background="new 0 0 70.45 79.7" xml:space="preserve">
<g>
	<path fill="#0031B3" d="M64.8,1.88L64.8,1.88c2.45-0.62,5.11,1.67,5.11,3.86L67,74.8c-0.09,1.89-2.88,3.89-4.65,3.89l-0.75-0.35
		l0.62,0.22L64.8,1.88z"/>
	
		<linearGradient id="SVGID_1_" gradientUnits="userSpaceOnUse" x1="13.2357" y1="41.1223" x2="67.2817" y2="41.1223" gradientTransform="matrix(1 0 0 -1 0 81.2756)">
		<stop  offset="0.002" style="stop-color:#E03347"/>
		<stop  offset="1" style="stop-color:#621F86"/>
	</linearGradient>
	<path fill="url(#SVGID_1_)" d="M64.22,76.89l3.06-73.31c0.06-1.44-1.46-2.41-2.74-1.75L16.85,26.34c-0.58,0.3-0.97,0.88-1.02,1.54
		l-2.59,35.95c-0.06,0.9,0.52,1.72,1.38,1.95l47.22,12.84C63.01,78.94,64.17,78.09,64.22,76.89z"/>
	<polygon fill="#318FE8" points="60.59,75.87 14.24,63.49 16.86,27.47 64.48,3.68 	"/>
	<polygon fill="#001B8D" points="60.59,75.87 15.13,63.87 17.76,27.85 64.43,4.53 	"/>
	<polygon fill="#00379F" points="62.7,7.91 36.47,21.2 34.18,66.88 58.96,73.42 	"/>
	<polygon fill="#197DE5" points="34.55,22.14 18.83,29.66 17.86,42.78 33.44,41.25 	"/>
	<polygon fill="#197DE5" points="32,66.2 16.51,62.88 17.72,43.84 33.44,42.35 	"/>
	<polygon opacity="0.88" fill="#197DE5" enable-background="new    " points="30,65.22 14.51,61.91 15.72,42.87 31.44,41.38 	"/>
	<polygon fill="#17A8ED" points="64.43,4.53 64.19,9.13 17.59,30.2 17.76,27.85 	"/>
	<polygon opacity="0.88" fill="#197DE5" enable-background="new    " points="33.3,21.68 17.58,29.19 16.69,41.89 32.19,40.79 	"/>
	<polygon fill="#58FFFE" points="62.05,6.33 62.05,9.43 43.14,18.13 43.14,15.73 	"/>
	<g>
		<polygon fill="#58FFFE" points="37.43,43.97 57.77,42.63 57.79,42.3 37.45,43.71 		"/>
		<polygon fill="#58FFFE" points="37.2,48.13 57.4,48.09 57.43,47.75 37.21,47.87 		"/>
		<polygon fill="#58FFFE" points="37.34,45.6 57.63,44.77 57.65,44.44 37.35,45.34 		"/>
		<polygon fill="#58FFFE" points="51.92,44.09 57.69,43.79 57.71,43.45 51.94,43.78 		"/>
		<polygon fill="#58FFFE" points="55.83,47.27 57.46,47.25 57.48,46.92 55.85,46.94 		"/>
		<polygon fill="#58FFFE" points="43.59,47.45 45.22,47.43 45.23,47.14 43.6,47.17 		"/>
		<polygon fill="#58FFFE" points="42.67,44.57 51.73,44.1 51.75,43.79 42.68,44.29 		"/>
		<polygon fill="#58FFFE" points="43.28,46.79 52.32,46.6 52.34,46.28 43.3,46.51 		"/>
		<polygon fill="#58FFFE" points="46.11,47.39 55.14,47.28 55.16,46.95 46.13,47.1 		"/>
		<polygon fill="#58FFFE" points="37.31,46.17 46.35,45.88 46.37,45.59 37.32,45.91 		"/>
		<polygon fill="#58FFFE" points="37.16,48.83 57.34,49.02 57.36,48.68 37.17,48.58 		"/>
		<polygon fill="#58FFFE" points="36.93,53 56.97,54.47 57,54.14 36.94,52.74 		"/>
		<polygon fill="#58FFFE" points="37.07,50.47 57.2,51.16 57.22,50.83 37.08,50.21 		"/>
		<polygon fill="#58FFFE" points="51.53,50.04 57.26,50.17 57.29,49.84 51.55,49.73 		"/>
		<polygon fill="#58FFFE" points="55.41,53.53 57.03,53.64 57.05,53.3 55.43,53.21 		"/>
		
			<rect x="43.937" y="51.897" transform="matrix(0.0641 -0.9979 0.9979 0.0641 -11.3467 93.3146)" fill="#58FFFE" width="0.28" height="1.62"/>
		<polygon fill="#58FFFE" points="42.35,49.83 51.35,50.04 51.37,49.73 42.37,49.56 		"/>
		<polygon fill="#58FFFE" points="42.96,52.11 51.93,52.6 51.95,52.28 42.98,51.83 		"/>
		<polygon fill="#58FFFE" points="45.77,52.92 54.73,53.49 54.75,53.17 45.79,52.63 		"/>
		<polygon fill="#58FFFE" points="37.04,51.04 46.01,51.42 46.03,51.13 37.05,50.78 		"/>
	</g>
	<g>
		<g>
			<defs>
				<polygon id="SVGID_2_" points="60.89,13.01 37.77,23.13 36.95,41.2 59.36,38.82 				"/>
			</defs>
			<clipPath id="SVGID_3_">
				<use xlink:href="#SVGID_2_"  overflow="visible"/>
			</clipPath>
			<polygon clip-path="url(#SVGID_3_)" fill="#58FFFE" points="60.87,12.93 37.75,23.05 36.93,41.13 59.34,38.74 			"/>
		</g>
		<g>
			<defs>
				<polygon id="SVGID_4_" points="60.89,13.01 37.77,23.13 36.95,41.2 59.36,38.82 				"/>
			</defs>
			<clipPath id="SVGID_5_">
				<use xlink:href="#SVGID_4_"  overflow="visible"/>
			</clipPath>
			<g clip-path="url(#SVGID_5_)">
				<g>
					
						<linearGradient id="SVGID_6_" gradientUnits="userSpaceOnUse" x1="-680.6533" y1="33.6656" x2="-680.6533" y2="40.605" gradientTransform="matrix(-1 0 0 -1 -631.2214 81.2756)">
						<stop  offset="0" style="stop-color:#6456C0"/>
						<stop  offset="1" style="stop-color:#5F2C95"/>
					</linearGradient>
					<path fill="url(#SVGID_6_)" d="M44.3,47.61h3.66c0.38-2.13,1.27-4.89,1.27-4.89c0.22-0.13,0.64,0.03,0.64,0.03l1.34,4.86h3.34
						c0.18-3-1.46-6.4-1.46-6.4l0,0c0.01-0.01,0.06-0.12,0.04-0.19c-0.01-0.03-0.06-0.09-0.12-0.14c-0.09-0.08-0.2-0.16-0.2-0.16
						l-6.23-0.04c0,0-0.06,0.03-0.14,0.08l0,0c-0.14,0.08-0.32,0.21-0.32,0.3c0,0.13,0.05,0.21,0.06,0.23l0,0
						C44.84,43.81,44.3,47.61,44.3,47.61z"/>
					
						<radialGradient id="SVGID_7_" cx="-789.7235" cy="38.703" r="2.106" gradientTransform="matrix(-0.6462 0.1491 -0.3852 -1.6696 -442.5968 227.4854)" gradientUnits="userSpaceOnUse">
						<stop  offset="0" style="stop-color:#4B474B"/>
						<stop  offset="1" style="stop-color:#000000"/>
					</radialGradient>
					<path opacity="0.5" fill="url(#SVGID_7_)" enable-background="new    " d="M51.45,45.43c0.45,1.94,1.42,3.37,2.17,3.2
						c0.75-0.17,1-1.88,0.55-3.82s-1.42-3.37-2.17-3.2S51.01,43.49,51.45,45.43z"/>
					
						<radialGradient id="SVGID_8_" cx="-847.5707" cy="148.9628" r="2.0991" gradientTransform="matrix(-0.6386 -0.179 0.4623 -1.6499 -563.7841 139.1335)" gradientUnits="userSpaceOnUse">
						<stop  offset="0" style="stop-color:#4B474B"/>
						<stop  offset="1" style="stop-color:#000000"/>
					</radialGradient>
					<path opacity="0.5" fill="url(#SVGID_8_)" enable-background="new    " d="M45,44.7c-0.54,1.92-0.37,3.64,0.37,3.84
						c0.74,0.21,1.78-1.18,2.31-3.09c0.54-1.92,0.37-3.64-0.37-3.84C46.57,41.4,45.54,42.79,45,44.7z"/>
					<g>
						
							<linearGradient id="SVGID_9_" gradientUnits="userSpaceOnUse" x1="-682.9014" y1="36.1106" x2="-681.0814" y2="36.1106" gradientTransform="matrix(-1 0 0 -1 -631.2214 81.2756)">
							<stop  offset="0" style="stop-color:#9E8CEF"/>
							<stop  offset="1" style="stop-color:#CAAFEE"/>
						</linearGradient>
						<path fill="url(#SVGID_9_)" d="M51.64,47.61l0.04-0.01c-0.43-2.5-1.5-4.61-1.52-4.63v-0.01l-0.27-0.24l-0.03,0.03L50.13,43
							C50.18,43.1,51.22,45.16,51.64,47.61z"/>
					</g>
					<g>
						
							<linearGradient id="SVGID_10_" gradientUnits="userSpaceOnUse" x1="52.0099" y1="36.1056" x2="53.8299" y2="36.1056" gradientTransform="matrix(1 0 0 -1 -4.5834 81.2756)">
							<stop  offset="0" style="stop-color:#9E8CEF"/>
							<stop  offset="1" style="stop-color:#CAAFEE"/>
						</linearGradient>
						<path fill="url(#SVGID_10_)" d="M47.46,47.61c0.42-2.45,1.49-4.54,1.54-4.63l0.24-0.22l-0.03-0.03l-0.25,0.23
							c-0.01,0.02-1.12,2.14-1.54,4.65H47.46z"/>
					</g>
					
						<linearGradient id="SVGID_11_" gradientUnits="userSpaceOnUse" x1="-680.8914" y1="33.6667" x2="-680.8914" y2="40.6061" gradientTransform="matrix(-1 0 0 -1 -631.2214 81.2756)">
						<stop  offset="0" style="stop-color:#CCCCFF"/>
						<stop  offset="1" style="stop-color:#755CBB"/>
					</linearGradient>
					<path opacity="0.76" fill="url(#SVGID_11_)" enable-background="new    " d="M46.11,41.05c0,0.13,0.05,0.21,0.06,0.23l0,0
						c1.3,0.29,2.28,1.5,2.28,1.5c-0.71,1.36-1.89,4.82-1.89,4.82h1.39c0.38-2.13,1.27-4.89,1.27-4.89
						c0.22-0.13,0.64,0.03,0.64,0.03l1.34,4.86h0.86c-0.31-2.04-1.22-4.52-1.22-4.52c0.9-1.05,2.23-1.88,2.23-1.88l0,0l0.16-0.1
						l-0.12-0.09c-0.58,0.55-2.44,1.28-2.5,1.3L53,40.87c-0.09-0.08-0.2-0.16-0.2-0.16l-6.23-0.04c0,0-0.06,0.03-0.14,0.08l1.7,0.94
						L46.11,41.05z"/>
					
						<linearGradient id="SVGID_12_" gradientUnits="userSpaceOnUse" x1="-680.0914" y1="37.1356" x2="-680.0914" y2="39.0283" gradientTransform="matrix(-1 0 0 -1 -631.2214 81.2756)">
						<stop  offset="0" style="stop-color:#CCCCFF"/>
						<stop  offset="1" style="stop-color:#755CBB"/>
					</linearGradient>
					<polygon opacity="0.76" fill="url(#SVGID_12_)" enable-background="new    " points="49.23,42.72 48.51,42.25 48.68,42.72 
						48.81,44.14 					"/>
					
						<linearGradient id="SVGID_13_" gradientUnits="userSpaceOnUse" x1="-682.2814" y1="37.8324" x2="-682.2814" y2="39.6867" gradientTransform="matrix(-1 0 0 -1 -631.2214 81.2756)">
						<stop  offset="0" style="stop-color:#CCCCFF"/>
						<stop  offset="1" style="stop-color:#755CBB"/>
					</linearGradient>
					<polygon opacity="0.76" fill="url(#SVGID_13_)" enable-background="new    " points="49.87,42.75 50.63,42.32 52.25,41.59 
						50.19,42.95 50.06,43.44 					"/>
				</g>
				<path fill="#FE9083" d="M47.79,28.13c0,0.03-0.01,0.05-0.01,0.05c0.04,0.16,0.08,0.31,0.13,0.44c0.15,0.44,0.34,0.75,0.48,0.94
					c0.12,0.17,0.21,0.25,0.21,0.25c1.13-0.36,1.69-1.47,1.91-2.02v-0.01c0.04-0.1,0.07-0.19,0.09-0.24l0,0
					c0.01-0.04,0.02-0.07,0.02-0.07c0-0.01-0.01-0.02-0.01-0.03l0,0c-0.02-0.04-0.04-0.08-0.05-0.12C50.4,27,50.3,26.7,50.24,26.46
					c-0.06-0.2-0.08-0.36-0.1-0.44c-0.01-0.04-0.01-0.07-0.01-0.07l-0.53,0.28l-1.82,0.96c0.03,0.17,0.04,0.32,0.04,0.46
					c0,0.1,0,0.18-0.01,0.26c-0.01,0.09-0.01,0.16-0.02,0.21l0,0C47.79,28.13,47.79,28.13,47.79,28.13z"/>
				
					<linearGradient id="SVGID_14_" gradientUnits="userSpaceOnUse" x1="-680.4047" y1="51.0559" x2="-680.4047" y2="53.8259" gradientTransform="matrix(-1 0 0 -1 -631.2214 81.2756)">
					<stop  offset="0" style="stop-color:#D5CDF8"/>
					<stop  offset="1" style="stop-color:#F3EDFB"/>
				</linearGradient>
				<path fill="url(#SVGID_14_)" d="M48.29,29.94c0.11,0.1,0.23,0.2,0.38,0.28c0,0,0.01,0,0.01,0.01c0,0,0,0,0.01-0.01l0,0
					c0.04-0.02,0.18-0.11,0.36-0.24c0.48-0.36,1.27-1.08,1.5-2.06l0,0c0.03-0.12,0.05-0.23,0.05-0.36l0,0c0-0.03,0-0.06,0.01-0.1
					c0,0-0.16,0.37-0.43,0.77c-0.32,0.47-0.81,0.99-1.38,0.99c-0.5,0-0.76-0.34-0.89-0.65c-0.06-0.13-0.09-0.26-0.11-0.36l0,0
					c-0.01-0.03-0.01-0.05-0.01-0.07l0,0c0-0.01,0-0.02,0-0.03c0-0.04-0.01-0.06-0.01-0.06S47.59,29.23,48.29,29.94z"/>
				
					<linearGradient id="SVGID_15_" gradientUnits="userSpaceOnUse" x1="-681.8314" y1="52.4356" x2="-678.9779" y2="52.4356" gradientTransform="matrix(-1 0 0 -1 -631.2214 81.2756)">
					<stop  offset="0" style="stop-color:#CCCCFF"/>
					<stop  offset="1" style="stop-color:#755CBB"/>
				</linearGradient>
				<path opacity="0.5" fill="url(#SVGID_15_)" enable-background="new    " d="M48.29,29.94c0.11,0.1,0.23,0.2,0.38,0.28h0.01h0.01
					l0,0c0.04-0.02,0.18-0.11,0.36-0.24c0.48-0.36,1.27-1.08,1.5-2.06l0,0c0.03-0.12,0.05-0.23,0.05-0.36l0,0
					c0-0.03,0-0.06,0.01-0.1c0,0-0.16,0.37-0.43,0.77c0,0-0.31,0.86-0.99,1.29c-0.34,0.21-0.6,0.18-0.79,0.06
					c-0.19-0.13-0.31-0.34-0.39-0.51c-0.07-0.17-0.1-0.32-0.1-0.43c0-0.03,0-0.05,0-0.07c-0.06-0.13-0.09-0.26-0.11-0.36l0,0
					c-0.01-0.03-0.01-0.05-0.01-0.07l0,0c0-0.01,0-0.02,0-0.03c0-0.04-0.01-0.06-0.01-0.06S47.59,29.23,48.29,29.94z"/>
				
					<linearGradient id="SVGID_16_" gradientUnits="userSpaceOnUse" x1="-681.2153" y1="39.9919" x2="-681.2153" y2="53.9499" gradientTransform="matrix(-1 0 0 -1 -631.2214 81.2756)">
					<stop  offset="0" style="stop-color:#9E8CEF"/>
					<stop  offset="1" style="stop-color:#CAAFEE"/>
				</linearGradient>
				<path fill="url(#SVGID_16_)" d="M43.92,36.99c0.01,0,0.01,0.01,0.01,0.01c0.06,0.01,0.26-0.04,0.52-0.26l0,0l0,0l0,0
					c0.22-0.19,0.48-0.51,0.74-1.03c0.52-1.04,0.67-1.74,0.69-1.86v-0.02l0.3,0.48c0.21,0.62,0.6,3.19,0.59,3.3
					s-0.35,0.65-0.34,0.71l0,0c0.01,0.07,0.16,0.21,0.21,0.37c0.03,0.11-0.18,0.44-0.32,0.69l0,0c-0.08,0.13-0.13,0.24-0.13,0.28
					c0,0.12,0.37,0.69,0.37,0.69v0.31l0.01,0.01l0.02,0.02l0.01,0.01c0.14,0.11,0.73,0.47,2.59,0.57c2.2,0.12,3.66-0.59,3.66-0.59
					l-0.11-0.3c0,0,0.1-0.09,0.11-0.13c0.01-0.04-0.08-0.15-0.08-0.15S53,39.98,53,39.84c0-0.15-0.44-0.6-0.43-0.99
					c0.01-0.39,0.35-0.74,0.4-0.96s-0.57-0.77-0.57-0.77c0.53-1.68,0.63-3.94,0.63-3.94l0.1-0.12c0,0,0.63,1.44,1.21,2.15
					c0.07,0.08,0.14,0.17,0.22,0.25c0.16,0.17,0.33,0.34,0.49,0.48c0.4,0.35,0.76,0.57,0.85,0.56c0.15-0.03,0.74-1.19,0.71-2.39
					c-0.01-0.57-0.35-1.2-0.71-1.71c-0.04-0.05-0.08-0.11-0.12-0.16c-0.25-0.34-0.49-0.61-0.61-0.74c-0.05-0.05-0.07-0.07-0.07-0.07
					s0.08-0.26,0.14-0.49c0-0.01,0-0.01,0-0.02v-0.01V30.9c0.03-0.14,0.05-0.26,0.03-0.29c-0.05-0.08-0.33-0.17-0.38-0.23
					s-0.26-1.05-0.41-1.16c-0.15-0.1-0.42-0.18-1.3-0.53c-0.04-0.02-0.09-0.03-0.13-0.05c-0.99-0.39-1.96-0.87-1.96-0.87l-0.37-0.46
					h-0.17l0.05,0.12l0,0c-0.03,0.12-0.06,0.23-0.09,0.34v0.01c-0.51,1.62-1.83,2.14-1.83,2.14c-0.92-0.68-0.9-1.75-0.9-1.75v-0.15
					l-0.17,0.05l-0.12,0.28c0,0-0.2,0.31-0.99,0.66c-0.14,0.06-0.28,0.14-0.43,0.22c-0.72,0.41-1.52,1.04-1.59,1.18
					c-0.01,0.01-0.01,0.04-0.02,0.07l0,0c-0.08,0.33-0.26,1.58-0.42,2.02c-0.1,0.28-0.26,0.43-0.38,0.51l0,0
					c-0.09,0.06-0.15,0.08-0.15,0.08c-0.01,0.07-0.02,0.14-0.04,0.2C43.14,35.44,43.78,36.89,43.92,36.99z"/>
				
					<linearGradient id="SVGID_17_" gradientUnits="userSpaceOnUse" x1="-687.0114" y1="48.6906" x2="-683.6114" y2="48.6906" gradientTransform="matrix(-1 0 0 -1 -631.2214 81.2756)">
					<stop  offset="0" style="stop-color:#CCCCFF"/>
					<stop  offset="1" style="stop-color:#755CBB"/>
				</linearGradient>
				<path opacity="0.5" fill="url(#SVGID_17_)" enable-background="new    " d="M52.39,32.97l0.64,0.22l0.1-0.12
					c0,0,0.63,1.44,1.21,2.15c0.07,0.08,0.14,0.17,0.22,0.25c0.16,0.17,0.33,0.34,0.49,0.48l0.49-2.11l0.25-1.6
					c-0.25-0.34-0.49-0.61-0.61-0.74c-0.05-0.05-0.07-0.07-0.07-0.07s0.08-0.26,0.14-0.49c0-0.01,0-0.01,0-0.02v-0.01V30.9
					c0.03-0.14,0.05-0.26,0.03-0.29c-0.05-0.08-0.33-0.17-0.38-0.23s-0.26-1.05-0.41-1.16c0,0,0.1,0.95-0.44,2.16l-0.27,0.37
					L53,32.37C53.01,32.4,52.71,32.79,52.39,32.97z"/>
				
					<linearGradient id="SVGID_18_" gradientUnits="userSpaceOnUse" x1="-687.1096" y1="44.7756" x2="-687.1096" y2="51.3027" gradientTransform="matrix(-1 0 0 -1 -631.2214 81.2756)">
					<stop  offset="0" style="stop-color:#9E8CEF"/>
					<stop  offset="1" style="stop-color:#DAC7F3"/>
				</linearGradient>
				<path fill="url(#SVGID_18_)" d="M54.24,34.69c0.14,1.02,1.66,1.81,1.66,1.81c0.34,0,0.72-0.59,1.06-1.32s0.36-2.82,0.38-2.95
					s0.21-0.39,0.22-0.5c0.01-0.11-0.31-0.34-0.31-0.34v-0.01v-0.01c0.03-0.07,0.22-0.48,0.21-0.55c-0.01-0.08-0.37-0.26-0.37-0.26
					l-0.02,0.4c0,0-0.84-0.16-1.12-0.81l-0.05-0.2l-0.14,0.09v0.85c0,0-0.03,0.13-0.07,0.13s-0.37-0.16-0.44-0.14
					s-0.14,0.48-0.23,0.54c-0.09,0.06-0.33,0.23-0.37,0.31c-0.02,0.04-0.02,0.17-0.02,0.32c0,0.19,0,0.41-0.03,0.54
					C54.55,32.85,54.11,33.67,54.24,34.69z"/>
				
					<linearGradient id="SVGID_19_" gradientUnits="userSpaceOnUse" x1="-675.8921" y1="46.656" x2="-671.5162" y2="46.656" gradientTransform="matrix(-1 0 0 -1 -631.2214 81.2756)">
					<stop  offset="0" style="stop-color:#A999F1"/>
					<stop  offset="1" style="stop-color:#DAC7F3"/>
				</linearGradient>
				<path fill="url(#SVGID_19_)" d="M40.32,33.82c0.07,0.11,0.41,0.33,0.5,0.42c0.09,0.09,0,0.38,0,0.38
					c1.44,1.53,2.95,2.3,3.1,2.38c0.01,0,0.01,0.01,0.01,0.01c0.91-0.61,0.83-1.61,0.53-2.46c-0.29-0.81-0.78-1.48-0.8-1.51l0,0l0,0
					c-0.02-0.01-0.28-0.11-0.46-0.13c-0.06,0-0.12,0.02-0.17,0.05c-0.11,0.07-0.2,0.18-0.29,0.13c-0.13-0.07-0.43-0.77-0.63-0.79
					c-0.14-0.01-0.34,0.13-0.47,0.21c-0.06,0.04-0.1,0.06-0.12,0.05c-0.07-0.02-0.32-0.32-0.34-0.33c-0.02-0.01-0.13,0.08-0.13,0.08
					l0.08,0.1c-0.12,0.71-0.53,1.18-0.53,1.18l-0.27-0.4C40.32,33.2,40.25,33.71,40.32,33.82z"/>
				<path fill="#CB4D7A" d="M47.78,28.1c0,0.01,0,0.02,0,0.03c0,0.02,0.01,0.04,0.01,0.06l0,0c0.09,0.34,0.47,0.69,0.94,0.53
					c0.52-0.18,1.5-2.26,1.5-2.26l-0.1-0.44l-2.33,1.9l-0.03,0.18H47.78z"/>
				<g>
					<path fill="#EE8183" d="M55.54,27.72c0,0,0.14-0.79,0.08-1.37c-0.06-0.58,0.02-1.24,0.02-1.24s0.14-0.06,0.24,0
						c0.1,0.06,0.34,0.66,0.24,1.14c-0.11,0.48-0.02,1.64-0.02,1.64h0.16l0.35-0.49l0.17-0.05c0,0,0.99,0.93,0.98,1.49l-0.13,0.49
						l-1.22-0.04l-0.8-0.91L55.54,27.72z"/>
					
						<linearGradient id="SVGID_20_" gradientUnits="userSpaceOnUse" x1="-688.5414" y1="52.1941" x2="-688.5414" y2="53.9151" gradientTransform="matrix(-1 0 0 -1 -631.2214 81.2756)">
						<stop  offset="0.016" style="stop-color:#FFC2A9"/>
						<stop  offset="1" style="stop-color:#FF9595"/>
					</linearGradient>
					<path fill="url(#SVGID_20_)" d="M56.78,27.36c0,0-0.03,0.62-0.16,1.15c0,0,0.02,0.22,0.28,0.23l0.06-0.07
						c0,0,0.04,0.25,0.27,0.27l0.21-0.21l-0.06,0.18c0,0,0.08,0.19,0.28,0.18c0,0,0.34-0.27,0.36-0.61l-0.34-0.28v-0.22l-0.4-0.28
						l-0.01-0.16C57.28,27.53,57.05,27.36,56.78,27.36z"/>
					
						<linearGradient id="SVGID_21_" gradientUnits="userSpaceOnUse" x1="-687.4514" y1="52.2348" x2="-687.4514" y2="55.0836" gradientTransform="matrix(-1 0 0 -1 -631.2214 81.2756)">
						<stop  offset="0" style="stop-color:#FFEADB"/>
						<stop  offset="0.9944" style="stop-color:#C27CB6"/>
					</linearGradient>
					<path opacity="0.6" fill="url(#SVGID_21_)" enable-background="new    " d="M55.61,26.19c0,0,0.06,0.15,0.14,0.21
						c0.08,0.06,0.33,0.1,0.33,0.1l0.01,1.39h0.16l0.35-0.49c0,0-0.18,0.28-0.19,0.49l0.14,0.07l0.12-0.42l0.06,0.3l-0.06,0.37
						c0,0-0.21-0.18-0.59-0.19l-0.06,0.1c0,0,0.69,0.57,0.85,0.9c0,0-0.34-0.43-1.11-0.91l-0.07-0.23l-0.1-0.55
						C55.59,27.36,55.69,26.57,55.61,26.19z"/>
					
						<linearGradient id="SVGID_22_" gradientUnits="userSpaceOnUse" x1="-687.5527" y1="50.2956" x2="-687.5527" y2="54.6875" gradientTransform="matrix(-1 0 0 -1 -631.2214 81.2756)">
						<stop  offset="0.016" style="stop-color:#FFC2A9"/>
						<stop  offset="1" style="stop-color:#FF9595"/>
					</linearGradient>
					<path fill="url(#SVGID_22_)" d="M55.03,28.61c0.06,0.19,0.73,0.99,0.81,1.16c0.07,0.17,0.12,0.4,0.12,0.4
						c0.33,0.71,1.12,0.81,1.12,0.81l0.04-0.64c0,0,0.43-0.25,0.5-0.38l0,0l0.01-0.02c0.02-0.13,0-0.59,0-0.59l-0.75-0.3
						c-0.32-0.42-1.11-0.91-1.11-0.91l-0.04-0.22c0.57-0.28,0.47-1.12,0.38-1.22c-0.1-0.1-0.27-0.1-0.27-0.1s-0.21,0.68-0.34,0.99
						C55.36,27.9,54.97,28.42,55.03,28.61z"/>
					<path fill="#E28183" d="M57.28,27.53c0,0-0.08,0.77-0.33,1.14c0,0,0.31-0.39,0.34-0.98L57.28,27.53z"/>
					<path fill="#E28183" d="M57.69,27.97c0,0-0.08,0.62-0.46,0.97c0,0,0.34-0.17,0.46-0.75V27.97z"/>
					
						<linearGradient id="SVGID_23_" gradientUnits="userSpaceOnUse" x1="-688.3349" y1="50.9806" x2="-686.9549" y2="50.9806" gradientTransform="matrix(-1 0 0 -1 -631.2214 81.2756)">
						<stop  offset="0.016" style="stop-color:#D1A1D6"/>
						<stop  offset="0.9944" style="stop-color:#BD89C4"/>
					</linearGradient>
					<path opacity="0.91" fill="url(#SVGID_23_)" enable-background="new    " d="M55.73,29.61c0,0,0.84,0.82,1.38,0.73l-0.04,0.64
						c0,0-0.88-0.08-1.17-1.01C55.91,29.97,55.8,29.7,55.73,29.61z"/>
				</g>
				<g>
					
						<linearGradient id="SVGID_24_" gradientUnits="userSpaceOnUse" x1="-671.4247" y1="47.6256" x2="-671.4247" y2="53.4985" gradientTransform="matrix(-1 0 0 -1 -631.2214 81.2756)">
						<stop  offset="0.016" style="stop-color:#FFC2A9"/>
						<stop  offset="1" style="stop-color:#FF9595"/>
					</linearGradient>
					<path fill="url(#SVGID_24_)" d="M37.92,30.72c0,0,0.77,1.41,1.68,1.85h0.31l0.71,1.08c0,0,0.46-0.29,0.5-1.24
						c0,0-0.16-0.17-0.2-0.36c0,0,0.26-0.2,0.32-0.35c0.07-0.15,0.09-0.59,0.14-0.77s0.47-0.56,0.56-0.61
						c0.09-0.05,0.52-0.07,0.52-0.07s0.06-0.15,0-0.23c-0.06-0.07-0.72-0.33-1.08-0.08c0,0-0.02,0.19-0.06,0.29s-0.35,0.45-0.4,0.45
						c-0.05,0-0.26-0.18-0.35-0.31s-0.56-1.16-0.68-1.5v-0.01c0-0.01,0-0.01,0-0.02v-0.01l0,0c-0.09-0.3-0.6-0.87-0.88-1.03
						c0,0-0.12-0.03-0.18,0.12c0,0,0.22,0.63,0.45,1c0.04,0.06,0.08,0.14,0.12,0.22l0,0c0.2,0.36,0.42,0.84,0.45,0.9v0.01
						l-0.12,0.06l-0.33-0.32l-0.34-0.32l-0.78,0.83l0.08,0.1l0.24,0.31l-0.12,0.02l-0.29-0.32L37.92,30.72z"/>
					
						<linearGradient id="SVGID_25_" gradientUnits="userSpaceOnUse" x1="-670.7264" y1="49.5033" x2="-670.7264" y2="52.4211" gradientTransform="matrix(-1 0 0 -1 -631.2214 81.2756)">
						<stop  offset="0" style="stop-color:#FFEADB"/>
						<stop  offset="0.9944" style="stop-color:#C27CB6"/>
					</linearGradient>
					<path opacity="0.6" fill="url(#SVGID_25_)" enable-background="new    " d="M38.1,31.02l0.25,0.36c0,0,1.36-1.05,1.65-1.14
						s0.4-0.03,0.4-0.03l0.3,0.39c0,0-0.56,0.5-0.61,1.16c0,0,0.19-0.84,0.82-1.1c-0.05,0-0.26-0.18-0.35-0.31s-0.56-1.16-0.68-1.5
						c0.02,0.06,0.04,0.17-0.01,0.27c-0.07,0.12-0.46,0.01-0.48,0l0,0l0.45,0.9v0.01l-0.12,0.06l-0.33-0.32l0.17,0.39l-1.21,0.21
						l0.24,0.31l-0.12,0.02L38.1,31.02z"/>
					
						<linearGradient id="SVGID_26_" gradientUnits="userSpaceOnUse" x1="-670.1464" y1="50.5104" x2="-670.1464" y2="51.8184" gradientTransform="matrix(-1 0 0 -1 -631.2214 81.2756)">
						<stop  offset="0" style="stop-color:#FFB0B0"/>
						<stop  offset="0.984" style="stop-color:#FFC2A9"/>
					</linearGradient>
					<path fill="url(#SVGID_26_)" d="M39.04,29.46c0,0-0.24-0.03-0.39,0.27l0.03,0.1c0,0-0.23,0.05-0.45,0.42
						c0,0,0.2,0.36,0.68,0.52c0,0,0.23-0.06,0.27-0.26l-0.04-0.12l0.18,0.13c0,0,0.21,0.06,0.3-0.25L39.04,29.46z"/>
					
						<linearGradient id="SVGID_27_" gradientUnits="userSpaceOnUse" x1="-669.3992" y1="50.309" x2="-669.3992" y2="51.0263" gradientTransform="matrix(-1 0 0 -1 -631.2214 81.2756)">
						<stop  offset="0" style="stop-color:#FFB0B0"/>
						<stop  offset="0.984" style="stop-color:#FFC2A9"/>
					</linearGradient>
					<path fill="url(#SVGID_27_)" d="M37.85,30.62c0,0-0.05-0.23,0.19-0.37l0.47,0.52c0,0-0.01,0.17-0.22,0.2
						C38.29,30.97,37.97,30.86,37.85,30.62z"/>
					
						<linearGradient id="SVGID_28_" gradientUnits="userSpaceOnUse" x1="-672.4614" y1="48.8806" x2="-671.1274" y2="48.8806" gradientTransform="matrix(-1 0 0 -1 -631.2214 81.2756)">
						<stop  offset="0.016" style="stop-color:#D1A1D6"/>
						<stop  offset="0.9944" style="stop-color:#BD89C4"/>
					</linearGradient>
					<path opacity="0.91" fill="url(#SVGID_28_)" enable-background="new    " d="M41.24,31.7c0,0-0.54,0.6-1.33,0.87l0.34,0.52
						l0.71-0.91l-0.05-0.13C40.92,32.05,41.2,31.84,41.24,31.7z"/>
					<path fill="#E28183" d="M38.69,29.83c0,0,0.23,0.37,0.45,0.56l0.04,0.12c0,0-0.44-0.3-0.6-0.64
						C38.59,29.87,38.64,29.83,38.69,29.83z"/>
				</g>
				
					<linearGradient id="SVGID_29_" gradientUnits="userSpaceOnUse" x1="-674.3109" y1="44.2752" x2="-674.3109" y2="50.8456" gradientTransform="matrix(-1 0 0 -1 -631.2214 81.2756)">
					<stop  offset="0" style="stop-color:#CCCCFF"/>
					<stop  offset="1" style="stop-color:#755CBB"/>
				</linearGradient>
				<path opacity="0.5" fill="url(#SVGID_29_)" enable-background="new    " d="M40.32,33.82c0.07,0.11,0.41,0.33,0.5,0.42
					c0.09,0.09,0,0.38,0,0.38c1.44,1.53,2.95,2.3,3.1,2.38c0.01,0,0.01,0.01,0.01,0.01c0.12,0.01,0.69-0.15,1.27-1.3
					c0.52-1.04,0.67-1.74,0.69-1.86v-0.02l-0.13-0.17l-0.19-2.12l-0.13,0.43c-0.5-0.6-0.97-1.53-0.97-1.53l-0.02,0.07l0,0
					c-0.08,0.33-0.26,1.58-0.42,2.02c-0.1,0.28-0.26,0.43-0.38,0.51l0,0l0,0c0.46,0.42,0.69,1.03,0.8,1.51
					c0.1,0.44,0.11,0.78,0.11,0.78s-0.13-0.6-0.53-1.32c-0.15-0.26-0.36-0.5-0.57-0.69c-0.16-0.14-0.32-0.27-0.44-0.36
					c-0.11,0.07-0.2,0.18-0.29,0.13c0.61,0.91,0.59,2.71,0.02,2.37s-0.7-1.07-0.7-1.07c0.13-0.89,0.09-1.89-0.01-2.08
					c-0.13,0-0.51,0.27-0.53,0.26c0.03,1.05-0.46,1.74-0.46,1.74l-0.32-0.5c0.47-0.8,0.44-1.57,0.44-1.57
					c-0.02-0.01-0.13,0.08-0.13,0.08l0.08,0.1c-0.12,0.71-0.53,1.18-0.53,1.18l-0.27-0.4C40.32,33.2,40.25,33.71,40.32,33.82z"/>
				
					<linearGradient id="SVGID_30_" gradientUnits="userSpaceOnUse" x1="-688.7814" y1="45.6138" x2="-677.7862" y2="45.6138" gradientTransform="matrix(-1 0 0 -1 -631.2214 81.2756)">
					<stop  offset="0" style="stop-color:#CCCCFF"/>
					<stop  offset="1" style="stop-color:#755CBB"/>
				</linearGradient>
				<path opacity="0.5" fill="url(#SVGID_30_)" enable-background="new    " d="M46.58,40.36v0.31l0.01,0.01l0.02,0.02l0.01,0.01
					c0.14,0.11,0.73,0.47,2.59,0.57c2.2,0.12,3.66-0.59,3.66-0.59l-0.11-0.3c0,0,0.1-0.09,0.11-0.13c0.01-0.04-0.08-0.15-0.08-0.15
					S53,39.98,53,39.84c0-0.13-0.36-0.52-0.42-0.88c-0.01-0.04-0.01-0.08-0.01-0.12c0.01-0.39,0.35-0.73,0.4-0.95l0,0
					c0.04-0.22-0.57-0.77-0.57-0.77c0.53-1.68,0.63-3.94,0.63-3.94l0.1-0.12c0,0,0.63,1.44,1.21,2.15c0.57,0.71,1.41,1.31,1.56,1.28
					c0.34,0,0.72-0.59,1.06-1.32s0.36-2.82,0.38-2.95s0.21-0.39,0.22-0.5c-0.37,0.63-0.96,0.45-0.96,0.45
					c0.43,0.01,0.65-0.79,0.65-0.79v-0.01v-0.01l0.21-0.55c-0.02,0.03-0.51,0.57-0.98,0.23c-0.48-0.34-0.73-1.01-0.73-1.01v0.85
					c0,0-0.03,0.13-0.07,0.13c0.03,0.39,0.11,0.87,0.21,1.34c0.22,1.02,0.52,2.01,0.52,2.01s-0.81-0.44-1.1-1.56
					c-0.14-0.54-0.16-1-0.15-1.34c0.01-0.29,0.05-0.49,0.07-0.56c0-0.01,0-0.01,0-0.02v-0.01l0,0l-0.08,0.17L55,31.41
					c-0.17,1.44,0.18,3.6,0.18,3.6c-0.52-0.65-0.63-2.08-0.61-2.43c0.01-0.17,0.02-0.37,0.03-0.54c0.01-0.18,0.02-0.32,0.02-0.32
					l-1.07,0.64l0.2-0.62l-0.78,0.62c0,0-0.7,0.84-1.41,0.94c-0.72,0.1-3.35,0.04-3.35,0.04s2.29,0.15,2.96,0.34
					c0.67,0.2,0.8,0.42,0.8,0.42c-0.48,2.46-3.16,3.29-3.24,3.31c2.43-0.36,3.55-2.43,3.55-2.43s0.04,1.16-0.15,1.6
					c-0.19,0.44-1.29,1.52-2.7,1.75c-0.12,0.02-0.24,0.03-0.35,0.04c-1.19,0.06-2.18-0.55-2.28-0.62c-0.01,0-0.01-0.01-0.01-0.01
					l0,0c0.04,0.06,0.53,0.75,2.5,0.82c0.12,0,0.24,0,0.35,0l0,0c1.83-0.08,2.76-1.3,2.76-1.3s0.68,0.36,0.25,0.9
					c0,0.01-0.01,0.01-0.01,0.02c-0.13,0.15-0.41,0.33-0.74,0.51c-0.01,0.01-0.02,0.01-0.03,0.02c-0.4,0.22-0.87,0.45-1.24,0.64
					c0,0,0,0-0.01,0c-0.22,0.12-0.41,0.22-0.51,0.29l0,0c-0.1,0.07-0.12,0.12-0.02,0.13c0.51,0.06,2.45-0.36,2.52-0.25
					c0.08,0.12-0.1,0.42-0.1,0.42c-1.78,0.88-5.58,0.45-5.7,0.43c3.18,0.81,5.78-0.22,5.78-0.22l-0.09,0.3c0,0-1.42,0.49-3.09,0.53
					c-1.67,0.04-2.71-0.39-2.71-0.39L46.58,40.36z"/>
				
					<linearGradient id="SVGID_31_" gradientUnits="userSpaceOnUse" x1="-679.0989" y1="47.4455" x2="-676.9989" y2="47.4455" gradientTransform="matrix(-1 0 0 -1 -631.2214 81.2756)">
					<stop  offset="0" style="stop-color:#CCEDFF"/>
					<stop  offset="1" style="stop-color:#755CBB"/>
				</linearGradient>
				<path opacity="0.5" fill="url(#SVGID_31_)" enable-background="new    " d="M47.88,33.36c0,0-1.27,0.07-2.1,0.29l0.43,0.65
					C46.21,34.31,46.86,33.74,47.88,33.36z"/>
				
					<linearGradient id="SVGID_32_" gradientUnits="userSpaceOnUse" x1="-681.005" y1="43.7568" x2="-677.915" y2="43.7568" gradientTransform="matrix(-1 0 0 -1 -631.2214 81.2756)">
					<stop  offset="0" style="stop-color:#CCEDFF"/>
					<stop  offset="1" style="stop-color:#755CBB"/>
				</linearGradient>
				<path opacity="0.5" fill="url(#SVGID_32_)" enable-background="new    " d="M46.7,36.85c0,0,0.79,0.66,1.57,0.96
					s1.52,0.33,1.52,0.33s-0.45,0.13-1.54-0.04c-1.1-0.18-1.47-0.77-1.47-0.77L46.7,36.85z"/>
				
					<linearGradient id="SVGID_33_" gradientUnits="userSpaceOnUse" x1="-680.8616" y1="42.3535" x2="-677.5614" y2="42.3535" gradientTransform="matrix(-1 0 0 -1 -631.2214 81.2756)">
					<stop  offset="0" style="stop-color:#CCEDFF"/>
					<stop  offset="1" style="stop-color:#755CBB"/>
				</linearGradient>
				<path opacity="0.5" fill="url(#SVGID_33_)" enable-background="new    " d="M46.34,39.39L46.34,39.39
					c1.46,0.38,3.32-0.16,3.3-0.23s-0.51,0.03-1.65-0.2c-1.11-0.22-1.51-0.62-1.53-0.64c0.01,0.07,0.16,0.21,0.21,0.37
					C46.69,38.8,46.49,39.14,46.34,39.39z"/>
				
					<linearGradient id="SVGID_34_" gradientUnits="userSpaceOnUse" x1="-683.7064" y1="45.8156" x2="-683.7064" y2="49.5156" gradientTransform="matrix(-1 0 0 -1 -631.2214 81.2756)">
					<stop  offset="0" style="stop-color:#CCEDFF"/>
					<stop  offset="1" style="stop-color:#755CBB"/>
				</linearGradient>
				<path opacity="0.5" fill="url(#SVGID_34_)" enable-background="new    " d="M50.31,33.56c1.25,0.13,1.58,0.47,1.58,0.47
					c0.35,0.04,1.14-0.85,1.14-0.85l0.1-0.12c0,0,0.63,1.44,1.21,2.15c0.07,0.08,0.14,0.17,0.22,0.25l-0.08-0.18
					c0,0-0.13-0.06-0.17-0.77c-0.04-0.7,0.29-1.75,0.3-1.89c0-0.14,0.05-0.86,0.05-0.86l-1.07,0.64l0.2-0.62l-0.78,0.62
					c0,0-0.3,0.46-1.07,0.84C51.21,33.59,50.4,33.57,50.31,33.56z"/>
				
					<linearGradient id="SVGID_35_" gradientUnits="userSpaceOnUse" x1="-683.4064" y1="45.501" x2="-683.4064" y2="48.3083" gradientTransform="matrix(-1 0 0 -1 -631.2214 81.2756)">
					<stop  offset="0" style="stop-color:#CCEDFF"/>
					<stop  offset="1" style="stop-color:#755CBB"/>
				</linearGradient>
				<path opacity="0.5" fill="url(#SVGID_35_)" enable-background="new    " d="M53.13,33.06l-0.74-0.1c0,0-0.3,0.2-0.89,0.44
					l0.5,0.73c0,0-0.2,1.05-0.76,1.63c0,0,1.5-0.83,1.71-1.54L53.13,33.06z"/>
				
					<linearGradient id="SVGID_36_" gradientUnits="userSpaceOnUse" x1="-687.8364" y1="49.0897" x2="-687.8364" y2="51.2102" gradientTransform="matrix(-1 0 0 -1 -631.2214 81.2756)">
					<stop  offset="0" style="stop-color:#CCEDFF"/>
					<stop  offset="1" style="stop-color:#755CBB"/>
				</linearGradient>
				<path opacity="0.5" fill="url(#SVGID_36_)" enable-background="new    " d="M57.47,30.84l-0.21,0.56c0,0-0.22,0.75-0.65,0.79
					c-0.43,0.03-0.85-1.27-0.85-1.27v-0.85c0,0,0.46,0.98,0.95,1.09C57.21,31.27,57.47,30.84,57.47,30.84z"/>
				
					<linearGradient id="SVGID_37_" gradientUnits="userSpaceOnUse" x1="-686.1242" y1="50.9556" x2="-685.2694" y2="50.9556" gradientTransform="matrix(-1 0 0 -1 -631.2214 81.2756)">
					<stop  offset="0" style="stop-color:#CCEDFF"/>
					<stop  offset="1" style="stop-color:#755CBB"/>
				</linearGradient>
				<path opacity="0.5" fill="url(#SVGID_37_)" enable-background="new    " d="M54.9,30.4c0,0-0.38,0.77-0.85,1
					c0,0,0.56-1.36,0.44-2.16C54.49,29.24,54.7,29.37,54.9,30.4z"/>
				
					<linearGradient id="SVGID_38_" gradientUnits="userSpaceOnUse" x1="-676.8414" y1="45.8156" x2="-676.8414" y2="49.7456" gradientTransform="matrix(-1 0 0 -1 -631.2214 81.2756)">
					<stop  offset="0" style="stop-color:#CCCCFF"/>
					<stop  offset="1" style="stop-color:#755CBB"/>
				</linearGradient>
				<path opacity="0.76" fill="url(#SVGID_38_)" enable-background="new    " d="M45.59,31.53l-0.13,0.43l-0.13,3.5
					c0,0,0.34-0.67,0.58-1.62l-0.12-0.19C45.78,33.65,45.57,32.33,45.59,31.53z"/>
				
					<linearGradient id="SVGID_39_" gradientUnits="userSpaceOnUse" x1="-672.4124" y1="46.6579" x2="-672.4124" y2="48.7122" gradientTransform="matrix(-1 0 0 -1 -631.2214 81.2756)">
					<stop  offset="0" style="stop-color:#CCCCFF"/>
					<stop  offset="1" style="stop-color:#755CBB"/>
				</linearGradient>
				<path opacity="0.5" fill="url(#SVGID_39_)" enable-background="new    " d="M41.52,32.56c0,0,0.07,1.72-0.66,1.87l-0.04,0.18
					C40.82,34.62,41.77,34.58,41.52,32.56z"/>
				
					<linearGradient id="SVGID_40_" gradientUnits="userSpaceOnUse" x1="-674.7414" y1="46.7497" x2="-674.7414" y2="48.3197" gradientTransform="matrix(-1 0 0 -1 -631.2214 81.2756)">
					<stop  offset="0" style="stop-color:#CCCCFF"/>
					<stop  offset="1" style="stop-color:#755CBB"/>
				</linearGradient>
				<path opacity="0.3" fill="url(#SVGID_40_)" enable-background="new    " d="M42.74,33.09c0,0,0.03,0.06,0.29-0.13
					c0,0,0.92,0.65,1.27,1.57c0,0-0.57-0.84-0.87-0.94c-0.3-0.09-0.37,0.25-0.37,0.25S42.94,33.36,42.74,33.09z"/>
				
					<linearGradient id="SVGID_41_" gradientUnits="userSpaceOnUse" x1="-688.2827" y1="48.9543" x2="-688.2827" y2="49.5375" gradientTransform="matrix(-1 0 0 -1 -631.2214 81.2756)">
					<stop  offset="0" style="stop-color:#CCEDFF"/>
					<stop  offset="1" style="stop-color:#755CBB"/>
				</linearGradient>
				<path opacity="0.5" fill="url(#SVGID_41_)" enable-background="new    " d="M57.57,31.74c0,0-0.35,0.65-1.02,0.45
					c0,0,0.4,0.27,0.8,0.05C57.35,32.24,57.6,31.81,57.57,31.74z"/>
				
					<linearGradient id="SVGID_42_" gradientUnits="userSpaceOnUse" x1="-686.7236" y1="47.1756" x2="-686.7236" y2="50.3656" gradientTransform="matrix(-1 0 0 -1 -631.2214 81.2756)">
					<stop  offset="0" style="stop-color:#CCCCFF"/>
					<stop  offset="1" style="stop-color:#755CBB"/>
				</linearGradient>
				<path opacity="0.5" fill="url(#SVGID_42_)" enable-background="new    " d="M55.25,30.91c0,0-0.49,1.82,0.78,3.19
					c0,0-0.82-0.42-1.01-1.4C54.84,31.72,55.25,30.91,55.25,30.91z"/>
				
					<linearGradient id="SVGID_43_" gradientUnits="userSpaceOnUse" x1="-678.524" y1="49.4198" x2="-678.524" y2="51.8198" gradientTransform="matrix(-1 0 0 -1 -631.2214 81.2756)">
					<stop  offset="0" style="stop-color:#CCEDFF"/>
					<stop  offset="1" style="stop-color:#755CBB"/>
				</linearGradient>
				<path opacity="0.5" fill="url(#SVGID_43_)" enable-background="new    " d="M46.53,29.46c0,0,0.05,0.82,0.45,1.41
					c0.39,0.59,1.17,0.99,1.17,0.99s-0.98-0.36-1.43-0.87C46.27,30.48,46.53,29.46,46.53,29.46z"/>
				
					<linearGradient id="SVGID_44_" gradientUnits="userSpaceOnUse" x1="-681.6681" y1="49.7456" x2="-681.6681" y2="53.0556" gradientTransform="matrix(-1 0 0 -1 -631.2214 81.2756)">
					<stop  offset="0" style="stop-color:#CCEDFF"/>
					<stop  offset="1" style="stop-color:#755CBB"/>
				</linearGradient>
				<path opacity="0.5" fill="url(#SVGID_44_)" enable-background="new    " d="M51.54,28.22c0,0,0,0.69-0.22,1.39
					c-0.22,0.7-2.14,1.92-2.14,1.92s1.98-0.82,2.36-1.56C51.93,29.23,51.54,28.22,51.54,28.22z"/>
				
					<linearGradient id="SVGID_45_" gradientUnits="userSpaceOnUse" x1="-682.7814" y1="49.1407" x2="-677.2514" y2="49.1407" gradientTransform="matrix(-1 0 0 -1 -631.2214 81.2756)">
					<stop  offset="0" style="stop-color:#8642A0"/>
					<stop  offset="1" style="stop-color:#6456C0"/>
				</linearGradient>
				<path fill="url(#SVGID_45_)" d="M51.56,31.49v1.12c0,0-2.58-0.02-5.46,0.17l-0.07-1.01C46.04,31.78,48.55,31.48,51.56,31.49z"/>
				<g>
					<path fill="#EBEFFF" d="M51.11,32.41l-0.2,0.01v-0.16H50.9l-0.06,0.16l-0.28,0.01c-0.05,0-0.1,0-0.13-0.02
						c-0.04-0.01-0.07-0.03-0.09-0.05s-0.04-0.05-0.05-0.09c-0.01-0.03-0.02-0.07-0.02-0.11v-0.14c0-0.04,0-0.08,0.01-0.11
						s0.02-0.06,0.05-0.09c0.02-0.02,0.05-0.04,0.09-0.06c0.04-0.01,0.08-0.02,0.13-0.02l0.52-0.02c0.02,0,0.03,0.01,0.03,0.03
						L51.11,32.41z M50.9,31.91C50.9,31.91,50.89,31.91,50.9,31.91c-0.01-0.01-0.01-0.01-0.01-0.01l-0.32,0.01
						c-0.04,0-0.06,0.01-0.08,0.03s-0.02,0.05-0.02,0.09v0.12c0,0.04,0.01,0.07,0.03,0.09s0.04,0.02,0.08,0.02l0.33-0.01L50.9,31.91
						z"/>
					<path fill="#EBEFFF" d="M49.94,32.17l-0.27,0.01v-0.14l0.32-0.01v-0.09v-0.01h-0.01l-0.39,0.01c-0.01,0-0.01,0-0.01,0.01v0.09
						h-0.01l-0.18-0.06l-0.01-0.18c0-0.02,0.01-0.03,0.03-0.03l0.75-0.02c0.02,0,0.03,0.01,0.03,0.03l0.02,0.64
						c0,0.02-0.01,0.03-0.03,0.03l-0.77,0.02l-0.01-0.18l0.59-0.02c0.01,0,0.01,0,0.01-0.01l-0.01-0.21h-0.01L49.94,32.17z"/>
					<path fill="#EBEFFF" d="M48.49,31.97v-0.14c0-0.02,0.01-0.03,0.03-0.03l0.62-0.02c0.06,0,0.11,0.01,0.14,0.04
						s0.04,0.07,0.04,0.12v0.05c0,0.03,0,0.05-0.01,0.07s-0.01,0.03-0.03,0.05c-0.01,0.01-0.03,0.02-0.05,0.03s-0.04,0.01-0.07,0.02
						l-0.42,0.07c-0.01,0-0.02,0.01-0.02,0.01s-0.01,0.01-0.01,0.03v0.02c0,0.02,0,0.03,0.01,0.03c0.01,0.01,0.02,0.01,0.03,0.01
						l0.56-0.02l0.01,0.18l-0.62,0.02c-0.04,0-0.07,0-0.1-0.01s-0.05-0.02-0.06-0.03c-0.02-0.01-0.03-0.03-0.04-0.05
						c-0.01-0.02-0.01-0.05-0.01-0.08v-0.06c0-0.03,0-0.05,0.01-0.07c0-0.02,0.01-0.04,0.02-0.05c0.01-0.01,0.03-0.02,0.05-0.03
						s0.04-0.02,0.07-0.02l0.43-0.07c0.01,0,0.02-0.01,0.03-0.01c0,0,0.01-0.01,0.01-0.03v-0.02c0-0.01,0-0.02-0.01-0.02
						c-0.01-0.01-0.01-0.01-0.03-0.01l-0.37,0.01c-0.01,0-0.01,0-0.01,0.01v0.08h-0.01L48.49,31.97z"/>
					<path fill="#EBEFFF" d="M48.22,32.5l-0.02-0.7l0.2-0.01l0.02,0.7L48.22,32.5z"/>
					<path fill="#EBEFFF" d="M47.49,32.33c0,0.01,0,0.01,0.01,0.01l0.33-0.01c0.04,0,0.06-0.01,0.08-0.03s0.02-0.05,0.02-0.09v-0.12
						c0-0.02,0-0.04-0.01-0.05c0-0.01-0.01-0.03-0.02-0.03C47.89,32,47.88,32,47.87,31.99c-0.01,0-0.03,0-0.05,0L47.49,32
						c-0.01,0-0.01,0-0.01,0.01v0.07h-0.01l-0.18-0.06v-0.15c0-0.02,0.01-0.03,0.03-0.03l0.52-0.02c0.05,0,0.1,0,0.13,0.02
						c0.04,0.01,0.07,0.03,0.09,0.05c0.02,0.02,0.04,0.05,0.05,0.09c0.01,0.03,0.02,0.07,0.02,0.11v0.14c0,0.04,0,0.08-0.01,0.11
						s-0.02,0.06-0.05,0.09c-0.02,0.02-0.05,0.04-0.09,0.06c-0.04,0.01-0.08,0.02-0.13,0.02l-0.52,0.02c-0.02,0-0.02-0.01-0.02-0.03
						l-0.01-0.34l0.19-0.01v0.01c0,0.01,0,0.02,0,0.03s0,0.02,0,0.03L47.49,32.33z"/>
					<path fill="#EBEFFF" d="M47.17,31.84c0.02,0,0.03,0.01,0.03,0.03l0.02,0.67l-0.18,0.01l-0.02-0.52c0-0.01-0.01-0.02-0.02-0.01
						L47,32c-0.01,0-0.01,0-0.02,0.01l-0.26,0.51c-0.01,0.01-0.01,0.02-0.02,0.02c-0.01,0-0.02,0.01-0.03,0.01l-0.28,0.01
						c-0.02,0-0.03-0.01-0.03-0.03l-0.02-0.67l0.18-0.01l0.02,0.52c0,0.01,0.01,0.02,0.02,0.01h0.01c0.01,0,0.01,0,0.02-0.01
						l0.25-0.51c0-0.01,0.01-0.02,0.02-0.02c0.01,0,0.02-0.01,0.03-0.01L47.17,31.84z"/>
				</g>
				
					<linearGradient id="SVGID_46_" gradientUnits="userSpaceOnUse" x1="-682.3095" y1="52.3206" x2="-678.7111" y2="52.3206" gradientTransform="matrix(-1 0 0 -1 -631.2214 81.2756)">
					<stop  offset="0" style="stop-color:#CCCCFF"/>
					<stop  offset="1" style="stop-color:#755CBB"/>
				</linearGradient>
				<path opacity="0.5" fill="url(#SVGID_46_)" enable-background="new    " d="M47.49,28.37c0.06,0.72,0.28,1.23,0.52,1.57
					c0.32,0.47,0.67,0.63,0.67,0.63c0.35-0.15,0.65-0.34,0.91-0.55c1.11-0.89,1.47-2.12,1.49-2.22c-0.47,1.13-1.16,1.82-1.68,2.2
					c-0.42,0.31-0.73,0.43-0.73,0.43v-0.36c0.08-0.03,0.16-0.07,0.24-0.11c0.92-0.46,1.4-1.43,1.63-2.05l0,0
					c0.12-0.34,0.17-0.57,0.17-0.57h-0.17l0.05,0.12l0,0c-0.03,0.12-0.06,0.23-0.09,0.34v0.01c-0.51,1.62-1.83,2.14-1.83,2.14
					c-0.92-0.68-0.9-1.75-0.9-1.75v-0.15L47.6,28.1L47.49,28.37z"/>
				
					<linearGradient id="SVGID_47_" gradientUnits="userSpaceOnUse" x1="-673.0485" y1="46.8921" x2="-673.0485" y2="48.9746" gradientTransform="matrix(-1 0 0 -1 -631.2214 81.2756)">
					<stop  offset="0" style="stop-color:#CCCCFF"/>
					<stop  offset="1" style="stop-color:#755CBB"/>
				</linearGradient>
				<path opacity="0.3" fill="url(#SVGID_47_)" enable-background="new    " d="M42.04,32.3c0,0,0.25,0.81,0.01,2.08
					c0,0-0.12-1.61-0.21-1.75s-0.34-0.07-0.34-0.07S41.91,32.35,42.04,32.3z"/>
				
					<linearGradient id="SVGID_48_" gradientUnits="userSpaceOnUse" x1="-676.0064" y1="44.5456" x2="-676.0064" y2="50.8456" gradientTransform="matrix(-1 0 0 -1 -631.2214 81.2756)">
					<stop  offset="0" style="stop-color:#CCCCFF"/>
					<stop  offset="1" style="stop-color:#755CBB"/>
				</linearGradient>
				<path opacity="0.5" fill="url(#SVGID_48_)" enable-background="new    " d="M44.47,36.73c0.22-0.19,0.48-0.51,0.74-1.03
					c0.52-1.04,0.67-1.74,0.69-1.86l-0.12-0.19l-0.17-1.6l-0.15-0.09c0,0-0.55-0.61-0.97-1.53c-0.01,0.01-0.01,0.04-0.02,0.07l0,0
					c-0.08,0.33-0.26,1.58-0.42,2.02c-0.1,0.28-0.26,0.43-0.38,0.51c0,0,0.96,1.42,1,2.43C44.71,36.39,44.5,36.69,44.47,36.73z"/>
				
					<linearGradient id="SVGID_49_" gradientUnits="userSpaceOnUse" x1="-682.7814" y1="41.5807" x2="-682.7814" y2="43.3885" gradientTransform="matrix(-1 0 0 -1 -631.2214 81.2756)">
					<stop  offset="0" style="stop-color:#CCCCFF"/>
					<stop  offset="1" style="stop-color:#755CBB"/>
				</linearGradient>
				<path opacity="0.5" fill="url(#SVGID_49_)" enable-background="new    " d="M50.15,39.69c0,0,1.73-0.28,2.43-0.74l0,0
					c-0.01-0.04-0.01-0.08-0.01-0.12c0.01-0.39,0.35-0.73,0.4-0.95c-0.01,0.02-0.06,0.14-0.3,0.35c-0.15,0.13-0.39,0.3-0.74,0.51
					c-0.01,0.01-0.02,0.01-0.03,0.02c-0.5,0.29-0.93,0.49-1.24,0.64c0,0,0,0-0.01,0C50.38,39.53,50.2,39.62,50.15,39.69L50.15,39.69
					z"/>
				
					<linearGradient id="SVGID_50_" gradientUnits="userSpaceOnUse" x1="-679.2764" y1="42.0773" x2="-679.2764" y2="42.9552" gradientTransform="matrix(-1 0 0 -1 -631.2214 81.2756)">
					<stop  offset="0" style="stop-color:#CCCCFF"/>
					<stop  offset="1" style="stop-color:#755CBB"/>
				</linearGradient>
				<path opacity="0.5" fill="url(#SVGID_50_)" enable-background="new    " d="M46.46,38.32c0.01,0.07,0.16,0.21,0.21,0.37
					c0,0,0.63,0.67,2.98,0.46c-0.02-0.07-0.51,0.03-1.65-0.2C46.88,38.74,46.48,38.34,46.46,38.32z"/>
				<path opacity="0.5" fill="#7A4AC0" enable-background="new    " d="M46.07,29.25l1.5,0.49l0.44,0.2l0,0h0.29h0.39l0.24,0.02
					l0.13,0.01L49.41,30l0.18,0.01l1.8-0.65l0.32-0.12l1.48-0.54c-0.04-0.02-0.09-0.03-0.13-0.05c-0.99-0.39-1.96-0.87-1.96-0.87
					l-0.37-0.46h-0.17C50.4,27,50.3,26.7,50.24,26.46l-0.1-0.44c-0.01-0.04-0.01-0.07-0.01-0.07l-0.53,0.28l-1.78,1.43
					c0,0.1,0,0.18-0.01,0.26l-0.03,0.18c0-0.04-0.01-0.06-0.01-0.06l-0.17,0.05l-0.12,0.28c0,0-0.2,0.31-0.99,0.66
					C46.37,29.09,46.22,29.16,46.07,29.25z"/>
				<g>
					
						<linearGradient id="SVGID_51_" gradientUnits="userSpaceOnUse" x1="-679.3163" y1="53.3622" x2="-679.3163" y2="59.3668" gradientTransform="matrix(-1 0 0 -1 -631.2214 81.2756)">
						<stop  offset="0.016" style="stop-color:#FFC2A9"/>
						<stop  offset="1" style="stop-color:#FF9595"/>
					</linearGradient>
					<path fill="url(#SVGID_51_)" d="M47.21,27.88c0,0,0.7,0.16,1.47-0.22c0.77-0.37,1.42-1.47,1.46-1.75s-0.29-0.99-0.29-1.55
						s0.27-1.52-0.19-2.04s-2.58-0.6-3.27,0.07c0,0-0.21,0.54-0.21,0.84c0,0.07,0.01,0.18,0.03,0.3c0.01,0.05,0.01,0.09,0.02,0.15
						c0.06,0.37,0.15,0.81,0.11,1.01c-0.01,0.07-0.04,0.13-0.06,0.19l0,0c-0.08,0.2-0.21,0.35-0.23,0.52
						C46.01,25.62,46.31,27.19,47.21,27.88z"/>
					
						<linearGradient id="SVGID_52_" gradientUnits="userSpaceOnUse" x1="-681.5468" y1="55.7848" x2="-681.5468" y2="57.5554" gradientTransform="matrix(-1 0 0 -1 -631.2214 81.2756)">
						<stop  offset="0.016" style="stop-color:#FFC2A9"/>
						<stop  offset="1" style="stop-color:#FF9595"/>
					</linearGradient>
					<path fill="url(#SVGID_52_)" d="M49.85,24.21c0,0,0.19-0.48,0.67-0.49c0,0,0.28,0.11,0.32,0.32c0,0-0.1,0.77-0.22,1.13
						c-0.12,0.36-0.55,0.31-0.55,0.31S49.69,24.91,49.85,24.21z"/>
					
						<linearGradient id="SVGID_53_" gradientUnits="userSpaceOnUse" x1="-678.4745" y1="55.1151" x2="-678.4003" y2="55.5017" gradientTransform="matrix(-1 0 0 -1 -631.2214 81.2756)">
						<stop  offset="0" style="stop-color:#E1616A"/>
						<stop  offset="1" style="stop-color:#FF8883"/>
					</linearGradient>
					<path fill="url(#SVGID_53_)" d="M48.01,25.78c0,0-0.16-0.01-0.23,0.04c-0.07,0.05-0.32,0.29-0.64,0.36s-0.53-0.2-0.6-0.22
						c-0.07-0.01-0.14,0.08-0.14,0.08s0.03-0.11,0.19-0.16c0,0,0.07,0.25,0.53,0.17c0.46-0.09,0.65-0.29,0.65-0.29l0.02-0.04
						C47.8,25.72,47.93,25.75,48.01,25.78z"/>
					
						<linearGradient id="SVGID_54_" gradientUnits="userSpaceOnUse" x1="-679.1464" y1="55.411" x2="-679.1464" y2="59.2798" gradientTransform="matrix(-1 0 0 -1 -631.2214 81.2756)">
						<stop  offset="0" style="stop-color:#FFEADB"/>
						<stop  offset="0.9944" style="stop-color:#C27CB6"/>
					</linearGradient>
					<path opacity="0.6" fill="url(#SVGID_54_)" enable-background="new    " d="M48.69,23.4l-0.01-0.05c0,0-0.46-0.8-1.36-0.83
						c-0.91-0.02-1.11,0.55-1.11,0.55l-0.17-0.25l0.38-0.78L49.08,22l0.65,0.52l0.08,1.28l-0.29,1.69l-0.7,0.37l-0.2-0.18
						c0.07-0.57,0.49-1.08,0.49-1.08l-0.31-0.21c0,0-0.79,0.38-1.24,0.27c0,0-0.34-1-0.32-1.74C47.24,22.92,48.41,23.09,48.69,23.4z
						"/>
					<path fill="#38368E" d="M48.73,23.46c0,0-0.04-0.29-0.53-0.41c-0.54-0.13-0.99-0.24-0.99-0.24s0.1,0.32,0.28,0.44
						c0,0,0.58-0.02,0.87,0.05C48.64,23.37,48.73,23.46,48.73,23.46z"/>
					<path fill="#38368E" d="M46.2,23.07c0,0,0.28,0.21,0.46,0.72c0,0-0.18-0.24-0.35-0.23c-0.11,0-0.1,0.11-0.1,0.11
						S46.11,23.37,46.2,23.07z"/>
					
						<linearGradient id="SVGID_55_" gradientUnits="userSpaceOnUse" x1="-679.3264" y1="56.9956" x2="-679.3264" y2="57.762" gradientTransform="matrix(-1 0 0 -1 -631.2214 81.2756)">
						<stop  offset="0" style="stop-color:#CF6074"/>
						<stop  offset="1" style="stop-color:#F37270"/>
					</linearGradient>
					<path fill="url(#SVGID_55_)" d="M48.54,24.28c0,0-0.03-0.61-0.63-0.77c0,0-0.21,0.28-0.24,0.59
						C47.68,24.1,48,24.04,48.54,24.28z"/>
					
						<linearGradient id="SVGID_56_" gradientUnits="userSpaceOnUse" x1="-677.8007" y1="56.7522" x2="-677.8007" y2="57.4191" gradientTransform="matrix(-1 0 0 -1 -631.2214 81.2756)">
						<stop  offset="0" style="stop-color:#CF6074"/>
						<stop  offset="1" style="stop-color:#FF817F"/>
					</linearGradient>
					<path fill="url(#SVGID_56_)" d="M46.83,24.52c0,0-0.05-0.49-0.33-0.67c0,0-0.19,0.14-0.17,0.55
						C46.33,24.41,46.5,24.35,46.83,24.52z"/>
					<path fill="#FFEBED" d="M48.54,24.28c0,0-0.19,0.24-0.74,0.28c0,0-0.1-0.16-0.09-0.47C47.71,24.1,48.21,24.05,48.54,24.28z"/>
					<path fill="#FFEBED" d="M46.83,24.52v0.07c0,0-0.08,0.17-0.38,0.2c0,0-0.1-0.15-0.1-0.39C46.35,24.4,46.54,24.36,46.83,24.52z"
						/>
					<path fill="#7F9EC9" d="M47.96,24.09c0,0,0.14,0.17,0.13,0.43c0,0-0.18,0.04-0.28,0.05c0,0-0.12-0.17-0.09-0.47
						C47.71,24.1,47.87,24.07,47.96,24.09z"/>
					<path fill="#7F9EC9" d="M46.55,24.41c0,0,0.08,0.08,0.09,0.34c0,0-0.11,0.05-0.19,0.05c0,0-0.11-0.15-0.1-0.39
						C46.35,24.4,46.42,24.37,46.55,24.41z"/>
					<path fill="#38368E" d="M48.01,24.54c0,0,0.05-0.33-0.14-0.46l-0.15,0.02c0,0-0.05,0.26,0.09,0.47
						C47.81,24.57,47.96,24.55,48.01,24.54z"/>
					<path fill="#38368E" d="M46.48,24.4c0,0,0.07,0.15,0.1,0.38c0,0-0.05,0.02-0.13,0.03c0,0-0.11-0.13-0.1-0.39
						C46.35,24.4,46.43,24.38,46.48,24.4z"/>
					<path fill="#131163" d="M48.54,24.28c0,0-0.36-0.21-0.98-0.09l0.11-0.09C47.68,24.1,48.12,23.97,48.54,24.28z"/>
					<path fill="#131163" d="M46.83,24.52c0,0-0.29-0.15-0.63-0.07l0.14-0.1C46.35,24.35,46.57,24.31,46.83,24.52z"/>
					<path fill="#FFFFFF" d="M48.15,24.28c0,0-0.1-0.02-0.19,0.07C47.97,24.35,48.09,24.38,48.15,24.28z"/>
					<path fill="#FFFFFF" d="M46.7,24.57c0,0-0.15-0.03-0.21,0.04C46.49,24.61,46.58,24.66,46.7,24.57z"/>
					<path fill="#C6659C" d="M48.51,24.32c0,0-0.28,0.28-0.73,0.34l-0.01-0.16l0.04,0.07C47.81,24.57,48.24,24.54,48.51,24.32z"/>
					<path fill="#C6659C" d="M46.83,24.59c0,0-0.05,0.18-0.42,0.26l0.01-0.09l0.02,0.03C46.45,24.8,46.71,24.77,46.83,24.59z"/>
					<path fill="#CB5F7D" d="M47.57,25.31c0,0-0.14-0.03-0.39,0s-0.53,0.1-0.69,0c0,0,0.2,0.2,0.38,0.24s0.45-0.12,0.45-0.12h0.12
						C47.44,25.43,47.53,25.38,47.57,25.31z"/>
					<path fill="#9F4A8B" d="M47.42,25.43c0,0-0.06-0.04-0.11-0.03s-0.1,0.08-0.1,0.08S47.31,25.42,47.42,25.43z"/>
					<path fill="#FFBCAF" d="M46.49,25.31c-0.07-0.06,0.27-0.67,0.44-0.69c0.16-0.02,0.31,0.68,0.31,0.68s-0.23,0.03-0.44,0.06
						C46.58,25.39,46.49,25.31,46.49,25.31z"/>
					
						<linearGradient id="SVGID_57_" gradientUnits="userSpaceOnUse" x1="-677.7471" y1="56.3641" x2="-677.7471" y2="57.8643" gradientTransform="matrix(-1 0 0 -1 -631.2214 81.2756)">
						<stop  offset="0" style="stop-color:#FFEADB"/>
						<stop  offset="0.9944" style="stop-color:#C27CB6"/>
					</linearGradient>
					<path opacity="0.6" fill="url(#SVGID_57_)" enable-background="new    " d="M46.25,23.41c0.09-0.01,0.42,0.38,0.42,0.38
						s0.21,0.64,0.17,0.83s-0.54,0.29-0.54,0.29l-0.02-0.03l0,0c0.03-0.06,0.05-0.12,0.06-0.19c0.04-0.2-0.05-0.64-0.11-1.01
						c0,0-0.02-0.08-0.02-0.15C46.2,23.47,46.21,23.42,46.25,23.41z"/>
					
						<linearGradient id="SVGID_58_" gradientUnits="userSpaceOnUse" x1="-679.2399" y1="53.2912" x2="-679.2399" y2="60.5746" gradientTransform="matrix(-1 0 0 -1 -631.2214 81.2756)">
						<stop  offset="0" style="stop-color:#2E33A0"/>
						<stop  offset="1" style="stop-color:#0665A5"/>
					</linearGradient>
					<path fill="url(#SVGID_58_)" d="M46.09,25.83c0.01,0.07,0.26,1.65,0.99,2.12l0,0c0,0,0.66,0.16,1.66-0.21
						c0,0,1.13-0.64,1.4-1.73c0,0,0.06-0.26-0.07-0.53c0,0-0.19-0.08-0.28-0.58c-0.1-0.55,0.2-0.93,0.2-0.93s-0.04-0.3,0.05-0.64
						s0.26-0.67,0.18-0.91c-0.07-0.24-0.69-0.39-0.97-0.62c-0.05-0.04-0.09-0.08-0.12-0.12l0,0l0,0c-0.04-0.04-0.07-0.08-0.1-0.11
						L49,21.53l-0.03-0.03c-0.08-0.1-0.18-0.19-0.4-0.29c-0.43-0.2-0.73-0.23-1.04-0.5l0,0c0,0-0.01,0.28,0.09,0.52
						c0,0-0.94-0.21-1.16-0.21s-0.29,0.71-0.29,0.71l0,0c-0.02,0.02-0.28,0.38-0.37,0.62c-0.05,0.13,0.4,1.06,0.4,1.06
						s-0.05-0.44,0.23-0.85l0.1,0.1c0,0,0-0.01,0.01-0.02c0.04-0.08,0.19-0.33,0.46-0.4c0,0,0,0.05,0.83-0.04s1.17-0.13,1.37,0.06
						c0.2,0.19,0.13,0.64-0.06,0.8c0,0,0.51,0.54,0.49,1.3c-0.01,0.73-0.57,1.27-0.8,1.36c-0.01,0-0.02,0.01-0.03,0.01
						c-0.22,0.06-0.33-0.33-1.6-0.16c-0.9,0.12-0.83,0.23-0.94,0.45C46.24,26.06,46.1,25.85,46.09,25.83z M46.34,26.31
						c-0.01-0.33,0.23-0.44,0.28-0.42c0.04,0.02,0.18,0.09,0.55,0.06c0.37-0.02,0.61-0.23,0.61-0.23s0.48,0.05,0.61,0.43
						c0.14,0.38-0.49,0.64-0.61,0.63s-0.41-0.34-0.41-0.34s-0.32-0.02-0.38,0.03c-0.06,0.06-0.1,0.51-0.27,0.54
						C46.54,27.04,46.35,26.54,46.34,26.31z"/>
					<path fill="#D2726C" d="M46.76,24.76c0,0-0.32,0.39-0.29,0.54c0.03,0.16,0.4,0.25,0.4,0.25s-0.29-0.1-0.36-0.25
						C46.52,25.3,46.6,25,46.76,24.76z"/>
					
						<linearGradient id="SVGID_59_" gradientUnits="userSpaceOnUse" x1="-677.3101" y1="57.8724" x2="-677.3101" y2="59.5524" gradientTransform="matrix(-1 0 0 -1 -631.2214 81.2756)">
						<stop  offset="0" style="stop-color:#FFEADB"/>
						<stop  offset="0.9944" style="stop-color:#8860C7"/>
					</linearGradient>
					<path opacity="0.6" fill="url(#SVGID_59_)" enable-background="new    " d="M46.18,23.4c0,0-0.05-0.44,0.23-0.85
						c-0.22-0.4-0.26-0.83-0.26-0.83l0,0c-0.08,0.19-0.12,0.55-0.12,0.55l-0.26,0.07C45.73,22.47,46.18,23.4,46.18,23.4z"/>
					
						<linearGradient id="SVGID_60_" gradientUnits="userSpaceOnUse" x1="-679.6018" y1="53.2912" x2="-679.6018" y2="60.5746" gradientTransform="matrix(-1 0 0 -1 -631.2214 81.2756)">
						<stop  offset="0" style="stop-color:#CCC2DB"/>
						<stop  offset="0.9944" style="stop-color:#8860C7"/>
					</linearGradient>
					<path opacity="0.6" fill="url(#SVGID_60_)" enable-background="new    " d="M46.53,22.63c0.04-0.08,0.19-0.33,0.46-0.4
						c0,0,0,0.05,0.83-0.04s1.17-0.13,1.37,0.06c0.2,0.19,0.13,0.64-0.06,0.8c0,0,0.51,0.54,0.49,1.3c-0.01,0.73-0.57,1.27-0.8,1.36
						l0.01,0.08c0,0-0.04,1.67-0.45,1.81c-0.41,0.13-1.25,0.06-1.33,0.14c-0.07,0.07,0.01,0.2,0.02,0.21l0,0
						c0,0,0.66,0.16,1.66-0.21c0,0,1.13-0.64,1.4-1.73c0,0,0.06-0.26-0.07-0.53c0,0-0.19-0.08-0.28-0.58
						c-0.1-0.55,0.2-0.93,0.2-0.93s-0.04-0.3,0.05-0.64s0.26-0.67,0.18-0.91c-0.47,0.07-0.78-0.17-0.78-0.17s-0.08-0.11-0.45-0.17
						c-0.36-0.06-1.83,0.09-1.83,0.09s0.15-0.12,0.46-0.2c0.29-0.08,1.29,0.01,1.4,0.02c-0.11-0.02-1.25-0.21-1.38-0.18
						C47.49,21.85,47,22.08,47,22.08c0.04-0.22,0.48-0.77,0.48-0.77s0.62,0.01,1.02,0.1c0.36,0.08,0.56,0.24,0.6,0.28L49,21.58
						l-0.03-0.04l-0.03-0.03l-0.14-0.02l-0.71-0.29c-0.24-0.13-0.54-0.44-0.58-0.48l0,0c0,0-0.01,0.28,0.09,0.52
						c-0.6-0.07-0.8-0.04-0.8-0.04C46.54,21.58,46.53,22.63,46.53,22.63z"/>
					
						<linearGradient id="SVGID_61_" gradientUnits="userSpaceOnUse" x1="-679.1167" y1="53.2876" x2="-679.1167" y2="53.6005" gradientTransform="matrix(-1 0 0 -1 -631.2214 81.2756)">
						<stop  offset="0" style="stop-color:#776D7E"/>
						<stop  offset="1" style="stop-color:#9D68C2"/>
					</linearGradient>
					<path opacity="0.5" fill="url(#SVGID_61_)" enable-background="new    " d="M48.74,27.74c0,0-0.37-0.09-0.92-0.06
						c-0.56,0.02-0.87,0.02-0.74,0.28C47.08,27.95,47.78,28.11,48.74,27.74z"/>
					
						<linearGradient id="SVGID_62_" gradientUnits="userSpaceOnUse" x1="-678.2014" y1="60.0465" x2="-678.2014" y2="60.279" gradientTransform="matrix(-1 0 0 -1 -631.2214 81.2756)">
						<stop  offset="0" style="stop-color:#1F77D1"/>
						<stop  offset="1" style="stop-color:#0686C9"/>
					</linearGradient>
					<path fill="url(#SVGID_62_)" d="M46.81,21.19c0,0-0.34-0.13-0.47-0.11c0,0,0.05-0.07,0.11-0.09c0.06-0.01,1.17,0.23,1.17,0.23
						S46.92,21.15,46.81,21.19z"/>
					
						<linearGradient id="SVGID_63_" gradientUnits="userSpaceOnUse" x1="-679.6814" y1="59.2811" x2="-679.6814" y2="59.9685" gradientTransform="matrix(-1 0 0 -1 -631.2214 81.2756)">
						<stop  offset="0" style="stop-color:#1F77D1"/>
						<stop  offset="1" style="stop-color:#0686C9"/>
					</linearGradient>
					<path fill="url(#SVGID_63_)" d="M47.5,21.32c0,0,0.03,0.37,0.14,0.5L49.02,22l0.4-0.07c0,0-0.16-0.07-0.33-0.27
						S48.02,21.26,47.5,21.32z"/>
					
						<linearGradient id="SVGID_64_" gradientUnits="userSpaceOnUse" x1="-677.1914" y1="58.9326" x2="-677.1914" y2="59.5526" gradientTransform="matrix(-1 0 0 -1 -631.2214 81.2756)">
						<stop  offset="0" style="stop-color:#1F77D1"/>
						<stop  offset="1" style="stop-color:#0686C9"/>
					</linearGradient>
					<path fill="url(#SVGID_64_)" d="M46.16,21.72c0,0-0.11,0.36-0.12,0.55l-0.26,0.07C45.78,22.34,45.86,22.07,46.16,21.72z"/>
					
						<linearGradient id="SVGID_65_" gradientUnits="userSpaceOnUse" x1="-681.2952" y1="56.2006" x2="-682.0883" y2="57.1722" gradientTransform="matrix(-1 0 0 -1 -631.2214 81.2756)">
						<stop  offset="0" style="stop-color:#FFEADB"/>
						<stop  offset="0.9944" style="stop-color:#B060F4"/>
					</linearGradient>
					<path opacity="0.8" fill="url(#SVGID_65_)" enable-background="new    " d="M49.91,24.86c0,0,0.1-0.46,0.33-0.69
						c0.24-0.23,0.51-0.16,0.51-0.16s-0.07,0.86-0.15,1.07s-0.2,0.27-0.2,0.27s0.17-0.15,0.19-0.43s0.03-0.69-0.03-0.73
						c-0.06-0.05-0.32,0.14-0.32,0.14s0.08,0.1,0.13,0.35s-0.13,0.44-0.2,0.43c-0.07,0,0-0.29-0.01-0.38
						C50.15,24.64,50.01,24.66,49.91,24.86z"/>
					
						<linearGradient id="SVGID_66_" gradientUnits="userSpaceOnUse" x1="-681.2066" y1="56.3303" x2="-681.5969" y2="56.8084" gradientTransform="matrix(-1 0 0 -1 -631.2214 81.2756)">
						<stop  offset="0" style="stop-color:#FFEADB"/>
						<stop  offset="0.9944" style="stop-color:#B060F4"/>
					</linearGradient>
					<path opacity="0.8" fill="url(#SVGID_66_)" enable-background="new    " d="M50.14,24.28c0,0,0.26,0.17,0.23,0.52
						s-0.23,0.33-0.23,0.26s0.04-0.26,0.02-0.37s-0.19-0.06-0.19-0.06S50.08,24.35,50.14,24.28z"/>
					<path fill="#34C7FF" d="M46.09,25.83c0,0,0.32,1.47,0.99,2.12C47.08,27.95,46.32,27.65,46.09,25.83z"/>
					<path fill="#34C7FF" d="M46.45,21c0,0-0.17,0.13-0.2,0.59c-0.03,0.46,0.17,0.97,0.17,0.97s-0.26-0.38-0.28-0.8
						C46.11,21.34,46.31,21.05,46.45,21z"/>
				</g>
				
					<linearGradient id="SVGID_67_" gradientUnits="userSpaceOnUse" x1="-679.726" y1="59.2167" x2="-678.3829" y2="59.2167" gradientTransform="matrix(-1 0 0 -1 -631.2214 81.2756)">
					<stop  offset="0" style="stop-color:#1F77D1"/>
					<stop  offset="1" style="stop-color:#0686C9"/>
				</linearGradient>
				<path fill="url(#SVGID_67_)" d="M48.5,21.96c0,0-0.39,0.13-0.82,0.17s-0.52,0.05-0.52,0.05s0.17-0.17,0.54-0.22
					C48.07,21.91,48.5,21.96,48.5,21.96z"/>
				
					<linearGradient id="SVGID_68_" gradientUnits="userSpaceOnUse" x1="-677.8314" y1="55.2026" x2="-677.424" y2="55.2026" gradientTransform="matrix(-1 0 0 -1 -631.2214 81.2756)">
					<stop  offset="0" style="stop-color:#1F77D1"/>
					<stop  offset="1" style="stop-color:#0686C9"/>
				</linearGradient>
				<path fill="url(#SVGID_68_)" d="M46.61,25.86c0,0-0.19,0-0.26,0.24c-0.06,0.19-0.08,0.35-0.08,0.35l-0.07-0.26
					c0,0,0.09-0.33,0.18-0.4c0.06-0.05,0.18-0.11,0.23-0.09V25.86z"/>
				
					<linearGradient id="SVGID_69_" gradientUnits="userSpaceOnUse" x1="-678.3345" y1="55.5044" x2="-677.8951" y2="55.5044" gradientTransform="matrix(-1 0 0 -1 -631.2214 81.2756)">
					<stop  offset="0" style="stop-color:#1F77D1"/>
					<stop  offset="1" style="stop-color:#0686C9"/>
				</linearGradient>
				<path fill="url(#SVGID_69_)" d="M47.11,25.63l-0.03,0.28c0,0-0.23,0.02-0.38-0.04l-0.03-0.17
					C46.67,25.7,46.97,25.62,47.11,25.63z"/>
				<path fill="#34C7FF" d="M46.07,29.25c0,0-1.34,0.98-1.51,1.32s-0.24,1.39-0.48,1.85c0,0,0.16-0.75,0.27-1.33
					c0.11-0.59,0.09-0.59,0.15-0.74C44.56,30.2,45.56,29.5,46.07,29.25z"/>
				<path fill="#34C7FF" d="M46.31,34.7c0,0,0.65,2.76,0.62,2.95c-0.03,0.19-0.45,0.57-0.47,0.67c0,0,0.32,0.43,0.3,0.52
					s-0.56,0.69-0.55,0.88c0,0.05,0.36,0.64,0.36,0.64s-0.4-0.57-0.42-0.67c-0.02-0.09,0.49-0.86,0.5-0.94
					c0.04-0.2-0.25-0.35-0.26-0.48s0.4-0.46,0.4-0.67C46.8,37.39,46.31,34.7,46.31,34.7z"/>
				<path fill="#34C7FF" d="M46.18,41.29c0,0-1.4,3.16-1.87,6.32C44.3,47.61,44.38,44.52,46.18,41.29z"/>
				<path fill="#FFBCAF" d="M55.03,28.61c0,0,0.36-0.08,0.51-0.39c0.15-0.32,0.05-0.77,0.05-0.77s-0.28,0.54-0.42,0.73
					C55.03,28.36,54.99,28.57,55.03,28.61z"/>
			</g>
		</g>
	</g>
	<g>
		
			<rect x="35.339" y="41.38" transform="matrix(0.9958 -0.0914 0.0914 0.9958 -3.5913 4.5718)" fill="#197DE5" width="25.56" height="0.23"/>
	</g>
	<g>
		<g>
			<path fill="#58FFFE" d="M25.33,72.33v-2.64l9.34,3.01v3.46L25.33,72.33z M25.56,70.01v2.17l8.87,3.63v-2.94L25.56,70.01z"/>
		</g>
		<g>
			<path fill="#58FFFE" d="M26.92,72.42c0.02,0,0.05-0.01,0.07-0.02c0.05-0.04,0.07-0.11,0.03-0.16l-0.73-1.06l0.79-0.37
				c0.06-0.03,0.08-0.1,0.06-0.16c-0.03-0.06-0.1-0.08-0.16-0.06l-1.04,0.49l0.88,1.28C26.84,72.41,26.88,72.42,26.92,72.42z"/>
		</g>
		<g>
			<path fill="#58FFFE" d="M27.99,72.93c0.02,0,0.04-0.01,0.06-0.02c0.05-0.03,0.07-0.11,0.04-0.16l-0.7-1.09l0.75-0.34
				c0.06-0.03,0.08-0.1,0.06-0.15c-0.03-0.06-0.1-0.08-0.15-0.06l-1,0.45l0.84,1.32C27.91,72.91,27.95,72.93,27.99,72.93z"/>
		</g>
	</g>
	<g>
		<g>
			<path fill="#58FFFE" d="M50.83,3.32l4.13-2.72l-0.07,4.86L50.7,7.69L50.83,3.32z M54.72,1.04l-3.66,2.41l-0.11,3.84l3.71-1.97
				L54.72,1.04z"/>
		</g>
		<g>
			<path fill="#58FFFE" d="M51.33,3.75l2.98-1.91l-0.09,3.22l-2.89,1.63V3.75z M54.07,2.27l-2.5,1.6v2.41l2.42-1.37L54.07,2.27z"/>
		</g>
		<g>
			<polygon fill="#58FFFE" points="52.47,4.9 54.29,2.12 54.09,1.99 52.42,4.54 51.53,3.72 51.37,3.9 			"/>
		</g>
	</g>
	<g>
		<polygon fill="#29BBFE" points="60.47,60.15 60.47,60.09 62.49,23.16 60.38,23.68 60.41,23.8 62.36,23.31 60.36,60.02 
			52.31,58.88 52.3,58.99 		"/>
	</g>
	<path fill="#58FFFE" d="M51.69,58.92c-0.01,0.27,0.15,0.5,0.37,0.51c0.22,0.01,0.4-0.2,0.42-0.47c0.01-0.27-0.15-0.5-0.37-0.51
		C51.89,58.43,51.71,58.65,51.69,58.92z"/>
	<path fill="#58FFFE" d="M60.02,23.72c-0.01,0.27,0.15,0.5,0.37,0.51c0.22,0.01,0.4-0.2,0.42-0.47c0.01-0.27-0.15-0.5-0.37-0.51
		S60.03,23.45,60.02,23.72z"/>
	<path fill="#B84B81" d="M65.35,71.67c-0.01,0.34,0.2,0.63,0.48,0.64c0.28,0.01,0.51-0.26,0.52-0.61c0.01-0.34-0.2-0.63-0.48-0.64
		C65.6,71.05,65.37,71.32,65.35,71.67z"/>
	<path fill="#85DEDA" d="M65.65,67.2c-0.01,0.34,0.2,0.63,0.48,0.64c0.28,0.01,0.51-0.26,0.52-0.61c0.01-0.34-0.2-0.63-0.48-0.64
		C65.89,66.59,65.66,66.86,65.65,67.2z"/>
	<g>
		
			<rect x="10.895" y="45.204" transform="matrix(0.0582 -0.9983 0.9983 0.0582 -13.1837 76.6639)" fill="#197DE5" width="46.29" height="0.23"/>
	</g>
	<g>
		<path fill="#6FCEF6" d="M39.27,65.34c0,0.1-0.03,0.19-0.09,0.26c-0.05,0.07-0.13,0.12-0.24,0.15c-0.1,0.03-0.22,0.03-0.36,0
			c-0.16-0.03-0.3-0.09-0.4-0.17c-0.07-0.06-0.13-0.13-0.18-0.21c-0.04-0.08-0.06-0.16-0.06-0.23c0-0.04,0.02-0.07,0.05-0.1
			c0.03-0.02,0.07-0.03,0.11-0.02c0.03,0.01,0.06,0.02,0.09,0.05c0.02,0.03,0.04,0.07,0.06,0.11c0.02,0.06,0.04,0.11,0.06,0.15
			s0.06,0.08,0.1,0.11c0.04,0.03,0.1,0.05,0.17,0.07c0.1,0.02,0.18,0.01,0.25-0.03c0.06-0.03,0.1-0.09,0.1-0.16
			c0-0.06-0.01-0.1-0.04-0.14c-0.03-0.04-0.07-0.07-0.13-0.1c-0.05-0.03-0.12-0.06-0.21-0.1c-0.12-0.05-0.22-0.1-0.3-0.15
			c-0.08-0.05-0.14-0.11-0.18-0.19c-0.04-0.07-0.06-0.16-0.06-0.25s0.03-0.17,0.09-0.23c0.05-0.06,0.13-0.1,0.22-0.12
			c0.1-0.02,0.21-0.02,0.34,0c0.1,0.02,0.19,0.05,0.26,0.09c0.07,0.04,0.13,0.08,0.18,0.13c0.05,0.05,0.08,0.1,0.1,0.15
			c0.02,0.05,0.03,0.1,0.03,0.14s-0.02,0.07-0.05,0.1s-0.07,0.04-0.11,0.03s-0.07-0.02-0.09-0.05c-0.02-0.02-0.04-0.06-0.06-0.11
			c-0.03-0.07-0.06-0.12-0.1-0.17c-0.04-0.04-0.11-0.07-0.2-0.09s-0.16-0.01-0.21,0.02s-0.08,0.07-0.09,0.12
			c0,0.03,0.01,0.06,0.02,0.09c0.02,0.03,0.04,0.05,0.07,0.08c0.03,0.02,0.06,0.04,0.09,0.06s0.09,0.04,0.16,0.07
			c0.09,0.04,0.18,0.08,0.25,0.12s0.14,0.08,0.19,0.13c0.05,0.05,0.09,0.1,0.12,0.17C39.27,65.18,39.28,65.26,39.27,65.34z"/>
		<path fill="#6FCEF6" d="M40.69,64.69l-0.76-0.14l-0.02,0.41l0.7,0.13c0.05,0.01,0.09,0.03,0.11,0.06c0.03,0.03,0.04,0.06,0.03,0.1
			c0,0.04-0.01,0.07-0.04,0.09c-0.03,0.02-0.07,0.02-0.12,0.01l-0.7-0.13l-0.02,0.47l0.78,0.14c0.05,0.01,0.09,0.03,0.12,0.06
			s0.04,0.06,0.04,0.11c0,0.04-0.02,0.07-0.04,0.09c-0.03,0.02-0.07,0.03-0.12,0.02l-0.91-0.17c-0.07-0.01-0.12-0.04-0.15-0.08
			c-0.03-0.04-0.05-0.09-0.04-0.17l0.05-1.25c0-0.05,0.01-0.09,0.03-0.11c0.01-0.03,0.04-0.05,0.07-0.05c0.03-0.01,0.07-0.01,0.12,0
			l0.89,0.16c0.05,0.01,0.09,0.03,0.12,0.06c0.02,0.03,0.04,0.06,0.03,0.1c0,0.04-0.02,0.07-0.04,0.09
			C40.78,64.69,40.74,64.7,40.69,64.69z"/>
		<path fill="#6FCEF6" d="M41.39,64.75l0.33,1.19l0.42-1.06c0.02-0.06,0.04-0.09,0.05-0.12c0.01-0.02,0.03-0.04,0.05-0.05
			s0.06-0.02,0.09-0.01c0.03,0.01,0.06,0.02,0.08,0.04c0.02,0.02,0.04,0.04,0.06,0.07c0.01,0.03,0.02,0.05,0.02,0.08
			c0,0.02,0,0.03-0.01,0.05c-0.01,0.02-0.01,0.04-0.02,0.05c-0.01,0.02-0.02,0.04-0.02,0.05l-0.45,1.02
			c-0.02,0.04-0.03,0.08-0.05,0.11s-0.03,0.07-0.05,0.09c-0.02,0.03-0.05,0.04-0.08,0.06c-0.03,0.01-0.07,0.01-0.12,0.01
			c-0.05-0.01-0.08-0.02-0.11-0.05c-0.03-0.02-0.05-0.05-0.07-0.08s-0.03-0.07-0.05-0.11c-0.01-0.04-0.03-0.08-0.04-0.13l-0.35-1.15
			c-0.01-0.02-0.01-0.04-0.02-0.06c-0.01-0.02-0.01-0.04-0.02-0.06c0-0.02-0.01-0.04-0.01-0.06c0-0.04,0.02-0.07,0.05-0.1
			s0.07-0.04,0.12-0.03c0.06,0.01,0.1,0.04,0.12,0.08C41.34,64.61,41.37,64.67,41.39,64.75z"/>
		<path fill="#6FCEF6" d="M43.82,65.26l-0.76-0.14l-0.02,0.41l0.7,0.13c0.05,0.01,0.09,0.03,0.11,0.06c0.03,0.03,0.04,0.06,0.03,0.1
			c0,0.04-0.01,0.07-0.04,0.09c-0.03,0.02-0.07,0.02-0.12,0.01l-0.7-0.13L43,66.26l0.78,0.14c0.05,0.01,0.09,0.03,0.12,0.06
			s0.04,0.07,0.04,0.11s-0.02,0.07-0.05,0.09s-0.07,0.02-0.12,0.02l-0.91-0.17c-0.07-0.01-0.12-0.04-0.15-0.08
			c-0.03-0.04-0.05-0.09-0.04-0.17l0.05-1.25c0-0.05,0.01-0.09,0.03-0.11c0.01-0.03,0.04-0.05,0.07-0.05c0.03-0.01,0.07-0.01,0.12,0
			L43.83,65c0.05,0.01,0.09,0.03,0.12,0.06c0.02,0.03,0.04,0.06,0.03,0.1c0,0.04-0.02,0.07-0.04,0.09
			C43.92,65.27,43.88,65.27,43.82,65.26z"/>
		<path fill="#6FCEF6" d="M44.72,65.34l0.6,1.1l0.04-0.99c0-0.06,0.02-0.11,0.05-0.14s0.07-0.04,0.11-0.03
			c0.05,0.01,0.09,0.03,0.11,0.07c0.03,0.04,0.04,0.09,0.04,0.15l-0.05,1.31c-0.01,0.15-0.07,0.21-0.19,0.19
			c-0.03-0.01-0.06-0.01-0.08-0.03c-0.02-0.01-0.05-0.03-0.07-0.05c-0.02-0.02-0.04-0.05-0.06-0.08s-0.03-0.06-0.05-0.09l-0.59-1.09
			l-0.04,0.98c0,0.06-0.02,0.11-0.05,0.14s-0.07,0.04-0.12,0.03s-0.08-0.03-0.11-0.07s-0.04-0.09-0.04-0.15l0.05-1.29
			c0-0.05,0.01-0.1,0.02-0.13c0.02-0.03,0.04-0.05,0.07-0.07s0.07-0.02,0.11-0.01c0.03,0.01,0.06,0.02,0.08,0.03
			s0.04,0.03,0.05,0.05c0.02,0.02,0.03,0.04,0.05,0.07C44.68,65.28,44.7,65.31,44.72,65.34z"/>
		<path fill="#6FCEF6" d="M47.83,66.91c0,0.1-0.03,0.19-0.09,0.26c-0.05,0.07-0.13,0.12-0.23,0.15s-0.22,0.03-0.36,0
			c-0.16-0.03-0.3-0.09-0.4-0.17c-0.07-0.06-0.13-0.13-0.18-0.21c-0.04-0.08-0.06-0.16-0.06-0.23c0-0.04,0.02-0.07,0.05-0.1
			c0.03-0.02,0.07-0.03,0.11-0.02s0.06,0.02,0.09,0.05c0.02,0.03,0.04,0.07,0.06,0.11c0.02,0.06,0.04,0.11,0.06,0.15
			s0.06,0.08,0.1,0.11c0.04,0.03,0.1,0.05,0.17,0.07c0.1,0.02,0.18,0.01,0.25-0.03c0.06-0.03,0.1-0.09,0.1-0.16
			c0-0.06-0.01-0.1-0.04-0.14c-0.03-0.04-0.07-0.07-0.13-0.1c-0.05-0.03-0.12-0.06-0.21-0.1c-0.12-0.05-0.22-0.1-0.3-0.15
			s-0.14-0.11-0.18-0.19c-0.04-0.07-0.06-0.16-0.06-0.25s0.03-0.17,0.09-0.23c0.05-0.06,0.13-0.1,0.22-0.12
			c0.1-0.02,0.21-0.02,0.33,0c0.1,0.02,0.19,0.05,0.26,0.09c0.07,0.04,0.13,0.08,0.18,0.13c0.05,0.05,0.08,0.1,0.1,0.15
			c0.02,0.05,0.03,0.1,0.03,0.14s-0.02,0.07-0.05,0.1s-0.06,0.04-0.11,0.03c-0.04-0.01-0.07-0.02-0.09-0.05
			c-0.02-0.02-0.04-0.06-0.06-0.11c-0.03-0.07-0.06-0.12-0.1-0.17c-0.04-0.04-0.11-0.07-0.2-0.09s-0.16-0.01-0.21,0.02
			s-0.08,0.07-0.09,0.12c0,0.03,0.01,0.06,0.02,0.09c0.02,0.03,0.04,0.05,0.07,0.08c0.03,0.02,0.06,0.04,0.09,0.06
			s0.09,0.04,0.16,0.07c0.09,0.04,0.18,0.08,0.25,0.12c0.08,0.04,0.14,0.08,0.19,0.13c0.05,0.05,0.09,0.1,0.12,0.17
			C47.82,66.76,47.84,66.83,47.83,66.91z"/>
		<path fill="#6FCEF6" d="M49.23,66.28l-0.37-0.07l-0.05,1.21c0,0.07-0.02,0.12-0.05,0.15s-0.07,0.04-0.12,0.03
			s-0.09-0.03-0.12-0.07s-0.04-0.09-0.04-0.16l0.05-1.21l-0.37-0.07c-0.06-0.01-0.1-0.03-0.13-0.06C48.01,65.99,48,65.95,48,65.91
			c0-0.04,0.02-0.08,0.05-0.09c0.03-0.02,0.07-0.02,0.13-0.01l1.07,0.2c0.06,0.01,0.1,0.03,0.13,0.06c0.03,0.03,0.04,0.07,0.04,0.11
			s-0.02,0.07-0.05,0.09C49.33,66.28,49.29,66.29,49.23,66.28z"/>
		<path fill="#6FCEF6" d="M49.57,67.04l0.03-0.8c0-0.07,0.02-0.12,0.05-0.15s0.07-0.04,0.12-0.03s0.09,0.03,0.12,0.07
			s0.04,0.09,0.04,0.16l-0.03,0.82c0,0.09,0,0.17,0.02,0.24s0.05,0.12,0.1,0.17c0.05,0.04,0.12,0.08,0.22,0.09
			c0.13,0.02,0.22,0.01,0.28-0.05c0.06-0.06,0.09-0.16,0.09-0.3l0.03-0.83c0-0.07,0.02-0.12,0.05-0.15s0.07-0.04,0.12-0.03
			s0.09,0.03,0.12,0.07C50.99,66.37,51,66.43,51,66.5l-0.03,0.8c-0.01,0.13-0.02,0.24-0.05,0.32s-0.08,0.15-0.15,0.2
			c-0.06,0.05-0.13,0.07-0.22,0.08c-0.08,0.01-0.17,0.01-0.28-0.01c-0.13-0.02-0.24-0.06-0.33-0.1s-0.16-0.1-0.22-0.17
			s-0.1-0.15-0.12-0.25C49.58,67.28,49.57,67.17,49.57,67.04z"/>
		<path fill="#6FCEF6" d="M51.58,66.43l0.44,0.08c0.11,0.02,0.21,0.05,0.29,0.09c0.08,0.04,0.15,0.09,0.22,0.16
			c0.17,0.18,0.24,0.42,0.23,0.72c0,0.1-0.02,0.19-0.04,0.27s-0.05,0.15-0.09,0.21s-0.09,0.11-0.15,0.15
			c-0.05,0.03-0.1,0.06-0.15,0.07c-0.05,0.01-0.11,0.02-0.17,0.02c-0.06,0-0.13-0.01-0.21-0.02l-0.44-0.08
			c-0.06-0.01-0.1-0.03-0.14-0.05c-0.03-0.02-0.05-0.05-0.06-0.09c-0.01-0.04-0.01-0.08-0.01-0.13l0.05-1.22
			c0-0.07,0.02-0.12,0.05-0.15C51.45,66.42,51.51,66.41,51.58,66.43z M51.7,66.72l-0.05,1.13l0.25,0.05
			c0.06,0.01,0.1,0.02,0.13,0.02c0.03,0,0.06,0,0.1,0c0.03-0.01,0.06-0.02,0.09-0.03c0.12-0.07,0.18-0.23,0.19-0.46
			c0.01-0.16-0.01-0.29-0.06-0.38c-0.05-0.09-0.1-0.15-0.18-0.19c-0.07-0.04-0.16-0.06-0.26-0.08L51.7,66.72z"/>
		<path fill="#6FCEF6" d="M53.03,68.19l0.05-1.31c0-0.07,0.02-0.12,0.05-0.15s0.07-0.04,0.12-0.03s0.09,0.03,0.12,0.07
			s0.04,0.09,0.04,0.16l-0.05,1.31c0,0.07-0.02,0.12-0.05,0.15s-0.07,0.04-0.12,0.03s-0.09-0.03-0.12-0.07
			C53.04,68.32,53.03,68.26,53.03,68.19z"/>
		<path fill="#6FCEF6" d="M54.54,66.94c0.17,0.03,0.32,0.09,0.44,0.19c0.12,0.09,0.21,0.21,0.27,0.35s0.08,0.3,0.08,0.47
			c-0.01,0.13-0.03,0.24-0.07,0.34s-0.09,0.18-0.17,0.25c-0.07,0.06-0.16,0.11-0.26,0.13s-0.22,0.02-0.35,0
			c-0.13-0.02-0.24-0.07-0.35-0.13c-0.1-0.06-0.18-0.14-0.25-0.23c-0.07-0.09-0.11-0.19-0.14-0.3s-0.04-0.23-0.04-0.36
			c0.01-0.13,0.03-0.24,0.07-0.34s0.1-0.18,0.17-0.24s0.16-0.1,0.26-0.13C54.3,66.92,54.41,66.92,54.54,66.94z M54.98,67.88
			c0-0.12-0.01-0.23-0.05-0.33s-0.09-0.17-0.16-0.23c-0.07-0.06-0.15-0.1-0.25-0.11c-0.07-0.01-0.13-0.01-0.19,0
			c-0.06,0.02-0.11,0.04-0.15,0.08s-0.08,0.1-0.1,0.17c-0.03,0.07-0.04,0.15-0.05,0.25c0,0.09,0,0.18,0.02,0.26s0.05,0.15,0.09,0.21
			s0.09,0.1,0.14,0.14c0.06,0.04,0.12,0.06,0.18,0.07c0.09,0.02,0.17,0.01,0.24-0.02c0.07-0.03,0.13-0.09,0.18-0.17
			C54.95,68.12,54.97,68.02,54.98,67.88z"/>
	</g>
</g>
</svg>
