<?xml version="1.0" encoding="utf-8"?>
<!-- Generator: Adobe Illustrator 24.1.1, SVG Export Plug-In . SVG Version: 6.00 Build 0)  -->
<svg version="1.1" id="pc" xmlns="http://www.w3.org/2000/svg" xmlns:xlink="http://www.w3.org/1999/xlink" x="0px" y="0px"
	 viewBox="0 0 70.5 79.7" enable-background="new 0 0 70.5 79.7" xml:space="preserve">
<g>
	<polygon opacity="0.2" fill="#072D4C" enable-background="new    " points="25.1,65.5 8.5,62 9.5,43.8 26.6,41.7 	"/>
	<path fill="#58FFFE" d="M8.1,31c0,0.3,0.1,0.5,0.3,0.5s0.3-0.2,0.3-0.5s-0.1-0.5-0.3-0.5C8.3,30.5,8.1,30.8,8.1,31z"/>
	<g>
		
			<radialGradient id="SVGID_1_" cx="16.1255" cy="565.7" r="10.582" gradientTransform="matrix(1 0 0 1 0 -514)" gradientUnits="userSpaceOnUse">
			<stop  offset="0" style="stop-color:#2478FE"/>
			<stop  offset="0.9944" style="stop-color:#621F86"/>
		</radialGradient>
		<polygon opacity="0.8" fill="url(#SVGID_1_)" enable-background="new    " points="23.7,63.6 7.1,60.1 8.1,41.9 25.2,39.8 		"/>
		<polygon fill="#0031B3" points="25.2,39.8 25.4,40.2 24.2,63.3 23.7,63.6 		"/>
		<g>
			<polygon fill="#29BBFE" points="7.6,51.3 7.6,51.2 5.4,51.1 7.1,31.8 8.6,31.1 8.5,30.9 7,31.7 7,31.8 5.2,51.2 			"/>
		</g>
		<g>
			<g>
				<polygon fill="#002D95" points="16.3,52.5 23.5,53 24,45.2 16.8,45.5 				"/>
				<polygon fill="#58FFFE" points="8,52 15.3,52.5 15.7,45.5 8.5,45.8 				"/>
				<polygon fill="#58FFFE" points="15.8,61.1 23,62.4 23.4,54.6 16.2,54 				"/>
				<polygon fill="#002D95" points="7.5,59.5 14.7,60.9 15.2,53.9 7.9,53.3 				"/>
			</g>
			<polygon fill="#58FFFE" points="10.3,59.5 14.2,60.2 14.2,59.2 10.4,58.6 			"/>
			<polygon fill="#58FFFE" points="18.2,52.1 22.1,52.3 22.1,51.3 18.3,51.1 			"/>
			<polygon fill="#58FFFE" points="8.4,59.2 9.9,59.4 10,58.5 8.5,58.3 			"/>
			<polygon fill="#197DE5" points="8.9,47.3 15,47.2 15.1,46.1 9,46.3 			"/>
			<polygon fill="#197DE5" points="17.9,56.9 21.4,57.3 21.5,55.8 18,55.5 			"/>
		</g>
		<polygon fill="#D4BDF0" points="10.8,41.9 8.5,42.2 8.4,43.8 10.8,43.6 		"/>
		<g>
			<path fill="#58FFFE" d="M21.4,42c0,0.4,0.3,0.8,0.6,0.8c0.3,0,0.6-0.4,0.6-0.8c0-0.4-0.3-0.8-0.6-0.8
				C21.6,41.2,21.4,41.6,21.4,42z"/>
			<path fill="#58FFFE" d="M22,43c0.6,0,1.1,0.6,1.1,1.4h-2.2C20.9,43.6,21.4,43,22,43z"/>
		</g>
		<g>
			<polygon fill="#E03347" points="3.7,60.8 6.4,61.8 6.6,58.1 4,57.7 			"/>
			<g>
				<path fill="#FFFFFF" d="M4.3,60.3L4.3,60.3c0.1,0.1,0.2,0.2,0.3,0.1L6,59.2c0.1-0.1,0.1-0.2,0-0.4l0,0c-0.1-0.1-0.2-0.1-0.3-0.1
					L4.4,60C4.3,60.1,4.3,60.2,4.3,60.3z"/>
				<path fill="#FFFFFF" d="M4.5,58.5L4.5,58.5c-0.1,0.1-0.1,0.2,0,0.3l1.2,2C5.8,60.9,5.9,61,6,60.9l0,0c0.1-0.1,0.1-0.2,0-0.4
					l-1.2-2C4.7,58.4,4.6,58.4,4.5,58.5z"/>
			</g>
		</g>
		<path fill="#58FFFE" d="M7.3,51.3c0,0.3,0.1,0.5,0.3,0.5c0.2,0,0.3-0.2,0.3-0.5s-0.1-0.5-0.3-0.5C7.5,50.8,7.3,51,7.3,51.3z"/>
		<g>
			<path fill="#58FFFE" d="M6.9,60.1l1-18.4l17.3-2.1l-1.5,24.1L6.9,60.1z M8.2,42l-1,18l16.4,3.5L25,39.9L8.2,42z"/>
		</g>
	</g>
</g>
</svg>
