<?xml version="1.0" encoding="utf-8"?>
<!-- Generator: Adobe Illustrator 24.1.1, SVG Export Plug-In . SVG Version: 6.00 Build 0)  -->
<svg version="1.1" id="pc" xmlns="http://www.w3.org/2000/svg" xmlns:xlink="http://www.w3.org/1999/xlink" x="0px" y="0px"
	 viewBox="0 0 70.5 79.7" enable-background="new 0 0 70.5 79.7" xml:space="preserve">
<g>
	<polygon opacity="0.2" fill="#051E35" enable-background="new    " points="29.7,20.6 14,28.2 13,41.8 28.6,39.8 	"/>
	<g>
		<polygon fill="#197DE5" points="28.3,19.3 12.6,26.9 11.6,40.5 27.2,38.5 		"/>
		<polygon fill="#58FFFE" points="27.7,20.1 27.5,22.8 12.8,28.9 13,27 		"/>
		<polygon fill="#0031B3" points="28.3,19.3 28.5,19.5 27.7,38.4 27.2,38.5 		"/>
	</g>
	<g>
		
			<radialGradient id="SVGID_1_" cx="-1360.3373" cy="540.6" r="9.8313" gradientTransform="matrix(-1 0 0 1 -1343.8647 -514)" gradientUnits="userSpaceOnUse">
			<stop  offset="0" style="stop-color:#000000"/>
			<stop  offset="1" style="stop-color:#02B3C4"/>
		</radialGradient>
		<polygon opacity="0.5" fill="url(#SVGID_1_)" enable-background="new    " points="24.8,15.5 9,24.5 8.1,37.7 23.7,34.6 		"/>
		<polygon opacity="0.5" fill="#58FFFE" enable-background="new    " points="24.2,16.2 24.1,19 9.2,26.2 9.4,24.5 		"/>
		<polygon fill="#58FFFE" points="24.8,15.5 25.1,15.6 24.2,34.9 23.7,34.6 		"/>
	</g>
	<polygon fill="#58FFFE" points="8.1,37.7 23.7,34.6 24.2,34.9 8.2,37.8 	"/>
	<g>
		<polygon fill="#58FFFE" points="9.3,25.1 24.2,17.3 24.2,16.8 9.4,24.8 		"/>
		<polygon fill="#58FFFE" points="9,30.7 23.7,25 23.8,24.5 9,30.3 		"/>
		<polygon fill="#58FFFE" points="9.2,27.3 24,20.3 24,19.8 9.2,26.9 		"/>
		<polygon fill="#58FFFE" points="19.9,21 24.1,18.9 24.1,18.4 19.9,20.6 		"/>
		<polygon fill="#58FFFE" points="22.6,24.3 23.8,23.8 23.8,23.3 22.6,23.8 		"/>
		<polygon fill="#58FFFE" points="13.7,28 14.8,27.5 14.9,27.1 13.7,27.6 		"/>
		<polygon fill="#58FFFE" points="13.1,24.4 19.7,21.1 19.7,20.6 13.1,24 		"/>
		<polygon fill="#58FFFE" points="13.5,27.2 20.1,24.3 20.1,23.9 13.5,26.8 		"/>
		<polygon fill="#58FFFE" points="15.5,27.2 22.1,24.5 22.1,24 15.5,26.8 		"/>
		<polygon fill="#58FFFE" points="9.1,28 15.7,25.1 15.8,24.7 9.2,27.7 		"/>
		<polygon fill="#58FFFE" points="8.9,31.6 23.7,26.3 23.7,25.8 8.9,31.3 		"/>
		<polygon fill="#58FFFE" points="8.5,37.1 23.3,34 23.3,33.6 8.5,36.8 		"/>
		<polygon fill="#58FFFE" points="8.7,33.8 23.5,29.3 23.5,28.9 8.8,33.4 		"/>
		<polygon fill="#58FFFE" points="19.4,29.3 23.6,27.9 23.6,27.5 19.4,28.9 		"/>
		<polygon fill="#58FFFE" points="22.1,33.1 23.3,32.8 23.4,32.4 22.2,32.7 		"/>
		<polygon fill="#58FFFE" points="13.2,35.3 14.4,35 14.4,34.6 13.2,34.9 		"/>
		<polygon fill="#58FFFE" points="12.7,31.5 19.3,29.4 19.3,28.9 12.7,31.1 		"/>
		<polygon fill="#58FFFE" points="13,34.4 19.6,32.7 19.6,32.3 13,34 		"/>
		<polygon fill="#58FFFE" points="15,34.8 21.6,33.2 21.7,32.8 15.1,34.4 		"/>
		<polygon fill="#58FFFE" points="8.7,34.5 15.3,32.7 15.3,32.3 8.7,34.2 		"/>
	</g>
	<g>
		<polygon fill="#58FFFE" points="8.3,37.8 9.1,24.5 24.9,15.6 24.8,15.4 8.9,24.4 8.1,37.8 		"/>
	</g>
	<g>
		<polygon fill="#E03347" points="7.8,26.9 10.3,25.6 10.5,22.2 7.9,24.2 		"/>
		<g>
			<path fill="#FFFFFF" d="M8.4,26L8.4,26c0.1,0,0.2,0,0.2-0.1l1.3-2.3c0.1-0.1,0.1-0.3,0-0.3l0,0c-0.1,0-0.2,0-0.3,0.2l-1.3,2.3
				C8.3,25.9,8.3,26,8.4,26z"/>
			<path fill="#FFFFFF" d="M8.5,24.4L8.5,24.4c-0.1,0.1-0.1,0.3,0,0.3l1.2,0.6c0.1,0,0.2,0,0.2-0.1l0,0c0.1-0.1,0.1-0.3,0-0.3
				l-1.2-0.6C8.6,24.2,8.5,24.3,8.5,24.4z"/>
		</g>
	</g>
	<polygon fill="#58FFFE" points="27,37.5 27.5,25.2 27,25.6 26.5,37.6 	"/>
	<polygon fill="#D4BDF0" points="16.3,39.3 16.3,37.9 12.3,38.5 12.2,39.8 	"/>
</g>
</svg>
