<?xml version="1.0" encoding="utf-8"?>
<!-- Generator: Adobe Illustrator 24.1.1, SVG Export Plug-In . SVG Version: 6.00 Build 0)  -->
<svg version="1.1" id="pc" xmlns="http://www.w3.org/2000/svg" xmlns:xlink="http://www.w3.org/1999/xlink" x="0px" y="0px"
	 viewBox="0 0 70.5 79.7" enable-background="new 0 0 70.5 79.7" xml:space="preserve">
<g>
	<path fill="#A92FE5" d="M50,56.4l-8-0.8c-1-0.1-1.9,0.7-1.9,1.7l0,0c0,0.9,0.6,1.7,1.5,1.8l8,1.4c1,0.2,2-0.6,2.1-1.6l0.1-0.7
		C51.7,57.3,51,56.5,50,56.4z"/>
	<path opacity="0.88" fill="#687DE5" enable-background="new    " d="M48.2,55.8L40.4,55c-1.1-0.1-2,0.7-2.1,1.8l0,0
		c-0.1,1,0.6,1.8,1.6,2l7.8,1.2c1.1,0.2,2.1-0.6,2.2-1.7v-0.5C49.9,56.8,49.2,55.9,48.2,55.8z"/>
	<path fill="#AC9CF0" d="M46.8,54.8L39,54.3c-1-0.1-1.9,0.7-2,1.8l0,0c-0.1,1,0.7,1.8,1.6,2l7.8,1c1.1,0.1,2-0.6,2.1-1.7v-0.5
		C48.6,55.8,47.9,54.9,46.8,54.8z"/>
	<path fill="#F73535" d="M46,54.7l-7.4-0.4c-1,0-1.8,0.8-1.8,1.8l0,0c0,1,0.7,1.8,1.6,1.9l7.2,0.8c1,0.1,1.9-0.7,1.9-1.8v-0.5
		C47.7,55.6,47,54.8,46,54.7z"/>
	
		<radialGradient id="SVGID_1_" cx="-1199.0172" cy="710.0502" r="6.1849" gradientTransform="matrix(-1.0308 -0.1164 -0.0688 0.6093 -1147.0107 -516.1246)" gradientUnits="userSpaceOnUse">
		<stop  offset="0" style="stop-color:#F94081"/>
		<stop  offset="1" style="stop-color:#000000"/>
	</radialGradient>
	<path opacity="0.06" fill="url(#SVGID_1_)" enable-background="new    " d="M33.7,55.4c-0.2,2.1,2.4,4.1,6,4.5c3.5,0.4,6.6-1,6.8-3
		c0.2-2.1-2.4-4.1-6-4.5C37,51.9,33.9,53.3,33.7,55.4z"/>
	<g>
		<g>
			<path fill="#58FFFE" d="M27.2,64.1l0.4-4.5l4.3,0.4l-0.3,5L27.2,64.1z M27.8,59.9L27.5,64l3.9,0.7l0.3-4.4L27.8,59.9z"/>
		</g>
		<polygon fill="#58FFFE" points="30.1,60.7 29.9,63.8 28.3,62.1 		"/>
	</g>
	<g>
		<polygon fill="#29BBFE" points="29.2,59.9 29.5,55.6 36.9,56.2 36.9,56 29.3,55.4 29.1,59.9 		"/>
	</g>
	<path fill="#58FFFE" d="M28.7,59.7c0,0.3,0.2,0.5,0.4,0.5c0.2,0,0.4-0.2,0.4-0.5s-0.2-0.5-0.4-0.5C28.9,59.2,28.7,59.4,28.7,59.7z"
		/>
	<path fill="#58FFFE" d="M36.2,56.1c0,0.3,0.2,0.5,0.4,0.5s0.4-0.2,0.4-0.5s-0.2-0.5-0.4-0.5S36.3,55.8,36.2,56.1z"/>
</g>
</svg>
