<svg width="8" height="12" viewBox="0 0 8 12" fill="none" xmlns="http://www.w3.org/2000/svg">
<path d="M7.14758 8.58569C7.23498 8.58569 7.32239 8.60778 7.4098 8.67403C7.49721 8.74029 7.60647 8.80654 7.69387 8.91697C7.78128 9.02739 7.84684 9.18199 7.91239 9.33658C7.9561 9.51326 7.9998 9.71203 7.9998 9.91079C7.9998 10.3746 7.86869 10.7279 7.62832 10.993C7.38795 11.258 7.06017 11.3905 6.64498 11.3905C6.36091 11.3905 6.12054 11.3242 5.90202 11.2138C5.6835 11.1034 5.53053 10.9267 5.39942 10.7059C5.29016 10.485 5.22461 10.22 5.22461 9.91079C5.22461 9.71203 5.24646 9.53535 5.29016 9.38075C5.33387 9.22616 5.39942 9.09365 5.48683 8.98322C5.57424 8.8728 5.66165 8.78446 5.74905 8.7182C5.83646 8.65195 5.92387 8.62986 6.01128 8.62986C6.09869 8.62986 6.16424 8.65195 6.20795 8.7182C6.25165 8.78446 6.29535 8.8728 6.29535 8.96114C6.29535 9.02739 6.2735 9.07156 6.25165 9.11573C6.22979 9.1599 6.1861 9.20407 6.12054 9.24824C5.98943 9.33658 5.90202 9.42492 5.83646 9.53535C5.7709 9.64577 5.74905 9.7562 5.74905 9.91079C5.74905 10.1316 5.83646 10.3083 5.98943 10.4408C6.14239 10.5733 6.36091 10.6396 6.62313 10.6396C6.75424 10.6396 6.8635 10.6175 6.97276 10.5954C7.08202 10.5513 7.16943 10.5071 7.23498 10.4408C7.30054 10.3746 7.3661 10.2862 7.4098 10.1979C7.45351 10.1096 7.47536 9.99913 7.47536 9.88871C7.47536 9.73411 7.4535 9.60161 7.38795 9.51327C7.32239 9.40284 7.23499 9.3145 7.10388 9.22616C7.03832 9.18199 6.97276 9.13782 6.92906 9.07156C6.88535 9.00531 6.8635 8.96114 6.8635 8.8728C6.8635 8.78446 6.88535 8.69612 6.95091 8.65195C7.01647 8.62986 7.08202 8.58569 7.14758 8.58569Z" fill="#E74040"/>
<path d="M6.62313 5.14044C6.8198 5.14044 7.01647 5.18461 7.16943 5.25087C7.34425 5.31712 7.47536 5.42755 7.60647 5.56006C7.73758 5.69257 7.82499 5.84716 7.89054 6.02384C7.9561 6.20052 7.97796 6.39929 7.97796 6.64222C7.97796 6.86307 7.93425 7.06184 7.8687 7.2606C7.80314 7.43728 7.71573 7.59188 7.58462 7.72439C7.45351 7.8569 7.32239 7.94524 7.14758 8.03358C6.97276 8.09983 6.79795 8.144 6.60128 8.144C6.40461 8.144 6.20794 8.09983 6.03313 8.03358C5.85831 7.96732 5.7272 7.8569 5.59609 7.74647C5.46498 7.61396 5.37757 7.45937 5.31202 7.28269C5.24646 7.10601 5.22461 6.90724 5.22461 6.66431C5.22461 6.44346 5.24646 6.24469 5.33387 6.04593C5.39942 5.86925 5.48683 5.71465 5.61794 5.58214C5.74905 5.44963 5.88017 5.36129 6.05498 5.27295C6.2298 5.16253 6.40461 5.14044 6.62313 5.14044ZM6.62313 5.89133C6.33906 5.89133 6.14239 5.95759 5.98943 6.0901C5.83646 6.22261 5.74905 6.39929 5.74905 6.62014C5.74905 6.77473 5.79276 6.88516 5.85831 6.99558C5.92387 7.10601 6.03313 7.19435 6.16424 7.2606C6.29535 7.32686 6.44832 7.34894 6.62313 7.34894C6.79795 7.34894 6.95091 7.32686 7.08203 7.2606C7.21314 7.19435 7.3224 7.12809 7.38795 7.01767C7.45351 6.90724 7.49721 6.77473 7.49721 6.62014C7.49721 6.39929 7.4098 6.22261 7.25684 6.0901C7.10387 5.95759 6.88536 5.89133 6.62313 5.89133Z" fill="#E74040"/>
<path d="M6.66702 2.04853H7.56294C7.69405 2.04853 7.80331 2.0927 7.89072 2.15895C7.95627 2.22521 7.99998 2.31355 7.99998 2.44606C7.99998 2.55648 7.95627 2.64482 7.89072 2.71108C7.82516 2.77733 7.7159 2.8215 7.56294 2.8215H6.4922C6.31738 2.8215 6.18627 2.8215 6.09887 2.84359C6.01146 2.86567 5.92405 2.88776 5.85849 2.95401C5.79294 3.02027 5.77109 3.10861 5.77109 3.21903C5.77109 3.46197 5.83664 3.61656 5.98961 3.7049C6.14257 3.77116 6.36109 3.81533 6.64516 3.81533H7.56294C7.69405 3.81533 7.80331 3.8595 7.89072 3.92575C7.97813 3.99201 7.99998 4.08035 7.99998 4.21286C7.99998 4.32328 7.95627 4.41162 7.89072 4.49996C7.82516 4.56622 7.7159 4.61039 7.56294 4.61039H5.63997C5.50886 4.61039 5.42146 4.5883 5.3559 4.52205C5.29035 4.45579 5.24664 4.36745 5.24664 4.25703C5.24664 4.1466 5.26849 4.08035 5.33405 3.99201C5.39961 3.92575 5.48701 3.88158 5.59627 3.88158H5.66183C5.53072 3.74907 5.42146 3.61656 5.3559 3.46197C5.29035 3.30737 5.24664 3.15278 5.24664 2.9761C5.24664 2.79942 5.29035 2.62274 5.3559 2.49023C5.42146 2.35772 5.53072 2.24729 5.66183 2.15895C5.53072 2.02644 5.42146 1.89393 5.3559 1.76142C5.29035 1.62891 5.24664 1.45223 5.24664 1.27555C5.24664 1.07679 5.29035 0.900107 5.3559 0.745512C5.42146 0.590917 5.53072 0.480492 5.66183 0.414237C5.79294 0.347982 5.96776 0.325897 6.22998 0.325897H7.54109C7.6722 0.325897 7.78146 0.370067 7.86887 0.436322C7.93443 0.502577 7.97813 0.590917 7.97813 0.723427C7.97813 0.833852 7.93443 0.922192 7.86887 1.01053C7.80332 1.07679 7.69406 1.12096 7.54109 1.12096H6.40479C6.25183 1.12096 6.14257 1.12096 6.05516 1.14304C5.96775 1.16513 5.9022 1.18721 5.83664 1.25347C5.77108 1.31972 5.74923 1.40806 5.74923 1.51849C5.74923 1.60683 5.77108 1.71725 5.83664 1.80559C5.88034 1.89393 5.96775 1.96019 6.05516 2.00436C6.18627 2.02644 6.38294 2.04853 6.66702 2.04853Z" fill="#E74040"/>
<path d="M1.88133 11.258C2.83474 11.258 3.60763 10.4768 3.60763 9.51327C3.60763 8.54969 2.83474 7.76855 1.88133 7.76855C0.927919 7.76855 0.155029 8.54969 0.155029 9.51327C0.155029 10.4768 0.927919 11.258 1.88133 11.258Z" fill="#E74040"/>
</svg>
