<?xml version="1.0" encoding="utf-8"?>
<!-- Generator: Adobe Illustrator 24.1.1, SVG Export Plug-In . SVG Version: 6.00 Build 0)  -->
<svg version="1.1" id="Capa_1" xmlns="http://www.w3.org/2000/svg" xmlns:xlink="http://www.w3.org/1999/xlink" x="0px" y="0px"
	 viewBox="0 0 12.505 12" enable-background="new 0 0 12.505 12" xml:space="preserve">
<path fill="#E74040" d="M2.089,11.258c0.953,0,1.726-0.781,1.726-1.745c0-0.964-0.773-1.745-1.726-1.745
	c-0.953,0-1.726,0.781-1.726,1.745C0.363,10.477,1.136,11.258,2.089,11.258z"/>
<g>
	<path fill="#E74040" d="M5.756,9.948H5.91C5.614,9.687,5.396,9.417,5.257,9.136c-0.139-0.282-0.209-0.6-0.209-0.955
		c0-0.426,0.102-0.819,0.305-1.178c0.203-0.358,0.5-0.642,0.891-0.85c0.39-0.209,0.853-0.312,1.387-0.312
		c0.394,0,0.756,0.06,1.086,0.18c0.329,0.12,0.606,0.285,0.829,0.495c0.224,0.21,0.395,0.457,0.516,0.744
		c0.12,0.285,0.18,0.593,0.18,0.921c0,0.396-0.074,0.729-0.221,0.998c-0.147,0.27-0.362,0.526-0.647,0.77h1.922
		c0.563,0,0.843,0.222,0.843,0.665c0,0.261-0.072,0.433-0.218,0.518c-0.145,0.084-0.357,0.127-0.635,0.127H5.765
		c-0.244,0-0.426-0.057-0.546-0.173c-0.12-0.115-0.18-0.273-0.18-0.472c0-0.196,0.062-0.357,0.185-0.479
		C5.348,10.01,5.525,9.948,5.756,9.948z M7.617,7.232c-0.337,0-0.627,0.055-0.869,0.167C6.505,7.511,6.319,7.665,6.189,7.864
		C6.06,8.062,5.995,8.28,5.995,8.522c0,0.382,0.139,0.705,0.417,0.967S7.099,9.882,7.64,9.882c0.51,0,0.905-0.13,1.188-0.392
		C9.11,9.23,9.252,8.907,9.252,8.522c0-0.231-0.061-0.443-0.185-0.64C8.943,7.686,8.758,7.528,8.512,7.409S7.967,7.232,7.617,7.232z
		"/>
	<path fill="#E74040" d="M7.954,1.379v2.711c0.291-0.004,0.547-0.067,0.769-0.19c0.222-0.124,0.389-0.288,0.502-0.492
		C9.337,3.203,9.393,2.977,9.393,2.73c0-0.166-0.018-0.318-0.055-0.455C9.303,2.139,9.247,2.006,9.17,1.877
		C9.094,1.748,9.011,1.63,8.924,1.522C8.837,1.414,8.718,1.272,8.568,1.1C8.512,1.029,8.483,0.928,8.483,0.796
		c0-0.142,0.036-0.258,0.108-0.346c0.072-0.088,0.174-0.132,0.305-0.132c0.115,0,0.25,0.049,0.406,0.148
		C9.456,0.564,9.605,0.712,9.747,0.91c0.142,0.198,0.26,0.446,0.354,0.746c0.093,0.3,0.14,0.645,0.14,1.034
		c0,0.891-0.235,1.583-0.703,2.077S8.433,5.507,7.63,5.507c-0.378,0-0.729-0.061-1.052-0.183c-0.323-0.121-0.6-0.299-0.831-0.533
		C5.516,4.558,5.338,4.27,5.215,3.928C5.092,3.586,5.03,3.208,5.03,2.791c0-0.541,0.105-1.006,0.316-1.394
		c0.211-0.387,0.483-0.678,0.818-0.87c0.334-0.193,0.675-0.29,1.022-0.29c0.322,0,0.53,0.1,0.625,0.3
		C7.907,0.736,7.954,1.017,7.954,1.379z M7.228,4.091V1.577C6.79,1.611,6.463,1.739,6.246,1.961S5.92,2.474,5.92,2.836
		c0,0.346,0.11,0.629,0.33,0.851C6.471,3.909,6.796,4.044,7.228,4.091z"/>
</g>
</svg>
